<svg id="Layer_1" data-name="Layer 1" xmlns="http://www.w3.org/2000/svg" viewBox="0 0 819 420"><defs><style>.cls-1{fill:#ececec;}.cls-2{fill:#231f20;}.cls-3{fill:#1ecac7;}</style></defs><title>Slide-14-Equality-Operators</title><rect class="cls-1" x="1.5" y="1.5" width="816" height="87.52"/><path class="cls-2" d="M817.5,90.52H1.5A1.5,1.5,0,0,1,0,89V1.5A1.5,1.5,0,0,1,1.5,0h816A1.5,1.5,0,0,1,819,1.5V89A1.5,1.5,0,0,1,817.5,90.52ZM3,87.52H816V3H3V87.52Z"/><path d="M218.22,60.23V29h19.54v5.72H224.29v7.13h12.19v5.41H224.29V54.5h13.47v5.72H218.22Z"/><path d="M257.86,68.59V58.07c-1,1.63-3.17,2.68-6,2.68-6.16,0-10.56-4.88-10.56-11.4C241.27,43,245.36,38,251.66,38c3.78,0,5.72,1.8,6.34,3V38.57h5.59v30h-5.72Zm-5.32-13.07c3,0,5.37-2.29,5.37-6.16s-2.38-6.07-5.37-6.07-5.37,2.2-5.37,6.07S249.54,55.52,252.54,55.52Z"/><path d="M283.65,57.89c-1.19,2-3.7,2.9-6,2.9-5.24,0-8.23-3.83-8.23-8.54V38.57h5.85v12.5c0,2.42,1.23,4.36,4,4.36s4.09-1.76,4.09-4.27V38.57h5.85V56.31a35.63,35.63,0,0,0,.22,3.92h-5.59A14.84,14.84,0,0,1,283.65,57.89Z"/><path d="M300.58,47.77l5.32-.79c1.23-.18,1.63-0.79,1.63-1.54,0-1.54-1.19-2.82-3.65-2.82a3.84,3.84,0,0,0-4.14,3.52L294.55,45c0.35-3.39,3.48-7.13,9.29-7.13,6.86,0,9.42,3.87,9.42,8.23V56.79a24.28,24.28,0,0,0,.26,3.43h-5.37a14.68,14.68,0,0,1-.22-2.6,7.24,7.24,0,0,1-6.38,3.21c-4.62,0-7.44-3.12-7.44-6.51C294.11,50.46,297,48.3,300.58,47.77Zm7,3.7v-1l-4.88.75c-1.5.22-2.68,1.06-2.68,2.73a2.54,2.54,0,0,0,2.82,2.51C305.25,56.48,307.54,55.3,307.54,51.47Z"/><path d="M319.15,60.23V28.36H325V60.23h-5.85Z"/><path d="M334.15,27.84a3.61,3.61,0,1,1-3.61,3.65A3.61,3.61,0,0,1,334.15,27.84Zm-2.9,32.39V38.57h5.85V60.23h-5.85Z"/><path d="M350.57,38.57h4.36v5.19h-4.36v9.07c0,1.89.88,2.51,2.55,2.51a8.51,8.51,0,0,0,1.8-.18V60a8.68,8.68,0,0,1-3.3.53c-4.22,0-6.86-2.51-6.86-6.69V43.77h-3.92V38.57h1.1a3.12,3.12,0,0,0,3.34-3.43v-3h5.28v6.47Z"/><path d="M361.65,68.76l5.1-11.27-9.2-18.92h6.56l5.77,12.67,5.32-12.67h6.25l-13.6,30.19h-6.2Z"/><path d="M410.49,28.36c8.49,0,16.06,6.21,16.06,16.28a16,16,0,1,1-32.08,0C394.48,34.57,402,28.36,410.49,28.36Zm0,26.62c4.84,0,9.77-3.34,9.77-10.39s-4.93-10.39-9.77-10.39-9.73,3.34-9.73,10.39S405.7,55,410.49,55Z"/><path d="M431.39,68.59v-30h5.68v2.64c1-1.67,3.39-3.12,6.64-3.12,6.34,0,10,4.84,10,11.27s-4.09,11.4-10.21,11.4c-3,0-5.19-1.19-6.25-2.64V68.59h-5.85Zm11.18-25.26c-3,0-5.41,2.24-5.41,6.07s2.42,6.12,5.41,6.12,5.37-2.24,5.37-6.12S445.56,43.33,442.57,43.33Z"/><path d="M477.73,54c-1.1,3.74-4.53,6.87-9.86,6.87-5.94,0-11.18-4.27-11.18-11.57,0-6.91,5.1-11.4,10.65-11.4C474,37.91,478,42.18,478,49.14c0,0.84-.09,1.72-0.09,1.8H462.46a5.27,5.27,0,0,0,5.46,4.93,4.78,4.78,0,0,0,4.93-3.3Zm-5.46-7.08c-0.09-2.16-1.5-4.27-4.84-4.27a4.68,4.68,0,0,0-4.84,4.27h9.68Z"/><path d="M495.85,44.38a8.83,8.83,0,0,0-1.76-.18c-3,0-5.59,1.45-5.59,6.12v9.9h-5.85V38.57h5.68v3.21c1.32-2.86,4.31-3.39,6.16-3.39a13.33,13.33,0,0,1,1.36.09v5.9Z"/><path d="M505.27,47.77l5.32-.79c1.23-.18,1.63-0.79,1.63-1.54,0-1.54-1.19-2.82-3.65-2.82a3.84,3.84,0,0,0-4.14,3.52L499.24,45c0.35-3.39,3.48-7.13,9.29-7.13,6.87,0,9.42,3.87,9.42,8.23V56.79a24.28,24.28,0,0,0,.26,3.43h-5.37a14.68,14.68,0,0,1-.22-2.6,7.24,7.24,0,0,1-6.38,3.21c-4.62,0-7.44-3.12-7.44-6.51C498.8,50.46,501.66,48.3,505.27,47.77Zm7,3.7v-1l-4.88.75c-1.5.22-2.68,1.06-2.68,2.73a2.54,2.54,0,0,0,2.82,2.51C509.93,56.48,512.22,55.3,512.22,51.47Z"/><path d="M530.92,38.57h4.36v5.19h-4.36v9.07c0,1.89.88,2.51,2.55,2.51a8.51,8.51,0,0,0,1.8-.18V60a8.68,8.68,0,0,1-3.3.53c-4.22,0-6.87-2.51-6.87-6.69V43.77h-3.92V38.57h1.1a3.12,3.12,0,0,0,3.34-3.43v-3h5.28v6.47Z"/><path d="M561.1,49.4a11.35,11.35,0,1,1-22.71,0A11.35,11.35,0,1,1,561.1,49.4Zm-5.85,0c0-4.09-2.64-6.16-5.5-6.16s-5.5,2.07-5.5,6.16,2.64,6.16,5.5,6.16S555.25,53.49,555.25,49.4Z"/><path d="M578.92,44.38a8.83,8.83,0,0,0-1.76-.18c-3,0-5.59,1.45-5.59,6.12v9.9h-5.85V38.57h5.68v3.21c1.32-2.86,4.31-3.39,6.16-3.39a13.33,13.33,0,0,1,1.36.09v5.9Z"/><path d="M586.36,53.1c0.13,1.72,1.41,3.3,4,3.3,1.94,0,2.86-1,2.86-2.16,0-1-.66-1.76-2.33-2.11L588,51.47c-4.18-.92-6.07-3.43-6.07-6.47,0-3.87,3.43-7.08,8.1-7.08,6.16,0,8.23,3.92,8.49,6.25l-4.88,1.1a3.3,3.3,0,0,0-3.56-2.9c-1.54,0-2.77.92-2.77,2.16a2.05,2.05,0,0,0,2,1.94l3.08,0.66c4.27,0.88,6.43,3.48,6.43,6.65,0,3.52-2.73,7.13-8.41,7.13-6.51,0-8.76-4.22-9-6.69Z"/><path d="M212.13,125.24a5.46,5.46,0,0,0-5.7-4.6c-3,0-5.21,2-5.21,4.48,0,1.94,1.18,3.42,3.46,3.91l4,0.87c4.48,1,7,3.8,7,7.56,0,4.18-3.57,8-9.31,8-6.5,0-9.57-4.18-10.07-8l3.57-1.14a6.12,6.12,0,0,0,6.46,5.78c3.72,0,5.55-1.94,5.55-4.29,0-1.94-1.33-3.61-4-4.18l-3.84-.84c-3.84-.84-6.57-3.34-6.57-7.37,0-4.22,3.91-8,8.89-8,6.08,0,8.51,3.76,9.12,6.69Z"/><path d="M224.86,126.61h4v3.23h-4v9.5c0,1.67.68,2.51,2.55,2.51a7.25,7.25,0,0,0,1.41-.15v3a7.83,7.83,0,0,1-2.43.34c-3.12,0-5.09-1.9-5.09-5.21v-10h-3.5v-3.23h1a2.56,2.56,0,0,0,2.81-2.81v-3h3.27v5.77Z"/><path d="M243.33,130.22a11.19,11.19,0,0,0-1.56-.11c-3,0-5,1.6-5,5.62v9.16h-3.57V126.61h3.5v3.19a5.72,5.72,0,0,1,5.47-3.5,6.72,6.72,0,0,1,1.18.11v3.8Z"/><path d="M248.88,117.11a2.56,2.56,0,1,1-2.55,2.58A2.56,2.56,0,0,1,248.88,117.11Zm-1.75,27.77V126.61h3.53v18.28h-3.53Z"/><path d="M258.87,135.72c0,4.18,2.62,6.42,5.59,6.42a5,5,0,0,0,5.09-3.76l3.15,1.37a8.4,8.4,0,0,1-8.24,5.7c-5.32,0-9.23-4.18-9.23-9.73,0-5.7,4-9.69,9.19-9.69a8,8,0,0,1,8.13,5.81l-3.23,1.37a4.79,4.79,0,0,0-4.9-3.88C261.53,129.34,258.87,131.47,258.87,135.72Z"/><path d="M281.67,126.61h4v3.23h-4v9.5c0,1.67.68,2.51,2.55,2.51a7.25,7.25,0,0,0,1.41-.15v3a7.83,7.83,0,0,1-2.43.34c-3.12,0-5.09-1.9-5.09-5.21v-10h-3.5v-3.23h1a2.56,2.56,0,0,0,2.81-2.81v-3h3.27v5.77Z"/><path d="M315.79,139.68a8.28,8.28,0,0,1-8.21,5.77c-4.9,0-9.19-3.57-9.19-9.76,0-5.74,4.14-9.65,8.74-9.65,5.62,0,8.78,3.88,8.78,9.57a8,8,0,0,1-.08,1.14H302.08a5.43,5.43,0,0,0,5.51,5.55,5,5,0,0,0,5.13-3.69Zm-3.61-5.81c-0.08-2.62-1.79-4.67-5-4.67a4.92,4.92,0,0,0-5,4.67h10Z"/><path d="M333.31,152.1v-9.8a6.1,6.1,0,0,1-5.7,3.08c-5.24,0-8.66-4.37-8.66-9.69,0-5.17,3.23-9.54,8.59-9.54a6.16,6.16,0,0,1,5.85,3.27v-2.81h3.46V152.1h-3.53ZM328,142.22c3.23,0,5.4-2.77,5.4-6.54s-2.17-6.38-5.4-6.38-5.36,2.62-5.36,6.38S324.69,142.22,328,142.22Z"/><path d="M349.2,145.45c-4.26,0-6.84-3.19-6.84-7.33V126.61h3.57v11c0,2.51,1.14,4.71,4.14,4.71s4.33-1.9,4.33-4.67v-11H358V141.5a30.7,30.7,0,0,0,.19,3.38h-3.42a16.15,16.15,0,0,1-.15-2.2C353.6,144.58,351.33,145.45,349.2,145.45Z"/><path d="M368.46,134.43l4.94-.72a1.33,1.33,0,0,0,1.41-1.37c0-1.79-1.18-3.27-4-3.27a3.88,3.88,0,0,0-4.14,3.69l-3.42-.8c0.38-3.5,3.53-5.93,7.48-5.93,5.47,0,7.6,3.12,7.6,6.69v9.16a17.22,17.22,0,0,0,.23,3h-3.5a13.4,13.4,0,0,1-.19-2.47,6.66,6.66,0,0,1-5.89,3c-3.72,0-6.12-2.58-6.12-5.47C362.92,136.71,365.31,134.89,368.46,134.43Zm6.35,2.62v-0.84l-5.59.84a2.73,2.73,0,0,0-2.66,2.74,2.77,2.77,0,0,0,3,2.66C372.45,142.45,374.81,141,374.81,137.05Z"/><path d="M383.93,144.88V117.37h3.57v27.51h-3.57Z"/><path d="M407.87,126.61h4v3.23h-4v9.5c0,1.67.68,2.51,2.55,2.51a7.26,7.26,0,0,0,1.41-.15v3a7.83,7.83,0,0,1-2.43.34c-3.12,0-5.09-1.9-5.09-5.21v-10h-3.5v-3.23h1a2.56,2.56,0,0,0,2.81-2.81v-3h3.27v5.77Z"/><path d="M433.56,135.72c0,5.59-3.87,9.73-9.35,9.73s-9.35-4.14-9.35-9.73,3.88-9.69,9.35-9.69S433.56,130.18,433.56,135.72Zm-3.65,0c0-4.22-2.66-6.5-5.7-6.5s-5.7,2.28-5.7,6.5,2.66,6.54,5.7,6.54S429.91,140,429.91,135.72Z"/><path class="cls-3" d="M33.87,131.93v-4.07H52.3v4.07H33.87Zm0,7.56v-4.1H52.3v4.1H33.87Z"/><path class="cls-3" d="M56.79,131.93v-4.07H75.21v4.07H56.79Zm0,7.56v-4.1H75.21v4.1H56.79Z"/><path class="cls-3" d="M79.7,131.93v-4.07H98.13v4.07H79.7Zm0,7.56v-4.1H98.13v4.1H79.7Z"/><path d="M198.3,220.53V193.59h16.38V197H202v8.28H213.5v3.5H202v8.25h12.65v3.46H198.3Z"/><path d="M232.08,227.74v-9.8a6.1,6.1,0,0,1-5.7,3.08c-5.24,0-8.66-4.37-8.66-9.69,0-5.17,3.23-9.54,8.59-9.54a6.16,6.16,0,0,1,5.85,3.27v-2.81h3.46v25.49h-3.53Zm-5.36-9.88c3.23,0,5.4-2.77,5.4-6.54s-2.17-6.38-5.4-6.38-5.36,2.62-5.36,6.38S223.46,217.87,226.73,217.87Z"/><path d="M248,221.1c-4.26,0-6.84-3.19-6.84-7.33V202.25h3.57v11c0,2.51,1.14,4.71,4.14,4.71s4.33-1.9,4.33-4.67v-11h3.57v14.89a30.69,30.69,0,0,0,.19,3.38h-3.42a16.15,16.15,0,0,1-.15-2.2C252.37,220.22,250.09,221.1,248,221.1Z"/><path d="M267.23,210.08l4.94-.72a1.33,1.33,0,0,0,1.41-1.37c0-1.79-1.18-3.27-4-3.27a3.88,3.88,0,0,0-4.14,3.69l-3.42-.8c0.38-3.5,3.53-5.93,7.48-5.93,5.47,0,7.6,3.12,7.6,6.69v9.16a17.21,17.21,0,0,0,.23,3h-3.5a13.4,13.4,0,0,1-.19-2.47,6.66,6.66,0,0,1-5.89,3c-3.72,0-6.12-2.58-6.12-5.47C261.69,212.36,264.08,210.53,267.23,210.08Zm6.35,2.62v-0.84l-5.58.84a2.73,2.73,0,0,0-2.66,2.74,2.77,2.77,0,0,0,3,2.66C271.22,218.09,273.58,216.69,273.58,212.7Z"/><path d="M282.7,220.53V193h3.57v27.51H282.7Z"/><path d="M306.64,202.25h4v3.23h-4V215c0,1.67.68,2.51,2.55,2.51a7.21,7.21,0,0,0,1.41-.15v3a7.84,7.84,0,0,1-2.43.34c-3.12,0-5.09-1.9-5.09-5.21v-10h-3.5v-3.23h1a2.56,2.56,0,0,0,2.81-2.81v-3h3.27v5.77Z"/><path d="M332.33,211.37c0,5.58-3.88,9.73-9.35,9.73s-9.35-4.14-9.35-9.73,3.88-9.69,9.35-9.69S332.33,205.82,332.33,211.37Zm-3.65,0c0-4.22-2.66-6.5-5.7-6.5s-5.7,2.28-5.7,6.5,2.66,6.54,5.7,6.54S328.68,215.62,328.68,211.37Z"/><path class="cls-3" d="M45.33,207.57V203.5H63.75v4.07H45.33Zm0,7.56V211H63.75v4.1H45.33Z"/><path class="cls-3" d="M68.24,207.57V203.5H86.67v4.07H68.24Zm0,7.56V211H86.67v4.1H68.24Z"/><path d="M212.13,282.88a5.46,5.46,0,0,0-5.7-4.6c-3,0-5.21,2-5.21,4.48,0,1.94,1.18,3.42,3.46,3.91l4,0.87c4.48,1,7,3.8,7,7.56,0,4.18-3.57,8-9.31,8-6.5,0-9.57-4.18-10.07-8l3.57-1.14a6.12,6.12,0,0,0,6.46,5.78c3.72,0,5.55-1.94,5.55-4.29,0-1.94-1.33-3.61-4-4.18l-3.84-.84c-3.84-.84-6.57-3.34-6.57-7.37,0-4.22,3.91-8,8.89-8,6.08,0,8.51,3.76,9.12,6.69Z"/><path d="M224.86,284.25h4v3.23h-4V297c0,1.67.68,2.51,2.55,2.51a7.21,7.21,0,0,0,1.41-.15v3a7.84,7.84,0,0,1-2.43.34c-3.12,0-5.09-1.9-5.09-5.21v-10h-3.5v-3.23h1a2.56,2.56,0,0,0,2.81-2.81v-3h3.27v5.77Z"/><path d="M243.33,287.86a11.26,11.26,0,0,0-1.56-.11c-3,0-5,1.6-5,5.62v9.16h-3.57V284.25h3.5v3.19a5.72,5.72,0,0,1,5.47-3.5,6.71,6.71,0,0,1,1.18.11v3.8Z"/><path d="M248.88,274.75a2.56,2.56,0,1,1-2.55,2.58A2.56,2.56,0,0,1,248.88,274.75Zm-1.75,27.77V284.25h3.53v18.28h-3.53Z"/><path d="M258.87,293.37c0,4.18,2.62,6.42,5.59,6.42a5,5,0,0,0,5.09-3.76l3.15,1.37a8.4,8.4,0,0,1-8.24,5.7c-5.32,0-9.23-4.18-9.23-9.73,0-5.7,4-9.69,9.19-9.69a8,8,0,0,1,8.13,5.81l-3.23,1.37a4.79,4.79,0,0,0-4.9-3.87C261.53,287,258.87,289.11,258.87,293.37Z"/><path d="M281.67,284.25h4v3.23h-4V297c0,1.67.68,2.51,2.55,2.51a7.21,7.21,0,0,0,1.41-.15v3a7.84,7.84,0,0,1-2.43.34c-3.12,0-5.09-1.9-5.09-5.21v-10h-3.5v-3.23h1a2.56,2.56,0,0,0,2.81-2.81v-3h3.27v5.77Z"/><path d="M303.45,302.53h-3.57V284.25h3.5v2.62a6.26,6.26,0,0,1,5.62-3.15c4.37,0,6.54,3.15,6.54,7.22v11.59H312v-11c0-2.54-1.06-4.6-4.26-4.6-2.81,0-4.26,2.24-4.26,5v10.56Z"/><path d="M338.4,293.37c0,5.58-3.88,9.73-9.35,9.73s-9.35-4.14-9.35-9.73,3.88-9.69,9.35-9.69S338.4,287.82,338.4,293.37Zm-3.65,0c0-4.22-2.66-6.5-5.7-6.5s-5.7,2.28-5.7,6.5,2.66,6.54,5.7,6.54S334.76,297.62,334.76,293.37Z"/><path d="M347.56,284.25h4v3.23h-4V297c0,1.67.68,2.51,2.55,2.51a7.21,7.21,0,0,0,1.41-.15v3a7.84,7.84,0,0,1-2.43.34c-3.12,0-5.09-1.9-5.09-5.21v-10h-3.5v-3.23h1a2.56,2.56,0,0,0,2.81-2.81v-3h3.27v5.77Z"/><path d="M381.69,297.32a8.28,8.28,0,0,1-8.21,5.78c-4.9,0-9.19-3.57-9.19-9.76,0-5.74,4.14-9.65,8.74-9.65,5.62,0,8.78,3.88,8.78,9.57a8,8,0,0,1-.08,1.14H368a5.43,5.43,0,0,0,5.51,5.55,5,5,0,0,0,5.13-3.69Zm-3.61-5.81c-0.08-2.62-1.79-4.67-5-4.67a4.92,4.92,0,0,0-5,4.67h10Z"/><path d="M399.21,309.74v-9.8a6.1,6.1,0,0,1-5.7,3.08c-5.24,0-8.66-4.37-8.66-9.69,0-5.17,3.23-9.54,8.59-9.54a6.16,6.16,0,0,1,5.85,3.27v-2.81h3.46v25.49h-3.53Zm-5.36-9.88c3.23,0,5.4-2.77,5.4-6.54s-2.17-6.38-5.4-6.38-5.36,2.62-5.36,6.38S390.58,299.87,393.85,299.87Z"/><path d="M415.09,303.1c-4.26,0-6.84-3.19-6.84-7.33V284.25h3.57v11c0,2.51,1.14,4.71,4.14,4.71s4.33-1.9,4.33-4.67v-11h3.57v14.89a30.66,30.66,0,0,0,.19,3.38h-3.42a16.16,16.16,0,0,1-.15-2.2C419.5,302.22,417.22,303.1,415.09,303.1Z"/><path d="M434.36,292.08l4.94-.72A1.33,1.33,0,0,0,440.7,290c0-1.79-1.18-3.27-4-3.27a3.88,3.88,0,0,0-4.14,3.69l-3.42-.8c0.38-3.5,3.53-5.93,7.49-5.93,5.47,0,7.6,3.12,7.6,6.69v9.16a17.28,17.28,0,0,0,.23,3H441a13.34,13.34,0,0,1-.19-2.47,6.66,6.66,0,0,1-5.89,3c-3.72,0-6.12-2.58-6.12-5.47C428.81,294.36,431.2,292.53,434.36,292.08Zm6.35,2.62v-0.84l-5.58.84a2.73,2.73,0,0,0-2.66,2.74,2.77,2.77,0,0,0,3,2.66C438.35,300.09,440.7,298.69,440.7,294.7Z"/><path d="M449.82,302.53V275h3.57v27.51h-3.57Z"/><path d="M473.76,284.25h4v3.23h-4V297c0,1.67.68,2.51,2.55,2.51a7.2,7.2,0,0,0,1.41-.15v3a7.84,7.84,0,0,1-2.43.34c-3.12,0-5.09-1.9-5.09-5.21v-10h-3.5v-3.23h1a2.56,2.56,0,0,0,2.81-2.81v-3h3.27v5.77Z"/><path d="M499.45,293.37c0,5.58-3.87,9.73-9.35,9.73s-9.35-4.14-9.35-9.73,3.88-9.69,9.35-9.69S499.45,287.82,499.45,293.37Zm-3.65,0c0-4.22-2.66-6.5-5.7-6.5s-5.7,2.28-5.7,6.5,2.66,6.54,5.7,6.54S495.8,297.62,495.8,293.37Z"/><path class="cls-3" d="M44.91,294.32H41.22L40,275.59h6.12ZM43,296.79a3,3,0,0,1,3,3,3,3,0,0,1-3,3,3,3,0,0,1-3-3A3,3,0,0,1,43,296.79Z"/><path class="cls-3" d="M51.67,289.57V285.5H70.1v4.07H51.67Zm0,7.56V293H70.1v4.1H51.67Z"/><path class="cls-3" d="M74.59,289.57V285.5H93v4.07H74.59Zm0,7.56V293H93v4.1H74.59Z"/><path d="M216.58,384.53l-14.55-22v22H198.3V357.59h5l13.45,20.67V357.59h3.72v26.94h-3.88Z"/><path d="M244.09,375.37c0,5.58-3.88,9.73-9.35,9.73s-9.35-4.14-9.35-9.73,3.88-9.69,9.35-9.69S244.09,369.82,244.09,375.37Zm-3.65,0c0-4.22-2.66-6.5-5.7-6.5s-5.7,2.28-5.7,6.5,2.66,6.54,5.7,6.54S240.44,379.62,240.44,375.37Z"/><path d="M253.25,366.25h4v3.23h-4V379c0,1.67.68,2.51,2.55,2.51a7.21,7.21,0,0,0,1.41-.15v3a7.84,7.84,0,0,1-2.43.34c-3.12,0-5.09-1.9-5.09-5.21v-10h-3.5v-3.23h1a2.56,2.56,0,0,0,2.81-2.81v-3h3.27v5.77Z"/><path d="M287.37,379.32a8.28,8.28,0,0,1-8.21,5.78c-4.9,0-9.19-3.57-9.19-9.76,0-5.74,4.14-9.65,8.74-9.65,5.62,0,8.78,3.88,8.78,9.57a8,8,0,0,1-.08,1.14H273.66a5.43,5.43,0,0,0,5.51,5.55,5,5,0,0,0,5.13-3.69Zm-3.61-5.81c-0.08-2.62-1.79-4.67-5-4.67a4.92,4.92,0,0,0-5,4.67h10Z"/><path d="M304.89,391.74v-9.8a6.1,6.1,0,0,1-5.7,3.08c-5.24,0-8.66-4.37-8.66-9.69,0-5.17,3.23-9.54,8.59-9.54a6.16,6.16,0,0,1,5.85,3.27v-2.81h3.46v25.49h-3.53Zm-5.36-9.88c3.23,0,5.4-2.77,5.4-6.54s-2.17-6.38-5.4-6.38-5.36,2.62-5.36,6.38S296.27,381.87,299.53,381.87Z"/><path d="M320.77,385.1c-4.26,0-6.84-3.19-6.84-7.33V366.25h3.57v11c0,2.51,1.14,4.71,4.14,4.71S326,380,326,377.27v-11h3.57v14.89a30.69,30.69,0,0,0,.19,3.38h-3.42a16.15,16.15,0,0,1-.15-2.2C325.18,384.22,322.9,385.1,320.77,385.1Z"/><path d="M340,374.08l4.94-.72a1.33,1.33,0,0,0,1.41-1.37c0-1.79-1.18-3.27-4-3.27a3.88,3.88,0,0,0-4.14,3.69l-3.42-.8c0.38-3.5,3.53-5.93,7.48-5.93,5.47,0,7.6,3.12,7.6,6.69v9.16a17.21,17.21,0,0,0,.23,3h-3.5a13.4,13.4,0,0,1-.19-2.47,6.66,6.66,0,0,1-5.89,3c-3.72,0-6.12-2.58-6.12-5.47C334.49,376.36,336.89,374.53,340,374.08Zm6.35,2.62v-0.84l-5.58.84a2.73,2.73,0,0,0-2.66,2.74,2.77,2.77,0,0,0,3,2.66C344,382.09,346.39,380.69,346.39,376.7Z"/><path d="M355.51,384.53V357h3.57v27.51h-3.57Z"/><path d="M379.45,366.25h4v3.23h-4V379c0,1.67.68,2.51,2.55,2.51a7.21,7.21,0,0,0,1.41-.15v3a7.84,7.84,0,0,1-2.43.34c-3.12,0-5.09-1.9-5.09-5.21v-10h-3.5v-3.23h1a2.56,2.56,0,0,0,2.81-2.81v-3h3.27v5.77Z"/><path d="M405.13,375.37c0,5.58-3.88,9.73-9.35,9.73s-9.35-4.14-9.35-9.73,3.88-9.69,9.35-9.69S405.13,369.82,405.13,375.37Zm-3.65,0c0-4.22-2.66-6.5-5.7-6.5s-5.7,2.28-5.7,6.5,2.66,6.54,5.7,6.54S401.48,379.62,401.48,375.37Z"/><path class="cls-3" d="M56.37,376.32H52.68l-1.22-18.73h6.12Zm-1.86,2.47a3,3,0,0,1,3,3,3,3,0,0,1-3,3,3,3,0,0,1-3-3A3,3,0,0,1,54.5,378.79Z"/><path class="cls-3" d="M63.13,371.57V367.5H81.56v4.07H63.13Zm0,7.56V375H81.56v4.1H63.13Z"/><path class="cls-2" d="M817.5,420H1.5A1.5,1.5,0,0,1,0,418.5V89a1.5,1.5,0,0,1,1.5-1.5h816A1.5,1.5,0,0,1,819,89V418.5A1.5,1.5,0,0,1,817.5,420ZM3,417H816V90.52H3V417Z"/><rect class="cls-2" x="1.5" y="170.66" width="816" height="3"/><rect class="cls-2" x="1.5" y="248.16" width="816" height="3"/><rect class="cls-2" x="1.5" y="325.66" width="816" height="3"/><rect class="cls-2" x="133" y="89.02" width="3" height="329.48"/></svg>