<svg id="Layer_1" data-name="Layer 1" xmlns="http://www.w3.org/2000/svg" viewBox="0 0 923 420"><defs><style>.cls-1{fill:#ececec;}.cls-2{fill:#231f20;}</style></defs><title>Slide-44-Chart</title><rect class="cls-1" x="1.5" y="1.5" width="920" height="87.52"/><path class="cls-2" d="M921.5,90.52H1.5A1.5,1.5,0,0,1,0,89V1.5A1.5,1.5,0,0,1,1.5,0h920A1.5,1.5,0,0,1,923,1.5V89A1.5,1.5,0,0,1,921.5,90.52ZM3,87.52H920V3H3V87.52Z"/><path d="M172.6,41.08c-2.33,0-3.83-1.89-3.83-4.22,0-5.9,4-7.88,6.82-8.14V31.4A4.16,4.16,0,0,0,172,35.05a1.79,1.79,0,0,1,.92-0.22,2.85,2.85,0,0,1,3.12,3A3.26,3.26,0,0,1,172.6,41.08Z"/><path d="M181.09,60.23V29H200.8v5.77H187.16v7.7h12.15v5.59h-12.1V60.23h-6.12Z"/><path d="M209,47.77l5.32-.79c1.23-.18,1.63-0.79,1.63-1.54,0-1.54-1.19-2.82-3.65-2.82a3.84,3.84,0,0,0-4.14,3.52L203,45c0.35-3.39,3.48-7.13,9.29-7.13,6.86,0,9.42,3.87,9.42,8.23V56.79a24.28,24.28,0,0,0,.26,3.43h-5.37a14.68,14.68,0,0,1-.22-2.6A7.24,7.24,0,0,1,210,60.84c-4.62,0-7.44-3.12-7.44-6.51C202.52,50.46,205.38,48.3,209,47.77Zm7,3.7v-1l-4.88.75c-1.5.22-2.68,1.06-2.68,2.73a2.54,2.54,0,0,0,2.82,2.51C213.65,56.48,215.94,55.3,215.94,51.47Z"/><path d="M227.55,60.23V28.36h5.85V60.23h-5.85Z"/><path d="M242.82,53.1c0.13,1.72,1.41,3.3,4,3.3,1.94,0,2.86-1,2.86-2.16,0-1-.66-1.76-2.33-2.11l-2.86-.66c-4.18-.92-6.07-3.43-6.07-6.47,0-3.87,3.43-7.08,8.1-7.08,6.16,0,8.23,3.92,8.49,6.25l-4.88,1.1a3.3,3.3,0,0,0-3.56-2.9c-1.54,0-2.77.92-2.77,2.16a2.05,2.05,0,0,0,2,1.94l3.08,0.66c4.27,0.88,6.43,3.48,6.43,6.65,0,3.52-2.73,7.13-8.41,7.13-6.51,0-8.76-4.22-9-6.69Z"/><path d="M279.26,54c-1.1,3.74-4.53,6.87-9.86,6.87-5.94,0-11.18-4.27-11.18-11.57,0-6.91,5.1-11.4,10.65-11.4,6.69,0,10.69,4.27,10.69,11.22,0,0.84-.09,1.72-0.09,1.8H264a5.27,5.27,0,0,0,5.46,4.93,4.78,4.78,0,0,0,4.93-3.3Zm-5.46-7.08c-0.09-2.16-1.5-4.27-4.84-4.27a4.69,4.69,0,0,0-4.84,4.27h9.68Z"/><path d="M285.15,68.76l5.1-11.27-9.2-18.92h6.56l5.76,12.67,5.32-12.67H305l-13.6,30.19h-6.21Z"/><path d="M310.41,28.72c2.33,0,3.83,1.94,3.83,4.27,0,5.9-4,8.05-6.82,8.32V38.62A4.25,4.25,0,0,0,311,34.88a1.79,1.79,0,0,1-.92.22,3,3,0,0,1-3.21-3.17A3.34,3.34,0,0,1,310.41,28.72Z"/><path d="M548.58,41.08c-2.33,0-3.83-1.89-3.83-4.22,0-5.9,4-7.88,6.82-8.14V31.4A4.16,4.16,0,0,0,548,35.05a1.79,1.79,0,0,1,.92-0.22,2.84,2.84,0,0,1,3.12,3A3.26,3.26,0,0,1,548.58,41.08Z"/><path d="M571.51,34.79V60.23h-6.12V34.79h-9.86V29h25.83v5.77h-9.86Z"/><path d="M595.22,44.38a8.81,8.81,0,0,0-1.76-.18c-3,0-5.59,1.45-5.59,6.12v9.9H582V38.57h5.68v3.21c1.32-2.86,4.31-3.39,6.16-3.39a13.33,13.33,0,0,1,1.36.09v5.9Z"/><path d="M613.31,57.89c-1.19,2-3.7,2.9-6,2.9-5.24,0-8.23-3.83-8.23-8.54V38.57h5.85v12.5c0,2.42,1.23,4.36,4,4.36S613,53.67,613,51.16V38.57h5.85V56.31a35.66,35.66,0,0,0,.22,3.92h-5.59A14.7,14.7,0,0,1,613.31,57.89Z"/><path d="M632.32,38.57h4.36v5.19h-4.36v9.07c0,1.89.88,2.51,2.55,2.51a8.51,8.51,0,0,0,1.8-.18V60a8.68,8.68,0,0,1-3.3.53c-4.22,0-6.87-2.51-6.87-6.69V43.77h-3.92V38.57h1.1A3.12,3.12,0,0,0,627,35.14v-3h5.28v6.47Z"/><path d="M646.44,60.23h-5.85V28.36h5.85v12A7.73,7.73,0,0,1,652.29,38c5.5,0,8.05,3.83,8.05,8.58V60.23h-5.85V47.6c0-2.42-1.19-4.31-4-4.31-2.46,0-3.92,1.85-4,4.22V60.23Z"/><path d="M667.16,68.76l5.11-11.27-9.2-18.92h6.56l5.76,12.67,5.33-12.67H687l-13.6,30.19h-6.21Z"/><path d="M692.42,28.72c2.33,0,3.83,1.94,3.83,4.27,0,5.9-4,8.05-6.82,8.32V38.62A4.25,4.25,0,0,0,693,34.88a1.79,1.79,0,0,1-.92.22,3,3,0,0,1-3.21-3.17A3.34,3.34,0,0,1,692.42,28.72Z"/><path class="cls-2" d="M21.66,134.75v-17H32v2.18H24v5.47h7.25v2.21H24v7.15H21.66Z"/><path class="cls-2" d="M36.59,128.14l3.12-.46a0.84,0.84,0,0,0,.89-0.86c0-1.13-.74-2.06-2.5-2.06a2.45,2.45,0,0,0-2.62,2.33l-2.16-.5c0.24-2.21,2.23-3.74,4.73-3.74,3.46,0,4.8,2,4.8,4.22v5.78a10.88,10.88,0,0,0,.14,1.9H40.79a8.46,8.46,0,0,1-.12-1.56,4.21,4.21,0,0,1-3.72,1.92,3.6,3.6,0,0,1-3.86-3.46C33.08,129.58,34.6,128.43,36.59,128.14Zm4,1.66v-0.53l-3.53.53a1.73,1.73,0,0,0-1.68,1.73,1.75,1.75,0,0,0,1.87,1.68C39.11,133.21,40.6,132.32,40.6,129.8Z"/><path class="cls-2" d="M46.36,134.75V117.37h2.26v17.38H46.36Z"/><path class="cls-2" d="M53.41,131a2.46,2.46,0,0,0,2.69,2.16,1.7,1.7,0,0,0,2-1.54,1.61,1.61,0,0,0-1.49-1.49l-2-.43a3.28,3.28,0,0,1-2.88-3.24,3.93,3.93,0,0,1,4.1-3.65c3.17,0,4.15,2.06,4.39,3.1l-2,.74a2.24,2.24,0,0,0-2.4-1.92,1.74,1.74,0,0,0-1.92,1.54,1.42,1.42,0,0,0,1.32,1.39l1.87,0.41c2.09,0.46,3.19,1.73,3.19,3.43s-1.37,3.58-4.22,3.58c-3.17,0-4.51-2-4.7-3.36Z"/><path class="cls-2" d="M73.24,131.46a5.23,5.23,0,0,1-5.18,3.65c-3.1,0-5.81-2.26-5.81-6.17,0-3.62,2.62-6.1,5.52-6.1,3.55,0,5.54,2.45,5.54,6a5.09,5.09,0,0,1,0,.72H64.57a3.43,3.43,0,0,0,3.48,3.5,3.14,3.14,0,0,0,3.24-2.33ZM71,127.78a2.91,2.91,0,0,0-3.17-3,3.11,3.11,0,0,0-3.14,3H71Z"/><path class="cls-2" d="M22.09,207.11a5.45,5.45,0,0,1,4.78-2.5,5.45,5.45,0,0,1,4.78,2.5,12.12,12.12,0,0,1,0,11.28,5.45,5.45,0,0,1-4.78,2.5,5.45,5.45,0,0,1-4.78-2.5A12.12,12.12,0,0,1,22.09,207.11Zm2.3,10.68a3.54,3.54,0,0,0,4.94,0c0.94-1,1.37-2.66,1.37-5s-0.43-4.06-1.37-5a3.54,3.54,0,0,0-4.94,0c-0.94,1-1.37,2.66-1.37,5S23.46,216.81,24.4,217.79Z"/><path class="cls-2" d="M21.66,297.39v-17H32v2.18H24v5.23h7.25V290H24v5.21h8v2.18H21.66Z"/><path class="cls-2" d="M35,297.39V285.85h2.16v1.54a4,4,0,0,1,3.5-1.87,3.61,3.61,0,0,1,3.46,2.18A4.14,4.14,0,0,1,48,285.51c2,0,4,1.37,4,4.39v7.49H49.74v-7.25a2.32,2.32,0,0,0-2.45-2.64,2.69,2.69,0,0,0-2.66,2.9v7H42.37v-7.25a2.32,2.32,0,0,0-2.45-2.64,2.68,2.68,0,0,0-2.69,2.93v7H35Z"/><path class="cls-2" d="M55.57,302V285.85h2.18v1.8a4.26,4.26,0,0,1,3.86-2.06c3.46,0,5.3,2.66,5.3,6s-2,6.1-5.38,6.1a4.29,4.29,0,0,1-3.74-1.87V302H55.57Zm5.64-14.38c-2.06,0-3.43,1.73-3.43,4s1.37,4.08,3.43,4.08,3.41-1.7,3.41-4.08S63.32,287.58,61.21,287.58Z"/><path class="cls-2" d="M72.71,285.85h2.5v2h-2.5v6a1.37,1.37,0,0,0,1.61,1.58,4.57,4.57,0,0,0,.89-0.1v1.92a4.92,4.92,0,0,1-1.54.22,3,3,0,0,1-3.22-3.29v-6.34H68.24v-2h0.62a1.62,1.62,0,0,0,1.78-1.78V282.2h2.06v3.65Z"/><path class="cls-2" d="M78.73,302.22l2.88-6.1-5-10.27h2.59l3.6,8,3.46-8h2.42L81.2,302.22H78.73Z"/><path class="cls-2" d="M97.84,293.67a2.46,2.46,0,0,0,2.69,2.16,1.7,1.7,0,0,0,2-1.54,1.61,1.61,0,0,0-1.49-1.49l-2-.43a3.28,3.28,0,0,1-2.88-3.24,3.93,3.93,0,0,1,4.1-3.65c3.17,0,4.15,2.06,4.39,3.1l-2,.74a2.24,2.24,0,0,0-2.4-1.92,1.74,1.74,0,0,0-1.92,1.54,1.42,1.42,0,0,0,1.32,1.39l1.87,0.41c2.09,0.46,3.19,1.73,3.19,3.43s-1.37,3.58-4.22,3.58c-3.17,0-4.51-2-4.7-3.36Z"/><path class="cls-2" d="M110.75,285.85h2.5v2h-2.5v6a1.37,1.37,0,0,0,1.61,1.58,4.57,4.57,0,0,0,.89-0.1v1.92a4.92,4.92,0,0,1-1.54.22,3,3,0,0,1-3.22-3.29v-6.34h-2.21v-2h0.62a1.62,1.62,0,0,0,1.78-1.78V282.2h2.06v3.65Z"/><path class="cls-2" d="M122.41,288.13a6.92,6.92,0,0,0-1-.07c-1.9,0-3.17,1-3.17,3.55v5.79H116V285.85h2.21v2a3.61,3.61,0,0,1,3.46-2.21,4.2,4.2,0,0,1,.74.07v2.4Z"/><path class="cls-2" d="M125.92,279.85a1.62,1.62,0,1,1-1.61,1.63A1.62,1.62,0,0,1,125.92,279.85Zm-1.1,17.55V285.85H127v11.54h-2.23Z"/><path class="cls-2" d="M133.14,297.39h-2.26V285.85h2.21v1.66a4,4,0,0,1,3.55-2c2.76,0,4.13,2,4.13,4.56v7.32h-2.26v-6.94c0-1.61-.67-2.9-2.69-2.9-1.78,0-2.69,1.42-2.69,3.17v6.67Z"/><path class="cls-2" d="M145.71,297.51a3.07,3.07,0,0,0,3.14,2.83c2.42,0,3.53-1.25,3.53-3.74v-1.66a3.85,3.85,0,0,1-3.53,1.9,5.61,5.61,0,0,1,0-11.21,3.65,3.65,0,0,1,3.55,1.82v-1.61h2.23v10.68c0,2.93-1.44,5.78-5.78,5.78a5.05,5.05,0,0,1-5.33-4.3Zm6.77-6.26c0-2.23-1.34-3.7-3.29-3.7s-3.34,1.46-3.34,3.7,1.3,3.7,3.34,3.7S152.48,293.48,152.48,291.25Z"/><path class="cls-2" d="M159.2,293.67a2.46,2.46,0,0,0,2.69,2.16,1.7,1.7,0,0,0,2-1.54,1.61,1.61,0,0,0-1.49-1.49l-2-.43a3.28,3.28,0,0,1-2.88-3.24,3.93,3.93,0,0,1,4.1-3.65c3.17,0,4.15,2.06,4.39,3.1l-2,.74a2.24,2.24,0,0,0-2.4-1.92,1.74,1.74,0,0,0-1.92,1.54,1.42,1.42,0,0,0,1.32,1.39l1.87,0.41c2.09,0.46,3.19,1.73,3.19,3.43s-1.37,3.58-4.22,3.58c-3.17,0-4.51-2-4.7-3.36Z"/><path class="cls-2" d="M173.05,278.34l1.37,1.2a15.17,15.17,0,0,0,0,20.5l-1.37,1.2A16.65,16.65,0,0,1,173.05,278.34Z"/><path class="cls-2" d="M176.84,281.55a1.39,1.39,0,0,1,1.44,1.46,2.39,2.39,0,0,1,0,.43l-1,4.51h-0.82l-1-4.49a2.88,2.88,0,0,1,0-.46A1.4,1.4,0,0,1,176.84,281.55Zm4.15,0a1.39,1.39,0,0,1,1.44,1.46,2.39,2.39,0,0,1,0,.43l-1,4.51h-0.82l-1-4.49a2.88,2.88,0,0,1,0-.46A1.4,1.4,0,0,1,181,281.55Z"/><path class="cls-2" d="M184.76,301.23l-1.37-1.2a15.17,15.17,0,0,0,0-20.5l1.37-1.2A16.65,16.65,0,0,1,184.76,301.23Z"/><path class="cls-2" d="M21.42,350.17V339h2.33V350.1c0,2.59,1.42,4.06,3.79,4.06s3.77-1.46,3.77-4.06V339h2.35v11.21a5.76,5.76,0,0,1-6.12,6.17A5.76,5.76,0,0,1,21.42,350.17Z"/><path class="cls-2" d="M39.64,356H37.38V344.44h2.21v1.66a4,4,0,0,1,3.55-2c2.76,0,4.13,2,4.13,4.56V356H45V349c0-1.61-.67-2.9-2.69-2.9-1.78,0-2.69,1.42-2.69,3.17V356Z"/><path class="cls-2" d="M59,354.23a3.86,3.86,0,0,1-3.58,2.06c-3.38,0-5.47-2.69-5.47-6.12,0-3.26,2.21-6,5.47-6a3.55,3.55,0,0,1,3.53,1.94V338.6h2.23v15.24a18.26,18.26,0,0,0,.12,2.14H59.08a9.68,9.68,0,0,1-.12-1.56v-0.19Zm-3.36.07c2.06,0,3.34-1.8,3.34-4.18s-1.25-4-3.31-4-3.41,1.68-3.41,4.06S53.44,354.3,55.6,354.3Z"/><path class="cls-2" d="M75,352.69a5.23,5.23,0,0,1-5.18,3.65c-3.1,0-5.81-2.26-5.81-6.17,0-3.62,2.62-6.1,5.52-6.1,3.55,0,5.54,2.45,5.54,6a5.1,5.1,0,0,1,0,.72H66.37a3.43,3.43,0,0,0,3.48,3.5A3.15,3.15,0,0,0,73.09,352ZM72.76,349a2.91,2.91,0,0,0-3.17-3,3.11,3.11,0,0,0-3.14,3h6.31Z"/><path class="cls-2" d="M81,346.48V356H78.68v-9.5H76.55v-2h2.14v-1.94a3.66,3.66,0,0,1,3.79-4,2.91,2.91,0,0,1,1.34.24v2a2.61,2.61,0,0,0-1-.14,1.73,1.73,0,0,0-1.82,2v1.82H83.8v2H81Z"/><path class="cls-2" d="M87.32,338.44a1.62,1.62,0,1,1-1.61,1.63A1.62,1.62,0,0,1,87.32,338.44ZM86.22,356V344.44h2.23V356H86.22Z"/><path class="cls-2" d="M94.55,356H92.29V344.44H94.5v1.66a4,4,0,0,1,3.55-2c2.76,0,4.13,2,4.13,4.56V356H99.92V349c0-1.61-.67-2.9-2.69-2.9-1.78,0-2.69,1.42-2.69,3.17V356Z"/><path class="cls-2" d="M115.84,352.69a5.23,5.23,0,0,1-5.18,3.65c-3.1,0-5.81-2.26-5.81-6.17,0-3.62,2.62-6.1,5.52-6.1,3.55,0,5.54,2.45,5.54,6a5.1,5.1,0,0,1,0,.72h-8.69a3.43,3.43,0,0,0,3.48,3.5,3.15,3.15,0,0,0,3.24-2.33ZM113.56,349a2.91,2.91,0,0,0-3.17-3,3.11,3.11,0,0,0-3.14,3h6.31Z"/><path class="cls-2" d="M126.88,354.23a3.86,3.86,0,0,1-3.58,2.06c-3.38,0-5.47-2.69-5.47-6.12,0-3.26,2.21-6,5.47-6a3.55,3.55,0,0,1,3.53,1.94V338.6h2.23v15.24a18.26,18.26,0,0,0,.12,2.14H127a9.68,9.68,0,0,1-.12-1.56v-0.19Zm-3.36.07c2.06,0,3.34-1.8,3.34-4.18s-1.25-4-3.31-4-3.41,1.68-3.41,4.06S121.35,354.3,123.52,354.3Z"/><path class="cls-2" d="M134.41,352.84a2,2,0,0,1,1.94,2.28c0,3.17-2.06,4.49-3.55,4.68v-1.25a2.72,2.72,0,0,0,2-2.59,1.05,1.05,0,0,1-.53.12,1.54,1.54,0,0,1-1.61-1.63A1.67,1.67,0,0,1,134.41,352.84Z"/><path class="cls-2" d="M157.74,356l-9.19-13.87V356h-2.35V339h3.14l8.5,13.06V339h2.35v17h-2.45Z"/><path class="cls-2" d="M168.47,356.34c-2.69,0-4.32-2-4.32-4.63v-7.27h2.26v6.94c0,1.58.72,3,2.62,3s2.74-1.2,2.74-3v-7H174v9.41a19.32,19.32,0,0,0,.12,2.14H172a10.16,10.16,0,0,1-.1-1.39A3.77,3.77,0,0,1,168.47,356.34Z"/><path class="cls-2" d="M177.85,356V338.6h2.26V356h-2.26Z"/><path class="cls-2" d="M183.95,356V338.6h2.26V356h-2.26Z"/><path class="cls-2" d="M191.55,352.84a2,2,0,0,1,1.94,2.28c0,3.17-2.06,4.49-3.55,4.68v-1.25a2.72,2.72,0,0,0,2-2.59,1,1,0,0,1-.53.12,1.54,1.54,0,0,1-1.61-1.63A1.67,1.67,0,0,1,191.55,352.84Z"/><path class="cls-2" d="M205.88,349.38l3.12-.46a0.84,0.84,0,0,0,.89-0.86c0-1.13-.74-2.06-2.5-2.06a2.45,2.45,0,0,0-2.62,2.33l-2.16-.5c0.24-2.21,2.23-3.75,4.73-3.75,3.46,0,4.8,2,4.8,4.22v5.79a10.85,10.85,0,0,0,.14,1.9h-2.21a8.48,8.48,0,0,1-.12-1.56,4.21,4.21,0,0,1-3.72,1.92,3.6,3.6,0,0,1-3.86-3.46C202.38,350.82,203.89,349.67,205.88,349.38Zm4,1.66v-0.53l-3.53.53a1.73,1.73,0,0,0-1.68,1.73,1.75,1.75,0,0,0,1.87,1.68C208.4,354.45,209.89,353.56,209.89,351Z"/><path class="cls-2" d="M217.91,356h-2.26V344.44h2.21v1.66a4,4,0,0,1,3.55-2c2.76,0,4.13,2,4.13,4.56V356h-2.26V349c0-1.61-.67-2.9-2.69-2.9-1.78,0-2.69,1.42-2.69,3.17V356Z"/><path class="cls-2" d="M237.23,354.23a3.86,3.86,0,0,1-3.58,2.06c-3.38,0-5.47-2.69-5.47-6.12,0-3.26,2.21-6,5.47-6a3.55,3.55,0,0,1,3.53,1.94V338.6h2.23v15.24a18.14,18.14,0,0,0,.12,2.14h-2.18a9.68,9.68,0,0,1-.12-1.56v-0.19Zm-3.36.07c2.06,0,3.34-1.8,3.34-4.18s-1.25-4-3.31-4-3.41,1.68-3.41,4.06S231.71,354.3,233.87,354.3Z"/><path class="cls-2" d="M261,356l-9.19-13.87V356h-2.35V339h3.14l8.5,13.06V339h2.35v17H261Z"/><path class="cls-2" d="M270.23,349.38l3.12-.46a0.84,0.84,0,0,0,.89-0.86c0-1.13-.74-2.06-2.5-2.06a2.45,2.45,0,0,0-2.62,2.33l-2.16-.5c0.24-2.21,2.23-3.75,4.73-3.75,3.46,0,4.8,2,4.8,4.22v5.79a10.85,10.85,0,0,0,.14,1.9h-2.21a8.48,8.48,0,0,1-.12-1.56,4.21,4.21,0,0,1-3.72,1.92,3.6,3.6,0,0,1-3.86-3.46C266.72,350.82,268.23,349.67,270.23,349.38Zm4,1.66v-0.53l-3.53.53a1.73,1.73,0,0,0-1.68,1.73,1.75,1.75,0,0,0,1.87,1.68C272.75,354.45,274.23,353.56,274.23,351Z"/><path class="cls-2" d="M291.78,356l-9.19-13.87V356h-2.35V339h3.14l8.5,13.06V339h2.35v17h-2.45Z"/><path class="cls-2" d="M308.27,336.92l1.37,1.2a15.17,15.17,0,0,0,0,20.5l-1.37,1.2A16.65,16.65,0,0,1,308.27,336.92Z"/><path class="cls-2" d="M312.22,338.75a1.88,1.88,0,0,1,1.82,2.11c0,3-1.92,4.2-3.31,4.37v-1.15a2.55,2.55,0,0,0,1.85-2.42,0.91,0.91,0,0,1-.48.12,1.46,1.46,0,0,1-1.51-1.54A1.56,1.56,0,0,1,312.22,338.75Z"/><path class="cls-2" d="M328.71,356l-9.19-13.87V356h-2.35V339h3.14l8.5,13.06V339h2.35v17h-2.45Z"/><path class="cls-2" d="M346.09,350.2a5.91,5.91,0,1,1-5.91-6.12A5.83,5.83,0,0,1,346.09,350.2Zm-2.3,0c0-2.66-1.68-4.1-3.6-4.1s-3.6,1.44-3.6,4.1,1.68,4.13,3.6,4.13S343.79,352.89,343.79,350.2Z"/><path class="cls-2" d="M351.87,344.44h2.5v2h-2.5v6a1.37,1.37,0,0,0,1.61,1.58,4.57,4.57,0,0,0,.89-0.1v1.92a4.93,4.93,0,0,1-1.54.22,3,3,0,0,1-3.22-3.29v-6.34h-2.21v-2H348a1.61,1.61,0,0,0,1.78-1.78v-1.87h2.06v3.65Z"/><path class="cls-2" d="M373.54,351.23H366l-1.8,4.75h-2.52l6.77-17h2.71l6.77,17h-2.54Zm-6.7-2.18h5.86l-3-7.63Z"/><path class="cls-2" d="M33.21,380L24,366.11V380H21.66V363H24.8L33.3,376V363h2.35v17H33.21Z"/><path class="cls-2" d="M43.93,380.34c-2.69,0-4.32-2-4.32-4.63v-7.27h2.26v6.94c0,1.58.72,3,2.62,3s2.74-1.2,2.74-3v-7h2.26v9.41A19.32,19.32,0,0,0,49.6,380H47.44a10.16,10.16,0,0,1-.1-1.39A3.77,3.77,0,0,1,43.93,380.34Z"/><path class="cls-2" d="M53.32,380V368.44h2.16V370A4,4,0,0,1,59,368.1a3.61,3.61,0,0,1,3.46,2.18,4.14,4.14,0,0,1,3.86-2.18c2,0,4,1.37,4,4.39V380H68.05v-7.25a2.32,2.32,0,0,0-2.45-2.64,2.69,2.69,0,0,0-2.66,2.9v7H60.68v-7.25a2.32,2.32,0,0,0-2.45-2.64A2.68,2.68,0,0,0,55.55,373v7H53.32Z"/><path class="cls-2" d="M73.88,380V362.6h2.23v7.46a4.21,4.21,0,0,1,3.82-2c3.5,0,5.3,2.69,5.3,6s-1.94,6.14-5.38,6.14a4.12,4.12,0,0,1-3.74-2V380H73.88Zm5.64-9.89c-2,0-3.43,1.56-3.43,4.06s1.44,4.13,3.43,4.13,3.41-1.63,3.41-4.13S81.61,370.09,79.52,370.09Z"/><path class="cls-2" d="M98.17,376.69A5.23,5.23,0,0,1,93,380.34c-3.1,0-5.81-2.26-5.81-6.17,0-3.62,2.62-6.1,5.52-6.1,3.55,0,5.54,2.45,5.54,6a5.1,5.1,0,0,1,0,.72H89.51a3.43,3.43,0,0,0,3.48,3.5A3.15,3.15,0,0,0,96.23,376ZM95.89,373a2.91,2.91,0,0,0-3.17-3,3.11,3.11,0,0,0-3.14,3h6.31Z"/><path class="cls-2" d="M107.53,370.72a7.06,7.06,0,0,0-1-.07c-1.9,0-3.17,1-3.17,3.55V380h-2.26V368.44h2.21v2a3.61,3.61,0,0,1,3.46-2.21,4.32,4.32,0,0,1,.74.07v2.4Z"/><path class="cls-2" d="M111.32,362.75a1.88,1.88,0,0,1,1.82,2.11c0,3-1.92,4.2-3.31,4.37v-1.15a2.55,2.55,0,0,0,1.85-2.42,0.9,0.9,0,0,1-.48.12,1.46,1.46,0,0,1-1.51-1.54A1.56,1.56,0,0,1,111.32,362.75Z"/><path class="cls-2" d="M115.86,376.84a2,2,0,0,1,1.94,2.28c0,3.17-2.06,4.49-3.55,4.68v-1.25a2.72,2.72,0,0,0,2-2.59,1.05,1.05,0,0,1-.53.12,1.54,1.54,0,0,1-1.61-1.63A1.67,1.67,0,0,1,115.86,376.84Z"/><path class="cls-2" d="M130.19,373.38l3.12-.46a0.84,0.84,0,0,0,.89-0.86c0-1.13-.74-2.06-2.5-2.06a2.45,2.45,0,0,0-2.62,2.33l-2.16-.5c0.24-2.21,2.23-3.75,4.73-3.75,3.46,0,4.8,2,4.8,4.22v5.79a10.87,10.87,0,0,0,.14,1.9h-2.21a8.45,8.45,0,0,1-.12-1.56,4.21,4.21,0,0,1-3.72,1.92,3.6,3.6,0,0,1-3.86-3.46C126.68,374.82,128.19,373.67,130.19,373.38Zm4,1.66v-0.53l-3.53.53a1.73,1.73,0,0,0-1.68,1.73,1.75,1.75,0,0,0,1.87,1.68C132.71,378.45,134.2,377.56,134.2,375Z"/><path class="cls-2" d="M146.91,376.26a2.46,2.46,0,0,0,2.69,2.16,1.7,1.7,0,0,0,2-1.54,1.61,1.61,0,0,0-1.49-1.49l-2-.43a3.28,3.28,0,0,1-2.88-3.24,3.94,3.94,0,0,1,4.1-3.65c3.17,0,4.15,2.06,4.39,3.1l-2,.74a2.24,2.24,0,0,0-2.4-1.92,1.74,1.74,0,0,0-1.92,1.54,1.41,1.41,0,0,0,1.32,1.39l1.87,0.41c2.09,0.46,3.19,1.73,3.19,3.43s-1.37,3.58-4.22,3.58c-3.17,0-4.51-2-4.7-3.36Z"/><path class="cls-2" d="M156.8,384.54V368.44H159v1.8a4.26,4.26,0,0,1,3.86-2.06c3.46,0,5.3,2.66,5.3,6s-2,6.1-5.38,6.1a4.29,4.29,0,0,1-3.74-1.87v6.12H156.8Zm5.64-14.38c-2.06,0-3.43,1.73-3.43,4s1.37,4.08,3.43,4.08,3.41-1.7,3.41-4.08S164.55,370.17,162.44,370.17Z"/><path class="cls-2" d="M181.09,376.69a5.23,5.23,0,0,1-5.18,3.65c-3.1,0-5.81-2.26-5.81-6.17,0-3.62,2.62-6.1,5.52-6.1,3.55,0,5.54,2.45,5.54,6a5.1,5.1,0,0,1,0,.72h-8.69a3.43,3.43,0,0,0,3.48,3.5,3.15,3.15,0,0,0,3.24-2.33ZM178.81,373a2.91,2.91,0,0,0-3.17-3,3.11,3.11,0,0,0-3.14,3h6.31Z"/><path class="cls-2" d="M185.39,374.2c0,2.64,1.66,4.06,3.53,4.06a3.14,3.14,0,0,0,3.22-2.38l2,0.86a5.3,5.3,0,0,1-5.21,3.6,6.14,6.14,0,0,1,0-12.27,5,5,0,0,1,5.14,3.67l-2,.86a3,3,0,0,0-3.1-2.45C187.07,370.17,185.39,371.51,185.39,374.2Z"/><path class="cls-2" d="M197.87,362.44a1.62,1.62,0,1,1-1.61,1.63A1.62,1.62,0,0,1,197.87,362.44ZM196.76,380V368.44H199V380h-2.23Z"/><path class="cls-2" d="M205.62,373.38l3.12-.46a0.84,0.84,0,0,0,.89-0.86c0-1.13-.74-2.06-2.5-2.06a2.45,2.45,0,0,0-2.62,2.33l-2.16-.5c0.24-2.21,2.23-3.75,4.73-3.75,3.46,0,4.8,2,4.8,4.22v5.79A10.85,10.85,0,0,0,212,380h-2.21a8.48,8.48,0,0,1-.12-1.56,4.21,4.21,0,0,1-3.72,1.92,3.6,3.6,0,0,1-3.86-3.46C202.11,374.82,203.63,373.67,205.62,373.38Zm4,1.66v-0.53l-3.53.53a1.73,1.73,0,0,0-1.68,1.73,1.75,1.75,0,0,0,1.87,1.68C208.14,378.45,209.63,377.56,209.63,375Z"/><path class="cls-2" d="M215.38,380V362.6h2.26V380h-2.26Z"/><path class="cls-2" d="M230.5,368.44H233v2h-2.5v6a1.37,1.37,0,0,0,1.61,1.58A4.57,4.57,0,0,0,233,378v1.92a4.93,4.93,0,0,1-1.54.22,3,3,0,0,1-3.22-3.29v-6.34H226v-2h0.62a1.61,1.61,0,0,0,1.78-1.78v-1.87h2.06v3.65Z"/><path class="cls-2" d="M236.53,384.81l2.88-6.1-5-10.27H237l3.6,8,3.46-8h2.42L239,384.81h-2.47Z"/><path class="cls-2" d="M248.67,384.54V368.44h2.18v1.8a4.26,4.26,0,0,1,3.86-2.06c3.46,0,5.3,2.66,5.3,6s-2,6.1-5.38,6.1a4.29,4.29,0,0,1-3.74-1.87v6.12h-2.23Zm5.64-14.38c-2.06,0-3.43,1.73-3.43,4s1.37,4.08,3.43,4.08,3.41-1.7,3.41-4.08S256.42,370.17,254.31,370.17Z"/><path class="cls-2" d="M273,376.69a5.23,5.23,0,0,1-5.18,3.65c-3.1,0-5.81-2.26-5.81-6.17,0-3.62,2.62-6.1,5.52-6.1,3.55,0,5.54,2.45,5.54,6a5,5,0,0,1,0,.72H264.3a3.43,3.43,0,0,0,3.48,3.5A3.15,3.15,0,0,0,271,376ZM270.68,373a2.91,2.91,0,0,0-3.17-3,3.11,3.11,0,0,0-3.14,3h6.31Z"/><path class="cls-2" d="M292.76,374.2a5.91,5.91,0,1,1-5.91-6.12A5.83,5.83,0,0,1,292.76,374.2Zm-2.3,0c0-2.66-1.68-4.1-3.6-4.1s-3.6,1.44-3.6,4.1,1.68,4.13,3.6,4.13S290.46,376.89,290.46,374.2Z"/><path class="cls-2" d="M298.66,370.48V380h-2.33v-9.5H294.2v-2h2.14v-1.94a3.66,3.66,0,0,1,3.79-4,2.91,2.91,0,0,1,1.34.24v2a2.61,2.61,0,0,0-1-.14,1.73,1.73,0,0,0-1.82,2v1.82h2.78v2h-2.78Z"/><path class="cls-2" d="M312.13,380h-2.26V368.44h2.21v1.66a4,4,0,0,1,3.55-2c2.76,0,4.13,2,4.13,4.56V380H317.5V373c0-1.61-.67-2.9-2.69-2.9-1.78,0-2.69,1.42-2.69,3.17V380Z"/><path class="cls-2" d="M327.32,380.34c-2.69,0-4.32-2-4.32-4.63v-7.27h2.26v6.94c0,1.58.72,3,2.62,3s2.74-1.2,2.74-3v-7h2.26v9.41A19.45,19.45,0,0,0,333,380h-2.16a10.25,10.25,0,0,1-.1-1.39A3.77,3.77,0,0,1,327.32,380.34Z"/><path class="cls-2" d="M336.7,380V368.44h2.16V370a4,4,0,0,1,3.5-1.87,3.61,3.61,0,0,1,3.46,2.18,4.14,4.14,0,0,1,3.86-2.18c2,0,4,1.37,4,4.39V380h-2.23v-7.25a2.32,2.32,0,0,0-2.45-2.64,2.69,2.69,0,0,0-2.66,2.9v7h-2.26v-7.25a2.32,2.32,0,0,0-2.45-2.64,2.68,2.68,0,0,0-2.69,2.93v7H336.7Z"/><path class="cls-2" d="M367.33,376.69a5.23,5.23,0,0,1-5.18,3.65c-3.1,0-5.81-2.26-5.81-6.17,0-3.62,2.62-6.1,5.52-6.1,3.55,0,5.54,2.45,5.54,6a5,5,0,0,1,0,.72h-8.69a3.43,3.43,0,0,0,3.48,3.5,3.15,3.15,0,0,0,3.24-2.33ZM365,373a2.91,2.91,0,0,0-3.17-3,3.11,3.11,0,0,0-3.14,3H365Z"/><path class="cls-2" d="M376.69,370.72a7.07,7.07,0,0,0-1-.07c-1.9,0-3.17,1-3.17,3.55V380h-2.26V368.44h2.21v2a3.62,3.62,0,0,1,3.46-2.21,4.33,4.33,0,0,1,.74.07v2.4Z"/><path class="cls-2" d="M380.19,362.44a1.62,1.62,0,1,1-1.61,1.63A1.62,1.62,0,0,1,380.19,362.44ZM379.08,380V368.44h2.23V380h-2.23Z"/><path class="cls-2" d="M386.5,374.2c0,2.64,1.66,4.06,3.53,4.06a3.14,3.14,0,0,0,3.22-2.38l2,0.86a5.3,5.3,0,0,1-5.21,3.6,6.14,6.14,0,0,1,0-12.27,5,5,0,0,1,5.14,3.67l-2,.86a3,3,0,0,0-3.1-2.45C388.18,370.17,386.5,371.51,386.5,374.2Z"/><path class="cls-2" d="M26.7,404H24.42l-4.68-11.54h2.54l3.29,8.91,3.31-8.91h2.42Z"/><path class="cls-2" d="M36.13,397.38l3.12-.46a0.84,0.84,0,0,0,.89-0.86c0-1.13-.74-2.06-2.5-2.06A2.45,2.45,0,0,0,35,396.33l-2.16-.5c0.24-2.21,2.23-3.75,4.73-3.75,3.46,0,4.8,2,4.8,4.22v5.79a10.87,10.87,0,0,0,.14,1.9H40.33a8.45,8.45,0,0,1-.12-1.56,4.21,4.21,0,0,1-3.72,1.92,3.6,3.6,0,0,1-3.86-3.46C32.63,398.82,34.14,397.67,36.13,397.38Zm4,1.66v-0.53l-3.53.53a1.73,1.73,0,0,0-1.68,1.73,1.75,1.75,0,0,0,1.87,1.68C38.65,402.45,40.14,401.56,40.14,399Z"/><path class="cls-2" d="M45.9,404V386.6h2.26V404H45.9Z"/><path class="cls-2" d="M56.08,404.34c-2.69,0-4.32-2-4.32-4.63v-7.27H54v6.94c0,1.58.72,3,2.62,3s2.74-1.2,2.74-3v-7h2.26v9.41a19.32,19.32,0,0,0,.12,2.14H59.58a10.16,10.16,0,0,1-.1-1.39A3.77,3.77,0,0,1,56.08,404.34Z"/><path class="cls-2" d="M75.4,400.69a5.23,5.23,0,0,1-5.18,3.65c-3.1,0-5.81-2.26-5.81-6.17,0-3.62,2.62-6.1,5.52-6.1,3.55,0,5.54,2.45,5.54,6a5.1,5.1,0,0,1,0,.72H66.73a3.43,3.43,0,0,0,3.48,3.5A3.15,3.15,0,0,0,73.45,400ZM73.12,397a2.91,2.91,0,0,0-3.17-3,3.11,3.11,0,0,0-3.14,3h6.31Z"/><path class="cls-2" d="M77.56,407.82l-1.37-1.2a15.17,15.17,0,0,0,0-20.5l1.37-1.2A16.65,16.65,0,0,1,77.56,407.82Z"/><path class="cls-2" d="M485.78,119.91v14.83h-2.35V119.91h-5.69v-2.18h13.73v2.18h-5.69Z"/><path class="cls-2" d="M498.6,125.48a7,7,0,0,0-1-.07c-1.9,0-3.17,1-3.17,3.55v5.78h-2.26V123.2h2.21v2a3.61,3.61,0,0,1,3.46-2.21,4.27,4.27,0,0,1,.74.07v2.4Z"/><path class="cls-2" d="M505.32,135.1c-2.69,0-4.32-2-4.32-4.63V123.2h2.26v6.94c0,1.58.72,3,2.62,3s2.74-1.2,2.74-3v-7h2.26v9.41a19.21,19.21,0,0,0,.12,2.14h-2.16a10.08,10.08,0,0,1-.1-1.39A3.77,3.77,0,0,1,505.32,135.1Z"/><path class="cls-2" d="M524.64,131.46a5.23,5.23,0,0,1-5.18,3.65c-3.1,0-5.81-2.26-5.81-6.17,0-3.62,2.62-6.1,5.52-6.1,3.55,0,5.54,2.45,5.54,6a5,5,0,0,1,0,.72H516a3.43,3.43,0,0,0,3.48,3.5,3.14,3.14,0,0,0,3.24-2.33Zm-2.28-3.67a2.91,2.91,0,0,0-3.17-3,3.11,3.11,0,0,0-3.14,3h6.31Z"/><path class="cls-2" d="M489.6,199.5h-7.54l-1.8,4.75h-2.52l6.77-17h2.71l6.77,17h-2.54Zm-6.7-2.18h5.86l-3-7.63Z"/><path class="cls-2" d="M496.15,204.25V186.87h2.26v17.38h-2.26Z"/><path class="cls-2" d="M502.24,204.25V186.87h2.26v17.38h-2.26Z"/><path class="cls-2" d="M516.6,204.25h-2.26V192.71h2.21v1.66a4,4,0,0,1,3.55-2c2.76,0,4.13,2,4.13,4.56v7.32H522v-6.94c0-1.61-.67-2.9-2.69-2.9-1.78,0-2.69,1.42-2.69,3.17v6.67Z"/><path class="cls-2" d="M531.79,204.61c-2.69,0-4.32-2-4.32-4.63v-7.27h2.26v6.94c0,1.58.72,3,2.62,3s2.74-1.2,2.74-3v-7h2.26v9.41a19.45,19.45,0,0,0,.12,2.14h-2.16a10.25,10.25,0,0,1-.1-1.39A3.77,3.77,0,0,1,531.79,204.61Z"/><path class="cls-2" d="M541.17,204.25V192.71h2.16v1.54a4,4,0,0,1,3.5-1.87,3.61,3.61,0,0,1,3.46,2.18,4.14,4.14,0,0,1,3.86-2.18c2,0,4,1.37,4,4.39v7.49h-2.23V197a2.32,2.32,0,0,0-2.45-2.64,2.69,2.69,0,0,0-2.66,2.9v7h-2.26V197a2.32,2.32,0,0,0-2.45-2.64,2.68,2.68,0,0,0-2.69,2.93v7h-2.23Z"/><path class="cls-2" d="M561.74,204.25V186.87H564v7.46a4.21,4.21,0,0,1,3.82-2c3.5,0,5.3,2.69,5.3,6s-1.94,6.14-5.38,6.14a4.12,4.12,0,0,1-3.74-2v1.68h-2.23Zm5.64-9.89c-2,0-3.43,1.56-3.43,4.06s1.44,4.13,3.43,4.13,3.41-1.63,3.41-4.13S569.47,194.36,567.38,194.36Z"/><path class="cls-2" d="M586,201a5.23,5.23,0,0,1-5.18,3.65c-3.1,0-5.81-2.26-5.81-6.17,0-3.62,2.62-6.1,5.52-6.1,3.55,0,5.54,2.45,5.54,6a5.16,5.16,0,0,1,0,.72h-8.69a3.43,3.43,0,0,0,3.48,3.5,3.15,3.15,0,0,0,3.24-2.33Zm-2.28-3.67a2.91,2.91,0,0,0-3.17-3,3.11,3.11,0,0,0-3.14,3h6.31Z"/><path class="cls-2" d="M595.39,195a7,7,0,0,0-1-.07c-1.9,0-3.17,1-3.17,3.55v5.78H589V192.71h2.21v2a3.61,3.61,0,0,1,3.46-2.21,4.26,4.26,0,0,1,.74.07V195Z"/><path class="cls-2" d="M598.75,200.53a2.46,2.46,0,0,0,2.69,2.16,1.7,1.7,0,0,0,2-1.54,1.6,1.6,0,0,0-1.49-1.49l-2-.43a3.28,3.28,0,0,1-2.88-3.24,3.93,3.93,0,0,1,4.1-3.65c3.17,0,4.15,2.06,4.39,3.1l-2,.74a2.24,2.24,0,0,0-2.4-1.92,1.74,1.74,0,0,0-1.92,1.54,1.42,1.42,0,0,0,1.32,1.39l1.87,0.41c2.09,0.46,3.19,1.73,3.19,3.43s-1.37,3.58-4.22,3.58c-3.17,0-4.51-2-4.7-3.36Z"/><path class="cls-2" d="M624.69,201a5.23,5.23,0,0,1-5.18,3.65c-3.1,0-5.81-2.26-5.81-6.17,0-3.62,2.62-6.1,5.52-6.1,3.55,0,5.54,2.45,5.54,6a5.16,5.16,0,0,1,0,.72H616a3.43,3.43,0,0,0,3.48,3.5,3.15,3.15,0,0,0,3.24-2.33Zm-2.28-3.67a2.91,2.91,0,0,0-3.17-3,3.11,3.11,0,0,0-3.14,3h6.31Z"/><path class="cls-2" d="M630.14,198.37L626,192.71h2.74l2.83,4.06,2.78-4.06H637l-4.1,5.66c0.7,0.94,3.55,4.94,4.25,5.88h-2.71l-3-4.25-2.93,4.25h-2.69Z"/><path class="cls-2" d="M640.41,198.47c0,2.64,1.66,4.06,3.53,4.06a3.14,3.14,0,0,0,3.22-2.38l2,0.86a5.3,5.3,0,0,1-5.21,3.6,6.14,6.14,0,0,1,0-12.27,5,5,0,0,1,5.14,3.67l-2,.86a3,3,0,0,0-3.1-2.45C642.09,194.43,640.41,195.78,640.41,198.47Z"/><path class="cls-2" d="M661.72,201a5.23,5.23,0,0,1-5.18,3.65c-3.1,0-5.81-2.26-5.81-6.17,0-3.62,2.62-6.1,5.52-6.1,3.55,0,5.54,2.45,5.54,6a5.16,5.16,0,0,1,0,.72h-8.69a3.43,3.43,0,0,0,3.48,3.5,3.15,3.15,0,0,0,3.24-2.33Zm-2.28-3.67a2.91,2.91,0,0,0-3.17-3,3.11,3.11,0,0,0-3.14,3h6.31Z"/><path class="cls-2" d="M664.67,208.81v-16.1h2.18v1.8a4.25,4.25,0,0,1,3.86-2.06c3.46,0,5.3,2.66,5.3,6s-2,6.1-5.38,6.1a4.29,4.29,0,0,1-3.74-1.87v6.12h-2.23Zm5.64-14.38c-2.06,0-3.43,1.73-3.43,4s1.37,4.08,3.43,4.08,3.41-1.7,3.41-4.08S672.43,194.43,670.31,194.43Z"/><path class="cls-2" d="M681.81,192.71h2.5v2h-2.5v6a1.37,1.37,0,0,0,1.61,1.58,4.57,4.57,0,0,0,.89-0.1v1.92a4.93,4.93,0,0,1-1.54.22,3,3,0,0,1-3.22-3.29v-6.34h-2.21v-2H678a1.61,1.61,0,0,0,1.78-1.78v-1.87h2.06v3.65Z"/><path class="cls-2" d="M694,190.83a5.82,5.82,0,0,1,9.55,0,12.13,12.13,0,0,1,0,11.28,5.82,5.82,0,0,1-9.55,0A12.13,12.13,0,0,1,694,190.83Zm2.3,10.68a3.53,3.53,0,0,0,4.94,0c0.94-1,1.37-2.66,1.37-5s-0.43-4.06-1.37-5a3.53,3.53,0,0,0-4.94,0c-0.94,1-1.37,2.66-1.37,5S695.34,200.53,696.28,201.51Z"/><path class="cls-2" d="M708.59,201.11a2,2,0,0,1,1.94,2.28c0,3.17-2.06,4.49-3.55,4.68v-1.25a2.72,2.72,0,0,0,2-2.59,1,1,0,0,1-.53.12,1.54,1.54,0,0,1-1.61-1.63A1.67,1.67,0,0,1,708.59,201.11Z"/><path class="cls-2" d="M721.24,186.71a1.62,1.62,0,1,1-1.61,1.63A1.62,1.62,0,0,1,721.24,186.71Zm-1.1,17.54V192.71h2.23v11.54h-2.23Z"/><path class="cls-2" d="M728.47,204.25h-2.26V192.71h2.21v1.66a4,4,0,0,1,3.55-2c2.76,0,4.13,2,4.13,4.56v7.32h-2.26v-6.94c0-1.61-.67-2.9-2.69-2.9-1.78,0-2.69,1.42-2.69,3.17v6.67Z"/><path class="cls-2" d="M741,198.47c0,2.64,1.66,4.06,3.53,4.06a3.14,3.14,0,0,0,3.22-2.38l2,0.86a5.3,5.3,0,0,1-5.21,3.6,6.14,6.14,0,0,1,0-12.27,5,5,0,0,1,5.14,3.67l-2,.86a3,3,0,0,0-3.1-2.45C742.72,194.43,741,195.78,741,198.47Z"/><path class="cls-2" d="M752.42,204.25V186.87h2.26v17.38h-2.26Z"/><path class="cls-2" d="M762.59,204.61c-2.69,0-4.32-2-4.32-4.63v-7.27h2.26v6.94c0,1.58.72,3,2.62,3s2.74-1.2,2.74-3v-7h2.26v9.41a19.45,19.45,0,0,0,.12,2.14H766.1a10.25,10.25,0,0,1-.1-1.39A3.77,3.77,0,0,1,762.59,204.61Z"/><path class="cls-2" d="M779.95,202.5a3.86,3.86,0,0,1-3.58,2.06c-3.38,0-5.47-2.69-5.47-6.12,0-3.26,2.21-6,5.47-6a3.55,3.55,0,0,1,3.53,1.94v-7.46h2.23v15.24a18.14,18.14,0,0,0,.12,2.14h-2.18a9.68,9.68,0,0,1-.12-1.56V202.5Zm-3.36.07c2.06,0,3.34-1.8,3.34-4.18s-1.25-4-3.31-4-3.41,1.68-3.41,4.06S774.43,202.57,776.59,202.57Z"/><path class="cls-2" d="M787.07,186.71a1.62,1.62,0,1,1-1.61,1.63A1.62,1.62,0,0,1,787.07,186.71ZM786,204.25V192.71h2.23v11.54H786Z"/><path class="cls-2" d="M794.3,204.25H792V192.71h2.21v1.66a4,4,0,0,1,3.55-2c2.76,0,4.13,2,4.13,4.56v7.32h-2.26v-6.94c0-1.61-.67-2.9-2.69-2.9-1.78,0-2.69,1.42-2.69,3.17v6.67Z"/><path class="cls-2" d="M806.88,204.37A3.07,3.07,0,0,0,810,207.2c2.42,0,3.53-1.25,3.53-3.74V201.8a3.84,3.84,0,0,1-3.53,1.9,5.61,5.61,0,0,1,0-11.21,3.65,3.65,0,0,1,3.55,1.82v-1.61h2.23v10.68c0,2.93-1.44,5.79-5.79,5.79a5.05,5.05,0,0,1-5.33-4.3Zm6.77-6.26c0-2.23-1.34-3.7-3.29-3.7s-3.34,1.46-3.34,3.7,1.3,3.7,3.34,3.7S813.64,200.34,813.64,198.11Z"/><path class="cls-2" d="M826.19,193.33a1.79,1.79,0,0,1-1.75-2c0-2.83,1.85-4.06,3.19-4.2v1.13a2.51,2.51,0,0,0-1.8,2.33,0.9,0.9,0,0,1,.48-0.12,1.39,1.39,0,0,1,1.44,1.46A1.49,1.49,0,0,1,826.19,193.33Z"/><path class="cls-2" d="M830.87,204.25v-17h2.4v17h-2.4Z"/><path class="cls-2" d="M839.61,204.25h-2.26V192.71h2.21v1.66a4,4,0,0,1,3.55-2c2.76,0,4.13,2,4.13,4.56v7.32H845v-6.94c0-1.61-.67-2.9-2.69-2.9-1.78,0-2.69,1.42-2.69,3.17v6.67Z"/><path class="cls-2" d="M853.87,194.75v9.5h-2.33v-9.5H849.4v-2h2.14v-1.94a3.66,3.66,0,0,1,3.79-4,2.92,2.92,0,0,1,1.34.24v2a2.61,2.61,0,0,0-1-.14,1.73,1.73,0,0,0-1.82,2v1.82h2.78v2h-2.78Z"/><path class="cls-2" d="M860.18,186.71a1.62,1.62,0,1,1-1.61,1.63A1.62,1.62,0,0,1,860.18,186.71Zm-1.1,17.54V192.71h2.23v11.54h-2.23Z"/><path class="cls-2" d="M867.4,204.25h-2.26V192.71h2.21v1.66a4,4,0,0,1,3.55-2c2.76,0,4.13,2,4.13,4.56v7.32h-2.26v-6.94c0-1.61-.67-2.9-2.69-2.9-1.78,0-2.69,1.42-2.69,3.17v6.67Z"/><path class="cls-2" d="M879.74,186.71a1.62,1.62,0,1,1-1.61,1.63A1.62,1.62,0,0,1,879.74,186.71Zm-1.1,17.54V192.71h2.23v11.54h-2.23Z"/><path class="cls-2" d="M887.73,192.71h2.5v2h-2.5v6a1.37,1.37,0,0,0,1.61,1.58,4.57,4.57,0,0,0,.89-0.1v1.92a4.93,4.93,0,0,1-1.54.22,3,3,0,0,1-3.22-3.29v-6.34h-2.21v-2h0.62a1.61,1.61,0,0,0,1.78-1.78v-1.87h2.06v3.65Z"/><path class="cls-2" d="M893.75,209.08l2.88-6.1-5-10.27h2.59l3.6,8,3.46-8h2.42l-7.51,16.37h-2.47Z"/><path class="cls-2" d="M906.57,187a1.88,1.88,0,0,1,1.82,2.11c0,3-1.92,4.2-3.31,4.37v-1.15a2.55,2.55,0,0,0,1.85-2.42,0.91,0.91,0,0,1-.48.12,1.46,1.46,0,0,1-1.51-1.54A1.56,1.56,0,0,1,906.57,187Z"/><path class="cls-2" d="M483.38,214l1.37,1.2a15.17,15.17,0,0,0,0,20.5l-1.37,1.2A16.65,16.65,0,0,1,483.38,214Z"/><path class="cls-2" d="M495,221.51l3,8.69,2.54-8.69h2.38l-3.74,11.54h-2.33l-3.07-8.78-3,8.78h-2.38l-3.79-11.54h2.47l2.59,8.69,3-8.69H495Z"/><path class="cls-2" d="M507.48,233.05h-2.26V215.67h2.26v7.18a4.08,4.08,0,0,1,3.5-1.68c2.76,0,4.13,2,4.13,4.56v7.32h-2.26v-6.94c0-1.61-.67-2.9-2.69-2.9-1.73,0-2.64,1.34-2.69,3v6.79Z"/><path class="cls-2" d="M521.49,226.45l3.12-.46a0.84,0.84,0,0,0,.89-0.86c0-1.13-.74-2.06-2.5-2.06a2.45,2.45,0,0,0-2.62,2.33l-2.16-.5c0.24-2.21,2.23-3.75,4.73-3.75,3.46,0,4.8,2,4.8,4.22v5.79a10.85,10.85,0,0,0,.14,1.9h-2.21a8.45,8.45,0,0,1-.12-1.56,4.21,4.21,0,0,1-3.72,1.92A3.6,3.6,0,0,1,518,230C518,227.89,519.5,226.74,521.49,226.45Zm4,1.66v-0.53l-3.53.53a1.73,1.73,0,0,0-1.68,1.73,1.75,1.75,0,0,0,1.87,1.68C524,231.51,525.5,230.63,525.5,228.11Z"/><path class="cls-2" d="M534.28,221.51h2.5v2h-2.5v6a1.37,1.37,0,0,0,1.61,1.58,4.57,4.57,0,0,0,.89-0.1V233a4.93,4.93,0,0,1-1.54.22,3,3,0,0,1-3.22-3.29v-6.34h-2.21v-2h0.62a1.62,1.62,0,0,0,1.78-1.78v-1.87h2.06v3.65Z"/><path class="cls-2" d="M546.19,237.88l2.88-6.1-5-10.27h2.59l3.6,8,3.46-8h2.42l-7.51,16.37h-2.47Z"/><path class="cls-2" d="M568.7,227.27a5.91,5.91,0,1,1-5.9-6.12A5.83,5.83,0,0,1,568.7,227.27Zm-2.3,0c0-2.66-1.68-4.1-3.6-4.1s-3.6,1.44-3.6,4.1,1.68,4.13,3.6,4.13S566.4,230,566.4,227.27Z"/><path class="cls-2" d="M575.66,233.41c-2.69,0-4.32-2-4.32-4.63v-7.27h2.26v6.94c0,1.58.72,3,2.62,3s2.74-1.2,2.74-3v-7h2.26v9.41a19.45,19.45,0,0,0,.12,2.14h-2.16a10.25,10.25,0,0,1-.1-1.39A3.77,3.77,0,0,1,575.66,233.41Z"/><path class="cls-2" d="M592.39,233.17a3.07,3.07,0,0,0,3.14,2.83c2.42,0,3.53-1.25,3.53-3.74V230.6a3.85,3.85,0,0,1-3.53,1.9,5.61,5.61,0,0,1,0-11.21,3.64,3.64,0,0,1,3.55,1.82v-1.61h2.23v10.68c0,2.93-1.44,5.79-5.78,5.79a5.05,5.05,0,0,1-5.33-4.3Zm6.77-6.26c0-2.23-1.34-3.7-3.29-3.7s-3.34,1.46-3.34,3.7,1.3,3.7,3.34,3.7S599.16,229.14,599.16,226.91Z"/><path class="cls-2" d="M615,229.76a5.23,5.23,0,0,1-5.18,3.65c-3.1,0-5.81-2.26-5.81-6.17,0-3.62,2.62-6.1,5.52-6.1,3.55,0,5.54,2.45,5.54,6a5.18,5.18,0,0,1,0,.72h-8.69a3.43,3.43,0,0,0,3.48,3.5,3.15,3.15,0,0,0,3.24-2.33Zm-2.28-3.67a2.91,2.91,0,0,0-3.17-3,3.11,3.11,0,0,0-3.14,3h6.31Z"/><path class="cls-2" d="M620.95,221.51h2.5v2h-2.5v6a1.37,1.37,0,0,0,1.61,1.58,4.58,4.58,0,0,0,.89-0.1V233a4.94,4.94,0,0,1-1.54.22,3,3,0,0,1-3.22-3.29v-6.34h-2.21v-2h0.62a1.62,1.62,0,0,0,1.78-1.78v-1.87h2.06v3.65Z"/><path class="cls-2" d="M635.23,226.45l3.12-.46a0.84,0.84,0,0,0,.89-0.86c0-1.13-.74-2.06-2.5-2.06a2.45,2.45,0,0,0-2.62,2.33l-2.16-.5c0.24-2.21,2.23-3.75,4.73-3.75,3.46,0,4.8,2,4.8,4.22v5.79a10.85,10.85,0,0,0,.14,1.9h-2.21a8.45,8.45,0,0,1-.12-1.56,4.21,4.21,0,0,1-3.72,1.92,3.6,3.6,0,0,1-3.86-3.46C631.72,227.89,633.24,226.74,635.23,226.45Zm4,1.66v-0.53l-3.53.53a1.73,1.73,0,0,0-1.68,1.73,1.75,1.75,0,0,0,1.87,1.68C637.75,231.51,639.24,230.63,639.24,228.11Z"/><path class="cls-2" d="M648,223.55v9.5h-2.33v-9.5h-2.14v-2h2.14v-1.94a3.66,3.66,0,0,1,3.79-4,2.91,2.91,0,0,1,1.34.24v2a2.61,2.61,0,0,0-1-.14,1.73,1.73,0,0,0-1.82,2v1.82h2.78v2H648Z"/><path class="cls-2" d="M656.25,221.51h2.5v2h-2.5v6a1.37,1.37,0,0,0,1.61,1.58,4.57,4.57,0,0,0,.89-0.1V233a4.93,4.93,0,0,1-1.54.22,3,3,0,0,1-3.22-3.29v-6.34h-2.21v-2h0.62a1.62,1.62,0,0,0,1.78-1.78v-1.87h2.06v3.65Z"/><path class="cls-2" d="M671.68,229.76a5.23,5.23,0,0,1-5.18,3.65c-3.1,0-5.81-2.26-5.81-6.17,0-3.62,2.62-6.1,5.52-6.1,3.55,0,5.54,2.45,5.54,6a5,5,0,0,1,0,.72H663a3.43,3.43,0,0,0,3.48,3.5,3.15,3.15,0,0,0,3.24-2.33Zm-2.28-3.67a2.91,2.91,0,0,0-3.17-3,3.11,3.11,0,0,0-3.14,3h6.31Z"/><path class="cls-2" d="M681,223.79a7.07,7.07,0,0,0-1-.07c-1.9,0-3.17,1-3.17,3.55v5.78h-2.26V221.51h2.21v2a3.62,3.62,0,0,1,3.46-2.21,4.33,4.33,0,0,1,.74.07v2.4Z"/><path class="cls-2" d="M697.53,231.3a3.86,3.86,0,0,1-3.58,2.06c-3.38,0-5.47-2.69-5.47-6.12,0-3.26,2.21-6,5.47-6a3.55,3.55,0,0,1,3.53,1.94v-7.46h2.23v15.24a18.14,18.14,0,0,0,.12,2.14h-2.18a9.68,9.68,0,0,1-.12-1.56V231.3Zm-3.36.07c2.06,0,3.34-1.8,3.34-4.18s-1.25-4-3.31-4-3.41,1.68-3.41,4.06S692,231.37,694.17,231.37Z"/><path class="cls-2" d="M704.66,215.51a1.62,1.62,0,1,1-1.61,1.63A1.62,1.62,0,0,1,704.66,215.51Zm-1.1,17.54V221.51h2.23v11.54h-2.23Z"/><path class="cls-2" d="M714.91,233.05h-2.28l-4.68-11.54h2.54l3.29,8.91,3.31-8.91h2.42Z"/><path class="cls-2" d="M722.78,215.51a1.62,1.62,0,1,1-1.61,1.63A1.62,1.62,0,0,1,722.78,215.51Zm-1.1,17.54V221.51h2.23v11.54h-2.23Z"/><path class="cls-2" d="M735.83,231.3a3.86,3.86,0,0,1-3.58,2.06c-3.38,0-5.47-2.69-5.47-6.12,0-3.26,2.21-6,5.47-6a3.55,3.55,0,0,1,3.53,1.94v-7.46H738v15.24a18.14,18.14,0,0,0,.12,2.14H736a9.68,9.68,0,0,1-.12-1.56V231.3Zm-3.36.07c2.06,0,3.34-1.8,3.34-4.18s-1.25-4-3.31-4-3.41,1.68-3.41,4.06S730.31,231.37,732.47,231.37Z"/><path class="cls-2" d="M743,215.51a1.62,1.62,0,1,1-1.61,1.63A1.62,1.62,0,0,1,743,215.51Zm-1.1,17.54V221.51h2.23v11.54h-2.23Z"/><path class="cls-2" d="M750.18,233.05h-2.26V221.51h2.21v1.66a4,4,0,0,1,3.55-2c2.76,0,4.13,2,4.13,4.56v7.32h-2.26v-6.94c0-1.61-.67-2.9-2.69-2.9-1.78,0-2.69,1.42-2.69,3.17v6.67Z"/><path class="cls-2" d="M762.76,233.17A3.07,3.07,0,0,0,765.9,236c2.42,0,3.53-1.25,3.53-3.74V230.6a3.84,3.84,0,0,1-3.53,1.9,5.61,5.61,0,0,1,0-11.21,3.64,3.64,0,0,1,3.55,1.82v-1.61h2.23v10.68c0,2.93-1.44,5.79-5.79,5.79a5.05,5.05,0,0,1-5.33-4.3Zm6.77-6.26c0-2.23-1.34-3.7-3.29-3.7s-3.34,1.46-3.34,3.7,1.3,3.7,3.34,3.7S769.53,229.14,769.53,226.91Z"/><path class="cls-2" d="M781.29,233.05V215.67h2.23v7.46a4.21,4.21,0,0,1,3.82-2c3.5,0,5.3,2.69,5.3,6s-1.94,6.14-5.38,6.14a4.12,4.12,0,0,1-3.74-2v1.68h-2.23Zm5.64-9.89c-2,0-3.43,1.56-3.43,4.06s1.44,4.13,3.43,4.13,3.41-1.63,3.41-4.13S789,223.16,786.93,223.16Z"/><path class="cls-2" d="M795.45,237.88l2.88-6.1-5-10.27H796l3.6,8,3.46-8h2.42l-7.51,16.37h-2.47Z"/><path class="cls-2" d="M814.26,219.63a5.82,5.82,0,0,1,9.55,0,12.13,12.13,0,0,1,0,11.28,5.82,5.82,0,0,1-9.55,0A12.13,12.13,0,0,1,814.26,219.63Zm2.3,10.68a3.53,3.53,0,0,0,4.94,0c0.94-1,1.37-2.66,1.37-5s-0.43-4.06-1.37-5a3.53,3.53,0,0,0-4.94,0c-0.94,1-1.37,2.66-1.37,5S815.63,229.33,816.57,230.31Z"/><path class="cls-2" d="M827.3,236.89l-1.37-1.2a15.17,15.17,0,0,0,0-20.5l1.37-1.2A16.65,16.65,0,0,1,827.3,236.89Z"/><path class="cls-2" d="M489.6,292.64h-7.54l-1.8,4.75h-2.52l6.77-17h2.71l6.77,17h-2.54Zm-6.7-2.18h5.86l-3-7.63Z"/><path class="cls-2" d="M496.15,297.39V280h2.26v17.38h-2.26Z"/><path class="cls-2" d="M502.24,297.39V280h2.26v17.38h-2.26Z"/><path class="cls-2" d="M516.59,297.39h-2.26V285.85h2.21v1.66a4,4,0,0,1,3.55-2c2.76,0,4.13,2,4.13,4.56v7.32H522v-6.94c0-1.61-.67-2.9-2.69-2.9-1.78,0-2.69,1.42-2.69,3.17v6.67Z"/><path class="cls-2" d="M538.68,291.61a5.91,5.91,0,1,1-5.9-6.12A5.83,5.83,0,0,1,538.68,291.61Zm-2.3,0c0-2.66-1.68-4.1-3.6-4.1s-3.6,1.44-3.6,4.1,1.68,4.13,3.6,4.13S536.37,294.3,536.37,291.61Z"/><path class="cls-2" d="M543.81,297.39h-2.26V285.85h2.21v1.66a4,4,0,0,1,3.55-2c2.76,0,4.13,2,4.13,4.56v7.32h-2.26v-6.94c0-1.61-.67-2.9-2.69-2.9-1.78,0-2.69,1.42-2.69,3.17v6.67Z"/><path class="cls-2" d="M554.2,291.49v-2h6.5v2h-6.5Z"/><path class="cls-2" d="M573.76,294.11a5.23,5.23,0,0,1-5.18,3.65c-3.1,0-5.81-2.26-5.81-6.17,0-3.62,2.62-6.1,5.52-6.1,3.55,0,5.54,2.45,5.54,6a5.15,5.15,0,0,1,0,.72H565.1a3.43,3.43,0,0,0,3.48,3.5,3.14,3.14,0,0,0,3.24-2.33Zm-2.28-3.67a2.91,2.91,0,0,0-3.17-3,3.11,3.11,0,0,0-3.14,3h6.31Z"/><path class="cls-2" d="M576.71,297.39V285.85h2.16v1.54a4,4,0,0,1,3.5-1.87,3.61,3.61,0,0,1,3.46,2.18,4.14,4.14,0,0,1,3.86-2.18c2,0,4,1.37,4,4.39v7.49h-2.23v-7.25A2.32,2.32,0,0,0,589,287.5a2.69,2.69,0,0,0-2.66,2.9v7h-2.26v-7.25a2.32,2.32,0,0,0-2.45-2.64,2.68,2.68,0,0,0-2.69,2.93v7h-2.23Z"/><path class="cls-2" d="M597.28,302V285.85h2.18v1.8a4.26,4.26,0,0,1,3.86-2.06c3.46,0,5.3,2.66,5.3,6s-2,6.1-5.38,6.1a4.29,4.29,0,0,1-3.74-1.87V302h-2.23Zm5.64-14.38c-2.06,0-3.43,1.73-3.43,4s1.37,4.08,3.43,4.08,3.41-1.7,3.41-4.08S605,287.58,602.92,287.58Z"/><path class="cls-2" d="M614.42,285.85h2.5v2h-2.5v6a1.37,1.37,0,0,0,1.61,1.58,4.56,4.56,0,0,0,.89-0.1v1.92a4.92,4.92,0,0,1-1.54.22,3,3,0,0,1-3.22-3.29v-6.34H610v-2h0.62a1.62,1.62,0,0,0,1.78-1.78V282.2h2.06v3.65Z"/><path class="cls-2" d="M620.44,302.22l2.88-6.1-5-10.27h2.59l3.6,8,3.46-8h2.42l-7.51,16.37h-2.47Z"/><path class="cls-2" d="M639.55,293.67a2.46,2.46,0,0,0,2.69,2.16,1.7,1.7,0,0,0,2-1.54,1.61,1.61,0,0,0-1.49-1.49l-2-.43a3.28,3.28,0,0,1-2.88-3.24,3.93,3.93,0,0,1,4.1-3.65c3.17,0,4.15,2.06,4.39,3.1l-2,.74a2.24,2.24,0,0,0-2.4-1.92,1.74,1.74,0,0,0-1.92,1.54,1.42,1.42,0,0,0,1.32,1.39l1.87,0.41c2.09,0.46,3.19,1.73,3.19,3.43s-1.37,3.58-4.22,3.58c-3.17,0-4.51-2-4.71-3.36Z"/><path class="cls-2" d="M652.46,285.85H655v2h-2.5v6a1.37,1.37,0,0,0,1.61,1.58,4.57,4.57,0,0,0,.89-0.1v1.92a4.93,4.93,0,0,1-1.54.22,3,3,0,0,1-3.22-3.29v-6.34H648v-2h0.62a1.62,1.62,0,0,0,1.78-1.78V282.2h2.06v3.65Z"/><path class="cls-2" d="M664.12,288.13a6.91,6.91,0,0,0-1-.07c-1.9,0-3.17,1-3.17,3.55v5.79h-2.26V285.85h2.21v2a3.61,3.61,0,0,1,3.46-2.21,4.2,4.2,0,0,1,.74.07v2.4Z"/><path class="cls-2" d="M667.63,279.85a1.62,1.62,0,1,1-1.61,1.63A1.62,1.62,0,0,1,667.63,279.85Zm-1.1,17.55V285.85h2.23v11.54h-2.23Z"/><path class="cls-2" d="M674.85,297.39h-2.26V285.85h2.21v1.66a4,4,0,0,1,3.55-2c2.76,0,4.13,2,4.13,4.56v7.32h-2.26v-6.94c0-1.61-.67-2.9-2.69-2.9-1.78,0-2.69,1.42-2.69,3.17v6.67Z"/><path class="cls-2" d="M687.42,297.51a3.07,3.07,0,0,0,3.14,2.83c2.42,0,3.53-1.25,3.53-3.74v-1.66a3.84,3.84,0,0,1-3.53,1.9,5.61,5.61,0,0,1,0-11.21,3.65,3.65,0,0,1,3.55,1.82v-1.61h2.23v10.68c0,2.93-1.44,5.78-5.78,5.78a5.05,5.05,0,0,1-5.33-4.3Zm6.77-6.26c0-2.23-1.34-3.7-3.29-3.7s-3.34,1.46-3.34,3.7,1.3,3.7,3.34,3.7S694.19,293.48,694.19,291.25Z"/><path class="cls-2" d="M700.91,293.67a2.46,2.46,0,0,0,2.69,2.16,1.7,1.7,0,0,0,2-1.54,1.61,1.61,0,0,0-1.49-1.49l-2-.43a3.28,3.28,0,0,1-2.88-3.24,3.93,3.93,0,0,1,4.1-3.65c3.17,0,4.15,2.06,4.39,3.1l-2,.74a2.24,2.24,0,0,0-2.4-1.92,1.74,1.74,0,0,0-1.92,1.54,1.42,1.42,0,0,0,1.32,1.39l1.87,0.41c2.09,0.46,3.19,1.73,3.19,3.43s-1.37,3.58-4.22,3.58c-3.17,0-4.51-2-4.71-3.36Z"/><path class="cls-2" d="M482,371.52v7h-2.35v-17h6.19a5,5,0,1,1,0,10.06H482Zm3.41-2.11c2,0,3.29-1.13,3.29-2.88s-1.25-3-3.29-3H482v5.83h3.41Z"/><path class="cls-2" d="M499.8,369.22a7.06,7.06,0,0,0-1-.07c-1.9,0-3.17,1-3.17,3.55v5.78h-2.26V366.94h2.21v2a3.61,3.61,0,0,1,3.46-2.21,4.32,4.32,0,0,1,.74.07v2.4Z"/><path class="cls-2" d="M512.13,375.19a5.23,5.23,0,0,1-5.18,3.65c-3.1,0-5.81-2.26-5.81-6.17,0-3.62,2.62-6.1,5.52-6.1,3.55,0,5.54,2.45,5.54,6a5.18,5.18,0,0,1,0,.72h-8.69a3.43,3.43,0,0,0,3.48,3.5,3.15,3.15,0,0,0,3.24-2.33Zm-2.28-3.67a2.91,2.91,0,0,0-3.17-3,3.11,3.11,0,0,0-3.14,3h6.31Z"/><path class="cls-2" d="M518.11,366.94h2.5v2h-2.5v6a1.37,1.37,0,0,0,1.61,1.58,4.58,4.58,0,0,0,.89-0.1v1.92a4.94,4.94,0,0,1-1.54.22,3,3,0,0,1-3.22-3.29V369h-2.21v-2h0.62a1.62,1.62,0,0,0,1.78-1.78v-1.87h2.06v3.65Z"/><path class="cls-2" d="M526.63,366.94h2.5v2h-2.5v6a1.37,1.37,0,0,0,1.61,1.58,4.58,4.58,0,0,0,.89-0.1v1.92a4.94,4.94,0,0,1-1.54.22,3,3,0,0,1-3.22-3.29V369h-2.21v-2h0.62a1.62,1.62,0,0,0,1.78-1.78v-1.87h2.06v3.65Z"/><path class="cls-2" d="M532.65,383.31l2.88-6.1-5-10.27h2.59l3.6,8,3.46-8h2.42l-7.51,16.37h-2.47Z"/><path class="cls-2" d="M550.79,378.48V366.94H553v1.54a4,4,0,0,1,3.5-1.87,3.61,3.61,0,0,1,3.46,2.18,4.14,4.14,0,0,1,3.86-2.18c2,0,4,1.37,4,4.39v7.49h-2.23v-7.25a2.32,2.32,0,0,0-2.45-2.64,2.69,2.69,0,0,0-2.66,2.9v7h-2.26v-7.25a2.32,2.32,0,0,0-2.45-2.64,2.68,2.68,0,0,0-2.69,2.93v7h-2.23Z"/><path class="cls-2" d="M575.32,378.84c-2.69,0-4.32-2-4.32-4.63v-7.27h2.26v6.94c0,1.58.72,3,2.62,3s2.74-1.2,2.74-3v-7h2.26v9.41a19.2,19.2,0,0,0,.12,2.14h-2.16a10.07,10.07,0,0,1-.1-1.39A3.77,3.77,0,0,1,575.32,378.84Z"/><path class="cls-2" d="M585.93,372.7c0,2.64,1.66,4.06,3.53,4.06a3.14,3.14,0,0,0,3.22-2.38l2,0.86a5.3,5.3,0,0,1-5.21,3.6,6.14,6.14,0,0,1,0-12.27,5,5,0,0,1,5.14,3.67l-2,.86a3,3,0,0,0-3.1-2.45C587.61,368.67,585.93,370,585.93,372.7Z"/><path class="cls-2" d="M599.56,378.48h-2.26V361.1h2.26v7.18a4.08,4.08,0,0,1,3.5-1.68c2.76,0,4.13,2,4.13,4.56v7.32h-2.26v-6.94c0-1.61-.67-2.9-2.69-2.9-1.73,0-2.64,1.34-2.69,3v6.79Z"/><path class="cls-2" d="M626.85,375.19a5.23,5.23,0,0,1-5.18,3.65c-3.1,0-5.81-2.26-5.81-6.17,0-3.62,2.62-6.1,5.52-6.1,3.55,0,5.54,2.45,5.54,6a5,5,0,0,1,0,.72h-8.69a3.43,3.43,0,0,0,3.48,3.5,3.15,3.15,0,0,0,3.24-2.33Zm-2.28-3.67a2.91,2.91,0,0,0-3.17-3,3.11,3.11,0,0,0-3.14,3h6.31Z"/><path class="cls-2" d="M634.84,378.48h-2.28l-4.68-11.54h2.54l3.29,8.91,3.31-8.91h2.42Z"/><path class="cls-2" d="M651.31,375.19a5.23,5.23,0,0,1-5.18,3.65c-3.1,0-5.81-2.26-5.81-6.17,0-3.62,2.62-6.1,5.52-6.1,3.55,0,5.54,2.45,5.54,6a5.18,5.18,0,0,1,0,.72h-8.69a3.43,3.43,0,0,0,3.48,3.5,3.15,3.15,0,0,0,3.24-2.33ZM649,371.52a2.91,2.91,0,0,0-3.17-3,3.11,3.11,0,0,0-3.14,3H649Z"/><path class="cls-2" d="M660.67,369.22a7.07,7.07,0,0,0-1-.07c-1.9,0-3.17,1-3.17,3.55v5.78h-2.26V366.94h2.21v2a3.62,3.62,0,0,1,3.46-2.21,4.33,4.33,0,0,1,.74.07v2.4Z"/><path class="cls-2" d="M663.83,383.31l2.88-6.1-5-10.27h2.59l3.6,8,3.46-8h2.42l-7.51,16.37h-2.47Z"/><path class="cls-2" d="M679.12,366.94h2.5v2h-2.5v6a1.37,1.37,0,0,0,1.61,1.58,4.57,4.57,0,0,0,.89-0.1v1.92a4.93,4.93,0,0,1-1.54.22,3,3,0,0,1-3.22-3.29V369h-2.21v-2h0.62a1.61,1.61,0,0,0,1.78-1.78v-1.87h2.06v3.65Z"/><path class="cls-2" d="M686.87,378.48h-2.26V361.1h2.26v7.18a4.08,4.08,0,0,1,3.5-1.68c2.76,0,4.13,2,4.13,4.56v7.32h-2.26v-6.94c0-1.61-.67-2.9-2.69-2.9-1.73,0-2.64,1.34-2.69,3v6.79Z"/><path class="cls-2" d="M699.21,360.94a1.62,1.62,0,1,1-1.61,1.63A1.62,1.62,0,0,1,699.21,360.94Zm-1.1,17.54V366.94h2.23v11.54h-2.23Z"/><path class="cls-2" d="M706.43,378.48h-2.26V366.94h2.21v1.66a4,4,0,0,1,3.55-2c2.76,0,4.13,2,4.13,4.56v7.32h-2.26v-6.94c0-1.61-.67-2.9-2.69-2.9-1.78,0-2.69,1.42-2.69,3.17v6.67Z"/><path class="cls-2" d="M719,378.6a3.07,3.07,0,0,0,3.14,2.83c2.42,0,3.53-1.25,3.53-3.74V376a3.84,3.84,0,0,1-3.53,1.9,5.61,5.61,0,0,1,0-11.21,3.64,3.64,0,0,1,3.55,1.82v-1.61h2.23v10.68c0,2.93-1.44,5.79-5.79,5.79a5.05,5.05,0,0,1-5.33-4.3Zm6.77-6.26c0-2.23-1.34-3.7-3.29-3.7s-3.34,1.46-3.34,3.7,1.3,3.7,3.34,3.7S725.78,374.57,725.78,372.34Z"/><path class="cls-2" d="M747.59,375.19a5.23,5.23,0,0,1-5.18,3.65c-3.1,0-5.81-2.26-5.81-6.17,0-3.62,2.62-6.1,5.52-6.1,3.55,0,5.54,2.45,5.54,6a5,5,0,0,1,0,.72h-8.69a3.43,3.43,0,0,0,3.48,3.5,3.15,3.15,0,0,0,3.24-2.33Zm-2.28-3.67a2.91,2.91,0,0,0-3.17-3,3.11,3.11,0,0,0-3.14,3h6.31Z"/><path class="cls-2" d="M750.55,378.48V361.1h2.26v17.38h-2.26Z"/><path class="cls-2" d="M757.6,374.76a2.46,2.46,0,0,0,2.69,2.16,1.7,1.7,0,0,0,2-1.54,1.61,1.61,0,0,0-1.49-1.49l-2-.43a3.28,3.28,0,0,1-2.88-3.24,3.94,3.94,0,0,1,4.1-3.65c3.17,0,4.15,2.06,4.39,3.1l-2,.74a2.24,2.24,0,0,0-2.4-1.92,1.74,1.74,0,0,0-1.92,1.54,1.41,1.41,0,0,0,1.32,1.39l1.87,0.41c2.09,0.46,3.19,1.73,3.19,3.43s-1.37,3.58-4.22,3.58c-3.17,0-4.51-2-4.71-3.36Z"/><path class="cls-2" d="M777.43,375.19a5.23,5.23,0,0,1-5.18,3.65c-3.1,0-5.81-2.26-5.81-6.17,0-3.62,2.62-6.1,5.52-6.1,3.55,0,5.54,2.45,5.54,6a5,5,0,0,1,0,.72h-8.69a3.43,3.43,0,0,0,3.48,3.5,3.15,3.15,0,0,0,3.24-2.33Zm-2.28-3.67a2.91,2.91,0,0,0-3.17-3,3.11,3.11,0,0,0-3.14,3h6.31Z"/><path class="cls-2" d="M921.5,420H1.5A1.5,1.5,0,0,1,0,418.5V89a1.5,1.5,0,0,1,1.5-1.5h920A1.5,1.5,0,0,1,923,89V418.5A1.5,1.5,0,0,1,921.5,420ZM3,417H920V90.52H3V417Z"/><rect class="cls-2" x="3.5" y="170.66" width="916" height="3"/><rect class="cls-2" x="3.5" y="248.16" width="916" height="3"/><rect class="cls-2" x="3.5" y="325.66" width="916" height="3"/><rect class="cls-2" x="458" y="1.5" width="3" height="416.5"/></svg>