<svg id="Layer_1" data-name="Layer 1" xmlns="http://www.w3.org/2000/svg" viewBox="0 0 351 485.28"><defs><style>.cls-1{fill:#85e8da;}.cls-2{fill:#f6f6f6;}.cls-3{fill:#231f20;}</style></defs><title>Slide-14-Flow-Chart</title><rect class="cls-1" x="61.95" y="220.29" width="205.87" height="82.24" rx="1" ry="1" transform="translate(329.77 522.83) rotate(-180)"/><path d="M266.82,304H63a2.5,2.5,0,0,1-2.5-2.5V221.29a2.5,2.5,0,0,1,2.5-2.5H266.82a2.5,2.5,0,0,1,2.5,2.5v80.24A2.5,2.5,0,0,1,266.82,304ZM63.45,301H266.32V221.79H63.45V301Z"/><rect class="cls-2" x="106.8" y="37.48" width="116.16" height="116.16" transform="translate(349.04 46.54) rotate(135)"/><path class="cls-3" d="M164.88,179.82L80.62,95.56,164.88,11.3l84.26,84.26Zm-80-84.26,80,80,80-80-80-80Z"/><polygon class="cls-3" points="72.23 95.73 0 95.73 0 0 3 0 3 92.73 72.23 92.73 72.23 95.73"/><polygon class="cls-3" points="70.04 86.75 83 94.23 70.04 101.71 70.04 86.75"/><rect class="cls-3" x="163.38" y="177.89" width="3" height="29.87"/><polygon class="cls-3" points="157.4 205.57 164.88 218.52 172.36 205.57 157.4 205.57"/><rect class="cls-3" x="163.38" y="303.27" width="3" height="98.94"/><polygon class="cls-3" points="157.4 400.03 164.88 412.98 172.36 400.03 157.4 400.03"/><path d="M117.87,245.89l-5.25-7.35h4.74c0.51,0.81,2.43,3.57,2.94,4.38l2.91-4.38h4.53l-5.16,7.23,5.34,7.53h-4.68l-3.09-4.53c-0.54.81-2.52,3.72-3,4.53h-4.5Z"/><path d="M142.77,242.83V237h3.36v5.85h5.7v3.27h-5.7V252h-3.36V246.1H137.1v-3.27h5.67Z"/><path d="M155.07,243.07v-3.21h14.55v3.21H155.07Zm0,6V245.8h14.55V249H155.07Z"/><path d="M184.41,253.3v-13h-4.68v-2.79c2.85,0,4.83-1.62,5.22-3.66h3.57V253.3h-4.11Z"/><path d="M193.95,236.65a7.36,7.36,0,0,1,6.42-3.27,7.27,7.27,0,0,1,6.39,3.27,14.67,14.67,0,0,1,0,13.86,7.27,7.27,0,0,1-6.39,3.27,7.36,7.36,0,0,1-6.42-3.27A14.9,14.9,0,0,1,193.95,236.65Zm3.48,11.88a3.25,3.25,0,0,0,2.94,1.59,3.17,3.17,0,0,0,2.91-1.59,11.88,11.88,0,0,0,0-9.9,3.17,3.17,0,0,0-2.91-1.59,3.25,3.25,0,0,0-2.94,1.59A12.19,12.19,0,0,0,197.43,248.53Z"/><path d="M214.41,238.33a2.69,2.69,0,1,1,0,5.37A2.69,2.69,0,0,1,214.41,238.33Zm-0.06,10.32c1.77,0,2.82,1.44,2.82,3.27,0,4.2-2.88,6-5,6.24v-1.83a3.49,3.49,0,0,0,2.7-3.09,1.31,1.31,0,0,1-.72.18,2.27,2.27,0,0,1-2.37-2.37A2.43,2.43,0,0,1,214.35,248.65Z"/><path d="M114.84,295.12l3.48-7.68-6.27-12.9h4.47l3.93,8.64,3.63-8.64h4.26l-9.27,20.58h-4.23Z"/><path d="M143.19,278.83V273h3.36v5.85h5.7v3.27h-5.7V288h-3.36V282.1h-5.67v-3.27h5.67Z"/><path d="M155.49,279.07v-3.21H170v3.21H155.49Zm0,6V281.8H170V285H155.49Z"/><path d="M184.83,289.3v-13h-4.68v-2.79c2.85,0,4.83-1.62,5.22-3.66h3.57V289.3h-4.11Z"/><path d="M194.37,272.65a7.36,7.36,0,0,1,6.42-3.27,7.27,7.27,0,0,1,6.39,3.27,14.67,14.67,0,0,1,0,13.86,7.27,7.27,0,0,1-6.39,3.27,7.36,7.36,0,0,1-6.42-3.27A14.9,14.9,0,0,1,194.37,272.65Zm3.48,11.88a3.25,3.25,0,0,0,2.94,1.59,3.17,3.17,0,0,0,2.91-1.59,11.88,11.88,0,0,0,0-9.9,3.17,3.17,0,0,0-2.91-1.59,3.25,3.25,0,0,0-2.94,1.59A12.19,12.19,0,0,0,197.85,284.53Z"/><path d="M214.83,274.33a2.69,2.69,0,1,1,0,5.37A2.69,2.69,0,0,1,214.83,274.33Zm-0.06,10.32c1.77,0,2.82,1.44,2.82,3.27,0,4.2-2.88,6-5,6.24v-1.83a3.49,3.49,0,0,0,2.7-3.09,1.31,1.31,0,0,1-.72.18,2.27,2.27,0,0,1-2.37-2.37A2.43,2.43,0,0,1,214.77,284.65Z"/><path d="M132.18,92.55l-5.25-7.35h4.74c0.51,0.81,2.43,3.57,2.94,4.38l2.91-4.38h4.53l-5.16,7.23,5.34,7.53h-4.68l-3.09-4.53c-0.54.81-2.52,3.72-3,4.53h-4.5Z"/><path d="M163.8,92.61l-12.9,6.51V95.43l8.88-4.29-8.88-4.29V83.1l12.9,6.51v3Z"/><path d="M177.87,100v-13h-4.68V84.15c2.85,0,4.83-1.62,5.22-3.66H182V100h-4.11Z"/><path d="M187.41,83.31A7.36,7.36,0,0,1,193.83,80a7.27,7.27,0,0,1,6.39,3.27A12.44,12.44,0,0,1,202,90.24a12.43,12.43,0,0,1-1.74,6.93,7.27,7.27,0,0,1-6.39,3.27,7.36,7.36,0,0,1-6.42-3.27,12.42,12.42,0,0,1-1.71-6.93A12.42,12.42,0,0,1,187.41,83.31Zm3.48,11.88a3.25,3.25,0,0,0,2.94,1.59,3.17,3.17,0,0,0,2.91-1.59,9.12,9.12,0,0,0,1.08-4.95,9.12,9.12,0,0,0-1.08-4.95,3.17,3.17,0,0,0-2.91-1.59,3.25,3.25,0,0,0-2.94,1.59,9.41,9.41,0,0,0-1.05,4.95A9.41,9.41,0,0,0,190.89,95.19Z"/><polygon class="cls-3" points="37.98 474.51 34.98 474.51 34.98 412.95 348 412.95 348 95.73 246.2 95.73 246.2 92.73 351 92.73 351 415.95 37.98 415.95 37.98 474.51"/><polygon class="cls-3" points="29 472.32 36.48 485.28 43.95 472.32 29 472.32"/><path d="M256.84,82l-6.72-10.49V82h-2.88V67.17h3.59L257,77V67.17h2.88V82h-3Z"/><path d="M273,76.83a5.38,5.38,0,1,1-5.38-5.44A5.27,5.27,0,0,1,273,76.83Zm-2.77,0a2.62,2.62,0,1,0-2.61,2.92A2.63,2.63,0,0,0,270.19,76.83Z"/><path d="M117.45,173.17h3.38l3.32,5.86,3.32-5.86h3.23l-5.21,8.57V188H122.6v-6.22Z"/><path d="M139.52,185a4.62,4.62,0,0,1-4.67,3.25,5.45,5.45,0,0,1-.25-10.89c3.17,0,5.07,2,5.07,5.32,0,0.4,0,.81,0,0.85h-7.34a2.5,2.5,0,0,0,2.59,2.34,2.27,2.27,0,0,0,2.34-1.56Zm-2.59-3.36a2.06,2.06,0,0,0-2.29-2,2.22,2.22,0,0,0-2.29,2h4.59Z"/><path d="M143.36,184.58a1.71,1.71,0,0,0,1.88,1.56,1.14,1.14,0,0,0,1.36-1,1.1,1.1,0,0,0-1.11-1l-1.36-.31c-2-.44-2.88-1.63-2.88-3.07a3.58,3.58,0,0,1,3.84-3.36c2.92,0,3.9,1.86,4,3l-2.32.52a1.56,1.56,0,0,0-1.69-1.38,1.18,1.18,0,0,0-1.31,1,1,1,0,0,0,.94.92l1.46,0.31c2,0.42,3,1.65,3,3.15,0,1.67-1.29,3.38-4,3.38-3.09,0-4.15-2-4.28-3.17Z"/></svg>