<svg id="Layer_1" data-name="Layer 1" xmlns="http://www.w3.org/2000/svg" viewBox="0 0 426.49 358.41"><defs><style>.cls-1{fill:#ececec;}.cls-2{fill:#c3c3c3;}.cls-3{fill:#818181;}.cls-4{fill:#ffdb00;}</style></defs><title>Slide-50-Hammer</title><path class="cls-1" d="M269.45,163.71L21.28,176.14c-10.62.37-19.77-8.79-19.78-19.78l0.37-28.91c-0.37-10.62,8.78-19.77,19.76-19.76l248.55,2.57,11.71-.73h8.78s2.2,0,6.94-.38c16.86,0,17.57-18.3,17.57-18.3-0.35-47.21-34-80.15-34-80.15l8.05-8.79c84.19,49.78,80.17,104.34,80.16,122.63,0,16.83,0,34.4,0,38.8,0,9.51-18.3,18.3-19,32.95A22.93,22.93,0,0,0,356.57,212c6.94,0.36,11.71,7.31,11.33,13.53L367.54,234c0,8.06-6.21,14.28-14.64,14.64L313,249c-8,0-14.28-6.23-14.64-14.64l0.37-9.15c-0.37-6.23,3.67-13.18,8.05-13.92,5.49,1.1,11-6.59,10.61-18.68,0.38-17.93-10.61-29.65-19.76-29.27-3.29-.36-15.37,0-15.37,0Z"/><path d="M313,250.49c-8.82,0-15.75-6.91-16.14-16.07v-0.12l0.37-9.07c-0.38-7.06,4.13-14.54,9.31-15.41l0.27,0,0.27,0.05a4.63,4.63,0,0,0,3.86-1.21c2.56-2.17,5.21-7.49,5-16,0.2-9.46-2.83-17.92-8.31-23.29-3.07-3-6.67-4.67-9.89-4.53h-0.22c-3.15-.34-15,0-15.17,0l-12.79.38L21.35,177.64a20.11,20.11,0,0,1-14.74-5.8A21.65,21.65,0,0,1,0,156.37l0.37-28.93a20,20,0,0,1,5.8-14.64,21.62,21.62,0,0,1,15.45-6.6h0l248.51,2.57L281.8,108h8.88s2.22,0,6.82-.37h0.14c15.22,0,16-16.17,16-16.86-0.35-46-33.25-78.69-33.58-79l-1-1L288.93,0l1,0.62c81.54,48.21,81.08,101.49,80.91,121.55,0,0.85,0,1.64,0,2.37v22.55c0,7.77,0,13.9,0,16.25,0,4.89-4,9.36-8.32,14.1-4.84,5.36-10.33,11.44-10.7,18.92a21.36,21.36,0,0,0,5.41,14.22,12.92,12.92,0,0,1,8.31,4.38,15.06,15.06,0,0,1,3.83,10.69l-0.36,8.4c0,8.75-6.9,15.69-16.07,16.07l-40,.36h0Zm-13.14-16.14c0.36,7.62,5.87,13.14,13.13,13.14h0l39.9-.36C360.5,246.81,366,241.28,366,234l0.36-8.5a12,12,0,0,0-3.08-8.54,9.88,9.88,0,0,0-6.83-3.43l-0.58,0-0.41-.41a24.38,24.38,0,0,1-6.66-16.81c0.42-8.62,6.29-15.12,11.47-20.85,4-4.49,7.55-8.36,7.55-12.09,0-2.35,0-8.48,0-16.25V124.54c0-.74,0-1.54,0-2.4,0.17-19.5.6-71.15-78.4-118.32l-6.28,6.85c5.66,6,33.15,37.53,33.47,80.16-0.26,6.89-4.58,19.79-19,19.81-4.72.38-6.93,0.38-7,.38H281.9l-11.68.73h-0.05L21.61,109.2h0a18.6,18.6,0,0,0-13.28,5.69,17.1,17.1,0,0,0-5,12.52L3,156.38a18.62,18.62,0,0,0,5.7,13.29,17.11,17.11,0,0,0,12.53,5l248.19-12.43,12.8-.38c0.49,0,12-.35,15.47,0,4.08-.12,8.32,1.78,12,5.39,6.07,5.95,9.43,15.21,9.21,25.42,0.25,8-2,14.87-6,18.26a7.5,7.5,0,0,1-6.07,1.92c-3.24.78-6.91,6.57-6.58,12.3v0.08Z"/><rect class="cls-2" x="306.3" y="264.64" width="54.67" height="12.68" rx="6.34" ry="6.34"/><path d="M354.63,278.82h-42a7.84,7.84,0,0,1,0-15.68h42A7.84,7.84,0,0,1,354.63,278.82Zm-42-12.68a4.84,4.84,0,0,0,0,9.68h42a4.84,4.84,0,0,0,0-9.68h-42Z"/><rect class="cls-3" x="328.23" y="277.32" width="10.8" height="79.59"/><path d="M340.53,358.41h-13.8V275.82h13.8v82.59Zm-10.8-3h7.8V278.82h-7.8v76.59Z"/><path d="M377.63,358.41H291a1.5,1.5,0,0,1,0-3h86.67A1.5,1.5,0,0,1,377.63,358.41Z"/><path class="cls-4" d="M297.63,163.34c-3.29-.36-15.37,0-15.37,0l-12.8.38L21.28,176.14c-10.62.37-19.77-8.79-19.78-19.78l0.37-28.91c-0.37-10.62,8.78-19.77,19.76-19.76l248.55,2.57,11.71-.73h8.78s2.2,0,6.94-.38v54.18Z"/><path d="M20.67,177.65a20.14,20.14,0,0,1-14.05-5.82A21.65,21.65,0,0,1,0,156.37l0.37-28.93a20,20,0,0,1,5.8-14.64,21.62,21.62,0,0,1,15.45-6.6h0l248.51,2.57L281.8,108h8.88s2.21,0,6.82-.37l1.62-.13V165l-1.66-.18c-3.15-.34-15,0-15.17,0l-12.8.38L21.35,177.64H20.67Zm0.94-68.45a18.59,18.59,0,0,0-13.28,5.69,17.1,17.1,0,0,0-5,12.52L3,156.38a18.62,18.62,0,0,0,5.7,13.29,17.11,17.11,0,0,0,12.53,5l248.15-12.43,12.83-.38c0.43,0,9.4-.28,13.92-0.1v-51c-3.64.26-5.36,0.26-5.45,0.26H281.9l-11.68.73h-0.05L21.61,109.2h0Z"/><rect x="45.65" y="118.55" width="22" height="3"/><rect x="66.99" y="133.22" width="22" height="3"/><rect x="88.32" y="118.55" width="52" height="3"/><path d="M262,272.39H242a1.5,1.5,0,0,1,0-3h20A1.5,1.5,0,1,1,262,272.39Z"/><path d="M264.13,250.15a1.49,1.49,0,0,1-.75-0.2l-16.46-9.5a1.5,1.5,0,0,1,1.5-2.6l16.46,9.5A1.5,1.5,0,0,1,264.13,250.15Z"/><path d="M247.67,300.69a1.5,1.5,0,0,1-.75-2.8l16.46-9.5a1.5,1.5,0,0,1,1.5,2.6l-16.46,9.5A1.49,1.49,0,0,1,247.67,300.69Z"/><path d="M425,273.39H405a1.5,1.5,0,0,1,0-3h20A1.5,1.5,0,1,1,425,273.39Z"/><path d="M419.62,300.69a1.49,1.49,0,0,1-.75-0.2L402.42,291a1.5,1.5,0,0,1,1.5-2.6l16.46,9.5A1.5,1.5,0,0,1,419.62,300.69Z"/><path d="M403.17,250.15a1.5,1.5,0,0,1-.75-2.8l16.46-9.5a1.5,1.5,0,0,1,1.5,2.6l-16.46,9.5A1.49,1.49,0,0,1,403.17,250.15Z"/><path d="M355.65,159.89a1.5,1.5,0,0,1-1.5-1.5v-48a1.5,1.5,0,1,1,3,0v48A1.5,1.5,0,0,1,355.65,159.89Z"/></svg>