<svg id="Layer_1" data-name="Layer 1" xmlns="http://www.w3.org/2000/svg" viewBox="0 0 923 420"><defs><style>.cls-1{fill:#ececec;}.cls-2{fill:#231f20;}.cls-3{fill:#1ecac7;}</style></defs><title>Slide-30-Comparison-Equality</title><rect class="cls-1" x="1.5" y="1.5" width="920" height="87.52"/><path class="cls-2" d="M921.5,90.52H1.5A1.5,1.5,0,0,1,0,89V1.5A1.5,1.5,0,0,1,1.5,0h920A1.5,1.5,0,0,1,923,1.5V89A1.5,1.5,0,0,1,921.5,90.52ZM3,87.52H920V3H3V87.52Z"/><path d="M144.45,46.43a13.6,13.6,0,0,1,13.72-14.06c7.45,0,11.28,4.56,12.35,8.93l-4.94,1.56c-0.65-2.58-2.74-5.43-7.41-5.43-4,0-8.28,2.89-8.28,9,0,5.74,4,8.89,8.36,8.89a7.48,7.48,0,0,0,7.56-5.51l4.9,1.48c-1,4.14-4.9,9.16-12.46,9.16S144.45,55,144.45,46.43Z"/><path d="M192.25,50.53a9.8,9.8,0,1,1-19.6,0A9.8,9.8,0,1,1,192.25,50.53Zm-5.05,0c0-3.53-2.28-5.32-4.75-5.32s-4.75,1.79-4.75,5.32,2.28,5.32,4.75,5.32S187.19,54.07,187.19,50.53Z"/><path d="M196.24,59.88V41.19h4.83v2.28a6.42,6.42,0,0,1,5.47-2.81,5.78,5.78,0,0,1,5.55,3.12A6.49,6.49,0,0,1,218,40.66c3.46,0,6.76,2.09,6.76,7.1V59.88h-4.9V48.79c0-2-1-3.53-3.31-3.53a3.43,3.43,0,0,0-3.46,3.69V59.88h-5V48.79c0-2-1-3.53-3.31-3.53a3.42,3.42,0,0,0-3.5,3.69V59.88h-5.05Z"/><path d="M229.91,67.1V41.19h4.9v2.28c0.84-1.44,2.93-2.7,5.74-2.7,5.47,0,8.63,4.18,8.63,9.73s-3.53,9.84-8.81,9.84a6.57,6.57,0,0,1-5.4-2.28v9h-5.05Zm9.65-21.81c-2.58,0-4.67,1.94-4.67,5.24s2.09,5.28,4.67,5.28,4.64-1.94,4.64-5.28S242.14,45.29,239.56,45.29Z"/><path d="M257.61,49.13l4.6-.68a1.33,1.33,0,0,0,1.41-1.33c0-1.33-1-2.43-3.15-2.43a3.32,3.32,0,0,0-3.57,3l-4.48-.95c0.3-2.93,3-6.16,8-6.16,5.93,0,8.13,3.34,8.13,7.1v9.19a20.89,20.89,0,0,0,.23,3h-4.64a12.68,12.68,0,0,1-.19-2.24,6.25,6.25,0,0,1-5.51,2.77c-4,0-6.42-2.7-6.42-5.62C252,51.45,254.49,49.58,257.61,49.13Zm6,3.19V51.48l-4.22.65a2.36,2.36,0,0,0-2.32,2.36,2.19,2.19,0,0,0,2.43,2.17C261.64,56.65,263.61,55.63,263.61,52.32Z"/><path d="M285,46.2a7.59,7.59,0,0,0-1.52-.15c-2.58,0-4.83,1.25-4.83,5.28v8.55h-5.05V41.19h4.9V44c1.14-2.47,3.72-2.93,5.32-2.93a11.48,11.48,0,0,1,1.18.08V46.2Z"/><path d="M291.12,31.92A3.12,3.12,0,1,1,288,35.07,3.11,3.11,0,0,1,291.12,31.92Zm-2.51,28V41.19h5.05V59.88h-5.05Z"/><path d="M301.8,53.73a3.11,3.11,0,0,0,3.42,2.85c1.67,0,2.47-.87,2.47-1.86,0-.84-0.57-1.52-2-1.82l-2.47-.57c-3.61-.8-5.24-3-5.24-5.58,0-3.34,3-6.12,7-6.12,5.32,0,7.1,3.38,7.33,5.4l-4.22,1A2.85,2.85,0,0,0,305,44.46a2.15,2.15,0,0,0-2.39,1.86A1.77,1.77,0,0,0,304.31,48L307,48.56c3.69,0.76,5.55,3,5.55,5.74,0,3-2.36,6.15-7.26,6.15-5.62,0-7.56-3.65-7.79-5.77Z"/><path d="M334.71,50.53a9.8,9.8,0,1,1-19.6,0A9.8,9.8,0,1,1,334.71,50.53Zm-5.05,0c0-3.53-2.28-5.32-4.75-5.32s-4.75,1.79-4.75,5.32,2.28,5.32,4.75,5.32S329.65,54.07,329.65,50.53Z"/><path d="M343.75,59.88H338.7V41.19h4.9v2.32a6.21,6.21,0,0,1,5.4-2.81c4.64,0,6.76,3.31,6.76,7.41V59.88h-5.05V49c0-2.09-1-3.72-3.46-3.72-2.2,0-3.5,1.71-3.5,3.88V59.88Z"/><path d="M374.72,49.13l4.6-.68a1.33,1.33,0,0,0,1.41-1.33c0-1.33-1-2.43-3.15-2.43a3.32,3.32,0,0,0-3.57,3l-4.48-.95c0.3-2.93,3-6.16,8-6.16,5.93,0,8.13,3.34,8.13,7.1v9.19a20.89,20.89,0,0,0,.23,3h-4.64a12.68,12.68,0,0,1-.19-2.24,6.25,6.25,0,0,1-5.51,2.77c-4,0-6.42-2.7-6.42-5.62C369.14,51.45,371.61,49.58,374.72,49.13Zm6,3.19V51.48l-4.22.65a2.36,2.36,0,0,0-2.32,2.36,2.19,2.19,0,0,0,2.43,2.17C378.75,56.65,380.73,55.63,380.73,52.32Z"/><path d="M395.81,59.88h-5.05V41.19h4.9v2.32a6.21,6.21,0,0,1,5.4-2.81c4.64,0,6.76,3.31,6.76,7.41V59.88h-5.05V49c0-2.09-1-3.72-3.46-3.72-2.2,0-3.5,1.71-3.5,3.88V59.88Z"/><path d="M430.77,56.5c0,1.25.08,2.62,0.15,3.38H426.1a13,13,0,0,1-.19-2.17,5.86,5.86,0,0,1-5.24,2.62c-5.32,0-9.12-4.18-9.12-9.84,0-5.47,3.69-9.76,9-9.76,3.23,0,4.75,1.33,5.28,2.32V32.37h5V56.5Zm-9.5-.68c2.58,0,4.6-2,4.6-5.36s-2-5.21-4.6-5.21-4.64,1.9-4.64,5.24S418.61,55.82,421.27,55.82Z"/><path d="M446,59.88V32.94h16.87v4.94H451.25V44h10.53v4.67H451.25v6.23h11.63v4.94H446Z"/><path d="M480.25,67.1V58c-0.87,1.41-2.74,2.32-5.21,2.32-5.32,0-9.12-4.22-9.12-9.84,0-5.47,3.53-9.76,9-9.76,3.27,0,4.94,1.56,5.47,2.62V41.19h4.83V67.1h-4.94Zm-4.6-11.28c2.58,0,4.63-2,4.63-5.32s-2.05-5.24-4.63-5.24S471,47.15,471,50.5,473.06,55.82,475.65,55.82Z"/><path d="M502.51,57.87a5.91,5.91,0,0,1-5.17,2.51c-4.52,0-7.1-3.31-7.1-7.37V41.19h5.05V52c0,2.09,1.06,3.76,3.42,3.76a3.37,3.37,0,0,0,3.53-3.69V41.19h5.05V56.5a30.73,30.73,0,0,0,.19,3.38h-4.83A12.79,12.79,0,0,1,502.51,57.87Z"/><path d="M517.14,49.13l4.6-.68a1.33,1.33,0,0,0,1.41-1.33c0-1.33-1-2.43-3.15-2.43a3.32,3.32,0,0,0-3.57,3l-4.48-.95c0.3-2.93,3-6.16,8-6.16,5.93,0,8.13,3.34,8.13,7.1v9.19a20.88,20.88,0,0,0,.23,3h-4.64a12.73,12.73,0,0,1-.19-2.24A6.25,6.25,0,0,1,518,60.41c-4,0-6.42-2.7-6.42-5.62C511.56,51.45,514,49.58,517.14,49.13Zm6,3.19V51.48l-4.22.65a2.36,2.36,0,0,0-2.32,2.36A2.19,2.19,0,0,0,519,56.65C521.17,56.65,523.15,55.63,523.15,52.32Z"/><path d="M533.18,59.88V32.37h5.05V59.88h-5.05Z"/><path d="M546.14,31.92A3.12,3.12,0,1,1,543,35.07,3.11,3.11,0,0,1,546.14,31.92Zm-2.51,28V41.19h5.05V59.88h-5.05Z"/><path d="M560.31,41.19h3.76v4.48h-3.76V53.5c0,1.63.76,2.17,2.2,2.17a7.36,7.36,0,0,0,1.56-.15v4.18a7.5,7.5,0,0,1-2.85.46c-3.65,0-5.93-2.17-5.93-5.78v-8.7h-3.38V41.19h0.95a2.69,2.69,0,0,0,2.89-3V35.6h4.56v5.58Z"/><path d="M569.89,67.25l4.41-9.73-7.94-16.34H572l5,10.94,4.6-10.94H587L575.24,67.25h-5.36Z"/><path d="M612.07,32.37a13.58,13.58,0,0,1,13.87,14.06,13.85,13.85,0,1,1-27.7,0A13.58,13.58,0,0,1,612.07,32.37Zm0,23c4.18,0,8.43-2.89,8.43-9s-4.25-9-8.43-9-8.4,2.89-8.4,9S607.92,55.36,612.07,55.36Z"/><path d="M630.12,67.1V41.19H635v2.28c0.84-1.44,2.93-2.7,5.74-2.7,5.47,0,8.63,4.18,8.63,9.73s-3.53,9.84-8.81,9.84a6.57,6.57,0,0,1-5.4-2.28v9h-5.05Zm9.65-21.81c-2.58,0-4.67,1.94-4.67,5.24s2.09,5.28,4.67,5.28,4.63-1.94,4.63-5.28S642.35,45.29,639.77,45.29Z"/><path d="M670.13,54.52c-1,3.23-3.91,5.93-8.51,5.93-5.13,0-9.65-3.69-9.65-10,0-6,4.41-9.84,9.19-9.84,5.78,0,9.23,3.69,9.23,9.69,0,0.72-.08,1.48-0.08,1.56H656.95a4.55,4.55,0,0,0,4.71,4.26,4.13,4.13,0,0,0,4.25-2.85Zm-4.71-6.12c-0.08-1.86-1.29-3.69-4.18-3.69a4,4,0,0,0-4.18,3.69h8.36Z"/><path d="M685.79,46.2a7.58,7.58,0,0,0-1.52-.15c-2.58,0-4.83,1.25-4.83,5.28v8.55h-5.05V41.19h4.9V44C680.43,41.49,683,41,684.61,41a11.48,11.48,0,0,1,1.18.08V46.2Z"/><path d="M693.92,49.13l4.6-.68a1.33,1.33,0,0,0,1.41-1.33c0-1.33-1-2.43-3.15-2.43a3.32,3.32,0,0,0-3.57,3l-4.48-.95c0.3-2.93,3-6.16,8-6.16,5.93,0,8.13,3.34,8.13,7.1v9.19a20.88,20.88,0,0,0,.23,3h-4.64a12.73,12.73,0,0,1-.19-2.24,6.25,6.25,0,0,1-5.51,2.77c-4,0-6.42-2.7-6.42-5.62C688.33,51.45,690.8,49.58,693.92,49.13Zm6,3.19V51.48l-4.22.65a2.36,2.36,0,0,0-2.32,2.36,2.19,2.19,0,0,0,2.43,2.17C697.94,56.65,699.92,55.63,699.92,52.32Z"/><path d="M716.07,41.19h3.76v4.48h-3.76V53.5c0,1.63.76,2.17,2.2,2.17a7.36,7.36,0,0,0,1.56-.15v4.18a7.5,7.5,0,0,1-2.85.46c-3.65,0-5.93-2.17-5.93-5.78v-8.7h-3.38V41.19h0.95a2.69,2.69,0,0,0,2.89-3V35.6h4.56v5.58Z"/><path d="M742.14,50.53a9.8,9.8,0,1,1-19.6,0A9.8,9.8,0,1,1,742.14,50.53Zm-5.05,0c0-3.53-2.28-5.32-4.75-5.32s-4.75,1.79-4.75,5.32,2.28,5.32,4.75,5.32S737.08,54.07,737.08,50.53Z"/><path d="M757.53,46.2a7.58,7.58,0,0,0-1.52-.15c-2.58,0-4.83,1.25-4.83,5.28v8.55h-5.05V41.19H751V44c1.14-2.47,3.72-2.93,5.32-2.93a11.48,11.48,0,0,1,1.18.08V46.2Z"/><path d="M764,53.73a3.11,3.11,0,0,0,3.42,2.85c1.67,0,2.47-.87,2.47-1.86,0-.84-0.57-1.52-2-1.82l-2.47-.57c-3.61-.8-5.24-3-5.24-5.58,0-3.34,3-6.12,7-6.12,5.32,0,7.1,3.38,7.33,5.4l-4.22,1a2.85,2.85,0,0,0-3.08-2.51,2.15,2.15,0,0,0-2.39,1.86A1.77,1.77,0,0,0,766.46,48l2.66,0.57c3.69,0.76,5.55,3,5.55,5.74,0,3-2.36,6.15-7.26,6.15-5.62,0-7.56-3.65-7.79-5.77Z"/><path class="cls-2" d="M921.5,420H1.5A1.5,1.5,0,0,1,0,418.5V89a1.5,1.5,0,0,1,1.5-1.5h920A1.5,1.5,0,0,1,923,89V418.5A1.5,1.5,0,0,1,921.5,420ZM3,417H920V90.52H3V417Z"/><rect class="cls-2" x="3.5" y="170.66" width="916" height="3"/><rect class="cls-2" x="3.5" y="248.16" width="916" height="3"/><rect class="cls-2" x="3.5" y="325.66" width="916" height="3"/><rect class="cls-2" x="458" y="89.02" width="3" height="328.98"/><path d="M596.5,129.41a4.32,4.32,0,0,0-4.5-3.63c-2.4,0-4.11,1.56-4.11,3.54a3.08,3.08,0,0,0,2.73,3.09l3.18,0.69c3.54,0.78,5.52,3,5.52,6,0,3.3-2.82,6.3-7.35,6.3-5.13,0-7.56-3.3-8-6.33l2.82-.9a4.83,4.83,0,0,0,5.1,4.56c2.94,0,4.38-1.53,4.38-3.39,0-1.53-1-2.85-3.18-3.3l-3-.66c-3-.66-5.19-2.64-5.19-5.82,0-3.33,3.09-6.33,7-6.33,4.8,0,6.72,3,7.2,5.28Z"/><path d="M606.55,130.49h3.12V133h-3.12v7.5a1.71,1.71,0,0,0,2,2,5.71,5.71,0,0,0,1.11-.12v2.4a6.16,6.16,0,0,1-1.92.27,3.75,3.75,0,0,1-4-4.11V133H601v-2.55h0.78a2,2,0,0,0,2.22-2.22v-2.34h2.58v4.56Z"/><path d="M621.13,133.34a8.79,8.79,0,0,0-1.23-.09c-2.37,0-4,1.26-4,4.44v7.23h-2.82V130.49h2.76V133a4.52,4.52,0,0,1,4.32-2.76,5.32,5.32,0,0,1,.93.09v3Z"/><path d="M625.51,123a2,2,0,1,1-2,2A2,2,0,0,1,625.51,123Zm-1.38,21.93V130.49h2.79v14.43h-2.79Z"/><path d="M633.4,137.69c0,3.3,2.07,5.07,4.41,5.07a3.92,3.92,0,0,0,4-3l2.49,1.08a6.63,6.63,0,0,1-6.51,4.5c-4.2,0-7.29-3.3-7.29-7.68s3.15-7.65,7.26-7.65a6.28,6.28,0,0,1,6.42,4.59l-2.55,1.08a3.78,3.78,0,0,0-3.87-3.06C635.5,132.65,633.4,134.33,633.4,137.69Z"/><path d="M651.4,130.49h3.12V133H651.4v7.5a1.71,1.71,0,0,0,2,2,5.71,5.71,0,0,0,1.11-.12v2.4a6.16,6.16,0,0,1-1.92.27,3.75,3.75,0,0,1-4-4.11V133h-2.76v-2.55h0.78a2,2,0,0,0,2.22-2.22v-2.34h2.58v4.56Z"/><path d="M678.34,140.81a6.54,6.54,0,0,1-6.48,4.56c-3.87,0-7.26-2.82-7.26-7.71,0-4.53,3.27-7.62,6.9-7.62,4.44,0,6.93,3.06,6.93,7.56a6.28,6.28,0,0,1-.06.9H667.51a4.28,4.28,0,0,0,4.35,4.38,3.93,3.93,0,0,0,4-2.91Zm-2.85-4.59a3.64,3.64,0,0,0-4-3.69,3.88,3.88,0,0,0-3.93,3.69h7.89Z"/><path d="M692.17,150.62v-7.74a4.82,4.82,0,0,1-4.5,2.43c-4.14,0-6.84-3.45-6.84-7.65s2.55-7.53,6.78-7.53a4.86,4.86,0,0,1,4.62,2.58v-2.22H695v20.13h-2.79Zm-4.23-7.8c2.55,0,4.26-2.19,4.26-5.16s-1.71-5-4.26-5-4.23,2.07-4.23,5S685.36,142.82,687.94,142.82Z"/><path d="M704.71,145.37c-3.36,0-5.4-2.52-5.4-5.79v-9.09h2.82v8.67c0,2,.9,3.72,3.27,3.72s3.42-1.5,3.42-3.69v-8.7h2.82v11.76a24.11,24.11,0,0,0,.15,2.67h-2.7a12.84,12.84,0,0,1-.12-1.74A4.71,4.71,0,0,1,704.71,145.37Z"/><path d="M719.92,136.67l3.9-.57a1.05,1.05,0,0,0,1.11-1.08c0-1.41-.93-2.58-3.12-2.58a3.06,3.06,0,0,0-3.27,2.91l-2.7-.63c0.3-2.76,2.79-4.68,5.91-4.68,4.32,0,6,2.46,6,5.28v7.23a13.63,13.63,0,0,0,.18,2.37h-2.76A10.49,10.49,0,0,1,725,143a5.26,5.26,0,0,1-4.65,2.4c-2.94,0-4.83-2-4.83-4.32C715.54,138.47,717.43,137,719.92,136.67Zm5,2.07v-0.66l-4.41.66a2.16,2.16,0,0,0-2.1,2.16,2.19,2.19,0,0,0,2.34,2.1C723.07,143,724.93,141.89,724.93,138.74Z"/><path d="M732.13,144.92V123.2H735v21.72h-2.82Z"/><path d="M751,130.49h3.12V133H751v7.5a1.71,1.71,0,0,0,2,2,5.71,5.71,0,0,0,1.11-.12v2.4a6.16,6.16,0,0,1-1.92.27,3.75,3.75,0,0,1-4-4.11V133h-2.76v-2.55h0.78a2,2,0,0,0,2.22-2.22v-2.34H751v4.56Z"/><path d="M771.31,137.69c0,4.41-3.06,7.68-7.38,7.68s-7.38-3.27-7.38-7.68A7.38,7.38,0,1,1,771.31,137.69Zm-2.88,0c0-3.33-2.1-5.13-4.5-5.13s-4.5,1.8-4.5,5.13,2.1,5.16,4.5,5.16S768.43,141,768.43,137.69Z"/><path class="cls-3" d="M491.87,133.75v-4.07H510.3v4.07H491.87Zm0,7.56v-4.1H510.3v4.1H491.87Z"/><path class="cls-3" d="M514.79,133.75v-4.07h18.43v4.07H514.79Zm0,7.56v-4.1h18.43v4.1H514.79Z"/><path class="cls-3" d="M537.7,133.75v-4.07h18.43v4.07H537.7Zm0,7.56v-4.1h18.43v4.1H537.7Z"/><path d="M585.58,218.8V197.53h12.93v2.73h-10v6.54h9.06v2.76h-9.06v6.51h10v2.73H585.58Z"/><path d="M612.25,224.5v-7.74a4.82,4.82,0,0,1-4.5,2.43c-4.14,0-6.84-3.45-6.84-7.65s2.55-7.53,6.78-7.53a4.86,4.86,0,0,1,4.62,2.58v-2.22H615V224.5h-2.79ZM608,216.7c2.55,0,4.26-2.19,4.26-5.16s-1.71-5-4.26-5-4.23,2.07-4.23,5S605.44,216.7,608,216.7Z"/><path d="M624.79,219.25c-3.36,0-5.4-2.52-5.4-5.79v-9.09h2.82V213c0,2,.9,3.72,3.27,3.72s3.42-1.5,3.42-3.69v-8.7h2.82v11.76a24.12,24.12,0,0,0,.15,2.67h-2.7a12.85,12.85,0,0,1-.12-1.74A4.71,4.71,0,0,1,624.79,219.25Z"/><path d="M640,210.55l3.9-.57A1,1,0,0,0,645,208.9c0-1.41-.93-2.58-3.12-2.58a3.06,3.06,0,0,0-3.27,2.91l-2.7-.63c0.3-2.76,2.79-4.68,5.91-4.68,4.32,0,6,2.46,6,5.28v7.23a13.64,13.64,0,0,0,.18,2.37h-2.76a10.5,10.5,0,0,1-.15-2,5.26,5.26,0,0,1-4.65,2.4c-2.94,0-4.83-2-4.83-4.32C635.62,212.35,637.51,210.91,640,210.55Zm5,2.07V212l-4.41.66a2.16,2.16,0,0,0-2.1,2.16,2.19,2.19,0,0,0,2.34,2.1C643.15,216.88,645,215.77,645,212.62Z"/><path d="M652.21,218.8V197.08H655V218.8h-2.82Z"/><path d="M671.11,204.37h3.12v2.55h-3.12v7.5a1.71,1.71,0,0,0,2,2,5.67,5.67,0,0,0,1.11-.12v2.4a6.18,6.18,0,0,1-1.92.27,3.75,3.75,0,0,1-4-4.11v-7.92h-2.76v-2.55h0.78a2,2,0,0,0,2.22-2.22v-2.34h2.58v4.56Z"/><path d="M691.39,211.57c0,4.41-3.06,7.68-7.38,7.68s-7.38-3.27-7.38-7.68A7.38,7.38,0,1,1,691.39,211.57Zm-2.88,0c0-3.33-2.1-5.13-4.5-5.13s-4.5,1.8-4.5,5.13,2.1,5.16,4.5,5.16S688.51,214.93,688.51,211.57Z"/><path class="cls-3" d="M503.33,209.27v-4.07h18.43v4.07H503.33Zm0,7.56v-4.1h18.43v4.1H503.33Z"/><path class="cls-3" d="M526.24,209.27v-4.07h18.43v4.07H526.24Zm0,7.56v-4.1h18.43v4.1H526.24Z"/><path d="M596.5,282.55a4.32,4.32,0,0,0-4.5-3.63c-2.4,0-4.11,1.56-4.11,3.54a3.08,3.08,0,0,0,2.73,3.09l3.18,0.69c3.54,0.78,5.52,3,5.52,6,0,3.3-2.82,6.3-7.35,6.3-5.13,0-7.56-3.3-8-6.33l2.82-.9a4.83,4.83,0,0,0,5.1,4.56c2.94,0,4.38-1.53,4.38-3.39,0-1.53-1-2.85-3.18-3.3l-3-.66c-3-.66-5.19-2.64-5.19-5.82,0-3.33,3.09-6.33,7-6.33,4.8,0,6.72,3,7.2,5.28Z"/><path d="M606.55,283.63h3.12v2.55h-3.12v7.5a1.71,1.71,0,0,0,2,2,5.74,5.74,0,0,0,1.11-.12v2.4a6.14,6.14,0,0,1-1.92.27,3.75,3.75,0,0,1-4-4.11v-7.92H601v-2.55h0.78a2,2,0,0,0,2.22-2.22v-2.34h2.58v4.56Z"/><path d="M621.13,286.48a8.71,8.71,0,0,0-1.23-.09c-2.37,0-4,1.26-4,4.44v7.23h-2.82V283.63h2.76v2.52a4.52,4.52,0,0,1,4.32-2.76,5.28,5.28,0,0,1,.93.09v3Z"/><path d="M625.51,276.13a2,2,0,1,1-2,2A2,2,0,0,1,625.51,276.13Zm-1.38,21.93V283.63h2.79v14.43h-2.79Z"/><path d="M633.4,290.83c0,3.3,2.07,5.07,4.41,5.07a3.92,3.92,0,0,0,4-3l2.49,1.08a6.63,6.63,0,0,1-6.51,4.5c-4.2,0-7.29-3.3-7.29-7.68s3.15-7.65,7.26-7.65a6.28,6.28,0,0,1,6.42,4.59l-2.55,1.08a3.78,3.78,0,0,0-3.87-3.06C635.5,285.79,633.4,287.47,633.4,290.83Z"/><path d="M651.4,283.63h3.12v2.55H651.4v7.5a1.71,1.71,0,0,0,2,2,5.74,5.74,0,0,0,1.11-.12v2.4a6.14,6.14,0,0,1-1.92.27,3.75,3.75,0,0,1-4-4.11v-7.92h-2.76v-2.55h0.78a2,2,0,0,0,2.22-2.22v-2.34h2.58v4.56Z"/><path d="M668.59,298.06h-2.82V283.63h2.76v2.07a4.94,4.94,0,0,1,4.44-2.49c3.45,0,5.16,2.49,5.16,5.7v9.15h-2.82v-8.67c0-2-.84-3.63-3.36-3.63-2.22,0-3.36,1.77-3.36,4v8.34Z"/><path d="M696.19,290.83c0,4.41-3.06,7.68-7.38,7.68s-7.38-3.27-7.38-7.68A7.38,7.38,0,1,1,696.19,290.83Zm-2.88,0c0-3.33-2.1-5.13-4.5-5.13s-4.5,1.8-4.5,5.13,2.1,5.16,4.5,5.16S693.31,294.19,693.31,290.83Z"/><path d="M703.42,283.63h3.12v2.55h-3.12v7.5a1.71,1.71,0,0,0,2,2,5.74,5.74,0,0,0,1.11-.12v2.4a6.14,6.14,0,0,1-1.92.27,3.75,3.75,0,0,1-4-4.11v-7.92h-2.76v-2.55h0.78a2,2,0,0,0,2.22-2.22v-2.34h2.58v4.56Z"/><path d="M730.36,294a6.54,6.54,0,0,1-6.48,4.56c-3.87,0-7.26-2.82-7.26-7.71,0-4.53,3.27-7.62,6.9-7.62,4.44,0,6.93,3.06,6.93,7.56a6.28,6.28,0,0,1-.06.9H719.53a4.28,4.28,0,0,0,4.35,4.38,3.93,3.93,0,0,0,4-2.91Zm-2.85-4.59a3.64,3.64,0,0,0-4-3.69,3.88,3.88,0,0,0-3.93,3.69h7.89Z"/><path d="M744.19,303.76V296a4.82,4.82,0,0,1-4.5,2.43c-4.14,0-6.84-3.45-6.84-7.65s2.55-7.53,6.78-7.53a4.86,4.86,0,0,1,4.62,2.58v-2.22H747v20.13h-2.79ZM740,296c2.55,0,4.26-2.19,4.26-5.16s-1.71-5-4.26-5-4.23,2.07-4.23,5S737.38,296,740,296Z"/><path d="M756.73,298.51c-3.36,0-5.4-2.52-5.4-5.79v-9.09h2.82v8.67c0,2,.9,3.72,3.27,3.72s3.42-1.5,3.42-3.69v-8.7h2.82v11.76a24.1,24.1,0,0,0,.15,2.67h-2.7a12.84,12.84,0,0,1-.12-1.74A4.71,4.71,0,0,1,756.73,298.51Z"/><path d="M771.94,289.81l3.9-.57a1.05,1.05,0,0,0,1.11-1.08c0-1.41-.93-2.58-3.12-2.58a3.06,3.06,0,0,0-3.27,2.91l-2.7-.63c0.3-2.76,2.79-4.68,5.91-4.68,4.32,0,6,2.46,6,5.28v7.23a13.62,13.62,0,0,0,.18,2.37h-2.76a10.48,10.48,0,0,1-.15-1.95,5.26,5.26,0,0,1-4.65,2.4c-2.94,0-4.83-2-4.83-4.32C767.56,291.61,769.45,290.17,771.94,289.81Zm5,2.07v-0.66l-4.41.66a2.16,2.16,0,0,0-2.1,2.16,2.19,2.19,0,0,0,2.34,2.1C775.09,296.14,777,295,777,291.88Z"/><path d="M784.15,298.06V276.34H787v21.72h-2.82Z"/><path d="M803.05,283.63h3.12v2.55h-3.12v7.5a1.71,1.71,0,0,0,2,2,5.74,5.74,0,0,0,1.11-.12v2.4a6.14,6.14,0,0,1-1.92.27,3.75,3.75,0,0,1-4-4.11v-7.92h-2.76v-2.55h0.78a2,2,0,0,0,2.22-2.22v-2.34h2.58v4.56Z"/><path d="M823.33,290.83c0,4.41-3.06,7.68-7.38,7.68s-7.38-3.27-7.38-7.68A7.38,7.38,0,1,1,823.33,290.83Zm-2.88,0c0-3.33-2.1-5.13-4.5-5.13s-4.5,1.8-4.5,5.13,2.1,5.16,4.5,5.16S820.45,294.19,820.45,290.83Z"/><path class="cls-3" d="M502.91,292.65h-3.69L498,273.92h6.12ZM501,295.12a3,3,0,0,1,3,3,3,3,0,0,1-3,3,3,3,0,0,1-3-3A3,3,0,0,1,501,295.12Z"/><path class="cls-3" d="M509.67,287.9v-4.07H528.1v4.07H509.67Zm0,7.56v-4.1H528.1v4.1H509.67Z"/><path class="cls-3" d="M532.59,287.9v-4.07H551v4.07H532.59Zm0,7.56v-4.1H551v4.1H532.59Z"/><path d="M600,382.06l-11.49-17.34v17.34h-2.94V360.79h3.93l10.62,16.32V360.79h2.94v21.27H600Z"/><path d="M621.73,374.83c0,4.41-3.06,7.68-7.38,7.68s-7.38-3.27-7.38-7.68A7.38,7.38,0,1,1,621.73,374.83Zm-2.88,0c0-3.33-2.1-5.13-4.5-5.13s-4.5,1.8-4.5,5.13,2.1,5.16,4.5,5.16S618.85,378.19,618.85,374.83Z"/><path d="M629,367.63h3.12v2.55H629v7.5a1.71,1.71,0,0,0,2,2,5.74,5.74,0,0,0,1.11-.12v2.4a6.14,6.14,0,0,1-1.92.27,3.75,3.75,0,0,1-4-4.11v-7.92h-2.76v-2.55h0.78a2,2,0,0,0,2.22-2.22v-2.34H629v4.56Z"/><path d="M655.9,378a6.54,6.54,0,0,1-6.48,4.56c-3.87,0-7.26-2.82-7.26-7.71,0-4.53,3.27-7.62,6.9-7.62,4.44,0,6.93,3.06,6.93,7.56a6.45,6.45,0,0,1-.06.9H645.07a4.29,4.29,0,0,0,4.35,4.38,3.93,3.93,0,0,0,4-2.91Zm-2.85-4.59a3.64,3.64,0,0,0-4-3.69,3.88,3.88,0,0,0-3.93,3.69h7.89Z"/><path d="M669.73,387.76V380a4.82,4.82,0,0,1-4.5,2.43c-4.14,0-6.84-3.45-6.84-7.65s2.55-7.53,6.78-7.53a4.86,4.86,0,0,1,4.62,2.58v-2.22h2.73v20.13h-2.79ZM665.5,380c2.55,0,4.26-2.19,4.26-5.16s-1.71-5-4.26-5-4.23,2.07-4.23,5S662.92,380,665.5,380Z"/><path d="M682.27,382.51c-3.36,0-5.4-2.52-5.4-5.79v-9.09h2.82v8.67c0,2,.9,3.72,3.27,3.72s3.42-1.5,3.42-3.69v-8.7h2.82v11.76a24.4,24.4,0,0,0,.15,2.67h-2.7a12.86,12.86,0,0,1-.12-1.74A4.71,4.71,0,0,1,682.27,382.51Z"/><path d="M697.48,373.81l3.9-.57a1.05,1.05,0,0,0,1.11-1.08c0-1.41-.93-2.58-3.12-2.58a3.06,3.06,0,0,0-3.27,2.91l-2.7-.63c0.3-2.76,2.79-4.68,5.91-4.68,4.32,0,6,2.46,6,5.28v7.23a13.48,13.48,0,0,0,.18,2.37h-2.76a10.6,10.6,0,0,1-.15-1.95,5.26,5.26,0,0,1-4.65,2.4c-2.94,0-4.83-2-4.83-4.32C693.1,375.61,695,374.17,697.48,373.81Zm5,2.07v-0.66l-4.41.66A2.16,2.16,0,0,0,696,378a2.19,2.19,0,0,0,2.34,2.1C700.63,380.14,702.49,379,702.49,375.88Z"/><path d="M709.69,382.06V360.34h2.82v21.72h-2.82Z"/><path d="M728.59,367.63h3.12v2.55h-3.12v7.5a1.71,1.71,0,0,0,2,2,5.74,5.74,0,0,0,1.11-.12v2.4a6.14,6.14,0,0,1-1.92.27,3.75,3.75,0,0,1-4-4.11v-7.92H723v-2.55h0.78a2,2,0,0,0,2.22-2.22v-2.34h2.58v4.56Z"/><path d="M748.87,374.83c0,4.41-3.06,7.68-7.38,7.68s-7.38-3.27-7.38-7.68A7.38,7.38,0,1,1,748.87,374.83Zm-2.88,0c0-3.33-2.1-5.13-4.5-5.13s-4.5,1.8-4.5,5.13,2.1,5.16,4.5,5.16S746,378.19,746,374.83Z"/><path class="cls-3" d="M514.37,376.65h-3.69l-1.22-18.73h6.12Zm-1.86,2.47a3,3,0,0,1,3,3,3,3,0,0,1-3,3,3,3,0,0,1-3-3A3,3,0,0,1,512.5,379.12Z"/><path class="cls-3" d="M521.13,371.9v-4.07h18.43v4.07H521.13Zm0,7.56v-4.1h18.43v4.1H521.13Z"/><path d="M99.58,144.92V123.65h2.94v18.51h10v2.76h-13Z"/><path d="M128.14,140.81a6.54,6.54,0,0,1-6.48,4.56c-3.87,0-7.26-2.82-7.26-7.71,0-4.53,3.27-7.62,6.9-7.62,4.44,0,6.93,3.06,6.93,7.56a6.37,6.37,0,0,1-.06.9H117.31a4.28,4.28,0,0,0,4.35,4.38,3.93,3.93,0,0,0,4-2.91Zm-2.85-4.59a3.64,3.64,0,0,0-4-3.69,3.88,3.88,0,0,0-3.93,3.69h7.89Z"/><path d="M133,140.27a3.08,3.08,0,0,0,3.36,2.7c1.59,0,2.46-.9,2.46-1.92a2,2,0,0,0-1.86-1.86l-2.46-.54a4.11,4.11,0,0,1-3.6-4c0-2.46,2.31-4.56,5.13-4.56,4,0,5.19,2.58,5.49,3.87l-2.49.93a2.8,2.8,0,0,0-3-2.4,2.18,2.18,0,0,0-2.4,1.92,1.77,1.77,0,0,0,1.65,1.74l2.34,0.51c2.61,0.57,4,2.16,4,4.29s-1.71,4.47-5.28,4.47c-4,0-5.64-2.55-5.88-4.2Z"/><path d="M146.59,140.27A3.08,3.08,0,0,0,150,143c1.59,0,2.46-.9,2.46-1.92a2,2,0,0,0-1.86-1.86l-2.46-.54a4.11,4.11,0,0,1-3.6-4c0-2.46,2.31-4.56,5.13-4.56,4,0,5.19,2.58,5.49,3.87l-2.49.93a2.8,2.8,0,0,0-3-2.4,2.18,2.18,0,0,0-2.4,1.92,1.77,1.77,0,0,0,1.65,1.74l2.34,0.51c2.61,0.57,4,2.16,4,4.29s-1.71,4.47-5.28,4.47c-4,0-5.64-2.55-5.88-4.2Z"/><path d="M170.23,130.49h3.12V133h-3.12v7.5a1.71,1.71,0,0,0,2,2,5.71,5.71,0,0,0,1.11-.12v2.4a6.16,6.16,0,0,1-1.92.27,3.75,3.75,0,0,1-4-4.11V133h-2.76v-2.55h0.78a2,2,0,0,0,2.22-2.22v-2.34h2.58v4.56Z"/><path d="M179.92,144.92H177.1V123.2h2.82v9a5.1,5.1,0,0,1,4.38-2.1c3.45,0,5.16,2.49,5.16,5.7v9.15h-2.82v-8.67c0-2-.84-3.63-3.36-3.63-2.16,0-3.3,1.68-3.36,3.81v8.49Z"/><path d="M197.44,136.67l3.9-.57a1.05,1.05,0,0,0,1.11-1.08c0-1.41-.93-2.58-3.12-2.58a3.06,3.06,0,0,0-3.27,2.91l-2.7-.63c0.3-2.76,2.79-4.68,5.91-4.68,4.32,0,6,2.46,6,5.28v7.23a13.56,13.56,0,0,0,.18,2.37h-2.76a10.55,10.55,0,0,1-.15-1.95,5.26,5.26,0,0,1-4.65,2.4c-2.94,0-4.83-2-4.83-4.32C193.06,138.47,195,137,197.44,136.67Zm5,2.07v-0.66l-4.41.66a2.16,2.16,0,0,0-2.1,2.16,2.19,2.19,0,0,0,2.34,2.1C200.59,143,202.45,141.89,202.45,138.74Z"/><path d="M212.47,144.92h-2.82V130.49h2.76v2.07a4.94,4.94,0,0,1,4.44-2.49c3.45,0,5.16,2.49,5.16,5.7v9.15h-2.82v-8.67c0-2-.84-3.63-3.36-3.63-2.22,0-3.36,1.77-3.36,4v8.34Z"/><path class="cls-3" d="M39.89,133.6l16.34-8.25V130L45,135.46l11.25,5.43v4.75l-16.34-8.21V133.6Z"/><path d="M115.63,222.58l-0.27-3c-0.93,1.68-3.24,3.45-6.81,3.45-5.34,0-10.32-3.9-10.32-11.1s5.28-11.07,10.53-11.07c4.62,0,8.19,2.58,9.42,6.42l-2.67,1.14a6.71,6.71,0,0,0-6.75-4.86c-3.81,0-7.53,2.73-7.53,8.37s3.6,8.43,7.41,8.43c4.74,0,6.45-3.36,6.57-5.55h-7.38v-2.64H118v10.41h-2.37Z"/><path d="M130.24,211a8.72,8.72,0,0,0-1.23-.09c-2.37,0-4,1.26-4,4.44v7.23h-2.82V208.15H125v2.52a4.52,4.52,0,0,1,4.32-2.76,5.28,5.28,0,0,1,.93.09v3Z"/><path d="M145.66,218.47a6.54,6.54,0,0,1-6.48,4.56c-3.87,0-7.26-2.82-7.26-7.71,0-4.53,3.27-7.62,6.9-7.62,4.44,0,6.93,3.06,6.93,7.56a6.36,6.36,0,0,1-.06.9H134.83a4.28,4.28,0,0,0,4.35,4.38,3.93,3.93,0,0,0,4-2.91Zm-2.85-4.59a3.64,3.64,0,0,0-4-3.69,3.88,3.88,0,0,0-3.93,3.69h7.89Z"/><path d="M152.83,214.33l3.9-.57a1.05,1.05,0,0,0,1.11-1.08c0-1.41-.93-2.58-3.12-2.58a3.06,3.06,0,0,0-3.27,2.91l-2.7-.63c0.3-2.76,2.79-4.68,5.91-4.68,4.32,0,6,2.46,6,5.28v7.23a13.55,13.55,0,0,0,.18,2.37h-2.76a10.54,10.54,0,0,1-.15-1.95,5.26,5.26,0,0,1-4.65,2.4c-2.94,0-4.83-2-4.83-4.32C148.45,216.13,150.34,214.69,152.83,214.33Zm5,2.07v-0.66l-4.41.66a2.16,2.16,0,0,0-2.1,2.16,2.19,2.19,0,0,0,2.34,2.1C156,220.66,157.84,219.55,157.84,216.4Z"/><path d="M168.82,208.15h3.12v2.55h-3.12v7.5a1.71,1.71,0,0,0,2,2,5.74,5.74,0,0,0,1.11-.12v2.4a6.14,6.14,0,0,1-1.92.27,3.75,3.75,0,0,1-4-4.11V210.7h-2.76v-2.55H164a2,2,0,0,0,2.22-2.22v-2.34h2.58v4.56Z"/><path d="M188.11,218.47a6.54,6.54,0,0,1-6.48,4.56c-3.87,0-7.26-2.82-7.26-7.71,0-4.53,3.27-7.62,6.9-7.62,4.44,0,6.93,3.06,6.93,7.56a6.36,6.36,0,0,1-.06.9H177.28a4.28,4.28,0,0,0,4.35,4.38,3.93,3.93,0,0,0,4-2.91Zm-2.85-4.59a3.64,3.64,0,0,0-4-3.69,3.88,3.88,0,0,0-3.93,3.69h7.89Z"/><path d="M199.81,211a8.72,8.72,0,0,0-1.23-.09c-2.37,0-4,1.26-4,4.44v7.23H191.8V208.15h2.76v2.52a4.52,4.52,0,0,1,4.32-2.76,5.28,5.28,0,0,1,.93.09v3Z"/><path d="M214.09,208.15h3.12v2.55h-3.12v7.5a1.71,1.71,0,0,0,2,2,5.74,5.74,0,0,0,1.11-.12v2.4a6.14,6.14,0,0,1-1.92.27,3.75,3.75,0,0,1-4-4.11V210.7h-2.76v-2.55h0.78a2,2,0,0,0,2.22-2.22v-2.34h2.58v4.56Z"/><path d="M223.78,222.58H221V200.86h2.82v9a5.1,5.1,0,0,1,4.38-2.1c3.45,0,5.16,2.49,5.16,5.7v9.15H230.5v-8.67c0-2-.84-3.63-3.36-3.63-2.16,0-3.3,1.68-3.36,3.81v8.49Z"/><path d="M241.3,214.33l3.9-.57a1.05,1.05,0,0,0,1.11-1.08c0-1.41-.93-2.58-3.12-2.58a3.06,3.06,0,0,0-3.27,2.91l-2.7-.63c0.3-2.76,2.79-4.68,5.91-4.68,4.32,0,6,2.46,6,5.28v7.23a13.55,13.55,0,0,0,.18,2.37h-2.76a10.54,10.54,0,0,1-.15-1.95,5.26,5.26,0,0,1-4.65,2.4c-2.94,0-4.83-2-4.83-4.32C236.92,216.13,238.81,214.69,241.3,214.33Zm5,2.07v-0.66l-4.41.66a2.16,2.16,0,0,0-2.1,2.16,2.19,2.19,0,0,0,2.34,2.1C244.45,220.66,246.31,219.55,246.31,216.4Z"/><path d="M256.33,222.58h-2.82V208.15h2.76v2.07a4.94,4.94,0,0,1,4.44-2.49c3.45,0,5.16,2.49,5.16,5.7v9.15h-2.82v-8.67c0-2-.84-3.63-3.36-3.63-2.22,0-3.36,1.77-3.36,4v8.34Z"/><path class="cls-3" d="M56.11,212.92l-16.34,8.25v-4.67L51,211.06l-11.25-5.43v-4.75l16.34,8.25v3.8Z"/><path d="M99.58,298.06V276.79h2.94V295.3h10v2.76h-13Z"/><path d="M128.14,294a6.54,6.54,0,0,1-6.48,4.56c-3.87,0-7.26-2.82-7.26-7.71,0-4.53,3.27-7.62,6.9-7.62,4.44,0,6.93,3.06,6.93,7.56a6.36,6.36,0,0,1-.06.9H117.31a4.28,4.28,0,0,0,4.35,4.38,3.93,3.93,0,0,0,4-2.91Zm-2.85-4.59a3.64,3.64,0,0,0-4-3.69,3.88,3.88,0,0,0-3.93,3.69h7.89Z"/><path d="M133,293.41a3.08,3.08,0,0,0,3.36,2.7c1.59,0,2.46-.9,2.46-1.92a2,2,0,0,0-1.86-1.86l-2.46-.54a4.1,4.1,0,0,1-3.6-4c0-2.46,2.31-4.56,5.13-4.56,4,0,5.19,2.58,5.49,3.87l-2.49.93a2.8,2.8,0,0,0-3-2.4,2.18,2.18,0,0,0-2.4,1.92,1.77,1.77,0,0,0,1.65,1.74l2.34,0.51c2.61,0.57,4,2.16,4,4.29s-1.71,4.47-5.28,4.47c-4,0-5.64-2.55-5.88-4.2Z"/><path d="M146.59,293.41a3.08,3.08,0,0,0,3.36,2.7c1.59,0,2.46-.9,2.46-1.92a2,2,0,0,0-1.86-1.86l-2.46-.54a4.1,4.1,0,0,1-3.6-4c0-2.46,2.31-4.56,5.13-4.56,4,0,5.19,2.58,5.49,3.87l-2.49.93a2.8,2.8,0,0,0-3-2.4,2.18,2.18,0,0,0-2.4,1.92,1.77,1.77,0,0,0,1.65,1.74l2.34,0.51c2.61,0.57,4,2.16,4,4.29s-1.71,4.47-5.28,4.47c-4,0-5.64-2.55-5.88-4.2Z"/><path d="M170.23,283.63h3.12v2.55h-3.12v7.5a1.71,1.71,0,0,0,2,2,5.74,5.74,0,0,0,1.11-.12v2.4a6.14,6.14,0,0,1-1.92.27,3.75,3.75,0,0,1-4-4.11v-7.92h-2.76v-2.55h0.78a2,2,0,0,0,2.22-2.22v-2.34h2.58v4.56Z"/><path d="M179.92,298.06H177.1V276.34h2.82v9a5.1,5.1,0,0,1,4.38-2.1c3.45,0,5.16,2.49,5.16,5.7v9.15h-2.82v-8.67c0-2-.84-3.63-3.36-3.63-2.16,0-3.3,1.68-3.36,3.81v8.49Z"/><path d="M197.44,289.81l3.9-.57a1.05,1.05,0,0,0,1.11-1.08c0-1.41-.93-2.58-3.12-2.58a3.06,3.06,0,0,0-3.27,2.91l-2.7-.63c0.3-2.76,2.79-4.68,5.91-4.68,4.32,0,6,2.46,6,5.28v7.23a13.55,13.55,0,0,0,.18,2.37h-2.76a10.54,10.54,0,0,1-.15-1.95,5.26,5.26,0,0,1-4.65,2.4c-2.94,0-4.83-2-4.83-4.32C193.06,291.61,195,290.17,197.44,289.81Zm5,2.07v-0.66l-4.41.66a2.16,2.16,0,0,0-2.1,2.16,2.19,2.19,0,0,0,2.34,2.1C200.59,296.14,202.45,295,202.45,291.88Z"/><path d="M212.47,298.06h-2.82V283.63h2.76v2.07a4.94,4.94,0,0,1,4.44-2.49c3.45,0,5.16,2.49,5.16,5.7v9.15h-2.82v-8.67c0-2-.84-3.63-3.36-3.63-2.22,0-3.36,1.77-3.36,4v8.34Z"/><path d="M247.57,290.83c0,4.41-3.06,7.68-7.38,7.68s-7.38-3.27-7.38-7.68A7.38,7.38,0,1,1,247.57,290.83Zm-2.88,0c0-3.33-2.1-5.13-4.5-5.13s-4.5,1.8-4.5,5.13,2.1,5.16,4.5,5.16S244.69,294.19,244.69,290.83Z"/><path d="M259.18,286.48a8.72,8.72,0,0,0-1.23-.09c-2.37,0-4,1.26-4,4.44v7.23h-2.82V283.63h2.76v2.52a4.52,4.52,0,0,1,4.32-2.76,5.28,5.28,0,0,1,.93.09v3Z"/><path d="M282.25,294a6.54,6.54,0,0,1-6.48,4.56c-3.87,0-7.26-2.82-7.26-7.71,0-4.53,3.27-7.62,6.9-7.62,4.44,0,6.93,3.06,6.93,7.56a6.36,6.36,0,0,1-.06.9H271.42a4.28,4.28,0,0,0,4.35,4.38,3.93,3.93,0,0,0,4-2.91Zm-2.85-4.59a3.64,3.64,0,0,0-4-3.69,3.88,3.88,0,0,0-3.93,3.69h7.89Z"/><path d="M296.08,303.76V296a4.82,4.82,0,0,1-4.5,2.43c-4.14,0-6.84-3.45-6.84-7.65s2.55-7.53,6.78-7.53a4.86,4.86,0,0,1,4.62,2.58v-2.22h2.73v20.13h-2.79Zm-4.23-7.8c2.55,0,4.26-2.19,4.26-5.16s-1.71-5-4.26-5-4.23,2.07-4.23,5S289.27,296,291.85,296Z"/><path d="M308.62,298.51c-3.36,0-5.4-2.52-5.4-5.79v-9.09H306v8.67c0,2,.9,3.72,3.27,3.72s3.42-1.5,3.42-3.69v-8.7h2.82v11.76a24.25,24.25,0,0,0,.15,2.67H313a12.85,12.85,0,0,1-.12-1.74A4.71,4.71,0,0,1,308.62,298.51Z"/><path d="M323.83,289.81l3.9-.57a1.05,1.05,0,0,0,1.11-1.08c0-1.41-.93-2.58-3.12-2.58a3.06,3.06,0,0,0-3.27,2.91l-2.7-.63c0.3-2.76,2.79-4.68,5.91-4.68,4.32,0,6,2.46,6,5.28v7.23a13.55,13.55,0,0,0,.18,2.37h-2.76a10.54,10.54,0,0,1-.15-1.95,5.26,5.26,0,0,1-4.65,2.4c-2.94,0-4.83-2-4.83-4.32C319.45,291.61,321.34,290.17,323.83,289.81Zm5,2.07v-0.66l-4.41.66a2.16,2.16,0,0,0-2.1,2.16,2.19,2.19,0,0,0,2.34,2.1C327,296.14,328.84,295,328.84,291.88Z"/><path d="M336,298.06V276.34h2.82v21.72H336Z"/><path d="M354.94,283.63h3.12v2.55h-3.12v7.5a1.71,1.71,0,0,0,2,2,5.74,5.74,0,0,0,1.11-.12v2.4a6.14,6.14,0,0,1-1.92.27,3.75,3.75,0,0,1-4-4.11v-7.92h-2.76v-2.55h0.78a2,2,0,0,0,2.22-2.22v-2.34h2.58v4.56Z"/><path d="M375.22,290.83c0,4.41-3.06,7.68-7.38,7.68s-7.38-3.27-7.38-7.68A7.38,7.38,0,1,1,375.22,290.83Zm-2.88,0c0-3.33-2.1-5.13-4.5-5.13s-4.5,1.8-4.5,5.13,2.1,5.16,4.5,5.16S372.34,294.19,372.34,290.83Z"/><path class="cls-3" d="M28.43,287.75l16.34-8.25v4.67l-11.25,5.43L44.77,295v4.75l-16.34-8.21v-3.84Z"/><path class="cls-3" d="M48.23,287.9v-4.07H66.65v4.07H48.23Zm0,7.56v-4.1H66.65v4.1H48.23Z"/><path d="M115.63,382.06l-0.27-3c-0.93,1.68-3.24,3.45-6.81,3.45-5.34,0-10.32-3.9-10.32-11.1s5.28-11.07,10.53-11.07c4.62,0,8.19,2.58,9.42,6.42l-2.67,1.14a6.71,6.71,0,0,0-6.75-4.86c-3.81,0-7.53,2.73-7.53,8.37s3.6,8.43,7.41,8.43c4.74,0,6.45-3.36,6.57-5.55h-7.38v-2.64H118v10.41h-2.37Z"/><path d="M130.24,370.48a8.72,8.72,0,0,0-1.23-.09c-2.37,0-4,1.26-4,4.44v7.23h-2.82V367.63H125v2.52a4.52,4.52,0,0,1,4.32-2.76,5.28,5.28,0,0,1,.93.09v3Z"/><path d="M145.66,378a6.54,6.54,0,0,1-6.48,4.56c-3.87,0-7.26-2.82-7.26-7.71,0-4.53,3.27-7.62,6.9-7.62,4.44,0,6.93,3.06,6.93,7.56a6.36,6.36,0,0,1-.06.9H134.83a4.28,4.28,0,0,0,4.35,4.38,3.93,3.93,0,0,0,4-2.91Zm-2.85-4.59a3.64,3.64,0,0,0-4-3.69,3.88,3.88,0,0,0-3.93,3.69h7.89Z"/><path d="M152.83,373.81l3.9-.57a1.05,1.05,0,0,0,1.11-1.08c0-1.41-.93-2.58-3.12-2.58a3.06,3.06,0,0,0-3.27,2.91l-2.7-.63c0.3-2.76,2.79-4.68,5.91-4.68,4.32,0,6,2.46,6,5.28v7.23a13.55,13.55,0,0,0,.18,2.37h-2.76a10.54,10.54,0,0,1-.15-1.95,5.26,5.26,0,0,1-4.65,2.4c-2.94,0-4.83-2-4.83-4.32C148.45,375.61,150.34,374.17,152.83,373.81Zm5,2.07v-0.66l-4.41.66a2.16,2.16,0,0,0-2.1,2.16,2.19,2.19,0,0,0,2.34,2.1C156,380.14,157.84,379,157.84,375.88Z"/><path d="M168.82,367.63h3.12v2.55h-3.12v7.5a1.71,1.71,0,0,0,2,2,5.74,5.74,0,0,0,1.11-.12v2.4a6.14,6.14,0,0,1-1.92.27,3.75,3.75,0,0,1-4-4.11v-7.92h-2.76v-2.55H164a2,2,0,0,0,2.22-2.22v-2.34h2.58v4.56Z"/><path d="M188.11,378a6.54,6.54,0,0,1-6.48,4.56c-3.87,0-7.26-2.82-7.26-7.71,0-4.53,3.27-7.62,6.9-7.62,4.44,0,6.93,3.06,6.93,7.56a6.36,6.36,0,0,1-.06.9H177.28a4.28,4.28,0,0,0,4.35,4.38,3.93,3.93,0,0,0,4-2.91Zm-2.85-4.59a3.64,3.64,0,0,0-4-3.69,3.88,3.88,0,0,0-3.93,3.69h7.89Z"/><path d="M199.81,370.48a8.72,8.72,0,0,0-1.23-.09c-2.37,0-4,1.26-4,4.44v7.23H191.8V367.63h2.76v2.52a4.52,4.52,0,0,1,4.32-2.76,5.28,5.28,0,0,1,.93.09v3Z"/><path d="M214.09,367.63h3.12v2.55h-3.12v7.5a1.71,1.71,0,0,0,2,2,5.74,5.74,0,0,0,1.11-.12v2.4a6.14,6.14,0,0,1-1.92.27,3.75,3.75,0,0,1-4-4.11v-7.92h-2.76v-2.55h0.78a2,2,0,0,0,2.22-2.22v-2.34h2.58v4.56Z"/><path d="M223.78,382.06H221V360.34h2.82v9a5.1,5.1,0,0,1,4.38-2.1c3.45,0,5.16,2.49,5.16,5.7v9.15H230.5v-8.67c0-2-.84-3.63-3.36-3.63-2.16,0-3.3,1.68-3.36,3.81v8.49Z"/><path d="M241.3,373.81l3.9-.57a1.05,1.05,0,0,0,1.11-1.08c0-1.41-.93-2.58-3.12-2.58a3.06,3.06,0,0,0-3.27,2.91l-2.7-.63c0.3-2.76,2.79-4.68,5.91-4.68,4.32,0,6,2.46,6,5.28v7.23a13.55,13.55,0,0,0,.18,2.37h-2.76a10.54,10.54,0,0,1-.15-1.95,5.26,5.26,0,0,1-4.65,2.4c-2.94,0-4.83-2-4.83-4.32C236.92,375.61,238.81,374.17,241.3,373.81Zm5,2.07v-0.66l-4.41.66a2.16,2.16,0,0,0-2.1,2.16,2.19,2.19,0,0,0,2.34,2.1C244.45,380.14,246.31,379,246.31,375.88Z"/><path d="M256.33,382.06h-2.82V367.63h2.76v2.07a4.94,4.94,0,0,1,4.44-2.49c3.45,0,5.16,2.49,5.16,5.7v9.15h-2.82v-8.67c0-2-.84-3.63-3.36-3.63-2.22,0-3.36,1.77-3.36,4v8.34Z"/><path d="M291.43,374.83c0,4.41-3.06,7.68-7.38,7.68s-7.38-3.27-7.38-7.68A7.38,7.38,0,1,1,291.43,374.83Zm-2.88,0c0-3.33-2.1-5.13-4.5-5.13s-4.5,1.8-4.5,5.13,2.1,5.16,4.5,5.16S288.55,378.19,288.55,374.83Z"/><path d="M303,370.48a8.72,8.72,0,0,0-1.23-.09c-2.37,0-4,1.26-4,4.44v7.23H295V367.63h2.76v2.52a4.52,4.52,0,0,1,4.32-2.76,5.28,5.28,0,0,1,.93.09v3Z"/><path d="M326.11,378a6.54,6.54,0,0,1-6.48,4.56c-3.87,0-7.26-2.82-7.26-7.71,0-4.53,3.27-7.62,6.9-7.62,4.44,0,6.93,3.06,6.93,7.56a6.36,6.36,0,0,1-.06.9H315.28a4.28,4.28,0,0,0,4.35,4.38,3.93,3.93,0,0,0,4-2.91Zm-2.85-4.59a3.64,3.64,0,0,0-4-3.69,3.88,3.88,0,0,0-3.93,3.69h7.89Z"/><path d="M339.94,387.76V380a4.82,4.82,0,0,1-4.5,2.43c-4.14,0-6.84-3.45-6.84-7.65s2.55-7.53,6.78-7.53a4.86,4.86,0,0,1,4.62,2.58v-2.22h2.73v20.13h-2.79Zm-4.23-7.8c2.55,0,4.26-2.19,4.26-5.16s-1.71-5-4.26-5-4.23,2.07-4.23,5S333.13,380,335.71,380Z"/><path d="M352.48,382.51c-3.36,0-5.4-2.52-5.4-5.79v-9.09h2.82v8.67c0,2,.9,3.72,3.27,3.72s3.42-1.5,3.42-3.69v-8.7h2.82v11.76a24.25,24.25,0,0,0,.15,2.67h-2.7a12.85,12.85,0,0,1-.12-1.74A4.71,4.71,0,0,1,352.48,382.51Z"/><path d="M367.69,373.81l3.9-.57a1.05,1.05,0,0,0,1.11-1.08c0-1.41-.93-2.58-3.12-2.58a3.06,3.06,0,0,0-3.27,2.91l-2.7-.63c0.3-2.76,2.79-4.68,5.91-4.68,4.32,0,6,2.46,6,5.28v7.23a13.55,13.55,0,0,0,.18,2.37h-2.76a10.54,10.54,0,0,1-.15-1.95,5.26,5.26,0,0,1-4.65,2.4c-2.94,0-4.83-2-4.83-4.32C363.31,375.61,365.2,374.17,367.69,373.81Zm5,2.07v-0.66l-4.41.66a2.16,2.16,0,0,0-2.1,2.16,2.19,2.19,0,0,0,2.34,2.1C370.84,380.14,372.7,379,372.7,375.88Z"/><path d="M379.9,382.06V360.34h2.82v21.72H379.9Z"/><path d="M398.8,367.63h3.12v2.55H398.8v7.5a1.71,1.71,0,0,0,2,2,5.74,5.74,0,0,0,1.11-.12v2.4a6.14,6.14,0,0,1-1.92.27,3.75,3.75,0,0,1-4-4.11v-7.92h-2.76v-2.55H394a2,2,0,0,0,2.22-2.22v-2.34h2.58v4.56Z"/><path d="M419.08,374.83c0,4.41-3.06,7.68-7.38,7.68s-7.38-3.27-7.38-7.68A7.38,7.38,0,1,1,419.08,374.83Zm-2.88,0c0-3.33-2.1-5.13-4.5-5.13s-4.5,1.8-4.5,5.13,2.1,5.16,4.5,5.16S416.2,378.19,416.2,374.83Z"/><path class="cls-3" d="M44.65,375.55l-16.34,8.25v-4.67l11.25-5.43-11.25-5.43V363.5l16.34,8.25v3.8Z"/><path class="cls-3" d="M48.23,371.9v-4.07H66.65v4.07H48.23Zm0,7.56v-4.1H66.65v4.1H48.23Z"/></svg>