<svg xmlns="http://www.w3.org/2000/svg" viewBox="0 0 762.25 490.74"><defs><style>.cls-1{isolation:isolate;}.cls-2{fill:#fff;}.cls-3{fill:#ececec;}.cls-4{fill:#221f1f;}.cls-5{fill:#231f20;}.cls-6{mix-blend-mode:multiply;}.cls-7{fill:#1ecac7;}</style></defs><title>Slide-6-Form-Check</title><g class="cls-1"><g id="Layer_1" data-name="Layer 1"><rect class="cls-2" x="1.5" y="45.91" width="759.25" height="443.32"/><path d="M762.25,490.74H0V44.41H762.25V490.74ZM3,487.74H759.25V47.41H3V487.74Z"/><path class="cls-3" d="M6.11,1.5h750a4.61,4.61,0,0,1,4.61,4.61v39.8a0,0,0,0,1,0,0H1.5a0,0,0,0,1,0,0V6.11A4.61,4.61,0,0,1,6.11,1.5Z"/><path class="cls-4" d="M762.25,47.41H0V6.11A6.12,6.12,0,0,1,6.11,0h750a6.12,6.12,0,0,1,6.11,6.11v41.3ZM3,44.41H759.25V6.11A3.12,3.12,0,0,0,756.14,3H6.11A3.12,3.12,0,0,0,3,6.11v38.3Z"/><circle cx="24.97" cy="23.97" r="5.2"/><circle cx="46.87" cy="23.97" r="5.2"/><circle cx="68.76" cy="23.97" r="5.2"/><path class="cls-5" d="M657.42,266.1H106.87V206.33H657.42V266.1Zm-547.55-3H654.42V209.33H109.87V263.1Z"/><path d="M189.45,159.53v8.79h-4.54V145h8.72c4.61,0,7.67,3.06,7.67,7.27s-3.06,7.27-7.67,7.27h-4.18Zm3.62-3.92c2.27,0,3.65-1.32,3.65-3.32s-1.38-3.36-3.65-3.36h-3.59v6.68h3.59Z"/><path d="M204.29,168.32V144.49h4.38v23.83h-4.38Z"/><path d="M227.86,163.67a7.29,7.29,0,0,1-7.37,5.13c-4.44,0-8.36-3.19-8.36-8.66,0-5.17,3.82-8.52,8-8.52,5,0,8,3.19,8,8.39,0,0.63-.07,1.28-0.07,1.35H216.44a3.94,3.94,0,0,0,4.08,3.69,3.58,3.58,0,0,0,3.69-2.47Zm-4.08-5.3a3.26,3.26,0,0,0-3.62-3.19,3.5,3.5,0,0,0-3.62,3.19h7.24Z"/><path d="M235.4,159l4-.59a1.15,1.15,0,0,0,1.22-1.15c0-1.15-.89-2.11-2.73-2.11a2.87,2.87,0,0,0-3.09,2.63l-3.88-.82c0.26-2.53,2.6-5.33,6.94-5.33,5.13,0,7,2.9,7,6.15v8a18.15,18.15,0,0,0,.2,2.57h-4a11,11,0,0,1-.16-1.94,5.41,5.41,0,0,1-4.77,2.4c-3.46,0-5.56-2.34-5.56-4.87C230.56,161,232.7,159.4,235.4,159Zm5.2,2.76V161l-3.65.56a2,2,0,0,0-2,2,1.9,1.9,0,0,0,2.11,1.88C238.89,165.52,240.6,164.63,240.6,161.77Z"/><path d="M251.66,163a2.69,2.69,0,0,0,3,2.47c1.45,0,2.14-.76,2.14-1.61s-0.49-1.32-1.74-1.58l-2.14-.49c-3.13-.69-4.54-2.57-4.54-4.84,0-2.9,2.57-5.3,6.06-5.3,4.61,0,6.15,2.93,6.35,4.67l-3.65.82a2.47,2.47,0,0,0-2.67-2.17,1.86,1.86,0,0,0-2.07,1.61,1.53,1.53,0,0,0,1.48,1.45l2.3,0.49c3.19,0.66,4.81,2.6,4.81,5,0,2.63-2,5.33-6.29,5.33-4.87,0-6.55-3.16-6.75-5Z"/><path d="M278.91,163.67a7.29,7.29,0,0,1-7.37,5.13c-4.44,0-8.36-3.19-8.36-8.66,0-5.17,3.82-8.52,8-8.52,5,0,8,3.19,8,8.39,0,0.63-.07,1.28-0.07,1.35H267.49a3.94,3.94,0,0,0,4.08,3.69,3.58,3.58,0,0,0,3.69-2.47Zm-4.08-5.3a3.26,3.26,0,0,0-3.62-3.19,3.5,3.5,0,0,0-3.62,3.19h7.24Z"/><path d="M305.24,163.67a7.29,7.29,0,0,1-7.37,5.13c-4.44,0-8.36-3.19-8.36-8.66,0-5.17,3.82-8.52,8-8.52,5,0,8,3.19,8,8.39,0,0.63-.07,1.28-0.07,1.35H293.82a3.94,3.94,0,0,0,4.08,3.69,3.58,3.58,0,0,0,3.69-2.47Zm-4.08-5.3a3.26,3.26,0,0,0-3.62-3.19,3.5,3.5,0,0,0-3.62,3.19h7.24Z"/><path d="M313.31,168.32h-4.38V152.12h4.25v2a5.38,5.38,0,0,1,4.67-2.44c4,0,5.86,2.86,5.86,6.42v10.2h-4.38v-9.45c0-1.81-.89-3.23-3-3.23a3,3,0,0,0-3,3.36v9.31Z"/><path d="M333.55,152.12h3.26V156h-3.26v6.78a1.62,1.62,0,0,0,1.91,1.88,6.34,6.34,0,0,0,1.35-.13v3.62a6.49,6.49,0,0,1-2.47.4c-3.16,0-5.13-1.88-5.13-5V156h-2.93v-3.88h0.82a2.33,2.33,0,0,0,2.5-2.57v-2.27h3.95v4.84Z"/><path d="M354.88,163.67a7.29,7.29,0,0,1-7.37,5.13c-4.44,0-8.36-3.19-8.36-8.66,0-5.17,3.82-8.52,8-8.52,5,0,8,3.19,8,8.39,0,0.63-.07,1.28-0.07,1.35H343.46a3.94,3.94,0,0,0,4.08,3.69,3.58,3.58,0,0,0,3.69-2.47Zm-4.08-5.3a3.26,3.26,0,0,0-3.62-3.19,3.5,3.5,0,0,0-3.62,3.19h7.24Z"/><path d="M368.44,156.47a6.6,6.6,0,0,0-1.32-.13c-2.24,0-4.18,1.09-4.18,4.58v7.41h-4.38V152.12h4.25v2.4a4.82,4.82,0,0,1,4.61-2.53,10,10,0,0,1,1,.07v4.41Z"/><path d="M380.52,174.7l3.82-8.43-6.88-14.15h4.9l4.31,9.48,4-9.48h4.67L385.16,174.7h-4.64Z"/><path d="M413,160.22a8.49,8.49,0,1,1-8.49-8.59A8.31,8.31,0,0,1,413,160.22Zm-4.38,0c0-3.06-2-4.61-4.11-4.61s-4.11,1.55-4.11,4.61,2,4.61,4.11,4.61S408.63,163.28,408.63,160.22Z"/><path d="M426.87,166.57a5.12,5.12,0,0,1-4.48,2.17c-3.92,0-6.16-2.86-6.16-6.39V152.12h4.38v9.35c0,1.81.92,3.26,3,3.26a2.92,2.92,0,0,0,3.06-3.19v-9.41H431v13.26a26.46,26.46,0,0,0,.17,2.93H427A11.15,11.15,0,0,1,426.87,166.57Z"/><path d="M445.56,156.47a6.61,6.61,0,0,0-1.32-.13c-2.24,0-4.18,1.09-4.18,4.58v7.41h-4.38V152.12h4.25v2.4a4.82,4.82,0,0,1,4.61-2.53,10,10,0,0,1,1,.07v4.41Z"/><path d="M456.69,168.32V144.49H461v9.41a5.76,5.76,0,0,1,4.9-2.21c4.74,0,7.47,3.65,7.47,8.46s-3,8.56-7.64,8.56a5.48,5.48,0,0,1-4.8-2.37v2h-4.25Zm8.29-12.7c-2.21,0-4,1.61-4,4.58s1.84,4.61,4,4.61,4-1.65,4-4.61S467.22,155.61,465,155.61Z"/><path d="M479,144.09a2.7,2.7,0,1,1-2.7,2.73A2.7,2.7,0,0,1,479,144.09Zm-2.17,24.22V152.12h4.38v16.19h-4.38Z"/><path d="M495.76,156.47a6.61,6.61,0,0,0-1.32-.13c-2.24,0-4.18,1.09-4.18,4.58v7.41h-4.38V152.12h4.25v2.4a4.82,4.82,0,0,1,4.61-2.53,10,10,0,0,1,1,.07v4.41Z"/><path d="M504.88,152.12h3.26V156h-3.26v6.78a1.62,1.62,0,0,0,1.91,1.88,6.35,6.35,0,0,0,1.35-.13v3.62a6.49,6.49,0,0,1-2.47.4c-3.16,0-5.13-1.88-5.13-5V156H497.6v-3.88h0.82a2.33,2.33,0,0,0,2.5-2.57v-2.27h3.95v4.84Z"/><path d="M515.44,168.32h-4.38V144.49h4.38v9a5.79,5.79,0,0,1,4.38-1.78c4.11,0,6,2.86,6,6.42v10.2h-4.38v-9.45c0-1.81-.89-3.23-3-3.23a3,3,0,0,0-3,3.16v9.51Z"/><path d="M545.73,165.39c0,1.09.07,2.27,0.13,2.93h-4.18a11.24,11.24,0,0,1-.16-1.88,5.08,5.08,0,0,1-4.54,2.27c-4.61,0-7.9-3.62-7.9-8.52,0-4.74,3.19-8.46,7.77-8.46,2.8,0,4.11,1.15,4.58,2v-9.25h4.31v20.9Zm-8.23-.59c2.24,0,4-1.71,4-4.64s-1.74-4.51-4-4.51-4,1.65-4,4.54S535.19,164.79,537.5,164.79Z"/><path d="M554.22,159l4-.59a1.15,1.15,0,0,0,1.22-1.15c0-1.15-.89-2.11-2.73-2.11a2.87,2.87,0,0,0-3.09,2.63l-3.88-.82c0.26-2.53,2.6-5.33,6.94-5.33,5.13,0,7,2.9,7,6.15v8a18.15,18.15,0,0,0,.2,2.57h-4a11,11,0,0,1-.16-1.94,5.41,5.41,0,0,1-4.77,2.4c-3.46,0-5.56-2.34-5.56-4.87C549.38,161,551.52,159.4,554.22,159Zm5.2,2.76V161l-3.65.56a2,2,0,0,0-2,2,1.9,1.9,0,0,0,2.11,1.88C557.71,165.52,559.42,164.63,559.42,161.77Z"/><path d="M568.64,174.7l3.82-8.43-6.88-14.15h4.9l4.31,9.48,4-9.48h4.67L573.28,174.7h-4.64Z"/><rect class="cls-3" x="272.98" y="347.15" width="218.06" height="65.01" rx="10" ry="10"/><path d="M481,413.65H283a11.51,11.51,0,0,1-11.5-11.5v-45a11.51,11.51,0,0,1,11.5-11.5H481a11.51,11.51,0,0,1,11.5,11.5v45A11.51,11.51,0,0,1,481,413.65ZM283,348.65a8.51,8.51,0,0,0-8.5,8.5v45a8.51,8.51,0,0,0,8.5,8.5H481a8.51,8.51,0,0,0,8.5-8.5v-45a8.51,8.51,0,0,0-8.5-8.5H283Z"/><path d="M342.6,374.52a4,4,0,0,0-4.25-3.29c-2.21,0-3.65,1.42-3.65,3,0,1.28.82,2.3,2.53,2.63l3.26,0.63c4.25,0.82,6.52,3.59,6.52,6.88,0,3.59-3,7.21-8.43,7.21-6.19,0-8.92-4-9.28-7.31l4.21-1.12c0.2,2.3,1.81,4.38,5.1,4.38,2.44,0,3.79-1.22,3.79-2.86,0-1.35-1-2.4-2.83-2.76l-3.26-.66c-3.72-.76-6.12-3.16-6.12-6.68,0-4.15,3.72-7.31,8.13-7.31,5.66,0,7.83,3.42,8.36,6.06Z"/><path d="M360.58,389.29a5.12,5.12,0,0,1-4.48,2.17c-3.92,0-6.15-2.86-6.15-6.38V374.85h4.38v9.35c0,1.81.92,3.26,3,3.26a2.92,2.92,0,0,0,3.06-3.19v-9.41h4.38v13.26a26.62,26.62,0,0,0,.16,2.93h-4.18A11.07,11.07,0,0,1,360.58,389.29Z"/><path d="M369.4,391V367.21h4.31v9.41a5.76,5.76,0,0,1,4.9-2.21c4.74,0,7.47,3.65,7.47,8.46s-3,8.56-7.64,8.56a5.48,5.48,0,0,1-4.8-2.37v2H369.4Zm8.29-12.7c-2.21,0-4,1.61-4,4.57s1.84,4.61,4,4.61,4-1.65,4-4.61S379.93,378.33,377.69,378.33Z"/><path d="M389.54,391V374.85h4.18v2a5.56,5.56,0,0,1,4.74-2.44,5,5,0,0,1,4.81,2.7,5.63,5.63,0,0,1,5.13-2.7c3,0,5.86,1.81,5.86,6.16V391H410v-9.61c0-1.75-.86-3.06-2.86-3.06a3,3,0,0,0-3,3.19V391h-4.34v-9.61c0-1.75-.89-3.06-2.86-3.06a3,3,0,0,0-3,3.19V391h-4.38Z"/><path d="M420.88,366.81a2.7,2.7,0,1,1-2.7,2.73A2.7,2.7,0,0,1,420.88,366.81ZM418.71,391V374.85h4.38V391h-4.38Z"/><path d="M433.16,374.85h3.26v3.88h-3.26v6.78a1.62,1.62,0,0,0,1.91,1.88,6.32,6.32,0,0,0,1.35-.13v3.62a6.48,6.48,0,0,1-2.47.4c-3.16,0-5.13-1.88-5.13-5v-7.54h-2.93v-3.88h0.82a2.33,2.33,0,0,0,2.5-2.57V370h3.95v4.84Z"/><path class="cls-5" d="M298.7,249.21V232.85L292,249.21H288.2L281.49,233v16.23h-4.34V225.87h6l7,16.85L297,225.87h6.19v23.34H298.7Z"/><path class="cls-5" d="M312,239.89l4-.59a1.15,1.15,0,0,0,1.22-1.15c0-1.15-.89-2.11-2.73-2.11a2.87,2.87,0,0,0-3.09,2.63l-3.88-.82c0.26-2.53,2.6-5.33,6.94-5.33,5.13,0,7,2.9,7,6.15v8a18.15,18.15,0,0,0,.2,2.57h-4a11,11,0,0,1-.16-1.94,5.41,5.41,0,0,1-4.77,2.4c-3.46,0-5.56-2.34-5.56-4.87C307.13,241.9,309.27,240.29,312,239.89Zm5.2,2.76v-0.72l-3.65.56a2,2,0,0,0-2,2,1.9,1.9,0,0,0,2.11,1.88C315.46,246.41,317.17,245.52,317.17,242.66Z"/><path class="cls-5" d="M335.73,237.36a6.59,6.59,0,0,0-1.32-.13c-2.24,0-4.18,1.09-4.18,4.58v7.41h-4.38V233h4.25v2.4a4.82,4.82,0,0,1,4.61-2.53,10,10,0,0,1,1,.07v4.41Z"/><path class="cls-5" d="M341.82,241.11c0,2.93,1.91,4.58,4.15,4.58a3.71,3.71,0,0,0,3.72-2.73l3.85,1.28A7.52,7.52,0,0,1,346,249.7a8.38,8.38,0,0,1-8.52-8.59,8.29,8.29,0,0,1,8.39-8.59c4.41,0,6.91,2.73,7.6,5.46l-3.92,1.32a3.53,3.53,0,0,0-3.59-2.73C343.7,236.57,341.82,238.18,341.82,241.11Z"/><path class="cls-5" d="M361.14,249.21h-4.38V225.38h4.38v9a5.79,5.79,0,0,1,4.38-1.78c4.11,0,6,2.86,6,6.42v10.2h-4.38v-9.45c0-1.81-.89-3.23-3-3.23a3,3,0,0,0-3,3.16v9.51Z"/><path class="cls-5" d="M386.82,236.57l5.59-4.81h-9.35v-3.92h15.11v3.65l-5.53,4.61a6.36,6.36,0,0,1,6.19,6.52c0,3.69-3,7.08-8.2,7.08-5,0-8-3.23-8.26-6.81l4.38-.86a3.76,3.76,0,0,0,3.88,3.75c2.27,0,3.62-1.45,3.62-3.23,0-2-1.45-3.16-3.49-3.16a5.31,5.31,0,0,0-1.94.33Z"/><path class="cls-5" d="M404.53,243.81c2,0,3.26,1.65,3.26,3.79,0,4.84-3.36,6.88-5.79,7.17v-2.11a4,4,0,0,0,3.13-3.55,1.72,1.72,0,0,1-.86.2,2.63,2.63,0,0,1-2.73-2.73A2.82,2.82,0,0,1,404.53,243.81Z"/><path class="cls-5" d="M424.08,249.21V234.92h-5.13v-3.06c3.13,0,5.3-1.78,5.73-4h3.92v21.36h-4.51Z"/><path class="cls-5" d="M433.92,244.86a8.61,8.61,0,0,0,3.79.92c3.88,0,6.48-2.14,6.78-6.06a5.81,5.81,0,0,1-4.94,2.3,7.05,7.05,0,0,1-7.37-7.17c0-4.38,3.46-7.5,8.2-7.5s8.52,3.29,8.52,10.1c0,7.7-3.85,12.24-11.16,12.24a10.41,10.41,0,0,1-4.94-1.19Zm6.29-13.66a3.51,3.51,0,0,0-3.65,3.52,3.48,3.48,0,0,0,3.65,3.52A3.53,3.53,0,1,0,440.21,231.2Z"/><path class="cls-5" d="M451.37,243.45a5.63,5.63,0,0,1,3.79-5.2,5.18,5.18,0,0,1-3.36-4.77c0-3.59,3.19-6.12,7.64-6.12s7.64,2.53,7.64,6.12a5.18,5.18,0,0,1-3.32,4.77,5.61,5.61,0,0,1,3.75,5.2c0,3.69-3.19,6.25-8.06,6.25S451.37,247.13,451.37,243.45Zm11.68-.46c0-1.55-1.22-3-3.62-3s-3.59,1.48-3.59,3,1.25,3,3.59,3S463.05,244.5,463.05,243Zm-0.46-9.18c0-1.42-1.15-2.7-3.16-2.7a2.83,2.83,0,0,0-3.13,2.7,2.86,2.86,0,0,0,3.13,2.8C461.44,236.57,462.59,235.32,462.59,233.8Z"/><path class="cls-5" d="M485.07,232a9.13,9.13,0,0,0-3.52-.76,6.69,6.69,0,0,0-7.08,6.12,6,6,0,0,1,5.07-2.37c4.38,0,7.37,2.76,7.37,7.17s-3.55,7.51-8.26,7.51-8.66-3.36-8.66-9.81c0-7.67,4.8-12.54,11.85-12.54a9.28,9.28,0,0,1,4.48,1Zm-6.45,13.86a3.58,3.58,0,1,0,0-7.14,3.53,3.53,0,0,0-3.75,3.55A3.61,3.61,0,0,0,478.62,245.88Z"/><g class="cls-6"><polygon class="cls-7" points="516.65 214.49 500.03 230.72 529.94 260.96 584.91 206.15 568.54 189.79 530.18 227.72 516.65 214.49"/></g></g></g></svg>