<svg id="Layer_1" data-name="Layer 1" xmlns="http://www.w3.org/2000/svg" viewBox="0 0 771.52 337.46"><defs><style>.cls-1{fill:#85e8da;}.cls-2{fill:#f6f6f6;}.cls-3{fill:#231f20;}</style></defs><title>Slide-26b-Example</title><rect class="cls-1" x="55.2" y="153.19" width="143.16" height="57.19" rx="1" ry="1" transform="translate(253.55 363.57) rotate(-180)"/><path d="M197.35,211.88H56.2a2.5,2.5,0,0,1-2.5-2.5V154.19a2.5,2.5,0,0,1,2.5-2.5H197.35a2.5,2.5,0,0,1,2.5,2.5v55.19A2.5,2.5,0,0,1,197.35,211.88Zm-140.66-3H196.85V154.69H56.7v54.19Z"/><rect class="cls-2" x="86.39" y="26.06" width="80.78" height="80.78" transform="translate(263.41 23.8) rotate(135)"/><path class="cls-3" d="M126.77,125.69L67.53,66.45,126.77,7.21,186,66.45Zm-55-59.24,55,55,55-55-55-55Z"/><polygon class="cls-3" points="59.07 67.03 11.66 67.03 11.66 0 14.66 0 14.66 64.03 59.07 64.03 59.07 67.03"/><polygon class="cls-3" points="56.88 58.05 69.83 65.53 56.88 73 56.88 58.05"/><rect class="cls-3" x="125.27" y="123.71" width="3" height="17.49"/><polygon class="cls-3" points="119.3 139.01 126.78 151.96 134.25 139.01 119.3 139.01"/><rect class="cls-3" x="125.27" y="210.9" width="3" height="65.53"/><polygon class="cls-3" points="119.3 274.23 126.78 287.19 134.25 274.23 119.3 274.23"/><path d="M94.08,173l-3.65-5.11h3.3c0.35,0.56,1.69,2.48,2,3l2-3h3.15l-3.59,5,3.71,5.24H97.82L95.67,175c-0.38.56-1.75,2.59-2.11,3.15H90.43Z"/><path d="M111.4,170.87V166.8h2.34v4.07h4v2.27h-4v4.09H111.4v-4.09h-3.94v-2.27h3.94Z"/><path d="M120,171V168.8h10.12V171H120Zm0,4.15v-2.25h10.12v2.25H120Z"/><path d="M140.35,178.15v-9.05H137.1v-1.94a3.46,3.46,0,0,0,3.63-2.54h2.48v13.54h-2.86Z"/><path d="M147,166.57a5.12,5.12,0,0,1,4.46-2.27,5.05,5.05,0,0,1,4.44,2.27,10.2,10.2,0,0,1,0,9.64,5.05,5.05,0,0,1-4.44,2.27,5.12,5.12,0,0,1-4.46-2.27A10.36,10.36,0,0,1,147,166.57Zm2.42,8.26a2.26,2.26,0,0,0,2,1.11,2.2,2.2,0,0,0,2-1.11,8.26,8.26,0,0,0,0-6.88,2.2,2.2,0,0,0-2-1.11,2.26,2.26,0,0,0-2,1.11A8.47,8.47,0,0,0,149.41,174.83Z"/><path d="M161.22,167.74a1.87,1.87,0,1,1,0,3.73A1.87,1.87,0,0,1,161.22,167.74Zm0,7.18a2,2,0,0,1,2,2.27,4.07,4.07,0,0,1-3.48,4.34v-1.27a2.42,2.42,0,0,0,1.88-2.15,0.91,0.91,0,0,1-.5.13,1.58,1.58,0,0,1-1.65-1.65A1.69,1.69,0,0,1,161.17,174.91Z"/><path d="M92,203.19l2.42-5.34-4.36-9h3.11l2.73,6,2.52-6h3l-6.45,14.31H92Z"/><path d="M111.69,191.87V187.8H114v4.07h4v2.27h-4v4.09h-2.34v-4.09h-3.94v-2.27h3.94Z"/><path d="M120.24,192V189.8h10.12V192H120.24Zm0,4.15v-2.25h10.12v2.25H120.24Z"/><path d="M140.65,199.15v-9.05h-3.25v-1.94a3.46,3.46,0,0,0,3.63-2.54h2.48v13.54h-2.86Z"/><path d="M147.28,187.57a5.12,5.12,0,0,1,4.46-2.27,5.05,5.05,0,0,1,4.44,2.27,10.2,10.2,0,0,1,0,9.64,5.05,5.05,0,0,1-4.44,2.27,5.12,5.12,0,0,1-4.46-2.27A10.36,10.36,0,0,1,147.28,187.57Zm2.42,8.26a2.26,2.26,0,0,0,2,1.11,2.2,2.2,0,0,0,2-1.11,8.26,8.26,0,0,0,0-6.88,2.2,2.2,0,0,0-2-1.11,2.26,2.26,0,0,0-2,1.11A8.47,8.47,0,0,0,149.7,195.83Z"/><path d="M161.51,188.74a1.87,1.87,0,1,1,0,3.73A1.87,1.87,0,0,1,161.51,188.74Zm0,7.17a2,2,0,0,1,2,2.27,4.07,4.07,0,0,1-3.48,4.34v-1.27a2.42,2.42,0,0,0,1.88-2.15,0.91,0.91,0,0,1-.5.13,1.58,1.58,0,0,1-1.65-1.65A1.69,1.69,0,0,1,161.47,195.91Z"/><path d="M104,64.36l-3.65-5.11h3.3c0.35,0.56,1.69,2.48,2,3l2-3h3.15l-3.59,5L111,69.51h-3.25l-2.15-3.15c-0.38.56-1.75,2.59-2.11,3.15h-3.13Z"/><path d="M126,64.4l-9,4.53V66.36l6.17-3-6.17-3V57.79l9,4.53V64.4Z"/><path d="M135.81,69.51V60.46h-3.25V58.52A3.46,3.46,0,0,0,136.18,56h2.48V69.51h-2.86Z"/><path d="M142.44,57.93a5.12,5.12,0,0,1,4.46-2.27,5.05,5.05,0,0,1,4.44,2.27,8.66,8.66,0,0,1,1.21,4.82,8.66,8.66,0,0,1-1.21,4.82,5.05,5.05,0,0,1-4.44,2.27,5.12,5.12,0,0,1-4.46-2.27,8.63,8.63,0,0,1-1.19-4.82A8.63,8.63,0,0,1,142.44,57.93Zm2.42,8.26a2.26,2.26,0,0,0,2,1.11,2.2,2.2,0,0,0,2-1.11,6.34,6.34,0,0,0,.75-3.44,6.34,6.34,0,0,0-.75-3.44,2.2,2.2,0,0,0-2-1.11,2.26,2.26,0,0,0-2,1.11,6.54,6.54,0,0,0-.73,3.44A6.54,6.54,0,0,0,144.86,66.19Z"/><path d="M195.5,58.05l-6.72-10.49V58.05H185.9V43.27h3.59L195.65,53V43.27h2.88V58.05h-3Z"/><path d="M211.63,52.92a5.38,5.38,0,1,1-5.38-5.44A5.27,5.27,0,0,1,211.63,52.92Zm-2.77,0a2.62,2.62,0,1,0-5.21,0A2.62,2.62,0,1,0,208.85,52.92Z"/><path d="M66.11,119.27h3.38l3.32,5.86,3.32-5.86h3.23l-5.21,8.57v6.22H71.26v-6.22Z"/><path d="M88.18,131.11a4.62,4.62,0,0,1-4.67,3.25,5.45,5.45,0,0,1-.25-10.89c3.17,0,5.07,2,5.07,5.32,0,0.4,0,.81,0,0.85H80.94A2.5,2.5,0,0,0,83.53,132a2.27,2.27,0,0,0,2.34-1.56Zm-2.59-3.36a2.06,2.06,0,0,0-2.29-2,2.22,2.22,0,0,0-2.29,2h4.59Z"/><path d="M92,130.68a1.71,1.71,0,0,0,1.88,1.56,1.14,1.14,0,0,0,1.36-1,1.1,1.1,0,0,0-1.11-1l-1.36-.31c-2-.44-2.88-1.63-2.88-3.07a3.58,3.58,0,0,1,3.84-3.36c2.92,0,3.9,1.86,4,3l-2.32.52a1.56,1.56,0,0,0-1.69-1.38,1.18,1.18,0,0,0-1.31,1,1,1,0,0,0,.94.92l1.46,0.31c2,0.42,3,1.65,3,3.15,0,1.67-1.29,3.38-4,3.38-3.09,0-4.15-2-4.28-3.17Z"/><path d="M258.61,119.27H262l3.32,5.86,3.32-5.86h3.23l-5.21,8.57v6.22h-2.88v-6.22Z"/><path d="M280.68,131.11a4.62,4.62,0,0,1-4.67,3.25,5.45,5.45,0,0,1-.25-10.89c3.17,0,5.07,2,5.07,5.32,0,0.4,0,.81,0,0.85h-7.34A2.5,2.5,0,0,0,276,132a2.27,2.27,0,0,0,2.34-1.56Zm-2.59-3.36a2.06,2.06,0,0,0-2.29-2,2.22,2.22,0,0,0-2.29,2h4.59Z"/><path d="M284.52,130.68a1.71,1.71,0,0,0,1.88,1.56,1.14,1.14,0,0,0,1.36-1,1.1,1.1,0,0,0-1.11-1l-1.36-.31c-2-.44-2.88-1.63-2.88-3.07a3.58,3.58,0,0,1,3.84-3.36c2.92,0,3.9,1.86,4,3L288,127a1.56,1.56,0,0,0-1.69-1.38,1.18,1.18,0,0,0-1.31,1,1,1,0,0,0,.94.92l1.46,0.31c2,0.42,3,1.65,3,3.15,0,1.67-1.29,3.38-4,3.38-3.09,0-4.15-2-4.28-3.17Z"/><path d="M408,58.05l-6.72-10.49V58.05H398.4V43.27H402L408.14,53V43.27H411V58.05h-3Z"/><path d="M424.13,52.92a5.38,5.38,0,1,1-5.38-5.44A5.27,5.27,0,0,1,424.13,52.92Zm-2.77,0a2.62,2.62,0,1,0-5.21,0A2.62,2.62,0,1,0,421.35,52.92Z"/><path d="M630.7,58.05L624,47.56V58.05H621.1V43.27h3.59L630.84,53V43.27h2.88V58.05h-3Z"/><path d="M646.82,52.92a5.38,5.38,0,1,1-5.38-5.44A5.27,5.27,0,0,1,646.82,52.92Zm-2.77,0a2.62,2.62,0,1,0-5.21,0A2.62,2.62,0,1,0,644,52.92Z"/><rect class="cls-3" x="181.32" y="64.03" width="68.07" height="3"/><polygon class="cls-3" points="247.21 73 260.16 65.53 247.21 58.05 247.21 73"/><rect class="cls-1" x="245.2" y="153.19" width="143.16" height="57.19" rx="1" ry="1" transform="translate(633.55 363.57) rotate(-180)"/><path d="M387.35,211.88H246.2a2.5,2.5,0,0,1-2.5-2.5V154.19a2.5,2.5,0,0,1,2.5-2.5H387.35a2.5,2.5,0,0,1,2.5,2.5v55.19A2.5,2.5,0,0,1,387.35,211.88Zm-140.66-3H386.85V154.69H246.7v54.19Z"/><rect class="cls-2" x="276.39" y="26.06" width="80.78" height="80.78" transform="translate(587.76 -110.55) rotate(135)"/><path class="cls-3" d="M316.77,125.69L257.53,66.45,316.77,7.21,376,66.45Zm-55-59.24,55,55,55-55-55-55Z"/><rect class="cls-3" x="315.27" y="123.71" width="3" height="17.49"/><polygon class="cls-3" points="309.3 139.01 316.77 151.96 324.25 139.01 309.3 139.01"/><path d="M451.61,119.27H455l3.32,5.86,3.32-5.86h3.23l-5.21,8.57v6.22h-2.88v-6.22Z"/><path d="M473.68,131.11a4.62,4.62,0,0,1-4.67,3.25,5.45,5.45,0,0,1-.25-10.89c3.17,0,5.07,2,5.07,5.32,0,0.4,0,.81,0,0.85h-7.34A2.5,2.5,0,0,0,469,132a2.27,2.27,0,0,0,2.34-1.56Zm-2.59-3.36a2.06,2.06,0,0,0-2.29-2,2.22,2.22,0,0,0-2.29,2h4.59Z"/><path d="M477.52,130.68a1.71,1.71,0,0,0,1.88,1.56,1.14,1.14,0,0,0,1.36-1,1.1,1.1,0,0,0-1.11-1l-1.36-.31c-2-.44-2.88-1.63-2.88-3.07a3.58,3.58,0,0,1,3.84-3.36c2.92,0,3.9,1.86,4,3L481,127a1.56,1.56,0,0,0-1.69-1.38,1.18,1.18,0,0,0-1.31,1,1,1,0,0,0,.94.92l1.46,0.31c2,0.42,3,1.65,3,3.15,0,1.67-1.29,3.38-4,3.38-3.09,0-4.15-2-4.28-3.17Z"/><rect class="cls-3" x="508.27" y="123.71" width="3" height="17.49"/><polygon class="cls-3" points="502.3 139.01 509.77 151.96 517.25 139.01 502.3 139.01"/><rect class="cls-3" x="315.27" y="210.9" width="3" height="65.53"/><polygon class="cls-3" points="309.3 274.23 316.77 287.19 324.25 274.23 309.3 274.23"/><path d="M289.06,184l-3.65-5.11h3.3c0.35,0.56,1.69,2.48,2,3l2-3h3.15l-3.59,5,3.71,5.24h-3.25L290.64,186c-0.38.56-1.75,2.59-2.11,3.15h-3.13Z"/><path d="M306.37,181.87V177.8h2.34v4.07h4v2.27h-4v4.09h-2.34v-4.09h-3.94v-2.27h3.94Z"/><path d="M314.93,182V179.8H325V182H314.93Zm0,4.15v-2.25H325v2.25H314.93Z"/><path d="M334.73,184.75a2.36,2.36,0,0,0,2.46,2.27,2.25,2.25,0,1,0-.06-4.48,2.76,2.76,0,0,0-2.09.92c-0.27-.1-2.34-0.81-2.63-0.9l1.61-6.95h7.63v2.48H336l-0.67,3a3.72,3.72,0,0,1,2.44-.83,4.27,4.27,0,0,1,4.63,4.53c0,2.52-1.94,4.71-5.19,4.71a4.89,4.89,0,0,1-5.15-4.13Z"/><path d="M346.24,178.74a1.87,1.87,0,1,1,0,3.73A1.87,1.87,0,0,1,346.24,178.74Zm0,7.18a2,2,0,0,1,2,2.27,4.07,4.07,0,0,1-3.48,4.34v-1.27a2.42,2.42,0,0,0,1.88-2.15,0.91,0.91,0,0,1-.5.13,1.58,1.58,0,0,1-1.65-1.65A1.69,1.69,0,0,1,346.2,185.91Z"/><path d="M299,64.36l-3.65-5.11h3.3c0.35,0.56,1.69,2.48,2,3l2-3h3.15l-3.59,5L306,69.51h-3.25l-2.15-3.15c-0.38.56-1.75,2.59-2.11,3.15h-3.13Z"/><path d="M321,64.4l-9,4.53V66.36l6.17-3-6.17-3V57.79l9,4.53V64.4Z"/><path d="M330.18,65.11a2.36,2.36,0,0,0,2.46,2.27,2.25,2.25,0,1,0-.06-4.48,2.77,2.77,0,0,0-2.09.92c-0.27-.1-2.34-0.81-2.63-0.9L329.47,56h7.63v2.48h-5.67l-0.67,3a3.72,3.72,0,0,1,2.44-.83,4.27,4.27,0,0,1,4.63,4.53c0,2.52-1.94,4.71-5.19,4.71a4.89,4.89,0,0,1-5.15-4.13Z"/><polygon class="cls-3" points="699.94 141.19 696.94 141.19 696.94 67.03 566.47 67.03 566.47 64.03 699.94 64.03 699.94 141.19"/><polygon class="cls-3" points="690.96 139.01 698.44 151.96 705.92 139.01 690.96 139.01"/><rect class="cls-1" x="438.2" y="153.19" width="143.16" height="57.19" rx="1" ry="1" transform="translate(1019.55 363.57) rotate(-180)"/><path d="M580.35,211.88H439.2a2.5,2.5,0,0,1-2.5-2.5V154.19a2.5,2.5,0,0,1,2.5-2.5H580.35a2.5,2.5,0,0,1,2.5,2.5v55.19A2.5,2.5,0,0,1,580.35,211.88Zm-140.66-3H579.85V154.69H439.7v54.19Z"/><rect class="cls-2" x="469.39" y="26.06" width="80.78" height="80.78" transform="translate(917.23 -247.03) rotate(135)"/><path class="cls-3" d="M509.77,125.69L450.53,66.45,509.77,7.21,569,66.45Zm-55-59.24,55,55,55-55-55-55Z"/><rect class="cls-3" x="508.27" y="210.9" width="3" height="65.53"/><polygon class="cls-3" points="502.3 274.23 509.77 287.19 517.25 274.23 502.3 274.23"/><polygon class="cls-3" points="8.98 326.7 5.98 326.7 5.98 286.71 696.94 286.71 696.94 210.9 699.94 210.9 699.94 289.71 8.98 289.71 8.98 326.7"/><polygon class="cls-3" points="0 324.51 7.48 337.46 14.96 324.51 0 324.51"/><path d="M482.11,184l-3.65-5.11h3.3c0.35,0.56,1.69,2.48,2,3l2-3H489l-3.59,5,3.71,5.24h-3.25L483.7,186c-0.38.56-1.75,2.59-2.11,3.15h-3.13Z"/><path d="M499.43,181.87V177.8h2.34v4.07h4v2.27h-4v4.09h-2.34v-4.09h-3.94v-2.27h3.94Z"/><path d="M508,182V179.8H518.1V182H508Zm0,4.15v-2.25H518.1v2.25H508Z"/><path d="M527.67,181.14l3.55-3h-5.92v-2.48h9.57v2.31l-3.5,2.92a4,4,0,0,1,3.92,4.13c0,2.34-1.92,4.48-5.19,4.48s-5.07-2-5.24-4.32l2.77-.54a2.38,2.38,0,0,0,2.46,2.38,2.08,2.08,0,0,0,2.29-2,2,2,0,0,0-2.21-2,3.36,3.36,0,0,0-1.23.21Z"/><path d="M539.19,178.74a1.87,1.87,0,1,1,0,3.73A1.87,1.87,0,0,1,539.19,178.74Zm0,7.18a2,2,0,0,1,2,2.27,4.07,4.07,0,0,1-3.48,4.34v-1.27a2.42,2.42,0,0,0,1.88-2.15,0.91,0.91,0,0,1-.5.13,1.58,1.58,0,0,1-1.65-1.65A1.69,1.69,0,0,1,539.15,185.91Z"/><rect class="cls-1" x="626.86" y="153.19" width="143.16" height="57.19" rx="1" ry="1" transform="translate(1396.88 363.57) rotate(-180)"/><path d="M769,211.88H627.86a2.5,2.5,0,0,1-2.5-2.5V154.19a2.5,2.5,0,0,1,2.5-2.5H769a2.5,2.5,0,0,1,2.5,2.5v55.19A2.5,2.5,0,0,1,769,211.88Zm-140.66-3H768.52V154.69H628.36v54.19Z"/><path d="M671.31,184l-3.65-5.11H671c0.35,0.56,1.69,2.48,2,3l2-3h3.15l-3.59,5,3.71,5.24H675L672.9,186c-0.38.56-1.75,2.59-2.11,3.15h-3.13Z"/><path d="M688.63,181.87V177.8H691v4.07h4v2.27h-4v4.09h-2.34v-4.09h-3.94v-2.27h3.94Z"/><path d="M697.18,182V179.8H707.3V182H697.18Zm0,4.15v-2.25H707.3v2.25H697.18Z"/><path d="M717.58,189.15v-9.05h-3.25v-1.94a3.46,3.46,0,0,0,3.63-2.54h2.48v13.54h-2.86Z"/><path d="M725.32,178.74a1.87,1.87,0,1,1,0,3.73A1.87,1.87,0,0,1,725.32,178.74Zm0,7.18a2,2,0,0,1,2,2.27,4.07,4.07,0,0,1-3.48,4.34v-1.27a2.42,2.42,0,0,0,1.88-2.15,0.91,0.91,0,0,1-.5.13,1.58,1.58,0,0,1-1.65-1.65A1.69,1.69,0,0,1,725.28,185.91Z"/><path d="M492.06,64.36l-3.65-5.11h3.3c0.35,0.56,1.69,2.48,2,3l2-3h3.15l-3.59,5,3.71,5.24H495.8l-2.15-3.15c-0.38.56-1.75,2.59-2.11,3.15h-3.13Z"/><path d="M514.05,64.4l-9,4.53V66.36l6.17-3-6.17-3V57.79l9,4.53V64.4Z"/><path d="M523.13,61.5l3.55-3h-5.92V56h9.57v2.31l-3.5,2.92a4,4,0,0,1,3.92,4.13c0,2.34-1.92,4.48-5.19,4.48s-5.07-2-5.24-4.32l2.77-.54a2.38,2.38,0,0,0,2.46,2.38,2.08,2.08,0,0,0,2.29-2,2,2,0,0,0-2.21-2,3.36,3.36,0,0,0-1.23.21Z"/><rect class="cls-3" x="373.94" y="64.03" width="67.07" height="3"/><polygon class="cls-3" points="438.82 73 451.78 65.53 438.82 58.05 438.82 73"/></svg>