<svg id="Layer_1" data-name="Layer 1" xmlns="http://www.w3.org/2000/svg" viewBox="0 0 541.86 404.44"><defs><style>.cls-1{fill:#383838;}.cls-2{fill:#000111;}.cls-3{fill:#313131;}.cls-4{fill:#4e4e4e;}.cls-5{fill:#fff;}.cls-6{fill:#818181;}.cls-7{fill:#358df2;}.cls-8{fill:#f2f2f2;}.cls-9{fill:#ff7f11;}.cls-10{fill:#38c8c5;}.cls-11{fill:#e51b24;}</style></defs><title>Slide-18-Code-Almost-Done</title><rect class="cls-1" width="541.86" height="393.66"/><rect class="cls-2" y="214.34" width="541.86" height="190.1"/><rect class="cls-3" width="53.84" height="214.34"/><rect class="cls-4" y="214.34" width="541.86" height="69.21"/><rect class="cls-3" width="541.86" height="42.9"/><path class="cls-5" d="M71.42,22.94l1.69-.38v1.15c0,1.62.88,2.34,2.1,2.34s2-.81,2-2.22V15.16h1.69v8.56a3.66,3.66,0,0,1-3.67,3.91,3.58,3.58,0,0,1-3.81-3.89Z"/><path class="cls-5" d="M88.09,18.47a2.48,2.48,0,0,0-2.58-2.08,2.16,2.16,0,0,0-2.36,2,1.77,1.77,0,0,0,1.57,1.77l1.83.4c2,.45,3.17,1.72,3.17,3.43,0,1.9-1.62,3.62-4.22,3.62A4.24,4.24,0,0,1,80.92,24l1.62-.52a2.78,2.78,0,0,0,2.93,2.62c1.69,0,2.52-.88,2.52-1.95a2,2,0,0,0-1.83-1.9l-1.74-.38a3.38,3.38,0,0,1-3-3.34,3.89,3.89,0,0,1,4-3.64,3.85,3.85,0,0,1,4.13,3Z"/><path class="cls-6" d="M37.21,78.76H28.3V77h3.59V63.87L28.5,65.57v-2l3.67-1.89h1.69V77h3.35Z"/><path class="cls-6" d="M36.77,108.29H27.44v-1.43q3.54-4,4.6-5.3a13.48,13.48,0,0,0,1.72-2.82,7.16,7.16,0,0,0,.66-2.94,2.94,2.94,0,0,0-.86-2.23,3.36,3.36,0,0,0-2.41-.82,10,10,0,0,0-3.2.73l-.28-1.69a9.63,9.63,0,0,1,3.8-.77,5.18,5.18,0,0,1,3.66,1.28,4.43,4.43,0,0,1,1.39,3.42,7,7,0,0,1-.71,3A14.49,14.49,0,0,1,34,101.62q-1.12,1.38-4.35,5h7.14Z"/><path class="cls-6" d="M33.42,128.71a4.77,4.77,0,0,1,2.49,1.58,4,4,0,0,1,.94,2.58,4.79,4.79,0,0,1-1.74,3.75A6,6,0,0,1,31,138.14a7.31,7.31,0,0,1-3.62-.89l.38-1.62a7.75,7.75,0,0,0,3.3.78,3.84,3.84,0,0,0,2.63-1A3.12,3.12,0,0,0,34.77,133a2.93,2.93,0,0,0-1.17-2.4,4.82,4.82,0,0,0-3.09-.93H30v-1.62h.14a5.07,5.07,0,0,0,3.05-.87,2.75,2.75,0,0,0,1.2-2.35,2.26,2.26,0,0,0-.87-1.88,3.76,3.76,0,0,0-2.38-.68,7.43,7.43,0,0,0-2.93.71L28,121.29a7.87,7.87,0,0,1,3.29-.75,5.75,5.75,0,0,1,3.74,1.2,4,4,0,0,1-1.58,6.9Z"/><path class="cls-6" d="M37.87,163.43H35.78v3.92h-2v-3.92H26.44v-1.5l6.69-11.54h2.66v11.32h2.09Zm-4.06-1.72v-9.37l-5.38,9.37Z"/><path class="cls-6" d="M30.2,186.76a6.22,6.22,0,0,1,1.6-.22,5,5,0,0,1,3.8,1.47A5.13,5.13,0,0,1,37,191.69a5.29,5.29,0,0,1-1.62,3.91,5.41,5.41,0,0,1-4,1.6,8.34,8.34,0,0,1-3.73-.74l.4-1.67a8.65,8.65,0,0,0,3.38.69,3.31,3.31,0,0,0,2.51-1,3.87,3.87,0,0,0,1-2.79,3.56,3.56,0,0,0-.9-2.61,3.12,3.12,0,0,0-2.32-.91,5.54,5.54,0,0,0-2,.4L28.48,188v-8.1h7.75v1.72h-6Z"/><path class="cls-7" d="M82.18,66.24,77.43,78.76H75.72L71,66.24h2l3.54,10,3.54-10Z"/><path class="cls-7" d="M96.69,78.76H94.83a7.21,7.21,0,0,1-.23-2,5,5,0,0,1-4.35,2.34,3.49,3.49,0,0,1-2.46-1,3.33,3.33,0,0,1-1.06-2.55,3.46,3.46,0,0,1,.37-1.63,3.27,3.27,0,0,1,1.09-1.2A5.88,5.88,0,0,1,90,71.94a13.16,13.16,0,0,1,2.45-.39l2.1-.17v-.6q0-3.22-3-3.22a6.91,6.91,0,0,0-1.8.31,9.26,9.26,0,0,0-1.87.73l-.49-1.35a10.53,10.53,0,0,1,4.76-1.31q4.28,0,4.28,4.53v5.38A12.27,12.27,0,0,0,96.69,78.76ZM94.5,75V72.78Q92,73,91,73.2a3.91,3.91,0,0,0-1.63.74,1.76,1.76,0,0,0-.69,1.47,1.72,1.72,0,0,0,.59,1.36,2.19,2.19,0,0,0,1.5.52,3.8,3.8,0,0,0,2-.59A5.84,5.84,0,0,0,94.5,75Z"/><path class="cls-7" d="M111.34,66.58l-.76,1.8a5.51,5.51,0,0,0-2.14-.54,3.12,3.12,0,0,0-1.62.47,5.2,5.2,0,0,0-1.46,1.36,4.84,4.84,0,0,0-.67,1v8.1h-1.86V66.24h1.86v2.54q1.5-2.84,3.89-2.84A6.31,6.31,0,0,1,111.34,66.58Z"/><path class="cls-8" d="M141,78.76h-1.86a7.21,7.21,0,0,1-.23-2,5,5,0,0,1-4.35,2.34,3.49,3.49,0,0,1-2.46-1A3.33,3.33,0,0,1,131,75.54a3.46,3.46,0,0,1,.37-1.63,3.27,3.27,0,0,1,1.09-1.2,5.88,5.88,0,0,1,1.75-.77,13.16,13.16,0,0,1,2.45-.39l2.1-.17v-.6q0-3.22-3-3.22a6.91,6.91,0,0,0-1.8.31,9.26,9.26,0,0,0-1.87.73l-.49-1.35a10.53,10.53,0,0,1,4.76-1.31q4.28,0,4.28,4.53v5.38A12.27,12.27,0,0,0,141,78.76ZM138.81,75V72.78q-2.54.23-3.48.43a3.91,3.91,0,0,0-1.63.74,1.76,1.76,0,0,0-.69,1.47,1.72,1.72,0,0,0,.59,1.36,2.19,2.19,0,0,0,1.5.52,3.8,3.8,0,0,0,2-.59A5.84,5.84,0,0,0,138.81,75Z"/><path class="cls-8" d="M171,68.45H159.68V66.88H171Zm0,4.82H159.68V71.69H171Z"/><path class="cls-8" d="M194.12,62.32q-1.48.72-1.48,1.69a1.63,1.63,0,0,1,1,.51,1.5,1.5,0,0,1,0,2,1.33,1.33,0,0,1-1,.42,1.5,1.5,0,0,1-1.16-.55,1.93,1.93,0,0,1-.49-1.33q0-2.34,2.61-3.66Zm4.4,0Q197,63,197,64a1.62,1.62,0,0,1,1,.51,1.5,1.5,0,0,1,0,2,1.31,1.31,0,0,1-1,.42,1.52,1.52,0,0,1-1.17-.55,1.91,1.91,0,0,1-.49-1.33q0-2.34,2.62-3.66Z"/><path class="cls-8" d="M216.42,78.76h-2.07l-1.87-5.94h-5.56L205,78.76h-2l5.54-17h2.37Zm-4.51-7.65-2.22-7-2.21,7Z"/><path class="cls-8" d="M228.37,78.76h-5.12V63.43H220V61.81h5.14V77.14h3.24Z"/><path class="cls-8" d="M245,78.76h-1.87V70.54q0-3-1.11-3-.57,0-1.24,1a6.43,6.43,0,0,0-.68,1.14v9h-1.86V70.54q0-3-1.12-3-.55,0-1.23,1a6.46,6.46,0,0,0-.68,1.14v9h-1.87V66.24h1.8v1.89a5.12,5.12,0,0,1,1.26-1.59,2.29,2.29,0,0,1,1.45-.59,1.88,1.88,0,0,1,1.36.59,3.18,3.18,0,0,1,.83,1.59,5.07,5.07,0,0,1,1.26-1.59,2.3,2.3,0,0,1,1.44-.59Q245,65.94,245,70Z"/><path class="cls-8" d="M254,65.94a5.11,5.11,0,0,1,4.11,1.8,7.1,7.1,0,0,1,1.53,4.75,7.18,7.18,0,0,1-1.53,4.78,5.57,5.57,0,0,1-8.23,0,7.2,7.2,0,0,1-1.52-4.79,7.09,7.09,0,0,1,1.53-4.75A5.11,5.11,0,0,1,254,65.94Zm0,11.51A3.09,3.09,0,0,0,256.66,76a6.84,6.84,0,0,0,0-7.05,3.33,3.33,0,0,0-5.41,0,7,7,0,0,0,0,7.09A3.09,3.09,0,0,0,254,77.45Z"/><path class="cls-8" d="M272.28,68a9.52,9.52,0,0,0-3-.52,4.85,4.85,0,0,0-2.42.51,1.53,1.53,0,0,0-.89,1.36,1.28,1.28,0,0,0,.41.94,4,4,0,0,0,1.63.75l1.79.52a7.88,7.88,0,0,1,2,.84A3.32,3.32,0,0,1,273,73.61a3.21,3.21,0,0,1,.39,1.6,3.27,3.27,0,0,1-1.5,2.83,6.57,6.57,0,0,1-3.82,1,9.07,9.07,0,0,1-3.81-.7l.36-1.62a7.79,7.79,0,0,0,3.38.75,4.92,4.92,0,0,0,2.54-.58,1.75,1.75,0,0,0,1-1.54,1.64,1.64,0,0,0-.49-1.16,5.89,5.89,0,0,0-2.29-1.06l-2.14-.67a4.47,4.47,0,0,1-1.27-.66,3,3,0,0,1,.22-5,6.66,6.66,0,0,1,3.76-.95,12.63,12.63,0,0,1,3.36.52Z"/><path class="cls-8" d="M288.48,78.2a8.85,8.85,0,0,1-3.71.87q-3.35,0-3.35-3.54V67.86H279V66.24h2.4V62.81h1.83v3.42h4.25v1.62h-4.25V75a2.77,2.77,0,0,0,.5,1.77,1.66,1.66,0,0,0,1.37.63,7.27,7.27,0,0,0,3-.68Z"/><path class="cls-8" d="M310.73,64.46a1.63,1.63,0,0,1-1-.51,1.5,1.5,0,0,1,0-2,1.33,1.33,0,0,1,1-.42,1.51,1.51,0,0,1,1.16.55,1.93,1.93,0,0,1,.49,1.33q0,2.34-2.61,3.66l-.47-.86Q310.73,65.43,310.73,64.46Zm4.4,0a1.62,1.62,0,0,1-1-.51,1.5,1.5,0,0,1,0-2,1.32,1.32,0,0,1,1-.42,1.52,1.52,0,0,1,1.17.55,1.92,1.92,0,0,1,.49,1.33q0,2.34-2.61,3.66l-.47-.86Q315.13,65.43,315.13,64.46Z"/><path class="cls-9" d="M327.83,79.08a1.61,1.61,0,0,1-1-.52,1.5,1.5,0,0,1,0-2,1.31,1.31,0,0,1,1-.42,1.52,1.52,0,0,1,1.17.55,1.9,1.9,0,0,1,.49,1.32q0,2.35-2.62,3.68l-.46-.87Q327.83,80.06,327.83,79.08Zm0-13a1.42,1.42,0,0,1,1,.41,1.44,1.44,0,0,1,0,2,1.43,1.43,0,0,1-1,.41,1.36,1.36,0,0,1-1-.41,1.47,1.47,0,0,1,0-2A1.36,1.36,0,0,1,327.81,66.06Z"/><path class="cls-7" d="M82.18,95.77l-4.75,12.52H75.72L71,95.77h2l3.54,10,3.54-10Z"/><path class="cls-7" d="M96.69,108.29H94.83a7.21,7.21,0,0,1-.23-2,5,5,0,0,1-4.35,2.34,3.49,3.49,0,0,1-2.46-1,3.33,3.33,0,0,1-1.06-2.55,3.46,3.46,0,0,1,.37-1.63,3.27,3.27,0,0,1,1.09-1.2,5.88,5.88,0,0,1,1.75-.77,13.16,13.16,0,0,1,2.45-.39l2.1-.17v-.6q0-3.22-3-3.22a6.91,6.91,0,0,0-1.8.31,9.26,9.26,0,0,0-1.87.73l-.49-1.35a10.53,10.53,0,0,1,4.76-1.31q4.28,0,4.28,4.53v5.38A12.27,12.27,0,0,0,96.69,108.29Zm-2.19-3.71v-2.27q-2.54.23-3.48.43a3.91,3.91,0,0,0-1.63.74,1.76,1.76,0,0,0-.69,1.47,1.72,1.72,0,0,0,.59,1.36,2.19,2.19,0,0,0,1.5.52,3.8,3.8,0,0,0,2-.59A5.84,5.84,0,0,0,94.5,104.58Z"/><path class="cls-7" d="M111.34,96.11l-.76,1.8a5.51,5.51,0,0,0-2.14-.54,3.12,3.12,0,0,0-1.62.47,5.2,5.2,0,0,0-1.46,1.36,4.84,4.84,0,0,0-.67,1v8.1h-1.86V95.77h1.86v2.54q1.5-2.84,3.89-2.84A6.31,6.31,0,0,1,111.34,96.11Z"/><path class="cls-8" d="M132.91,97.39A4.51,4.51,0,0,1,134.6,96a5,5,0,0,1,2.24-.53,3.92,3.92,0,0,1,3.41,1.75,7.93,7.93,0,0,1,1.22,4.61,8.51,8.51,0,0,1-1.3,4.84,4,4,0,0,1-3.47,1.94,4.31,4.31,0,0,1-2.18-.58,4.43,4.43,0,0,1-1.6-1.54v1.8H131v-17h1.87Zm0,1.86v5.2a5.14,5.14,0,0,0,1.43,1.77,3,3,0,0,0,1.86.71,2.73,2.73,0,0,0,2.41-1.44,6.6,6.6,0,0,0,.9-3.54,6.47,6.47,0,0,0-.85-3.51,2.67,2.67,0,0,0-2.38-1.35A4,4,0,0,0,132.91,99.25Z"/><path class="cls-8" d="M171,98H159.68V96.41H171Zm0,4.82H159.68v-1.57H171Z"/><path class="cls-8" d="M194.12,91.85q-1.48.72-1.48,1.69a1.63,1.63,0,0,1,1,.51,1.5,1.5,0,0,1,0,2,1.33,1.33,0,0,1-1,.42,1.5,1.5,0,0,1-1.16-.55,1.93,1.93,0,0,1-.49-1.33q0-2.34,2.61-3.66Zm4.4,0q-1.47.72-1.47,1.69a1.62,1.62,0,0,1,1,.51,1.5,1.5,0,0,1,0,2,1.31,1.31,0,0,1-1,.42,1.52,1.52,0,0,1-1.17-.55,1.91,1.91,0,0,1-.49-1.33q0-2.34,2.62-3.66Z"/><path class="cls-8" d="M204.8,91.34h3.34a6.78,6.78,0,0,1,5.34,2.27,9.05,9.05,0,0,1,2,6.22,8.91,8.91,0,0,1-2,6.25,6.77,6.77,0,0,1-5.22,2.22H204.8Zm2,15.24h1.39a4.6,4.6,0,0,0,3.82-1.79,9.43,9.43,0,0,0,0-9.92,4.59,4.59,0,0,0-3.81-1.81h-1.39Z"/><path class="cls-8" d="M224.43,95.47a5.11,5.11,0,0,1,4.11,1.8,7.1,7.1,0,0,1,1.53,4.75,7.18,7.18,0,0,1-1.53,4.78,5.57,5.57,0,0,1-8.23,0A7.2,7.2,0,0,1,218.8,102a7.09,7.09,0,0,1,1.53-4.75A5.11,5.11,0,0,1,224.43,95.47Zm0,11.51a3.09,3.09,0,0,0,2.69-1.44,6.84,6.84,0,0,0,0-7.05,3.33,3.33,0,0,0-5.41,0,7,7,0,0,0,0,7.09A3.09,3.09,0,0,0,224.43,107Z"/><path class="cls-8" d="M244.06,108.29h-1.87v-8a4.26,4.26,0,0,0-.53-2.42,1.92,1.92,0,0,0-1.68-.75q-1.72,0-3.69,2.14v9.06h-1.87V95.77h1.87v1.84a5.86,5.86,0,0,1,4.25-2.14q3.52,0,3.52,4.25Z"/><path class="cls-8" d="M259.19,102.09H250.6a5.08,5.08,0,0,0,1.23,3.51,3.89,3.89,0,0,0,3,1.38,11,11,0,0,0,3.52-.61l.32,1.5a9.37,9.37,0,0,1-3.87.74,5.92,5.92,0,0,1-4.49-1.79,6.71,6.71,0,0,1-1.71-4.83,7,7,0,0,1,1.53-4.75,5,5,0,0,1,4-1.77,4.63,4.63,0,0,1,3.62,1.65,6.38,6.38,0,0,1,1.45,4.39Zm-2-1.53a3.53,3.53,0,0,0-.91-2.47,2.72,2.72,0,0,0-2-1,3.26,3.26,0,0,0-2.41,1,3.81,3.81,0,0,0-1.06,2.51Z"/><path class="cls-8" d="M266.43,94a1.63,1.63,0,0,1-1-.51,1.5,1.5,0,0,1,0-2,1.33,1.33,0,0,1,1-.42,1.5,1.5,0,0,1,1.16.55,1.93,1.93,0,0,1,.49,1.33q0,2.34-2.61,3.66l-.47-.86Q266.43,95,266.43,94Zm4.4,0a1.62,1.62,0,0,1-1-.51,1.5,1.5,0,0,1,0-2,1.32,1.32,0,0,1,1-.42,1.52,1.52,0,0,1,1.17.55,1.91,1.91,0,0,1,.49,1.33q0,2.34-2.61,3.66l-.47-.86Q270.83,95,270.83,94Z"/><path class="cls-9" d="M283.53,108.61a1.61,1.61,0,0,1-1-.52,1.5,1.5,0,0,1,0-2,1.31,1.31,0,0,1,1-.42,1.52,1.52,0,0,1,1.17.55,1.9,1.9,0,0,1,.49,1.32q0,2.35-2.62,3.68l-.46-.87Q283.53,109.59,283.53,108.61Zm0-13a1.42,1.42,0,0,1,1,.41,1.44,1.44,0,0,1,0,2,1.43,1.43,0,0,1-1,.41,1.36,1.36,0,0,1-1-.41,1.47,1.47,0,0,1,0-2A1.36,1.36,0,0,1,283.5,95.59Z"/><path class="cls-8" d="M81.56,137.4a8.56,8.56,0,0,1-3.59.74,6.3,6.3,0,0,1-4.72-1.8,7.34,7.34,0,0,1,0-9.55,6.25,6.25,0,0,1,4.66-1.8,9.87,9.87,0,0,1,3.59.66L81,127.21a9.54,9.54,0,0,0-3.08-.59A4.2,4.2,0,0,0,74.67,128a5.79,5.79,0,0,0,0,7.13A4.13,4.13,0,0,0,78,136.51a9.53,9.53,0,0,0,3.27-.61Z"/><path class="cls-8" d="M91.52,125a5.11,5.11,0,0,1,4.11,1.8,7.1,7.1,0,0,1,1.53,4.75,7.18,7.18,0,0,1-1.53,4.78,5.57,5.57,0,0,1-8.23,0,7.2,7.2,0,0,1-1.52-4.79,7.09,7.09,0,0,1,1.53-4.75A5.11,5.11,0,0,1,91.52,125Zm0,11.51a3.09,3.09,0,0,0,2.69-1.44,6.84,6.84,0,0,0,0-7.05,3.33,3.33,0,0,0-5.41,0,7,7,0,0,0,0,7.09A3.09,3.09,0,0,0,91.52,136.51Z"/><path class="cls-8" d="M111.15,137.82h-1.87v-8a4.26,4.26,0,0,0-.53-2.42,1.92,1.92,0,0,0-1.68-.75q-1.72,0-3.69,2.14v9.06H101.5V125.3h1.87v1.84a5.86,5.86,0,0,1,4.25-2.14q3.52,0,3.52,4.25Z"/><path class="cls-8" d="M124.6,127.09a9.52,9.52,0,0,0-3-.52,4.85,4.85,0,0,0-2.42.51,1.53,1.53,0,0,0-.89,1.36,1.28,1.28,0,0,0,.41.94,4,4,0,0,0,1.63.75l1.79.52a7.88,7.88,0,0,1,2,.84,3.32,3.32,0,0,1,1.17,1.18,3.21,3.21,0,0,1,.39,1.6,3.27,3.27,0,0,1-1.5,2.83,6.57,6.57,0,0,1-3.82,1,9.07,9.07,0,0,1-3.81-.7l.36-1.62a7.79,7.79,0,0,0,3.38.75,4.92,4.92,0,0,0,2.54-.58,1.75,1.75,0,0,0,1-1.54,1.64,1.64,0,0,0-.49-1.16,5.89,5.89,0,0,0-2.29-1.06l-2.14-.67a4.47,4.47,0,0,1-1.27-.66,3,3,0,0,1,.22-5,6.66,6.66,0,0,1,3.76-.95,12.63,12.63,0,0,1,3.36.52Z"/><path class="cls-8" d="M135.83,125a5.11,5.11,0,0,1,4.11,1.8,7.1,7.1,0,0,1,1.53,4.75,7.18,7.18,0,0,1-1.53,4.78,5.57,5.57,0,0,1-8.23,0,7.2,7.2,0,0,1-1.52-4.79,7.09,7.09,0,0,1,1.53-4.75A5.11,5.11,0,0,1,135.83,125Zm0,11.51a3.09,3.09,0,0,0,2.69-1.44,6.84,6.84,0,0,0,0-7.05,3.33,3.33,0,0,0-5.41,0,7,7,0,0,0,0,7.09A3.09,3.09,0,0,0,135.83,136.51Z"/><path class="cls-8" d="M154.54,137.82h-5.12V122.49h-3.27v-1.62h5.14V136.2h3.24Z"/><path class="cls-8" d="M170.59,131.62H162a5.08,5.08,0,0,0,1.23,3.51,3.89,3.89,0,0,0,3,1.38,11,11,0,0,0,3.52-.61l.32,1.5a9.37,9.37,0,0,1-3.87.74,5.92,5.92,0,0,1-4.49-1.79,6.71,6.71,0,0,1-1.71-4.83,7,7,0,0,1,1.53-4.75,5,5,0,0,1,4-1.77,4.63,4.63,0,0,1,3.62,1.65,6.38,6.38,0,0,1,1.45,4.39Zm-2-1.53a3.53,3.53,0,0,0-.91-2.47,2.72,2.72,0,0,0-2-1,3.26,3.26,0,0,0-2.41,1,3.81,3.81,0,0,0-1.06,2.51Z"/><path class="cls-9" d="M180.06,135.07a1.48,1.48,0,0,1,1.5,1.5,1.56,1.56,0,0,1-.44,1.11,1.41,1.41,0,0,1-1.06.46,1.38,1.38,0,0,1-1-.46,1.57,1.57,0,0,1-.43-1.11,1.46,1.46,0,0,1,.43-1.08A1.43,1.43,0,0,1,180.06,135.07Z"/><path class="cls-10" d="M198.84,137.82h-5.12V122.49h-3.27v-1.62h5.14V136.2h3.24Z"/><path class="cls-10" d="M209.67,125a5.11,5.11,0,0,1,4.11,1.8,7.1,7.1,0,0,1,1.53,4.75,7.18,7.18,0,0,1-1.53,4.78,5.57,5.57,0,0,1-8.23,0,7.2,7.2,0,0,1-1.52-4.79,7.09,7.09,0,0,1,1.53-4.75A5.11,5.11,0,0,1,209.67,125Zm0,11.51a3.09,3.09,0,0,0,2.69-1.44,6.84,6.84,0,0,0,0-7.05,3.33,3.33,0,0,0-5.41,0,7,7,0,0,0,0,7.09A3.09,3.09,0,0,0,209.67,136.51Z"/><path class="cls-10" d="M223.11,133.1q-1.75.85-1.75,1.5a.69.69,0,0,0,.4.59,2.14,2.14,0,0,0,1.1.24l4.22-.12a3.43,3.43,0,0,1,2.34.73,2.62,2.62,0,0,1,.83,2.08,3.89,3.89,0,0,1-1.9,3.39,7.83,7.83,0,0,1-4.43,1.26,6.07,6.07,0,0,1-3.4-.87,2.61,2.61,0,0,1-1.32-2.25q0-1.5,2-2.54-1.69-.79-1.69-1.95,0-1.32,2.19-2.46a4.26,4.26,0,0,1-1.55-1.59,4.17,4.17,0,0,1-.54-2.05,3.82,3.82,0,0,1,1.2-2.9,4.2,4.2,0,0,1,3-1.14,5,5,0,0,1,2.34.54l3.71-.56v1.83h-2.39a4.44,4.44,0,0,1,.54,2.23,3.9,3.9,0,0,1-1.19,2.88,4.11,4.11,0,0,1-3,1.18Zm.81,8.22a5.79,5.79,0,0,0,3.15-.82,2.39,2.39,0,0,0,1.3-2q0-1.25-1.85-1.25-.61,0-2.12.07-.95,0-1.49,0a1.68,1.68,0,0,0-.82.43,3.85,3.85,0,0,0-.85.87,1.61,1.61,0,0,0-.29.91,1.49,1.49,0,0,0,.82,1.26A3.94,3.94,0,0,0,223.92,141.32Zm-.07-9.65a2.18,2.18,0,0,0,1.69-.71,3.07,3.07,0,0,0,0-3.77,2.39,2.39,0,0,0-3.38,0,2.89,2.89,0,0,0,0,3.73A2.2,2.2,0,0,0,223.84,131.67Z"/><path class="cls-9" d="M243.33,140.33l-.73,1a14.13,14.13,0,0,1-4.09-4.72,12.25,12.25,0,0,1,0-11.37,14,14,0,0,1,4.1-4.7l.73,1a12.51,12.51,0,0,0-3.17,4.13,14.55,14.55,0,0,0,0,10.53A12.88,12.88,0,0,0,243.33,140.33Z"/><path class="cls-8" d="M259.13,137.82h-1.86a7.21,7.21,0,0,1-.23-2,5,5,0,0,1-4.35,2.34,3.49,3.49,0,0,1-2.46-1,3.33,3.33,0,0,1-1.06-2.55,3.46,3.46,0,0,1,.37-1.63,3.27,3.27,0,0,1,1.09-1.2,5.88,5.88,0,0,1,1.75-.77,13.16,13.16,0,0,1,2.45-.39l2.1-.17v-.6q0-3.22-3-3.22a6.91,6.91,0,0,0-1.8.31,9.26,9.26,0,0,0-1.87.73l-.49-1.35a10.53,10.53,0,0,1,4.76-1.31q4.28,0,4.28,4.53v5.38A12.27,12.27,0,0,0,259.13,137.82Zm-2.19-3.71v-2.27q-2.54.23-3.48.43a3.91,3.91,0,0,0-1.63.74,1.76,1.76,0,0,0-.69,1.47,1.72,1.72,0,0,0,.59,1.36,2.19,2.19,0,0,0,1.5.52,3.8,3.8,0,0,0,2-.59A5.84,5.84,0,0,0,256.95,134.11Z"/><path class="cls-8" d="M274.42,129.93h-4.87v4.91H268v-4.91h-4.93v-1.57H268v-4.93h1.57v4.93h4.87Z"/><path class="cls-8" d="M280.58,126.92a4.51,4.51,0,0,1,1.69-1.39,5,5,0,0,1,2.24-.53,3.92,3.92,0,0,1,3.41,1.75,7.93,7.93,0,0,1,1.22,4.61,8.51,8.51,0,0,1-1.3,4.84,4,4,0,0,1-3.47,1.94,4.32,4.32,0,0,1-2.18-.58,4.44,4.44,0,0,1-1.6-1.54v1.8h-1.87v-17h1.88Zm0,1.86V134a5.14,5.14,0,0,0,1.43,1.77,3,3,0,0,0,1.86.71,2.72,2.72,0,0,0,2.41-1.44,6.6,6.6,0,0,0,.9-3.54,6.46,6.46,0,0,0-.85-3.51,2.67,2.67,0,0,0-2.38-1.35A4,4,0,0,0,280.58,128.78Z"/><path class="cls-9" d="M294.88,120.57a14,14,0,0,1,4.08,4.7,12.27,12.27,0,0,1,0,11.37,14.07,14.07,0,0,1-4.08,4.72l-.75-1a12.15,12.15,0,0,0,3.17-4.14,13,13,0,0,0,1-5.26,12.44,12.44,0,0,0-1-5.29,12.87,12.87,0,0,0-3.14-4Z"/><path class="cls-9" d="M313.06,138.14a1.61,1.61,0,0,1-1-.52,1.5,1.5,0,0,1,0-2,1.31,1.31,0,0,1,1-.42,1.52,1.52,0,0,1,1.17.55,1.9,1.9,0,0,1,.49,1.32q0,2.35-2.62,3.68l-.46-.87Q313.06,139.12,313.06,138.14Zm0-13a1.42,1.42,0,0,1,1,.41,1.44,1.44,0,0,1,0,2,1.43,1.43,0,0,1-1,.41,1.36,1.36,0,0,1-1-.41,1.47,1.47,0,0,1,0-2A1.36,1.36,0,0,1,313,125.12Z"/><path class="cls-10" d="M33.52,304.69q-1.48.72-1.48,1.69a1.62,1.62,0,0,1,1,.51,1.5,1.5,0,0,1,0,2,1.33,1.33,0,0,1-1,.42,1.5,1.5,0,0,1-1.16-.55,1.93,1.93,0,0,1-.49-1.33q0-2.34,2.61-3.67Zm4.4,0q-1.47.72-1.47,1.69a1.62,1.62,0,0,1,1,.51,1.5,1.5,0,0,1,0,2,1.31,1.31,0,0,1-1,.42,1.52,1.52,0,0,1-1.17-.55,1.91,1.91,0,0,1-.49-1.33q0-2.34,2.62-3.67Z"/><path class="cls-10" d="M55.82,321.13H53.75l-1.87-5.94H46.32l-1.9,5.94h-2l5.54-17h2.37Zm-4.51-7.65-2.22-7-2.21,7Z"/><path class="cls-10" d="M67.78,321.13H62.66V305.8H59.39v-1.62h5.14v15.33h3.24Z"/><path class="cls-10" d="M84.44,321.13H82.57v-8.22q0-3-1.11-3-.57,0-1.24,1a6.44,6.44,0,0,0-.68,1.14v9H77.68v-8.22q0-3-1.12-3-.55,0-1.23,1a6.48,6.48,0,0,0-.68,1.14v9H72.78V308.61h1.8v1.89a5.12,5.12,0,0,1,1.26-1.59,2.29,2.29,0,0,1,1.45-.59,1.88,1.88,0,0,1,1.36.59,3.18,3.18,0,0,1,.83,1.59,5.07,5.07,0,0,1,1.26-1.59,2.3,2.3,0,0,1,1.44-.59q2.27,0,2.27,4.06Z"/><path class="cls-10" d="M93.37,308.31a5.11,5.11,0,0,1,4.11,1.8A7.1,7.1,0,0,1,99,314.86a7.18,7.18,0,0,1-1.53,4.78,5.57,5.57,0,0,1-8.23,0,7.19,7.19,0,0,1-1.52-4.79,7.09,7.09,0,0,1,1.53-4.75A5.12,5.12,0,0,1,93.37,308.31Zm0,11.51a3.09,3.09,0,0,0,2.69-1.44,6.84,6.84,0,0,0,0-7.05,3.33,3.33,0,0,0-5.41,0,7,7,0,0,0,0,7.09A3.09,3.09,0,0,0,93.37,319.82Z"/><path class="cls-10" d="M111.68,310.4a9.55,9.55,0,0,0-3-.52,4.86,4.86,0,0,0-2.42.51,1.53,1.53,0,0,0-.89,1.36,1.28,1.28,0,0,0,.41.94,4,4,0,0,0,1.63.75l1.79.52a7.9,7.9,0,0,1,2,.83,3.32,3.32,0,0,1,1.17,1.18,3.2,3.2,0,0,1,.39,1.6,3.27,3.27,0,0,1-1.5,2.83,6.56,6.56,0,0,1-3.82,1,9.08,9.08,0,0,1-3.81-.7l.36-1.62a7.79,7.79,0,0,0,3.38.75,4.92,4.92,0,0,0,2.54-.58,1.75,1.75,0,0,0,1-1.54,1.64,1.64,0,0,0-.49-1.16,5.9,5.9,0,0,0-2.29-1.06l-2.14-.67a4.45,4.45,0,0,1-1.27-.65,3,3,0,0,1,.22-5,6.66,6.66,0,0,1,3.76-.95,12.65,12.65,0,0,1,3.36.52Z"/><path class="cls-10" d="M127.88,320.57a8.87,8.87,0,0,1-3.71.87q-3.35,0-3.35-3.54v-7.65h-2.4v-1.62h2.4v-3.42h1.83v3.42h4.25v1.62h-4.25v7.16a2.77,2.77,0,0,0,.5,1.77,1.66,1.66,0,0,0,1.37.63,7.27,7.27,0,0,0,3-.68Z"/><path class="cls-10" d="M147.57,304.18h3.34a6.78,6.78,0,0,1,5.34,2.26,9,9,0,0,1,2,6.22,8.91,8.91,0,0,1-2,6.25,6.77,6.77,0,0,1-5.22,2.22h-3.42Zm2,15.24h1.39a4.6,4.6,0,0,0,3.82-1.79,9.43,9.43,0,0,0,0-9.92,4.58,4.58,0,0,0-3.81-1.81h-1.39Z"/><path class="cls-10" d="M167.21,308.31a5.11,5.11,0,0,1,4.11,1.8,7.1,7.1,0,0,1,1.53,4.75,7.18,7.18,0,0,1-1.53,4.78,5.57,5.57,0,0,1-8.23,0,7.19,7.19,0,0,1-1.52-4.79,7.09,7.09,0,0,1,1.53-4.75A5.12,5.12,0,0,1,167.21,308.31Zm0,11.51a3.09,3.09,0,0,0,2.69-1.44,6.84,6.84,0,0,0,0-7.05,3.33,3.33,0,0,0-5.41,0,7,7,0,0,0,0,7.09A3.09,3.09,0,0,0,167.21,319.82Z"/><path class="cls-10" d="M186.83,321.13H185v-8a4.26,4.26,0,0,0-.53-2.42,1.92,1.92,0,0,0-1.68-.75q-1.72,0-3.69,2.14v9.06h-1.87V308.61h1.87v1.84a5.86,5.86,0,0,1,4.25-2.14q3.52,0,3.52,4.25Z"/><path class="cls-10" d="M202,314.93h-8.59a5.08,5.08,0,0,0,1.23,3.51,3.89,3.89,0,0,0,3,1.38,11,11,0,0,0,3.52-.61l.32,1.5a9.36,9.36,0,0,1-3.87.75,5.92,5.92,0,0,1-4.49-1.79,6.71,6.71,0,0,1-1.71-4.83,7,7,0,0,1,1.53-4.75,5,5,0,0,1,4-1.77,4.63,4.63,0,0,1,3.62,1.65,6.38,6.38,0,0,1,1.45,4.39Zm-2-1.53a3.54,3.54,0,0,0-.91-2.47,2.72,2.72,0,0,0-2-1,3.26,3.26,0,0,0-2.41,1,3.8,3.8,0,0,0-1.06,2.51Z"/><path class="cls-10" d="M209.2,306.83a1.63,1.63,0,0,1-1-.51,1.5,1.5,0,0,1,0-2,1.33,1.33,0,0,1,1-.42,1.5,1.5,0,0,1,1.16.55,1.93,1.93,0,0,1,.49,1.33q0,2.34-2.61,3.67l-.47-.87Q209.2,307.81,209.2,306.83Zm4.4,0a1.62,1.62,0,0,1-1-.51,1.5,1.5,0,0,1,0-2,1.32,1.32,0,0,1,1-.42,1.52,1.52,0,0,1,1.17.55,1.91,1.91,0,0,1,.49,1.33q0,2.34-2.61,3.67l-.47-.87Q213.6,307.81,213.6,306.83Z"/><rect class="cls-7" x="53.84" y="229.1" width="100.58" height="42.45" rx="3" ry="3"/><path class="cls-5" d="M94.3,251.58H92.47v5H90.77V244.36h4.6A3.54,3.54,0,0,1,99.11,248a3.42,3.42,0,0,1-3,3.46l2.91,5.12h-2Zm.76-1.52a2.1,2.1,0,1,0,0-4.19H92.47v4.19Z"/><path class="cls-5" d="M103.93,256.83a3.06,3.06,0,0,1-3.1-3.33v-5.22h1.62v5c0,1.14.52,2.14,1.88,2.14a1.87,1.87,0,0,0,2-2.12v-5h1.62V255a14,14,0,0,0,.09,1.53h-1.55a7.3,7.3,0,0,1-.07-1A2.7,2.7,0,0,1,103.93,256.83Z"/><path class="cls-5" d="M112.28,256.57h-1.62v-8.29h1.58v1.19A2.84,2.84,0,0,1,114.8,248c2,0,3,1.43,3,3.27v5.25h-1.62v-5c0-1.15-.48-2.08-1.93-2.08-1.27,0-1.93,1-1.93,2.27Z"/><rect class="cls-7" y="40.9" width="135.73" height="4"/><polygon class="cls-11" points="309.32 92.6 286.65 92.6 286.65 75.77 289.65 75.77 289.65 89.6 306.32 89.6 306.32 75.77 309.32 75.77 309.32 92.6"/><polygon class="cls-11" points="147.99 343.27 125.32 343.27 125.32 326.44 128.32 326.44 128.32 340.27 144.99 340.27 144.99 326.44 147.99 326.44 147.99 343.27"/></svg>