<svg id="Layer_1" data-name="Layer 1" xmlns="http://www.w3.org/2000/svg" viewBox="0 0 925 485.74"><defs><style>.cls-1{fill:#ececec;}.cls-2{fill:#231f20;}.cls-3{fill:#e51b24;}</style></defs><title>Slide-10-Arithmetic-Operators-Annotated</title><rect class="cls-1" x="2.5" y="1.5" width="920" height="87.52"/><path class="cls-2" d="M922.5,90.52H2.5A1.5,1.5,0,0,1,1,89V1.5A1.5,1.5,0,0,1,2.5,0h920A1.5,1.5,0,0,1,924,1.5V89A1.5,1.5,0,0,1,922.5,90.52ZM4,87.52H921V3H4V87.52Z"/><path class="cls-2" d="M922.5,484.74H2.5a1.5,1.5,0,0,1-1.5-1.5V89a1.5,1.5,0,0,1,1.5-1.5h920A1.5,1.5,0,0,1,924,89V483.24A1.5,1.5,0,0,1,922.5,484.74ZM4,481.74H921V90.52H4V481.74Z"/><rect class="cls-2" x="4.5" y="170.66" width="916" height="3"/><rect class="cls-2" x="4.5" y="248.16" width="916" height="3"/><rect class="cls-2" x="4.5" y="325.66" width="916" height="3"/><rect class="cls-2" x="4.5" y="405.87" width="916" height="3"/><rect class="cls-2" x="297" y="1.5" width="3" height="481.74"/><rect class="cls-2" x="522" y="1.5" width="3" height="481.74"/><rect class="cls-2" x="728" y="1.5" width="3" height="481.74"/><path d="M107.69,139H98.27L96,144.92H92.87l8.46-21.27h3.39l8.46,21.27H110Zm-8.37-2.73h7.32L103,126.71Z"/><path d="M125.69,142.73a4.83,4.83,0,0,1-4.47,2.58c-4.23,0-6.84-3.36-6.84-7.65,0-4.08,2.76-7.56,6.84-7.56,2.55,0,3.93,1.26,4.41,2.43V123.2h2.79v19a22.9,22.9,0,0,0,.15,2.67h-2.73a12.07,12.07,0,0,1-.15-1.95v-0.24Zm-4.2.09c2.58,0,4.17-2.25,4.17-5.22s-1.56-5-4.14-5-4.26,2.1-4.26,5.07S118.79,142.82,121.49,142.82Z"/><path d="M143.33,142.73a4.83,4.83,0,0,1-4.47,2.58c-4.23,0-6.84-3.36-6.84-7.65,0-4.08,2.76-7.56,6.84-7.56,2.55,0,3.93,1.26,4.41,2.43V123.2h2.79v19a22.9,22.9,0,0,0,.15,2.67h-2.73a12.07,12.07,0,0,1-.15-1.95v-0.24Zm-4.2.09c2.58,0,4.17-2.25,4.17-5.22s-1.56-5-4.14-5-4.26,2.1-4.26,5.07S136.43,142.82,139.13,142.82Z"/><path d="M152.24,123a2,2,0,1,1-2,2A2,2,0,0,1,152.24,123Zm-1.38,21.93V130.49h2.79v14.43h-2.79Z"/><path d="M162.23,130.49h3.12V133h-3.12v7.5a1.71,1.71,0,0,0,2,2,5.71,5.71,0,0,0,1.11-.12v2.4a6.16,6.16,0,0,1-1.92.27,3.75,3.75,0,0,1-4-4.11V133h-2.76v-2.55h0.78a2,2,0,0,0,2.22-2.22v-2.34h2.58v4.56Z"/><path d="M170.48,123a2,2,0,1,1-2,2A2,2,0,0,1,170.48,123Zm-1.38,21.93V130.49h2.79v14.43H169.1Z"/><path d="M190.25,137.69c0,4.41-3.06,7.68-7.38,7.68s-7.38-3.27-7.38-7.68A7.38,7.38,0,1,1,190.25,137.69Zm-2.88,0c0-3.33-2.1-5.13-4.5-5.13s-4.5,1.8-4.5,5.13,2.1,5.16,4.5,5.16S187.37,141,187.37,137.69Z"/><path d="M196.67,144.92h-2.82V130.49h2.76v2.07a4.94,4.94,0,0,1,4.44-2.49c3.45,0,5.16,2.49,5.16,5.7v9.15h-2.82v-8.67c0-2-.84-3.63-3.36-3.63-2.22,0-3.36,1.77-3.36,4v8.34Z"/><path d="M595.56,132.11a7,7,0,0,1,0-.78c0-3.33,2.46-6.3,6.72-6.3s6.57,2.73,6.57,6a7.08,7.08,0,0,1-3.66,6l-3.84,2.46a4.77,4.77,0,0,0-2.37,2.73h10v2.73H595.32c0.06-3.18,1.32-5.61,4.62-7.74l3.24-2.1c1.83-1.17,2.67-2.55,2.67-4a3.36,3.36,0,0,0-3.66-3.42c-2.55,0-3.75,1.77-3.75,4,0,0.27,0,.57.06,0.87Z"/><path d="M624.9,135.11v-5.85h2.46v5.85H633v2.37h-5.64v5.91H624.9v-5.91h-5.61v-2.37h5.61Z"/><path d="M643.2,137.15l8.34-11.67h4v12.33h3.33v2.73h-3.33v4.38h-2.85v-4.38H643.2v-3.39Zm9.54-8.85-6.84,9.51h6.84V128.3Z"/><path d="M603.06,211.31a5.08,5.08,0,0,1,3.69-4.8,4.89,4.89,0,0,1-3.18-4.56c0-3.18,2.82-5.4,6.54-5.4s6.54,2.22,6.54,5.4a4.91,4.91,0,0,1-3.18,4.56,5.06,5.06,0,0,1,3.69,4.8c0,3.12-2.58,5.58-7,5.58S603.06,214.43,603.06,211.31Zm11.13-.24c0-1.86-1.5-3.33-4.08-3.33s-4.08,1.47-4.08,3.33,1.47,3.27,4.08,3.27S614.19,212.9,614.19,211.07Zm-0.48-9c0-1.74-1.41-3.12-3.6-3.12s-3.6,1.38-3.6,3.12,1.53,3.15,3.6,3.18S613.71,204,613.71,202.1Z"/><path d="M625.86,209.06V206.6H634v2.46h-8.13Z"/><path d="M646.8,216.44V202.73h-4.71v-2.07c2.7-.06,4.56-1.56,5-3.66h2.58v19.44H646.8Z"/><path d="M597.78,282.7a7,7,0,0,1,0-.78c0-3.33,2.46-6.3,6.72-6.3s6.57,2.73,6.57,6a7.08,7.08,0,0,1-3.66,6L603.54,290a4.77,4.77,0,0,0-2.37,2.73h10v2.73H597.54c0.06-3.18,1.32-5.61,4.62-7.74l3.24-2.1c1.83-1.17,2.67-2.55,2.67-4a3.36,3.36,0,0,0-3.66-3.42c-2.55,0-3.75,1.77-3.75,4,0,0.27,0,.57.06,0.87Z"/><path d="M627.63,278.26l3.69-1.26,0.69,2.16-3.72,1.23,2.46,3.15-1.83,1.38-2.49-3.27-2.34,3.24-1.83-1.38,2.37-3.12-3.72-1.23L621.6,277l3.66,1.29v-4h2.37v4Z"/><path d="M645.87,284.05l5.73-5.28h-9.3v-2.7h13.2v2.64L650,283.84a5.77,5.77,0,0,1,6,5.91c0,3.27-2.52,6.24-7,6.24s-7-2.94-7.23-6.12l2.88-.66a4.2,4.2,0,0,0,4.32,4.2c2.67,0,4.11-1.65,4.11-3.6,0-2.55-2-3.63-4-3.63a5.25,5.25,0,0,0-1.71.3Z"/><path d="M597.32,368.29l8.34-11.67h4V369H613v2.73h-3.33v4.38h-2.85v-4.38h-9.54v-3.39Zm9.54-8.85L600,369h6.84v-9.51Z"/><path d="M623.72,376.06H621l10.29-21.27H634Z"/><path d="M642.8,363.25a7,7,0,0,1,0-.78c0-3.33,2.46-6.3,6.72-6.3s6.57,2.73,6.57,6a7.08,7.08,0,0,1-3.66,6l-3.84,2.46a4.76,4.76,0,0,0-2.37,2.73h10v2.73H642.56c0.06-3.18,1.32-5.61,4.62-7.74l3.24-2.1c1.83-1.17,2.67-2.55,2.67-4a3.36,3.36,0,0,0-3.66-3.42c-2.55,0-3.75,1.77-3.75,4,0,0.27,0,.57.06,0.87Z"/><path d="M591.57,446.79l8.34-11.67h4v12.33h3.33v2.73H604v4.38h-2.85v-4.38h-9.54v-3.39Zm9.54-8.85-6.84,9.51h6.84v-9.51Z"/><path d="M621.69,434.91a4.73,4.73,0,1,1-4.8,4.71A4.8,4.8,0,0,1,621.69,434.91Zm-2.4,19.65,14-19.44H636l-13.92,19.44h-2.76Zm2.4-12.57a2.36,2.36,0,1,0-2.31-2.37A2.27,2.27,0,0,0,621.69,442Zm11.88,3.36a4.73,4.73,0,1,1-4.8,4.71A4.8,4.8,0,0,1,633.57,445.35Zm0,7.08a2.36,2.36,0,1,0-2.31-2.37A2.27,2.27,0,0,0,633.57,452.43Z"/><path d="M648.54,441.75a7,7,0,0,1,0-.78c0-3.33,2.46-6.3,6.72-6.3s6.57,2.73,6.57,6a7.08,7.08,0,0,1-3.66,6l-3.84,2.46a4.77,4.77,0,0,0-2.37,2.73h10v2.73H648.3c0.06-3.18,1.32-5.61,4.62-7.74l3.24-2.1c1.83-1.17,2.67-2.55,2.67-4a3.36,3.36,0,0,0-3.66-3.42c-2.55,0-3.75,1.77-3.75,4,0,0.27,0,.57.06,0.87Z"/><path d="M819.18,363.25a7,7,0,0,1,0-.78c0-3.33,2.46-6.3,6.72-6.3s6.57,2.73,6.57,6a7.08,7.08,0,0,1-3.66,6l-3.84,2.46a4.77,4.77,0,0,0-2.37,2.73h10v2.73H818.94c0.06-3.18,1.32-5.61,4.62-7.74l3.24-2.1c1.83-1.17,2.67-2.55,2.67-4a3.36,3.36,0,0,0-3.66-3.42c-2.55,0-3.75,1.77-3.75,4,0,0.27,0,.57.06,0.87Z"/><path d="M819.85,437.79a7.27,7.27,0,0,1,11.94,0,15.15,15.15,0,0,1,0,14.1,7.27,7.27,0,0,1-11.94,0A15.16,15.16,0,0,1,819.85,437.79Zm2.88,13.35a4.42,4.42,0,0,0,6.18,0c1.17-1.23,1.71-3.33,1.71-6.3s-0.54-5.07-1.71-6.3a4.42,4.42,0,0,0-6.18,0c-1.17,1.23-1.71,3.33-1.71,6.3S821.56,449.91,822.73,451.14Z"/><path d="M832,128.51a7.3,7.3,0,0,0-3.48-.84c-4,0-6.6,3-6.84,7a5.85,5.85,0,0,1,5.13-2.52c3.84,0,6.66,2.4,6.66,6.63s-3.39,6.63-7.2,6.63-7.59-2.58-7.59-9c0-7.23,4.35-11.34,10-11.34a7.63,7.63,0,0,1,4.2,1.08Zm-5.7,14.31a4.1,4.1,0,1,0-4.2-4.08A4.07,4.07,0,0,0,826.27,142.82Z"/><path d="M832,279.1a7.3,7.3,0,0,0-3.48-.84c-4,0-6.6,3-6.84,7a5.85,5.85,0,0,1,5.13-2.52c3.84,0,6.66,2.4,6.66,6.63s-3.39,6.63-7.2,6.63-7.59-2.58-7.59-9c0-7.23,4.35-11.34,10-11.34a7.63,7.63,0,0,1,4.2,1.08Zm-5.7,14.31a4.1,4.1,0,1,0-4.2-4.08A4.07,4.07,0,0,0,826.27,293.41Z"/><path d="M832.92,199.82c-1.8,1.44-7.29,6.33-8.22,16.62h-3c0.87-11.31,8-16.74,8-16.74H818.73V197h14.19v2.82Z"/><path d="M359.79,33.2a10.6,10.6,0,0,1,10.68,11.07,10.69,10.69,0,1,1-21.36,0A10.6,10.6,0,0,1,359.79,33.2Zm0,19.47c4,0,7.68-2.85,7.68-8.4s-3.72-8.37-7.68-8.37-7.68,2.82-7.68,8.37S355.83,52.67,359.79,52.67Z"/><path d="M374.22,60.62V40.49H377v2.25a5.32,5.32,0,0,1,4.83-2.58c4.32,0,6.63,3.33,6.63,7.53s-2.49,7.62-6.72,7.62A5.37,5.37,0,0,1,377,53v7.65h-2.79Zm7-18c-2.58,0-4.29,2.16-4.29,5s1.71,5.1,4.29,5.1,4.26-2.13,4.26-5.1S383.91,42.65,381.27,42.65Z"/><path d="M404.58,50.81a6.54,6.54,0,0,1-6.48,4.56c-3.87,0-7.26-2.82-7.26-7.71,0-4.53,3.27-7.62,6.9-7.62,4.44,0,6.93,3.06,6.93,7.56a6.37,6.37,0,0,1-.06.9H393.75a4.28,4.28,0,0,0,4.35,4.38,3.93,3.93,0,0,0,4-2.91Zm-2.85-4.59a3.64,3.64,0,0,0-4-3.69,3.88,3.88,0,0,0-3.93,3.69h7.89Z"/><path d="M416.28,43.34a8.79,8.79,0,0,0-1.23-.09c-2.37,0-4,1.26-4,4.44v7.23h-2.82V40.49H411V43a4.52,4.52,0,0,1,4.32-2.76,5.33,5.33,0,0,1,.93.09v3Z"/><path d="M422.76,46.67l3.9-.57A1.05,1.05,0,0,0,427.77,45c0-1.41-.93-2.58-3.12-2.58a3.06,3.06,0,0,0-3.27,2.91l-2.7-.63C419,42,421.47,40,424.59,40c4.32,0,6,2.46,6,5.28v7.23a13.56,13.56,0,0,0,.18,2.37H428a10.55,10.55,0,0,1-.15-1.95,5.26,5.26,0,0,1-4.65,2.4c-2.94,0-4.83-2-4.83-4.32C418.38,48.47,420.27,47,422.76,46.67Zm5,2.07V48.08l-4.41.66a2.16,2.16,0,0,0-2.1,2.16A2.19,2.19,0,0,0,423.6,53C425.91,53,427.77,51.89,427.77,48.74Z"/><path d="M438.75,40.49h3.12V43h-3.12v7.5a1.71,1.71,0,0,0,2,2,5.71,5.71,0,0,0,1.11-.12v2.4a6.16,6.16,0,0,1-1.92.27,3.75,3.75,0,0,1-4-4.11V43h-2.76V40.49h0.78a2,2,0,0,0,2.22-2.22V35.93h2.58v4.56Z"/><path d="M459,47.69c0,4.41-3.06,7.68-7.38,7.68s-7.38-3.27-7.38-7.68A7.38,7.38,0,1,1,459,47.69Zm-2.88,0c0-3.33-2.1-5.13-4.5-5.13s-4.5,1.8-4.5,5.13,2.1,5.16,4.5,5.16S456.15,51,456.15,47.69Z"/><path d="M470.64,43.34a8.79,8.79,0,0,0-1.23-.09c-2.37,0-4,1.26-4,4.44v7.23h-2.82V40.49h2.76V43a4.52,4.52,0,0,1,4.32-2.76,5.34,5.34,0,0,1,.93.09v3Z"/><path d="M571.91,54.92V33.65h12.93v2.73h-10v6.54h9.06v2.76h-9.06v6.51h10v2.73H571.91Z"/><path d="M592.31,47.57l-5.19-7.08h3.42l3.54,5.07,3.48-5.07h3.33l-5.13,7.08c0.87,1.17,4.44,6.18,5.31,7.35h-3.39L594,49.61l-3.66,5.31h-3.36Z"/><path d="M607.25,46.67l3.9-.57A1.05,1.05,0,0,0,612.26,45c0-1.41-.93-2.58-3.12-2.58a3.06,3.06,0,0,0-3.27,2.91l-2.7-.63C603.47,42,606,40,609.08,40c4.32,0,6,2.46,6,5.28v7.23a13.63,13.63,0,0,0,.18,2.37H612.5a10.49,10.49,0,0,1-.15-1.95,5.26,5.26,0,0,1-4.65,2.4c-2.94,0-4.83-2-4.83-4.32C602.87,48.47,604.76,47,607.25,46.67Zm5,2.07V48.08l-4.41.66a2.16,2.16,0,0,0-2.1,2.16,2.19,2.19,0,0,0,2.34,2.1C610.4,53,612.26,51.89,612.26,48.74Z"/><path d="M619.46,54.92V40.49h2.7v1.92a5,5,0,0,1,4.38-2.34,4.51,4.51,0,0,1,4.32,2.73,5.18,5.18,0,0,1,4.83-2.73c2.52,0,5,1.71,5,5.49v9.36h-2.79V45.86c0-1.89-.93-3.3-3.06-3.3a3.36,3.36,0,0,0-3.33,3.63v8.73h-2.82V45.86c0-1.86-.9-3.3-3.06-3.3a3.35,3.35,0,0,0-3.36,3.66v8.7h-2.79Z"/><path d="M645.17,60.62V40.49h2.73v2.25a5.32,5.32,0,0,1,4.83-2.58c4.32,0,6.63,3.33,6.63,7.53s-2.49,7.62-6.72,7.62A5.37,5.37,0,0,1,648,53v7.65h-2.79Zm7-18c-2.58,0-4.29,2.16-4.29,5s1.71,5.1,4.29,5.1,4.26-2.13,4.26-5.1S654.86,42.65,652.22,42.65Z"/><path d="M663,54.92V33.2h2.82V54.92H663Z"/><path d="M683.15,50.81a6.54,6.54,0,0,1-6.48,4.56c-3.87,0-7.26-2.82-7.26-7.71,0-4.53,3.27-7.62,6.9-7.62,4.44,0,6.93,3.06,6.93,7.56a6.46,6.46,0,0,1-.06.9H672.32a4.29,4.29,0,0,0,4.35,4.38,3.93,3.93,0,0,0,4-2.91Zm-2.85-4.59a3.64,3.64,0,0,0-4-3.69,3.88,3.88,0,0,0-3.93,3.69h7.89Z"/><path d="M793.23,46.22H790v8.7h-3V33.65h8A6.16,6.16,0,0,1,801.6,40a6,6,0,0,1-5.16,6l5.07,8.91h-3.42Zm1.32-2.64c2.4,0,4-1.41,4-3.6s-1.62-3.69-4-3.69H790v7.29h4.5Z"/><path d="M817.32,50.81a6.54,6.54,0,0,1-6.48,4.56c-3.87,0-7.26-2.82-7.26-7.71,0-4.53,3.27-7.62,6.9-7.62,4.44,0,6.93,3.06,6.93,7.56a6.28,6.28,0,0,1-.06.9H806.49a4.28,4.28,0,0,0,4.35,4.38,3.93,3.93,0,0,0,4-2.91Zm-2.85-4.59a3.64,3.64,0,0,0-4-3.69,3.88,3.88,0,0,0-3.93,3.69h7.89Z"/><path d="M822.21,50.27a3.08,3.08,0,0,0,3.36,2.7c1.59,0,2.46-.9,2.46-1.92a2,2,0,0,0-1.86-1.86l-2.46-.54a4.1,4.1,0,0,1-3.6-4c0-2.46,2.31-4.56,5.13-4.56,4,0,5.19,2.58,5.49,3.87l-2.49.93a2.8,2.8,0,0,0-3-2.4,2.18,2.18,0,0,0-2.4,1.92,1.77,1.77,0,0,0,1.65,1.74l2.34,0.51c2.61,0.57,4,2.16,4,4.29s-1.71,4.47-5.28,4.47c-4,0-5.64-2.55-5.88-4.2Z"/><path d="M839.67,55.37c-3.36,0-5.4-2.52-5.4-5.79V40.49h2.82v8.67c0,2,.9,3.72,3.27,3.72s3.42-1.5,3.42-3.69v-8.7h2.82V52.25a24.11,24.11,0,0,0,.15,2.67H844a12.84,12.84,0,0,1-.12-1.74A4.71,4.71,0,0,1,839.67,55.37Z"/><path d="M851.4,54.92V33.2h2.82V54.92H851.4Z"/><path d="M862.8,40.49h3.12V43H862.8v7.5a1.71,1.71,0,0,0,2,2,5.71,5.71,0,0,0,1.11-.12v2.4a6.16,6.16,0,0,1-1.92.27A3.75,3.75,0,0,1,860,51V43h-2.76V40.49H858a2,2,0,0,0,2.22-2.22V35.93h2.58v4.56Z"/><path d="M408.25,135.11v-5.85h2.46v5.85h5.64v2.37h-5.64v5.91h-2.46v-5.91h-5.61v-2.37h5.61Z"/><path d="M85.63,200.93a4.32,4.32,0,0,0-4.5-3.63c-2.4,0-4.11,1.56-4.11,3.54a3.08,3.08,0,0,0,2.73,3.09l3.18,0.69c3.54,0.78,5.52,3,5.52,6,0,3.3-2.82,6.3-7.35,6.3-5.13,0-7.56-3.3-7.95-6.33l2.82-.9a4.83,4.83,0,0,0,5.1,4.56c2.94,0,4.38-1.53,4.38-3.39,0-1.53-1-2.85-3.18-3.3l-3-.66c-3-.66-5.19-2.64-5.19-5.82,0-3.33,3.09-6.33,7-6.33,4.8,0,6.72,3,7.2,5.28Z"/><path d="M96.7,216.89c-3.36,0-5.4-2.52-5.4-5.79V202h2.82v8.67c0,2,.9,3.72,3.27,3.72s3.42-1.5,3.42-3.69V202h2.82v11.76a24.26,24.26,0,0,0,.15,2.67h-2.7a12.86,12.86,0,0,1-.12-1.74A4.71,4.71,0,0,1,96.7,216.89Z"/><path d="M108.43,216.44V194.72h2.79V204a5.26,5.26,0,0,1,4.77-2.46c4.38,0,6.63,3.36,6.63,7.56s-2.43,7.68-6.72,7.68a5.15,5.15,0,0,1-4.68-2.49v2.1h-2.79Zm7-12.36c-2.49,0-4.29,1.95-4.29,5.07s1.8,5.16,4.29,5.16,4.26-2,4.26-5.16S118.09,204.08,115.48,204.08Z"/><path d="M129.85,202H133v2.55h-3.12v7.5a1.71,1.71,0,0,0,2,2,5.71,5.71,0,0,0,1.11-.12v2.4a6.16,6.16,0,0,1-1.92.27,3.75,3.75,0,0,1-4-4.11v-7.92h-2.76V202H125a2,2,0,0,0,2.22-2.22v-2.34h2.58V202Z"/><path d="M144.43,204.86a8.79,8.79,0,0,0-1.23-.09c-2.37,0-4,1.26-4,4.44v7.23h-2.82V202h2.76v2.52a4.52,4.52,0,0,1,4.32-2.76,5.33,5.33,0,0,1,.93.09v3Z"/><path d="M150.91,208.19l3.9-.57a1.05,1.05,0,0,0,1.11-1.08c0-1.41-.93-2.58-3.12-2.58a3.06,3.06,0,0,0-3.27,2.91l-2.7-.63c0.3-2.76,2.79-4.68,5.91-4.68,4.32,0,6,2.46,6,5.28v7.23a13.56,13.56,0,0,0,.18,2.37h-2.76a10.55,10.55,0,0,1-.15-1.95,5.26,5.26,0,0,1-4.65,2.4c-2.94,0-4.83-2-4.83-4.32C146.53,210,148.42,208.55,150.91,208.19Zm5,2.07V209.6l-4.41.66a2.16,2.16,0,0,0-2.1,2.16,2.19,2.19,0,0,0,2.34,2.1C154.06,214.52,155.92,213.41,155.92,210.26Z"/><path d="M164.8,209.21c0,3.3,2.07,5.07,4.41,5.07a3.92,3.92,0,0,0,4-3l2.49,1.08a6.63,6.63,0,0,1-6.51,4.5c-4.2,0-7.29-3.3-7.29-7.68s3.15-7.65,7.26-7.65a6.28,6.28,0,0,1,6.42,4.59L173,207.23a3.78,3.78,0,0,0-3.87-3.06C166.9,204.17,164.8,205.85,164.8,209.21Z"/><path d="M182.8,202h3.12v2.55H182.8v7.5a1.71,1.71,0,0,0,2,2,5.71,5.71,0,0,0,1.11-.12v2.4a6.16,6.16,0,0,1-1.92.27,3.75,3.75,0,0,1-4-4.11v-7.92h-2.76V202H178a2,2,0,0,0,2.22-2.22v-2.34h2.58V202Z"/><path d="M191,194.51a2,2,0,1,1-2,2A2,2,0,0,1,191,194.51Zm-1.38,21.93V202h2.79v14.43h-2.79Z"/><path d="M210.82,209.21c0,4.41-3.06,7.68-7.38,7.68s-7.38-3.27-7.38-7.68A7.38,7.38,0,1,1,210.82,209.21Zm-2.88,0c0-3.33-2.1-5.13-4.5-5.13s-4.5,1.8-4.5,5.13,2.1,5.16,4.5,5.16S207.94,212.57,207.94,209.21Z"/><path d="M217.24,216.44h-2.82V202h2.76v2.07a4.94,4.94,0,0,1,4.44-2.49c3.45,0,5.16,2.49,5.16,5.7v9.15H224v-8.67c0-2-.84-3.63-3.36-3.63-2.22,0-3.36,1.77-3.36,4v8.34Z"/><path d="M406.19,209.06V206.6h8.13v2.46h-8.13Z"/><path d="M79.25,295.51V279L72,295.51h-2.7L62.09,279v16.56H59.18V274.24h4l7.5,17.31,7.56-17.31h3.93v21.27H79.25Z"/><path d="M92.51,296c-3.36,0-5.4-2.52-5.4-5.79v-9.09h2.82v8.67c0,2,.9,3.72,3.27,3.72s3.42-1.5,3.42-3.69v-8.7h2.82v11.76a24.25,24.25,0,0,0,.15,2.67h-2.7a12.85,12.85,0,0,1-.12-1.74A4.71,4.71,0,0,1,92.51,296Z"/><path d="M104.24,295.51V273.79h2.82v21.72h-2.82Z"/><path d="M115.64,281.08h3.12v2.55h-3.12v7.5a1.71,1.71,0,0,0,2,2,5.74,5.74,0,0,0,1.11-.12v2.4a6.14,6.14,0,0,1-1.92.27,3.75,3.75,0,0,1-4-4.11v-7.92h-2.76v-2.55h0.78a2,2,0,0,0,2.22-2.22v-2.34h2.58v4.56Z"/><path d="M123.89,273.58a2,2,0,1,1-2,2A2,2,0,0,1,123.89,273.58Zm-1.38,21.93V281.08h2.79v14.43h-2.79Z"/><path d="M130.1,301.21V281.08h2.73v2.25a5.32,5.32,0,0,1,4.83-2.58c4.32,0,6.63,3.33,6.63,7.53s-2.49,7.62-6.72,7.62a5.37,5.37,0,0,1-4.68-2.34v7.65H130.1Zm7-18c-2.58,0-4.29,2.16-4.29,5s1.71,5.1,4.29,5.1,4.26-2.13,4.26-5.1S139.79,283.24,137.15,283.24Z"/><path d="M147.89,295.51V273.79h2.82v21.72h-2.82Z"/><path d="M156.89,273.58a2,2,0,1,1-2,2A2,2,0,0,1,156.89,273.58Zm-1.38,21.93V281.08h2.79v14.43h-2.79Z"/><path d="M164.78,288.28c0,3.3,2.07,5.07,4.41,5.07a3.92,3.92,0,0,0,4-3l2.49,1.08a6.63,6.63,0,0,1-6.51,4.5c-4.2,0-7.29-3.3-7.29-7.68s3.15-7.65,7.26-7.65a6.28,6.28,0,0,1,6.42,4.59L173,286.3a3.79,3.79,0,0,0-3.87-3.06C166.88,283.24,164.78,284.92,164.78,288.28Z"/><path d="M182.33,287.26l3.9-.57a1.05,1.05,0,0,0,1.11-1.08c0-1.41-.93-2.58-3.12-2.58a3.06,3.06,0,0,0-3.27,2.91l-2.7-.63c0.3-2.76,2.79-4.68,5.91-4.68,4.32,0,6,2.46,6,5.28v7.23a13.55,13.55,0,0,0,.18,2.37h-2.76a10.54,10.54,0,0,1-.15-1.95,5.26,5.26,0,0,1-4.65,2.4c-2.94,0-4.83-2-4.83-4.32C178,289.06,179.84,287.62,182.33,287.26Zm5,2.07v-0.66l-4.41.66a2.16,2.16,0,0,0-2.1,2.16,2.19,2.19,0,0,0,2.34,2.1C185.48,293.59,187.34,292.48,187.34,289.33Z"/><path d="M198.32,281.08h3.12v2.55h-3.12v7.5a1.71,1.71,0,0,0,2,2,5.74,5.74,0,0,0,1.11-.12v2.4a6.14,6.14,0,0,1-1.92.27,3.75,3.75,0,0,1-4-4.11v-7.92h-2.76v-2.55h0.78a2,2,0,0,0,2.22-2.22v-2.34h2.58v4.56Z"/><path d="M206.57,273.58a2,2,0,1,1-2,2A2,2,0,0,1,206.57,273.58Zm-1.38,21.93V281.08H208v14.43h-2.79Z"/><path d="M226.34,288.28c0,4.41-3.06,7.68-7.38,7.68s-7.38-3.27-7.38-7.68A7.38,7.38,0,1,1,226.34,288.28Zm-2.88,0c0-3.33-2.1-5.13-4.5-5.13s-4.5,1.8-4.5,5.13,2.1,5.16,4.5,5.16S223.46,291.64,223.46,288.28Z"/><path d="M232.76,295.51h-2.82V281.08h2.76v2.07a4.94,4.94,0,0,1,4.44-2.49c3.45,0,5.16,2.49,5.16,5.7v9.15h-2.82v-8.67c0-2-.84-3.63-3.36-3.63-2.22,0-3.36,1.77-3.36,4v8.34Z"/><path d="M410.67,278.26l3.69-1.26,0.69,2.16-3.72,1.23,2.46,3.15L412,284.92l-2.49-3.27-2.34,3.24-1.83-1.38,2.37-3.12L404,279.16l0.69-2.16,3.66,1.29v-4h2.37v4Z"/><path d="M99.64,376.06V354.79h7.44c5.4,0,10.11,3.69,10.11,10.68s-4.77,10.59-10.17,10.59H99.64Zm7.29-2.61c3.93,0,7.23-2.64,7.23-8s-3.24-8.07-7.17-8.07h-4.41v16h4.35Z"/><path d="M122.32,354.13a2,2,0,1,1-2,2A2,2,0,0,1,122.32,354.13Zm-1.38,21.93V361.63h2.79v14.43h-2.79Z"/><path d="M135.13,376.06h-2.85l-5.85-14.43h3.18l4.11,11.13,4.14-11.13h3Z"/><path d="M145,354.13a2,2,0,1,1-2,2A2,2,0,0,1,145,354.13Zm-1.38,21.93V361.63h2.79v14.43h-2.79Z"/><path d="M152.38,371.41a3.08,3.08,0,0,0,3.36,2.7c1.59,0,2.46-.9,2.46-1.92a2,2,0,0,0-1.86-1.86l-2.46-.54a4.11,4.11,0,0,1-3.6-4c0-2.46,2.31-4.56,5.13-4.56,4,0,5.19,2.58,5.49,3.87l-2.49.93a2.8,2.8,0,0,0-3-2.4,2.18,2.18,0,0,0-2.4,1.92,1.77,1.77,0,0,0,1.65,1.74l2.34,0.51c2.61,0.57,4,2.16,4,4.29s-1.71,4.47-5.28,4.47c-4,0-5.64-2.55-5.88-4.2Z"/><path d="M166.12,354.13a2,2,0,1,1-2,2A2,2,0,0,1,166.12,354.13Zm-1.38,21.93V361.63h2.79v14.43h-2.79Z"/><path d="M185.89,368.83c0,4.41-3.06,7.68-7.38,7.68s-7.38-3.27-7.38-7.68A7.38,7.38,0,1,1,185.89,368.83Zm-2.88,0c0-3.33-2.1-5.13-4.5-5.13s-4.5,1.8-4.5,5.13,2.1,5.16,4.5,5.16S183,372.19,183,368.83Z"/><path d="M192.31,376.06h-2.82V361.63h2.76v2.07a4.94,4.94,0,0,1,4.44-2.49c3.45,0,5.16,2.49,5.16,5.7v9.15H199v-8.67c0-2-.84-3.63-3.36-3.63-2.22,0-3.36,1.77-3.36,4v8.34Z"/><path d="M405.72,376.06H403l10.29-21.27H416Z"/><path d="M114.2,454.56V438l-7.26,16.56h-2.7L97,438v16.56H94.13V433.29h4l7.5,17.31,7.56-17.31h3.93v21.27H114.2Z"/><path d="M135.77,447.33c0,4.41-3.06,7.68-7.38,7.68s-7.38-3.27-7.38-7.68A7.38,7.38,0,1,1,135.77,447.33Zm-2.88,0c0-3.33-2.1-5.13-4.5-5.13s-4.5,1.8-4.5,5.13,2.1,5.16,4.5,5.16S132.89,450.69,132.89,447.33Z"/><path d="M149.48,452.37A4.83,4.83,0,0,1,145,455c-4.23,0-6.84-3.36-6.84-7.65,0-4.08,2.76-7.56,6.84-7.56,2.55,0,3.93,1.26,4.41,2.43v-9.33h2.79v19a22.9,22.9,0,0,0,.15,2.67h-2.73a12.07,12.07,0,0,1-.15-2v-0.24Zm-4.2.09c2.58,0,4.17-2.25,4.17-5.22s-1.56-5-4.14-5-4.26,2.1-4.26,5.07S142.58,452.46,145.28,452.46Z"/><path d="M162.11,455c-3.36,0-5.4-2.52-5.4-5.79v-9.09h2.82v8.67c0,2,.9,3.72,3.27,3.72s3.42-1.5,3.42-3.69v-8.7H169v11.76a24.27,24.27,0,0,0,.15,2.67h-2.7a12.86,12.86,0,0,1-.12-1.74A4.71,4.71,0,0,1,162.11,455Z"/><path d="M173.84,454.56V432.84h2.82v21.72h-2.82Z"/><path d="M186.56,455c-3.36,0-5.4-2.52-5.4-5.79v-9.09H184v8.67c0,2,.9,3.72,3.27,3.72s3.42-1.5,3.42-3.69v-8.7h2.82v11.76a24.27,24.27,0,0,0,.15,2.67h-2.7a12.86,12.86,0,0,1-.12-1.74A4.71,4.71,0,0,1,186.56,455Z"/><path d="M199.49,449.91a3.08,3.08,0,0,0,3.36,2.7c1.59,0,2.46-.9,2.46-1.92a2,2,0,0,0-1.86-1.86l-2.46-.54a4.11,4.11,0,0,1-3.6-4c0-2.46,2.31-4.56,5.13-4.56,4,0,5.19,2.58,5.49,3.87l-2.49.93a2.8,2.8,0,0,0-3-2.4,2.18,2.18,0,0,0-2.4,1.92,1.77,1.77,0,0,0,1.65,1.74l2.34,0.51c2.61,0.57,4,2.16,4,4.29s-1.71,4.47-5.28,4.47c-4,0-5.64-2.55-5.88-4.2Z"/><path d="M403.69,434.91a4.73,4.73,0,1,1-4.8,4.71A4.8,4.8,0,0,1,403.69,434.91Zm-2.4,19.65,14-19.44H418l-13.92,19.44h-2.76Zm2.4-12.57a2.36,2.36,0,1,0-2.31-2.37A2.27,2.27,0,0,0,403.69,442Zm11.88,3.36a4.73,4.73,0,1,1-4.8,4.71A4.8,4.8,0,0,1,415.57,445.35Zm0,7.08a2.36,2.36,0,1,0-2.31-2.37A2.27,2.27,0,0,0,415.57,452.43Z"/><path class="cls-3" d="M925,485.74H0V404.87H925v80.87Zm-920-5H920V409.87H5v70.87Z"/></svg>