<svg id="Layer_1" data-name="Layer 1" xmlns="http://www.w3.org/2000/svg" viewBox="0 0 807.7 110.57"><defs><style>.cls-1{fill:#e51b24;}.cls-2{fill:#231f20;}</style></defs><title>Slide-4-Array</title><path d="M8.7,23.55H5.85L0,9.12H3.18L7.29,20.25,11.43,9.12h3Z"/><path d="M20.49,15.3l3.9-.57a1.05,1.05,0,0,0,1.11-1.08c0-1.41-.93-2.58-3.12-2.58A3.06,3.06,0,0,0,19.11,14l-2.7-.63c0.3-2.76,2.79-4.68,5.91-4.68,4.32,0,6,2.46,6,5.28v7.23a13.56,13.56,0,0,0,.18,2.37H25.74a10.55,10.55,0,0,1-.15-1.95A5.26,5.26,0,0,1,20.94,24c-2.94,0-4.83-2-4.83-4.32C16.11,17.1,18,15.66,20.49,15.3Zm5,2.07V16.71l-4.41.66A2.16,2.16,0,0,0,19,19.53a2.19,2.19,0,0,0,2.34,2.1C23.64,21.63,25.5,20.52,25.5,17.37Z"/><path d="M40.71,12a8.79,8.79,0,0,0-1.23-.09c-2.37,0-4,1.26-4,4.44v7.23H32.7V9.12h2.76v2.52a4.52,4.52,0,0,1,4.32-2.76,5.33,5.33,0,0,1,.93.09v3Z"/><path class="cls-1" d="M40.76,106.88V94.12h4.47c3.24,0,6.07,2.21,6.07,6.41s-2.86,6.36-6.1,6.36H40.76Zm4.38-1.57c2.36,0,4.34-1.58,4.34-4.79s-1.94-4.84-4.3-4.84H42.52v9.63h2.61Z"/><path class="cls-1" d="M61.08,104.42a3.93,3.93,0,0,1-3.89,2.74A4.62,4.62,0,0,1,57,98c2.67,0,4.16,1.84,4.16,4.54a3.8,3.8,0,0,1,0,.54H54.58a2.57,2.57,0,0,0,2.61,2.63,2.36,2.36,0,0,0,2.43-1.75Zm-1.71-2.75A2.18,2.18,0,0,0,57,99.45a2.33,2.33,0,0,0-2.36,2.21h4.74Z"/><path class="cls-1" d="M64,104.09a1.85,1.85,0,0,0,2,1.62,1.28,1.28,0,0,0,1.48-1.15,1.2,1.2,0,0,0-1.12-1.12l-1.48-.32a2.46,2.46,0,0,1-2.16-2.43A3,3,0,0,1,65.83,98a3.07,3.07,0,0,1,3.29,2.32l-1.49.56a1.68,1.68,0,0,0-1.8-1.44,1.31,1.31,0,0,0-1.44,1.15,1.06,1.06,0,0,0,1,1l1.4,0.31a2.63,2.63,0,0,1,2.39,2.57A2.87,2.87,0,0,1,66,107.15a3.27,3.27,0,0,1-3.53-2.52Z"/><path class="cls-1" d="M72.35,102.54c0,2,1.24,3,2.65,3a2.35,2.35,0,0,0,2.41-1.78l1.49,0.65a4,4,0,0,1-3.91,2.7A4.61,4.61,0,0,1,75,98a3.77,3.77,0,0,1,3.85,2.75l-1.53.65A2.27,2.27,0,0,0,75,99.52C73.61,99.52,72.35,100.53,72.35,102.54Z"/><path class="cls-1" d="M85.69,99.93a5.27,5.27,0,0,0-.74-0.05c-1.42,0-2.38.76-2.38,2.66v4.34H80.88V98.22h1.66v1.51a2.71,2.71,0,0,1,2.59-1.66,3.24,3.24,0,0,1,.56.05v1.8Z"/><path class="cls-1" d="M88.31,93.72a1.22,1.22,0,1,1-1.21,1.22A1.21,1.21,0,0,1,88.31,93.72Zm-0.83,13.16V98.22h1.67v8.66H87.49Z"/><path class="cls-1" d="M92,110.3V98.22h1.64v1.35A3.19,3.19,0,0,1,96.58,98c2.59,0,4,2,4,4.52s-1.49,4.57-4,4.57a3.22,3.22,0,0,1-2.81-1.4v4.59H92Zm4.23-10.79c-1.55,0-2.58,1.3-2.58,3s1,3.06,2.58,3.06,2.56-1.28,2.56-3.06S97.86,99.52,96.27,99.52Z"/><path class="cls-1" d="M104.89,98.22h1.87v1.53h-1.87v4.5a1,1,0,0,0,1.21,1.19,3.41,3.41,0,0,0,.67-0.07v1.44a3.71,3.71,0,0,1-1.15.16,2.25,2.25,0,0,1-2.41-2.47V99.75h-1.66V98.22H102a1.21,1.21,0,0,0,1.33-1.33v-1.4h1.55v2.74Z"/><path class="cls-1" d="M109.84,93.72a1.22,1.22,0,1,1-1.21,1.22A1.21,1.21,0,0,1,109.84,93.72ZM109,106.88V98.22h1.67v8.66H109Z"/><path class="cls-1" d="M117.53,106.88h-1.71l-3.51-8.66h1.91l2.47,6.68,2.48-6.68H121Z"/><path class="cls-1" d="M129.88,104.42a3.93,3.93,0,0,1-3.89,2.74,4.62,4.62,0,0,1-.22-9.2c2.67,0,4.16,1.84,4.16,4.54a3.89,3.89,0,0,1,0,.54h-6.52a2.57,2.57,0,0,0,2.61,2.63,2.36,2.36,0,0,0,2.43-1.75Zm-1.71-2.75a2.18,2.18,0,0,0-2.38-2.21,2.33,2.33,0,0,0-2.36,2.21h4.74Z"/><path class="cls-1" d="M138.28,106.88h-1.69V98.22h1.66v1.24A3,3,0,0,1,140.91,98c2.07,0,3.1,1.49,3.1,3.42v5.49h-1.69v-5.2a1.88,1.88,0,0,0-2-2.18c-1.33,0-2,1.06-2,2.38v5Z"/><path class="cls-1" d="M148.79,101.93l2.34-.34a0.63,0.63,0,0,0,.67-0.65c0-.85-0.56-1.55-1.87-1.55a1.84,1.84,0,0,0-2,1.75l-1.62-.38A3.34,3.34,0,0,1,149.89,98c2.59,0,3.6,1.48,3.6,3.17v4.34a8.15,8.15,0,0,0,.11,1.42h-1.66a6.32,6.32,0,0,1-.09-1.17,3.16,3.16,0,0,1-2.79,1.44,2.7,2.7,0,0,1-2.9-2.59C146.17,103,147.3,102.15,148.79,101.93Zm3,1.24v-0.4l-2.65.4a1.29,1.29,0,0,0-1.26,1.3,1.31,1.31,0,0,0,1.4,1.26A2.27,2.27,0,0,0,151.8,103.17Z"/><path class="cls-1" d="M156.12,106.88V98.22h1.62v1.15a3,3,0,0,1,2.63-1.4A2.71,2.71,0,0,1,163,99.61a3.11,3.11,0,0,1,2.9-1.64,3,3,0,0,1,3,3.29v5.62h-1.67v-5.44a1.74,1.74,0,0,0-1.84-2,2,2,0,0,0-2,2.18v5.24h-1.69v-5.44a1.74,1.74,0,0,0-1.84-2,2,2,0,0,0-2,2.2v5.22h-1.67Z"/><path class="cls-1" d="M179.09,104.42a3.93,3.93,0,0,1-3.89,2.74A4.62,4.62,0,0,1,175,98c2.67,0,4.16,1.84,4.16,4.54a3.8,3.8,0,0,1,0,.54h-6.52a2.57,2.57,0,0,0,2.61,2.63,2.36,2.36,0,0,0,2.43-1.75Zm-1.71-2.75A2.18,2.18,0,0,0,175,99.45a2.33,2.33,0,0,0-2.36,2.21h4.74Z"/><path class="cls-1" d="M186.81,107a2.3,2.3,0,0,0,2.36,2.13c1.82,0,2.65-.94,2.65-2.81V105a2.88,2.88,0,0,1-2.65,1.42,4.21,4.21,0,0,1,0-8.41,2.73,2.73,0,0,1,2.66,1.37V98.22h1.67v8c0,2.2-1.08,4.34-4.34,4.34a3.79,3.79,0,0,1-4-3.22Zm5.08-4.7a2.5,2.5,0,1,0-2.47,2.77A2.49,2.49,0,0,0,191.89,102.27Z"/><path class="cls-1" d="M204.34,102.54A4.43,4.43,0,1,1,199.91,98,4.37,4.37,0,0,1,204.34,102.54Zm-1.73,0a2.72,2.72,0,1,0-5.4,0c0,2,1.26,3.1,2.7,3.1S202.61,104.56,202.61,102.54Z"/><path class="cls-1" d="M214,104.42a3.93,3.93,0,0,1-3.89,2.74,4.62,4.62,0,0,1-.22-9.2c2.67,0,4.16,1.84,4.16,4.54a3.89,3.89,0,0,1,0,.54h-6.52a2.57,2.57,0,0,0,2.61,2.63,2.36,2.36,0,0,0,2.43-1.75Zm-1.71-2.75A2.18,2.18,0,0,0,210,99.45a2.33,2.33,0,0,0-2.36,2.21h4.74Z"/><path class="cls-1" d="M217,104.09a1.85,1.85,0,0,0,2,1.62,1.28,1.28,0,0,0,1.48-1.15,1.2,1.2,0,0,0-1.12-1.12l-1.48-.32a2.46,2.46,0,0,1-2.16-2.43A3,3,0,0,1,218.79,98a3.07,3.07,0,0,1,3.3,2.32l-1.49.56a1.68,1.68,0,0,0-1.8-1.44,1.31,1.31,0,0,0-1.44,1.15,1.06,1.06,0,0,0,1,1l1.4,0.31a2.63,2.63,0,0,1,2.39,2.57,2.87,2.87,0,0,1-3.17,2.68,3.27,3.27,0,0,1-3.53-2.52Z"/><path class="cls-1" d="M230.58,106.88h-1.69v-13h1.69v5.38A3.06,3.06,0,0,1,233.21,98c2.07,0,3.1,1.49,3.1,3.42v5.49h-1.69v-5.2a1.88,1.88,0,0,0-2-2.18,2.07,2.07,0,0,0-2,2.29v5.1Z"/><path class="cls-1" d="M246.55,104.42a3.93,3.93,0,0,1-3.89,2.74,4.62,4.62,0,0,1-.22-9.2c2.67,0,4.16,1.84,4.16,4.54a3.8,3.8,0,0,1,0,.54h-6.52a2.57,2.57,0,0,0,2.61,2.63,2.36,2.36,0,0,0,2.43-1.75Zm-1.71-2.75a2.18,2.18,0,0,0-2.38-2.21,2.33,2.33,0,0,0-2.36,2.21h4.74Z"/><path class="cls-1" d="M253.57,99.93a5.27,5.27,0,0,0-.74-0.05c-1.42,0-2.38.76-2.38,2.66v4.34h-1.69V98.22h1.66v1.51A2.71,2.71,0,0,1,253,98.08a3.24,3.24,0,0,1,.56.05v1.8Z"/><path class="cls-1" d="M262.82,104.42a3.93,3.93,0,0,1-3.89,2.74,4.62,4.62,0,0,1-.22-9.2c2.67,0,4.16,1.84,4.16,4.54a3.89,3.89,0,0,1,0,.54h-6.52a2.57,2.57,0,0,0,2.61,2.63,2.36,2.36,0,0,0,2.43-1.75Zm-1.71-2.75a2.18,2.18,0,0,0-2.38-2.21,2.33,2.33,0,0,0-2.36,2.21h4.74Z"/><path d="M273,13.17V10.86h13.89v2.31H273ZM273,19V16.65h13.89V19H273Z"/><path d="M299,28V0h5.79V2.28h-3.33V25.74h3.33V28H299Z"/><path d="M319.63,19.44A6.54,6.54,0,0,1,313.15,24c-3.87,0-7.26-2.82-7.26-7.71,0-4.53,3.27-7.62,6.9-7.62,4.44,0,6.93,3.06,6.93,7.56a6.36,6.36,0,0,1-.06.9H308.8a4.28,4.28,0,0,0,4.35,4.38,3.93,3.93,0,0,0,4-2.91Zm-2.85-4.59a3.64,3.64,0,0,0-4-3.69,3.88,3.88,0,0,0-3.93,3.69h7.89Z"/><path d="M323.32,23.55V1.83h2.82V23.55h-2.82Z"/><path d="M343.51,19.44A6.54,6.54,0,0,1,337,24c-3.87,0-7.26-2.82-7.26-7.71,0-4.53,3.27-7.62,6.9-7.62,4.44,0,6.93,3.06,6.93,7.56a6.36,6.36,0,0,1-.06.9H332.68A4.28,4.28,0,0,0,337,21.51a3.93,3.93,0,0,0,4-2.91Zm-2.85-4.59a3.64,3.64,0,0,0-4-3.69,3.88,3.88,0,0,0-3.93,3.69h7.89Z"/><path d="M347.2,23.55V9.12h2.7V11a5,5,0,0,1,4.38-2.34,4.51,4.51,0,0,1,4.32,2.73,5.18,5.18,0,0,1,4.83-2.73c2.52,0,5,1.71,5,5.49v9.36h-2.79V14.49c0-1.89-.93-3.3-3.06-3.3a3.36,3.36,0,0,0-3.33,3.63v8.73h-2.82V14.49c0-1.86-.9-3.3-3.06-3.3A3.35,3.35,0,0,0,350,14.85v8.7H347.2Z"/><path d="M385.48,19.44A6.54,6.54,0,0,1,379,24c-3.87,0-7.26-2.82-7.26-7.71,0-4.53,3.27-7.62,6.9-7.62,4.44,0,6.93,3.06,6.93,7.56a6.36,6.36,0,0,1-.06.9H374.65A4.28,4.28,0,0,0,379,21.51a3.93,3.93,0,0,0,4-2.91Zm-2.85-4.59a3.64,3.64,0,0,0-4-3.69,3.88,3.88,0,0,0-3.93,3.69h7.89Z"/><path d="M392,23.55h-2.82V9.12h2.76v2.07a4.94,4.94,0,0,1,4.44-2.49c3.45,0,5.16,2.49,5.16,5.7v9.15h-2.82V14.88c0-2-.84-3.63-3.36-3.63-2.22,0-3.36,1.77-3.36,4v8.34Z"/><path d="M409.81,9.12h3.12v2.55h-3.12v7.5a1.71,1.71,0,0,0,2,2,5.71,5.71,0,0,0,1.11-.12v2.4a6.16,6.16,0,0,1-1.92.27,3.75,3.75,0,0,1-4-4.11V11.67h-2.76V9.12H405a2,2,0,0,0,2.22-2.22V4.56h2.58V9.12Z"/><path d="M418.57,19.62c1.29,0,2.43,1,2.43,2.85,0,4-2.58,5.61-4.44,5.85V26.76a3.4,3.4,0,0,0,2.49-3.24,1.32,1.32,0,0,1-.66.15,1.93,1.93,0,0,1-2-2A2.09,2.09,0,0,1,418.57,19.62Z"/><path d="M445.57,19.44A6.54,6.54,0,0,1,439.09,24c-3.87,0-7.26-2.82-7.26-7.71,0-4.53,3.27-7.62,6.9-7.62,4.44,0,6.93,3.06,6.93,7.56a6.27,6.27,0,0,1-.06.9H434.74a4.28,4.28,0,0,0,4.35,4.38,3.93,3.93,0,0,0,4-2.91Zm-2.85-4.59a3.64,3.64,0,0,0-4-3.69,3.88,3.88,0,0,0-3.93,3.69h7.89Z"/><path d="M449.26,23.55V1.83h2.82V23.55h-2.82Z"/><path d="M469.45,19.44A6.54,6.54,0,0,1,463,24c-3.87,0-7.26-2.82-7.26-7.71,0-4.53,3.27-7.62,6.9-7.62,4.44,0,6.93,3.06,6.93,7.56a6.27,6.27,0,0,1-.06.9H458.62A4.28,4.28,0,0,0,463,21.51a3.93,3.93,0,0,0,4-2.91Zm-2.85-4.59a3.64,3.64,0,0,0-4-3.69,3.88,3.88,0,0,0-3.93,3.69h7.89Z"/><path d="M473.14,23.55V9.12h2.7V11a5,5,0,0,1,4.38-2.34,4.51,4.51,0,0,1,4.32,2.73,5.18,5.18,0,0,1,4.83-2.73c2.52,0,5,1.71,5,5.49v9.36h-2.79V14.49c0-1.89-.93-3.3-3.06-3.3a3.36,3.36,0,0,0-3.33,3.63v8.73h-2.82V14.49c0-1.86-.9-3.3-3.06-3.3a3.35,3.35,0,0,0-3.36,3.66v8.7h-2.79Z"/><path d="M511.42,19.44A6.54,6.54,0,0,1,504.94,24c-3.87,0-7.26-2.82-7.26-7.71,0-4.53,3.27-7.62,6.9-7.62,4.44,0,6.93,3.06,6.93,7.56a6.27,6.27,0,0,1-.06.9H500.59a4.28,4.28,0,0,0,4.35,4.38,3.93,3.93,0,0,0,4-2.91Zm-2.85-4.59a3.64,3.64,0,0,0-4-3.69,3.88,3.88,0,0,0-3.93,3.69h7.89Z"/><path d="M517.93,23.55h-2.82V9.12h2.76v2.07a4.94,4.94,0,0,1,4.44-2.49c3.45,0,5.16,2.49,5.16,5.7v9.15h-2.82V14.88c0-2-.84-3.63-3.36-3.63-2.22,0-3.36,1.77-3.36,4v8.34Z"/><path d="M535.75,9.12h3.12v2.55h-3.12v7.5a1.71,1.71,0,0,0,2,2,5.71,5.71,0,0,0,1.11-.12v2.4a6.16,6.16,0,0,1-1.92.27,3.75,3.75,0,0,1-4-4.11V11.67h-2.76V9.12H531a2,2,0,0,0,2.22-2.22V4.56h2.58V9.12Z"/><path d="M544.51,19.62c1.29,0,2.43,1,2.43,2.85,0,4-2.58,5.61-4.44,5.85V26.76A3.4,3.4,0,0,0,545,23.52a1.31,1.31,0,0,1-.66.15,1.93,1.93,0,0,1-2-2A2.09,2.09,0,0,1,544.51,19.62Z"/><path d="M571.51,19.44A6.54,6.54,0,0,1,565,24c-3.87,0-7.26-2.82-7.26-7.71,0-4.53,3.27-7.62,6.9-7.62,4.44,0,6.93,3.06,6.93,7.56a6.3,6.3,0,0,1-.06.9H560.68A4.29,4.29,0,0,0,565,21.51a3.93,3.93,0,0,0,4-2.91Zm-2.85-4.59a3.64,3.64,0,0,0-4-3.69,3.88,3.88,0,0,0-3.93,3.69h7.89Z"/><path d="M575.2,23.55V1.83H578V23.55H575.2Z"/><path d="M595.39,19.44A6.54,6.54,0,0,1,588.91,24c-3.87,0-7.26-2.82-7.26-7.71,0-4.53,3.27-7.62,6.9-7.62,4.44,0,6.93,3.06,6.93,7.56a6.27,6.27,0,0,1-.06.9H584.56a4.28,4.28,0,0,0,4.35,4.38,3.93,3.93,0,0,0,4-2.91Zm-2.85-4.59a3.64,3.64,0,0,0-4-3.69,3.88,3.88,0,0,0-3.93,3.69h7.89Z"/><path d="M599.08,23.55V9.12h2.7V11a5,5,0,0,1,4.38-2.34,4.51,4.51,0,0,1,4.32,2.73,5.18,5.18,0,0,1,4.83-2.73c2.52,0,5,1.71,5,5.49v9.36H617.5V14.49c0-1.89-.93-3.3-3.06-3.3a3.36,3.36,0,0,0-3.33,3.63v8.73h-2.82V14.49c0-1.86-.9-3.3-3.06-3.3a3.35,3.35,0,0,0-3.36,3.66v8.7h-2.79Z"/><path d="M637.36,19.44A6.54,6.54,0,0,1,630.88,24c-3.87,0-7.26-2.82-7.26-7.71,0-4.53,3.27-7.62,6.9-7.62,4.44,0,6.93,3.06,6.93,7.56a6.27,6.27,0,0,1-.06.9H626.53a4.28,4.28,0,0,0,4.35,4.38,3.93,3.93,0,0,0,4-2.91Zm-2.85-4.59a3.64,3.64,0,0,0-4-3.69,3.88,3.88,0,0,0-3.93,3.69h7.89Z"/><path d="M643.87,23.55H641V9.12h2.76v2.07a4.94,4.94,0,0,1,4.44-2.49c3.45,0,5.16,2.49,5.16,5.7v9.15h-2.82V14.88c0-2-.84-3.63-3.36-3.63-2.22,0-3.36,1.77-3.36,4v8.34Z"/><path d="M661.69,9.12h3.12v2.55h-3.12v7.5a1.71,1.71,0,0,0,2,2,5.71,5.71,0,0,0,1.11-.12v2.4a6.16,6.16,0,0,1-1.92.27,3.75,3.75,0,0,1-4-4.11V11.67h-2.76V9.12h0.78a2,2,0,0,0,2.22-2.22V4.56h2.58V9.12Z"/><path d="M670.45,19.62c1.29,0,2.43,1,2.43,2.85,0,4-2.58,5.61-4.44,5.85V26.76a3.4,3.4,0,0,0,2.49-3.24,1.31,1.31,0,0,1-.66.15,1.93,1.93,0,0,1-2-2A2.09,2.09,0,0,1,670.45,19.62Z"/><path d="M697.45,19.44A6.54,6.54,0,0,1,691,24c-3.87,0-7.26-2.82-7.26-7.71,0-4.53,3.27-7.62,6.9-7.62,4.44,0,6.93,3.06,6.93,7.56a6.27,6.27,0,0,1-.06.9H686.62A4.28,4.28,0,0,0,691,21.51a3.93,3.93,0,0,0,4-2.91Zm-2.85-4.59a3.64,3.64,0,0,0-4-3.69,3.88,3.88,0,0,0-3.93,3.69h7.89Z"/><path d="M701.14,23.55V1.83H704V23.55h-2.82Z"/><path d="M721.33,19.44A6.54,6.54,0,0,1,714.85,24c-3.87,0-7.26-2.82-7.26-7.71,0-4.53,3.27-7.62,6.9-7.62,4.44,0,6.93,3.06,6.93,7.56a6.27,6.27,0,0,1-.06.9H710.5a4.28,4.28,0,0,0,4.35,4.38,3.93,3.93,0,0,0,4-2.91Zm-2.85-4.59a3.64,3.64,0,0,0-4-3.69,3.88,3.88,0,0,0-3.93,3.69h7.89Z"/><path d="M725,23.55V9.12h2.7V11A5,5,0,0,1,732.1,8.7a4.51,4.51,0,0,1,4.32,2.73,5.18,5.18,0,0,1,4.83-2.73c2.52,0,5,1.71,5,5.49v9.36h-2.79V14.49c0-1.89-.93-3.3-3.06-3.3A3.36,3.36,0,0,0,737,14.82v8.73h-2.82V14.49c0-1.86-.9-3.3-3.06-3.3a3.35,3.35,0,0,0-3.36,3.66v8.7H725Z"/><path d="M763.3,19.44A6.54,6.54,0,0,1,756.82,24c-3.87,0-7.26-2.82-7.26-7.71,0-4.53,3.27-7.62,6.9-7.62,4.44,0,6.93,3.06,6.93,7.56a6.27,6.27,0,0,1-.06.9H752.47a4.28,4.28,0,0,0,4.35,4.38,3.93,3.93,0,0,0,4-2.91Zm-2.85-4.59a3.64,3.64,0,0,0-4-3.69,3.88,3.88,0,0,0-3.93,3.69h7.89Z"/><path d="M769.81,23.55H767V9.12h2.76v2.07a4.94,4.94,0,0,1,4.44-2.49c3.45,0,5.16,2.49,5.16,5.7v9.15h-2.82V14.88c0-2-.84-3.63-3.36-3.63-2.22,0-3.36,1.77-3.36,4v8.34Z"/><path d="M787.63,9.12h3.12v2.55h-3.12v7.5a1.71,1.71,0,0,0,2,2,5.71,5.71,0,0,0,1.11-.12v2.4a6.16,6.16,0,0,1-1.92.27,3.75,3.75,0,0,1-4-4.11V11.67H782V9.12h0.78A2,2,0,0,0,785,6.9V4.56h2.58V9.12Z"/><path d="M792.55,28V25.74h3.33V2.28h-3.33V0h5.79V28h-5.79Z"/><path d="M805.39,19.8c1.23,0,2.31.9,2.31,2.7,0,3.75-2.46,5.31-4.23,5.55V26.58a3.24,3.24,0,0,0,2.37-3.09,1.17,1.17,0,0,1-.63.15,1.85,1.85,0,0,1-1.92-1.95A2,2,0,0,1,805.39,19.8Zm0-10.83a2.09,2.09,0,0,1,2.1,2.1,2.06,2.06,0,0,1-2.1,2.07,2,2,0,0,1-2.07-2.07A2.06,2.06,0,0,1,805.39,9Z"/><rect class="cls-2" x="48.37" y="22.55" width="209.33" height="2"/><rect class="cls-1" x="150.37" y="46.72" width="2" height="37.49"/><polygon class="cls-1" points="156.35 48.18 151.37 39.55 146.38 48.18 156.35 48.18"/></svg>