<svg id="Layer_1" data-name="Layer 1" xmlns="http://www.w3.org/2000/svg" viewBox="0 0 923 328.66"><defs><style>.cls-1{fill:#ececec;}.cls-2{fill:#231f20;}</style></defs><title>Slide-28-Assignment-Operators</title><rect class="cls-1" x="1.5" y="1.5" width="920" height="87.52"/><path class="cls-2" d="M921.5,90.52H1.5A1.5,1.5,0,0,1,0,89V1.5A1.5,1.5,0,0,1,1.5,0h920A1.5,1.5,0,0,1,923,1.5V89A1.5,1.5,0,0,1,921.5,90.52ZM3,87.52H920V3H3V87.52Z"/><path class="cls-2" d="M921.5,328.66H1.5a1.5,1.5,0,0,1-1.5-1.5V89a1.5,1.5,0,0,1,1.5-1.5h920A1.5,1.5,0,0,1,923,89V327.16A1.5,1.5,0,0,1,921.5,328.66ZM3,325.66H920V90.52H3V325.66Z"/><rect class="cls-2" x="3.5" y="170.66" width="916" height="3"/><rect class="cls-2" x="3.5" y="248.16" width="916" height="3"/><rect class="cls-2" x="3.5" y="325.66" width="916" height="3"/><rect class="cls-2" x="415" y="1.5" width="3" height="325.74"/><rect class="cls-2" x="233" y="1.5" width="3" height="325.74"/><rect class="cls-2" x="560.33" y="1.5" width="3" height="325.74"/><rect class="cls-2" x="727" y="1.5" width="3" height="325.74"/><path d="M40.32,117.15H30.9l-2.25,5.94H25.5L34,101.82h3.39l8.46,21.27H42.63ZM32,114.42h7.32l-3.69-9.54Z"/><path d="M49.71,118.44a3.08,3.08,0,0,0,3.36,2.7c1.59,0,2.46-.9,2.46-1.92a2,2,0,0,0-1.86-1.86l-2.46-.54a4.11,4.11,0,0,1-3.6-4c0-2.46,2.31-4.56,5.13-4.56,4,0,5.19,2.58,5.49,3.87l-2.49.93a2.8,2.8,0,0,0-3-2.4,2.18,2.18,0,0,0-2.4,1.92A1.77,1.77,0,0,0,52,114.27l2.34,0.51c2.61,0.57,4,2.16,4,4.29s-1.71,4.47-5.28,4.47c-4,0-5.64-2.55-5.88-4.2Z"/><path d="M63.27,118.44a3.08,3.08,0,0,0,3.36,2.7c1.59,0,2.46-.9,2.46-1.92a2,2,0,0,0-1.86-1.86l-2.46-.54a4.11,4.11,0,0,1-3.6-4c0-2.46,2.31-4.56,5.13-4.56,4,0,5.19,2.58,5.49,3.87L69.3,113a2.8,2.8,0,0,0-3-2.4,2.18,2.18,0,0,0-2.4,1.92,1.77,1.77,0,0,0,1.65,1.74l2.34,0.51c2.61,0.57,4,2.16,4,4.29s-1.71,4.47-5.28,4.47c-4,0-5.64-2.55-5.88-4.2Z"/><path d="M77,101.16a2,2,0,1,1-2,2A2,2,0,0,1,77,101.16Zm-1.38,21.93V108.66h2.79v14.43H75.63Z"/><path d="M84.9,123.24a3.84,3.84,0,0,0,3.93,3.54c3,0,4.41-1.56,4.41-4.68V120a4.8,4.8,0,0,1-4.41,2.37c-3.84,0-6.63-2.91-6.63-7,0-3.9,2.67-7,6.63-7,2.22,0,3.72.84,4.44,2.28v-2h2.79V122c0,3.66-1.8,7.23-7.23,7.23-3.6,0-6.3-2.28-6.66-5.37Zm8.46-7.83c0-2.79-1.68-4.62-4.11-4.62s-4.17,1.83-4.17,4.62S86.7,120,89.25,120,93.36,118.2,93.36,115.41Z"/><path d="M103.38,123.09h-2.82V108.66h2.76v2.07a4.94,4.94,0,0,1,4.44-2.49c3.45,0,5.16,2.49,5.16,5.7v9.15H110.1v-8.67c0-2-.84-3.63-3.36-3.63-2.22,0-3.36,1.77-3.36,4v8.34Z"/><path d="M131.52,123.09h-2.85l-5.85-14.43H126l4.11,11.13,4.14-11.13h3Z"/><path d="M143.31,114.84l3.9-.57a1.05,1.05,0,0,0,1.11-1.08c0-1.41-.93-2.58-3.12-2.58a3.06,3.06,0,0,0-3.27,2.91l-2.7-.63c0.3-2.76,2.79-4.68,5.91-4.68,4.32,0,6,2.46,6,5.28v7.23a13.56,13.56,0,0,0,.18,2.37h-2.76a10.55,10.55,0,0,1-.15-1.95,5.26,5.26,0,0,1-4.65,2.4c-2.94,0-4.83-2-4.83-4.32C138.93,116.64,140.82,115.2,143.31,114.84Zm5,2.07v-0.66l-4.41.66a2.16,2.16,0,0,0-2.1,2.16,2.19,2.19,0,0,0,2.34,2.1C146.46,121.17,148.32,120.06,148.32,116.91Z"/><path d="M155.52,123.09V101.37h2.82v21.72h-2.82Z"/><path d="M168.24,123.54c-3.36,0-5.4-2.52-5.4-5.79v-9.09h2.82v8.67c0,2,.9,3.72,3.27,3.72s3.42-1.5,3.42-3.69v-8.7h2.82v11.76a24.26,24.26,0,0,0,.15,2.67h-2.7a12.86,12.86,0,0,1-.12-1.74A4.71,4.71,0,0,1,168.24,123.54Z"/><path d="M192.39,119a6.54,6.54,0,0,1-6.48,4.56c-3.87,0-7.26-2.82-7.26-7.71,0-4.53,3.27-7.62,6.9-7.62,4.44,0,6.93,3.06,6.93,7.56a6.37,6.37,0,0,1-.06.9H181.56a4.28,4.28,0,0,0,4.35,4.38,3.93,3.93,0,0,0,4-2.91Zm-2.85-4.59a3.64,3.64,0,0,0-4-3.69,3.88,3.88,0,0,0-3.93,3.69h7.89Z"/><path d="M44.76,139.66h3.12v2.55H44.76v7.5a1.71,1.71,0,0,0,2,2,5.71,5.71,0,0,0,1.11-.12V154a6.16,6.16,0,0,1-1.92.27,3.75,3.75,0,0,1-4-4.11v-7.92H39.18v-2.55H40a2,2,0,0,0,2.22-2.22V135.1h2.58v4.56Z"/><path d="M65,146.86c0,4.41-3.06,7.68-7.38,7.68s-7.38-3.27-7.38-7.68A7.38,7.38,0,1,1,65,146.86Zm-2.88,0c0-3.33-2.1-5.13-4.5-5.13s-4.5,1.8-4.5,5.13,2.1,5.16,4.5,5.16S62.16,150.22,62.16,146.86Z"/><path d="M82.74,154.09H79.89L74,139.66h3.18l4.11,11.13,4.14-11.13h3Z"/><path d="M94.53,145.84l3.9-.57a1.05,1.05,0,0,0,1.11-1.08c0-1.41-.93-2.58-3.12-2.58a3.06,3.06,0,0,0-3.27,2.91l-2.7-.63c0.3-2.76,2.79-4.68,5.91-4.68,4.32,0,6,2.46,6,5.28v7.23a13.56,13.56,0,0,0,.18,2.37H99.78a10.55,10.55,0,0,1-.15-1.95,5.26,5.26,0,0,1-4.65,2.4c-2.94,0-4.83-2-4.83-4.32C90.15,147.64,92,146.2,94.53,145.84Zm5,2.07v-0.66l-4.41.66a2.16,2.16,0,0,0-2.1,2.16,2.19,2.19,0,0,0,2.34,2.1C97.68,152.17,99.54,151.06,99.54,147.91Z"/><path d="M114.75,142.51a8.79,8.79,0,0,0-1.23-.09c-2.37,0-4,1.26-4,4.44v7.23h-2.82V139.66h2.76v2.52a4.52,4.52,0,0,1,4.32-2.76,5.33,5.33,0,0,1,.93.09v3Z"/><path d="M119.13,132.16a2,2,0,1,1-2,2A2,2,0,0,1,119.13,132.16Zm-1.38,21.93V139.66h2.79v14.43h-2.79Z"/><path d="M128.82,145.84l3.9-.57a1.05,1.05,0,0,0,1.11-1.08c0-1.41-.93-2.58-3.12-2.58a3.06,3.06,0,0,0-3.27,2.91l-2.7-.63c0.3-2.76,2.79-4.68,5.91-4.68,4.32,0,6,2.46,6,5.28v7.23a13.56,13.56,0,0,0,.18,2.37h-2.76a10.55,10.55,0,0,1-.15-1.95,5.26,5.26,0,0,1-4.65,2.4c-2.94,0-4.83-2-4.83-4.32C124.44,147.64,126.33,146.2,128.82,145.84Zm5,2.07v-0.66l-4.41.66a2.16,2.16,0,0,0-2.1,2.16,2.19,2.19,0,0,0,2.34,2.1C132,152.17,133.83,151.06,133.83,147.91Z"/><path d="M141,154.09V132.37h2.79v9.33a5.26,5.26,0,0,1,4.77-2.46c4.38,0,6.63,3.36,6.63,7.56s-2.43,7.68-6.72,7.68a5.15,5.15,0,0,1-4.68-2.49v2.1H141Zm7-12.36c-2.49,0-4.29,1.95-4.29,5.07s1.8,5.16,4.29,5.16,4.26-2,4.26-5.16S150.69,141.73,148.08,141.73Z"/><path d="M158.82,154.09V132.37h2.82v21.72h-2.82Z"/><path d="M179,150a6.54,6.54,0,0,1-6.48,4.56c-3.87,0-7.26-2.82-7.26-7.71,0-4.53,3.27-7.62,6.9-7.62,4.44,0,6.93,3.06,6.93,7.56a6.37,6.37,0,0,1-.06.9H168.18a4.28,4.28,0,0,0,4.35,4.38,3.93,3.93,0,0,0,4-2.91Zm-2.85-4.59a3.64,3.64,0,0,0-4-3.69,3.88,3.88,0,0,0-3.93,3.69h7.89Z"/><path d="M39.71,200H30.29L28,205.93H24.89l8.46-21.27h3.39l8.46,21.27H42Zm-8.37-2.73h7.32L35,187.72Z"/><path d="M57.71,203.74a4.83,4.83,0,0,1-4.47,2.58c-4.23,0-6.84-3.36-6.84-7.65,0-4.08,2.76-7.56,6.84-7.56,2.55,0,3.93,1.26,4.41,2.43v-9.33h2.79v19a22.9,22.9,0,0,0,.15,2.67H57.86a12.07,12.07,0,0,1-.15-1.95v-0.24Zm-4.2.09c2.58,0,4.17-2.25,4.17-5.22s-1.56-5-4.14-5-4.26,2.1-4.26,5.07S50.81,203.83,53.51,203.83Z"/><path d="M75.35,203.74a4.83,4.83,0,0,1-4.47,2.58c-4.23,0-6.84-3.36-6.84-7.65,0-4.08,2.76-7.56,6.84-7.56,2.55,0,3.93,1.26,4.41,2.43v-9.33h2.79v19a22.9,22.9,0,0,0,.15,2.67H75.5a12.07,12.07,0,0,1-.15-1.95v-0.24Zm-4.2.09c2.58,0,4.17-2.25,4.17-5.22s-1.56-5-4.14-5-4.26,2.1-4.26,5.07S68.45,203.83,71.15,203.83Z"/><path d="M97,205.93H94.13L88.28,191.5h3.18l4.11,11.13,4.14-11.13h3Z"/><path d="M108.77,197.68l3.9-.57a1.05,1.05,0,0,0,1.11-1.08c0-1.41-.93-2.58-3.12-2.58a3.06,3.06,0,0,0-3.27,2.91l-2.7-.63C105,193,107.48,191,110.6,191c4.32,0,6,2.46,6,5.28v7.23a13.55,13.55,0,0,0,.18,2.37H114a10.54,10.54,0,0,1-.15-1.95,5.26,5.26,0,0,1-4.65,2.4c-2.94,0-4.83-2-4.83-4.32C104.39,199.48,106.28,198,108.77,197.68Zm5,2.07v-0.66l-4.41.66a2.16,2.16,0,0,0-2.1,2.16,2.19,2.19,0,0,0,2.34,2.1C111.92,204,113.78,202.9,113.78,199.75Z"/><path d="M121,205.93V184.21h2.82v21.72H121Z"/><path d="M133.7,206.38c-3.36,0-5.4-2.52-5.4-5.79V191.5h2.82v8.67c0,2,.9,3.72,3.27,3.72s3.42-1.5,3.42-3.69v-8.7h2.82v11.76a24.25,24.25,0,0,0,.15,2.67h-2.7a12.85,12.85,0,0,1-.12-1.74A4.71,4.71,0,0,1,133.7,206.38Z"/><path d="M157.85,201.82a6.54,6.54,0,0,1-6.48,4.56c-3.87,0-7.26-2.82-7.26-7.71,0-4.53,3.27-7.62,6.9-7.62,4.44,0,6.93,3.06,6.93,7.56a6.36,6.36,0,0,1-.06.9H147a4.28,4.28,0,0,0,4.35,4.38,3.93,3.93,0,0,0,4-2.91ZM155,197.23a3.64,3.64,0,0,0-4-3.69,3.88,3.88,0,0,0-3.93,3.69H155Z"/><path d="M172.82,191.5h3.12V194h-3.12v7.5a1.71,1.71,0,0,0,2,2,5.74,5.74,0,0,0,1.11-.12v2.4a6.14,6.14,0,0,1-1.92.27,3.75,3.75,0,0,1-4-4.11V194h-2.76V191.5H168a2,2,0,0,0,2.22-2.22v-2.34h2.58v4.56Z"/><path d="M193.1,198.7c0,4.41-3.06,7.68-7.38,7.68s-7.38-3.27-7.38-7.68A7.38,7.38,0,1,1,193.1,198.7Zm-2.88,0c0-3.33-2.1-5.13-4.5-5.13s-4.5,1.8-4.5,5.13,2.1,5.16,4.5,5.16S190.22,202.06,190.22,198.7Z"/><path d="M65.16,236.93H62.31L56.46,222.5h3.18l4.11,11.13,4.14-11.13h3Z"/><path d="M77,228.68l3.9-.57A1.05,1.05,0,0,0,82,227c0-1.41-.93-2.58-3.12-2.58a3.06,3.06,0,0,0-3.27,2.91l-2.7-.63c0.3-2.76,2.79-4.68,5.91-4.68,4.32,0,6,2.46,6,5.28v7.23a13.55,13.55,0,0,0,.18,2.37H82.2a10.54,10.54,0,0,1-.15-1.95,5.26,5.26,0,0,1-4.65,2.4c-2.94,0-4.83-2-4.83-4.32C72.57,230.48,74.46,229,77,228.68Zm5,2.07v-0.66l-4.41.66a2.16,2.16,0,0,0-2.1,2.16,2.19,2.19,0,0,0,2.34,2.1C80.1,235,82,233.9,82,230.75Z"/><path d="M97.17,225.35a8.72,8.72,0,0,0-1.23-.09c-2.37,0-4,1.26-4,4.44v7.23H89.16V222.5h2.76V225a4.52,4.52,0,0,1,4.32-2.76,5.28,5.28,0,0,1,.93.09v3Z"/><path d="M101.55,215a2,2,0,1,1-2,2A2,2,0,0,1,101.55,215Zm-1.38,21.93V222.5H103v14.43h-2.79Z"/><path d="M111.24,228.68l3.9-.57a1.05,1.05,0,0,0,1.11-1.08c0-1.41-.93-2.58-3.12-2.58a3.06,3.06,0,0,0-3.27,2.91l-2.7-.63c0.3-2.76,2.79-4.68,5.91-4.68,4.32,0,6,2.46,6,5.28v7.23a13.55,13.55,0,0,0,.18,2.37h-2.76a10.54,10.54,0,0,1-.15-1.95,5.26,5.26,0,0,1-4.65,2.4c-2.94,0-4.83-2-4.83-4.32C106.86,230.48,108.75,229,111.24,228.68Zm5,2.07v-0.66l-4.41.66a2.16,2.16,0,0,0-2.1,2.16,2.19,2.19,0,0,0,2.34,2.1C114.39,235,116.25,233.9,116.25,230.75Z"/><path d="M123.45,236.93V215.21h2.79v9.33a5.26,5.26,0,0,1,4.77-2.46c4.38,0,6.63,3.36,6.63,7.56s-2.43,7.68-6.72,7.68a5.15,5.15,0,0,1-4.68-2.49v2.1h-2.79Zm7-12.36c-2.49,0-4.29,2-4.29,5.07s1.8,5.16,4.29,5.16,4.26-2,4.26-5.16S133.11,224.57,130.5,224.57Z"/><path d="M141.24,236.93V215.21h2.82v21.72h-2.82Z"/><path d="M161.43,232.82a6.54,6.54,0,0,1-6.48,4.56c-3.87,0-7.26-2.82-7.26-7.71,0-4.53,3.27-7.62,6.9-7.62,4.44,0,6.93,3.06,6.93,7.56a6.36,6.36,0,0,1-.06.9H150.6a4.28,4.28,0,0,0,4.35,4.38,3.93,3.93,0,0,0,4-2.91Zm-2.85-4.59a3.64,3.64,0,0,0-4-3.69,3.88,3.88,0,0,0-3.93,3.69h7.89Z"/><path d="M26.1,267.73a4.32,4.32,0,0,0-4.5-3.63c-2.4,0-4.11,1.56-4.11,3.54a3.08,3.08,0,0,0,2.73,3.09l3.18,0.69c3.54,0.78,5.52,3,5.52,6,0,3.3-2.82,6.3-7.35,6.3-5.13,0-7.56-3.3-7.95-6.33l2.82-.9a4.83,4.83,0,0,0,5.1,4.56c2.94,0,4.38-1.53,4.38-3.39,0-1.53-1-2.85-3.18-3.3l-3-.66c-3-.66-5.19-2.64-5.19-5.82,0-3.33,3.09-6.33,7-6.33,4.8,0,6.72,3,7.2,5.28Z"/><path d="M37.17,283.69c-3.36,0-5.4-2.52-5.4-5.79v-9.09h2.82v8.67c0,2,.9,3.72,3.27,3.72s3.42-1.5,3.42-3.69v-8.7H44.1v11.76a24.25,24.25,0,0,0,.15,2.67h-2.7a12.85,12.85,0,0,1-.12-1.74A4.71,4.71,0,0,1,37.17,283.69Z"/><path d="M48.9,283.24V261.52h2.79v9.33a5.26,5.26,0,0,1,4.77-2.46c4.38,0,6.63,3.36,6.63,7.56s-2.43,7.68-6.72,7.68a5.15,5.15,0,0,1-4.68-2.49v2.1H48.9Zm7-12.36c-2.49,0-4.29,2-4.29,5.07s1.8,5.16,4.29,5.16,4.26-2,4.26-5.16S58.56,270.88,56,270.88Z"/><path d="M70.32,268.81h3.12v2.55H70.32v7.5a1.71,1.71,0,0,0,2,2,5.74,5.74,0,0,0,1.11-.12v2.4a6.14,6.14,0,0,1-1.92.27,3.75,3.75,0,0,1-4-4.11v-7.92H64.74v-2.55h0.78a2,2,0,0,0,2.22-2.22v-2.34h2.58v4.56Z"/><path d="M84.9,271.66a8.72,8.72,0,0,0-1.23-.09c-2.37,0-4,1.26-4,4.44v7.23H76.89V268.81h2.76v2.52A4.52,4.52,0,0,1,84,268.57a5.28,5.28,0,0,1,.93.09v3Z"/><path d="M91.38,275l3.9-.57a1.05,1.05,0,0,0,1.11-1.08c0-1.41-.93-2.58-3.12-2.58A3.06,3.06,0,0,0,90,273.67L87.3,273c0.3-2.76,2.79-4.68,5.91-4.68,4.32,0,6,2.46,6,5.28v7.23a13.55,13.55,0,0,0,.18,2.37H96.63a10.54,10.54,0,0,1-.15-1.95,5.26,5.26,0,0,1-4.65,2.4c-2.94,0-4.83-2-4.83-4.32C87,276.79,88.89,275.35,91.38,275Zm5,2.07V276.4l-4.41.66a2.16,2.16,0,0,0-2.1,2.16,2.19,2.19,0,0,0,2.34,2.1C94.53,281.32,96.39,280.21,96.39,277.06Z"/><path d="M105.27,276c0,3.3,2.07,5.07,4.41,5.07a3.92,3.92,0,0,0,4-3l2.49,1.08a6.63,6.63,0,0,1-6.51,4.5c-4.2,0-7.29-3.3-7.29-7.68s3.15-7.65,7.26-7.65a6.28,6.28,0,0,1,6.42,4.59L113.52,274a3.79,3.79,0,0,0-3.87-3.06C107.37,271,105.27,272.65,105.27,276Z"/><path d="M123.27,268.81h3.12v2.55h-3.12v7.5a1.71,1.71,0,0,0,2,2,5.74,5.74,0,0,0,1.11-.12v2.4a6.14,6.14,0,0,1-1.92.27,3.75,3.75,0,0,1-4-4.11v-7.92h-2.76v-2.55h0.78a2,2,0,0,0,2.22-2.22v-2.34h2.58v4.56Z"/><path d="M144.24,283.24h-2.85l-5.85-14.43h3.18l4.11,11.13L147,268.81h3Z"/><path d="M156,275l3.9-.57a1.05,1.05,0,0,0,1.11-1.08c0-1.41-.93-2.58-3.12-2.58a3.06,3.06,0,0,0-3.27,2.91L152,273c0.3-2.76,2.79-4.68,5.91-4.68,4.32,0,6,2.46,6,5.28v7.23a13.55,13.55,0,0,0,.18,2.37h-2.76a10.54,10.54,0,0,1-.15-1.95,5.26,5.26,0,0,1-4.65,2.4c-2.94,0-4.83-2-4.83-4.32C151.65,276.79,153.54,275.35,156,275Zm5,2.07V276.4l-4.41.66a2.16,2.16,0,0,0-2.1,2.16,2.19,2.19,0,0,0,2.34,2.1C159.18,281.32,161,280.21,161,277.06Z"/><path d="M168.24,283.24V261.52h2.82v21.72h-2.82Z"/><path d="M181,283.69c-3.36,0-5.4-2.52-5.4-5.79v-9.09h2.82v8.67c0,2,.9,3.72,3.27,3.72s3.42-1.5,3.42-3.69v-8.7h2.82v11.76a24.25,24.25,0,0,0,.15,2.67h-2.7a12.85,12.85,0,0,1-.12-1.74A4.71,4.71,0,0,1,181,283.69Z"/><path d="M205.11,279.13a6.54,6.54,0,0,1-6.48,4.56c-3.87,0-7.26-2.82-7.26-7.71,0-4.53,3.27-7.62,6.9-7.62,4.44,0,6.93,3.06,6.93,7.56a6.36,6.36,0,0,1-.06.9H194.28a4.28,4.28,0,0,0,4.35,4.38,3.93,3.93,0,0,0,4-2.91Zm-2.85-4.59a3.64,3.64,0,0,0-4-3.69,3.88,3.88,0,0,0-3.93,3.69h7.89Z"/><path d="M26.58,302.36v11.88H23.67V302.36H21v-2.55h2.67v-2.43a4.57,4.57,0,0,1,4.74-4.95,3.64,3.64,0,0,1,1.68.3v2.52a3.27,3.27,0,0,0-1.23-.18,2.16,2.16,0,0,0-2.28,2.46v2.28h3.48v2.55H26.58Z"/><path d="M41.1,302.66a8.72,8.72,0,0,0-1.23-.09c-2.37,0-4,1.26-4,4.44v7.23H33.09V299.81h2.76v2.52a4.52,4.52,0,0,1,4.32-2.76,5.28,5.28,0,0,1,.93.09v3Z"/><path d="M57.51,307c0,4.41-3.06,7.68-7.38,7.68s-7.38-3.27-7.38-7.68A7.38,7.38,0,1,1,57.51,307Zm-2.88,0c0-3.33-2.1-5.13-4.5-5.13s-4.5,1.8-4.5,5.13,2.1,5.16,4.5,5.16S54.63,310.37,54.63,307Z"/><path d="M61.11,314.24V299.81h2.7v1.92a5,5,0,0,1,4.38-2.34,4.51,4.51,0,0,1,4.32,2.73,5.18,5.18,0,0,1,4.83-2.73c2.52,0,5,1.71,5,5.49v9.36H79.53v-9.06c0-1.89-.93-3.3-3.06-3.3a3.36,3.36,0,0,0-3.33,3.63v8.73H70.32v-9.06c0-1.86-.9-3.3-3.06-3.3a3.35,3.35,0,0,0-3.36,3.66v8.7H61.11Z"/><path d="M100.92,314.24H98.07l-5.85-14.43H95.4l4.11,11.13,4.14-11.13h3Z"/><path d="M112.71,306l3.9-.57a1.05,1.05,0,0,0,1.11-1.08c0-1.41-.93-2.58-3.12-2.58a3.06,3.06,0,0,0-3.27,2.91l-2.7-.63c0.3-2.76,2.79-4.68,5.91-4.68,4.32,0,6,2.46,6,5.28v7.23a13.55,13.55,0,0,0,.18,2.37H118a10.54,10.54,0,0,1-.15-1.95,5.26,5.26,0,0,1-4.65,2.4c-2.94,0-4.83-2-4.83-4.32C108.33,307.79,110.22,306.35,112.71,306Zm5,2.07V307.4l-4.41.66a2.16,2.16,0,0,0-2.1,2.16,2.19,2.19,0,0,0,2.34,2.1C115.86,312.32,117.72,311.21,117.72,308.06Z"/><path d="M132.93,302.66a8.72,8.72,0,0,0-1.23-.09c-2.37,0-4,1.26-4,4.44v7.23h-2.82V299.81h2.76v2.52a4.52,4.52,0,0,1,4.32-2.76,5.28,5.28,0,0,1,.93.09v3Z"/><path d="M137.31,292.31a2,2,0,1,1-2,2A2,2,0,0,1,137.31,292.31Zm-1.38,21.93V299.81h2.79v14.43h-2.79Z"/><path d="M147,306l3.9-.57a1.05,1.05,0,0,0,1.11-1.08c0-1.41-.93-2.58-3.12-2.58a3.06,3.06,0,0,0-3.27,2.91l-2.7-.63c0.3-2.76,2.79-4.68,5.91-4.68,4.32,0,6,2.46,6,5.28v7.23a13.55,13.55,0,0,0,.18,2.37h-2.76a10.54,10.54,0,0,1-.15-1.95,5.26,5.26,0,0,1-4.65,2.4c-2.94,0-4.83-2-4.83-4.32C142.62,307.79,144.51,306.35,147,306Zm5,2.07V307.4l-4.41.66a2.16,2.16,0,0,0-2.1,2.16,2.19,2.19,0,0,0,2.34,2.1C150.15,312.32,152,311.21,152,308.06Z"/><path d="M159.21,314.24V292.52H162v9.33a5.26,5.26,0,0,1,4.77-2.46c4.38,0,6.63,3.36,6.63,7.56s-2.43,7.68-6.72,7.68a5.15,5.15,0,0,1-4.68-2.49v2.1h-2.79Zm7-12.36c-2.49,0-4.29,2-4.29,5.07s1.8,5.16,4.29,5.16,4.26-2,4.26-5.16S168.87,301.88,166.26,301.88Z"/><path d="M177,314.24V292.52h2.82v21.72H177Z"/><path d="M197.19,310.13a6.54,6.54,0,0,1-6.48,4.56c-3.87,0-7.26-2.82-7.26-7.71,0-4.53,3.27-7.62,6.9-7.62,4.44,0,6.93,3.06,6.93,7.56a6.36,6.36,0,0,1-.06.9H186.36a4.28,4.28,0,0,0,4.35,4.38,3.93,3.93,0,0,0,4-2.91Zm-2.85-4.59a3.64,3.64,0,0,0-4-3.69,3.88,3.88,0,0,0-3.93,3.69h7.89Z"/><path d="M595.72,144.92H592.9V130.49h2.76v2.07a4.94,4.94,0,0,1,4.44-2.49c3.45,0,5.16,2.49,5.16,5.7v9.15h-2.82v-8.67c0-2-.84-3.63-3.36-3.63-2.22,0-3.36,1.77-3.36,4v8.34Z"/><path d="M614.71,145.37c-3.36,0-5.4-2.52-5.4-5.79v-9.09h2.82v8.67c0,2,.9,3.72,3.27,3.72s3.42-1.5,3.42-3.69v-8.7h2.82v11.76a24.11,24.11,0,0,0,.15,2.67h-2.7a12.84,12.84,0,0,1-.12-1.74A4.71,4.71,0,0,1,614.71,145.37Z"/><path d="M626.44,144.92V130.49h2.7v1.92a5,5,0,0,1,4.38-2.34,4.51,4.51,0,0,1,4.32,2.73,5.18,5.18,0,0,1,4.83-2.73c2.52,0,5,1.71,5,5.49v9.36h-2.79v-9.06c0-1.89-.93-3.3-3.06-3.3a3.36,3.36,0,0,0-3.33,3.63v8.73h-2.82v-9.06c0-1.86-.9-3.3-3.06-3.3a3.35,3.35,0,0,0-3.36,3.66v8.7h-2.79Z"/><path d="M659.2,134.54v-2.31h13.89v2.31H659.2Zm0,5.85V138h13.89v2.37H659.2Z"/><path d="M697.39,128.51a7.3,7.3,0,0,0-3.48-.84c-4,0-6.6,3-6.84,7a5.85,5.85,0,0,1,5.13-2.52c3.84,0,6.66,2.4,6.66,6.63s-3.39,6.63-7.2,6.63-7.59-2.58-7.59-9c0-7.23,4.35-11.34,10-11.34a7.63,7.63,0,0,1,4.2,1.08Zm-5.7,14.31a4.1,4.1,0,1,0-4.2-4.08A4.07,4.07,0,0,0,691.69,142.82Z"/><path d="M587.21,216.84h-2.82V202.41h2.76v2.07a4.94,4.94,0,0,1,4.44-2.49c3.45,0,5.16,2.49,5.16,5.7v9.15h-2.82v-8.67c0-2-.84-3.63-3.36-3.63-2.22,0-3.36,1.77-3.36,4v8.34Z"/><path d="M606.2,217.29c-3.36,0-5.4-2.52-5.4-5.79v-9.09h2.82v8.67c0,2,.9,3.72,3.27,3.72s3.42-1.5,3.42-3.69v-8.7h2.82v11.76a24.1,24.1,0,0,0,.15,2.67h-2.7a12.84,12.84,0,0,1-.12-1.74A4.71,4.71,0,0,1,606.2,217.29Z"/><path d="M617.93,216.84V202.41h2.7v1.92A5,5,0,0,1,625,202a4.51,4.51,0,0,1,4.32,2.73,5.18,5.18,0,0,1,4.83-2.73c2.52,0,5,1.71,5,5.49v9.36h-2.79v-9.06c0-1.89-.93-3.3-3.06-3.3a3.36,3.36,0,0,0-3.33,3.63v8.73h-2.82v-9.06c0-1.86-.9-3.3-3.06-3.3a3.35,3.35,0,0,0-3.36,3.66v8.7h-2.79Z"/><path d="M656,207v-5.85h2.46V207h5.64v2.37h-5.64v5.91H656V209.4h-5.61V207H656Z"/><path d="M667.7,206.46v-2.31h13.89v2.31H667.7Zm0,5.85v-2.37h13.89v2.37H667.7Z"/><path d="M705.89,200.43a7.3,7.3,0,0,0-3.48-.84c-4,0-6.6,3-6.84,7A5.85,5.85,0,0,1,700.7,204c3.84,0,6.66,2.4,6.66,6.63s-3.39,6.63-7.2,6.63-7.59-2.58-7.59-9c0-7.23,4.35-11.34,10-11.34a7.63,7.63,0,0,1,4.2,1.08Zm-5.7,14.31a4.1,4.1,0,1,0-4.2-4.08A4.07,4.07,0,0,0,700.19,214.74Z"/><path d="M591.05,293.56h-2.82V279.13H591v2.07a4.94,4.94,0,0,1,4.44-2.49c3.45,0,5.16,2.49,5.16,5.7v9.15h-2.82v-8.67c0-2-.84-3.63-3.36-3.63-2.22,0-3.36,1.77-3.36,4v8.34Z"/><path d="M610,294c-3.36,0-5.4-2.52-5.4-5.79v-9.09h2.82v8.67c0,2,.9,3.72,3.27,3.72s3.42-1.5,3.42-3.69v-8.7H617v11.76a24.4,24.4,0,0,0,.15,2.67h-2.7a12.86,12.86,0,0,1-.12-1.74A4.71,4.71,0,0,1,610,294Z"/><path d="M621.77,293.56V279.13h2.7v1.92a5,5,0,0,1,4.38-2.34,4.51,4.51,0,0,1,4.32,2.73,5.18,5.18,0,0,1,4.83-2.73c2.52,0,5,1.71,5,5.49v9.36h-2.79V284.5c0-1.89-.93-3.3-3.06-3.3a3.36,3.36,0,0,0-3.33,3.63v8.73H631V284.5c0-1.86-.9-3.3-3.06-3.3a3.35,3.35,0,0,0-3.36,3.66v8.7h-2.79Z"/><path d="M652.43,286.18v-2.46h8.13v2.46h-8.13Z"/><path d="M663.86,283.18v-2.31h13.89v2.31H663.86Zm0,5.85v-2.37h13.89V289H663.86Z"/><path d="M702.05,277.15a7.3,7.3,0,0,0-3.48-.84c-4,0-6.6,3-6.84,7a5.85,5.85,0,0,1,5.13-2.52c3.84,0,6.66,2.4,6.66,6.63s-3.39,6.63-7.2,6.63-7.59-2.58-7.59-9c0-7.23,4.35-11.34,10-11.34a7.63,7.63,0,0,1,4.2,1.08Zm-5.7,14.31a4.1,4.1,0,1,0-4.2-4.08A4.07,4.07,0,0,0,696.35,291.46Z"/><path d="M829,128.51a7.3,7.3,0,0,0-3.48-.84c-4,0-6.6,3-6.84,7a5.85,5.85,0,0,1,5.13-2.52c3.84,0,6.66,2.4,6.66,6.63s-3.39,6.63-7.2,6.63-7.59-2.58-7.59-9c0-7.23,4.35-11.34,10-11.34a7.63,7.63,0,0,1,4.2,1.08Zm-5.7,14.31a4.1,4.1,0,1,0-4.2-4.08A4.07,4.07,0,0,0,823.27,142.82Z"/><path d="M816.18,280.75a7,7,0,0,1,0-.78c0-3.33,2.46-6.3,6.72-6.3s6.57,2.73,6.57,6a7.08,7.08,0,0,1-3.66,6l-3.84,2.46a4.77,4.77,0,0,0-2.37,2.73h10v2.73H815.94c0.06-3.18,1.32-5.61,4.62-7.74l3.24-2.1c1.83-1.17,2.67-2.55,2.67-4a3.36,3.36,0,0,0-3.66-3.42c-2.55,0-3.75,1.77-3.75,4,0,0.27,0,.57.06,0.87Z"/><path d="M814.38,216.84V203.13h-4.71v-2.07c2.7-.06,4.56-1.56,5-3.66h2.58v19.44h-2.88Z"/><path d="M820.56,209.07l8.34-11.67h4v12.33h3.33v2.73h-3.33v4.38H830.1v-4.38h-9.54v-3.39Zm9.54-8.85-6.84,9.51h6.84v-9.51Z"/><path d="M439.61,32.53A10.6,10.6,0,0,1,450.29,43.6a10.69,10.69,0,1,1-21.36,0A10.6,10.6,0,0,1,439.61,32.53Zm0,19.47c4,0,7.68-2.85,7.68-8.4s-3.72-8.37-7.68-8.37-7.68,2.82-7.68,8.37S435.65,52,439.61,52Z"/><path d="M454,59.95V39.82h2.73v2.25a5.32,5.32,0,0,1,4.83-2.58c4.32,0,6.63,3.33,6.63,7.53s-2.49,7.62-6.72,7.62a5.37,5.37,0,0,1-4.68-2.34v7.65H454Zm7-18c-2.58,0-4.29,2.16-4.29,5s1.71,5.1,4.29,5.1,4.26-2.13,4.26-5.1S463.73,42,461.09,42Z"/><path d="M484.4,50.14a6.54,6.54,0,0,1-6.48,4.56c-3.87,0-7.26-2.82-7.26-7.71,0-4.53,3.27-7.62,6.9-7.62,4.44,0,6.93,3.06,6.93,7.56a6.43,6.43,0,0,1-.06.9H473.57a4.28,4.28,0,0,0,4.35,4.38,3.93,3.93,0,0,0,4-2.91Zm-2.85-4.59a3.64,3.64,0,0,0-4-3.69,3.88,3.88,0,0,0-3.93,3.69h7.89Z"/><path d="M496.1,42.67a8.79,8.79,0,0,0-1.23-.09c-2.37,0-4,1.26-4,4.44v7.23h-2.82V39.82h2.76v2.52a4.52,4.52,0,0,1,4.32-2.76,5.34,5.34,0,0,1,.93.09v3Z"/><path d="M502.58,46l3.9-.57a1.05,1.05,0,0,0,1.11-1.08c0-1.41-.93-2.58-3.12-2.58a3.06,3.06,0,0,0-3.27,2.91L498.5,44c0.3-2.76,2.79-4.68,5.91-4.68,4.32,0,6,2.46,6,5.28v7.23a13.49,13.49,0,0,0,.18,2.37h-2.76a10.61,10.61,0,0,1-.15-1.95A5.26,5.26,0,0,1,503,54.7c-2.94,0-4.83-2-4.83-4.32C498.2,47.8,500.09,46.36,502.58,46Zm5,2.07V47.41l-4.41.66a2.16,2.16,0,0,0-2.1,2.16,2.19,2.19,0,0,0,2.34,2.1C505.73,52.33,507.59,51.22,507.59,48.07Z"/><path d="M518.57,39.82h3.12v2.55h-3.12v7.5a1.71,1.71,0,0,0,2,2,5.71,5.71,0,0,0,1.11-.12v2.4a6.16,6.16,0,0,1-1.92.27,3.75,3.75,0,0,1-4-4.11V42.37H513V39.82h0.78A2,2,0,0,0,516,37.6V35.26h2.58v4.56Z"/><path d="M538.85,47c0,4.41-3.06,7.68-7.38,7.68s-7.38-3.27-7.38-7.68A7.38,7.38,0,1,1,538.85,47ZM536,47c0-3.33-2.1-5.13-4.5-5.13S527,43.69,527,47s2.1,5.16,4.5,5.16S536,50.38,536,47Z"/><path d="M550.46,42.67a8.79,8.79,0,0,0-1.23-.09c-2.37,0-4,1.26-4,4.44v7.23h-2.82V39.82h2.76v2.52a4.52,4.52,0,0,1,4.32-2.76,5.34,5.34,0,0,1,.93.09v3Z"/><path d="M250.89,55.75V34.48h3V55.75h-3Z"/><path d="M261.81,55.75H259V41.32h2.76v2.07a4.94,4.94,0,0,1,4.44-2.49c3.45,0,5.16,2.49,5.16,5.7v9.15h-2.82V47.08c0-2-.84-3.63-3.36-3.63-2.22,0-3.36,1.77-3.36,4v8.34Z"/><path d="M277.23,33.82a2,2,0,1,1-2,2A2,2,0,0,1,277.23,33.82Zm-1.38,21.93V41.32h2.79V55.75h-2.79Z"/><path d="M287.22,41.32h3.12v2.55h-3.12v7.5a1.71,1.71,0,0,0,2,2,5.71,5.71,0,0,0,1.11-.12v2.4a6.16,6.16,0,0,1-1.92.27,3.75,3.75,0,0,1-4-4.11V43.87h-2.76V41.32h0.78a2,2,0,0,0,2.22-2.22V36.76h2.58v4.56Z"/><path d="M295.47,33.82a2,2,0,1,1-2,2A2,2,0,0,1,295.47,33.82Zm-1.38,21.93V41.32h2.79V55.75h-2.79Z"/><path d="M305.16,47.5l3.9-.57a1.05,1.05,0,0,0,1.11-1.08c0-1.41-.93-2.58-3.12-2.58a3.06,3.06,0,0,0-3.27,2.91l-2.7-.63c0.3-2.76,2.79-4.68,5.91-4.68,4.32,0,6,2.46,6,5.28v7.23a13.56,13.56,0,0,0,.18,2.37h-2.76a10.55,10.55,0,0,1-.15-1.95,5.26,5.26,0,0,1-4.65,2.4c-2.94,0-4.83-2-4.83-4.32C300.78,49.3,302.67,47.86,305.16,47.5Zm5,2.07V48.91l-4.41.66a2.16,2.16,0,0,0-2.1,2.16,2.19,2.19,0,0,0,2.34,2.1C308.31,53.83,310.17,52.72,310.17,49.57Z"/><path d="M317.37,55.75V34h2.82V55.75h-2.82Z"/><path d="M346.41,34.48h3.09l-8.19,21.27H338.4l-8-21.27h3.12L339.93,52Z"/><path d="M354,47.5l3.9-.57A1.05,1.05,0,0,0,359,45.85c0-1.41-.93-2.58-3.12-2.58a3.06,3.06,0,0,0-3.27,2.91l-2.7-.63c0.3-2.76,2.79-4.68,5.91-4.68,4.32,0,6,2.46,6,5.28v7.23a13.56,13.56,0,0,0,.18,2.37h-2.76a10.55,10.55,0,0,1-.15-1.95,5.26,5.26,0,0,1-4.65,2.4c-2.94,0-4.83-2-4.83-4.32C349.65,49.3,351.54,47.86,354,47.5Zm5,2.07V48.91l-4.41.66a2.16,2.16,0,0,0-2.1,2.16,2.19,2.19,0,0,0,2.34,2.1C357.18,53.83,359,52.72,359,49.57Z"/><path d="M366.24,55.75V34h2.82V55.75h-2.82Z"/><path d="M379,56.2c-3.36,0-5.4-2.52-5.4-5.79V41.32h2.82V50c0,2,.9,3.72,3.27,3.72s3.42-1.5,3.42-3.69v-8.7h2.82V53.08a24.26,24.26,0,0,0,.15,2.67h-2.7a12.86,12.86,0,0,1-.12-1.74A4.71,4.71,0,0,1,379,56.2Z"/><path d="M403.11,51.64a6.54,6.54,0,0,1-6.48,4.56c-3.87,0-7.26-2.82-7.26-7.71,0-4.53,3.27-7.62,6.9-7.62,4.44,0,6.93,3.06,6.93,7.56a6.37,6.37,0,0,1-.06.9H392.28a4.28,4.28,0,0,0,4.35,4.38,3.93,3.93,0,0,0,4-2.91ZM400.26,47a3.64,3.64,0,0,0-4-3.69A3.88,3.88,0,0,0,392.37,47h7.89Z"/><path d="M590.3,54.25V33h12.93v2.73h-10v6.54h9.06V45h-9.06v6.51h10v2.73H590.3Z"/><path d="M610.7,46.9l-5.19-7.08h3.42l3.54,5.07L616,39.82h3.33l-5.13,7.08c0.87,1.17,4.44,6.18,5.31,7.35h-3.39l-3.72-5.31-3.66,5.31h-3.36Z"/><path d="M625.64,46l3.9-.57a1.05,1.05,0,0,0,1.11-1.08c0-1.41-.93-2.58-3.12-2.58a3.06,3.06,0,0,0-3.27,2.91l-2.7-.63c0.3-2.76,2.79-4.68,5.91-4.68,4.32,0,6,2.46,6,5.28v7.23a13.63,13.63,0,0,0,.18,2.37h-2.76a10.49,10.49,0,0,1-.15-1.95,5.26,5.26,0,0,1-4.65,2.4c-2.94,0-4.83-2-4.83-4.32C621.26,47.8,623.15,46.36,625.64,46Zm5,2.07V47.41l-4.41.66a2.16,2.16,0,0,0-2.1,2.16,2.19,2.19,0,0,0,2.34,2.1C628.79,52.33,630.65,51.22,630.65,48.07Z"/><path d="M637.85,54.25V39.82h2.7v1.92a5,5,0,0,1,4.38-2.34,4.51,4.51,0,0,1,4.32,2.73,5.18,5.18,0,0,1,4.83-2.73c2.52,0,5,1.71,5,5.49v9.36h-2.79V45.19c0-1.89-.93-3.3-3.06-3.3a3.36,3.36,0,0,0-3.33,3.63v8.73h-2.82V45.19c0-1.86-.9-3.3-3.06-3.3a3.35,3.35,0,0,0-3.36,3.66v8.7h-2.79Z"/><path d="M663.56,59.95V39.82h2.73v2.25a5.32,5.32,0,0,1,4.83-2.58c4.32,0,6.63,3.33,6.63,7.53s-2.49,7.62-6.72,7.62a5.37,5.37,0,0,1-4.68-2.34v7.65h-2.79Zm7-18c-2.58,0-4.29,2.16-4.29,5s1.71,5.1,4.29,5.1,4.26-2.13,4.26-5.1S673.25,42,670.61,42Z"/><path d="M681.35,54.25V32.53h2.82V54.25h-2.82Z"/><path d="M701.54,50.14a6.54,6.54,0,0,1-6.48,4.56c-3.87,0-7.26-2.82-7.26-7.71,0-4.53,3.27-7.62,6.9-7.62,4.44,0,6.93,3.06,6.93,7.56a6.46,6.46,0,0,1-.06.9H690.71a4.29,4.29,0,0,0,4.35,4.38,3.93,3.93,0,0,0,4-2.91Zm-2.85-4.59a3.64,3.64,0,0,0-4-3.69,3.88,3.88,0,0,0-3.93,3.69h7.89Z"/><path d="M790.23,45.55H787v8.7h-3V33h8a6.16,6.16,0,0,1,6.51,6.33,6,6,0,0,1-5.16,6l5.07,8.91h-3.42Zm1.32-2.64c2.4,0,4-1.41,4-3.6s-1.62-3.69-4-3.69H787v7.29h4.5Z"/><path d="M814.32,50.14a6.54,6.54,0,0,1-6.48,4.56c-3.87,0-7.26-2.82-7.26-7.71,0-4.53,3.27-7.62,6.9-7.62,4.44,0,6.93,3.06,6.93,7.56a6.28,6.28,0,0,1-.06.9H803.49a4.28,4.28,0,0,0,4.35,4.38,3.93,3.93,0,0,0,4-2.91Zm-2.85-4.59a3.64,3.64,0,0,0-4-3.69,3.88,3.88,0,0,0-3.93,3.69h7.89Z"/><path d="M819.21,49.6a3.08,3.08,0,0,0,3.36,2.7c1.59,0,2.46-.9,2.46-1.92a2,2,0,0,0-1.86-1.86L820.71,48a4.1,4.1,0,0,1-3.6-4c0-2.46,2.31-4.56,5.13-4.56,4,0,5.19,2.58,5.49,3.87l-2.49.93a2.8,2.8,0,0,0-3-2.4,2.18,2.18,0,0,0-2.4,1.92,1.77,1.77,0,0,0,1.65,1.74l2.34,0.51c2.61,0.57,4,2.16,4,4.29s-1.71,4.47-5.28,4.47c-4,0-5.64-2.55-5.88-4.2Z"/><path d="M836.67,54.7c-3.36,0-5.4-2.52-5.4-5.79V39.82h2.82v8.67c0,2,.9,3.72,3.27,3.72s3.42-1.5,3.42-3.69v-8.7h2.82V51.58a24.11,24.11,0,0,0,.15,2.67H841a12.84,12.84,0,0,1-.12-1.74A4.71,4.71,0,0,1,836.67,54.7Z"/><path d="M848.4,54.25V32.53h2.82V54.25H848.4Z"/><path d="M859.8,39.82h3.12v2.55H859.8v7.5a1.71,1.71,0,0,0,2,2,5.71,5.71,0,0,0,1.11-.12v2.4a6.16,6.16,0,0,1-1.92.27,3.75,3.75,0,0,1-4-4.11V42.37h-2.76V39.82H855a2,2,0,0,0,2.22-2.22V35.26h2.58v4.56Z"/><path d="M482.37,134.54v-2.31h13.89v2.31H482.37Zm0,5.85V138h13.89v2.37H482.37Z"/><path d="M255.52,144.92h-2.85l-5.85-14.43H250l4.11,11.13,4.14-11.13h3Z"/><path d="M267.32,136.67l3.9-.57a1.05,1.05,0,0,0,1.11-1.08c0-1.41-.93-2.58-3.12-2.58a3.06,3.06,0,0,0-3.27,2.91l-2.7-.63c0.3-2.76,2.79-4.68,5.91-4.68,4.32,0,6,2.46,6,5.28v7.23a13.56,13.56,0,0,0,.18,2.37h-2.76a10.55,10.55,0,0,1-.15-1.95,5.26,5.26,0,0,1-4.65,2.4c-2.94,0-4.83-2-4.83-4.32C262.94,138.47,264.83,137,267.32,136.67Zm5,2.07v-0.66l-4.41.66a2.16,2.16,0,0,0-2.1,2.16,2.19,2.19,0,0,0,2.34,2.1C270.47,143,272.33,141.89,272.33,138.74Z"/><path d="M287.54,133.34a8.79,8.79,0,0,0-1.23-.09c-2.37,0-4,1.26-4,4.44v7.23h-2.82V130.49h2.76V133a4.52,4.52,0,0,1,4.32-2.76,5.33,5.33,0,0,1,.93.09v3Z"/><path d="M300.85,144.92H298V130.49h2.76v2.07a4.94,4.94,0,0,1,4.44-2.49c3.45,0,5.16,2.49,5.16,5.7v9.15h-2.82v-8.67c0-2-.84-3.63-3.36-3.63-2.22,0-3.36,1.77-3.36,4v8.34Z"/><path d="M319.85,145.37c-3.36,0-5.4-2.52-5.4-5.79v-9.09h2.82v8.67c0,2,.9,3.72,3.27,3.72s3.42-1.5,3.42-3.69v-8.7h2.82v11.76a24.26,24.26,0,0,0,.15,2.67h-2.7a12.86,12.86,0,0,1-.12-1.74A4.71,4.71,0,0,1,319.85,145.37Z"/><path d="M331.58,144.92V130.49h2.7v1.92a5,5,0,0,1,4.38-2.34A4.51,4.51,0,0,1,343,132.8a5.18,5.18,0,0,1,4.83-2.73c2.52,0,5,1.71,5,5.49v9.36H350v-9.06c0-1.89-.93-3.3-3.06-3.3a3.36,3.36,0,0,0-3.33,3.63v8.73h-2.82v-9.06c0-1.86-.9-3.3-3.06-3.3a3.35,3.35,0,0,0-3.36,3.66v8.7h-2.79Z"/><path d="M364.33,134.54v-2.31h13.89v2.31H364.33Zm0,5.85V138h13.89v2.37H364.33Z"/><path d="M389,139.79a5.08,5.08,0,0,1,3.69-4.8,4.89,4.89,0,0,1-3.18-4.56c0-3.18,2.82-5.4,6.54-5.4s6.54,2.22,6.54,5.4a4.91,4.91,0,0,1-3.18,4.56,5.06,5.06,0,0,1,3.69,4.8c0,3.12-2.58,5.58-7,5.58S389,142.91,389,139.79Zm11.13-.24c0-1.86-1.5-3.33-4.08-3.33s-4.08,1.47-4.08,3.33,1.47,3.27,4.08,3.27S400.15,141.38,400.15,139.55Zm-0.48-9c0-1.74-1.41-3.12-3.6-3.12s-3.6,1.38-3.6,3.12,1.53,3.15,3.6,3.18S399.67,132.47,399.67,130.58Z"/><path d="M255.52,216.84h-2.85l-5.85-14.43H250l4.11,11.13,4.14-11.13h3Z"/><path d="M267.32,208.59l3.9-.57a1.05,1.05,0,0,0,1.11-1.08c0-1.41-.93-2.58-3.12-2.58a3.06,3.06,0,0,0-3.27,2.91l-2.7-.63c0.3-2.76,2.79-4.68,5.91-4.68,4.32,0,6,2.46,6,5.28v7.23a13.55,13.55,0,0,0,.18,2.37h-2.76a10.54,10.54,0,0,1-.15-1.95,5.26,5.26,0,0,1-4.65,2.4c-2.94,0-4.83-2-4.83-4.32C262.94,210.39,264.83,209,267.32,208.59Zm5,2.07V210l-4.41.66a2.16,2.16,0,0,0-2.1,2.16,2.19,2.19,0,0,0,2.34,2.1C270.47,214.92,272.33,213.81,272.33,210.66Z"/><path d="M287.54,205.26a8.72,8.72,0,0,0-1.23-.09c-2.37,0-4,1.26-4,4.44v7.23h-2.82V202.41h2.76v2.52a4.52,4.52,0,0,1,4.32-2.76,5.28,5.28,0,0,1,.93.09v3Z"/><path d="M300.85,216.84H298V202.41h2.76v2.07a4.94,4.94,0,0,1,4.44-2.49c3.45,0,5.16,2.49,5.16,5.7v9.15h-2.82v-8.67c0-2-.84-3.63-3.36-3.63-2.22,0-3.36,1.77-3.36,4v8.34Z"/><path d="M319.85,217.29c-3.36,0-5.4-2.52-5.4-5.79v-9.09h2.82v8.67c0,2,.9,3.72,3.27,3.72s3.42-1.5,3.42-3.69v-8.7h2.82v11.76a24.25,24.25,0,0,0,.15,2.67h-2.7a12.85,12.85,0,0,1-.12-1.74A4.71,4.71,0,0,1,319.85,217.29Z"/><path d="M331.58,216.84V202.41h2.7v1.92a5,5,0,0,1,4.38-2.34,4.51,4.51,0,0,1,4.32,2.73A5.18,5.18,0,0,1,347.8,202c2.52,0,5,1.71,5,5.49v9.36H350v-9.06c0-1.89-.93-3.3-3.06-3.3a3.36,3.36,0,0,0-3.33,3.63v8.73h-2.82v-9.06c0-1.86-.9-3.3-3.06-3.3a3.35,3.35,0,0,0-3.36,3.66v8.7h-2.79Z"/><path d="M364.33,206.46v-2.31h13.89v2.31H364.33Zm0,5.85v-2.37h13.89v2.37H364.33Z"/><path d="M389,211.71a5.08,5.08,0,0,1,3.69-4.8,4.89,4.89,0,0,1-3.18-4.56c0-3.18,2.82-5.4,6.54-5.4s6.54,2.22,6.54,5.4a4.91,4.91,0,0,1-3.18,4.56,5.06,5.06,0,0,1,3.69,4.8c0,3.12-2.58,5.58-7,5.58S389,214.83,389,211.71Zm11.13-.24c0-1.86-1.5-3.33-4.08-3.33s-4.08,1.47-4.08,3.33,1.47,3.27,4.08,3.27S400.15,213.3,400.15,211.47Zm-0.48-9c0-1.74-1.41-3.12-3.6-3.12s-3.6,1.38-3.6,3.12,1.53,3.15,3.6,3.18S399.67,204.39,399.67,202.5Z"/><path d="M255.52,293.56h-2.85l-5.85-14.43H250l4.11,11.13,4.14-11.13h3Z"/><path d="M267.32,285.31l3.9-.57a1.05,1.05,0,0,0,1.11-1.08c0-1.41-.93-2.58-3.12-2.58a3.06,3.06,0,0,0-3.27,2.91l-2.7-.63c0.3-2.76,2.79-4.68,5.91-4.68,4.32,0,6,2.46,6,5.28v7.23a13.55,13.55,0,0,0,.18,2.37h-2.76a10.54,10.54,0,0,1-.15-1.95,5.26,5.26,0,0,1-4.65,2.4c-2.94,0-4.83-2-4.83-4.32C262.94,287.11,264.83,285.67,267.32,285.31Zm5,2.07v-0.66l-4.41.66a2.16,2.16,0,0,0-2.1,2.16,2.19,2.19,0,0,0,2.34,2.1C270.47,291.64,272.33,290.53,272.33,287.38Z"/><path d="M287.54,282a8.72,8.72,0,0,0-1.23-.09c-2.37,0-4,1.26-4,4.44v7.23h-2.82V279.13h2.76v2.52a4.52,4.52,0,0,1,4.32-2.76,5.28,5.28,0,0,1,.93.09v3Z"/><path d="M300.85,293.56H298V279.13h2.76v2.07a4.94,4.94,0,0,1,4.44-2.49c3.45,0,5.16,2.49,5.16,5.7v9.15h-2.82v-8.67c0-2-.84-3.63-3.36-3.63-2.22,0-3.36,1.77-3.36,4v8.34Z"/><path d="M319.85,294c-3.36,0-5.4-2.52-5.4-5.79v-9.09h2.82v8.67c0,2,.9,3.72,3.27,3.72S324,290,324,287.83v-8.7h2.82v11.76a24.25,24.25,0,0,0,.15,2.67h-2.7a12.85,12.85,0,0,1-.12-1.74A4.71,4.71,0,0,1,319.85,294Z"/><path d="M331.58,293.56V279.13h2.7v1.92a5,5,0,0,1,4.38-2.34,4.51,4.51,0,0,1,4.32,2.73,5.18,5.18,0,0,1,4.83-2.73c2.52,0,5,1.71,5,5.49v9.36H350V284.5c0-1.89-.93-3.3-3.06-3.3a3.36,3.36,0,0,0-3.33,3.63v8.73h-2.82V284.5c0-1.86-.9-3.3-3.06-3.3a3.35,3.35,0,0,0-3.36,3.66v8.7h-2.79Z"/><path d="M364.33,283.18v-2.31h13.89v2.31H364.33Zm0,5.85v-2.37h13.89V289H364.33Z"/><path d="M389,288.43a5.08,5.08,0,0,1,3.69-4.8,4.89,4.89,0,0,1-3.18-4.56c0-3.18,2.82-5.4,6.54-5.4s6.54,2.22,6.54,5.4a4.91,4.91,0,0,1-3.18,4.56,5.06,5.06,0,0,1,3.69,4.8c0,3.12-2.58,5.58-7,5.58S389,291.55,389,288.43Zm11.13-.24c0-1.86-1.5-3.33-4.08-3.33s-4.08,1.47-4.08,3.33,1.47,3.27,4.08,3.27S400.15,290,400.15,288.19Zm-0.48-9c0-1.74-1.41-3.12-3.6-3.12s-3.6,1.38-3.6,3.12,1.53,3.15,3.6,3.18S399.67,281.11,399.67,279.22Z"/><path d="M479.18,207v-5.85h2.46V207h5.64v2.37h-5.64v5.91h-2.46V209.4h-5.61V207h5.61Z"/><path d="M490.88,206.46v-2.31h13.89v2.31H490.88Zm0,5.85v-2.37h13.89v2.37H490.88Z"/><path d="M476.36,286.18v-2.46h8.13v2.46h-8.13Z"/><path d="M487.79,283.18v-2.31h13.89v2.31H487.79Zm0,5.85v-2.37h13.89V289H487.79Z"/></svg>