<svg id="Layer_1" data-name="Layer 1" xmlns="http://www.w3.org/2000/svg" viewBox="0 0 909.87 294.98"><defs><style>.cls-1{fill:#ffdb00;}.cls-2{fill:#ececec;}</style></defs><title>New-Graphic-Arithmetic-Operators</title><rect class="cls-1" width="178.77" height="49.66"/><rect class="cls-1" x="182.77" width="178.77" height="49.66"/><rect class="cls-1" x="365.55" width="178.77" height="49.66"/><rect class="cls-1" x="548.32" width="178.77" height="49.66"/><rect class="cls-1" x="731.1" width="178.77" height="49.66"/><rect class="cls-2" y="48.17" width="178.77" height="120.6"/><rect class="cls-2" x="182.77" y="48.17" width="178.77" height="120.6"/><rect class="cls-2" x="365.55" y="48.17" width="178.77" height="120.6"/><rect class="cls-2" x="548.32" y="48.17" width="178.77" height="120.6"/><rect class="cls-2" x="731.1" y="48.17" width="178.77" height="120.6"/><rect class="cls-2" y="174.38" width="178.77" height="120.6"/><rect class="cls-2" x="182.77" y="174.38" width="178.77" height="120.6"/><rect class="cls-2" x="365.55" y="174.38" width="178.77" height="120.6"/><rect class="cls-2" x="548.32" y="174.38" width="178.77" height="120.6"/><rect class="cls-2" x="731.1" y="174.38" width="178.77" height="120.6"/><path d="M203.48,34.83V15h2.8V34.83Z"/><path d="M213.67,34.83H211V21.36h2.58v1.93A4.61,4.61,0,0,1,217.76,21c3.22,0,4.82,2.32,4.82,5.32v8.54h-2.63V26.74c0-1.88-.78-3.39-3.14-3.39-2.07,0-3.14,1.65-3.14,3.7Z"/><path d="M228.06,14.36a1.89,1.89,0,1,1-1.88,1.9A1.89,1.89,0,0,1,228.06,14.36Zm-1.29,20.47V21.36h2.6V34.83Z"/><path d="M237.39,21.36h2.91v2.38h-2.91v7c0,1.23.5,1.85,1.88,1.85a5.32,5.32,0,0,0,1-.11v2.24a5.76,5.76,0,0,1-1.79.25,3.5,3.5,0,0,1-3.75-3.84V23.74h-2.58V21.36h.73A1.88,1.88,0,0,0,235,19.29V17.11h2.41Z"/><path d="M245.09,14.36a1.89,1.89,0,1,1-1.88,1.9A1.89,1.89,0,0,1,245.09,14.36ZM243.8,34.83V21.36h2.6V34.83Z"/><path d="M254.13,27.13l3.64-.53c.81-.11,1-.53,1-1,0-1.32-.87-2.41-2.91-2.41a2.86,2.86,0,0,0-3.05,2.72l-2.52-.59c.28-2.58,2.6-4.37,5.52-4.37,4,0,5.6,2.3,5.6,4.93v6.75a12.65,12.65,0,0,0,.17,2.21H259a9.83,9.83,0,0,1-.14-1.82,4.91,4.91,0,0,1-4.34,2.24,4.2,4.2,0,0,1-4.51-4C250,28.81,251.81,27.47,254.13,27.13Zm4.68,1.93v-.62l-4.12.62a2,2,0,0,0-2,2,2,2,0,0,0,2.18,2C257.07,33,258.81,32,258.81,29.06Z"/><path d="M265.53,34.83V14.56h2.63V34.83Z"/><path d="M285.8,34.83h-2.66l-5.46-13.47h3l3.84,10.39,3.86-10.39h2.83Z"/><path d="M296.8,27.13l3.64-.53c.81-.11,1-.53,1-1,0-1.32-.87-2.41-2.91-2.41a2.86,2.86,0,0,0-3.05,2.72L293,25.31c.28-2.58,2.6-4.37,5.52-4.37,4,0,5.6,2.3,5.6,4.93v6.75a12.65,12.65,0,0,0,.17,2.21H301.7a9.83,9.83,0,0,1-.14-1.82,4.91,4.91,0,0,1-4.34,2.24,4.2,4.2,0,0,1-4.51-4C292.72,28.81,294.48,27.47,296.8,27.13Zm4.68,1.93v-.62l-4.12.62a2,2,0,0,0-2,2,2,2,0,0,0,2.18,2C299.74,33,301.48,32,301.48,29.06Z"/><path d="M308.2,34.83V14.56h2.63V34.83Z"/><path d="M320.07,35.25c-3.14,0-5-2.35-5-5.4V21.36h2.63v8.09c0,1.85.84,3.47,3.05,3.47s3.19-1.4,3.19-3.44V21.36h2.63v11a22.62,22.62,0,0,0,.14,2.49h-2.52a11.89,11.89,0,0,1-.11-1.62A4.39,4.39,0,0,1,320.07,35.25Z"/><path d="M342.61,31a6.11,6.11,0,0,1-6,4.26c-3.61,0-6.78-2.63-6.78-7.2,0-4.23,3.05-7.11,6.44-7.11,4.14,0,6.47,2.86,6.47,7.06a5.93,5.93,0,0,1-.06.84H332.5a4,4,0,0,0,4.06,4.09,3.67,3.67,0,0,0,3.78-2.72ZM340,26.71a3.39,3.39,0,0,0-3.7-3.44,3.62,3.62,0,0,0-3.67,3.44Z"/><path d="M226.51,115.94h-2l-4.09-10.1h2.23l2.88,7.79,2.9-7.79h2.12Z"/><path d="M234.76,110.17l2.73-.4c.61-.08.78-.4.78-.76,0-1-.65-1.81-2.18-1.81a2.14,2.14,0,0,0-2.29,2l-1.89-.44a3.89,3.89,0,0,1,4.14-3.28c3,0,4.2,1.72,4.2,3.7v5.06a9.5,9.5,0,0,0,.13,1.66h-1.93a7.39,7.39,0,0,1-.1-1.36,3.68,3.68,0,0,1-3.25,1.68,3.15,3.15,0,0,1-3.38-3C231.7,111.43,233,110.42,234.76,110.17Zm3.51,1.45v-.46l-3.09.46a1.51,1.51,0,0,0-1.47,1.51,1.53,1.53,0,0,0,1.64,1.47A2.65,2.65,0,0,0,238.27,111.61Z"/><path d="M248.92,107.83a6.16,6.16,0,0,0-.86-.06c-1.66,0-2.77.88-2.77,3.11v5.06h-2v-10.1h1.93v1.76a3.16,3.16,0,0,1,3-1.93,3.71,3.71,0,0,1,.65.06Z"/><path d="M258.24,115.94h-2v-10.1h1.93v1.45a3.46,3.46,0,0,1,3.11-1.74c2.41,0,3.61,1.74,3.61,4v6.4h-2v-6.07c0-1.41-.59-2.54-2.35-2.54-1.55,0-2.35,1.24-2.35,2.77Z"/><path d="M271.53,116.25a3.73,3.73,0,0,1-3.78-4.05v-6.36h2v6.07c0,1.39.63,2.6,2.29,2.6a2.28,2.28,0,0,0,2.39-2.58v-6.09h2v8.23a17,17,0,0,0,.1,1.87H274.6a8.94,8.94,0,0,1-.08-1.22A3.29,3.29,0,0,1,271.53,116.25Z"/><path d="M279.75,115.94v-10.1h1.89v1.34a3.48,3.48,0,0,1,3.07-1.64,3.15,3.15,0,0,1,3,1.91,3.63,3.63,0,0,1,3.38-1.91c1.76,0,3.49,1.2,3.49,3.84v6.55h-2V109.6a2,2,0,0,0-2.14-2.31,2.35,2.35,0,0,0-2.33,2.54v6.11h-2V109.6a2,2,0,0,0-2.14-2.31,2.34,2.34,0,0,0-2.35,2.56v6.09Z"/><path d="M302.68,108.67v-1.62h9.72v1.62Zm0,4.09v-1.66h9.72v1.66Z"/><path d="M320,112.35a3.56,3.56,0,0,1,2.58-3.36,3.42,3.42,0,0,1-2.23-3.19c0-2.23,2-3.78,4.58-3.78s4.58,1.55,4.58,3.78a3.44,3.44,0,0,1-2.23,3.19,3.54,3.54,0,0,1,2.58,3.36c0,2.18-1.81,3.91-4.93,3.91S320,114.53,320,112.35Zm7.79-.17c0-1.3-1-2.33-2.86-2.33s-2.86,1-2.86,2.33,1,2.29,2.86,2.29S327.75,113.46,327.75,112.18Zm-.34-6.28a2.55,2.55,0,0,0-5,0,2.54,2.54,0,0,0,5,0Z"/><path d="M447.75,109.07V105h1.72v4.09h3.95v1.66h-3.95v4.14h-1.72v-4.14h-3.93v-1.66Z"/><path d="M459.65,109.07V105h1.72v4.09h3.95v1.66h-3.95v4.14h-1.72v-4.14h-3.93v-1.66Z"/><path d="M226.51,243.69h-2l-4.09-10.1h2.23l2.88,7.79,2.9-7.79h2.12Z"/><path d="M234.76,237.92l2.73-.4c.61-.08.78-.4.78-.76,0-1-.65-1.81-2.18-1.81a2.14,2.14,0,0,0-2.29,2l-1.89-.44a3.89,3.89,0,0,1,4.14-3.28c3,0,4.2,1.72,4.2,3.7V242a9.49,9.49,0,0,0,.13,1.66h-1.93a7.39,7.39,0,0,1-.1-1.36,3.68,3.68,0,0,1-3.25,1.68,3.15,3.15,0,0,1-3.38-3C231.7,239.18,233,238.17,234.76,237.92Zm3.51,1.45v-.46l-3.09.46a1.51,1.51,0,0,0-1.47,1.51,1.53,1.53,0,0,0,1.64,1.47A2.65,2.65,0,0,0,238.27,239.37Z"/><path d="M248.92,235.59a6.16,6.16,0,0,0-.86-.06c-1.66,0-2.77.88-2.77,3.11v5.06h-2v-10.1h1.93v1.76a3.16,3.16,0,0,1,3-1.93,3.77,3.77,0,0,1,.65.06Z"/><path d="M258.24,243.69h-2v-10.1h1.93V235a3.46,3.46,0,0,1,3.11-1.74c2.41,0,3.61,1.74,3.61,4v6.4h-2v-6.07c0-1.41-.59-2.54-2.35-2.54-1.55,0-2.35,1.24-2.35,2.77Z"/><path d="M271.53,244a3.73,3.73,0,0,1-3.78-4.05v-6.36h2v6.07c0,1.39.63,2.6,2.29,2.6a2.28,2.28,0,0,0,2.39-2.58v-6.09h2v8.23a17,17,0,0,0,.1,1.87H274.6a8.93,8.93,0,0,1-.08-1.22A3.3,3.3,0,0,1,271.53,244Z"/><path d="M279.75,243.69v-10.1h1.89v1.34a3.48,3.48,0,0,1,3.07-1.64,3.15,3.15,0,0,1,3,1.91,3.63,3.63,0,0,1,3.38-1.91c1.76,0,3.49,1.2,3.49,3.84v6.55h-2v-6.34A2,2,0,0,0,290.5,235a2.35,2.35,0,0,0-2.33,2.54v6.11h-2v-6.34A2,2,0,0,0,284,235a2.34,2.34,0,0,0-2.35,2.56v6.09Z"/><path d="M302.68,236.43v-1.62h9.72v1.62Zm0,4.09v-1.66h9.72v1.66Z"/><path d="M320,240.1a3.56,3.56,0,0,1,2.58-3.36,3.42,3.42,0,0,1-2.23-3.19c0-2.23,2-3.78,4.58-3.78s4.58,1.55,4.58,3.78a3.44,3.44,0,0,1-2.23,3.19,3.54,3.54,0,0,1,2.58,3.36c0,2.18-1.81,3.91-4.93,3.91S320,242.29,320,240.1Zm7.79-.17c0-1.3-1-2.33-2.86-2.33s-2.86,1-2.86,2.33,1,2.29,2.86,2.29S327.75,241.22,327.75,239.94Zm-.34-6.28a2.55,2.55,0,0,0-5,0,2.54,2.54,0,0,0,5,0Z"/><path d="M448.68,238.53v-1.72h5.69v1.72Z"/><path d="M456.26,238.53v-1.72H462v1.72Z"/><path d="M607.81,115.94h-2v-10.1h1.93v1.45a3.46,3.46,0,0,1,3.11-1.74c2.42,0,3.61,1.74,3.61,4v6.4h-2v-6.07c0-1.41-.59-2.54-2.35-2.54-1.55,0-2.35,1.24-2.35,2.77Z"/><path d="M621.1,116.25a3.73,3.73,0,0,1-3.78-4.05v-6.36h2v6.07c0,1.39.63,2.6,2.29,2.6a2.28,2.28,0,0,0,2.39-2.58v-6.09h2v8.23a17,17,0,0,0,.1,1.87h-1.89a8.94,8.94,0,0,1-.08-1.22A3.29,3.29,0,0,1,621.1,116.25Z"/><path d="M629.31,115.94v-10.1h1.89v1.34a3.48,3.48,0,0,1,3.07-1.64,3.15,3.15,0,0,1,3,1.91,3.62,3.62,0,0,1,3.38-1.91c1.76,0,3.49,1.2,3.49,3.84v6.55h-2V109.6a2,2,0,0,0-2.14-2.31,2.35,2.35,0,0,0-2.33,2.54v6.11h-2V109.6a2,2,0,0,0-2.14-2.31,2.34,2.34,0,0,0-2.35,2.56v6.09Z"/><path d="M650.71,109.07V105h1.72v4.09h3.95v1.66h-3.95v4.14h-1.72v-4.14h-3.93v-1.66Z"/><path d="M662.62,109.07V105h1.72v4.09h3.95v1.66h-3.95v4.14h-1.72v-4.14h-3.93v-1.66Z"/><path d="M612.88,243.69h-2v-10.1h1.93V235a3.46,3.46,0,0,1,3.11-1.74c2.41,0,3.61,1.74,3.61,4v6.4h-2v-6.07c0-1.41-.59-2.54-2.35-2.54-1.55,0-2.35,1.24-2.35,2.77Z"/><path d="M626.17,244a3.73,3.73,0,0,1-3.78-4.05v-6.36h2v6.07c0,1.39.63,2.6,2.29,2.6a2.28,2.28,0,0,0,2.39-2.58v-6.09h2v8.23a16.94,16.94,0,0,0,.11,1.87h-1.89a8.93,8.93,0,0,1-.08-1.22A3.3,3.3,0,0,1,626.17,244Z"/><path d="M634.38,243.69v-10.1h1.89v1.34a3.48,3.48,0,0,1,3.07-1.64,3.15,3.15,0,0,1,3,1.91,3.63,3.63,0,0,1,3.38-1.91c1.76,0,3.49,1.2,3.49,3.84v6.55h-2v-6.34a2,2,0,0,0-2.14-2.31,2.35,2.35,0,0,0-2.33,2.54v6.11h-2v-6.34a2,2,0,0,0-2.14-2.31,2.34,2.34,0,0,0-2.35,2.56v6.09Z"/><path d="M651.64,238.53v-1.72h5.69v1.72Z"/><path d="M659.23,238.53v-1.72h5.69v1.72Z"/><path d="M815.08,113.76a5.27,5.27,0,0,0,2.48.65c3.3,0,4.64-2.16,4.72-4.83a3.84,3.84,0,0,1-3.53,1.74,4.51,4.51,0,0,1-4.7-4.6,4.79,4.79,0,0,1,5-4.7c2.67,0,5.29,1.91,5.29,6.26,0,5-2.23,8-6.8,8a6.59,6.59,0,0,1-3.15-.8Zm4-9.93a2.84,2.84,0,0,0-2.94,2.86,2.79,2.79,0,0,0,2.94,2.88,2.87,2.87,0,1,0,0-5.73Z"/><path d="M828.32,232.06c-1.26,1-5.1,4.43-5.75,11.63h-2.12A16.8,16.8,0,0,1,826,232h-7.66v-1.89h9.93Z"/><path d="M27.05,99.18H20.46l-1.57,4.16h-2.2L22.6,88.45H25l5.92,14.89H28.67Zm-5.86-1.91h5.12l-2.58-6.68Z"/><path d="M39.65,101.81a3.38,3.38,0,0,1-3.13,1.81c-3,0-4.79-2.35-4.79-5.35S33.67,93,36.52,93a3.1,3.1,0,0,1,3.09,1.7V88.14h2v13.33a16,16,0,0,0,.1,1.87H39.76a8.46,8.46,0,0,1-.1-1.36Zm-2.94.06c1.81,0,2.92-1.57,2.92-3.65s-1.09-3.51-2.9-3.51-3,1.47-3,3.55S34.82,101.87,36.71,101.87Z"/><path d="M52,101.81a3.38,3.38,0,0,1-3.13,1.81c-3,0-4.79-2.35-4.79-5.35S46,93,48.87,93A3.1,3.1,0,0,1,52,94.67V88.14h2v13.33a16,16,0,0,0,.1,1.87H52.11A8.46,8.46,0,0,1,52,102Zm-2.94.06c1.81,0,2.92-1.57,2.92-3.65s-1.09-3.51-2.9-3.51-3,1.47-3,3.55S47.17,101.87,49.06,101.87Z"/><path d="M72,98.28a5.17,5.17,0,1,1-5.17-5.35A5.1,5.1,0,0,1,72,98.28Zm-2,0c0-2.33-1.47-3.59-3.15-3.59s-3.15,1.26-3.15,3.59,1.47,3.61,3.15,3.61S70,100.63,70,98.28Z"/><path d="M76.51,103.34h-2V93.24h1.93v1.45a3.46,3.46,0,0,1,3.11-1.74c2.41,0,3.61,1.74,3.61,4v6.4h-2V97.27c0-1.41-.59-2.54-2.35-2.54-1.55,0-2.35,1.24-2.35,2.77Z"/><path d="M95.13,100.46a4.58,4.58,0,0,1-4.54,3.19,5.38,5.38,0,0,1-.25-10.73c3.11,0,4.85,2.14,4.85,5.29a4.44,4.44,0,0,1,0,.63h-7.6a3,3,0,0,0,3,3.07,2.75,2.75,0,0,0,2.83-2Zm-2-3.21a2.54,2.54,0,0,0-2.77-2.58,2.72,2.72,0,0,0-2.75,2.58Z"/><path d="M105.61,93.24h2.18V95h-2.18v5.25c0,.92.38,1.39,1.41,1.39a4,4,0,0,0,.78-.08v1.68a4.32,4.32,0,0,1-1.34.19,2.62,2.62,0,0,1-2.81-2.88V95h-1.93V93.24h.55a1.41,1.41,0,0,0,1.55-1.55V90h1.81Z"/><path d="M119.81,98.28a5.17,5.17,0,1,1-5.17-5.35A5.1,5.1,0,0,1,119.81,98.28Zm-2,0c0-2.33-1.47-3.59-3.15-3.59s-3.15,1.26-3.15,3.59,1.47,3.61,3.15,3.61S117.79,100.63,117.79,98.28Z"/><path d="M22.77,128.54h-2l-4.09-10.1h2.23l2.88,7.79,2.9-7.79H26.8Z"/><path d="M31,122.77l2.73-.4c.61-.08.78-.4.78-.76,0-1-.65-1.81-2.18-1.81a2.14,2.14,0,0,0-2.29,2l-1.89-.44a3.89,3.89,0,0,1,4.14-3.28c3,0,4.2,1.72,4.2,3.7v5.06a9.5,9.5,0,0,0,.13,1.66H34.7a7.39,7.39,0,0,1-.1-1.36,3.68,3.68,0,0,1-3.25,1.68,3.15,3.15,0,0,1-3.38-3C28,124,29.28,123,31,122.77Zm3.51,1.45v-.46l-3.09.46A1.51,1.51,0,0,0,30,125.73a1.53,1.53,0,0,0,1.64,1.47A2.65,2.65,0,0,0,34.53,124.21Z"/><path d="M39.57,128.54v-15.2h2v15.2Z"/><path d="M48.47,128.85a3.73,3.73,0,0,1-3.78-4.05v-6.36h2v6.07c0,1.39.63,2.6,2.29,2.6a2.28,2.28,0,0,0,2.39-2.58v-6.09h2v8.23a17,17,0,0,0,.1,1.87H51.54a8.94,8.94,0,0,1-.08-1.22A3.29,3.29,0,0,1,48.47,128.85Z"/><path d="M65.38,125.66a4.58,4.58,0,0,1-4.54,3.19,5.38,5.38,0,0,1-.25-10.73c3.11,0,4.85,2.14,4.85,5.29a4.44,4.44,0,0,1,0,.63H57.8a3,3,0,0,0,3,3.07,2.75,2.75,0,0,0,2.83-2Zm-2-3.21a2.54,2.54,0,0,0-2.77-2.58,2.72,2.72,0,0,0-2.75,2.58Z"/><path d="M82.7,123.48a5.17,5.17,0,1,1-5.17-5.35A5.1,5.1,0,0,1,82.7,123.48Zm-2,0c0-2.33-1.47-3.59-3.15-3.59s-3.15,1.26-3.15,3.59,1.47,3.61,3.15,3.61S80.69,125.83,80.69,123.48Z"/><path d="M87.87,120.22v8.31h-2v-8.31H84v-1.78h1.87v-1.7a3.2,3.2,0,0,1,3.32-3.46,2.55,2.55,0,0,1,1.18.21v1.76a2.28,2.28,0,0,0-.86-.13,1.51,1.51,0,0,0-1.6,1.72v1.6h2.44v1.78Z"/><path d="M102.3,128.54h-2l-4.09-10.1h2.23l2.88,7.79,2.9-7.79h2.12Z"/><path d="M110.55,122.77l2.73-.4c.61-.08.78-.4.78-.76,0-1-.65-1.81-2.18-1.81a2.14,2.14,0,0,0-2.29,2l-1.89-.44a3.89,3.89,0,0,1,4.14-3.28c3,0,4.2,1.72,4.2,3.7v5.06a9.5,9.5,0,0,0,.13,1.66h-1.93a7.39,7.39,0,0,1-.1-1.36,3.68,3.68,0,0,1-3.25,1.68,3.15,3.15,0,0,1-3.38-3C107.48,124,108.81,123,110.55,122.77Zm3.51,1.45v-.46l-3.09.46a1.51,1.51,0,0,0-1.47,1.51,1.53,1.53,0,0,0,1.64,1.47A2.65,2.65,0,0,0,114.06,124.21Z"/><path d="M124.7,120.43a6.16,6.16,0,0,0-.86-.06c-1.66,0-2.77.88-2.77,3.11v5.06h-2v-10.1H121v1.76a3.16,3.16,0,0,1,3-1.93,3.71,3.71,0,0,1,.65.06Z"/><path d="M127.77,113.19a1.42,1.42,0,1,1-1.41,1.43A1.42,1.42,0,0,1,127.77,113.19Zm-1,15.35v-10.1h2v10.1Z"/><path d="M134.55,122.77l2.73-.4c.61-.08.78-.4.78-.76,0-1-.65-1.81-2.18-1.81a2.14,2.14,0,0,0-2.29,2l-1.89-.44a3.89,3.89,0,0,1,4.14-3.28c3,0,4.2,1.72,4.2,3.7v5.06a9.5,9.5,0,0,0,.13,1.66h-1.93a7.39,7.39,0,0,1-.1-1.36,3.68,3.68,0,0,1-3.25,1.68,3.15,3.15,0,0,1-3.38-3C131.49,124,132.81,123,134.55,122.77Zm3.51,1.45v-.46l-3.09.46a1.51,1.51,0,0,0-1.47,1.51,1.53,1.53,0,0,0,1.64,1.47A2.65,2.65,0,0,0,138.06,124.21Z"/><path d="M143.1,128.54v-15.2h2v6.53a3.68,3.68,0,0,1,3.34-1.72c3.07,0,4.64,2.35,4.64,5.29s-1.7,5.37-4.7,5.37a3.6,3.6,0,0,1-3.28-1.74v1.47Zm4.93-8.65c-1.74,0-3,1.36-3,3.55s1.26,3.61,3,3.61,3-1.43,3-3.61S149.86,119.89,148,119.89Z"/><path d="M155.55,128.54v-15.2h2v15.2Z"/><path d="M169.68,125.66a4.58,4.58,0,0,1-4.54,3.19,5.38,5.38,0,0,1-.25-10.73c3.11,0,4.85,2.14,4.85,5.29a4.44,4.44,0,0,1,0,.63h-7.6a3,3,0,0,0,3,3.07,2.75,2.75,0,0,0,2.83-2Zm-2-3.21a2.54,2.54,0,0,0-2.77-2.58,2.72,2.72,0,0,0-2.75,2.58Z"/><path d="M26,207.64a3,3,0,0,0-3.15-2.54A2.63,2.63,0,0,0,20,207.58a2.16,2.16,0,0,0,1.91,2.16l2.23.48c2.48.55,3.86,2.1,3.86,4.18,0,2.31-2,4.41-5.14,4.41-3.59,0-5.29-2.31-5.56-4.43l2-.63a3.38,3.38,0,0,0,3.57,3.19c2.06,0,3.07-1.07,3.07-2.37a2.43,2.43,0,0,0-2.23-2.31l-2.12-.46c-2.12-.46-3.63-1.85-3.63-4.07a4.74,4.74,0,0,1,4.91-4.43c3.36,0,4.7,2.08,5,3.7Z"/><path d="M33.75,218.81A3.73,3.73,0,0,1,30,214.76v-6.36h2v6.07c0,1.39.63,2.6,2.29,2.6a2.28,2.28,0,0,0,2.39-2.58v-6.09h2v8.23a17,17,0,0,0,.1,1.87H36.82a9,9,0,0,1-.08-1.22A3.29,3.29,0,0,1,33.75,218.81Z"/><path d="M42,218.49v-15.2h2v6.53a3.68,3.68,0,0,1,3.34-1.72c3.07,0,4.64,2.35,4.64,5.29s-1.7,5.38-4.7,5.38A3.6,3.6,0,0,1,43.92,217v1.47Zm4.93-8.65c-1.74,0-3,1.36-3,3.55s1.26,3.61,3,3.61,3-1.43,3-3.61S48.72,209.84,46.9,209.84Z"/><path d="M57,208.39h2.18v1.79H57v5.25c0,.92.38,1.39,1.41,1.39a4,4,0,0,0,.78-.08v1.68a4.34,4.34,0,0,1-1.34.19A2.62,2.62,0,0,1,55,215.72v-5.54H53.05v-1.79h.55a1.41,1.41,0,0,0,1.55-1.55V205.2H57Z"/><path d="M67.16,210.39a6.16,6.16,0,0,0-.86-.06c-1.66,0-2.77.88-2.77,3.11v5.06h-2v-10.1h1.93v1.76a3.16,3.16,0,0,1,3-1.93,3.65,3.65,0,0,1,.65.06Z"/><path d="M71.7,212.72l2.73-.4c.61-.08.78-.4.78-.76,0-1-.65-1.81-2.18-1.81a2.14,2.14,0,0,0-2.29,2l-1.89-.44A3.89,3.89,0,0,1,73,208.08c3,0,4.2,1.72,4.2,3.7v5.06a9.51,9.51,0,0,0,.13,1.66H75.37a7.39,7.39,0,0,1-.1-1.37A3.68,3.68,0,0,1,72,218.81a3.15,3.15,0,0,1-3.38-3C68.63,214,70,213,71.7,212.72Zm3.51,1.45v-.46l-3.09.46a1.51,1.51,0,0,0-1.47,1.51,1.53,1.53,0,0,0,1.64,1.47A2.65,2.65,0,0,0,75.21,214.17Z"/><path d="M81.42,213.43c0,2.31,1.45,3.55,3.09,3.55a2.75,2.75,0,0,0,2.81-2.08l1.74.76a4.64,4.64,0,0,1-4.56,3.15,5.37,5.37,0,0,1,0-10.73A4.39,4.39,0,0,1,89,211.29L87.2,212a2.65,2.65,0,0,0-2.71-2.14C82.89,209.91,81.42,211.08,81.42,213.43Z"/><path d="M94,208.39h2.18v1.79H94v5.25c0,.92.38,1.39,1.41,1.39a4,4,0,0,0,.78-.08v1.68a4.34,4.34,0,0,1-1.34.19A2.62,2.62,0,0,1,92,215.72v-5.54H90.12v-1.79h.55a1.41,1.41,0,0,0,1.55-1.55V205.2H94Z"/><path d="M113.57,213.43a5.17,5.17,0,1,1-5.17-5.35A5.1,5.1,0,0,1,113.57,213.43Zm-2,0c0-2.33-1.47-3.59-3.15-3.59s-3.15,1.26-3.15,3.59,1.47,3.61,3.15,3.61S111.56,215.79,111.56,213.43Z"/><path d="M118.07,218.49h-2v-10.1H118v1.45a3.46,3.46,0,0,1,3.11-1.74c2.41,0,3.61,1.74,3.61,4v6.4h-2v-6.07c0-1.41-.59-2.54-2.35-2.54-1.55,0-2.35,1.24-2.35,2.77Z"/><path d="M136.69,215.62a4.58,4.58,0,0,1-4.54,3.19,5.38,5.38,0,0,1-.25-10.73c3.11,0,4.85,2.14,4.85,5.29a4.44,4.44,0,0,1,0,.63h-7.6a3,3,0,0,0,3,3.07,2.75,2.75,0,0,0,2.83-2Zm-2-3.21a2.54,2.54,0,0,0-2.77-2.58,2.72,2.72,0,0,0-2.75,2.58Z"/><path d="M20.8,235.38v8.31h-2v-8.31H16.89v-1.79h1.87v-1.7a3.2,3.2,0,0,1,3.32-3.46,2.56,2.56,0,0,1,1.18.21v1.76a2.28,2.28,0,0,0-.86-.13A1.51,1.51,0,0,0,20.8,232v1.6h2.44v1.79Z"/><path d="M31,235.59a6.16,6.16,0,0,0-.86-.06c-1.66,0-2.77.88-2.77,3.11v5.06h-2v-10.1h1.93v1.76a3.16,3.16,0,0,1,3-1.93,3.65,3.65,0,0,1,.65.06Z"/><path d="M42.44,238.63a5.17,5.17,0,1,1-5.17-5.35A5.1,5.1,0,0,1,42.44,238.63Zm-2,0c0-2.33-1.47-3.59-3.15-3.59s-3.15,1.26-3.15,3.59,1.47,3.61,3.15,3.61S40.43,241,40.43,238.63Z"/><path d="M45,243.69v-10.1h1.89v1.34a3.48,3.48,0,0,1,3.07-1.64,3.15,3.15,0,0,1,3,1.91,3.62,3.62,0,0,1,3.38-1.91c1.76,0,3.49,1.2,3.49,3.84v6.55h-2v-6.34A2,2,0,0,0,55.72,235a2.35,2.35,0,0,0-2.33,2.54v6.11h-2v-6.34A2,2,0,0,0,49.27,235a2.34,2.34,0,0,0-2.35,2.56v6.09Z"/><path d="M72.83,243.69h-2l-4.09-10.1H69l2.88,7.79,2.9-7.79h2.12Z"/><path d="M81.09,237.92l2.73-.4c.61-.08.78-.4.78-.76,0-1-.65-1.81-2.18-1.81a2.14,2.14,0,0,0-2.29,2l-1.89-.44a3.89,3.89,0,0,1,4.14-3.28c3,0,4.2,1.72,4.2,3.7V242a9.51,9.51,0,0,0,.13,1.66H84.76a7.39,7.39,0,0,1-.1-1.37A3.68,3.68,0,0,1,81.4,244,3.15,3.15,0,0,1,78,241C78,239.18,79.34,238.17,81.09,237.92Zm3.51,1.45v-.46l-3.09.46A1.51,1.51,0,0,0,80,240.88a1.53,1.53,0,0,0,1.64,1.47A2.65,2.65,0,0,0,84.59,239.37Z"/><path d="M89.63,243.69v-15.2h2v15.2Z"/><path d="M98.54,244A3.73,3.73,0,0,1,94.76,240v-6.36h2v6.07c0,1.39.63,2.6,2.29,2.6a2.28,2.28,0,0,0,2.39-2.58v-6.09h2v8.23a17,17,0,0,0,.1,1.87H101.6a9,9,0,0,1-.08-1.22A3.29,3.29,0,0,1,98.54,244Z"/><path d="M115.44,240.82a4.58,4.58,0,0,1-4.54,3.19,5.38,5.38,0,0,1-.25-10.73c3.11,0,4.85,2.14,4.85,5.29a4.44,4.44,0,0,1,0,.63h-7.6a3,3,0,0,0,3,3.07,2.75,2.75,0,0,0,2.83-2Zm-2-3.21a2.54,2.54,0,0,0-2.77-2.58,2.72,2.72,0,0,0-2.75,2.58Z"/><path d="M132.77,238.63a5.17,5.17,0,1,1-5.17-5.35A5.1,5.1,0,0,1,132.77,238.63Zm-2,0c0-2.33-1.47-3.59-3.15-3.59s-3.15,1.26-3.15,3.59,1.47,3.61,3.15,3.61S130.75,241,130.75,238.63Z"/><path d="M137.93,235.38v8.31h-2v-8.31H134v-1.79h1.87v-1.7a3.2,3.2,0,0,1,3.32-3.46,2.56,2.56,0,0,1,1.18.21v1.76a2.28,2.28,0,0,0-.86-.13,1.51,1.51,0,0,0-1.6,1.72v1.6h2.44v1.79Z"/><path d="M22.77,268.89h-2l-4.09-10.1h2.23l2.88,7.79,2.9-7.79H26.8Z"/><path d="M31,263.12l2.73-.4c.61-.08.78-.4.78-.76,0-1-.65-1.81-2.18-1.81a2.14,2.14,0,0,0-2.29,2l-1.89-.44a3.89,3.89,0,0,1,4.14-3.28c3,0,4.2,1.72,4.2,3.7v5.06a9.49,9.49,0,0,0,.13,1.66H34.7a7.39,7.39,0,0,1-.1-1.36,3.68,3.68,0,0,1-3.25,1.68,3.15,3.15,0,0,1-3.38-3C28,264.38,29.28,263.37,31,263.12Zm3.51,1.45v-.46l-3.09.46A1.51,1.51,0,0,0,30,266.08a1.53,1.53,0,0,0,1.64,1.47A2.65,2.65,0,0,0,34.53,264.57Z"/><path d="M45.18,260.79a6.16,6.16,0,0,0-.86-.06c-1.66,0-2.77.88-2.77,3.11v5.06h-2v-10.1H41.5v1.76a3.16,3.16,0,0,1,3-1.93,3.77,3.77,0,0,1,.65.06Z"/><path d="M48.24,253.55A1.42,1.42,0,1,1,46.84,255,1.42,1.42,0,0,1,48.24,253.55Zm-1,15.35v-10.1h2v10.1Z"/><path d="M55,263.12l2.73-.4c.61-.08.78-.4.78-.76,0-1-.65-1.81-2.18-1.81a2.14,2.14,0,0,0-2.29,2l-1.89-.44a3.89,3.89,0,0,1,4.14-3.28c3,0,4.2,1.72,4.2,3.7v5.06a9.49,9.49,0,0,0,.13,1.66H58.7a7.39,7.39,0,0,1-.1-1.36,3.68,3.68,0,0,1-3.25,1.68,3.15,3.15,0,0,1-3.38-3C52,264.38,53.28,263.37,55,263.12Zm3.51,1.45v-.46l-3.09.46A1.51,1.51,0,0,0,54,266.08a1.53,1.53,0,0,0,1.64,1.47A2.65,2.65,0,0,0,58.53,264.57Z"/><path d="M63.57,268.89v-15.2h2v6.53a3.68,3.68,0,0,1,3.34-1.72c3.07,0,4.64,2.35,4.64,5.29s-1.7,5.38-4.7,5.38a3.6,3.6,0,0,1-3.28-1.74v1.47Zm4.93-8.65c-1.74,0-3,1.37-3,3.55s1.26,3.61,3,3.61,3-1.43,3-3.61S70.33,260.24,68.51,260.24Z"/><path d="M76,268.89v-15.2h2v15.2Z"/><path d="M90.16,266a4.58,4.58,0,0,1-4.54,3.19,5.38,5.38,0,0,1-.25-10.73c3.11,0,4.85,2.14,4.85,5.29a4.44,4.44,0,0,1,0,.63h-7.6a3,3,0,0,0,3,3.07,2.75,2.75,0,0,0,2.83-2Zm-2-3.21a2.54,2.54,0,0,0-2.77-2.58,2.72,2.72,0,0,0-2.75,2.58Z"/><path d="M404.89,14.56a9.89,9.89,0,0,1,10,10.33,10,10,0,1,1-19.94,0A9.89,9.89,0,0,1,404.89,14.56Zm0,18.17c3.7,0,7.17-2.66,7.17-7.84s-3.47-7.81-7.17-7.81-7.17,2.63-7.17,7.81S401.2,32.73,404.89,32.73Z"/><path d="M418.36,40.15V21.36h2.55v2.1a5,5,0,0,1,4.51-2.41c4,0,6.19,3.11,6.19,7s-2.32,7.11-6.27,7.11A5,5,0,0,1,421,33v7.14Zm6.58-16.77c-2.41,0-4,2-4,4.7s1.6,4.76,4,4.76,4-2,4-4.76S427.4,23.38,424.94,23.38Z"/><path d="M446.7,31a6.11,6.11,0,0,1-6,4.26c-3.61,0-6.78-2.63-6.78-7.2,0-4.23,3.05-7.11,6.44-7.11,4.14,0,6.47,2.86,6.47,7.06a5.93,5.93,0,0,1-.06.84H436.59a4,4,0,0,0,4.06,4.09,3.67,3.67,0,0,0,3.78-2.72ZM444,26.71a3.39,3.39,0,0,0-3.7-3.44,3.62,3.62,0,0,0-3.67,3.44Z"/><path d="M457.62,24a8.28,8.28,0,0,0-1.15-.08c-2.21,0-3.7,1.18-3.7,4.14v6.75h-2.63V21.36h2.58v2.35a4.22,4.22,0,0,1,4-2.58,5,5,0,0,1,.87.08Z"/><path d="M463.66,27.13l3.64-.53c.81-.11,1-.53,1-1,0-1.32-.87-2.41-2.91-2.41a2.86,2.86,0,0,0-3.05,2.72l-2.52-.59c.28-2.58,2.6-4.37,5.52-4.37,4,0,5.6,2.3,5.6,4.93v6.75a12.71,12.71,0,0,0,.17,2.21h-2.58a9.77,9.77,0,0,1-.14-1.82,4.91,4.91,0,0,1-4.34,2.24,4.19,4.19,0,0,1-4.51-4C459.58,28.81,461.34,27.47,463.66,27.13Zm4.68,1.93v-.62l-4.12.62a2,2,0,0,0-2,2,2,2,0,0,0,2.18,2C466.6,33,468.34,32,468.34,29.06Z"/><path d="M478.59,21.36h2.91v2.38h-2.91v7c0,1.23.5,1.85,1.88,1.85a5.32,5.32,0,0,0,1-.11v2.24a5.76,5.76,0,0,1-1.79.25A3.5,3.5,0,0,1,476,31.13V23.74h-2.58V21.36h.73a1.88,1.88,0,0,0,2.07-2.07V17.11h2.41Z"/><path d="M497.52,28.08a6.89,6.89,0,1,1-13.78,0,6.89,6.89,0,1,1,13.78,0Zm-2.69,0c0-3.11-2-4.79-4.2-4.79s-4.2,1.68-4.2,4.79,2,4.82,4.2,4.82S494.83,31.22,494.83,28.08Z"/><path d="M508.35,24a8.25,8.25,0,0,0-1.15-.08c-2.21,0-3.7,1.18-3.7,4.14v6.75h-2.63V21.36h2.58v2.35a4.22,4.22,0,0,1,4-2.58,5,5,0,0,1,.87.08Z"/><path d="M584.68,34.83V15h12.07v2.55h-9.32v6.1h8.46v2.58h-8.46v6.08h9.32v2.55Z"/><path d="M603.72,28l-4.84-6.61h3.19l3.3,4.73,3.25-4.73h3.11L606.94,28c.81,1.09,4.14,5.77,5,6.86h-3.16l-3.47-5-3.42,5H598.7Z"/><path d="M617.66,27.13l3.64-.53c.81-.11,1-.53,1-1,0-1.32-.87-2.41-2.91-2.41a2.86,2.86,0,0,0-3.05,2.72l-2.52-.59c.28-2.58,2.6-4.37,5.52-4.37,4,0,5.6,2.3,5.6,4.93v6.75a12.71,12.71,0,0,0,.17,2.21h-2.58a9.77,9.77,0,0,1-.14-1.82,4.91,4.91,0,0,1-4.34,2.24,4.19,4.19,0,0,1-4.51-4C613.57,28.81,615.34,27.47,617.66,27.13Zm4.68,1.93v-.62l-4.12.62a2,2,0,0,0-2,2,2,2,0,0,0,2.18,2C620.6,33,622.34,32,622.34,29.06Z"/><path d="M629.06,34.83V21.36h2.52v1.79A4.64,4.64,0,0,1,635.66,21a4.21,4.21,0,0,1,4,2.55A4.83,4.83,0,0,1,644.2,21c2.35,0,4.65,1.6,4.65,5.12v8.74h-2.6V26.37c0-1.76-.87-3.08-2.86-3.08a3.14,3.14,0,0,0-3.11,3.39v8.15h-2.63V26.37c0-1.74-.84-3.08-2.86-3.08a3.12,3.12,0,0,0-3.14,3.42v8.12Z"/><path d="M653.05,40.15V21.36h2.55v2.1a5,5,0,0,1,4.51-2.41c4,0,6.19,3.11,6.19,7S664,35.19,660,35.19A5,5,0,0,1,655.65,33v7.14Zm6.58-16.77c-2.41,0-4,2-4,4.7s1.6,4.76,4,4.76,4-2,4-4.76S662.1,23.38,659.63,23.38Z"/><path d="M669.66,34.83V14.56h2.63V34.83Z"/><path d="M688.5,31a6.11,6.11,0,0,1-6,4.26c-3.61,0-6.78-2.63-6.78-7.2,0-4.23,3.05-7.11,6.44-7.11,4.14,0,6.47,2.86,6.47,7.06a5.85,5.85,0,0,1-.06.84H678.39a4,4,0,0,0,4.06,4.09,3.67,3.67,0,0,0,3.78-2.72Zm-2.66-4.28a3.39,3.39,0,0,0-3.7-3.44,3.62,3.62,0,0,0-3.67,3.44Z"/><path d="M789.41,26.71h-3v8.12h-2.77V15h7.48a5.75,5.75,0,0,1,6.08,5.91,5.56,5.56,0,0,1-4.82,5.63l4.73,8.32h-3.19Zm1.23-2.46c2.24,0,3.75-1.32,3.75-3.36s-1.51-3.44-3.75-3.44h-4.2v6.8Z"/><path d="M811.89,31a6.11,6.11,0,0,1-6,4.26c-3.61,0-6.78-2.63-6.78-7.2,0-4.23,3.05-7.11,6.44-7.11,4.14,0,6.47,2.86,6.47,7.06a5.85,5.85,0,0,1-.06.84H801.78a4,4,0,0,0,4.06,4.09,3.67,3.67,0,0,0,3.78-2.72Zm-2.66-4.28a3.39,3.39,0,0,0-3.7-3.44,3.62,3.62,0,0,0-3.67,3.44Z"/><path d="M816.45,30.49A2.87,2.87,0,0,0,819.59,33c1.48,0,2.3-.84,2.3-1.79s-.62-1.48-1.74-1.74l-2.3-.5a3.83,3.83,0,0,1-3.36-3.78,4.59,4.59,0,0,1,4.79-4.26c3.7,0,4.84,2.41,5.12,3.61l-2.32.87a2.61,2.61,0,0,0-2.8-2.24A2,2,0,0,0,817,25c0,.81.5,1.4,1.54,1.62l2.18.48c2.44.53,3.72,2,3.72,4s-1.6,4.17-4.93,4.17c-3.7,0-5.26-2.38-5.49-3.92Z"/><path d="M832.75,35.25c-3.14,0-5-2.35-5-5.4V21.36h2.63v8.09c0,1.85.84,3.47,3.05,3.47s3.19-1.4,3.19-3.44V21.36h2.63v11a22.47,22.47,0,0,0,.14,2.49h-2.52a12,12,0,0,1-.11-1.62A4.39,4.39,0,0,1,832.75,35.25Z"/><path d="M843.7,34.83V14.56h2.63V34.83Z"/><path d="M854.34,21.36h2.91v2.38h-2.91v7c0,1.23.5,1.85,1.88,1.85a5.32,5.32,0,0,0,1-.11v2.24a5.76,5.76,0,0,1-1.79.25,3.5,3.5,0,0,1-3.75-3.84V23.74h-2.58V21.36h.73a1.88,1.88,0,0,0,2.07-2.07V17.11h2.41Z"/></svg>