<svg id="Layer_1" data-name="Layer 1" xmlns="http://www.w3.org/2000/svg" viewBox="0 0 960 550"><defs><style>.cls-1{fill:none;}.cls-2{fill:#231f20;}.cls-3{fill:#ffdb00;}</style></defs><title>Slide-10-Var-Quantity-Annotated</title><rect class="cls-1" width="960" height="550"/><rect class="cls-2" x="296" y="117.44" width="362" height="70.07"/><path class="cls-3" d="M350.58,168.25h-4.75l-9.75-24.05h5.3l6.85,18.55,6.9-18.55h5.05Z"/><path class="cls-3" d="M370.23,154.5l6.5-.95c1.45-.2,1.85-1,1.85-1.8,0-2.35-1.55-4.3-5.2-4.3a5.1,5.1,0,0,0-5.45,4.85l-4.5-1c0.5-4.6,4.65-7.8,9.85-7.8,7.2,0,10,4.1,10,8.8V164.3a22.62,22.62,0,0,0,.3,4H379a17.59,17.59,0,0,1-.25-3.25,8.77,8.77,0,0,1-7.75,4c-4.9,0-8.05-3.4-8.05-7.2C362.93,157.5,366.08,155.1,370.23,154.5Zm8.35,3.45v-1.1l-7.35,1.1c-2,.3-3.5,1.45-3.5,3.6a3.65,3.65,0,0,0,3.9,3.5C375.48,165,378.58,163.2,378.58,157.95Z"/><path class="cls-3" d="M403.93,148.95a14.66,14.66,0,0,0-2.05-.15c-4,0-6.6,2.1-6.6,7.4v12.05h-4.7V144.2h4.6v4.2a7.53,7.53,0,0,1,7.2-4.6,8.81,8.81,0,0,1,1.55.15v5Z"/><path class="cls-3" d="M438.33,177.75v-12.9c-1.25,2.45-4,4.05-7.5,4.05-6.9,0-11.4-5.75-11.4-12.75,0-6.8,4.25-12.55,11.3-12.55,4.15,0,6.7,2.15,7.7,4.3v-3.7H443v33.55h-4.65Zm-7.05-13c4.25,0,7.1-3.65,7.1-8.6s-2.85-8.4-7.1-8.4-7.05,3.45-7.05,8.4S427,164.75,431.28,164.75Z"/><path class="cls-3" d="M459.23,169c-5.6,0-9-4.2-9-9.65V144.2h4.7v14.45c0,3.3,1.5,6.2,5.45,6.2s5.7-2.5,5.7-6.15V144.2h4.7v19.6a40.57,40.57,0,0,0,.25,4.45h-4.5a21.27,21.27,0,0,1-.2-2.9C465,167.85,462,169,459.23,169Z"/><path class="cls-3" d="M484.58,154.5l6.5-.95c1.45-.2,1.85-1,1.85-1.8,0-2.35-1.55-4.3-5.2-4.3a5.1,5.1,0,0,0-5.45,4.85l-4.5-1c0.5-4.6,4.65-7.8,9.85-7.8,7.2,0,10,4.1,10,8.8V164.3a22.67,22.67,0,0,0,.3,4h-4.6a17.54,17.54,0,0,1-.25-3.25,8.77,8.77,0,0,1-7.75,4c-4.9,0-8.05-3.4-8.05-7.2C477.28,157.5,480.43,155.1,484.58,154.5Zm8.35,3.45v-1.1l-7.35,1.1c-2,.3-3.5,1.45-3.5,3.6A3.65,3.65,0,0,0,486,165C489.83,165,492.93,163.2,492.93,157.95Z"/><path class="cls-3" d="M509.63,168.25h-4.7V144.2h4.6v3.45a8.24,8.24,0,0,1,7.4-4.15c5.75,0,8.6,4.15,8.6,9.5v15.25h-4.7V153.8c0-3.35-1.4-6.05-5.6-6.05-3.7,0-5.6,3-5.6,6.6v13.9Z"/><path class="cls-3" d="M539.33,144.2h5.2v4.25h-5.2v12.5c0,2.2.9,3.3,3.35,3.3a9.51,9.51,0,0,0,1.85-.2v4a10.28,10.28,0,0,1-3.2.45c-4.1,0-6.7-2.5-6.7-6.85v-13.2H530V144.2h1.3a3.36,3.36,0,0,0,3.7-3.7v-3.9h4.3v7.6Z"/><path class="cls-3" d="M553.08,131.7a3.38,3.38,0,1,1-3.35,3.4A3.37,3.37,0,0,1,553.08,131.7Zm-2.3,36.55V144.2h4.65v24.05h-4.65Z"/><path class="cls-3" d="M569.73,144.2h5.2v4.25h-5.2v12.5c0,2.2.9,3.3,3.35,3.3a9.51,9.51,0,0,0,1.85-.2v4a10.28,10.28,0,0,1-3.2.45c-4.1,0-6.7-2.5-6.7-6.85v-13.2h-4.6V144.2h1.3a3.36,3.36,0,0,0,3.7-3.7v-3.9h4.3v7.6Z"/><path class="cls-3" d="M582.28,178.3l6-12.7-10.35-21.4h5.4l7.5,16.6,7.2-16.6h5l-15.65,34.1h-5.15Z"/><path class="cls-3" d="M610.83,162c2.05,0,3.85,1.5,3.85,4.5,0,6.25-4.1,8.85-7.05,9.25V173.3a5.4,5.4,0,0,0,4-5.15,2,2,0,0,1-1,.25,3.08,3.08,0,0,1-3.2-3.25A3.32,3.32,0,0,1,610.83,162Zm0-18.05a3.48,3.48,0,0,1,3.5,3.5,3.44,3.44,0,0,1-3.5,3.45,3.39,3.39,0,0,1-3.45-3.45A3.44,3.44,0,0,1,610.83,143.95Z"/><polygon class="cls-2" points="198.67 260.83 196.67 260.83 196.67 151.47 297.33 151.47 297.33 153.47 198.67 153.47 198.67 260.83"/><polygon class="cls-2" points="192.68 259.37 197.67 268.01 202.65 259.37 192.68 259.37"/><polygon class="cls-2" points="758 260.83 756 260.83 756 153.47 656.33 153.47 656.33 151.47 758 151.47 758 260.83"/><polygon class="cls-2" points="752.01 259.37 757 268.01 761.99 259.37 752.01 259.37"/><path d="M94.54,276.41H97.6L92.08,291.3h-3l-5.5-14.89h3.17l3.88,11.07Z"/><path d="M100.48,285.36L103,285a0.73,0.73,0,0,0,.78-0.73c0-.73-0.57-1.34-1.74-1.34a1.83,1.83,0,0,0-2,1.68l-2.48-.53c0.17-1.62,1.66-3.4,4.43-3.4,3.28,0,4.49,1.85,4.49,3.93v5.08a11.57,11.57,0,0,0,.13,1.64h-2.56a7,7,0,0,1-.1-1.24,3.45,3.45,0,0,1-3,1.53,3.26,3.26,0,0,1-3.55-3.11C97.39,286.64,98.76,285.61,100.48,285.36Zm3.32,1.76v-0.46l-2.33.36a1.3,1.3,0,0,0-1.28,1.3,1.21,1.21,0,0,0,1.34,1.2A2.1,2.1,0,0,0,103.8,287.12Z"/><path d="M115.64,283.74a4.24,4.24,0,0,0-.84-0.08c-1.43,0-2.67.69-2.67,2.92v4.72h-2.79V281h2.71v1.53a3.07,3.07,0,0,1,2.94-1.62,6.5,6.5,0,0,1,.65,0v2.81Z"/><path d="M119,275.85a1.72,1.72,0,1,1-1.72,1.74A1.72,1.72,0,0,1,119,275.85Zm-1.39,15.45V281h2.79V291.3h-2.79Z"/><path d="M125.85,285.36l2.54-.38a0.73,0.73,0,0,0,.78-0.73c0-.73-0.57-1.34-1.74-1.34a1.83,1.83,0,0,0-2,1.68l-2.48-.53c0.17-1.62,1.66-3.4,4.43-3.4,3.28,0,4.49,1.85,4.49,3.93v5.08a11.57,11.57,0,0,0,.13,1.64h-2.56a7,7,0,0,1-.1-1.24,3.45,3.45,0,0,1-3,1.53,3.26,3.26,0,0,1-3.55-3.11C122.76,286.64,124.13,285.61,125.85,285.36Zm3.32,1.76v-0.46l-2.33.36a1.3,1.3,0,0,0-1.28,1.3,1.21,1.21,0,0,0,1.34,1.2A2.1,2.1,0,0,0,129.16,287.12Z"/><path d="M134.71,291.3V276.1h2.75v6a3.67,3.67,0,0,1,3.13-1.41c3,0,4.77,2.33,4.77,5.4s-1.93,5.46-4.87,5.46a3.5,3.5,0,0,1-3.07-1.51v1.26h-2.71Zm5.29-8.1a2.62,2.62,0,0,0-2.58,2.92,2.65,2.65,0,0,0,2.58,2.94c1.43,0,2.56-1.05,2.56-2.94S141.43,283.2,140,283.2Z"/><path d="M147.56,291.3V276.1h2.79v15.2h-2.79Z"/><path d="M162.6,288.34a4.65,4.65,0,0,1-4.7,3.28,5.49,5.49,0,0,1-.25-11c3.19,0,5.1,2,5.1,5.35,0,0.4,0,.82,0,0.86h-7.39a2.52,2.52,0,0,0,2.6,2.35,2.28,2.28,0,0,0,2.35-1.58ZM160,285a2.08,2.08,0,0,0-2.31-2,2.24,2.24,0,0,0-2.31,2H160Z"/><path d="M175.09,285.13l-1.85,2v4.14h-2.9V276.41h2.9v6.74l6-6.74H183l-5.9,6.49,5.94,8.4h-3.63Z"/><path d="M193.19,288.34a4.65,4.65,0,0,1-4.7,3.28,5.49,5.49,0,0,1-.25-11c3.19,0,5.1,2,5.1,5.35,0,0.4,0,.82,0,0.86h-7.39a2.52,2.52,0,0,0,2.6,2.35,2.28,2.28,0,0,0,2.35-1.58Zm-2.6-3.38a2.08,2.08,0,0,0-2.31-2,2.24,2.24,0,0,0-2.31,2h4.62Z"/><path d="M196,295.37l2.44-5.37-4.39-9h3.13l2.75,6,2.54-6h3L199,295.37h-3Z"/><path d="M216,281l2.23,6.66,1.91-6.66h2.77l-3.23,10.33h-2.79l-2.41-7.05-2.37,7.05h-2.83L205.92,281h2.94l1.91,6.63L213,281H216Z"/><path d="M234.39,286.14a5.42,5.42,0,1,1-5.42-5.48A5.3,5.3,0,0,1,234.39,286.14Zm-2.79,0a2.64,2.64,0,1,0-2.62,2.94A2.65,2.65,0,0,0,231.6,286.14Z"/><path d="M242.9,283.74a4.24,4.24,0,0,0-.84-0.08c-1.43,0-2.67.69-2.67,2.92v4.72H236.6V281h2.71v1.53a3.07,3.07,0,0,1,2.94-1.62,6.5,6.5,0,0,1,.65,0v2.81Z"/><path d="M254.62,289.43c0,0.69,0,1.45.08,1.87H252a7.13,7.13,0,0,1-.1-1.2,3.24,3.24,0,0,1-2.9,1.45c-2.94,0-5-2.31-5-5.44s2-5.4,5-5.4c1.78,0,2.62.73,2.92,1.28v-5.9h2.75v13.33Zm-5.25-.38c1.43,0,2.54-1.09,2.54-3a2.56,2.56,0,0,0-2.54-2.88,2.59,2.59,0,0,0-2.56,2.9C246.81,288,247.9,289.05,249.37,289.05Z"/><path d="M266.65,274.11l1.62,1.49a12.75,12.75,0,0,0,0,17.91L266.65,295A14.55,14.55,0,0,1,266.65,274.11Z"/><path d="M275,291.3h-2.79L268,281h3.07l2.56,6.93,2.46-6.93H279Z"/><path d="M283.14,285.36l2.54-.38a0.73,0.73,0,0,0,.78-0.73c0-.73-0.57-1.34-1.74-1.34a1.83,1.83,0,0,0-2,1.68l-2.48-.53c0.17-1.62,1.66-3.4,4.43-3.4,3.28,0,4.49,1.85,4.49,3.93v5.08a11.57,11.57,0,0,0,.13,1.64h-2.56a7,7,0,0,1-.1-1.24,3.45,3.45,0,0,1-3,1.53,3.26,3.26,0,0,1-3.55-3.11C280.05,286.64,281.42,285.61,283.14,285.36Zm3.32,1.76v-0.46l-2.33.36a1.3,1.3,0,0,0-1.28,1.3,1.21,1.21,0,0,0,1.34,1.2A2.1,2.1,0,0,0,286.45,287.12Z"/><path d="M298.3,283.74a4.24,4.24,0,0,0-.84-0.08c-1.43,0-2.67.69-2.67,2.92v4.72H292V281h2.71v1.53a3.07,3.07,0,0,1,2.94-1.62,6.5,6.5,0,0,1,.65,0v2.81Z"/><path d="M300.08,295l-1.62-1.47a12.75,12.75,0,0,0,0-17.91l1.62-1.49A14.55,14.55,0,0,1,300.08,295Z"/><path d="M308.65,280.82a1.88,1.88,0,1,1,0,3.76A1.88,1.88,0,0,1,308.65,280.82Zm0,6.87a1.88,1.88,0,1,1,0,3.76A1.88,1.88,0,0,1,308.67,287.69Z"/><path d="M90.76,308.53v13H88.7v-13h-5v-1.91h12v1.91h-5Z"/><path d="M104.43,318.63a4.58,4.58,0,0,1-4.54,3.19,5.38,5.38,0,0,1-.25-10.73c3.11,0,4.85,2.14,4.85,5.29a4.44,4.44,0,0,1,0,.63h-7.6a3,3,0,0,0,3,3.07,2.75,2.75,0,0,0,2.83-2Zm-2-3.21a2.54,2.54,0,0,0-2.77-2.58,2.72,2.72,0,0,0-2.75,2.58h5.52Z"/><path d="M107,321.5V306.3h2v15.2h-2Z"/><path d="M112.34,321.5V306.3h2v15.2h-2Z"/><path d="M118.52,318.25a2.15,2.15,0,0,0,2.35,1.89,1.49,1.49,0,0,0,1.72-1.34,1.41,1.41,0,0,0-1.3-1.3l-1.72-.38a2.87,2.87,0,0,1-2.52-2.83,3.44,3.44,0,0,1,3.59-3.19,3.58,3.58,0,0,1,3.84,2.71l-1.74.65a2,2,0,0,0-2.1-1.68,1.52,1.52,0,0,0-1.68,1.34,1.24,1.24,0,0,0,1.15,1.22l1.64,0.36c1.83,0.4,2.79,1.51,2.79,3s-1.2,3.13-3.7,3.13c-2.77,0-3.95-1.79-4.12-2.94Z"/><path d="M131.16,316.11l2.06-.46V317c0,2,1.07,2.86,2.56,2.86s2.44-1,2.44-2.71V306.62h2.06V317a4.46,4.46,0,0,1-4.47,4.77c-2.92,0-4.64-1.89-4.64-4.75v-1Z"/><path d="M146.07,315.73l2.73-.4a0.73,0.73,0,0,0,.78-0.76c0-1-.65-1.81-2.18-1.81a2.14,2.14,0,0,0-2.29,2l-1.89-.44a3.89,3.89,0,0,1,4.14-3.28c3,0,4.2,1.72,4.2,3.7v5.06a9.5,9.5,0,0,0,.13,1.66h-1.93a7.39,7.39,0,0,1-.1-1.36,3.68,3.68,0,0,1-3.25,1.68,3.15,3.15,0,0,1-3.38-3C143,317,144.33,316,146.07,315.73Zm3.51,1.45v-0.46l-3.09.46a1.51,1.51,0,0,0-1.47,1.51,1.53,1.53,0,0,0,1.64,1.47A2.65,2.65,0,0,0,149.58,317.18Z"/><path d="M159.24,321.5h-2l-4.09-10.1h2.23l2.88,7.79,2.9-7.79h2.12Z"/><path d="M167.49,315.73l2.73-.4a0.73,0.73,0,0,0,.78-0.76c0-1-.65-1.81-2.18-1.81a2.14,2.14,0,0,0-2.29,2l-1.89-.44a3.89,3.89,0,0,1,4.14-3.28c3,0,4.2,1.72,4.2,3.7v5.06a9.5,9.5,0,0,0,.13,1.66h-1.93a7.39,7.39,0,0,1-.1-1.36,3.68,3.68,0,0,1-3.25,1.68,3.15,3.15,0,0,1-3.38-3C164.42,317,165.75,316,167.49,315.73Zm3.51,1.45v-0.46l-3.09.46a1.51,1.51,0,0,0-1.47,1.51,1.53,1.53,0,0,0,1.64,1.47A2.65,2.65,0,0,0,171,317.18Z"/><path d="M183.89,310.65a3,3,0,0,0-3.15-2.54,2.63,2.63,0,0,0-2.88,2.48,2.16,2.16,0,0,0,1.91,2.16l2.23,0.48c2.48,0.55,3.86,2.1,3.86,4.18,0,2.31-2,4.41-5.14,4.41-3.59,0-5.29-2.31-5.56-4.43l2-.63a3.38,3.38,0,0,0,3.57,3.19c2.06,0,3.07-1.07,3.07-2.37a2.42,2.42,0,0,0-2.23-2.31l-2.12-.46c-2.12-.46-3.63-1.85-3.63-4.07a4.74,4.74,0,0,1,4.91-4.43c3.36,0,4.7,2.08,5,3.7Z"/><path d="M189.46,316.44c0,2.31,1.45,3.55,3.09,3.55a2.74,2.74,0,0,0,2.81-2.08l1.74,0.76a4.64,4.64,0,0,1-4.56,3.15,5.37,5.37,0,0,1,0-10.73A4.39,4.39,0,0,1,197,314.3l-1.78.76a2.65,2.65,0,0,0-2.71-2.14C190.93,312.91,189.46,314.09,189.46,316.44Z"/><path d="M205,313.4a6.16,6.16,0,0,0-.86-0.06c-1.66,0-2.77.88-2.77,3.11v5.06h-2V311.4h1.93v1.76a3.16,3.16,0,0,1,3-1.93,3.68,3.68,0,0,1,.65.06v2.1Z"/><path d="M208.08,306.15a1.42,1.42,0,1,1-1.41,1.43A1.42,1.42,0,0,1,208.08,306.15Zm-1,15.35V311.4h2v10.1h-2Z"/><path d="M212.43,325.49V311.4h1.91V313a3.72,3.72,0,0,1,3.38-1.81c3,0,4.64,2.33,4.64,5.27s-1.74,5.33-4.7,5.33a3.76,3.76,0,0,1-3.28-1.64v5.35h-2Zm4.93-12.58c-1.81,0-3,1.51-3,3.53s1.2,3.57,3,3.57,3-1.49,3-3.57S219.21,312.91,217.36,312.91Z"/><path d="M227.42,311.4h2.18v1.78h-2.18v5.25a1.2,1.2,0,0,0,1.41,1.39,4,4,0,0,0,.78-0.08v1.68a4.31,4.31,0,0,1-1.34.19,2.62,2.62,0,0,1-2.81-2.88v-5.54h-1.93V311.4h0.55a1.41,1.41,0,0,0,1.55-1.55v-1.64h1.81v3.19Z"/><path d="M240.13,311.4h2.18v1.78h-2.18v5.25a1.2,1.2,0,0,0,1.41,1.39,4,4,0,0,0,.78-0.08v1.68a4.31,4.31,0,0,1-1.34.19,2.62,2.62,0,0,1-2.81-2.88v-5.54h-1.93V311.4h0.55a1.41,1.41,0,0,0,1.55-1.55v-1.64h1.81v3.19Z"/><path d="M246.91,321.5h-2V306.3h2v6.28a3.57,3.57,0,0,1,3.07-1.47c2.41,0,3.61,1.74,3.61,4v6.4h-2v-6.07c0-1.41-.59-2.54-2.35-2.54-1.51,0-2.31,1.18-2.35,2.67v5.94Z"/><path d="M259.17,315.73l2.73-.4a0.73,0.73,0,0,0,.78-0.76c0-1-.65-1.81-2.18-1.81a2.14,2.14,0,0,0-2.29,2l-1.89-.44a3.89,3.89,0,0,1,4.14-3.28c3,0,4.2,1.72,4.2,3.7v5.06a9.5,9.5,0,0,0,.13,1.66h-1.93a7.39,7.39,0,0,1-.1-1.36,3.68,3.68,0,0,1-3.25,1.68,3.15,3.15,0,0,1-3.38-3C256.11,317,257.43,316,259.17,315.73Zm3.51,1.45v-0.46l-3.09.46a1.51,1.51,0,0,0-1.47,1.51,1.53,1.53,0,0,0,1.64,1.47A2.65,2.65,0,0,0,262.68,317.18Z"/><path d="M270.37,311.4h2.18v1.78h-2.18v5.25a1.2,1.2,0,0,0,1.41,1.39,4,4,0,0,0,.78-0.08v1.68a4.31,4.31,0,0,1-1.34.19,2.62,2.62,0,0,1-2.81-2.88v-5.54h-1.93V311.4H267a1.41,1.41,0,0,0,1.55-1.55v-1.64h1.81v3.19Z"/><path d="M288.15,311.4l2.62,7.6,2.23-7.6h2.08l-3.28,10.1h-2l-2.69-7.68-2.62,7.68h-2.08l-3.32-10.1h2.16l2.27,7.6,2.62-7.6h2Z"/><path d="M305.67,318.63a4.58,4.58,0,0,1-4.54,3.19,5.38,5.38,0,0,1-.25-10.73c3.11,0,4.85,2.14,4.85,5.29a4.44,4.44,0,0,1,0,.63h-7.6a3,3,0,0,0,3,3.07,2.75,2.75,0,0,0,2.83-2Zm-2-3.21a2.54,2.54,0,0,0-2.77-2.58,2.72,2.72,0,0,0-2.75,2.58h5.52Z"/><path d="M82.24,340.93l2.73-.4a0.74,0.74,0,0,0,.78-0.76c0-1-.65-1.81-2.18-1.81a2.14,2.14,0,0,0-2.29,2l-1.89-.44a3.89,3.89,0,0,1,4.14-3.28c3,0,4.2,1.72,4.2,3.7V345a9.5,9.5,0,0,0,.13,1.66H85.92a7.39,7.39,0,0,1-.1-1.37A3.68,3.68,0,0,1,82.56,347a3.15,3.15,0,0,1-3.38-3C79.18,342.19,80.5,341.18,82.24,340.93Zm3.51,1.45v-0.46l-3.09.46a1.51,1.51,0,0,0-1.47,1.51,1.53,1.53,0,0,0,1.64,1.47A2.65,2.65,0,0,0,85.75,342.38Z"/><path d="M96.39,338.6a6.16,6.16,0,0,0-.86-0.06c-1.66,0-2.77.88-2.77,3.11v5.06h-2V336.6h1.93v1.76a3.16,3.16,0,0,1,3-1.93,3.75,3.75,0,0,1,.65.06v2.1Z"/><path d="M107.19,343.82a4.58,4.58,0,0,1-4.54,3.19,5.38,5.38,0,0,1-.25-10.73c3.11,0,4.85,2.14,4.85,5.29a4.44,4.44,0,0,1,0,.63h-7.6a3,3,0,0,0,3,3.07,2.75,2.75,0,0,0,2.83-2Zm-2-3.21a2.55,2.55,0,0,0-2.77-2.58,2.72,2.72,0,0,0-2.75,2.58h5.52Z"/><path d="M122.1,345.17A3.38,3.38,0,0,1,119,347c-3,0-4.79-2.35-4.79-5.35s1.93-5.29,4.79-5.29a3.1,3.1,0,0,1,3.09,1.7V331.5h2v13.33a16,16,0,0,0,.1,1.87H122.2a8.46,8.46,0,0,1-.1-1.37v-0.17Zm-2.94.06c1.81,0,2.92-1.58,2.92-3.65s-1.09-3.51-2.9-3.51-3,1.47-3,3.55S117.27,345.23,119.16,345.23Z"/><path d="M136.17,343.82a4.58,4.58,0,0,1-4.54,3.19,5.38,5.38,0,0,1-.25-10.73c3.11,0,4.85,2.14,4.85,5.29a4.44,4.44,0,0,1,0,.63h-7.6a3,3,0,0,0,3,3.07,2.75,2.75,0,0,0,2.83-2Zm-2-3.21A2.55,2.55,0,0,0,131.4,338a2.72,2.72,0,0,0-2.75,2.58h5.52Z"/><path d="M139.93,341.64c0,2.31,1.45,3.55,3.09,3.55a2.75,2.75,0,0,0,2.81-2.08l1.74,0.76A4.64,4.64,0,0,1,143,347a5.37,5.37,0,0,1,0-10.73,4.39,4.39,0,0,1,4.49,3.21l-1.78.76a2.65,2.65,0,0,0-2.71-2.14C141.4,338.11,139.93,339.29,139.93,341.64Z"/><path d="M149.88,346.7V331.5h2v15.2h-2Z"/><path d="M157.65,340.93l2.73-.4a0.74,0.74,0,0,0,.78-0.76c0-1-.65-1.81-2.18-1.81a2.14,2.14,0,0,0-2.29,2l-1.89-.44a3.89,3.89,0,0,1,4.14-3.28c3,0,4.2,1.72,4.2,3.7V345a9.5,9.5,0,0,0,.13,1.66h-1.93a7.39,7.39,0,0,1-.1-1.37A3.68,3.68,0,0,1,158,347a3.15,3.15,0,0,1-3.38-3C154.59,342.19,155.91,341.18,157.65,340.93Zm3.51,1.45v-0.46l-3.09.46a1.51,1.51,0,0,0-1.47,1.51,1.53,1.53,0,0,0,1.64,1.47A2.65,2.65,0,0,0,161.16,342.38Z"/><path d="M171.8,338.6a6.16,6.16,0,0,0-.86-0.06c-1.66,0-2.77.88-2.77,3.11v5.06h-2V336.6h1.93v1.76a3.16,3.16,0,0,1,3-1.93,3.75,3.75,0,0,1,.65.06v2.1Z"/><path d="M174.87,331.35a1.42,1.42,0,1,1-1.41,1.43A1.42,1.42,0,0,1,174.87,331.35Zm-1,15.35V336.6h2v10.1h-2Z"/><path d="M181.19,346.7h-2V336.6h1.93v1.45a3.46,3.46,0,0,1,3.11-1.74c2.41,0,3.61,1.74,3.61,4v6.4h-2v-6.07c0-1.41-.59-2.54-2.35-2.54-1.55,0-2.35,1.24-2.35,2.77v5.84Z"/><path d="M192.2,346.81a2.68,2.68,0,0,0,2.75,2.48c2.12,0,3.09-1.09,3.09-3.28v-1.45a3.36,3.36,0,0,1-3.09,1.66,4.91,4.91,0,0,1,0-9.81,3.19,3.19,0,0,1,3.11,1.6V336.6h2v9.34c0,2.56-1.26,5.06-5.06,5.06a4.42,4.42,0,0,1-4.66-3.76Zm5.92-5.48c0-2-1.18-3.23-2.88-3.23a2.91,2.91,0,0,0-2.92,3.23c0,2,1.13,3.23,2.92,3.23S198.12,343.28,198.12,341.33Z"/><path d="M211.05,336.6h2.18v1.79h-2.18v5.25a1.2,1.2,0,0,0,1.41,1.39,4,4,0,0,0,.78-0.08v1.68a4.33,4.33,0,0,1-1.34.19,2.62,2.62,0,0,1-2.81-2.88v-5.54h-1.93V336.6h0.55a1.41,1.41,0,0,0,1.55-1.55v-1.64h1.81v3.19Z"/><path d="M217.84,346.7h-2V331.5h2v6.28a3.57,3.57,0,0,1,3.07-1.47c2.41,0,3.61,1.74,3.61,4v6.4h-2v-6.07c0-1.41-.59-2.54-2.35-2.54-1.51,0-2.31,1.18-2.35,2.67v5.94Z"/><path d="M236.46,343.82a4.58,4.58,0,0,1-4.54,3.19,5.38,5.38,0,0,1-.25-10.73c3.11,0,4.85,2.14,4.85,5.29a4.44,4.44,0,0,1,0,.63h-7.6a3,3,0,0,0,3,3.07,2.75,2.75,0,0,0,2.83-2Zm-2-3.21A2.55,2.55,0,0,0,231.7,338a2.72,2.72,0,0,0-2.75,2.58h5.52Z"/><path d="M248.92,346.7h-2l-4.09-10.1h2.23l2.88,7.79,2.9-7.79h2.12Z"/><path d="M257.17,340.93l2.73-.4a0.74,0.74,0,0,0,.78-0.76c0-1-.65-1.81-2.18-1.81a2.14,2.14,0,0,0-2.29,2l-1.89-.44a3.89,3.89,0,0,1,4.14-3.28c3,0,4.2,1.72,4.2,3.7V345a9.5,9.5,0,0,0,.13,1.66h-1.93a7.39,7.39,0,0,1-.1-1.37,3.68,3.68,0,0,1-3.25,1.68,3.15,3.15,0,0,1-3.38-3C254.1,342.19,255.43,341.18,257.17,340.93Zm3.51,1.45v-0.46l-3.09.46a1.51,1.51,0,0,0-1.47,1.51,1.53,1.53,0,0,0,1.64,1.47A2.65,2.65,0,0,0,260.68,342.38Z"/><path d="M271.32,338.6a6.16,6.16,0,0,0-.86-0.06c-1.66,0-2.77.88-2.77,3.11v5.06h-2V336.6h1.93v1.76a3.16,3.16,0,0,1,3-1.93,3.75,3.75,0,0,1,.65.06v2.1Z"/><path d="M274.39,331.35a1.42,1.42,0,1,1-1.41,1.43A1.42,1.42,0,0,1,274.39,331.35Zm-1,15.35V336.6h2v10.1h-2Z"/><path d="M281.17,340.93l2.73-.4a0.74,0.74,0,0,0,.78-0.76c0-1-.65-1.81-2.18-1.81a2.14,2.14,0,0,0-2.29,2l-1.89-.44a3.89,3.89,0,0,1,4.14-3.28c3,0,4.2,1.72,4.2,3.7V345a9.5,9.5,0,0,0,.13,1.66h-1.93a7.39,7.39,0,0,1-.1-1.37,3.68,3.68,0,0,1-3.25,1.68,3.15,3.15,0,0,1-3.38-3C278.11,342.19,279.43,341.18,281.17,340.93Zm3.51,1.45v-0.46l-3.09.46a1.51,1.51,0,0,0-1.47,1.51,1.53,1.53,0,0,0,1.64,1.47A2.65,2.65,0,0,0,284.68,342.38Z"/><path d="M289.72,346.7V331.5h2V338a3.68,3.68,0,0,1,3.34-1.72c3.07,0,4.64,2.35,4.64,5.29s-1.7,5.38-4.7,5.38a3.6,3.6,0,0,1-3.28-1.74v1.47h-2Zm4.93-8.65c-1.74,0-3,1.37-3,3.55s1.26,3.61,3,3.61,3-1.43,3-3.61S296.48,338.05,294.65,338.05Z"/><path d="M302.17,346.7V331.5h2v15.2h-2Z"/><path d="M316.3,343.82a4.58,4.58,0,0,1-4.54,3.19,5.38,5.38,0,0,1-.25-10.73c3.11,0,4.85,2.14,4.85,5.29a4.44,4.44,0,0,1,0,.63h-7.6a3,3,0,0,0,3,3.07,2.75,2.75,0,0,0,2.83-2Zm-2-3.21a2.55,2.55,0,0,0-2.77-2.58,2.72,2.72,0,0,0-2.75,2.58h5.52Z"/><path d="M123.12,363.59v8.31h-2v-8.31h-1.87V361.8h1.87v-1.7a3.2,3.2,0,0,1,3.32-3.46,2.56,2.56,0,0,1,1.18.21v1.76a2.31,2.31,0,0,0-.86-0.12,1.51,1.51,0,0,0-1.6,1.72v1.6h2.44v1.79h-2.44Z"/><path d="M136.74,366.84a5.17,5.17,0,1,1-5.17-5.35A5.1,5.1,0,0,1,136.74,366.84Zm-2,0c0-2.33-1.47-3.59-3.15-3.59s-3.15,1.26-3.15,3.59,1.47,3.61,3.15,3.61S134.73,369.19,134.73,366.84Z"/><path d="M144.87,363.8a6.16,6.16,0,0,0-.86-0.06c-1.66,0-2.77.88-2.77,3.11v5.06h-2V361.8h1.93v1.76a3.16,3.16,0,0,1,3-1.93,3.75,3.75,0,0,1,.65.06v2.1Z"/><path d="M154.87,361.8h2.18v1.79h-2.18v5.25a1.2,1.2,0,0,0,1.41,1.39,4,4,0,0,0,.78-0.08v1.68a4.33,4.33,0,0,1-1.34.19,2.62,2.62,0,0,1-2.81-2.88v-5.54H151V361.8h0.55a1.41,1.41,0,0,0,1.55-1.55v-1.64h1.81v3.19Z"/><path d="M161.65,371.9h-2V356.7h2V363a3.57,3.57,0,0,1,3.07-1.47c2.41,0,3.61,1.74,3.61,4v6.4h-2v-6.07c0-1.41-.59-2.54-2.35-2.54-1.51,0-2.31,1.18-2.35,2.67v5.94Z"/><path d="M180.28,369a4.58,4.58,0,0,1-4.54,3.19,5.38,5.38,0,0,1-.25-10.73c3.11,0,4.85,2.14,4.85,5.29a4.44,4.44,0,0,1,0,.63h-7.6a3,3,0,0,0,3,3.07,2.75,2.75,0,0,0,2.83-2Zm-2-3.21a2.55,2.55,0,0,0-2.77-2.58,2.72,2.72,0,0,0-2.75,2.58h5.52Z"/><path d="M190.76,363.59v8.31h-2v-8.31h-1.87V361.8h1.87v-1.7a3.2,3.2,0,0,1,3.32-3.46,2.56,2.56,0,0,1,1.18.21v1.76a2.31,2.31,0,0,0-.86-0.12,1.51,1.51,0,0,0-1.6,1.72v1.6h2.44v1.79h-2.44Z"/><path d="M196.28,356.55a1.42,1.42,0,1,1-1.41,1.43A1.42,1.42,0,0,1,196.28,356.55Zm-1,15.35V361.8h2v10.1h-2Z"/><path d="M206.23,363.8a6.16,6.16,0,0,0-.86-0.06c-1.66,0-2.77.88-2.77,3.11v5.06h-2V361.8h1.93v1.76a3.16,3.16,0,0,1,3-1.93,3.75,3.75,0,0,1,.65.06v2.1Z"/><path d="M209.17,368.65a2.15,2.15,0,0,0,2.35,1.89,1.49,1.49,0,0,0,1.72-1.34,1.4,1.4,0,0,0-1.3-1.3l-1.72-.38a2.87,2.87,0,0,1-2.52-2.83,3.44,3.44,0,0,1,3.59-3.19,3.58,3.58,0,0,1,3.84,2.71l-1.74.65a2,2,0,0,0-2.1-1.68,1.52,1.52,0,0,0-1.68,1.34,1.24,1.24,0,0,0,1.15,1.22l1.64,0.36c1.83,0.4,2.79,1.51,2.79,3s-1.2,3.13-3.7,3.13c-2.77,0-3.95-1.78-4.12-2.94Z"/><path d="M220.47,361.8h2.18v1.79h-2.18v5.25a1.2,1.2,0,0,0,1.41,1.39,4,4,0,0,0,.78-0.08v1.68a4.33,4.33,0,0,1-1.34.19,2.62,2.62,0,0,1-2.81-2.88v-5.54h-1.93V361.8h0.55a1.41,1.41,0,0,0,1.55-1.55v-1.64h1.81v3.19Z"/><path d="M233.18,361.8h2.18v1.79h-2.18v5.25a1.2,1.2,0,0,0,1.41,1.39,4,4,0,0,0,.78-0.08v1.68A4.33,4.33,0,0,1,234,372a2.62,2.62,0,0,1-2.81-2.88v-5.54h-1.93V361.8h0.55a1.41,1.41,0,0,0,1.55-1.55v-1.64h1.81v3.19Z"/><path d="M239,356.55a1.42,1.42,0,1,1-1.41,1.43A1.42,1.42,0,0,1,239,356.55Zm-1,15.35V361.8h2v10.1h-2Z"/><path d="M243.3,371.9V361.8h1.89v1.34a3.48,3.48,0,0,1,3.07-1.64,3.15,3.15,0,0,1,3,1.91,3.62,3.62,0,0,1,3.38-1.91c1.76,0,3.49,1.2,3.49,3.84v6.55h-2v-6.34a2,2,0,0,0-2.14-2.31,2.35,2.35,0,0,0-2.33,2.54v6.11h-2v-6.34a2,2,0,0,0-2.14-2.31,2.34,2.34,0,0,0-2.35,2.56v6.09h-2Z"/><path d="M270.09,369a4.58,4.58,0,0,1-4.54,3.19,5.38,5.38,0,0,1-.25-10.73c3.11,0,4.85,2.14,4.85,5.29a4.44,4.44,0,0,1,0,.63h-7.6a3,3,0,0,0,3,3.07,2.75,2.75,0,0,0,2.83-2Zm-2-3.21a2.55,2.55,0,0,0-2.77-2.58,2.72,2.72,0,0,0-2.75,2.58h5.52Z"/><path d="M273.6,369.09a1.46,1.46,0,0,1,1.47,1.47A1.44,1.44,0,0,1,273.6,372a1.43,1.43,0,0,1-1.45-1.45A1.44,1.44,0,0,1,273.6,369.09Z"/><path d="M691.88,276.41h3.07l-5.52,14.89h-3l-5.5-14.89h3.17L688,287.48Z"/><path d="M697.82,285.36l2.54-.38a0.73,0.73,0,0,0,.78-0.73c0-.73-0.57-1.34-1.74-1.34a1.83,1.83,0,0,0-2,1.68l-2.48-.53c0.17-1.62,1.66-3.4,4.43-3.4,3.28,0,4.49,1.85,4.49,3.93v5.08a11.65,11.65,0,0,0,.13,1.64h-2.56a7,7,0,0,1-.1-1.24,3.45,3.45,0,0,1-3,1.53,3.26,3.26,0,0,1-3.55-3.11C694.74,286.64,696.1,285.61,697.82,285.36Zm3.32,1.76v-0.46l-2.33.36a1.3,1.3,0,0,0-1.28,1.3,1.21,1.21,0,0,0,1.34,1.2A2.1,2.1,0,0,0,701.14,287.12Z"/><path d="M713,283.74a4.24,4.24,0,0,0-.84-0.08c-1.43,0-2.67.69-2.67,2.92v4.72h-2.79V281h2.71v1.53a3.07,3.07,0,0,1,2.94-1.62,6.5,6.5,0,0,1,.65,0v2.81Z"/><path d="M716.34,275.85a1.72,1.72,0,1,1-1.72,1.74A1.72,1.72,0,0,1,716.34,275.85ZM715,291.3V281h2.79V291.3H715Z"/><path d="M723.19,285.36l2.54-.38a0.73,0.73,0,0,0,.78-0.73c0-.73-0.57-1.34-1.74-1.34a1.83,1.83,0,0,0-2,1.68l-2.48-.53c0.17-1.62,1.66-3.4,4.43-3.4,3.28,0,4.49,1.85,4.49,3.93v5.08a11.5,11.5,0,0,0,.13,1.64H726.8a7,7,0,0,1-.11-1.24,3.45,3.45,0,0,1-3,1.53,3.26,3.26,0,0,1-3.55-3.11C720.1,286.64,721.47,285.61,723.19,285.36Zm3.32,1.76v-0.46l-2.33.36a1.3,1.3,0,0,0-1.28,1.3,1.21,1.21,0,0,0,1.34,1.2A2.1,2.1,0,0,0,726.51,287.12Z"/><path d="M732.05,291.3V276.1h2.75v6a3.67,3.67,0,0,1,3.13-1.41c3,0,4.77,2.33,4.77,5.4s-1.93,5.46-4.87,5.46a3.5,3.5,0,0,1-3.07-1.51v1.26h-2.71Zm5.29-8.1a2.62,2.62,0,0,0-2.58,2.92,2.65,2.65,0,0,0,2.58,2.94c1.43,0,2.56-1.05,2.56-2.94S738.77,283.2,737.34,283.2Z"/><path d="M744.9,291.3V276.1h2.79v15.2H744.9Z"/><path d="M759.94,288.34a4.65,4.65,0,0,1-4.7,3.28,5.49,5.49,0,0,1-.25-11c3.19,0,5.1,2,5.1,5.35,0,0.4,0,.82,0,0.86h-7.39a2.52,2.52,0,0,0,2.6,2.35,2.28,2.28,0,0,0,2.35-1.58Zm-2.6-3.38a2.08,2.08,0,0,0-2.31-2,2.24,2.24,0,0,0-2.31,2h4.62Z"/><path d="M777.35,291.3l-6.76-10.56V291.3h-2.9V276.41h3.61l6.19,9.85v-9.85h2.9V291.3h-3Z"/><path d="M786,285.36l2.54-.38a0.73,0.73,0,0,0,.78-0.73c0-.73-0.57-1.34-1.74-1.34a1.83,1.83,0,0,0-2,1.68l-2.48-.53c0.17-1.62,1.66-3.4,4.43-3.4,3.28,0,4.49,1.85,4.49,3.93v5.08a11.5,11.5,0,0,0,.13,1.64h-2.56a7,7,0,0,1-.11-1.24,3.45,3.45,0,0,1-3,1.53,3.26,3.26,0,0,1-3.55-3.11C782.91,286.64,784.28,285.61,786,285.36Zm3.32,1.76v-0.46L787,287a1.3,1.3,0,0,0-1.28,1.3,1.21,1.21,0,0,0,1.34,1.2A2.1,2.1,0,0,0,789.32,287.12Z"/><path d="M794.86,291.3V281h2.67v1.26a3.55,3.55,0,0,1,3-1.55,3.19,3.19,0,0,1,3.07,1.72,3.82,3.82,0,0,1,7,2.21v6.7h-2.71v-6.13a1.72,1.72,0,0,0-1.83-2,1.9,1.9,0,0,0-1.91,2v6h-2.77v-6.13a1.73,1.73,0,0,0-1.83-2,1.89,1.89,0,0,0-1.93,2v6h-2.79Z"/><path d="M822.73,288.34a4.65,4.65,0,0,1-4.7,3.28,5.49,5.49,0,0,1-.25-11c3.19,0,5.1,2,5.1,5.35,0,0.4,0,.82,0,0.86h-7.39a2.52,2.52,0,0,0,2.6,2.35,2.28,2.28,0,0,0,2.35-1.58Zm-2.6-3.38a2.08,2.08,0,0,0-2.31-2,2.24,2.24,0,0,0-2.31,2h4.62Z"/><path d="M826.59,287.9a1.72,1.72,0,0,0,1.89,1.58,1.15,1.15,0,0,0,1.37-1,1.11,1.11,0,0,0-1.11-1l-1.36-.31c-2-.44-2.9-1.64-2.9-3.09a3.6,3.6,0,0,1,3.86-3.38c2.94,0,3.93,1.87,4.05,3l-2.33.53a1.57,1.57,0,0,0-1.7-1.39,1.19,1.19,0,0,0-1.32,1,1,1,0,0,0,.94.92l1.47,0.32c2,0.42,3.07,1.66,3.07,3.17,0,1.68-1.3,3.4-4,3.4-3.11,0-4.18-2-4.3-3.19Z"/><path d="M626.06,295.11l1.62,1.49a12.75,12.75,0,0,0,0,17.91L626.06,316A14.55,14.55,0,0,1,626.06,295.11Z"/><path d="M646.19,297.41h3L645,312.3h-3l-3.4-10.6-3.4,10.6h-3l-4.14-14.89h3.07l2.73,10.25,3.3-10.25h3l3.32,10.29Z"/><path d="M653.69,312.3H650.9V297.1h2.79v5.73a3.69,3.69,0,0,1,2.79-1.13c2.62,0,3.84,1.83,3.84,4.09v6.51h-2.79v-6a1.82,1.82,0,0,0-1.91-2.06,1.93,1.93,0,0,0-1.93,2v6.07Z"/><path d="M665.62,306.36l2.54-.38a0.73,0.73,0,0,0,.78-0.73c0-.73-0.57-1.34-1.74-1.34a1.83,1.83,0,0,0-2,1.68l-2.48-.53c0.17-1.62,1.66-3.4,4.43-3.4,3.28,0,4.49,1.85,4.49,3.93v5.08a11.5,11.5,0,0,0,.13,1.64h-2.56a7,7,0,0,1-.11-1.24,3.45,3.45,0,0,1-3,1.53,3.26,3.26,0,0,1-3.55-3.11C662.53,307.64,663.9,306.61,665.62,306.36Zm3.32,1.76v-0.46l-2.33.36a1.3,1.3,0,0,0-1.28,1.3,1.21,1.21,0,0,0,1.34,1.2A2.1,2.1,0,0,0,668.94,308.12Z"/><path d="M677.86,302h2.08v2.48h-2.08v4.33a1,1,0,0,0,1.22,1.2,4.13,4.13,0,0,0,.86-0.08v2.31a4.13,4.13,0,0,1-1.58.25,3,3,0,0,1-3.28-3.19v-4.81h-1.87V302h0.52a1.49,1.49,0,0,0,1.6-1.64v-1.45h2.52V302Z"/><path d="M691.47,309.34a4.65,4.65,0,0,1-4.7,3.28,5.49,5.49,0,0,1-.25-11c3.19,0,5.1,2,5.1,5.35,0,0.4,0,.82,0,0.86h-7.39a2.52,2.52,0,0,0,2.6,2.35,2.28,2.28,0,0,0,2.35-1.58Zm-2.6-3.38a2.08,2.08,0,0,0-2.31-2,2.24,2.24,0,0,0-2.31,2h4.62Z"/><path d="M699.34,312.3h-2.79L692.33,302h3.07L698,308.9l2.46-6.93h2.94Z"/><path d="M714,309.34a4.65,4.65,0,0,1-4.7,3.28,5.49,5.49,0,0,1-.25-11c3.19,0,5.1,2,5.1,5.35,0,0.4,0,.82,0,0.86h-7.39a2.52,2.52,0,0,0,2.6,2.35,2.28,2.28,0,0,0,2.35-1.58ZM711.4,306a2.08,2.08,0,0,0-2.31-2,2.23,2.23,0,0,0-2.31,2h4.62Z"/><path d="M722.65,304.74a4.24,4.24,0,0,0-.84-0.08c-1.43,0-2.67.69-2.67,2.92v4.72h-2.79V302h2.71v1.53a3.07,3.07,0,0,1,2.94-1.62,6.5,6.5,0,0,1,.65,0v2.81Z"/><path d="M731.77,307.14a2.66,2.66,0,0,0,2.65,2.92,2.37,2.37,0,0,0,2.37-1.74l2.46,0.82a4.8,4.8,0,0,1-4.83,3.48,5.34,5.34,0,0,1-5.44-5.48,5.29,5.29,0,0,1,5.35-5.48,4.73,4.73,0,0,1,4.85,3.48l-2.5.84a2.25,2.25,0,0,0-2.29-1.74A2.63,2.63,0,0,0,731.77,307.14Z"/><path d="M751.26,307.14a5.42,5.42,0,1,1-5.42-5.48A5.3,5.3,0,0,1,751.26,307.14Zm-2.79,0a2.64,2.64,0,1,0-2.62,2.94A2.65,2.65,0,0,0,748.46,307.14Z"/><path d="M753.46,312.3V302h2.67v1.26a3.55,3.55,0,0,1,3-1.55,3.19,3.19,0,0,1,3.07,1.72,3.82,3.82,0,0,1,7,2.21v6.7h-2.71v-6.13a1.72,1.72,0,0,0-1.83-2,1.9,1.9,0,0,0-1.91,2v6H760v-6.13a1.73,1.73,0,0,0-1.83-2,1.89,1.89,0,0,0-1.93,2v6h-2.79Z"/><path d="M781.33,309.34a4.65,4.65,0,0,1-4.7,3.28,5.49,5.49,0,0,1-.25-11c3.19,0,5.1,2,5.1,5.35,0,0.4,0,.82,0,0.86H774a2.52,2.52,0,0,0,2.6,2.35,2.28,2.28,0,0,0,2.35-1.58Zm-2.6-3.38a2.08,2.08,0,0,0-2.31-2,2.24,2.24,0,0,0-2.31,2h4.62Z"/><path d="M785.19,308.9a1.72,1.72,0,0,0,1.89,1.58,1.15,1.15,0,0,0,1.37-1,1.11,1.11,0,0,0-1.11-1l-1.36-.31c-2-.44-2.9-1.64-2.9-3.09a3.6,3.6,0,0,1,3.86-3.38c2.94,0,3.93,1.87,4.05,3l-2.33.53a1.57,1.57,0,0,0-1.7-1.39,1.19,1.19,0,0,0-1.32,1,1,1,0,0,0,.94.92L788,306c2,0.42,3.07,1.66,3.07,3.17,0,1.68-1.3,3.4-4,3.4-3.11,0-4.18-2-4.3-3.19Z"/><path d="M801,306.36l2.54-.38a0.73,0.73,0,0,0,.78-0.73c0-.73-0.57-1.34-1.74-1.34a1.83,1.83,0,0,0-2,1.68l-2.48-.53c0.17-1.62,1.66-3.4,4.43-3.4,3.28,0,4.49,1.85,4.49,3.93v5.08a11.5,11.5,0,0,0,.13,1.64h-2.56a7,7,0,0,1-.11-1.24,3.45,3.45,0,0,1-3,1.53,3.26,3.26,0,0,1-3.55-3.11C797.92,307.64,799.28,306.61,801,306.36Zm3.32,1.76v-0.46L802,308a1.3,1.3,0,0,0-1.28,1.3,1.21,1.21,0,0,0,1.34,1.2A2.1,2.1,0,0,0,804.32,308.12Z"/><path d="M813.21,300.84V302h2.33v2.39h-2.33v7.94h-2.81v-7.94h-1.72V302h1.72v-1.18a3.56,3.56,0,0,1,3.76-3.84,4.08,4.08,0,0,1,1.39.21v2.35a3.17,3.17,0,0,0-.88-0.1A1.32,1.32,0,0,0,813.21,300.84Z"/><path d="M821.23,302h2.08v2.48h-2.08v4.33a1,1,0,0,0,1.22,1.2,4.13,4.13,0,0,0,.86-0.08v2.31a4.13,4.13,0,0,1-1.58.25,3,3,0,0,1-3.28-3.19v-4.81h-1.87V302h0.52a1.49,1.49,0,0,0,1.6-1.64v-1.45h2.52V302Z"/><path d="M834.83,309.34a4.65,4.65,0,0,1-4.7,3.28,5.49,5.49,0,0,1-.25-11c3.19,0,5.1,2,5.1,5.35,0,0.4,0,.82,0,0.86h-7.39a2.52,2.52,0,0,0,2.6,2.35,2.28,2.28,0,0,0,2.35-1.58Zm-2.6-3.38a2.08,2.08,0,0,0-2.31-2,2.24,2.24,0,0,0-2.31,2h4.62Z"/><path d="M843.49,304.74a4.24,4.24,0,0,0-.84-0.08c-1.43,0-2.67.69-2.67,2.92v4.72h-2.79V302h2.71v1.53a3.07,3.07,0,0,1,2.94-1.62,6.5,6.5,0,0,1,.65,0v2.81Z"/><path d="M856.32,312.3h-2.79L849.3,302h3.07l2.56,6.93,2.46-6.93h2.94Z"/><path d="M864.45,306.36L867,306a0.73,0.73,0,0,0,.78-0.73c0-.73-0.57-1.34-1.74-1.34a1.83,1.83,0,0,0-2,1.68l-2.48-.53c0.17-1.62,1.66-3.4,4.43-3.4,3.28,0,4.49,1.85,4.49,3.93v5.08a11.5,11.5,0,0,0,.13,1.64h-2.56a7,7,0,0,1-.11-1.24,3.45,3.45,0,0,1-3,1.53,3.26,3.26,0,0,1-3.55-3.11C861.36,307.64,862.72,306.61,864.45,306.36Zm3.32,1.76v-0.46l-2.33.36a1.3,1.3,0,0,0-1.28,1.3,1.21,1.21,0,0,0,1.34,1.2A2.1,2.1,0,0,0,867.76,308.12Z"/><path d="M879.61,304.74a4.24,4.24,0,0,0-.84-0.08c-1.43,0-2.67.69-2.67,2.92v4.72h-2.79V302H876v1.53a3.07,3.07,0,0,1,2.94-1.62,6.5,6.5,0,0,1,.65,0v2.81Z"/><path d="M881.39,316l-1.62-1.47a12.75,12.75,0,0,0,0-17.91l1.62-1.49A14.55,14.55,0,0,1,881.39,316Z"/><path d="M890,301.82a1.88,1.88,0,1,1,0,3.76A1.88,1.88,0,0,1,890,301.82Zm0,6.87a1.88,1.88,0,1,1,0,3.76A1.88,1.88,0,0,1,890,308.69Z"/><path d="M667.14,342.5L667,340.4a5.3,5.3,0,0,1-4.77,2.42c-3.74,0-7.22-2.73-7.22-7.77a7.34,7.34,0,0,1,7.37-7.75,6.62,6.62,0,0,1,6.59,4.49l-1.87.8a4.7,4.7,0,0,0-4.72-3.4c-2.67,0-5.27,1.91-5.27,5.86s2.52,5.9,5.19,5.9a4.23,4.23,0,0,0,4.6-3.88h-5.17v-1.85h7.12v7.29h-1.66Z"/><path d="M672.73,327.15a1.42,1.42,0,1,1-1.41,1.43A1.42,1.42,0,0,1,672.73,327.15Zm-1,15.35V332.4h2v10.1h-2Z"/><path d="M681.69,342.5h-2l-4.09-10.1h2.23l2.88,7.79,2.9-7.79h2.12Z"/><path d="M696.1,339.63a4.58,4.58,0,0,1-4.54,3.19,5.38,5.38,0,0,1-.25-10.73c3.11,0,4.85,2.14,4.85,5.29a4.36,4.36,0,0,1,0,.63h-7.6a3,3,0,0,0,3,3.07,2.75,2.75,0,0,0,2.83-2Zm-2-3.21a2.54,2.54,0,0,0-2.77-2.58,2.72,2.72,0,0,0-2.75,2.58h5.52Z"/><path d="M699.52,339.25a2.15,2.15,0,0,0,2.35,1.89,1.49,1.49,0,0,0,1.72-1.34,1.41,1.41,0,0,0-1.3-1.3l-1.72-.38a2.87,2.87,0,0,1-2.52-2.83,3.44,3.44,0,0,1,3.59-3.19,3.58,3.58,0,0,1,3.84,2.71l-1.74.65a2,2,0,0,0-2.1-1.68,1.52,1.52,0,0,0-1.68,1.34,1.24,1.24,0,0,0,1.15,1.22l1.64,0.36c1.83,0.4,2.79,1.51,2.79,3s-1.2,3.13-3.7,3.13c-2.77,0-3.95-1.79-4.12-2.94Z"/><path d="M718,342.5h-2L712,332.4h2.23l2.88,7.79,2.9-7.79h2.12Z"/><path d="M726.3,336.73l2.73-.4a0.74,0.74,0,0,0,.78-0.76c0-1-.65-1.81-2.18-1.81a2.14,2.14,0,0,0-2.29,2l-1.89-.44a3.9,3.9,0,0,1,4.14-3.28c3,0,4.2,1.72,4.2,3.7v5.06a9.5,9.5,0,0,0,.13,1.66H730a7.37,7.37,0,0,1-.11-1.36,3.68,3.68,0,0,1-3.25,1.68,3.15,3.15,0,0,1-3.38-3C723.23,338,724.56,337,726.3,336.73Zm3.51,1.45v-0.46l-3.09.46a1.51,1.51,0,0,0-1.47,1.51,1.53,1.53,0,0,0,1.64,1.47A2.65,2.65,0,0,0,729.8,338.18Z"/><path d="M740.45,334.4a6.16,6.16,0,0,0-.86-0.06c-1.66,0-2.77.88-2.77,3.11v5.06h-2V332.4h1.93v1.76a3.16,3.16,0,0,1,3-1.93,3.67,3.67,0,0,1,.65.06v2.1Z"/><path d="M743.52,327.15a1.42,1.42,0,1,1-1.41,1.43A1.42,1.42,0,0,1,743.52,327.15Zm-1,15.35V332.4h2v10.1h-2Z"/><path d="M750.3,336.73l2.73-.4a0.73,0.73,0,0,0,.78-0.76c0-1-.65-1.81-2.18-1.81a2.14,2.14,0,0,0-2.29,2l-1.89-.44a3.89,3.89,0,0,1,4.14-3.28c3,0,4.2,1.72,4.2,3.7v5.06a9.5,9.5,0,0,0,.13,1.66H754a7.4,7.4,0,0,1-.1-1.36,3.69,3.69,0,0,1-3.25,1.68,3.15,3.15,0,0,1-3.38-3C747.24,338,748.56,337,750.3,336.73Zm3.51,1.45v-0.46l-3.09.46a1.51,1.51,0,0,0-1.47,1.51,1.53,1.53,0,0,0,1.64,1.47A2.65,2.65,0,0,0,753.81,338.18Z"/><path d="M758.85,342.5V327.3h2v6.53a3.68,3.68,0,0,1,3.34-1.72c3.07,0,4.64,2.35,4.64,5.29s-1.7,5.38-4.7,5.38A3.6,3.6,0,0,1,760.8,341v1.47h-2Zm4.93-8.65c-1.74,0-3,1.36-3,3.55s1.26,3.61,3,3.61,3-1.43,3-3.61S765.61,333.85,763.78,333.85Z"/><path d="M771.3,342.5V327.3h2v15.2h-2Z"/><path d="M785.43,339.63a4.58,4.58,0,0,1-4.54,3.19,5.38,5.38,0,0,1-.25-10.73c3.11,0,4.85,2.14,4.85,5.29a4.51,4.51,0,0,1,0,.63h-7.6a3,3,0,0,0,3,3.07,2.75,2.75,0,0,0,2.83-2Zm-2-3.21a2.54,2.54,0,0,0-2.77-2.58,2.72,2.72,0,0,0-2.75,2.58h5.52Z"/><path d="M795.7,336.73l2.73-.4a0.73,0.73,0,0,0,.78-0.76c0-1-.65-1.81-2.18-1.81a2.14,2.14,0,0,0-2.29,2l-1.89-.44a3.89,3.89,0,0,1,4.14-3.28c3,0,4.2,1.72,4.2,3.7v5.06a9.5,9.5,0,0,0,.13,1.66h-1.93a7.4,7.4,0,0,1-.1-1.36,3.69,3.69,0,0,1-3.25,1.68,3.15,3.15,0,0,1-3.38-3C792.64,338,794,337,795.7,336.73Zm3.51,1.45v-0.46l-3.09.46a1.51,1.51,0,0,0-1.47,1.51,1.53,1.53,0,0,0,1.64,1.47A2.65,2.65,0,0,0,799.21,338.18Z"/><path d="M811.47,342.5h-2V332.4h1.93v1.45a3.46,3.46,0,0,1,3.11-1.74c2.42,0,3.61,1.74,3.61,4v6.4h-2v-6.07c0-1.41-.59-2.54-2.35-2.54-1.55,0-2.35,1.24-2.35,2.77v5.84Z"/><path d="M823.74,336.73l2.73-.4a0.74,0.74,0,0,0,.78-0.76c0-1-.65-1.81-2.18-1.81a2.14,2.14,0,0,0-2.29,2l-1.89-.44a3.9,3.9,0,0,1,4.14-3.28c3,0,4.2,1.72,4.2,3.7v5.06a9.5,9.5,0,0,0,.13,1.66h-1.93a7.37,7.37,0,0,1-.11-1.36,3.68,3.68,0,0,1-3.25,1.68,3.15,3.15,0,0,1-3.38-3C820.67,338,822,337,823.74,336.73Zm3.51,1.45v-0.46l-3.09.46a1.51,1.51,0,0,0-1.47,1.51,1.53,1.53,0,0,0,1.64,1.47A2.65,2.65,0,0,0,827.24,338.18Z"/><path d="M832.28,342.5V332.4h1.89v1.34a3.48,3.48,0,0,1,3.07-1.64,3.15,3.15,0,0,1,3,1.91,3.63,3.63,0,0,1,3.38-1.91c1.76,0,3.49,1.2,3.49,3.84v6.55h-2v-6.34a2,2,0,0,0-2.14-2.31,2.35,2.35,0,0,0-2.33,2.54v6.11h-2v-6.34a2,2,0,0,0-2.14-2.31,2.34,2.34,0,0,0-2.35,2.56v6.09h-2Z"/><path d="M859.08,339.63a4.58,4.58,0,0,1-4.54,3.19,5.38,5.38,0,0,1-.25-10.73c3.11,0,4.85,2.14,4.85,5.29a4.51,4.51,0,0,1,0,.63h-7.6a3,3,0,0,0,3,3.07,2.75,2.75,0,0,0,2.83-2Zm-2-3.21a2.54,2.54,0,0,0-2.77-2.58,2.72,2.72,0,0,0-2.75,2.58h5.52Z"/><path d="M617.34,351l1.2,1a13.27,13.27,0,0,0,0,17.93l-1.2,1A14.57,14.57,0,0,1,617.34,351Z"/><path d="M626.54,352.5a7.76,7.76,0,1,1-7.47,7.75A7.42,7.42,0,0,1,626.54,352.5Zm0,13.63c2.77,0,5.38-2,5.38-5.88s-2.6-5.86-5.37-5.86-5.37,2-5.37,5.86S623.77,366.13,626.54,366.13Z"/><path d="M638.61,367.7h-2V357.6h1.93v1.45a3.46,3.46,0,0,1,3.11-1.74c2.41,0,3.61,1.74,3.61,4v6.4h-2v-6.07c0-1.41-.59-2.54-2.35-2.54-1.55,0-2.35,1.24-2.35,2.77v5.84Z"/><path d="M648.44,367.7V352.5h2v15.2h-2Z"/><path d="M654.13,371.92l2.52-5.33-4.35-9h2.27l3.15,7,3-7h2.12l-6.57,14.32h-2.16Z"/><path d="M672.44,361.93l2.73-.4a0.74,0.74,0,0,0,.78-0.76c0-1-.65-1.81-2.18-1.81a2.14,2.14,0,0,0-2.29,2l-1.89-.44a3.9,3.9,0,0,1,4.14-3.28c3,0,4.2,1.72,4.2,3.7V366a9.5,9.5,0,0,0,.13,1.66h-1.93a7.38,7.38,0,0,1-.11-1.37,3.68,3.68,0,0,1-3.25,1.68,3.15,3.15,0,0,1-3.38-3C669.38,363.19,670.7,362.18,672.44,361.93Zm3.51,1.45v-0.46l-3.09.46a1.51,1.51,0,0,0-1.47,1.51,1.53,1.53,0,0,0,1.64,1.47A2.65,2.65,0,0,0,676,363.38Z"/><path d="M681,367.7V352.5h2v15.2h-2Z"/><path d="M686.33,371.69V357.6h1.91v1.58a3.73,3.73,0,0,1,3.38-1.81c3,0,4.64,2.33,4.64,5.27s-1.74,5.33-4.7,5.33a3.76,3.76,0,0,1-3.28-1.64v5.35h-2Zm4.93-12.58c-1.81,0-3,1.51-3,3.53s1.2,3.57,3,3.57,3-1.49,3-3.57S693.11,359.11,691.26,359.11Z"/><path d="M700.75,367.7h-2V352.5h2v6.28a3.57,3.57,0,0,1,3.07-1.47c2.42,0,3.61,1.74,3.61,4v6.4h-2v-6.07c0-1.41-.59-2.54-2.35-2.54-1.51,0-2.31,1.18-2.35,2.67v5.94Z"/><path d="M713,361.93l2.73-.4a0.74,0.74,0,0,0,.78-0.76c0-1-.65-1.81-2.18-1.81a2.14,2.14,0,0,0-2.29,2l-1.89-.44a3.9,3.9,0,0,1,4.14-3.28c3,0,4.2,1.72,4.2,3.7V366a9.5,9.5,0,0,0,.13,1.66h-1.93a7.38,7.38,0,0,1-.11-1.37,3.68,3.68,0,0,1-3.25,1.68,3.15,3.15,0,0,1-3.38-3C709.95,363.19,711.27,362.18,713,361.93Zm3.51,1.45v-0.46l-3.09.46a1.51,1.51,0,0,0-1.47,1.51,1.53,1.53,0,0,0,1.64,1.47A2.65,2.65,0,0,0,716.52,363.38Z"/><path d="M723.54,367.7h-2V357.6h1.93v1.45a3.46,3.46,0,0,1,3.11-1.74c2.41,0,3.61,1.74,3.61,4v6.4h-2v-6.07c0-1.41-.59-2.54-2.35-2.54-1.55,0-2.35,1.24-2.35,2.77v5.84Z"/><path d="M736.83,368A3.73,3.73,0,0,1,733,364V357.6h2v6.07c0,1.39.63,2.6,2.29,2.6a2.28,2.28,0,0,0,2.39-2.58V357.6h2v8.23a17,17,0,0,0,.1,1.87h-1.89a8.93,8.93,0,0,1-.08-1.22A3.29,3.29,0,0,1,736.83,368Z"/><path d="M745,367.7V357.6h1.89v1.34a3.48,3.48,0,0,1,3.07-1.64,3.15,3.15,0,0,1,3,1.91,3.62,3.62,0,0,1,3.38-1.91c1.76,0,3.49,1.2,3.49,3.84v6.55h-2v-6.34a2,2,0,0,0-2.14-2.31,2.35,2.35,0,0,0-2.33,2.54v6.11h-2v-6.34a2,2,0,0,0-2.14-2.31,2.34,2.34,0,0,0-2.35,2.56v6.09h-2Z"/><path d="M771.83,364.82A4.58,4.58,0,0,1,767.3,368a5.38,5.38,0,0,1-.25-10.73c3.11,0,4.85,2.14,4.85,5.29a4.51,4.51,0,0,1,0,.63h-7.6a3,3,0,0,0,3,3.07,2.75,2.75,0,0,0,2.83-2Zm-2-3.21a2.55,2.55,0,0,0-2.77-2.58,2.72,2.72,0,0,0-2.75,2.58h5.52Z"/><path d="M780,359.6a6.16,6.16,0,0,0-.86-0.06c-1.66,0-2.77.88-2.77,3.11v5.06h-2V357.6h1.93v1.76a3.16,3.16,0,0,1,3-1.93,3.74,3.74,0,0,1,.65.06v2.1Z"/><path d="M783.09,352.35a1.42,1.42,0,1,1-1.41,1.43A1.42,1.42,0,0,1,783.09,352.35Zm-1,15.35V357.6h2v10.1h-2Z"/><path d="M788.61,362.64c0,2.31,1.45,3.55,3.09,3.55a2.75,2.75,0,0,0,2.81-2.08l1.74,0.76A4.64,4.64,0,0,1,791.7,368a5.37,5.37,0,0,1,0-10.73,4.39,4.39,0,0,1,4.49,3.21l-1.79.76a2.65,2.65,0,0,0-2.71-2.14C790.08,359.11,788.61,360.29,788.61,362.64Z"/><path d="M805,362.64c0,2.31,1.45,3.55,3.09,3.55a2.75,2.75,0,0,0,2.81-2.08l1.74,0.76a4.64,4.64,0,0,1-4.56,3.15,5.37,5.37,0,0,1,0-10.73,4.39,4.39,0,0,1,4.49,3.21l-1.79.76a2.65,2.65,0,0,0-2.71-2.14C806.46,359.11,805,360.29,805,362.64Z"/><path d="M816.92,367.7h-2V352.5h2v6.28a3.57,3.57,0,0,1,3.07-1.47c2.41,0,3.61,1.74,3.61,4v6.4h-2v-6.07c0-1.41-.59-2.54-2.35-2.54-1.51,0-2.31,1.18-2.35,2.67v5.94Z"/><path d="M829.19,361.93l2.73-.4a0.74,0.74,0,0,0,.78-0.76c0-1-.65-1.81-2.18-1.81a2.14,2.14,0,0,0-2.29,2l-1.89-.44a3.89,3.89,0,0,1,4.14-3.28c3,0,4.2,1.72,4.2,3.7V366a9.5,9.5,0,0,0,.13,1.66h-1.93a7.41,7.41,0,0,1-.1-1.37A3.68,3.68,0,0,1,829.5,368a3.15,3.15,0,0,1-3.38-3C826.12,363.19,827.44,362.18,829.19,361.93Zm3.51,1.45v-0.46l-3.09.46a1.51,1.51,0,0,0-1.47,1.51,1.53,1.53,0,0,0,1.64,1.47A2.65,2.65,0,0,0,832.69,363.38Z"/><path d="M843.34,359.6a6.16,6.16,0,0,0-.86-0.06c-1.66,0-2.77.88-2.77,3.11v5.06h-2V357.6h1.93v1.76a3.16,3.16,0,0,1,3-1.93,3.76,3.76,0,0,1,.65.06v2.1Z"/><path d="M847.88,361.93l2.73-.4a0.74,0.74,0,0,0,.78-0.76c0-1-.65-1.81-2.18-1.81a2.14,2.14,0,0,0-2.29,2l-1.89-.44a3.89,3.89,0,0,1,4.14-3.28c3,0,4.2,1.72,4.2,3.7V366a9.5,9.5,0,0,0,.13,1.66h-1.93a7.41,7.41,0,0,1-.1-1.37,3.68,3.68,0,0,1-3.25,1.68,3.15,3.15,0,0,1-3.38-3C844.81,363.19,846.13,362.18,847.88,361.93Zm3.51,1.45v-0.46l-3.09.46a1.51,1.51,0,0,0-1.47,1.51,1.53,1.53,0,0,0,1.64,1.47A2.65,2.65,0,0,0,851.38,363.38Z"/><path d="M857.6,362.64c0,2.31,1.45,3.55,3.09,3.55a2.75,2.75,0,0,0,2.81-2.08l1.74,0.76a4.64,4.64,0,0,1-4.56,3.15,5.37,5.37,0,0,1,0-10.73,4.39,4.39,0,0,1,4.49,3.21l-1.78.76a2.65,2.65,0,0,0-2.71-2.14C859.07,359.11,857.6,360.29,857.6,362.64Z"/><path d="M870.2,357.6h2.18v1.79H870.2v5.25A1.2,1.2,0,0,0,871.6,366a4,4,0,0,0,.78-0.08v1.68a4.33,4.33,0,0,1-1.34.19,2.62,2.62,0,0,1-2.81-2.88v-5.54h-1.93V357.6h0.55a1.41,1.41,0,0,0,1.55-1.55v-1.64h1.81v3.19Z"/><path d="M883.7,364.82a4.58,4.58,0,0,1-4.54,3.19,5.38,5.38,0,0,1-.25-10.73c3.11,0,4.85,2.14,4.85,5.29a4.36,4.36,0,0,1,0,.63h-7.6a3,3,0,0,0,3,3.07,2.75,2.75,0,0,0,2.83-2Zm-2-3.21a2.55,2.55,0,0,0-2.77-2.58,2.72,2.72,0,0,0-2.75,2.58h5.52Z"/><path d="M891.89,359.6a6.16,6.16,0,0,0-.86-0.06c-1.66,0-2.77.88-2.77,3.11v5.06h-2V357.6h1.93v1.76a3.16,3.16,0,0,1,3-1.93,3.76,3.76,0,0,1,.65.06v2.1Z"/><path d="M894.83,364.45a2.15,2.15,0,0,0,2.35,1.89A1.49,1.49,0,0,0,898.9,365a1.4,1.4,0,0,0-1.3-1.3l-1.72-.38a2.87,2.87,0,0,1-2.52-2.83,3.44,3.44,0,0,1,3.59-3.19,3.58,3.58,0,0,1,3.84,2.71l-1.74.65A2,2,0,0,0,897,359a1.52,1.52,0,0,0-1.68,1.34,1.24,1.24,0,0,0,1.16,1.22l1.64,0.36c1.83,0.4,2.79,1.51,2.79,3s-1.2,3.13-3.7,3.13c-2.77,0-3.95-1.78-4.12-2.94Z"/><path d="M637.38,382.8l2.62,7.6,2.23-7.6h2.08L641,392.9h-2l-2.69-7.68-2.62,7.68h-2.08l-3.32-10.1h2.16l2.27,7.6,2.62-7.6h2Z"/><path d="M647.28,377.55a1.42,1.42,0,1,1-1.41,1.43A1.42,1.42,0,0,1,647.28,377.55Zm-1,15.35V382.8h2v10.1h-2Z"/><path d="M654.27,382.8h2.18v1.79h-2.18v5.25a1.2,1.2,0,0,0,1.41,1.39,4,4,0,0,0,.78-0.08v1.68a4.33,4.33,0,0,1-1.34.19,2.62,2.62,0,0,1-2.81-2.88v-5.54h-1.93V382.8h0.55a1.41,1.41,0,0,0,1.55-1.55v-1.64h1.81v3.19Z"/><path d="M661.05,392.9h-2V377.7h2V384a3.57,3.57,0,0,1,3.07-1.47c2.41,0,3.61,1.74,3.61,4v6.4h-2v-6.07c0-1.41-.59-2.54-2.35-2.54-1.51,0-2.31,1.18-2.35,2.67v5.94Z"/><path d="M679.8,393.21a3.73,3.73,0,0,1-3.78-4.05V382.8h2v6.07c0,1.39.63,2.6,2.29,2.6a2.28,2.28,0,0,0,2.39-2.58V382.8h2V391a17,17,0,0,0,.1,1.87h-1.89a8.93,8.93,0,0,1-.08-1.22A3.29,3.29,0,0,1,679.8,393.21Z"/><path d="M690,392.9h-2V382.8h1.93v1.45a3.46,3.46,0,0,1,3.11-1.74c2.41,0,3.61,1.74,3.61,4v6.4h-2v-6.07c0-1.41-.59-2.54-2.35-2.54-1.55,0-2.35,1.24-2.35,2.77v5.84Z"/><path d="M706.89,391.37a3.38,3.38,0,0,1-3.13,1.81c-3,0-4.79-2.35-4.79-5.35s1.93-5.29,4.79-5.29a3.1,3.1,0,0,1,3.09,1.7V377.7h2V391a16.14,16.14,0,0,0,.1,1.87H707a8.44,8.44,0,0,1-.11-1.37v-0.17Zm-2.94.06c1.81,0,2.92-1.58,2.92-3.65s-1.09-3.51-2.9-3.51-3,1.47-3,3.55S702.06,391.43,704,391.43Z"/><path d="M721,390a4.58,4.58,0,0,1-4.54,3.19,5.38,5.38,0,0,1-.25-10.73c3.11,0,4.85,2.14,4.85,5.29a4.36,4.36,0,0,1,0,.63h-7.6a3,3,0,0,0,3,3.07,2.75,2.75,0,0,0,2.83-2Zm-2-3.21a2.55,2.55,0,0,0-2.77-2.58,2.72,2.72,0,0,0-2.75,2.58H719Z"/><path d="M729.15,384.8a6.16,6.16,0,0,0-.86-0.06c-1.66,0-2.77.88-2.77,3.11v5.06h-2V382.8h1.93v1.76a3.16,3.16,0,0,1,3-1.93,3.76,3.76,0,0,1,.65.06v2.1Z"/><path d="M732.09,389.65a2.15,2.15,0,0,0,2.35,1.89,1.49,1.49,0,0,0,1.72-1.34,1.4,1.4,0,0,0-1.3-1.3l-1.72-.38a2.87,2.87,0,0,1-2.52-2.83,3.44,3.44,0,0,1,3.59-3.19,3.58,3.58,0,0,1,3.84,2.71l-1.74.65a2,2,0,0,0-2.1-1.68,1.52,1.52,0,0,0-1.68,1.34,1.24,1.24,0,0,0,1.16,1.22l1.64,0.36c1.83,0.4,2.79,1.51,2.79,3s-1.2,3.13-3.7,3.13c-2.77,0-3.95-1.78-4.12-2.94Z"/><path d="M741.82,387.84c0,2.31,1.45,3.55,3.09,3.55a2.75,2.75,0,0,0,2.81-2.08l1.74,0.76a4.64,4.64,0,0,1-4.56,3.15,5.37,5.37,0,0,1,0-10.73,4.39,4.39,0,0,1,4.49,3.21l-1.79.76a2.65,2.65,0,0,0-2.71-2.14C743.29,384.31,741.82,385.49,741.82,387.84Z"/><path d="M761.16,387.84a5.17,5.17,0,1,1-5.17-5.35A5.1,5.1,0,0,1,761.16,387.84Zm-2,0c0-2.33-1.47-3.59-3.15-3.59s-3.15,1.26-3.15,3.59,1.47,3.61,3.15,3.61S759.14,390.19,759.14,387.84Z"/><path d="M769.28,384.8a6.16,6.16,0,0,0-.86-0.06c-1.66,0-2.77.88-2.77,3.11v5.06h-2V382.8h1.93v1.76a3.16,3.16,0,0,1,3-1.93,3.74,3.74,0,0,1,.65.06v2.1Z"/><path d="M780.08,390a4.58,4.58,0,0,1-4.54,3.19,5.38,5.38,0,0,1-.25-10.73c3.11,0,4.85,2.14,4.85,5.29a4.51,4.51,0,0,1,0,.63h-7.6a3,3,0,0,0,3,3.07,2.75,2.75,0,0,0,2.83-2Zm-2-3.21a2.55,2.55,0,0,0-2.77-2.58,2.72,2.72,0,0,0-2.75,2.58h5.52Z"/><path d="M783.5,389.65a2.15,2.15,0,0,0,2.35,1.89,1.49,1.49,0,0,0,1.72-1.34,1.4,1.4,0,0,0-1.3-1.3l-1.72-.38a2.87,2.87,0,0,1-2.52-2.83,3.44,3.44,0,0,1,3.59-3.19,3.58,3.58,0,0,1,3.84,2.71l-1.74.65a2,2,0,0,0-2.1-1.68,1.52,1.52,0,0,0-1.68,1.34,1.24,1.24,0,0,0,1.16,1.22l1.64,0.36c1.83,0.4,2.79,1.51,2.79,3s-1.2,3.13-3.7,3.13c-2.77,0-3.95-1.78-4.12-2.94Z"/><path d="M791.67,396.26l-1.2-1a13.27,13.27,0,0,0,0-17.93l1.2-1A14.57,14.57,0,0,1,791.67,396.26Z"/><path d="M799.73,390.09a1.46,1.46,0,0,1,1.47,1.47,1.44,1.44,0,0,1-1.47,1.45,1.43,1.43,0,0,1-1.45-1.45A1.44,1.44,0,0,1,799.73,390.09Z"/><path d="M815.17,379.92v13h-2.06v-13h-5V378h12v1.91h-5Z"/><path d="M824,392.9h-2V377.7h2V384a3.57,3.57,0,0,1,3.07-1.47c2.42,0,3.61,1.74,3.61,4v6.4h-2v-6.07c0-1.41-.59-2.54-2.35-2.54-1.51,0-2.31,1.18-2.35,2.67v5.94Z"/><path d="M834.8,377.55A1.42,1.42,0,1,1,833.4,379,1.42,1.42,0,0,1,834.8,377.55Zm-1,15.35V382.8h2v10.1h-2Z"/><path d="M840,389.65a2.15,2.15,0,0,0,2.35,1.89,1.49,1.49,0,0,0,1.72-1.34,1.4,1.4,0,0,0-1.3-1.3l-1.72-.38a2.87,2.87,0,0,1-2.52-2.83,3.44,3.44,0,0,1,3.59-3.19A3.58,3.58,0,0,1,846,385.2l-1.74.65a2,2,0,0,0-2.1-1.68,1.52,1.52,0,0,0-1.68,1.34,1.24,1.24,0,0,0,1.16,1.22l1.64,0.36c1.83,0.4,2.79,1.51,2.79,3s-1.2,3.13-3.7,3.13c-2.77,0-3.95-1.78-4.12-2.94Z"/><path d="M855.07,387.84c0,2.31,1.45,3.55,3.09,3.55a2.75,2.75,0,0,0,2.81-2.08l1.74,0.76a4.64,4.64,0,0,1-4.56,3.15,5.37,5.37,0,0,1,0-10.73,4.39,4.39,0,0,1,4.49,3.21l-1.78.76a2.65,2.65,0,0,0-2.71-2.14C856.54,384.31,855.07,385.49,855.07,387.84Z"/><path d="M867.35,387.13l2.73-.4a0.74,0.74,0,0,0,.78-0.76c0-1-.65-1.81-2.18-1.81a2.14,2.14,0,0,0-2.29,2l-1.89-.44a3.9,3.9,0,0,1,4.14-3.28c3,0,4.2,1.72,4.2,3.7v5.06a9.5,9.5,0,0,0,.13,1.66H871a7.38,7.38,0,0,1-.11-1.37,3.68,3.68,0,0,1-3.25,1.68,3.15,3.15,0,0,1-3.38-3C864.29,388.39,865.61,387.38,867.35,387.13Zm3.51,1.45v-0.46l-3.09.46a1.51,1.51,0,0,0-1.47,1.51,1.53,1.53,0,0,0,1.64,1.47A2.65,2.65,0,0,0,870.86,388.58Z"/><path d="M877.87,392.9h-2V382.8h1.93v1.45a3.46,3.46,0,0,1,3.11-1.74c2.41,0,3.61,1.74,3.61,4v6.4h-2v-6.07c0-1.41-.59-2.54-2.35-2.54-1.55,0-2.35,1.24-2.35,2.77v5.84Z"/><path d="M654.2,418.1V402.9h2v6.53a3.68,3.68,0,0,1,3.34-1.72c3.07,0,4.64,2.35,4.64,5.29s-1.7,5.38-4.7,5.38a3.6,3.6,0,0,1-3.28-1.74v1.47h-2Zm4.93-8.65c-1.74,0-3,1.36-3,3.55s1.26,3.61,3,3.61,3-1.43,3-3.61S661,409.45,659.13,409.45Z"/><path d="M675.45,415.22a4.58,4.58,0,0,1-4.54,3.19,5.38,5.38,0,0,1-.25-10.73c3.11,0,4.85,2.14,4.85,5.29a4.51,4.51,0,0,1,0,.63h-7.6a3,3,0,0,0,3,3.07,2.75,2.75,0,0,0,2.83-2Zm-2-3.21a2.54,2.54,0,0,0-2.77-2.58,2.72,2.72,0,0,0-2.75,2.58h5.52Z"/><path d="M685.72,412.33l2.73-.4a0.73,0.73,0,0,0,.78-0.76c0-1-.65-1.81-2.18-1.81a2.14,2.14,0,0,0-2.29,2l-1.89-.44a3.89,3.89,0,0,1,4.14-3.28c3,0,4.2,1.72,4.2,3.7v5.06a9.5,9.5,0,0,0,.13,1.66h-1.93a7.4,7.4,0,0,1-.1-1.36,3.69,3.69,0,0,1-3.25,1.68,3.15,3.15,0,0,1-3.38-3C682.65,413.59,684,412.58,685.72,412.33Zm3.51,1.45v-0.46l-3.09.46a1.51,1.51,0,0,0-1.47,1.51,1.53,1.53,0,0,0,1.64,1.47A2.65,2.65,0,0,0,689.22,413.78Z"/><path d="M696.24,418.1h-2V408h1.93v1.45a3.46,3.46,0,0,1,3.11-1.74c2.42,0,3.61,1.74,3.61,4v6.4h-2V412c0-1.41-.59-2.54-2.35-2.54-1.55,0-2.35,1.24-2.35,2.77v5.84Z"/><path d="M706.42,422.32l2.52-5.33-4.35-9h2.27l3.15,7,3-7h2.12l-6.57,14.32h-2.16Z"/><path d="M719.8,408H722v1.78H719.8V415a1.2,1.2,0,0,0,1.41,1.39,4,4,0,0,0,.78-0.08V418a4.31,4.31,0,0,1-1.34.19,2.62,2.62,0,0,1-2.81-2.88v-5.54h-1.93V408h0.55a1.41,1.41,0,0,0,1.55-1.55v-1.64h1.81V408Z"/><path d="M726.58,418.1h-2V402.9h2v6.28a3.57,3.57,0,0,1,3.07-1.47c2.42,0,3.61,1.74,3.61,4v6.4h-2V412c0-1.41-.59-2.54-2.35-2.54-1.51,0-2.31,1.18-2.35,2.67v5.94Z"/><path d="M737.38,402.75a1.42,1.42,0,1,1-1.41,1.43A1.42,1.42,0,0,1,737.38,402.75Zm-1,15.35V408h2v10.1h-2Z"/><path d="M743.7,418.1h-2V408h1.93v1.45a3.46,3.46,0,0,1,3.11-1.74c2.41,0,3.61,1.74,3.61,4v6.4h-2V412c0-1.41-.59-2.54-2.35-2.54-1.55,0-2.35,1.24-2.35,2.77v5.84Z"/><path d="M754.7,418.21a2.68,2.68,0,0,0,2.75,2.48c2.12,0,3.09-1.09,3.09-3.28V416a3.36,3.36,0,0,1-3.09,1.66,4.91,4.91,0,0,1,0-9.8,3.19,3.19,0,0,1,3.11,1.6V408h2v9.34c0,2.56-1.26,5.06-5.06,5.06a4.42,4.42,0,0,1-4.66-3.76Zm5.92-5.48c0-2-1.18-3.23-2.88-3.23a2.91,2.91,0,0,0-2.92,3.23c0,2,1.13,3.23,2.92,3.23S760.62,414.68,760.62,412.73Z"/><path d="M771.27,422.32l2.52-5.33-4.35-9h2.27l3.15,7,3-7H780l-6.57,14.32h-2.16Z"/><path d="M791,413a5.17,5.17,0,1,1-5.17-5.35A5.1,5.1,0,0,1,791,413Zm-2,0c0-2.33-1.47-3.59-3.15-3.59s-3.15,1.26-3.15,3.59,1.47,3.61,3.15,3.61S788.95,415.39,788.95,413Z"/><path d="M797.06,418.42a3.73,3.73,0,0,1-3.78-4.05V408h2v6.07c0,1.39.63,2.6,2.29,2.6a2.28,2.28,0,0,0,2.39-2.58V408h2v8.23a17,17,0,0,0,.1,1.87h-1.89a9,9,0,0,1-.08-1.22A3.3,3.3,0,0,1,797.06,418.42Z"/><path d="M818.24,408l2.62,7.6,2.23-7.6h2.08l-3.28,10.1h-2l-2.69-7.68-2.62,7.68h-2.08L809.15,408h2.16l2.27,7.6,2.62-7.6h2Z"/><path d="M829.5,412.33l2.73-.4a0.74,0.74,0,0,0,.78-0.76c0-1-.65-1.81-2.18-1.81a2.14,2.14,0,0,0-2.29,2l-1.89-.44a3.9,3.9,0,0,1,4.14-3.28c3,0,4.2,1.72,4.2,3.7v5.06a9.5,9.5,0,0,0,.13,1.66h-1.93a7.37,7.37,0,0,1-.11-1.36,3.68,3.68,0,0,1-3.25,1.68,3.15,3.15,0,0,1-3.38-3C826.44,413.59,827.76,412.58,829.5,412.33Zm3.51,1.45v-0.46l-3.09.46a1.51,1.51,0,0,0-1.47,1.51,1.53,1.53,0,0,0,1.64,1.47A2.65,2.65,0,0,0,833,413.78Z"/><path d="M840,418.1h-2V408H840v1.45a3.46,3.46,0,0,1,3.11-1.74c2.41,0,3.61,1.74,3.61,4v6.4h-2V412c0-1.41-.59-2.54-2.35-2.54-1.55,0-2.35,1.24-2.35,2.77v5.84Z"/><path d="M852.5,408h2.18v1.78H852.5V415a1.2,1.2,0,0,0,1.41,1.39,4,4,0,0,0,.78-0.08V418a4.31,4.31,0,0,1-1.34.19,2.62,2.62,0,0,1-2.81-2.88v-5.54h-1.93V408h0.55a1.41,1.41,0,0,0,1.55-1.55v-1.64h1.81V408Z"/><path d="M858.54,415.29a1.46,1.46,0,0,1,1.47,1.47,1.44,1.44,0,0,1-1.47,1.45,1.42,1.42,0,0,1-1.45-1.45A1.44,1.44,0,0,1,858.54,415.29Z"/><rect class="cls-1" width="960" height="550"/></svg>