<svg id="Layer_1" data-name="Layer 1" xmlns="http://www.w3.org/2000/svg" viewBox="0 0 370.67 447.67"><defs><style>.cls-1{fill:#231f20;}.cls-2{fill:#fff;}.cls-3{fill:#ececec;}.cls-4{fill:#85e8da;}</style></defs><title>Slide-8-Info-ContainerV2</title><path class="cls-1" d="M334.42,430.33H308.83a1.5,1.5,0,0,1,0-3h25.58A1.5,1.5,0,0,1,334.42,430.33Z"/><path class="cls-1" d="M350,421H308.83a1.5,1.5,0,0,1,0-3H350A1.5,1.5,0,0,1,350,421Z"/><path class="cls-1" d="M369.17,411.67H308.83a1.5,1.5,0,0,1,0-3h60.33A1.5,1.5,0,0,1,369.17,411.67Z"/><path class="cls-2" d="M286.83,60.63V45.5H33.5V60.63a34,34,0,0,1-16,28.87h0a34,34,0,0,0-16,28.87v303a24.82,24.82,0,0,0,24.82,24.82H294a24.82,24.82,0,0,0,24.82-24.82v-303a34,34,0,0,0-16-28.87h0A34,34,0,0,1,286.83,60.63Z"/><path class="cls-1" d="M294,447.67H26.32A26.35,26.35,0,0,1,0,421.35v-303A35.34,35.34,0,0,1,16.71,88.23,32.36,32.36,0,0,0,32,60.63V44H288.33V60.63a32.36,32.36,0,0,0,15.29,27.6,35.34,35.34,0,0,1,16.71,30.14v303A26.35,26.35,0,0,1,294,447.67ZM35,47V60.63A35.34,35.34,0,0,1,18.29,90.77,32.36,32.36,0,0,0,3,118.37v303a23.34,23.34,0,0,0,23.32,23.32H294a23.34,23.34,0,0,0,23.32-23.32v-303A32.36,32.36,0,0,0,302,90.77a35.34,35.34,0,0,1-16.71-30.14V47H35Z"/><rect class="cls-3" x="14.83" y="1.5" width="294" height="56.67" rx="7.58" ry="7.58"/><path class="cls-1" d="M301.25,59.67H22.41a9.09,9.09,0,0,1-9.08-9.08V9.08A9.09,9.09,0,0,1,22.41,0H301.25a9.09,9.09,0,0,1,9.08,9.08v41.5A9.09,9.09,0,0,1,301.25,59.67ZM22.41,3a6.09,6.09,0,0,0-6.08,6.08v41.5a6.09,6.09,0,0,0,6.08,6.08H301.25a6.09,6.09,0,0,0,6.08-6.08V9.08A6.09,6.09,0,0,0,301.25,3H22.41Z"/><rect x="37.02" y="1.5" width="3" height="56.67"/><rect x="50.03" y="1.5" width="3" height="56.67"/><rect x="63.05" y="1.5" width="3" height="56.67"/><rect x="76.06" y="1.5" width="3" height="56.67"/><rect x="89.08" y="1.5" width="3" height="56.67"/><rect x="102.1" y="1.5" width="3" height="56.67"/><rect x="115.11" y="1.5" width="3" height="56.67"/><rect x="128.13" y="1.5" width="3" height="56.67"/><rect x="141.14" y="1.5" width="3" height="56.67"/><rect x="154.16" y="1.5" width="3" height="56.67"/><rect x="167.17" y="1.5" width="3" height="56.67"/><rect x="180.19" y="1.5" width="3" height="56.67"/><rect x="193.21" y="1.5" width="3" height="56.67"/><rect x="206.22" y="1.5" width="3" height="56.67"/><rect x="219.24" y="1.5" width="3" height="56.67"/><rect x="232.25" y="1.5" width="3" height="56.67"/><rect x="245.27" y="1.5" width="3" height="56.67"/><rect x="258.29" y="1.5" width="3" height="56.67"/><rect x="271.3" y="1.5" width="3" height="56.67"/><rect x="284.32" y="1.5" width="3" height="56.67"/><rect x="297.33" y="1.5" width="3" height="56.67"/><rect x="24" y="1.5" width="3" height="56.67"/><path class="cls-4" d="M21.28,135.7a3,3,0,0,0-3,3V406.64a22.19,22.19,0,0,0,22.19,22.19H279.86a22.19,22.19,0,0,0,22.19-22.19V138.7a3,3,0,0,0-3-3H21.28Z"/><path d="M279.86,430.33H40.47a23.69,23.69,0,0,1-23.69-23.69V138.7a4.5,4.5,0,0,1,4.5-4.5H299.05a4.5,4.5,0,0,1,4.5,4.5V406.64A23.69,23.69,0,0,1,279.86,430.33ZM21.28,137.2a1.5,1.5,0,0,0-1.5,1.5V406.64a20.69,20.69,0,0,0,20.69,20.69H279.86a20.69,20.69,0,0,0,20.69-20.69V138.7a1.5,1.5,0,0,0-1.5-1.5H21.28Z"/><path d="M48.43,270.68v-30h5.92v30H48.43Z"/><path d="M66.39,270.68H60.77V249.89h5.45v2.58a6.91,6.91,0,0,1,6-3.13c5.16,0,7.52,3.68,7.52,8.24v13.1H74.13V258.55c0-2.32-1.14-4.14-3.85-4.14-2.45,0-3.89,1.9-3.89,4.31v12Z"/><path d="M92.17,247.6v2.28h4.69v4.82H92.17v16H86.51v-16H83v-4.82h3.47v-2.37c0-4.69,3-7.74,7.57-7.74a8.18,8.18,0,0,1,2.79.42v4.73a6.26,6.26,0,0,0-1.78-.21A2.65,2.65,0,0,0,92.17,247.6Z"/><path d="M120.28,260.28a10.91,10.91,0,1,1-10.9-11A10.68,10.68,0,0,1,120.28,260.28Zm-5.62,0c0-3.93-2.54-5.92-5.28-5.92s-5.28,2-5.28,5.92,2.54,5.92,5.28,5.92S114.66,264.21,114.66,260.28Z"/><path d="M137.39,255.47a8.46,8.46,0,0,0-1.69-.17c-2.87,0-5.37,1.39-5.37,5.88v9.51h-5.62V249.89h5.45V253c1.27-2.75,4.14-3.25,5.92-3.25a12.89,12.89,0,0,1,1.31.08v5.66Z"/><path d="M141.36,270.68V249.89h5.37v2.54c1.14-2,3.8-3.13,6.09-3.13,2.83,0,5.11,1.23,6.17,3.47a7.22,7.22,0,0,1,6.59-3.47c3.85,0,7.52,2.32,7.52,7.9v13.48h-5.45V258.34c0-2.24-1.1-3.93-3.68-3.93a3.82,3.82,0,0,0-3.85,4.1v12.17h-5.58V258.34c0-2.24-1.14-3.93-3.68-3.93a3.81,3.81,0,0,0-3.89,4.1v12.17h-5.62Z"/><path d="M183.75,258.72l5.11-.76c1.18-.17,1.56-0.76,1.56-1.48,0-1.48-1.14-2.71-3.51-2.71a3.69,3.69,0,0,0-4,3.38l-5-1.06c0.34-3.25,3.34-6.85,8.92-6.85,6.59,0,9,3.72,9,7.9v10.23a23.27,23.27,0,0,0,.25,3.3H191a14.07,14.07,0,0,1-.21-2.49,7,7,0,0,1-6.13,3.09c-4.44,0-7.14-3-7.14-6.26C177.54,261.3,180.28,259.23,183.75,258.72Zm6.68,3.55v-0.93l-4.69.72a2.62,2.62,0,0,0-2.58,2.62,2.44,2.44,0,0,0,2.71,2.41C188.23,267.09,190.43,265.95,190.43,262.27Z"/><path d="M208.39,249.89h4.18v5h-4.18v8.71c0,1.82.85,2.41,2.45,2.41a8.2,8.2,0,0,0,1.73-.17v4.65a8.35,8.35,0,0,1-3.17.51c-4.06,0-6.59-2.41-6.59-6.42v-9.68H199v-5h1.06a3,3,0,0,0,3.21-3.3v-2.92h5.07v6.21Z"/><path d="M220.14,239.57a3.47,3.47,0,1,1-3.47,3.51A3.46,3.46,0,0,1,220.14,239.57Zm-2.79,31.11V249.89H223v20.79h-5.62Z"/><path d="M249.21,260.28a10.91,10.91,0,1,1-10.91-11A10.68,10.68,0,0,1,249.21,260.28Zm-5.62,0c0-3.93-2.54-5.92-5.28-5.92s-5.28,2-5.28,5.92,2.54,5.92,5.28,5.92S243.59,264.21,243.59,260.28Z"/><path d="M259.27,270.68h-5.62V249.89h5.45v2.58a6.91,6.91,0,0,1,6-3.13c5.16,0,7.52,3.68,7.52,8.24v13.1H267V258.55c0-2.32-1.14-4.14-3.85-4.14-2.45,0-3.89,1.9-3.89,4.31v12Z"/></svg>