<svg id="Layer_1" data-name="Layer 1" xmlns="http://www.w3.org/2000/svg" viewBox="0 0 960 550"><defs><style>.cls-1{fill:none;}.cls-2{fill:#231f20;}.cls-3{fill:#ffdb00;}.cls-4{fill:#fff;}.cls-5{fill:#1ecac7;}.cls-6{fill:#e51b24;}</style></defs><title>Slide-34-Santa</title><rect class="cls-1" width="960" height="550"/><polygon class="cls-2" points="398.03 217.23 398.03 159.46 486.93 159.46 486.93 101.69 111 101.69 111 159.46 111 217.23 111 275 614.97 275 614.97 217.23 398.03 217.23"/><path class="cls-3" d="M22.72,41.89h-3.8l-7.8-19.24h4.24l5.48,14.84,5.52-14.84h4Z" transform="translate(111 101.69)"/><path class="cls-3" d="M38.44,30.89l5.2-.76a1.4,1.4,0,0,0,1.48-1.44c0-1.88-1.24-3.44-4.16-3.44a4.08,4.08,0,0,0-4.36,3.88L33,28.29c0.4-3.68,3.72-6.24,7.88-6.24,5.76,0,8,3.28,8,7v9.64a18.08,18.08,0,0,0,.24,3.16H45.44a14.07,14.07,0,0,1-.2-2.6,7,7,0,0,1-6.2,3.2c-3.92,0-6.44-2.72-6.44-5.76C32.6,33.29,35.12,31.37,38.44,30.89Zm6.68,2.76V32.77l-5.88.88c-1.6.24-2.8,1.16-2.8,2.88a2.92,2.92,0,0,0,3.12,2.8C42.64,39.33,45.12,37.85,45.12,33.65Z" transform="translate(111 101.69)"/><path class="cls-3" d="M65.4,26.45a11.71,11.71,0,0,0-1.64-.12c-3.16,0-5.28,1.68-5.28,5.92v9.64H54.72V22.65H58.4V26a6,6,0,0,1,5.76-3.68,7.06,7.06,0,0,1,1.24.12v4Z" transform="translate(111 101.69)"/><path class="cls-3" d="M83.16,41.89H79.4V22.65h3.68v2.76A6.59,6.59,0,0,1,89,22.09c4.6,0,6.88,3.32,6.88,7.6v12.2H92.12V30.33c0-2.68-1.12-4.84-4.48-4.84-3,0-4.48,2.36-4.48,5.28V41.89Z" transform="translate(111 101.69)"/><path class="cls-3" d="M106.52,30.89l5.2-.76a1.4,1.4,0,0,0,1.48-1.44c0-1.88-1.24-3.44-4.16-3.44a4.08,4.08,0,0,0-4.36,3.88l-3.6-.84c0.4-3.68,3.72-6.24,7.88-6.24,5.76,0,8,3.28,8,7v9.64a18.08,18.08,0,0,0,.24,3.16h-3.68a14.07,14.07,0,0,1-.2-2.6,7,7,0,0,1-6.2,3.2c-3.92,0-6.44-2.72-6.44-5.76C100.68,33.29,103.2,31.37,106.52,30.89Zm6.68,2.76V32.77l-5.88.88c-1.6.24-2.8,1.16-2.8,2.88a2.92,2.92,0,0,0,3.12,2.8C110.72,39.33,113.2,37.85,113.2,33.65Z" transform="translate(111 101.69)"/><path class="cls-3" d="M122.8,41.89V22.65h3.6v2.56a6.63,6.63,0,0,1,5.84-3.12A6,6,0,0,1,138,25.73a6.91,6.91,0,0,1,6.44-3.64c3.36,0,6.64,2.28,6.64,7.32V41.89h-3.72V29.81c0-2.52-1.24-4.4-4.08-4.4-2.64,0-4.44,2.08-4.44,4.84V41.89h-3.76V29.81c0-2.48-1.2-4.4-4.08-4.4-2.68,0-4.48,2-4.48,4.88v11.6H122.8Z" transform="translate(111 101.69)"/><path class="cls-3" d="M173.83,36.41a8.72,8.72,0,0,1-8.64,6.08c-5.16,0-9.68-3.76-9.68-10.28,0-6,4.36-10.16,9.2-10.16,5.92,0,9.24,4.08,9.24,10.08a8.44,8.44,0,0,1-.08,1.2H159.4a5.71,5.71,0,0,0,5.8,5.84,5.24,5.24,0,0,0,5.4-3.88ZM170,30.29c-0.08-2.76-1.88-4.92-5.28-4.92a5.17,5.17,0,0,0-5.24,4.92H170Z" transform="translate(111 101.69)"/><path class="cls-4" d="M188.16,28.05V25h18.52v3.08H188.16Zm0,7.8V32.69h18.52v3.16H188.16Z" transform="translate(111 101.69)"/><path class="cls-5" d="M223.8,23.49c-1.56,0-2.92-1.12-2.92-3.4,0-4.72,3.08-6.76,5.32-7V15a4.18,4.18,0,0,0-3,3.88,1.51,1.51,0,0,1,.8-0.2,2.32,2.32,0,0,1,2.4,2.44A2.48,2.48,0,0,1,223.8,23.49Zm6.84,0c-1.56,0-2.92-1.12-2.92-3.4,0-4.72,3.08-6.76,5.32-7V15a4.18,4.18,0,0,0-3,3.88,1.51,1.51,0,0,1,.8-0.2,2.32,2.32,0,0,1,2.4,2.44A2.48,2.48,0,0,1,230.64,23.49Z" transform="translate(111 101.69)"/><path class="cls-5" d="M253,21.21a5.75,5.75,0,0,0-6-4.84c-3.2,0-5.48,2.08-5.48,4.72,0,2,1.24,3.6,3.64,4.12l4.24,0.92c4.72,1,7.36,4,7.36,8,0,4.4-3.76,8.4-9.8,8.4-6.84,0-10.08-4.4-10.6-8.44l3.76-1.2a6.44,6.44,0,0,0,6.8,6.08c3.92,0,5.84-2,5.84-4.52,0-2-1.4-3.8-4.24-4.4l-4-.88c-4-.88-6.92-3.52-6.92-7.76,0-4.44,4.12-8.44,9.36-8.44,6.4,0,9,4,9.6,7Z" transform="translate(111 101.69)"/><path class="cls-5" d="M266.2,30.89l5.2-.76a1.4,1.4,0,0,0,1.48-1.44c0-1.88-1.24-3.44-4.16-3.44a4.08,4.08,0,0,0-4.36,3.88l-3.6-.84c0.4-3.68,3.72-6.24,7.88-6.24,5.76,0,8,3.28,8,7v9.64a18.12,18.12,0,0,0,.24,3.16h-3.68a14.06,14.06,0,0,1-.2-2.6,7,7,0,0,1-6.2,3.2c-3.92,0-6.44-2.72-6.44-5.76C260.36,33.29,262.88,31.37,266.2,30.89Zm6.68,2.76V32.77l-5.88.88c-1.6.24-2.8,1.16-2.8,2.88a2.92,2.92,0,0,0,3.12,2.8C270.4,39.33,272.87,37.85,272.87,33.65Z" transform="translate(111 101.69)"/><path class="cls-5" d="M286.24,41.89h-3.76V22.65h3.68v2.76a6.59,6.59,0,0,1,5.92-3.32c4.6,0,6.88,3.32,6.88,7.6v12.2h-3.76V30.33c0-2.68-1.12-4.84-4.48-4.84-3,0-4.48,2.36-4.48,5.28V41.89Z" transform="translate(111 101.69)"/><path class="cls-5" d="M310,22.65h4.16v3.4H310v10c0,1.76.72,2.64,2.68,2.64a7.59,7.59,0,0,0,1.48-.16v3.2a8.21,8.21,0,0,1-2.56.36c-3.28,0-5.36-2-5.36-5.48V26.05h-3.68v-3.4h1a2.69,2.69,0,0,0,3-3V16.57H310v6.08Z" transform="translate(111 101.69)"/><path class="cls-5" d="M323.8,30.89l5.2-.76a1.4,1.4,0,0,0,1.48-1.44c0-1.88-1.24-3.44-4.16-3.44A4.08,4.08,0,0,0,322,29.13l-3.6-.84c0.4-3.68,3.72-6.24,7.88-6.24,5.76,0,8,3.28,8,7v9.64a18.12,18.12,0,0,0,.24,3.16h-3.68a14.06,14.06,0,0,1-.2-2.6,7,7,0,0,1-6.2,3.2c-3.92,0-6.44-2.72-6.44-5.76C318,33.29,320.48,31.37,323.8,30.89Zm6.68,2.76V32.77l-5.88.88c-1.6.24-2.8,1.16-2.8,2.88a2.92,2.92,0,0,0,3.12,2.8C328,39.33,330.47,37.85,330.47,33.65Z" transform="translate(111 101.69)"/><path class="cls-5" d="M340.28,13.3c1.56,0,2.92,1.12,2.92,3.4,0,4.72-3.08,6.68-5.32,7V21.81a4.1,4.1,0,0,0,3-3.88,1.5,1.5,0,0,1-.8.2,2.32,2.32,0,0,1-2.4-2.44A2.48,2.48,0,0,1,340.28,13.3Zm6.84,0c1.56,0,2.92,1.12,2.92,3.4,0,4.72-3.08,6.68-5.32,7V21.81a4.1,4.1,0,0,0,3-3.88,1.5,1.5,0,0,1-.8.2,2.32,2.32,0,0,1-2.4-2.44A2.48,2.48,0,0,1,347.11,13.3Z" transform="translate(111 101.69)"/><path class="cls-4" d="M357.44,36.89c1.64,0,3.08,1.2,3.08,3.6,0,5-3.28,7.08-5.64,7.4v-2A4.32,4.32,0,0,0,358,41.81a1.56,1.56,0,0,1-.84.2,2.47,2.47,0,0,1-2.56-2.6A2.66,2.66,0,0,1,357.44,36.89Zm0-14.44a2.78,2.78,0,0,1,2.8,2.8,2.75,2.75,0,0,1-2.8,2.76,2.72,2.72,0,0,1-2.76-2.76A2.75,2.75,0,0,1,357.44,22.45Z" transform="translate(111 101.69)"/><path class="cls-3" d="M22.72,99.66h-3.8l-7.8-19.24h4.24l5.48,14.84,5.52-14.84h4Z" transform="translate(111 101.69)"/><path class="cls-3" d="M38.44,88.66l5.2-.76a1.4,1.4,0,0,0,1.48-1.44C45.12,84.58,43.88,83,41,83A4.08,4.08,0,0,0,36.6,86.9L33,86.06c0.4-3.68,3.72-6.24,7.88-6.24,5.76,0,8,3.28,8,7V96.5a18.08,18.08,0,0,0,.24,3.16H45.44a14.07,14.07,0,0,1-.2-2.6,7,7,0,0,1-6.2,3.2c-3.92,0-6.44-2.72-6.44-5.76C32.6,91.06,35.12,89.14,38.44,88.66Zm6.68,2.76V90.54l-5.88.88c-1.6.24-2.8,1.16-2.8,2.88a2.92,2.92,0,0,0,3.12,2.8C42.64,97.1,45.12,95.62,45.12,91.42Z" transform="translate(111 101.69)"/><path class="cls-3" d="M65.4,84.22a11.71,11.71,0,0,0-1.64-.12c-3.16,0-5.28,1.68-5.28,5.92v9.64H54.72V80.42H58.4v3.36a6,6,0,0,1,5.76-3.68,7.06,7.06,0,0,1,1.24.12v4Z" transform="translate(111 101.69)"/><path class="cls-3" d="M84,88.66l5.2-.76a1.4,1.4,0,0,0,1.48-1.44c0-1.88-1.24-3.44-4.16-3.44A4.08,4.08,0,0,0,82.2,86.9l-3.6-.84c0.4-3.68,3.72-6.24,7.88-6.24,5.76,0,8,3.28,8,7V96.5a18.08,18.08,0,0,0,.24,3.16H91a14.07,14.07,0,0,1-.2-2.6,7,7,0,0,1-6.2,3.2c-3.92,0-6.44-2.72-6.44-5.76C78.2,91.06,80.72,89.14,84,88.66Zm6.68,2.76V90.54l-5.88.88c-1.6.24-2.8,1.16-2.8,2.88a2.92,2.92,0,0,0,3.12,2.8C88.24,97.1,90.72,95.62,90.72,91.42Z" transform="translate(111 101.69)"/><path class="cls-3" d="M102.56,99.86a5.11,5.11,0,0,0,5.24,4.72c4,0,5.88-2.08,5.88-6.24V95.58a6.41,6.41,0,0,1-5.88,3.16c-5.12,0-8.84-3.88-8.84-9.32,0-5.2,3.56-9.36,8.84-9.36,3,0,5,1.12,5.92,3V80.42h3.72v17.8c0,4.88-2.4,9.64-9.64,9.64-4.8,0-8.4-3-8.88-7.16Zm11.28-10.44c0-3.72-2.24-6.16-5.48-6.16s-5.56,2.44-5.56,6.16,2.16,6.16,5.56,6.16C111.6,95.58,113.84,93.14,113.84,89.42Z" transform="translate(111 101.69)"/><path class="cls-3" d="M140.19,94.18a8.72,8.72,0,0,1-8.64,6.08c-5.16,0-9.68-3.76-9.68-10.28,0-6,4.36-10.16,9.2-10.16,5.92,0,9.24,4.08,9.24,10.08a8.44,8.44,0,0,1-.08,1.2H125.76a5.71,5.71,0,0,0,5.8,5.84,5.24,5.24,0,0,0,5.4-3.88Zm-3.8-6.12c-0.08-2.76-1.88-4.92-5.28-4.92a5.17,5.17,0,0,0-5.24,4.92H136.4Z" transform="translate(111 101.69)"/><path class="cls-4" d="M154.52,85.82V82.74H173v3.08H154.52Zm0,7.8V90.46H173v3.16H154.52Z" transform="translate(111 101.69)"/><path class="cls-5" d="M192.92,99.66V81.38h-6.28V78.62c3.6-.08,6.08-2.08,6.68-4.88h3.44V99.66h-3.84Z" transform="translate(111 101.69)"/><path class="cls-5" d="M219.07,77.5c-2.4,1.92-9.72,8.44-11,22.16h-4c1.16-15.08,10.68-22.32,10.68-22.32h-14.6v-3.6h18.92V77.5Z" transform="translate(111 101.69)"/><path class="cls-5" d="M218.48,89.3l11.12-15.56H235V90.18h4.44v3.64H235v5.84h-3.8V93.82H218.48V89.3Zm12.72-11.8-9.12,12.68h9.12V77.5Z" transform="translate(111 101.69)"/><path class="cls-5" d="M241.84,92.82a6.78,6.78,0,0,1,4.92-6.4,6.52,6.52,0,0,1-4.24-6.08c0-4.24,3.76-7.2,8.72-7.2s8.72,3,8.72,7.2a6.54,6.54,0,0,1-4.24,6.08,6.74,6.74,0,0,1,4.92,6.4c0,4.16-3.44,7.44-9.4,7.44S241.84,97,241.84,92.82Zm14.84-.32c0-2.48-2-4.44-5.44-4.44s-5.44,2-5.44,4.44,2,4.36,5.44,4.36S256.67,94.94,256.67,92.5Zm-0.64-12c0-2.32-1.88-4.16-4.8-4.16s-4.8,1.84-4.8,4.16c0,2.52,2,4.2,4.8,4.24S256,83.06,256,80.54Z" transform="translate(111 101.69)"/><path class="cls-4" d="M268.23,94.66c1.64,0,3.08,1.2,3.08,3.6,0,5-3.28,7.08-5.64,7.4v-2a4.32,4.32,0,0,0,3.16-4.12,1.56,1.56,0,0,1-.84.2,2.47,2.47,0,0,1-2.56-2.6A2.66,2.66,0,0,1,268.23,94.66Zm0-14.44A2.78,2.78,0,0,1,271,83a2.75,2.75,0,0,1-2.8,2.76A2.72,2.72,0,0,1,265.48,83,2.75,2.75,0,0,1,268.23,80.22Z" transform="translate(111 101.69)"/><path class="cls-3" d="M22.72,157.43h-3.8l-7.8-19.24h4.24L20.84,153l5.52-14.84h4Z" transform="translate(111 101.69)"/><path class="cls-3" d="M38.44,146.43l5.2-.76a1.4,1.4,0,0,0,1.48-1.44c0-1.88-1.24-3.44-4.16-3.44a4.08,4.08,0,0,0-4.36,3.88l-3.6-.84c0.4-3.68,3.72-6.24,7.88-6.24,5.76,0,8,3.28,8,7v9.64a18.08,18.08,0,0,0,.24,3.16H45.44a14.07,14.07,0,0,1-.2-2.6A7,7,0,0,1,39,158c-3.92,0-6.44-2.72-6.44-5.76C32.6,148.83,35.12,146.91,38.44,146.43Zm6.68,2.76v-0.88l-5.88.88c-1.6.24-2.8,1.16-2.8,2.88a2.92,2.92,0,0,0,3.12,2.8C42.64,154.87,45.12,153.39,45.12,149.19Z" transform="translate(111 101.69)"/><path class="cls-3" d="M65.4,142a11.71,11.71,0,0,0-1.64-.12c-3.16,0-5.28,1.68-5.28,5.92v9.64H54.72V138.19H58.4v3.36a6,6,0,0,1,5.76-3.68,7.06,7.06,0,0,1,1.24.12v4Z" transform="translate(111 101.69)"/><path class="cls-3" d="M79.4,157.43v-29h3.76v29H79.4Z" transform="translate(111 101.69)"/><path class="cls-3" d="M107.63,147.79c0,5.88-4.08,10.24-9.84,10.24S88,153.67,88,147.79s4.08-10.2,9.84-10.2S107.63,142,107.63,147.79Zm-3.84,0c0-4.44-2.8-6.84-6-6.84s-6,2.4-6,6.84,2.8,6.88,6,6.88S103.8,152.27,103.8,147.79Z" transform="translate(111 101.69)"/><path class="cls-3" d="M114.68,147.79c0,4.4,2.76,6.76,5.88,6.76a5.23,5.23,0,0,0,5.36-4l3.32,1.44a8.84,8.84,0,0,1-8.68,6c-5.6,0-9.72-4.4-9.72-10.24,0-6,4.2-10.2,9.68-10.2,5.12,0,7.76,3.2,8.56,6.12l-3.4,1.44a5,5,0,0,0-5.16-4.08C117.48,141.07,114.68,143.31,114.68,147.79Z" transform="translate(111 101.69)"/><path class="cls-3" d="M138.08,146.43l5.2-.76a1.4,1.4,0,0,0,1.48-1.44c0-1.88-1.24-3.44-4.16-3.44a4.08,4.08,0,0,0-4.36,3.88l-3.6-.84c0.4-3.68,3.72-6.24,7.88-6.24,5.76,0,8,3.28,8,7v9.64a18.08,18.08,0,0,0,.24,3.16h-3.68a14.07,14.07,0,0,1-.2-2.6,7,7,0,0,1-6.2,3.2c-3.92,0-6.44-2.72-6.44-5.76C132.24,148.83,134.76,146.91,138.08,146.43Zm6.68,2.76v-0.88l-5.88.88c-1.6.24-2.8,1.16-2.8,2.88a2.92,2.92,0,0,0,3.12,2.8C142.28,154.87,144.76,153.39,144.76,149.19Z" transform="translate(111 101.69)"/><path class="cls-3" d="M159.4,138.19h4.16v3.4H159.4v10c0,1.76.72,2.64,2.68,2.64a7.61,7.61,0,0,0,1.48-.16v3.2a8.22,8.22,0,0,1-2.56.36c-3.28,0-5.36-2-5.36-5.48V141.59H152v-3.4h1a2.69,2.69,0,0,0,3-3v-3.12h3.44v6.08Z" transform="translate(111 101.69)"/><path class="cls-3" d="M170.4,128.19a2.7,2.7,0,1,1-2.68,2.72A2.7,2.7,0,0,1,170.4,128.19Zm-1.84,29.23V138.19h3.72v19.24h-3.72Z" transform="translate(111 101.69)"/><path class="cls-3" d="M196.75,147.79c0,5.88-4.08,10.24-9.84,10.24s-9.84-4.36-9.84-10.24,4.08-10.2,9.84-10.2S196.75,142,196.75,147.79Zm-3.84,0c0-4.44-2.8-6.84-6-6.84s-6,2.4-6,6.84,2.8,6.88,6,6.88S192.92,152.27,192.92,147.79Z" transform="translate(111 101.69)"/><path class="cls-3" d="M205.32,157.43h-3.76V138.19h3.68V141a6.59,6.59,0,0,1,5.92-3.32c4.6,0,6.88,3.32,6.88,7.6v12.2h-3.76V145.87c0-2.68-1.12-4.84-4.48-4.84-3,0-4.48,2.36-4.48,5.28v11.12Z" transform="translate(111 101.69)"/><path class="cls-4" d="M233.44,143.59v-3.08H252v3.08H233.44Zm0,7.8v-3.16H252v3.16H233.44Z" transform="translate(111 101.69)"/><path class="cls-5" d="M269.08,139c-1.56,0-2.92-1.12-2.92-3.4,0-4.72,3.08-6.76,5.32-7v1.88a4.18,4.18,0,0,0-3,3.88,1.51,1.51,0,0,1,.8-0.2,2.32,2.32,0,0,1,2.4,2.44A2.48,2.48,0,0,1,269.08,139Zm6.84,0c-1.56,0-2.92-1.12-2.92-3.4,0-4.72,3.08-6.76,5.32-7v1.88a4.18,4.18,0,0,0-3,3.88,1.51,1.51,0,0,1,.8-0.2,2.32,2.32,0,0,1,2.4,2.44A2.48,2.48,0,0,1,275.92,139Z" transform="translate(111 101.69)"/><path class="cls-5" d="M303,157.43l-15.32-23.12v23.12h-3.92V129.07H289l14.16,21.76V129.07H307v28.36H303Z" transform="translate(111 101.69)"/><path class="cls-5" d="M331.91,147.79c0,5.88-4.08,10.24-9.84,10.24s-9.84-4.36-9.84-10.24,4.08-10.2,9.84-10.2S331.91,142,331.91,147.79Zm-3.84,0c0-4.44-2.8-6.84-6-6.84s-6,2.4-6,6.84,2.8,6.88,6,6.88S328.07,152.27,328.07,147.79Z" transform="translate(111 101.69)"/><path class="cls-5" d="M347.39,142a11.73,11.73,0,0,0-1.64-.12c-3.16,0-5.28,1.68-5.28,5.92v9.64h-3.76V138.19h3.68v3.36a6,6,0,0,1,5.76-3.68,7.07,7.07,0,0,1,1.24.12v4Z" transform="translate(111 101.69)"/><path class="cls-5" d="M357.43,138.19h4.16v3.4h-4.16v10c0,1.76.72,2.64,2.68,2.64a7.59,7.59,0,0,0,1.48-.16v3.2a8.21,8.21,0,0,1-2.56.36c-3.28,0-5.36-2-5.36-5.48V141.59H350v-3.4h1a2.69,2.69,0,0,0,3-3v-3.12h3.44v6.08Z" transform="translate(111 101.69)"/><path class="cls-5" d="M370.36,157.43H366.6v-29h3.76v12a6.8,6.8,0,0,1,5.84-2.8c4.6,0,6.88,3.32,6.88,7.6v12.2h-3.76V145.87c0-2.68-1.12-4.84-4.48-4.84-2.88,0-4.4,2.24-4.48,5.08v11.32Z" transform="translate(111 101.69)"/><path class="cls-5" d="M403.39,145.83v11.6h-3.92V129.07h10.32c5.24,0,8.76,3.64,8.76,8.4s-3.52,8.36-8.76,8.36h-6.4Zm5.68-3.52c3.4,0,5.48-1.88,5.48-4.8s-2.08-4.92-5.48-4.92h-5.68v9.72h5.68Z" transform="translate(111 101.69)"/><path class="cls-5" d="M439.43,147.79c0,5.88-4.08,10.24-9.84,10.24s-9.84-4.36-9.84-10.24,4.08-10.2,9.84-10.2S439.43,142,439.43,147.79Zm-3.84,0c0-4.44-2.8-6.84-6-6.84s-6,2.4-6,6.84,2.8,6.88,6,6.88S435.59,152.27,435.59,147.79Z" transform="translate(111 101.69)"/><path class="cls-5" d="M444.24,157.43v-29H448v29h-3.76Z" transform="translate(111 101.69)"/><path class="cls-5" d="M471.15,151.95a8.72,8.72,0,0,1-8.64,6.08c-5.16,0-9.68-3.76-9.68-10.28,0-6,4.36-10.16,9.2-10.16,5.92,0,9.24,4.08,9.24,10.08a8.46,8.46,0,0,1-.08,1.2H456.72a5.71,5.71,0,0,0,5.8,5.84,5.24,5.24,0,0,0,5.4-3.88Zm-3.8-6.12c-0.08-2.76-1.88-4.92-5.28-4.92a5.17,5.17,0,0,0-5.24,4.92h10.52Z" transform="translate(111 101.69)"/><path class="cls-5" d="M475.48,128.83c1.56,0,2.92,1.12,2.92,3.4,0,4.72-3.08,6.68-5.32,7v-1.88a4.1,4.1,0,0,0,3-3.88,1.5,1.5,0,0,1-.8.2,2.32,2.32,0,0,1-2.4-2.44A2.48,2.48,0,0,1,475.48,128.83Zm6.84,0c1.56,0,2.92,1.12,2.92,3.4,0,4.72-3.08,6.68-5.32,7v-1.88a4.1,4.1,0,0,0,3-3.88,1.5,1.5,0,0,1-.8.2,2.32,2.32,0,0,1-2.4-2.44A2.48,2.48,0,0,1,482.31,128.83Z" transform="translate(111 101.69)"/><path class="cls-4" d="M492.63,152.43c1.64,0,3.08,1.2,3.08,3.6,0,5-3.28,7.08-5.64,7.4v-2a4.32,4.32,0,0,0,3.16-4.12,1.56,1.56,0,0,1-.84.2,2.47,2.47,0,0,1-2.56-2.6A2.66,2.66,0,0,1,492.63,152.43Zm0-14.44a2.78,2.78,0,0,1,2.8,2.8,2.75,2.75,0,0,1-2.8,2.76,2.72,2.72,0,0,1-2.76-2.76A2.75,2.75,0,0,1,492.63,138Z" transform="translate(111 101.69)"/><path class="cls-4" d="M707.88,87.58a10.1,10.1,0,0,0-8.46-10A44.91,44.91,0,0,0,684,50.73a44.12,44.12,0,0,0-71.76,20.68,44.65,44.65,0,0,0-1.49,6.11,10.1,10.1,0,0,0,.92,20.17h0.22a45,45,0,0,0,86.37,0A10.1,10.1,0,0,0,707.88,87.58Z" transform="translate(111 101.69)"/><path d="M655.08,131.59a46.69,46.69,0,0,1-44.3-32.44,11.6,11.6,0,0,1-1.29-23A46.41,46.41,0,0,1,610.83,71,45.62,45.62,0,0,1,685,49.61a46.46,46.46,0,0,1,15.69,26.75,11.6,11.6,0,0,1-1.29,22.7A46.69,46.69,0,0,1,655.08,131.59ZM613,96.16l0.32,1.1a43.47,43.47,0,0,0,83.49,0l0.3-1,1.07-.05a8.6,8.6,0,0,0,1-17.07l-1.06-.17-0.18-1.06a43.47,43.47,0,0,0-14.88-26A42.62,42.62,0,0,0,613.7,71.83a43.46,43.46,0,0,0-1.46,5.95l-0.19,1.14-1.15.1a8.6,8.6,0,0,0,.78,17.17Z" transform="translate(111 101.69)"/><path class="cls-4" d="M610.77,77.52v10c0,14.8,5,28.19,13,37.89s19.1,15.7,31.34,15.7h0c12.24,0,23.32-6,31.34-15.7s13-23.09,13-37.89v-10" transform="translate(111 101.69)"/><path d="M655.09,142.58c-12.29,0-23.83-5.77-32.5-16.24s-13.33-24.19-13.33-38.85v-10h3v10c0,14,4.49,27.08,12.64,36.94s18.8,15.15,30.18,15.15,22.1-5.38,30.18-15.15,12.64-23,12.64-36.94v-10h3v10c0,14.66-4.73,28.46-13.33,38.85S667.39,142.58,655.09,142.58Z" transform="translate(111 101.69)"/><path d="M610.77,79V76C634,76,653.7,66.81,653.7,55.91h3C656.7,68.87,636.53,79,610.77,79Z" transform="translate(111 101.69)"/><path d="M699.41,79.12c-25.63,0-45.71-9.2-45.71-20.94h3c0,9.73,19.56,17.94,42.71,17.94v3Z" transform="translate(111 101.69)"/><path class="cls-4" d="M688.87,90.22L688.27,95l-2.64,17.5-15.44-5.31-0.84-.29a43.18,43.18,0,0,0-29.14.29h0l-14.54,5.31L623,95l-1.36-9" transform="translate(111 101.69)"/><path d="M685.62,114a1.49,1.49,0,0,1-.49-0.08l-16.28-5.6a41.67,41.67,0,0,0-28.14.28l-14.54,5.31a1.5,1.5,0,0,1-2-1.19l-4-26.5a1.5,1.5,0,0,1,3-.45l3.73,24.68,12.82-4.68a44.64,44.64,0,0,1,30.14-.3l14.58,5,2.37-15.72,0.6-4.77a1.5,1.5,0,0,1,3,.38l-0.61,4.8-2.65,17.53A1.5,1.5,0,0,1,685.62,114Z" transform="translate(111 101.69)"/><path d="M654.79,116.89a22.66,22.66,0,0,1-10.29-2.46,1.5,1.5,0,1,1,1.36-2.67,19.72,19.72,0,0,0,17.85,0,1.5,1.5,0,1,1,1.36,2.67A22.66,22.66,0,0,1,654.79,116.89Z" transform="translate(111 101.69)"/><path class="cls-6" d="M665.85,32.8l-15.49-.11a21.91,21.91,0,0,0-5.3.62A37.08,37.08,0,0,0,614.68,69.5l-0.07,9.41h0l40.94,0.3L691,79.46l5.46,43.4h6.13l6.22-37.19A46.74,46.74,0,0,0,705.13,58,43.17,43.17,0,0,0,665.85,32.8Z" transform="translate(111 101.69)"/><path class="cls-2" d="M703.83,124.36H695.1l-5.46-43.41L613.1,80.4l0.08-10.91a38.58,38.58,0,0,1,31.61-37.65,22.76,22.76,0,0,1,5.58-.65l15.49,0.11a44.44,44.44,0,0,1,40.62,26,48,48,0,0,1,3.78,28.57Zm-6.08-3h3.54l6-35.94a45,45,0,0,0-3.53-26.8A41.5,41.5,0,0,0,665.84,34.3l-15.49-.11a19.87,19.87,0,0,0-4.94.58,35.6,35.6,0,0,0-29.23,34.74l-0.06,7.91L692.29,78Z" transform="translate(111 101.69)"/><rect class="cls-4" x="607.58" y="66.35" width="91.85" height="12.87" rx="6.43" ry="6.43" transform="translate(111.54 96.96) rotate(0.42)"/><path class="cls-2" d="M693,81h-0.06l-79-.57A7.93,7.93,0,0,1,614,64.57h0.06l79,0.57A7.93,7.93,0,0,1,693,81ZM614,67.57a4.93,4.93,0,0,0,0,9.87L693,78h0a4.93,4.93,0,0,0,0-9.87l-79-.57h0Z" transform="translate(111 101.69)"/><circle class="cls-4" cx="698.86" cy="130.19" r="9.78" transform="translate(674.61 929.79) rotate(-89.58)"/><path class="cls-2" d="M698.87,141.47h-0.08a11.28,11.28,0,0,1,.08-22.56h0.08a11.29,11.29,0,0,1,11.2,11.36h0A11.28,11.28,0,0,1,698.87,141.47Zm0-19.56a8.28,8.28,0,0,0-.06,16.56,8.32,8.32,0,0,0,5.87-2.38,8.28,8.28,0,0,0-5.75-14.18h-0.06Z" transform="translate(111 101.69)"/><rect class="cls-2" x="684" y="187" width="15" height="3"/><rect class="cls-2" x="582.22" y="60.26" width="3" height="13.95" transform="translate(344.64 640.83) rotate(-60)"/><rect class="cls-2" x="576.74" y="102.84" width="13.95" height="3" transform="translate(137.01 407.48) rotate(-29.99)"/><rect class="cls-2" x="834" y="187" width="15" height="3"/><rect class="cls-2" x="726.02" y="97.41" width="3" height="13.95" transform="translate(384.34 783.92) rotate(-60)"/><rect class="cls-2" x="720.54" y="65.78" width="13.95" height="3" transform="translate(174.85 474.51) rotate(-30)"/></svg>