<svg id="Layer_1" data-name="Layer 1" xmlns="http://www.w3.org/2000/svg" viewBox="0 0 960 550"><defs><style>.cls-1{fill:none;}.cls-2{fill:#231f20;}.cls-3{fill:#ffdb00;}.cls-4{fill:#1ecac7;}.cls-5{fill:#fff;}.cls-6{fill:#e51b24;}</style></defs><title>Slide-16-Space-Semicolon</title><rect class="cls-1" width="960" height="550"/><rect class="cls-2" x="243.05" y="229.72" width="467.9" height="70.07"/><path class="cls-3" d="M28.45,50.81H23.7L14,26.76h5.3L26.1,45.31,33,26.76h5.05Z" transform="translate(243.05 229.72)"/><path class="cls-3" d="M48.1,37.06l6.5-.95c1.45-.2,1.85-1,1.85-1.8,0-2.35-1.55-4.3-5.2-4.3a5.1,5.1,0,0,0-5.45,4.85l-4.5-1C41.8,29.21,46,26,51.15,26c7.2,0,10,4.1,10,8.8V46.86a22.61,22.61,0,0,0,.3,4h-4.6a17.58,17.58,0,0,1-.25-3.25,8.77,8.77,0,0,1-7.75,4c-4.9,0-8.05-3.4-8.05-7.2C40.8,40.06,44,37.66,48.1,37.06Zm8.35,3.45v-1.1l-7.35,1.1c-2,.3-3.5,1.45-3.5,3.6a3.65,3.65,0,0,0,3.9,3.5C53.35,47.61,56.45,45.76,56.45,40.51Z" transform="translate(243.05 229.72)"/><path class="cls-3" d="M81.8,31.51a14.66,14.66,0,0,0-2.05-.15c-4,0-6.6,2.1-6.6,7.4V50.81h-4.7V26.76h4.6V31a7.53,7.53,0,0,1,7.2-4.6,8.81,8.81,0,0,1,1.55.15v5Z" transform="translate(243.05 229.72)"/><path class="cls-3" d="M104,50.81H99.3V26.76h4.6v3.45a8.24,8.24,0,0,1,7.4-4.15c5.75,0,8.6,4.15,8.6,9.5V50.81h-4.7V36.36c0-3.35-1.4-6.05-5.6-6.05-3.7,0-5.6,3-5.6,6.6v13.9Z" transform="translate(243.05 229.72)"/><path class="cls-3" d="M133.2,37.06l6.5-.95c1.45-.2,1.85-1,1.85-1.8,0-2.35-1.55-4.3-5.2-4.3a5.1,5.1,0,0,0-5.45,4.85l-4.5-1c0.5-4.6,4.65-7.8,9.85-7.8,7.2,0,10,4.1,10,8.8V46.86a22.61,22.61,0,0,0,.3,4H142a17.58,17.58,0,0,1-.25-3.25,8.77,8.77,0,0,1-7.75,4c-4.9,0-8.05-3.4-8.05-7.2C125.9,40.06,129.05,37.66,133.2,37.06Zm8.35,3.45v-1.1l-7.35,1.1c-2,.3-3.5,1.45-3.5,3.6a3.65,3.65,0,0,0,3.9,3.5C138.45,47.61,141.55,45.76,141.55,40.51Z" transform="translate(243.05 229.72)"/><path class="cls-3" d="M153.55,50.81V26.76h4.5V30a8.29,8.29,0,0,1,7.3-3.9,7.51,7.51,0,0,1,7.2,4.55,8.63,8.63,0,0,1,8.05-4.55c4.2,0,8.3,2.85,8.3,9.15v15.6h-4.65V35.71c0-3.15-1.55-5.5-5.1-5.5-3.3,0-5.55,2.6-5.55,6.05V50.81h-4.7V35.71c0-3.1-1.5-5.5-5.1-5.5-3.35,0-5.6,2.5-5.6,6.1v14.5h-4.65Z" transform="translate(243.05 229.72)"/><path class="cls-3" d="M217.35,44a10.9,10.9,0,0,1-10.8,7.6c-6.45,0-12.1-4.7-12.1-12.85,0-7.55,5.45-12.7,11.5-12.7,7.4,0,11.55,5.1,11.55,12.6a10.51,10.51,0,0,1-.1,1.5H199.3a7.14,7.14,0,0,0,7.25,7.3,6.55,6.55,0,0,0,6.75-4.85Zm-4.75-7.65c-0.1-3.45-2.35-6.15-6.6-6.15a6.47,6.47,0,0,0-6.55,6.15H212.6Z" transform="translate(243.05 229.72)"/><path class="cls-3" d="M235.25,33.51V29.66H258.4v3.85H235.25Zm0,9.75v-4H258.4v4H235.25Z" transform="translate(243.05 229.72)"/><path class="cls-4" d="M279.8,27.81c-2,0-3.65-1.4-3.65-4.25,0-5.9,3.85-8.45,6.65-8.75v2.35A5.23,5.23,0,0,0,279,22a1.88,1.88,0,0,1,1-.25,2.9,2.9,0,0,1,3,3.05A3.1,3.1,0,0,1,279.8,27.81Zm8.55,0c-2,0-3.65-1.4-3.65-4.25,0-5.9,3.85-8.45,6.65-8.75v2.35A5.23,5.23,0,0,0,287.6,22a1.88,1.88,0,0,1,1-.25,2.9,2.9,0,0,1,3,3.05A3.1,3.1,0,0,1,288.35,27.81Z" transform="translate(243.05 229.72)"/><path class="cls-4" d="M316.3,25a7.19,7.19,0,0,0-7.5-6.05c-4,0-6.85,2.6-6.85,5.9,0,2.55,1.55,4.5,4.55,5.15l5.3,1.15c5.9,1.3,9.2,5,9.2,10,0,5.5-4.7,10.5-12.25,10.5-8.55,0-12.6-5.5-13.25-10.55l4.7-1.5a8.05,8.05,0,0,0,8.5,7.6c4.9,0,7.3-2.55,7.3-5.65,0-2.55-1.75-4.75-5.3-5.5l-5-1.1c-5.05-1.1-8.65-4.4-8.65-9.7,0-5.55,5.15-10.55,11.7-10.55,8,0,11.2,5,12,8.8Z" transform="translate(243.05 229.72)"/><path class="cls-4" d="M332.8,37.06l6.5-.95c1.45-.2,1.85-1,1.85-1.8,0-2.35-1.55-4.3-5.2-4.3a5.1,5.1,0,0,0-5.45,4.85l-4.5-1c0.5-4.6,4.65-7.8,9.85-7.8,7.2,0,10,4.1,10,8.8V46.86a22.66,22.66,0,0,0,.3,4h-4.6a17.54,17.54,0,0,1-.25-3.25,8.77,8.77,0,0,1-7.75,4c-4.9,0-8.05-3.4-8.05-7.2C325.5,40.06,328.65,37.66,332.8,37.06Zm8.35,3.45v-1.1l-7.35,1.1c-2,.3-3.5,1.45-3.5,3.6a3.65,3.65,0,0,0,3.9,3.5C338,47.61,341.15,45.76,341.15,40.51Z" transform="translate(243.05 229.72)"/><path class="cls-4" d="M357.85,50.81h-4.7V26.76h4.6v3.45a8.24,8.24,0,0,1,7.4-4.15c5.75,0,8.6,4.15,8.6,9.5V50.81H369V36.36c0-3.35-1.4-6.05-5.6-6.05-3.7,0-5.6,3-5.6,6.6v13.9Z" transform="translate(243.05 229.72)"/><path class="cls-4" d="M387.55,26.76h5.2V31h-5.2v12.5c0,2.2.9,3.3,3.35,3.3a9.47,9.47,0,0,0,1.85-.2v4a10.28,10.28,0,0,1-3.2.45c-4.1,0-6.7-2.5-6.7-6.85V31h-4.6V26.76h1.3a3.36,3.36,0,0,0,3.7-3.7v-3.9h4.3v7.6Z" transform="translate(243.05 229.72)"/><path class="cls-4" d="M404.8,37.06l6.5-.95c1.45-.2,1.85-1,1.85-1.8,0-2.35-1.55-4.3-5.2-4.3a5.1,5.1,0,0,0-5.45,4.85l-4.5-1c0.5-4.6,4.65-7.8,9.85-7.8,7.2,0,10,4.1,10,8.8V46.86a22.52,22.52,0,0,0,.3,4h-4.6a17.54,17.54,0,0,1-.25-3.25,8.77,8.77,0,0,1-7.75,4c-4.9,0-8-3.4-8-7.2C397.5,40.06,400.65,37.66,404.8,37.06Zm8.35,3.45v-1.1l-7.35,1.1c-2,.3-3.5,1.45-3.5,3.6a3.65,3.65,0,0,0,3.9,3.5C410,47.61,413.15,45.76,413.15,40.51Z" transform="translate(243.05 229.72)"/><path class="cls-4" d="M425.4,15.06c2,0,3.65,1.4,3.65,4.25,0,5.9-3.85,8.35-6.65,8.75V25.71a5.13,5.13,0,0,0,3.75-4.85,1.88,1.88,0,0,1-1,.25,2.9,2.9,0,0,1-3-3.05A3.1,3.1,0,0,1,425.4,15.06Zm8.55,0c2,0,3.65,1.4,3.65,4.25,0,5.9-3.85,8.35-6.65,8.75V25.71a5.13,5.13,0,0,0,3.75-4.85,1.88,1.88,0,0,1-1,.25,2.9,2.9,0,0,1-3-3.05A3.1,3.1,0,0,1,433.95,15.06Z" transform="translate(243.05 229.72)"/><path class="cls-5" d="M446.85,44.56c2.05,0,3.85,1.5,3.85,4.5,0,6.25-4.1,8.85-7.05,9.25V55.86a5.4,5.4,0,0,0,4-5.15,2,2,0,0,1-1.05.25,3.08,3.08,0,0,1-3.2-3.25A3.32,3.32,0,0,1,446.85,44.56Zm0-18.05a3.48,3.48,0,0,1,3.5,3.5,3.44,3.44,0,0,1-3.5,3.45A3.4,3.4,0,0,1,443.4,30,3.44,3.44,0,0,1,446.85,26.51Z" transform="translate(243.05 229.72)"/><path class="cls-6" d="M246.95,114.89a1,1,0,0,1-1-1v-19H226.61a1,1,0,0,1-1-1V77.28a1,1,0,0,1,2,0V92.89h19.33a1,1,0,0,1,1,1v20A1,1,0,0,1,246.95,114.89Z" transform="translate(243.05 229.72)"/><path class="cls-6" d="M97.9,130.81H90.36l-1.8,4.75H86l6.77-17h2.71l6.77,17H99.75Zm-6.7-2.18h5.86l-3-7.63Z" transform="translate(243.05 229.72)"/><path class="cls-6" d="M112.3,133.81a3.87,3.87,0,0,1-3.58,2.06c-3.38,0-5.47-2.69-5.47-6.12,0-3.26,2.21-6,5.47-6a3.55,3.55,0,0,1,3.53,1.94v-7.46h2.23v15.24a18.28,18.28,0,0,0,.12,2.14h-2.18a9.68,9.68,0,0,1-.12-1.56v-0.19Zm-3.36.07c2.06,0,3.34-1.8,3.34-4.18s-1.25-4-3.31-4-3.41,1.68-3.41,4.06S106.78,133.88,108.94,133.88Z" transform="translate(243.05 229.72)"/><path class="cls-6" d="M126.41,133.81a3.87,3.87,0,0,1-3.58,2.06c-3.38,0-5.47-2.69-5.47-6.12,0-3.26,2.21-6,5.47-6a3.55,3.55,0,0,1,3.53,1.94v-7.46h2.23v15.24a18.28,18.28,0,0,0,.12,2.14h-2.18a9.68,9.68,0,0,1-.12-1.56v-0.19Zm-3.36.07c2.06,0,3.34-1.8,3.34-4.18s-1.25-4-3.31-4-3.41,1.68-3.41,4.06S120.89,133.88,123,133.88Z" transform="translate(243.05 229.72)"/><path class="cls-6" d="M139.39,131.84a2.46,2.46,0,0,0,2.69,2.16,1.7,1.7,0,0,0,2-1.54,1.61,1.61,0,0,0-1.49-1.49l-2-.43a3.28,3.28,0,0,1-2.88-3.24,3.93,3.93,0,0,1,4.1-3.65c3.17,0,4.15,2.06,4.39,3.1l-2,.74a2.24,2.24,0,0,0-2.4-1.92,1.74,1.74,0,0,0-1.92,1.54,1.42,1.42,0,0,0,1.32,1.39l1.87,0.41c2.09,0.46,3.19,1.73,3.19,3.43s-1.37,3.58-4.22,3.58c-3.17,0-4.51-2-4.7-3.36Z" transform="translate(243.05 229.72)"/><path class="cls-6" d="M149.28,140.12V124h2.18v1.8a4.26,4.26,0,0,1,3.86-2.06c3.46,0,5.3,2.66,5.3,6s-2,6.1-5.38,6.1a4.29,4.29,0,0,1-3.74-1.87v6.12h-2.23Zm5.64-14.38c-2.06,0-3.43,1.73-3.43,4s1.37,4.08,3.43,4.08,3.41-1.7,3.41-4.08S157,125.74,154.92,125.74Z" transform="translate(243.05 229.72)"/><path class="cls-6" d="M166.3,129l3.12-.46a0.84,0.84,0,0,0,.89-0.86c0-1.13-.74-2.06-2.5-2.06a2.45,2.45,0,0,0-2.62,2.33l-2.16-.5c0.24-2.21,2.23-3.74,4.73-3.74,3.46,0,4.8,2,4.8,4.22v5.78a10.87,10.87,0,0,0,.14,1.9H170.5a8.46,8.46,0,0,1-.12-1.56,4.21,4.21,0,0,1-3.72,1.92,3.6,3.6,0,0,1-3.86-3.46C162.79,130.4,164.3,129.25,166.3,129Zm4,1.66v-0.53l-3.53.53a1.73,1.73,0,0,0-1.68,1.73A1.75,1.75,0,0,0,167,134C168.82,134,170.31,133.14,170.31,130.62Z" transform="translate(243.05 229.72)"/><path class="cls-6" d="M177.41,129.77c0,2.64,1.66,4.06,3.53,4.06a3.14,3.14,0,0,0,3.22-2.38l2,0.86a5.3,5.3,0,0,1-5.21,3.6,6.14,6.14,0,0,1,0-12.27,5,5,0,0,1,5.14,3.67l-2,.86a3,3,0,0,0-3.1-2.45C179.09,125.74,177.41,127.09,177.41,129.77Z" transform="translate(243.05 229.72)"/><path class="cls-6" d="M198.72,132.27a5.23,5.23,0,0,1-5.18,3.65c-3.1,0-5.81-2.26-5.81-6.17,0-3.62,2.62-6.1,5.52-6.1,3.55,0,5.54,2.45,5.54,6a5.08,5.08,0,0,1,0,.72h-8.69a3.43,3.43,0,0,0,3.48,3.5,3.15,3.15,0,0,0,3.24-2.33Zm-2.28-3.67a2.91,2.91,0,0,0-3.17-3,3.11,3.11,0,0,0-3.14,3h6.31Z" transform="translate(243.05 229.72)"/><path class="cls-6" d="M210.46,129l3.12-.46a0.84,0.84,0,0,0,.89-0.86c0-1.13-.74-2.06-2.5-2.06a2.45,2.45,0,0,0-2.62,2.33l-2.16-.5c0.24-2.21,2.23-3.74,4.73-3.74,3.46,0,4.8,2,4.8,4.22v5.78a10.87,10.87,0,0,0,.14,1.9h-2.21a8.46,8.46,0,0,1-.12-1.56,4.21,4.21,0,0,1-3.72,1.92,3.6,3.6,0,0,1-3.86-3.46C207,130.4,208.46,129.25,210.46,129Zm4,1.66v-0.53l-3.53.53a1.73,1.73,0,0,0-1.68,1.73,1.75,1.75,0,0,0,1.87,1.68C213,134,214.47,133.14,214.47,130.62Z" transform="translate(243.05 229.72)"/><path class="cls-6" d="M226.63,126.3a6.92,6.92,0,0,0-1-.07c-1.9,0-3.17,1-3.17,3.55v5.79h-2.26V124h2.21v2a3.61,3.61,0,0,1,3.46-2.21,4.2,4.2,0,0,1,.74.07v2.4Z" transform="translate(243.05 229.72)"/><path class="cls-6" d="M239.76,129.77a5.91,5.91,0,1,1-5.9-6.12A5.83,5.83,0,0,1,239.76,129.77Zm-2.3,0c0-2.66-1.68-4.1-3.6-4.1s-3.6,1.44-3.6,4.1,1.68,4.13,3.6,4.13S237.46,132.46,237.46,129.77Z" transform="translate(243.05 229.72)"/><path class="cls-6" d="M246.72,135.92c-2.69,0-4.32-2-4.32-4.63V124h2.26V131c0,1.58.72,3,2.62,3s2.74-1.2,2.74-3v-7h2.26v9.41a19.45,19.45,0,0,0,.12,2.14h-2.16a10.25,10.25,0,0,1-.1-1.39A3.77,3.77,0,0,1,246.72,135.92Z" transform="translate(243.05 229.72)"/><path class="cls-6" d="M258.36,135.56H256.1V124h2.21v1.66a4,4,0,0,1,3.55-2c2.76,0,4.13,2,4.13,4.56v7.32h-2.26v-6.94c0-1.61-.67-2.9-2.69-2.9-1.78,0-2.69,1.42-2.69,3.17v6.67Z" transform="translate(243.05 229.72)"/><path class="cls-6" d="M277.68,133.81a3.87,3.87,0,0,1-3.58,2.06c-3.38,0-5.47-2.69-5.47-6.12,0-3.26,2.21-6,5.47-6a3.55,3.55,0,0,1,3.53,1.94v-7.46h2.23v15.24a18.4,18.4,0,0,0,.12,2.14H277.8a9.68,9.68,0,0,1-.12-1.56v-0.19Zm-3.36.07c2.06,0,3.34-1.8,3.34-4.18s-1.25-4-3.31-4-3.41,1.68-3.41,4.06S272.16,133.88,274.32,133.88Z" transform="translate(243.05 229.72)"/><path class="cls-6" d="M299.76,132.27a5.23,5.23,0,0,1-5.18,3.65c-3.1,0-5.81-2.26-5.81-6.17,0-3.62,2.62-6.1,5.52-6.1,3.55,0,5.54,2.45,5.54,6a5,5,0,0,1,0,.72h-8.69a3.43,3.43,0,0,0,3.48,3.5,3.15,3.15,0,0,0,3.24-2.33Zm-2.28-3.67a2.91,2.91,0,0,0-3.17-3,3.11,3.11,0,0,0-3.14,3h6.31Z" transform="translate(243.05 229.72)"/><path class="cls-6" d="M310.82,140.12v-6.19a3.86,3.86,0,0,1-3.6,1.94c-3.31,0-5.47-2.76-5.47-6.12s2-6,5.42-6a3.89,3.89,0,0,1,3.7,2.06V124h2.18v16.11h-2.23Zm-3.38-6.24c2,0,3.41-1.75,3.41-4.13s-1.37-4-3.41-4-3.38,1.66-3.38,4S305.38,133.88,307.44,133.88Z" transform="translate(243.05 229.72)"/><path class="cls-6" d="M320.85,135.92c-2.69,0-4.32-2-4.32-4.63V124h2.26V131c0,1.58.72,3,2.62,3s2.74-1.2,2.74-3v-7h2.26v9.41a19.2,19.2,0,0,0,.12,2.14h-2.16a10.07,10.07,0,0,1-.1-1.39A3.77,3.77,0,0,1,320.85,135.92Z" transform="translate(243.05 229.72)"/><path class="cls-6" d="M333,129l3.12-.46a0.84,0.84,0,0,0,.89-0.86c0-1.13-.74-2.06-2.5-2.06a2.45,2.45,0,0,0-2.62,2.33l-2.16-.5c0.24-2.21,2.23-3.74,4.73-3.74,3.46,0,4.8,2,4.8,4.22v5.78a10.89,10.89,0,0,0,.14,1.9h-2.21a8.46,8.46,0,0,1-.12-1.56,4.21,4.21,0,0,1-3.72,1.92,3.6,3.6,0,0,1-3.86-3.46C329.52,130.4,331,129.25,333,129Zm4,1.66v-0.53l-3.53.53a1.73,1.73,0,0,0-1.68,1.73,1.75,1.75,0,0,0,1.87,1.68C335.54,134,337,133.14,337,130.62Z" transform="translate(243.05 229.72)"/><path class="cls-6" d="M342.79,135.56V118.18H345v17.38h-2.26Z" transform="translate(243.05 229.72)"/><path class="cls-6" d="M349.85,131.84a2.46,2.46,0,0,0,2.69,2.16,1.7,1.7,0,0,0,2-1.54A1.61,1.61,0,0,0,353,131l-2-.43a3.28,3.28,0,0,1-2.88-3.24,3.93,3.93,0,0,1,4.1-3.65c3.17,0,4.15,2.06,4.39,3.1l-2,.74a2.24,2.24,0,0,0-2.4-1.92,1.74,1.74,0,0,0-1.92,1.54,1.42,1.42,0,0,0,1.32,1.39l1.87,0.41c2.09,0.46,3.19,1.73,3.19,3.43s-1.37,3.58-4.22,3.58c-3.17,0-4.51-2-4.71-3.36Z" transform="translate(243.05 229.72)"/><path class="cls-6" d="M366.69,131.84a2.46,2.46,0,0,0,2.69,2.16,1.7,1.7,0,0,0,2-1.54,1.61,1.61,0,0,0-1.49-1.49l-2-.43A3.28,3.28,0,0,1,365,127.3a3.93,3.93,0,0,1,4.1-3.65c3.17,0,4.15,2.06,4.39,3.1l-2,.74a2.24,2.24,0,0,0-2.4-1.92,1.74,1.74,0,0,0-1.92,1.54,1.42,1.42,0,0,0,1.32,1.39l1.87,0.41c2.09,0.46,3.19,1.73,3.19,3.43s-1.37,3.58-4.22,3.58c-3.17,0-4.51-2-4.71-3.36Z" transform="translate(243.05 229.72)"/><path class="cls-6" d="M377.69,118a1.62,1.62,0,1,1-1.61,1.63A1.62,1.62,0,0,1,377.69,118Zm-1.1,17.55V124h2.23v11.54h-2.23Z" transform="translate(243.05 229.72)"/><path class="cls-6" d="M384,135.68a3.07,3.07,0,0,0,3.14,2.83c2.42,0,3.53-1.25,3.53-3.74v-1.66a3.84,3.84,0,0,1-3.53,1.9,5.61,5.61,0,0,1,0-11.21,3.65,3.65,0,0,1,3.55,1.82V124h2.23V134.7c0,2.93-1.44,5.79-5.78,5.79a5.05,5.05,0,0,1-5.33-4.3Zm6.77-6.26c0-2.23-1.34-3.7-3.29-3.7s-3.34,1.46-3.34,3.7,1.3,3.7,3.34,3.7S390.77,131.65,390.77,129.42Z" transform="translate(243.05 229.72)"/><path class="cls-6" d="M398.78,135.56h-2.26V124h2.21v1.66a4,4,0,0,1,3.55-2c2.76,0,4.13,2,4.13,4.56v7.32h-2.26v-6.94c0-1.61-.67-2.9-2.69-2.9-1.78,0-2.69,1.42-2.69,3.17v6.67Z" transform="translate(243.05 229.72)"/><path class="cls-6" d="M499.95,38.89H479.79a1,1,0,0,1,0-2h20.16A1,1,0,0,1,499.95,38.89Z" transform="translate(243.05 229.72)"/><polygon class="cls-6" points="724.3 262.63 715.67 267.61 724.3 272.6 724.3 262.63"/><path class="cls-6" d="M508,45.28v-17H518.3v2.18h-8v5.23h7.25v2.21h-7.25V43.1h8v2.18H508Z" transform="translate(243.05 229.72)"/><path class="cls-6" d="M523.55,45.28H521.3V33.73h2.21v1.66a4,4,0,0,1,3.55-2c2.76,0,4.13,2,4.13,4.56v7.32h-2.26V38.34c0-1.61-.67-2.9-2.69-2.9-1.78,0-2.69,1.42-2.69,3.17v6.67Z" transform="translate(243.05 229.72)"/><path class="cls-6" d="M542.87,43.53a3.87,3.87,0,0,1-3.58,2.06c-3.38,0-5.47-2.69-5.47-6.12,0-3.26,2.21-6,5.47-6a3.55,3.55,0,0,1,3.53,1.94V27.9h2.23V43.14a18.4,18.4,0,0,0,.12,2.14H543a9.68,9.68,0,0,1-.12-1.56V43.53Zm-3.36.07c2.06,0,3.34-1.8,3.34-4.18s-1.25-4-3.31-4-3.41,1.68-3.41,4.06S537.35,43.6,539.51,43.6Z" transform="translate(243.05 229.72)"/><path class="cls-6" d="M563.73,33.73l3,8.69,2.54-8.69h2.38l-3.74,11.54h-2.33l-3.07-8.78-3,8.78h-2.38l-3.79-11.54h2.47l2.59,8.69,3-8.69h2.33Z" transform="translate(243.05 229.72)"/><path class="cls-6" d="M575,27.73a1.62,1.62,0,1,1-1.61,1.63A1.62,1.62,0,0,1,575,27.73Zm-1.1,17.55V33.73h2.23V45.28h-2.23Z" transform="translate(243.05 229.72)"/><path class="cls-6" d="M583,33.73h2.5v2H583v6a1.37,1.37,0,0,0,1.61,1.58,4.49,4.49,0,0,0,.89-0.1v1.92a5,5,0,0,1-1.54.22,3,3,0,0,1-3.22-3.29V35.77h-2.21v-2h0.62A1.62,1.62,0,0,0,581,32V30.09H583v3.65Z" transform="translate(243.05 229.72)"/><path class="cls-6" d="M590.78,45.28h-2.26V27.9h2.26v7.18a4.09,4.09,0,0,1,3.5-1.68c2.76,0,4.13,2,4.13,4.56v7.32h-2.26V38.34c0-1.61-.67-2.9-2.69-2.9-1.73,0-2.64,1.34-2.69,3v6.79Z" transform="translate(243.05 229.72)"/><path class="cls-6" d="M609,41.56a2.46,2.46,0,0,0,2.69,2.16,1.7,1.7,0,0,0,2-1.54,1.61,1.61,0,0,0-1.49-1.49l-2-.43A3.28,3.28,0,0,1,607.29,37a3.94,3.94,0,0,1,4.1-3.65c3.17,0,4.15,2.06,4.39,3.1l-2,.74a2.24,2.24,0,0,0-2.4-1.92,1.74,1.74,0,0,0-1.92,1.54,1.41,1.41,0,0,0,1.32,1.39l1.87,0.41c2.09,0.46,3.19,1.73,3.19,3.43s-1.37,3.58-4.22,3.58c-3.17,0-4.51-2-4.71-3.36Z" transform="translate(243.05 229.72)"/><path class="cls-6" d="M628.79,42a5.23,5.23,0,0,1-5.18,3.65c-3.1,0-5.81-2.26-5.81-6.17,0-3.62,2.62-6.1,5.52-6.1,3.55,0,5.54,2.45,5.54,6a5,5,0,0,1,0,.72h-8.69a3.43,3.43,0,0,0,3.48,3.5,3.15,3.15,0,0,0,3.24-2.33Zm-2.28-3.67a2.91,2.91,0,0,0-3.17-3,3.11,3.11,0,0,0-3.14,3h6.31Z" transform="translate(243.05 229.72)"/><path class="cls-6" d="M631.74,45.28V33.73h2.16v1.54a4,4,0,0,1,3.5-1.87,3.61,3.61,0,0,1,3.46,2.18,4.14,4.14,0,0,1,3.86-2.18c2,0,4,1.37,4,4.39v7.49h-2.23V38A2.32,2.32,0,0,0,644,35.39a2.69,2.69,0,0,0-2.66,2.9v7h-2.26V38a2.32,2.32,0,0,0-2.45-2.64A2.68,2.68,0,0,0,634,38.32v7h-2.23Z" transform="translate(243.05 229.72)"/><path class="cls-6" d="M653.42,27.73a1.62,1.62,0,1,1-1.61,1.63A1.62,1.62,0,0,1,653.42,27.73Zm-1.1,17.55V33.73h2.23V45.28h-2.23Z" transform="translate(243.05 229.72)"/><path class="cls-6" d="M659.73,39.5c0,2.64,1.66,4.06,3.53,4.06a3.14,3.14,0,0,0,3.22-2.38l2,0.86a5.3,5.3,0,0,1-5.21,3.6,5.84,5.84,0,0,1-5.83-6.15,5.79,5.79,0,0,1,5.81-6.12A5,5,0,0,1,668.37,37l-2,.86a3,3,0,0,0-3.1-2.45C661.41,35.46,659.73,36.81,659.73,39.5Z" transform="translate(243.05 229.72)"/><path class="cls-6" d="M681.83,39.5a5.91,5.91,0,1,1-11.81,0A5.91,5.91,0,1,1,681.83,39.5Zm-2.3,0c0-2.66-1.68-4.1-3.6-4.1s-3.6,1.44-3.6,4.1,1.68,4.13,3.6,4.13S679.53,42.18,679.53,39.5Z" transform="translate(243.05 229.72)"/><path class="cls-6" d="M684.71,45.28V27.9H687V45.28h-2.26Z" transform="translate(243.05 229.72)"/><path class="cls-6" d="M701.66,39.5a5.91,5.91,0,1,1-11.81,0A5.91,5.91,0,1,1,701.66,39.5Zm-2.3,0c0-2.66-1.68-4.1-3.6-4.1s-3.6,1.44-3.6,4.1,1.68,4.13,3.6,4.13S699.35,42.18,699.35,39.5Z" transform="translate(243.05 229.72)"/><path class="cls-6" d="M706.79,45.28h-2.26V33.73h2.21v1.66a4,4,0,0,1,3.55-2c2.76,0,4.13,2,4.13,4.56v7.32h-2.26V38.34c0-1.61-.67-2.9-2.69-2.9-1.78,0-2.69,1.42-2.69,3.17v6.67Z" transform="translate(243.05 229.72)"/><path class="cls-6" d="M266.28,94.89H246.95a1,1,0,0,1,0-2h18.33V77.28a1,1,0,0,1,2,0V93.89A1,1,0,0,1,266.28,94.89Z" transform="translate(243.05 229.72)"/></svg>