<svg id="Layer_1" data-name="Layer 1" xmlns="http://www.w3.org/2000/svg" viewBox="0 0 946.44 374.41"><defs><style>.cls-1{fill:#85e8da;}.cls-2{fill:#ffdb00;}.cls-3{fill:#f6f6f6;}.cls-4{fill:#231f20;}</style></defs><title>Slide-12-Flow-Chart</title><rect class="cls-1" x="1.5" y="327.48" width="190.59" height="45.44" rx="10" ry="10" transform="translate(193.59 700.39) rotate(-180)"/><path d="M182.09,374.41H11.5A11.51,11.51,0,0,1,0,362.91V337.48A11.51,11.51,0,0,1,11.5,326H182.09a11.51,11.51,0,0,1,11.5,11.5v25.44A11.51,11.51,0,0,1,182.09,374.41ZM11.5,329a8.51,8.51,0,0,0-8.5,8.5v25.44a8.51,8.51,0,0,0,8.5,8.5H182.09a8.51,8.51,0,0,0,8.5-8.5V337.48a8.51,8.51,0,0,0-8.5-8.5H11.5Z"/><rect class="cls-2" x="1.5" y="1.5" width="190.59" height="45.44" rx="10" ry="10" transform="translate(193.59 48.44) rotate(-180)"/><path d="M182.09,48.44H11.5A11.51,11.51,0,0,1,0,36.94V11.5A11.51,11.51,0,0,1,11.5,0H182.09a11.51,11.51,0,0,1,11.5,11.5V36.94A11.51,11.51,0,0,1,182.09,48.44ZM11.5,3A8.51,8.51,0,0,0,3,11.5V36.94a8.51,8.51,0,0,0,8.5,8.5H182.09a8.51,8.51,0,0,0,8.5-8.5V11.5a8.51,8.51,0,0,0-8.5-8.5H11.5Z"/><rect class="cls-3" x="48.93" y="112.88" width="95.72" height="95.72" transform="translate(278.9 205.96) rotate(135)"/><path class="cls-4" d="M96.79,230.55L27,160.74,96.79,90.94l69.81,69.81ZM31.23,160.74l65.56,65.56,65.56-65.56L96.79,95.18Z"/><rect class="cls-3" x="291.68" y="112.88" width="95.72" height="95.72" transform="translate(693.29 34.31) rotate(135)"/><path class="cls-4" d="M339.54,230.55l-69.81-69.81,69.81-69.81,69.81,69.81ZM274,160.74l65.56,65.56,65.56-65.56L339.54,95.18Z"/><rect class="cls-4" x="95.29" y="46.94" width="3" height="33.36"/><polygon class="cls-4" points="89.31 78.11 96.79 91.06 104.27 78.11 89.31 78.11"/><rect class="cls-4" x="95.29" y="228.43" width="3" height="87.7"/><polygon class="cls-4" points="89.31 313.94 96.79 326.89 104.27 313.94 89.31 313.94"/><path d="M66.05,352.72H61.11l-1,2.78H57.58l4.67-12.18H65l4.64,12.18H67.07Zm-4.16-2.17h3.37l-1.68-4.6Z"/><path d="M77.72,347l1.82,5.45L81.11,347h2.27l-2.65,8.45H78.45l-2-5.77-1.94,5.77H72.21L69.51,347h2.41l1.56,5.43L75.32,347h2.41Z"/><path d="M92.16,353.08a3.81,3.81,0,0,1-3.85,2.68,4.49,4.49,0,0,1-.21-9c2.61,0,4.17,1.67,4.17,4.38,0,0.33,0,.67,0,0.71h-6a2.06,2.06,0,0,0,2.13,1.92,1.87,1.87,0,0,0,1.92-1.29ZM90,350.31a1.7,1.7,0,0,0-1.89-1.67,1.83,1.83,0,0,0-1.89,1.67H90Z"/><path d="M95.33,352.72A1.41,1.41,0,0,0,96.87,354a0.94,0.94,0,0,0,1.12-.84,0.91,0.91,0,0,0-.91-0.82L96,352.08c-1.63-.36-2.37-1.34-2.37-2.53a3,3,0,0,1,3.16-2.77c2.41,0,3.21,1.53,3.32,2.44l-1.91.43a1.29,1.29,0,0,0-1.39-1.13,1,1,0,0,0-1.08.84,0.8,0.8,0,0,0,.77.76l1.2,0.26c1.67,0.34,2.51,1.36,2.51,2.59s-1.07,2.78-3.28,2.78c-2.54,0-3.42-1.65-3.52-2.61Z"/><path d="M110.21,351.27a4.43,4.43,0,1,1-4.43-4.48A4.34,4.34,0,0,1,110.21,351.27Zm-2.29,0a2.16,2.16,0,1,0-2.15,2.41A2.17,2.17,0,0,0,107.92,351.27Z"/><path d="M112,355.5V347h2.18v1a2.91,2.91,0,0,1,2.47-1.27,2.62,2.62,0,0,1,2.51,1.41,3.13,3.13,0,0,1,5.74,1.8v5.48H122.7v-5a1.41,1.41,0,0,0-1.49-1.6,1.55,1.55,0,0,0-1.56,1.67v4.95h-2.27v-5a1.42,1.42,0,0,0-1.49-1.6,1.55,1.55,0,0,0-1.58,1.67v4.95H112Z"/><path d="M134.82,353.08a3.81,3.81,0,0,1-3.85,2.68,4.49,4.49,0,0,1-.21-9c2.61,0,4.17,1.67,4.17,4.38,0,0.33,0,.67,0,0.71h-6A2.06,2.06,0,0,0,131,353.8a1.87,1.87,0,0,0,1.92-1.29Zm-2.13-2.77a1.7,1.7,0,0,0-1.89-1.67,1.83,1.83,0,0,0-1.89,1.67h3.78Z"/><rect class="cls-1" x="244.25" y="327.48" width="190.59" height="45.44" rx="10" ry="10" transform="translate(679.08 700.39) rotate(-180)"/><path d="M424.83,374.41H254.25a11.51,11.51,0,0,1-11.5-11.5V337.48a11.51,11.51,0,0,1,11.5-11.5H424.83a11.51,11.51,0,0,1,11.5,11.5v25.44A11.51,11.51,0,0,1,424.83,374.41ZM254.25,329a8.51,8.51,0,0,0-8.5,8.5v25.44a8.51,8.51,0,0,0,8.5,8.5H424.83a8.51,8.51,0,0,0,8.5-8.5V337.48a8.51,8.51,0,0,0-8.5-8.5H254.25Z"/><path d="M294.66,355.5V343.32H297v9.91h5.43v2.27h-7.8Z"/><path d="M312.36,351.27a4.43,4.43,0,1,1-4.43-4.48A4.34,4.34,0,0,1,312.36,351.27Zm-2.29,0a2.16,2.16,0,1,0-2.15,2.41A2.17,2.17,0,0,0,310.07,351.27Z"/><path d="M322.4,351.27a4.43,4.43,0,1,1-4.43-4.48A4.34,4.34,0,0,1,322.4,351.27Zm-2.29,0a2.16,2.16,0,1,0-2.15,2.41A2.17,2.17,0,0,0,320.11,351.27Z"/><path d="M329,350.6l3.45,4.9h-2.8l-2.23-3.23-0.95,1v2.23H324.2V343.06h2.29v7.13l2.92-3.14h3Z"/><path d="M339.71,351.27a2.18,2.18,0,0,0,2.17,2.39,1.93,1.93,0,0,0,1.94-1.43l2,0.67a3.92,3.92,0,0,1-4,2.85,4.37,4.37,0,0,1-4.45-4.48,4.33,4.33,0,0,1,4.38-4.48,3.87,3.87,0,0,1,4,2.85l-2,.69a1.84,1.84,0,0,0-1.87-1.43A2.15,2.15,0,0,0,339.71,351.27Z"/><path d="M347.51,355.5V343.06h2.29V355.5h-2.29Z"/><path d="M360.47,351.27a4.43,4.43,0,1,1-4.43-4.48A4.34,4.34,0,0,1,360.47,351.27Zm-2.29,0a2.16,2.16,0,1,0-2.15,2.41A2.17,2.17,0,0,0,358.18,351.27Z"/><path d="M363.51,352.72a1.41,1.41,0,0,0,1.55,1.29,0.94,0.94,0,0,0,1.12-.84,0.91,0.91,0,0,0-.91-0.82l-1.12-.26c-1.63-.36-2.37-1.34-2.37-2.53a3,3,0,0,1,3.16-2.77c2.41,0,3.21,1.53,3.32,2.44l-1.91.43a1.29,1.29,0,0,0-1.39-1.13,1,1,0,0,0-1.08.84,0.8,0.8,0,0,0,.77.76l1.2,0.26c1.67,0.34,2.51,1.36,2.51,2.59s-1.07,2.78-3.28,2.78c-2.54,0-3.42-1.65-3.52-2.61Z"/><path d="M377.74,353.08a3.81,3.81,0,0,1-3.85,2.68,4.49,4.49,0,0,1-.21-9c2.61,0,4.17,1.67,4.17,4.38,0,0.33,0,.67,0,0.71h-6a2.06,2.06,0,0,0,2.13,1.92,1.87,1.87,0,0,0,1.92-1.29Zm-2.13-2.77a1.7,1.7,0,0,0-1.89-1.67,1.83,1.83,0,0,0-1.89,1.67h3.78Z"/><path d="M384.82,349.31a3.43,3.43,0,0,0-.69-0.07c-1.17,0-2.18.57-2.18,2.39v3.87h-2.29V347h2.22v1.25a2.52,2.52,0,0,1,2.41-1.32,5.09,5.09,0,0,1,.53,0v2.3Z"/><rect class="cls-1" x="486.99" y="327.48" width="190.59" height="45.44" rx="10" ry="10" transform="translate(1164.57 700.39) rotate(-180)"/><path d="M667.58,374.41H497a11.51,11.51,0,0,1-11.5-11.5V337.48A11.51,11.51,0,0,1,497,326H667.58a11.51,11.51,0,0,1,11.5,11.5v25.44A11.51,11.51,0,0,1,667.58,374.41ZM497,329a8.51,8.51,0,0,0-8.5,8.5v25.44a8.51,8.51,0,0,0,8.5,8.5H667.58a8.51,8.51,0,0,0,8.5-8.5V337.48a8.51,8.51,0,0,0-8.5-8.5H497Z"/><path d="M551.56,345.57v9.93h-2.39v-9.93h-3.85v-2.25H555.4v2.25h-3.85Z"/><path d="M560.82,349.31a3.43,3.43,0,0,0-.69-0.07c-1.17,0-2.18.57-2.18,2.39v3.87h-2.29V347h2.22v1.25a2.52,2.52,0,0,1,2.41-1.32,5.09,5.09,0,0,1,.53,0v2.3Z"/><path d="M563.3,358.83l2-4.4L561.7,347h2.56l2.25,4.95,2.08-4.95H571l-5.31,11.79H563.3Z"/><path d="M578.68,350.64l2.08-.31a0.6,0.6,0,0,0,.64-0.6,1.2,1.2,0,0,0-1.43-1.1,1.5,1.5,0,0,0-1.62,1.37l-2-.43a3.36,3.36,0,0,1,3.63-2.78c2.68,0,3.68,1.51,3.68,3.21v4.16a9.43,9.43,0,0,0,.1,1.34h-2.1a5.81,5.81,0,0,1-.08-1,2.83,2.83,0,0,1-2.49,1.25,2.67,2.67,0,0,1-2.9-2.54A2.6,2.6,0,0,1,578.68,350.64Zm2.71,1.44V351.7l-1.91.29a1.07,1.07,0,0,0-1,1.07,1,1,0,0,0,1.1,1A1.72,1.72,0,0,0,581.39,352.08Z"/><path d="M587.36,355.41a1.89,1.89,0,0,0,2,1.6,2,2,0,0,0,2.25-2.35V354a2.68,2.68,0,0,1-2.35,1.08A3.91,3.91,0,0,1,585.3,351a4,4,0,0,1,3.93-4.12,2.56,2.56,0,0,1,2.41,1.15v-1h2.2v7.54A4.09,4.09,0,0,1,589.4,359,3.89,3.89,0,0,1,585.3,356Zm4.26-4.4a2,2,0,1,0-2,2.15A2,2,0,0,0,591.62,351Z"/><path d="M598.08,350.64l2.08-.31a0.6,0.6,0,0,0,.64-0.6,1.2,1.2,0,0,0-1.43-1.1,1.5,1.5,0,0,0-1.61,1.37l-2-.43a3.36,3.36,0,0,1,3.63-2.78c2.68,0,3.68,1.51,3.68,3.21v4.16a9.59,9.59,0,0,0,.1,1.34H601a5.71,5.71,0,0,1-.09-1,2.83,2.83,0,0,1-2.49,1.25,2.67,2.67,0,0,1-2.9-2.54A2.6,2.6,0,0,1,598.08,350.64Zm2.71,1.44V351.7l-1.91.29a1.07,1.07,0,0,0-1,1.07,1,1,0,0,0,1.1,1A1.72,1.72,0,0,0,600.8,352.08Z"/><path d="M606.47,342.85a1.41,1.41,0,1,1-1.41,1.43A1.41,1.41,0,0,1,606.47,342.85Zm-1.13,12.65V347h2.29v8.45h-2.29Z"/><path d="M612.35,355.5h-2.29V347h2.22v1a2.81,2.81,0,0,1,2.44-1.27c2.1,0,3.06,1.5,3.06,3.35v5.33h-2.29v-4.93a1.49,1.49,0,0,0-1.56-1.68,1.59,1.59,0,0,0-1.58,1.75v4.86Z"/><rect class="cls-1" x="754.35" y="138.02" width="190.59" height="45.44" rx="10" ry="10" transform="translate(1699.28 321.49) rotate(-180)"/><path d="M934.94,185H764.35a11.51,11.51,0,0,1-11.5-11.5V148a11.51,11.51,0,0,1,11.5-11.5H934.94a11.51,11.51,0,0,1,11.5,11.5v25.44A11.51,11.51,0,0,1,934.94,185ZM764.35,139.52a8.51,8.51,0,0,0-8.5,8.5v25.44a8.51,8.51,0,0,0,8.5,8.5H934.94a8.51,8.51,0,0,0,8.5-8.5V148a8.51,8.51,0,0,0-8.5-8.5H764.35Z"/><path d="M818.9,163.26H814l-1,2.78h-2.51l4.67-12.18h2.75L822.49,166h-2.58Zm-4.16-2.17h3.37l-1.68-4.6Z"/><path d="M830.57,157.59l1.82,5.45,1.56-5.45h2.27L833.58,166h-2.29l-2-5.77L827.38,166h-2.32l-2.7-8.45h2.41l1.56,5.43,1.84-5.43h2.41Z"/><path d="M845,163.62a3.81,3.81,0,0,1-3.85,2.68,4.49,4.49,0,0,1-.21-9c2.61,0,4.17,1.67,4.17,4.38,0,0.33,0,.67,0,0.71h-6a2.06,2.06,0,0,0,2.13,1.92,1.87,1.87,0,0,0,1.92-1.29Zm-2.13-2.77a1.7,1.7,0,0,0-1.89-1.67,1.83,1.83,0,0,0-1.89,1.67h3.78Z"/><path d="M848.18,163.26a1.4,1.4,0,0,0,1.55,1.29,0.94,0.94,0,0,0,1.12-.84,0.91,0.91,0,0,0-.91-0.82l-1.12-.26c-1.63-.36-2.37-1.34-2.37-2.53a3,3,0,0,1,3.16-2.77c2.41,0,3.21,1.53,3.32,2.44l-1.91.43a1.29,1.29,0,0,0-1.39-1.13,1,1,0,0,0-1.08.84,0.8,0.8,0,0,0,.77.76l1.2,0.26c1.67,0.34,2.51,1.36,2.51,2.59s-1.07,2.78-3.28,2.78c-2.54,0-3.42-1.65-3.52-2.61Z"/><path d="M863.06,161.82a4.43,4.43,0,1,1-4.43-4.48A4.34,4.34,0,0,1,863.06,161.82Zm-2.29,0a2.16,2.16,0,1,0-2.15,2.41A2.17,2.17,0,0,0,860.77,161.82Z"/><path d="M864.87,166v-8.45H867v1a2.91,2.91,0,0,1,2.47-1.27,2.62,2.62,0,0,1,2.51,1.41,3.13,3.13,0,0,1,5.74,1.8V166h-2.22v-5a1.41,1.41,0,0,0-1.49-1.6,1.55,1.55,0,0,0-1.56,1.67V166h-2.27v-5a1.42,1.42,0,0,0-1.49-1.6,1.55,1.55,0,0,0-1.58,1.67V166h-2.29Z"/><path d="M887.67,163.62a3.81,3.81,0,0,1-3.85,2.68,4.49,4.49,0,0,1-.21-9c2.61,0,4.17,1.67,4.17,4.38,0,0.33,0,.67,0,0.71h-6a2.06,2.06,0,0,0,2.13,1.92,1.87,1.87,0,0,0,1.92-1.29Zm-2.13-2.77a1.7,1.7,0,0,0-1.89-1.67,1.83,1.83,0,0,0-1.89,1.67h3.78Z"/><path d="M84.37,22.54a2.08,2.08,0,0,0-2.22-1.72,1.73,1.73,0,0,0-1.91,1.55,1.4,1.4,0,0,0,1.32,1.37l1.7,0.33c2.22,0.43,3.4,1.87,3.4,3.59,0,1.87-1.56,3.76-4.4,3.76-3.23,0-4.66-2.08-4.84-3.81l2.2-.58a2.44,2.44,0,0,0,2.66,2.29c1.27,0,2-.64,2-1.5a1.56,1.56,0,0,0-1.48-1.44L81.09,26c-1.94-.4-3.2-1.65-3.2-3.49a4,4,0,0,1,4.24-3.81c3,0,4.09,1.79,4.36,3.16Z"/><path d="M91.42,22.71h1.7v2h-1.7v3.54a0.85,0.85,0,0,0,1,1,3.3,3.3,0,0,0,.7-0.07v1.89a3.39,3.39,0,0,1-1.29.21,2.45,2.45,0,0,1-2.68-2.61V24.74H87.62v-2h0.43a1.22,1.22,0,0,0,1.31-1.34V20.19h2.06v2.53Z"/><path d="M97.13,26.31L99.21,26a0.6,0.6,0,0,0,.64-0.6,1.2,1.2,0,0,0-1.43-1.1,1.5,1.5,0,0,0-1.61,1.37l-2-.43a3.36,3.36,0,0,1,3.63-2.78c2.68,0,3.68,1.51,3.68,3.21v4.16a9.51,9.51,0,0,0,.1,1.34h-2.1a5.75,5.75,0,0,1-.09-1,2.83,2.83,0,0,1-2.49,1.25,2.67,2.67,0,0,1-2.9-2.54A2.6,2.6,0,0,1,97.13,26.31Zm2.71,1.44V27.37l-1.91.29a1.07,1.07,0,0,0-1,1.06,1,1,0,0,0,1.1,1A1.72,1.72,0,0,0,99.84,27.75Z"/><path d="M109.54,25a3.46,3.46,0,0,0-.69-0.07c-1.17,0-2.18.57-2.18,2.39v3.87h-2.29V22.71h2.22V24A2.51,2.51,0,0,1,109,22.65a5.23,5.23,0,0,1,.53,0V25Z"/><path d="M114.3,22.71H116v2h-1.7v3.54a0.85,0.85,0,0,0,1,1,3.3,3.3,0,0,0,.7-0.07v1.89a3.39,3.39,0,0,1-1.29.21A2.45,2.45,0,0,1,112,28.68V24.74H110.5v-2h0.43a1.22,1.22,0,0,0,1.31-1.34V20.19h2.06v2.53Z"/><path d="M70,140.37V128.19h4.36a6.09,6.09,0,0,1,0,12.18H70Zm4.26-2.2a3.51,3.51,0,0,0,3.66-3.88c0-2.65-1.65-3.9-3.64-3.9H72.35v7.78h1.89Z"/><path d="M90.53,136.14a4.43,4.43,0,1,1-4.43-4.48A4.34,4.34,0,0,1,90.53,136.14Zm-2.29,0a2.16,2.16,0,1,0-2.15,2.41A2.17,2.17,0,0,0,88.25,136.14Z"/><path d="M95.54,128.19h2.78l2.73,4.83,2.73-4.83h2.66l-4.3,7.06v5.12H99.78v-5.12Z"/><path d="M114.37,136.14a4.43,4.43,0,1,1-4.43-4.48A4.34,4.34,0,0,1,114.37,136.14Zm-2.29,0a2.16,2.16,0,1,0-2.15,2.41A2.17,2.17,0,0,0,112.09,136.14Z"/><path d="M121.61,139.46a2.67,2.67,0,0,1-2.34,1.13,3.11,3.11,0,0,1-3.21-3.33v-5.34h2.29v4.88a1.5,1.5,0,0,0,1.55,1.7,1.53,1.53,0,0,0,1.6-1.67v-4.91h2.29v6.92a13.83,13.83,0,0,0,.09,1.53h-2.18A5.75,5.75,0,0,1,121.61,139.46Z"/><path d="M51.56,154.06v-7.87h2.37v7.7a2.31,2.31,0,1,0,4.62,0v-7.7h2.37v7.87a4.36,4.36,0,0,1-4.69,4.59A4.36,4.36,0,0,1,51.56,154.06Z"/><path d="M65.62,158.37H63.34v-8.45h2.22v1A2.81,2.81,0,0,1,68,149.69c2.1,0,3.06,1.5,3.06,3.35v5.33H68.77v-4.93a1.49,1.49,0,0,0-1.56-1.68,1.59,1.59,0,0,0-1.58,1.75v4.86Z"/><path d="M81.43,156.84c0,0.57,0,1.19.07,1.53H79.32a5.85,5.85,0,0,1-.09-1,2.65,2.65,0,0,1-2.37,1.19,4.45,4.45,0,0,1-.07-8.87,2.53,2.53,0,0,1,2.39,1v-4.83h2.25v10.91Zm-4.3-.31a2.15,2.15,0,0,0,2.08-2.42,2.1,2.1,0,0,0-2.08-2.35A2.41,2.41,0,0,0,77.14,156.53Z"/><path d="M91.49,155.95a3.81,3.81,0,0,1-3.85,2.68,4.49,4.49,0,0,1-.21-9c2.61,0,4.17,1.67,4.17,4.38,0,0.33,0,.67,0,0.7h-6a2.06,2.06,0,0,0,2.13,1.92,1.87,1.87,0,0,0,1.92-1.29Zm-2.13-2.77a1.7,1.7,0,0,0-1.89-1.67,1.83,1.83,0,0,0-1.89,1.67h3.78Z"/><path d="M98.57,152.18a3.46,3.46,0,0,0-.69-0.07c-1.17,0-2.18.57-2.18,2.39v3.87H93.42v-8.45h2.22v1.25A2.51,2.51,0,0,1,98,149.85a5.23,5.23,0,0,1,.53,0v2.3Z"/><path d="M101.48,155.58a1.41,1.41,0,0,0,1.55,1.29,0.94,0.94,0,0,0,1.12-.84,0.91,0.91,0,0,0-.91-0.82l-1.12-.26c-1.63-.36-2.37-1.34-2.37-2.53a3,3,0,0,1,3.16-2.77c2.41,0,3.21,1.53,3.32,2.44l-1.91.43a1.29,1.29,0,0,0-1.39-1.13,1,1,0,0,0-1.08.84,0.8,0.8,0,0,0,.77.76l1.2,0.26c1.67,0.34,2.51,1.36,2.51,2.59s-1.07,2.78-3.28,2.78c-2.54,0-3.42-1.65-3.52-2.61Z"/><path d="M111,149.91h1.7v2H111v3.54a0.85,0.85,0,0,0,1,1,3.3,3.3,0,0,0,.7-0.07v1.89a3.39,3.39,0,0,1-1.29.21,2.45,2.45,0,0,1-2.68-2.61v-3.93h-1.53v-2h0.43a1.22,1.22,0,0,0,1.31-1.34v-1.19H111v2.53Z"/><path d="M116.69,153.51l2.08-.31a0.6,0.6,0,0,0,.64-0.6,1.2,1.2,0,0,0-1.43-1.1,1.5,1.5,0,0,0-1.61,1.37l-2-.43a3.36,3.36,0,0,1,3.63-2.78c2.68,0,3.68,1.51,3.68,3.21V157a9.51,9.51,0,0,0,.1,1.34h-2.1a5.75,5.75,0,0,1-.09-1,2.83,2.83,0,0,1-2.49,1.25,2.67,2.67,0,0,1-2.9-2.54A2.6,2.6,0,0,1,116.69,153.51Zm2.71,1.44v-0.38l-1.91.29a1.07,1.07,0,0,0-1,1.06,1,1,0,0,0,1.1,1A1.72,1.72,0,0,0,119.4,154.95Z"/><path d="M126.23,158.37h-2.29v-8.45h2.22v1a2.81,2.81,0,0,1,2.44-1.27c2.1,0,3.06,1.5,3.06,3.35v5.33h-2.29v-4.93a1.49,1.49,0,0,0-1.56-1.68,1.59,1.59,0,0,0-1.58,1.75v4.86Z"/><path d="M142,156.84c0,0.57,0,1.19.07,1.53h-2.18a5.85,5.85,0,0,1-.09-1,2.65,2.65,0,0,1-2.37,1.19,4.45,4.45,0,0,1-.07-8.87,2.53,2.53,0,0,1,2.39,1v-4.83H142v10.91Zm-4.3-.31a2.15,2.15,0,0,0,2.08-2.42,2.1,2.1,0,0,0-2.08-2.35A2.41,2.41,0,0,0,137.74,156.53Z"/><path d="M76.8,176.37V164.19h7.7v2.25H79.18v3h4.74v2.18H79.19v4.74H76.8Z"/><path d="M86.33,176.37V163.93h2.29v12.44H86.33Z"/><path d="M99.28,172.14a4.43,4.43,0,1,1-4.43-4.48A4.34,4.34,0,0,1,99.28,172.14Zm-2.29,0a2.16,2.16,0,1,0-2.15,2.41A2.17,2.17,0,0,0,97,172.14Z"/><path d="M108.07,167.91l1.82,5.45,1.56-5.45h2.27l-2.65,8.45h-2.29l-2-5.77-1.94,5.77h-2.32l-2.7-8.45h2.41l1.56,5.43,1.84-5.43h2.41Z"/><path d="M66,188.29a6.15,6.15,0,0,1,6.2-6.36,5.36,5.36,0,0,1,5.58,4l-2.23.7a3.19,3.19,0,0,0-3.35-2.46,4.06,4.06,0,0,0,0,8.09,3.39,3.39,0,0,0,3.42-2.49l2.22,0.67a5.54,5.54,0,0,1-5.64,4.14A6.08,6.08,0,0,1,66,188.29Z"/><path d="M81.8,194.37H79.51V181.93H81.8v4.69a3,3,0,0,1,2.29-.93c2.15,0,3.14,1.5,3.14,3.35v5.33H84.94v-4.93a1.49,1.49,0,0,0-1.56-1.68,1.58,1.58,0,0,0-1.58,1.65v5Z"/><path d="M91.56,189.51l2.08-.31a0.6,0.6,0,0,0,.64-0.6,1.2,1.2,0,0,0-1.43-1.1,1.5,1.5,0,0,0-1.61,1.37l-2-.43a3.36,3.36,0,0,1,3.63-2.78c2.68,0,3.68,1.51,3.68,3.21V193a9.51,9.51,0,0,0,.1,1.34h-2.1a5.71,5.71,0,0,1-.09-1,2.83,2.83,0,0,1-2.49,1.25,2.67,2.67,0,0,1-2.9-2.54A2.6,2.6,0,0,1,91.56,189.51Zm2.71,1.44v-0.38l-1.91.29a1.07,1.07,0,0,0-1,1.07,1,1,0,0,0,1.1,1A1.72,1.72,0,0,0,94.27,190.95Z"/><path d="M104,188.18a3.46,3.46,0,0,0-.69-0.07c-1.17,0-2.18.57-2.18,2.39v3.87H98.81v-8.45H101v1.25a2.51,2.51,0,0,1,2.41-1.32,5.23,5.23,0,0,1,.53,0v2.3Z"/><path d="M108.73,185.91h1.7v2h-1.7v3.54a0.85,0.85,0,0,0,1,1,3.34,3.34,0,0,0,.7-0.07v1.89a3.39,3.39,0,0,1-1.29.21,2.45,2.45,0,0,1-2.68-2.61v-3.93h-1.53v-2h0.43a1.22,1.22,0,0,0,1.31-1.34v-1.19h2.06v2.53Z"/><path d="M113.8,191.58a1.41,1.41,0,0,0,1.55,1.29,0.94,0.94,0,0,0,1.12-.84,0.91,0.91,0,0,0-.91-0.82l-1.12-.26c-1.63-.36-2.37-1.34-2.37-2.53a3,3,0,0,1,3.16-2.77c2.41,0,3.21,1.53,3.32,2.44l-1.91.43a1.29,1.29,0,0,0-1.39-1.13,1,1,0,0,0-1.08.84,0.8,0.8,0,0,0,.77.76l1.2,0.26c1.67,0.34,2.51,1.36,2.51,2.59s-1.07,2.78-3.28,2.78c-2.54,0-3.42-1.65-3.52-2.61Z"/><path d="M122.51,190.66a4.42,4.42,0,0,1-.07-0.7,3,3,0,0,1,1.36-2.49l0.82-.62a1.63,1.63,0,0,0,.74-1.36,1.56,1.56,0,0,0-1.72-1.55,2,2,0,0,0-1.68,2.49l-2.17-.09a2.88,2.88,0,0,1-.09-0.77,3.67,3.67,0,0,1,3.93-3.64c2.66,0,4.05,1.68,4.05,3.42a3.61,3.61,0,0,1-1.7,3l-0.7.5a2,2,0,0,0-.93,1.67v0.1h-1.86Zm1,1.12a1.38,1.38,0,0,1,1.37,1.38,1.36,1.36,0,0,1-1.37,1.36,1.35,1.35,0,0,1-1.36-1.36A1.36,1.36,0,0,1,123.48,191.77Z"/><path d="M332.12,127.93a6.35,6.35,0,1,1-6.25,6.36A6.14,6.14,0,0,1,332.12,127.93Zm0,10.4a4.06,4.06,0,1,0-3.8-4.06A3.76,3.76,0,0,0,332.12,138.32Z"/><path d="M345,135.47l3.45,4.9h-2.8l-2.23-3.23-0.95,1v2.23h-2.29V127.93h2.29v7.13l2.92-3.14h3Z"/><path d="M351.13,137.55a1.76,1.76,0,0,1,1.7,2,3.52,3.52,0,0,1-3,3.75v-1.1a2.11,2.11,0,0,0,1.63-1.86,0.89,0.89,0,0,1-.45.1,1.37,1.37,0,0,1-1.43-1.43A1.47,1.47,0,0,1,351.13,137.55Z"/><path d="M300.8,149.74a2.08,2.08,0,0,0-2.22-1.72,1.73,1.73,0,0,0-1.91,1.55,1.4,1.4,0,0,0,1.32,1.37l1.7,0.33c2.22,0.43,3.4,1.87,3.4,3.59,0,1.87-1.56,3.76-4.4,3.76-3.23,0-4.66-2.08-4.84-3.81l2.2-.58a2.44,2.44,0,0,0,2.66,2.29c1.27,0,2-.64,2-1.5a1.56,1.56,0,0,0-1.48-1.44l-1.7-.34c-1.94-.4-3.2-1.65-3.2-3.49a4,4,0,0,1,4.24-3.81c3,0,4.09,1.79,4.36,3.16Z"/><path d="M312.45,155.95a3.81,3.81,0,0,1-3.85,2.68,4.49,4.49,0,0,1-.21-9c2.61,0,4.17,1.67,4.17,4.38,0,0.33,0,.67,0,0.7h-6a2.06,2.06,0,0,0,2.13,1.92,1.87,1.87,0,0,0,1.92-1.29Zm-2.13-2.77a1.7,1.7,0,0,0-1.89-1.67,1.83,1.83,0,0,0-1.89,1.67h3.78Z"/><path d="M322,155.95a3.81,3.81,0,0,1-3.85,2.68,4.49,4.49,0,0,1-.21-9c2.61,0,4.17,1.67,4.17,4.38,0,0.33,0,.67,0,0.7h-6a2.06,2.06,0,0,0,2.13,1.92,1.87,1.87,0,0,0,1.92-1.29Zm-2.13-2.77a1.7,1.7,0,0,0-1.89-1.67,1.83,1.83,0,0,0-1.89,1.67h3.78Z"/><path d="M330.94,149.91h1.7v2h-1.7v3.54a0.85,0.85,0,0,0,1,1,3.3,3.3,0,0,0,.7-0.07v1.89a3.39,3.39,0,0,1-1.29.21,2.45,2.45,0,0,1-2.68-2.61v-3.93h-1.53v-2h0.43a1.22,1.22,0,0,0,1.31-1.34v-1.19h2.06v2.53Z"/><path d="M336.46,158.37h-2.29V145.93h2.29v4.69a3,3,0,0,1,2.29-.93c2.15,0,3.14,1.5,3.14,3.35v5.33h-2.29v-4.93a1.49,1.49,0,0,0-1.56-1.68,1.58,1.58,0,0,0-1.58,1.65v5Z"/><path d="M351.79,155.95a3.81,3.81,0,0,1-3.85,2.68,4.49,4.49,0,0,1-.21-9c2.61,0,4.17,1.67,4.17,4.38,0,0.33,0,.67,0,0.7h-6a2.06,2.06,0,0,0,2.13,1.92,1.87,1.87,0,0,0,1.92-1.29Zm-2.13-2.77a1.7,1.7,0,0,0-1.89-1.67,1.83,1.83,0,0,0-1.89,1.67h3.78Z"/><path d="M358,158.37V145.93h2.29v12.44H358Z"/><path d="M363.83,145.72a1.41,1.41,0,1,1-1.41,1.43A1.41,1.41,0,0,1,363.83,145.72Zm-1.13,12.65v-8.45H365v8.45h-2.29Z"/><path d="M369.7,158.37h-2.29v-8.45h2.22v1a2.81,2.81,0,0,1,2.44-1.27c2.1,0,3.06,1.5,3.06,3.35v5.33h-2.28v-4.93a1.49,1.49,0,0,0-1.56-1.68,1.59,1.59,0,0,0-1.58,1.75v4.86Z"/><path d="M385,155.95a3.81,3.81,0,0,1-3.85,2.68,4.49,4.49,0,0,1-.21-9c2.61,0,4.17,1.67,4.17,4.38,0,0.33,0,.67,0,0.7h-6a2.06,2.06,0,0,0,2.13,1.92,1.87,1.87,0,0,0,1.92-1.29Zm-2.13-2.77a1.7,1.7,0,0,0-1.89-1.67,1.83,1.83,0,0,0-1.89,1.67h3.78Z"/><path d="M311.39,176.37V163.93h2.29v12.44h-2.29Z"/><path d="M318.08,171.51l2.08-.31a0.6,0.6,0,0,0,.64-0.6,1.2,1.2,0,0,0-1.43-1.1,1.5,1.5,0,0,0-1.61,1.37l-2-.43a3.36,3.36,0,0,1,3.63-2.78c2.68,0,3.68,1.51,3.68,3.21V175a9.51,9.51,0,0,0,.1,1.34H321a5.75,5.75,0,0,1-.09-1,2.83,2.83,0,0,1-2.49,1.25,2.67,2.67,0,0,1-2.9-2.54A2.6,2.6,0,0,1,318.08,171.51Zm2.71,1.44v-0.38l-1.91.29a1.07,1.07,0,0,0-1,1.06,1,1,0,0,0,1.1,1A1.72,1.72,0,0,0,320.79,172.95Z"/><path d="M325.33,176.37V163.93h2.25v4.91a3,3,0,0,1,2.56-1.15c2.47,0,3.9,1.91,3.9,4.42s-1.58,4.47-4,4.47a2.86,2.86,0,0,1-2.51-1.24v1h-2.22Zm4.33-6.63a2.14,2.14,0,0,0-2.11,2.39,2.16,2.16,0,0,0,2.11,2.41A2.42,2.42,0,0,0,329.66,169.74Z"/><path d="M343.43,173.95a3.81,3.81,0,0,1-3.85,2.68,4.49,4.49,0,0,1-.21-9c2.61,0,4.17,1.67,4.17,4.38,0,0.33,0,.67,0,0.7h-6a2.06,2.06,0,0,0,2.13,1.92,1.87,1.87,0,0,0,1.92-1.29Zm-2.13-2.77a1.7,1.7,0,0,0-1.89-1.67,1.83,1.83,0,0,0-1.89,1.67h3.78Z"/><path d="M345.36,176.37V163.93h2.29v12.44h-2.29Z"/><path d="M357.66,173.95a3.81,3.81,0,0,1-3.85,2.68,4.49,4.49,0,0,1-.21-9c2.61,0,4.17,1.67,4.17,4.38,0,0.33,0,.67,0,0.7h-6a2.06,2.06,0,0,0,2.13,1.92,1.87,1.87,0,0,0,1.92-1.29Zm-2.13-2.77a1.7,1.7,0,0,0-1.89-1.67,1.83,1.83,0,0,0-1.89,1.67h3.78Z"/><path d="M367.65,174.84c0,0.57,0,1.19.07,1.53h-2.18a5.85,5.85,0,0,1-.09-1,2.65,2.65,0,0,1-2.37,1.19,4.45,4.45,0,0,1-.07-8.87,2.53,2.53,0,0,1,2.39,1v-4.83h2.25v10.91Zm-4.3-.31a2.15,2.15,0,0,0,2.08-2.42,2.1,2.1,0,0,0-2.08-2.35A2.41,2.41,0,0,0,363.35,174.53Z"/><path d="M316.15,186.89a1.53,1.53,0,0,1-1.5-1.65,2.92,2.92,0,0,1,2.66-3.18v1a1.62,1.62,0,0,0-1.41,1.43,0.7,0.7,0,0,1,.36-0.09,1.11,1.11,0,0,1,1.22,1.19A1.27,1.27,0,0,1,316.15,186.89Zm3.38,0a1.53,1.53,0,0,1-1.5-1.65,2.92,2.92,0,0,1,2.66-3.18v1a1.62,1.62,0,0,0-1.41,1.43,0.7,0.7,0,0,1,.36-0.09,1.11,1.11,0,0,1,1.22,1.19A1.27,1.27,0,0,1,319.53,186.89Z"/><path d="M321.77,182.19h2.78l2.73,4.83,2.73-4.83h2.66l-4.3,7.06v5.12H326v-5.12Z"/><path d="M339.95,191.94a3.81,3.81,0,0,1-3.85,2.68,4.49,4.49,0,0,1-.21-9c2.61,0,4.17,1.67,4.17,4.38,0,0.33,0,.67,0,0.7h-6a2.06,2.06,0,0,0,2.13,1.92,1.87,1.87,0,0,0,1.92-1.29Zm-2.13-2.77a1.7,1.7,0,0,0-1.89-1.67,1.83,1.83,0,0,0-1.89,1.67h3.78Z"/><path d="M343.11,191.58a1.41,1.41,0,0,0,1.55,1.29,0.94,0.94,0,0,0,1.12-.84,0.91,0.91,0,0,0-.91-0.82l-1.12-.26c-1.63-.36-2.37-1.34-2.37-2.53a3,3,0,0,1,3.16-2.77c2.41,0,3.21,1.53,3.32,2.44l-1.91.43a1.29,1.29,0,0,0-1.39-1.13,1,1,0,0,0-1.08.84,0.8,0.8,0,0,0,.77.76l1.2,0.26c1.67,0.34,2.51,1.36,2.51,2.59s-1.07,2.78-3.28,2.78c-2.54,0-3.42-1.65-3.52-2.61Z"/><path d="M350.37,182.07a1.54,1.54,0,0,1,1.5,1.67A3,3,0,0,1,349.2,187v-1a1.66,1.66,0,0,0,1.41-1.46,0.7,0.7,0,0,1-.36.09,1.18,1.18,0,0,1-1.25-1.24A1.3,1.3,0,0,1,350.37,182.07Zm3.37,0a1.54,1.54,0,0,1,1.49,1.67,3,3,0,0,1-2.66,3.25v-1a1.66,1.66,0,0,0,1.41-1.46,0.7,0.7,0,0,1-.36.09,1.18,1.18,0,0,1-1.25-1.24A1.3,1.3,0,0,1,353.73,182.07Z"/><path d="M359.27,190.66a4.42,4.42,0,0,1-.07-0.7,3,3,0,0,1,1.36-2.49l0.82-.62a1.63,1.63,0,0,0,.74-1.36,1.56,1.56,0,0,0-1.72-1.55,2,2,0,0,0-1.68,2.49l-2.17-.09a2.88,2.88,0,0,1-.09-0.77,3.67,3.67,0,0,1,3.93-3.64c2.66,0,4.05,1.68,4.05,3.42a3.61,3.61,0,0,1-1.7,3l-0.7.5a2,2,0,0,0-.93,1.67v0.1h-1.86Zm1,1.12a1.38,1.38,0,0,1,1.37,1.38,1.36,1.36,0,0,1-1.37,1.36,1.35,1.35,0,0,1-1.36-1.36A1.36,1.36,0,0,1,360.23,191.77Z"/><rect class="cls-3" x="534.43" y="112.88" width="95.72" height="95.72" transform="translate(1107.69 -137.33) rotate(135)"/><path class="cls-4" d="M582.29,230.55l-69.81-69.81,69.81-69.81,69.8,69.81Zm-65.56-69.81,65.56,65.56,65.56-65.56L582.29,95.18Z"/><path d="M556.25,139.58H551.3l-1,2.78h-2.51l4.67-12.18h2.75l4.64,12.18h-2.58Zm-4.16-2.17h3.37l-1.68-4.6Z"/><path d="M563.49,142.37H561.2v-8.45h2.22v1a2.81,2.81,0,0,1,2.44-1.27c2.1,0,3.06,1.5,3.06,3.35v5.33h-2.29v-4.93a1.49,1.49,0,0,0-1.56-1.68,1.59,1.59,0,0,0-1.58,1.75v4.86Z"/><path d="M579.3,140.84c0,0.57,0,1.19.07,1.53h-2.18a5.85,5.85,0,0,1-.09-1,2.65,2.65,0,0,1-2.37,1.19,4.45,4.45,0,0,1-.07-8.87,2.53,2.53,0,0,1,2.39,1v-4.83h2.25v10.91Zm-4.29-.31a2.15,2.15,0,0,0,2.08-2.42,2.1,2.1,0,0,0-2.08-2.35A2.41,2.41,0,0,0,575,140.53Z"/><path d="M583.07,139.55a1.76,1.76,0,0,1,1.7,2,3.52,3.52,0,0,1-3,3.75v-1.1a2.11,2.11,0,0,0,1.63-1.86,0.89,0.89,0,0,1-.45.1A1.37,1.37,0,0,1,581.5,141,1.47,1.47,0,0,1,583.07,139.55Z"/><path d="M592.52,139.58a1.41,1.41,0,0,0,1.55,1.29,0.94,0.94,0,0,0,1.12-.84,0.91,0.91,0,0,0-.91-0.82l-1.12-.26c-1.63-.36-2.37-1.34-2.37-2.53a3,3,0,0,1,3.16-2.77c2.41,0,3.21,1.53,3.32,2.44l-1.91.43a1.29,1.29,0,0,0-1.39-1.13,1,1,0,0,0-1.08.84,0.8,0.8,0,0,0,.77.76l1.2,0.26c1.67,0.34,2.51,1.36,2.51,2.59s-1.07,2.78-3.28,2.78c-2.54,0-3.42-1.65-3.52-2.61Z"/><path d="M606.75,139.95a3.81,3.81,0,0,1-3.85,2.68,4.49,4.49,0,0,1-.21-9c2.61,0,4.17,1.67,4.17,4.38,0,0.33,0,.67,0,0.7h-6a2.06,2.06,0,0,0,2.13,1.92,1.87,1.87,0,0,0,1.92-1.29Zm-2.13-2.77a1.7,1.7,0,0,0-1.89-1.67,1.83,1.83,0,0,0-1.89,1.67h3.78Z"/><path d="M616.25,139.95a3.81,3.81,0,0,1-3.85,2.68,4.49,4.49,0,0,1-.21-9c2.61,0,4.17,1.67,4.17,4.38,0,0.33,0,.67,0,0.7h-6a2.06,2.06,0,0,0,2.13,1.92,1.87,1.87,0,0,0,1.92-1.29Zm-2.13-2.77a1.7,1.7,0,0,0-1.89-1.67,1.83,1.83,0,0,0-1.89,1.67h3.78Z"/><path d="M554.78,151.91h1.7v2h-1.7v3.54a0.85,0.85,0,0,0,1,1,3.29,3.29,0,0,0,.7-0.07v1.89a3.39,3.39,0,0,1-1.29.21,2.45,2.45,0,0,1-2.68-2.61v-3.93H551v-2h0.43a1.22,1.22,0,0,0,1.31-1.34v-1.19h2.06v2.53Z"/><path d="M560.3,160.37H558V147.93h2.29v4.69a3,3,0,0,1,2.29-.93c2.15,0,3.14,1.5,3.14,3.35v5.33h-2.29v-4.93a1.49,1.49,0,0,0-1.56-1.68,1.58,1.58,0,0,0-1.58,1.65v5Z"/><path d="M575.63,157.95a3.81,3.81,0,0,1-3.85,2.68,4.49,4.49,0,0,1-.21-9c2.61,0,4.17,1.67,4.17,4.38,0,0.33,0,.67,0,0.7h-6a2.06,2.06,0,0,0,2.13,1.92,1.87,1.87,0,0,0,1.92-1.29Zm-2.13-2.77a1.7,1.7,0,0,0-1.89-1.67,1.83,1.83,0,0,0-1.89,1.67h3.78Z"/><path d="M581.81,160.37V147.93h2.29v12.44h-2.29Z"/><path d="M587.67,147.72a1.41,1.41,0,1,1-1.41,1.43A1.41,1.41,0,0,1,587.67,147.72Zm-1.13,12.65v-8.45h2.29v8.45h-2.29Z"/><path d="M593.54,160.37h-2.29v-8.45h2.22v1a2.81,2.81,0,0,1,2.44-1.27c2.1,0,3.06,1.5,3.06,3.35v5.33h-2.29v-4.93a1.49,1.49,0,0,0-1.56-1.68,1.59,1.59,0,0,0-1.58,1.75v4.86Z"/><path d="M608.87,157.95a3.81,3.81,0,0,1-3.85,2.68,4.49,4.49,0,0,1-.21-9c2.61,0,4.17,1.67,4.17,4.38,0,0.33,0,.67,0,0.7h-6a2.06,2.06,0,0,0,2.13,1.92,1.87,1.87,0,0,0,1.92-1.29Zm-2.13-2.77a1.7,1.7,0,0,0-1.89-1.67,1.83,1.83,0,0,0-1.89,1.67h3.78Z"/><path d="M552,178.37V165.93h2.29v12.44H552Z"/><path d="M558.7,173.51l2.08-.31a0.6,0.6,0,0,0,.64-0.6,1.2,1.2,0,0,0-1.43-1.1,1.5,1.5,0,0,0-1.62,1.37l-2-.43a3.36,3.36,0,0,1,3.63-2.78c2.68,0,3.68,1.51,3.68,3.21V177a9.43,9.43,0,0,0,.1,1.34h-2.1a5.7,5.7,0,0,1-.09-1,2.83,2.83,0,0,1-2.49,1.25,2.67,2.67,0,0,1-2.9-2.54A2.61,2.61,0,0,1,558.7,173.51Zm2.71,1.44v-0.38l-1.91.29a1.07,1.07,0,0,0-1,1.06,1,1,0,0,0,1.1,1A1.72,1.72,0,0,0,561.42,174.95Z"/><path d="M566,178.37V165.93h2.25v4.91a3,3,0,0,1,2.56-1.15c2.47,0,3.9,1.91,3.9,4.42s-1.58,4.47-4,4.47a2.86,2.86,0,0,1-2.51-1.24v1H566Zm4.33-6.63a2.14,2.14,0,0,0-2.11,2.39,2.16,2.16,0,0,0,2.11,2.41A2.42,2.42,0,0,0,570.29,171.74Z"/><path d="M584.05,175.95a3.81,3.81,0,0,1-3.85,2.68,4.49,4.49,0,0,1-.21-9c2.61,0,4.17,1.67,4.17,4.38,0,0.33,0,.67,0,0.7h-6a2.06,2.06,0,0,0,2.13,1.92,1.87,1.87,0,0,0,1.92-1.29Zm-2.13-2.77a1.7,1.7,0,0,0-1.89-1.67,1.83,1.83,0,0,0-1.89,1.67h3.78Z"/><path d="M586,178.37V165.93h2.29v12.44H586Z"/><path d="M598.28,175.95a3.81,3.81,0,0,1-3.85,2.68,4.49,4.49,0,0,1-.21-9c2.61,0,4.17,1.67,4.17,4.38,0,0.33,0,.67,0,0.7h-6a2.06,2.06,0,0,0,2.13,1.92,1.87,1.87,0,0,0,1.92-1.29Zm-2.13-2.77a1.7,1.7,0,0,0-1.89-1.67,1.83,1.83,0,0,0-1.89,1.67h3.78Z"/><path d="M608.27,176.84c0,0.57,0,1.19.07,1.53h-2.18a5.85,5.85,0,0,1-.09-1,2.65,2.65,0,0,1-2.37,1.19,4.45,4.45,0,0,1-.07-8.87,2.53,2.53,0,0,1,2.39,1v-4.83h2.25v10.91Zm-4.3-.31a2.15,2.15,0,0,0,2.08-2.42,2.09,2.09,0,0,0-2.08-2.35A2.41,2.41,0,0,0,604,176.53Z"/><path d="M561.13,188.89a1.53,1.53,0,0,1-1.5-1.65,2.92,2.92,0,0,1,2.66-3.18v1a1.62,1.62,0,0,0-1.41,1.43,0.7,0.7,0,0,1,.36-0.09,1.11,1.11,0,0,1,1.22,1.19A1.27,1.27,0,0,1,561.13,188.89Zm3.38,0a1.53,1.53,0,0,1-1.5-1.65,2.92,2.92,0,0,1,2.66-3.18v1a1.62,1.62,0,0,0-1.41,1.43,0.7,0.7,0,0,1,.36-0.09,1.11,1.11,0,0,1,1.22,1.19A1.27,1.27,0,0,1,564.51,188.89Z"/><path d="M575.73,196.37l-5.53-8.64v8.64h-2.37V184.19h3l5.07,8.06v-8.06h2.37v12.18h-2.49Z"/><path d="M589,192.14a4.43,4.43,0,1,1-4.43-4.48A4.34,4.34,0,0,1,589,192.14Zm-2.29,0a2.16,2.16,0,1,0-2.15,2.41A2.17,2.17,0,0,0,586.74,192.14Z"/><path d="M590.88,184.07a1.54,1.54,0,0,1,1.5,1.67,3,3,0,0,1-2.66,3.25v-1a1.66,1.66,0,0,0,1.41-1.46,0.7,0.7,0,0,1-.36.09,1.18,1.18,0,0,1-1.25-1.24A1.3,1.3,0,0,1,590.88,184.07Zm3.37,0a1.54,1.54,0,0,1,1.49,1.67,3,3,0,0,1-2.66,3.25v-1a1.66,1.66,0,0,0,1.41-1.46,0.7,0.7,0,0,1-.36.09,1.18,1.18,0,0,1-1.25-1.24A1.3,1.3,0,0,1,594.25,184.07Z"/><path d="M599.78,192.66a4.37,4.37,0,0,1-.07-0.7,3,3,0,0,1,1.36-2.49l0.83-.62a1.63,1.63,0,0,0,.74-1.36,1.56,1.56,0,0,0-1.72-1.55,2,2,0,0,0-1.68,2.49l-2.17-.09a2.86,2.86,0,0,1-.09-0.77,3.67,3.67,0,0,1,3.93-3.64c2.66,0,4.05,1.68,4.05,3.42a3.61,3.61,0,0,1-1.7,3l-0.7.5a2,2,0,0,0-.93,1.67v0.1h-1.86Zm1,1.12a1.38,1.38,0,0,1,1.37,1.38,1.36,1.36,0,0,1-1.37,1.36,1.35,1.35,0,0,1-1.36-1.36A1.36,1.36,0,0,1,600.74,193.77Z"/><rect class="cls-4" x="164.68" y="159.24" width="92.56" height="3"/><polygon class="cls-4" points="255.04 153.26 268 160.74 255.04 168.22 255.04 153.26"/><path d="M209.47,180l-5.53-8.64V180h-2.37V167.82h3l5.07,8.06v-8.06H212V180h-2.49Z"/><path d="M222.76,175.78a4.43,4.43,0,1,1-4.43-4.48A4.34,4.34,0,0,1,222.76,175.78Zm-2.29,0a2.16,2.16,0,1,0-2.15,2.41A2.17,2.17,0,0,0,220.47,175.78Z"/><path d="M104.95,265.48h2.78l2.73,4.83,2.73-4.83h2.66l-4.3,7.06v5.12h-2.37v-5.12Z"/><path d="M123.13,275.24a3.81,3.81,0,0,1-3.85,2.68,4.49,4.49,0,0,1-.21-9c2.61,0,4.17,1.67,4.17,4.38,0,0.33,0,.67,0,0.71h-6A2.06,2.06,0,0,0,119.3,276a1.87,1.87,0,0,0,1.92-1.29ZM121,272.47a1.7,1.7,0,0,0-1.89-1.67,1.83,1.83,0,0,0-1.89,1.67H121Z"/><path d="M126.3,274.88a1.41,1.41,0,0,0,1.55,1.29,0.94,0.94,0,0,0,1.12-.84,0.91,0.91,0,0,0-.91-0.82l-1.12-.26c-1.63-.36-2.37-1.34-2.37-2.53a3,3,0,0,1,3.16-2.77c2.41,0,3.21,1.53,3.32,2.44l-1.91.43a1.29,1.29,0,0,0-1.39-1.13,1,1,0,0,0-1.08.84,0.8,0.8,0,0,0,.77.76l1.2,0.26c1.67,0.34,2.51,1.36,2.51,2.59s-1.07,2.78-3.28,2.78c-2.54,0-3.42-1.65-3.52-2.61Z"/><rect class="cls-4" x="337.72" y="228.43" width="3" height="87.7"/><polygon class="cls-4" points="331.74 313.94 339.22 326.89 346.7 313.94 331.74 313.94"/><rect class="cls-4" x="407.1" y="159.24" width="92.56" height="3"/><polygon class="cls-4" points="497.47 153.26 510.42 160.74 497.47 168.22 497.47 153.26"/><path d="M437.44,167.82h2.78l2.73,4.83,2.73-4.83h2.66l-4.3,7.06V180h-2.37v-5.12Z"/><path d="M455.62,177.58a3.81,3.81,0,0,1-3.85,2.68,4.49,4.49,0,0,1-.21-9c2.61,0,4.17,1.67,4.17,4.38,0,0.33,0,.67,0,0.7h-6a2.06,2.06,0,0,0,2.13,1.92,1.87,1.87,0,0,0,1.92-1.29Zm-2.13-2.77a1.7,1.7,0,0,0-1.89-1.67,1.83,1.83,0,0,0-1.89,1.67h3.78Z"/><path d="M458.79,177.22a1.41,1.41,0,0,0,1.55,1.29,0.94,0.94,0,0,0,1.12-.84,0.91,0.91,0,0,0-.91-0.82l-1.12-.26c-1.63-.36-2.37-1.34-2.37-2.53a3,3,0,0,1,3.16-2.77c2.41,0,3.21,1.53,3.32,2.44l-1.91.43a1.29,1.29,0,0,0-1.39-1.13,1,1,0,0,0-1.08.84,0.8,0.8,0,0,0,.77.76l1.2,0.26c1.67,0.34,2.51,1.36,2.51,2.59s-1.07,2.78-3.28,2.78c-2.54,0-3.42-1.65-3.52-2.61Z"/><path d="M358.4,277.66L352.87,269v8.64H350.5V265.48h3l5.07,8.06v-8.06h2.37v12.18H358.4Z"/><path d="M371.69,273.43a4.43,4.43,0,1,1-4.43-4.48A4.34,4.34,0,0,1,371.69,273.43Zm-2.29,0a2.16,2.16,0,1,0-2.15,2.41A2.17,2.17,0,0,0,369.4,273.43Z"/><rect class="cls-4" x="580.14" y="228.43" width="3" height="87.7"/><polygon class="cls-4" points="574.16 313.94 581.64 326.89 589.12 313.94 574.16 313.94"/><rect class="cls-4" x="649.52" y="159.24" width="92.56" height="3"/><polygon class="cls-4" points="739.89 153.26 752.84 160.74 739.89 168.22 739.89 153.26"/><path d="M677,167.82h2.78l2.73,4.83,2.73-4.83h2.66l-4.29,7.06V180H681.2v-5.12Z"/><path d="M695.13,177.58a3.81,3.81,0,0,1-3.85,2.68,4.49,4.49,0,0,1-.21-9c2.61,0,4.17,1.67,4.17,4.38,0,0.33,0,.67,0,0.7h-6a2.06,2.06,0,0,0,2.13,1.92,1.87,1.87,0,0,0,1.92-1.29ZM693,174.82a1.7,1.7,0,0,0-1.89-1.67,1.83,1.83,0,0,0-1.89,1.67H693Z"/><path d="M698.3,177.22a1.41,1.41,0,0,0,1.55,1.29,0.94,0.94,0,0,0,1.12-.84,0.91,0.91,0,0,0-.91-0.82l-1.12-.26c-1.63-.36-2.37-1.34-2.37-2.53a3,3,0,0,1,3.16-2.77c2.41,0,3.21,1.53,3.32,2.44l-1.91.43a1.29,1.29,0,0,0-1.39-1.13,1,1,0,0,0-1.08.84,0.8,0.8,0,0,0,.77.76l1.2,0.26c1.67,0.34,2.51,1.36,2.51,2.59s-1.07,2.78-3.28,2.78c-2.54,0-3.42-1.65-3.52-2.61Z"/><path d="M600.83,277.66L595.3,269v8.64h-2.37V265.48h3l5.07,8.06v-8.06h2.37v12.18h-2.49Z"/><path d="M614.11,273.43a4.43,4.43,0,1,1-4.43-4.48A4.34,4.34,0,0,1,614.11,273.43Zm-2.29,0a2.16,2.16,0,1,0-2.15,2.41A2.17,2.17,0,0,0,611.83,273.43Z"/></svg>