<svg id="Layer_1" data-name="Layer 1" xmlns="http://www.w3.org/2000/svg" viewBox="0 0 153.54 185.76"><defs><style>.cls-1{fill:#1ecac7;}</style></defs><title>Slide-32-And-Or-Not</title><path d="M100.27,17.1l4.94-.72A1.33,1.33,0,0,0,106.62,15c0-1.79-1.18-3.27-4-3.27a3.88,3.88,0,0,0-4.14,3.69l-3.42-.8c0.38-3.5,3.53-5.93,7.49-5.93,5.47,0,7.6,3.12,7.6,6.69v9.16a17.29,17.29,0,0,0,.23,3h-3.5a13.34,13.34,0,0,1-.19-2.47,6.66,6.66,0,0,1-5.89,3c-3.72,0-6.12-2.58-6.12-5.47C94.72,19.38,97.12,17.55,100.27,17.1Zm6.35,2.62V18.88l-5.58.84a2.73,2.73,0,0,0-2.66,2.74,2.77,2.77,0,0,0,3,2.66C104.26,25.11,106.62,23.71,106.62,19.72Z"/><path d="M119.31,27.55h-3.57V9.27h3.5v2.62a6.26,6.26,0,0,1,5.62-3.15c4.37,0,6.54,3.15,6.54,7.22V27.55h-3.57v-11c0-2.55-1.06-4.6-4.25-4.6-2.81,0-4.26,2.24-4.26,5V27.55Z"/><path d="M149.9,24.77A6.12,6.12,0,0,1,144.24,28c-5.36,0-8.66-4.26-8.66-9.69,0-5.17,3.5-9.57,8.66-9.57,3.23,0,5,1.6,5.58,3.08V0h3.53V24.16a28.94,28.94,0,0,0,.19,3.38h-3.46a15.27,15.27,0,0,1-.19-2.47v-0.3Zm-5.32.11c3.27,0,5.28-2.85,5.28-6.61s-2-6.35-5.24-6.35-5.39,2.66-5.39,6.42S141.16,24.89,144.58,24.89Z"/><path class="cls-1" d="M15.39,24.62A10,10,0,0,1,8.17,28C2.89,28,0,24.43,0,20.82c0-3.34,1.79-5.28,4.6-7.37l0.19-.11-0.42-.46c-1.29-1.37-3-3.42-3-5.85,0-4.52,3.8-7,7.45-7,4.29,0,7.48,2.77,7.48,6.8,0,2.74-1.86,4.71-3.8,6.16l-1,.76L15.58,18l6.8-7.1v6.31l-3.76,4,6.08,6.38H18.16Zm-3-3.23-4.6-4.86-0.57.42A4.31,4.31,0,0,0,5,20.52a3.15,3.15,0,0,0,3.23,3.12C9.88,23.63,11.06,22.76,12.35,21.39ZM7.79,9.8l0.72,0.8,1.33-1a3.46,3.46,0,0,0,1.71-2.85A2.6,2.6,0,0,0,8.81,4.18a2.57,2.57,0,0,0-2.62,2.7A4.67,4.67,0,0,0,7.79,9.8Z"/><path class="cls-1" d="M42.63,24.62A10,10,0,0,1,35.41,28c-5.28,0-8.17-3.61-8.17-7.22,0-3.34,1.79-5.28,4.6-7.37L32,13.34l-0.42-.46c-1.29-1.37-3-3.42-3-5.85,0-4.52,3.8-7,7.45-7,4.29,0,7.48,2.77,7.48,6.8,0,2.74-1.86,4.71-3.8,6.16l-1,.76L42.82,18l6.8-7.1v6.31l-3.76,4,6.08,6.38H45.41Zm-3-3.23L35,16.53l-0.57.42a4.31,4.31,0,0,0-2.17,3.57,3.15,3.15,0,0,0,3.23,3.12C37.12,23.63,38.3,22.76,39.59,21.39ZM35,9.8l0.72,0.8,1.33-1A3.46,3.46,0,0,0,38.8,6.76a2.6,2.6,0,0,0-2.74-2.58,2.57,2.57,0,0,0-2.62,2.7A4.67,4.67,0,0,0,35,9.8Z"/><path d="M113,94c0,5.59-3.88,9.73-9.35,9.73S94.34,99.62,94.34,94s3.88-9.69,9.35-9.69S113,88.49,113,94Zm-3.65,0c0-4.22-2.66-6.5-5.7-6.5S98,89.82,98,94s2.66,6.54,5.7,6.54S109.39,98.29,109.39,94Z"/><path d="M127.74,88.52a11.2,11.2,0,0,0-1.56-.11c-3,0-5,1.6-5,5.62v9.16H117.6V84.91h3.5v3.19a5.72,5.72,0,0,1,5.47-3.5,6.73,6.73,0,0,1,1.18.11v3.8Z"/><path class="cls-1" d="M16.64,109.19V72.41h4.22v36.78H16.64Z"/><path class="cls-1" d="M27,109.19V72.41h4.22v36.78H27Z"/><path d="M99.43,185.19H95.86V166.91h3.5v2.62a6.26,6.26,0,0,1,5.62-3.15c4.37,0,6.54,3.15,6.54,7.22v11.59h-3.57v-11c0-2.54-1.06-4.6-4.25-4.6-2.81,0-4.26,2.24-4.26,5v10.56Z"/><path d="M134.39,176c0,5.58-3.87,9.73-9.35,9.73s-9.35-4.14-9.35-9.73,3.88-9.69,9.35-9.69S134.39,170.49,134.39,176Zm-3.65,0c0-4.22-2.66-6.5-5.7-6.5s-5.7,2.28-5.7,6.5,2.66,6.54,5.7,6.54S130.74,180.29,130.74,176Z"/><path d="M143.55,166.91h4v3.23h-4v9.5c0,1.67.68,2.51,2.55,2.51a7.22,7.22,0,0,0,1.41-.15v3a7.84,7.84,0,0,1-2.43.34c-3.12,0-5.09-1.9-5.09-5.21v-10h-3.5v-3.23h1a2.56,2.56,0,0,0,2.81-2.81v-3h3.27v5.77Z"/><path class="cls-1" d="M25.76,177H22.08l-1.22-18.73H27Zm-1.86,2.47a3,3,0,0,1,3,3,3,3,0,0,1-3,3,3,3,0,0,1-3-3A3,3,0,0,1,23.9,179.45Z"/></svg>