<svg id="Layer_1" data-name="Layer 1" xmlns="http://www.w3.org/2000/svg" viewBox="0 0 762.25 490.74"><defs><style>.cls-1{fill:#fff;}.cls-2{fill:#ececec;}.cls-3{fill:#221f1f;}.cls-4{fill:#231f20;}.cls-5{fill:#e51b24;}</style></defs><title>Slide-7-Form-Mars</title><rect class="cls-1" x="1.5" y="45.91" width="759.25" height="443.32"/><path d="M762.25,490.74H0V44.41H762.25V490.74ZM3,487.74H759.25V47.41H3V487.74Z"/><path class="cls-2" d="M6.11,1.5h750a4.61,4.61,0,0,1,4.61,4.61v39.8a0,0,0,0,1,0,0H1.5a0,0,0,0,1,0,0V6.11A4.61,4.61,0,0,1,6.11,1.5Z"/><path class="cls-3" d="M762.25,47.41H0V6.11A6.12,6.12,0,0,1,6.11,0h750a6.12,6.12,0,0,1,6.11,6.11v41.3ZM3,44.41H759.25V6.11A3.12,3.12,0,0,0,756.14,3H6.11A3.12,3.12,0,0,0,3,6.11v38.3Z"/><circle cx="24.97" cy="23.97" r="5.2"/><circle cx="46.87" cy="23.97" r="5.2"/><circle cx="68.76" cy="23.97" r="5.2"/><path class="cls-4" d="M575.81,266.1H188.48V206.33H575.81V266.1Zm-384.32-3H572.81V209.33H191.48V263.1Z"/><path d="M91,159.53v8.79H86.49V145h8.72c4.61,0,7.67,3.06,7.67,7.27s-3.06,7.27-7.67,7.27H91Zm3.62-3.92c2.27,0,3.65-1.32,3.65-3.32s-1.38-3.36-3.65-3.36H91.06v6.68h3.59Z"/><path d="M105.87,168.32V144.49h4.38v23.83h-4.38Z"/><path d="M129.44,163.67a7.29,7.29,0,0,1-7.37,5.13c-4.44,0-8.36-3.19-8.36-8.66,0-5.17,3.82-8.52,8-8.52,5,0,8,3.19,8,8.39,0,0.63-.07,1.28-0.07,1.35H118a3.94,3.94,0,0,0,4.08,3.69,3.58,3.58,0,0,0,3.69-2.47Zm-4.08-5.3a3.26,3.26,0,0,0-3.62-3.19,3.5,3.5,0,0,0-3.62,3.19h7.24Z"/><path d="M137,159l4-.59a1.15,1.15,0,0,0,1.22-1.15c0-1.15-.89-2.11-2.73-2.11a2.87,2.87,0,0,0-3.09,2.63l-3.88-.82c0.26-2.53,2.6-5.33,6.94-5.33,5.13,0,7,2.9,7,6.15v8a18.15,18.15,0,0,0,.2,2.57h-4a11,11,0,0,1-.16-1.94,5.41,5.41,0,0,1-4.77,2.4c-3.46,0-5.56-2.34-5.56-4.87C132.14,161,134.28,159.4,137,159Zm5.2,2.76V161l-3.65.56a2,2,0,0,0-2,2,1.9,1.9,0,0,0,2.11,1.88C140.47,165.52,142.18,164.63,142.18,161.77Z"/><path d="M153.24,163a2.69,2.69,0,0,0,3,2.47c1.45,0,2.14-.76,2.14-1.61s-0.49-1.32-1.74-1.58l-2.14-.49c-3.13-.69-4.54-2.57-4.54-4.84,0-2.9,2.57-5.3,6.06-5.3,4.61,0,6.15,2.93,6.35,4.67l-3.65.82A2.47,2.47,0,0,0,156,155a1.86,1.86,0,0,0-2.07,1.61,1.53,1.53,0,0,0,1.48,1.45l2.3,0.49c3.19,0.66,4.81,2.6,4.81,5,0,2.63-2,5.33-6.29,5.33-4.87,0-6.55-3.16-6.75-5Z"/><path d="M180.49,163.67a7.29,7.29,0,0,1-7.37,5.13c-4.44,0-8.36-3.19-8.36-8.66,0-5.17,3.82-8.52,8-8.52,5,0,8,3.19,8,8.39,0,0.63-.07,1.28-0.07,1.35H169.07a3.94,3.94,0,0,0,4.08,3.69,3.58,3.58,0,0,0,3.69-2.47Zm-4.08-5.3a3.26,3.26,0,0,0-3.62-3.19,3.5,3.5,0,0,0-3.62,3.19h7.24Z"/><path d="M194.68,163a2.69,2.69,0,0,0,3,2.47c1.45,0,2.14-.76,2.14-1.61s-0.49-1.32-1.74-1.58l-2.14-.49c-3.13-.69-4.54-2.57-4.54-4.84,0-2.9,2.57-5.3,6.06-5.3,4.61,0,6.15,2.93,6.35,4.67l-3.65.82a2.47,2.47,0,0,0-2.67-2.17,1.86,1.86,0,0,0-2.07,1.61,1.53,1.53,0,0,0,1.48,1.45l2.3,0.49c3.19,0.66,4.81,2.6,4.81,5,0,2.63-2,5.33-6.29,5.33-4.87,0-6.55-3.16-6.75-5Z"/><path d="M221.93,163.67a7.29,7.29,0,0,1-7.37,5.13c-4.44,0-8.36-3.19-8.36-8.66,0-5.17,3.82-8.52,8-8.52,5,0,8,3.19,8,8.39,0,0.63-.07,1.28-0.07,1.35H210.51a3.94,3.94,0,0,0,4.08,3.69,3.58,3.58,0,0,0,3.69-2.47Zm-4.08-5.3a3.26,3.26,0,0,0-3.62-3.19,3.5,3.5,0,0,0-3.62,3.19h7.24Z"/><path d="M225.62,168.32V144.49H230v23.83h-4.38Z"/><path d="M249.19,163.67a7.29,7.29,0,0,1-7.37,5.13c-4.44,0-8.36-3.19-8.36-8.66,0-5.17,3.82-8.52,8-8.52,5,0,8,3.19,8,8.39,0,0.63-.07,1.28-0.07,1.35H237.77a3.94,3.94,0,0,0,4.08,3.69,3.58,3.58,0,0,0,3.69-2.47Zm-4.08-5.3a3.26,3.26,0,0,0-3.62-3.19,3.5,3.5,0,0,0-3.62,3.19h7.24Z"/><path d="M256,160.22c0,2.93,1.91,4.58,4.15,4.58a3.71,3.71,0,0,0,3.72-2.73l3.85,1.28a7.52,7.52,0,0,1-7.57,5.46,8.38,8.38,0,0,1-8.52-8.59,8.29,8.29,0,0,1,8.39-8.59c4.41,0,6.91,2.73,7.6,5.46l-3.92,1.32a3.53,3.53,0,0,0-3.59-2.73C257.91,155.68,256,157.29,256,160.22Z"/><path d="M276.38,152.12h3.26V156h-3.26v6.78a1.62,1.62,0,0,0,1.91,1.88,6.34,6.34,0,0,0,1.35-.13v3.62a6.49,6.49,0,0,1-2.47.4c-3.16,0-5.13-1.88-5.13-5V156H269.1v-3.88h0.82a2.33,2.33,0,0,0,2.5-2.57v-2.27h3.95v4.84Z"/><path d="M292.34,174.7l3.82-8.43-6.88-14.15h4.9l4.31,9.48,4-9.48h4.67L297,174.7h-4.64Z"/><path d="M324.83,160.22a8.49,8.49,0,1,1-8.49-8.59A8.31,8.31,0,0,1,324.83,160.22Zm-4.38,0c0-3.06-2-4.61-4.11-4.61s-4.11,1.55-4.11,4.61,2,4.61,4.11,4.61S320.45,163.28,320.45,160.22Z"/><path d="M338.69,166.57a5.12,5.12,0,0,1-4.48,2.17c-3.92,0-6.15-2.86-6.15-6.39V152.12h4.38v9.35c0,1.81.92,3.26,3,3.26a2.92,2.92,0,0,0,3.06-3.19v-9.41h4.38v13.26a26.61,26.61,0,0,0,.16,2.93h-4.18A11.07,11.07,0,0,1,338.69,166.57Z"/><path d="M357.38,156.47a6.6,6.6,0,0,0-1.32-.13c-2.24,0-4.18,1.09-4.18,4.58v7.41h-4.38V152.12h4.25v2.4a4.82,4.82,0,0,1,4.61-2.53,10,10,0,0,1,1,.07v4.41Z"/><path d="M371.67,160.22c0,2.93,1.91,4.58,4.15,4.58a3.71,3.71,0,0,0,3.72-2.73l3.85,1.28a7.52,7.52,0,0,1-7.57,5.46,8.38,8.38,0,0,1-8.52-8.59,8.29,8.29,0,0,1,8.39-8.59c4.41,0,6.91,2.73,7.6,5.46l-3.92,1.32a3.53,3.53,0,0,0-3.59-2.73C373.55,155.68,371.67,157.29,371.67,160.22Z"/><path d="M402.21,160.22a8.49,8.49,0,1,1-8.49-8.59A8.31,8.31,0,0,1,402.21,160.22Zm-4.38,0c0-3.06-2-4.61-4.11-4.61s-4.11,1.55-4.11,4.61,2,4.61,4.11,4.61S397.84,163.28,397.84,160.22Z"/><path d="M416.07,166.57a5.12,5.12,0,0,1-4.48,2.17c-3.92,0-6.16-2.86-6.16-6.39V152.12h4.38v9.35c0,1.81.92,3.26,3,3.26a2.92,2.92,0,0,0,3.06-3.19v-9.41h4.38v13.26a26.46,26.46,0,0,0,.17,2.93H416.2A11.15,11.15,0,0,1,416.07,166.57Z"/><path d="M429.27,168.32h-4.38V152.12h4.25v2a5.38,5.38,0,0,1,4.67-2.44c4,0,5.86,2.86,5.86,6.42v10.2h-4.38v-9.45c0-1.81-.89-3.23-3-3.23a3,3,0,0,0-3,3.36v9.31Z"/><path d="M449.51,152.12h3.26V156h-3.26v6.78a1.62,1.62,0,0,0,1.91,1.88,6.35,6.35,0,0,0,1.35-.13v3.62a6.49,6.49,0,0,1-2.47.4c-3.16,0-5.13-1.88-5.13-5V156h-2.93v-3.88h0.82a2.33,2.33,0,0,0,2.5-2.57v-2.27h3.95v4.84Z"/><path d="M466.14,156.47a6.61,6.61,0,0,0-1.32-.13c-2.24,0-4.18,1.09-4.18,4.58v7.41h-4.38V152.12h4.25v2.4a4.82,4.82,0,0,1,4.61-2.53,10,10,0,0,1,1,.07v4.41Z"/><path d="M470.88,174.7l3.82-8.43-6.88-14.15h4.9L477,161.6l4-9.48h4.67L475.52,174.7h-4.64Z"/><path d="M512.25,160.22a8.49,8.49,0,1,1-8.49-8.59A8.31,8.31,0,0,1,512.25,160.22Zm-4.38,0c0-3.06-2-4.61-4.11-4.61s-4.11,1.55-4.11,4.61,2,4.61,4.11,4.61S507.87,163.28,507.87,160.22Z"/><path d="M520.94,150.34v1.78h3.65v3.75h-3.65v12.44h-4.41V155.87h-2.7v-3.75h2.7v-1.84c0-3.65,2.3-6,5.89-6a6.37,6.37,0,0,1,2.17.33v3.69a4.89,4.89,0,0,0-1.38-.16A2.06,2.06,0,0,0,520.94,150.34Z"/><path d="M545.43,156.47a6.61,6.61,0,0,0-1.32-.13c-2.24,0-4.18,1.09-4.18,4.58v7.41h-4.38V152.12h4.25v2.4a4.82,4.82,0,0,1,4.61-2.53,10,10,0,0,1,1,.07v4.41Z"/><path d="M562.87,163.67a7.29,7.29,0,0,1-7.37,5.13c-4.44,0-8.36-3.19-8.36-8.66,0-5.17,3.82-8.52,8-8.52,5,0,8,3.19,8,8.39,0,0.63-.07,1.28-0.07,1.35H551.45a3.94,3.94,0,0,0,4.08,3.69,3.58,3.58,0,0,0,3.69-2.47Zm-4.08-5.3a3.26,3.26,0,0,0-3.62-3.19,3.5,3.5,0,0,0-3.62,3.19h7.24Z"/><path d="M568.93,163a2.69,2.69,0,0,0,3,2.47c1.45,0,2.14-.76,2.14-1.61s-0.49-1.32-1.75-1.58l-2.14-.49c-3.13-.69-4.54-2.57-4.54-4.84,0-2.9,2.57-5.3,6.06-5.3,4.61,0,6.15,2.93,6.35,4.67l-3.65.82A2.47,2.47,0,0,0,571.7,155a1.86,1.86,0,0,0-2.07,1.61A1.53,1.53,0,0,0,571.1,158l2.3,0.49c3.19,0.66,4.81,2.6,4.81,5,0,2.63-2,5.33-6.29,5.33-4.87,0-6.55-3.16-6.75-5Z"/><path d="M583.91,144.09a2.7,2.7,0,1,1-2.7,2.73A2.7,2.7,0,0,1,583.91,144.09Zm-2.17,24.22V152.12h4.38v16.19h-4.38Z"/><path d="M606.22,165.39c0,1.09.07,2.27,0.13,2.93h-4.18a11.24,11.24,0,0,1-.16-1.88,5.08,5.08,0,0,1-4.54,2.27c-4.61,0-7.9-3.62-7.9-8.52,0-4.74,3.19-8.46,7.77-8.46,2.8,0,4.11,1.15,4.58,2v-9.25h4.31v20.9Zm-8.23-.59c2.24,0,4-1.71,4-4.64s-1.74-4.51-4-4.51-4,1.65-4,4.54S595.69,164.79,598,164.79Z"/><path d="M625.48,163.67a7.29,7.29,0,0,1-7.37,5.13c-4.44,0-8.36-3.19-8.36-8.66,0-5.17,3.82-8.52,8-8.52,5,0,8,3.19,8,8.39,0,0.63-.07,1.28-0.07,1.35H614.06a3.94,3.94,0,0,0,4.08,3.69,3.58,3.58,0,0,0,3.69-2.47Zm-4.08-5.3a3.26,3.26,0,0,0-3.62-3.19,3.5,3.5,0,0,0-3.62,3.19h7.24Z"/><path d="M633.54,168.32h-4.38V152.12h4.25v2a5.38,5.38,0,0,1,4.67-2.44c4,0,5.86,2.86,5.86,6.42v10.2h-4.38v-9.45c0-1.81-.89-3.23-3-3.23a3,3,0,0,0-3,3.36v9.31Z"/><path d="M651.55,160.22c0,2.93,1.91,4.58,4.15,4.58a3.71,3.71,0,0,0,3.72-2.73l3.85,1.28a7.52,7.52,0,0,1-7.57,5.46,8.38,8.38,0,0,1-8.52-8.59,8.29,8.29,0,0,1,8.39-8.59c4.41,0,6.91,2.73,7.6,5.46l-3.92,1.32a3.53,3.53,0,0,0-3.59-2.73C653.42,155.68,651.55,157.29,651.55,160.22Z"/><path d="M680.84,163.67a7.29,7.29,0,0,1-7.37,5.13c-4.44,0-8.36-3.19-8.36-8.66,0-5.17,3.82-8.52,8-8.52,5,0,8,3.19,8,8.39,0,0.63-.07,1.28-0.07,1.35H669.42a3.94,3.94,0,0,0,4.08,3.69,3.58,3.58,0,0,0,3.69-2.47Zm-4.08-5.3a3.26,3.26,0,0,0-3.62-3.19,3.5,3.5,0,0,0-3.62,3.19h7.24Z"/><rect class="cls-2" x="272.98" y="347.15" width="218.06" height="65.01" rx="10" ry="10"/><path d="M481,413.65H283a11.51,11.51,0,0,1-11.5-11.5v-45a11.51,11.51,0,0,1,11.5-11.5H481a11.51,11.51,0,0,1,11.5,11.5v45A11.51,11.51,0,0,1,481,413.65ZM283,348.65a8.51,8.51,0,0,0-8.5,8.5v45a8.51,8.51,0,0,0,8.5,8.5H481a8.51,8.51,0,0,0,8.5-8.5v-45a8.51,8.51,0,0,0-8.5-8.5H283Z"/><path d="M342.6,374.52a4,4,0,0,0-4.25-3.29c-2.21,0-3.65,1.42-3.65,3,0,1.28.82,2.3,2.53,2.63l3.26,0.63c4.25,0.82,6.52,3.59,6.52,6.88,0,3.59-3,7.21-8.43,7.21-6.19,0-8.92-4-9.28-7.31l4.21-1.12c0.2,2.3,1.81,4.38,5.1,4.38,2.44,0,3.79-1.22,3.79-2.86,0-1.35-1-2.4-2.83-2.76l-3.26-.66c-3.72-.76-6.12-3.16-6.12-6.68,0-4.15,3.72-7.31,8.13-7.31,5.66,0,7.83,3.42,8.36,6.06Z"/><path d="M360.58,389.29a5.12,5.12,0,0,1-4.48,2.17c-3.92,0-6.15-2.86-6.15-6.38V374.85h4.38v9.35c0,1.81.92,3.26,3,3.26a2.92,2.92,0,0,0,3.06-3.19v-9.41h4.38v13.26a26.62,26.62,0,0,0,.16,2.93h-4.18A11.07,11.07,0,0,1,360.58,389.29Z"/><path d="M369.4,391V367.21h4.31v9.41a5.76,5.76,0,0,1,4.9-2.21c4.74,0,7.47,3.65,7.47,8.46s-3,8.56-7.64,8.56a5.48,5.48,0,0,1-4.8-2.37v2H369.4Zm8.29-12.7c-2.21,0-4,1.61-4,4.57s1.84,4.61,4,4.61,4-1.65,4-4.61S379.93,378.33,377.69,378.33Z"/><path d="M389.54,391V374.85h4.18v2a5.56,5.56,0,0,1,4.74-2.44,5,5,0,0,1,4.81,2.7,5.63,5.63,0,0,1,5.13-2.7c3,0,5.86,1.81,5.86,6.16V391H410v-9.61c0-1.75-.86-3.06-2.86-3.06a3,3,0,0,0-3,3.19V391h-4.34v-9.61c0-1.75-.89-3.06-2.86-3.06a3,3,0,0,0-3,3.19V391h-4.38Z"/><path d="M420.88,366.81a2.7,2.7,0,1,1-2.7,2.73A2.7,2.7,0,0,1,420.88,366.81ZM418.71,391V374.85h4.38V391h-4.38Z"/><path d="M433.16,374.85h3.26v3.88h-3.26v6.78a1.62,1.62,0,0,0,1.91,1.88,6.32,6.32,0,0,0,1.35-.13v3.62a6.48,6.48,0,0,1-2.47.4c-3.16,0-5.13-1.88-5.13-5v-7.54h-2.93v-3.88h0.82a2.33,2.33,0,0,0,2.5-2.57V370h3.95v4.84Z"/><path class="cls-4" d="M366.71,249.21V232.85L360,249.21h-3.79L349.49,233v16.23h-4.34V225.87h6l7,16.85L365,225.87h6.19v23.34h-4.48Z"/><path class="cls-4" d="M380,239.89l4-.59a1.15,1.15,0,0,0,1.22-1.15c0-1.15-.89-2.11-2.73-2.11a2.87,2.87,0,0,0-3.09,2.63l-3.88-.82c0.26-2.53,2.6-5.33,6.94-5.33,5.13,0,7,2.9,7,6.15v8a18.16,18.16,0,0,0,.2,2.57h-4a11,11,0,0,1-.16-1.94,5.41,5.41,0,0,1-4.77,2.4c-3.46,0-5.56-2.34-5.56-4.87C375.14,241.9,377.28,240.29,380,239.89Zm5.2,2.76v-0.72l-3.65.56a2,2,0,0,0-2,2,1.9,1.9,0,0,0,2.11,1.88C383.46,246.41,385.17,245.52,385.17,242.66Z"/><path class="cls-4" d="M403.74,237.36a6.61,6.61,0,0,0-1.32-.13c-2.24,0-4.18,1.09-4.18,4.58v7.41h-4.38V233h4.25v2.4a4.82,4.82,0,0,1,4.61-2.53,10,10,0,0,1,1,.07v4.41Z"/><path class="cls-4" d="M409.3,243.87a2.69,2.69,0,0,0,3,2.47c1.45,0,2.14-.76,2.14-1.61s-0.49-1.32-1.75-1.58l-2.14-.49c-3.13-.69-4.54-2.57-4.54-4.84,0-2.9,2.57-5.3,6.06-5.3,4.61,0,6.15,2.93,6.35,4.67l-3.65.82a2.47,2.47,0,0,0-2.67-2.17,1.86,1.86,0,0,0-2.07,1.61,1.53,1.53,0,0,0,1.48,1.45l2.3,0.49c3.19,0.66,4.81,2.6,4.81,5,0,2.63-2,5.33-6.29,5.33-4.87,0-6.55-3.16-6.75-5Z"/><path class="cls-5" d="M272.91,293.58V278.69h9.32v2.73h-6.42v3.4h5.82v2.58h-5.82v3.44h6.42v2.73h-9.32Z"/><path class="cls-5" d="M291.1,286a4.24,4.24,0,0,0-.84-0.08c-1.43,0-2.67.69-2.67,2.92v4.72H284.8V283.25h2.71v1.53a3.07,3.07,0,0,1,2.94-1.62,6.5,6.5,0,0,1,.65,0V286Z"/><path class="cls-5" d="M299.37,286a4.24,4.24,0,0,0-.84-0.08c-1.43,0-2.67.69-2.67,2.92v4.72h-2.79V283.25h2.71v1.53a3.07,3.07,0,0,1,2.94-1.62,6.5,6.5,0,0,1,.65,0V286Z"/><path class="cls-5" d="M311.3,288.41a5.42,5.42,0,1,1-5.42-5.48A5.3,5.3,0,0,1,311.3,288.41Zm-2.79,0a2.64,2.64,0,1,0-2.62,2.94A2.65,2.65,0,0,0,308.51,288.41Z"/><path class="cls-5" d="M319.81,286a4.24,4.24,0,0,0-.84-0.08c-1.43,0-2.67.69-2.67,2.92v4.72h-2.79V283.25h2.71v1.53a3.07,3.07,0,0,1,2.94-1.62,6.5,6.5,0,0,1,.65,0V286Z"/><path class="cls-5" d="M321.84,289.9a1.91,1.91,0,1,1-1.91,1.91A1.92,1.92,0,0,1,321.84,289.9Z"/><path class="cls-5" d="M334.9,288v5.61H332V278.69h5.56a4.65,4.65,0,1,1,0,9.28H334.9Zm2.31-2.5a2.14,2.14,0,1,0,0-4.26h-2.29v4.26h2.29Z"/><path class="cls-5" d="M344.38,293.58v-15.2h2.79v15.2h-2.79Z"/><path class="cls-5" d="M359.41,290.62a4.65,4.65,0,0,1-4.7,3.28,5.49,5.49,0,0,1-.25-11c3.19,0,5.1,2,5.1,5.35,0,0.4,0,.82,0,0.86h-7.39a2.52,2.52,0,0,0,2.6,2.35,2.28,2.28,0,0,0,2.35-1.58Zm-2.6-3.38a2.08,2.08,0,0,0-2.31-2,2.24,2.24,0,0,0-2.31,2h4.62Z"/><path class="cls-5" d="M364.22,287.64l2.54-.38a0.73,0.73,0,0,0,.78-0.74c0-.73-0.57-1.34-1.74-1.34a1.83,1.83,0,0,0-2,1.68l-2.48-.52c0.17-1.62,1.66-3.4,4.43-3.4,3.28,0,4.49,1.85,4.49,3.93v5.08a11.49,11.49,0,0,0,.13,1.64h-2.56a7,7,0,0,1-.11-1.24,3.45,3.45,0,0,1-3,1.53,3.26,3.26,0,0,1-3.55-3.11C361.13,288.92,362.5,287.89,364.22,287.64Zm3.32,1.76v-0.46l-2.33.36a1.3,1.3,0,0,0-1.28,1.3,1.21,1.21,0,0,0,1.34,1.2A2.1,2.1,0,0,0,367.54,289.4Z"/><path class="cls-5" d="M374.59,290.18a1.72,1.72,0,0,0,1.89,1.58,1.15,1.15,0,0,0,1.36-1,1.11,1.11,0,0,0-1.11-1l-1.37-.31c-2-.44-2.9-1.64-2.9-3.09a3.6,3.6,0,0,1,3.86-3.38c2.94,0,3.93,1.87,4.05,3l-2.33.52a1.57,1.57,0,0,0-1.7-1.39,1.19,1.19,0,0,0-1.32,1,1,1,0,0,0,.95.92l1.47,0.31c2,0.42,3.07,1.66,3.07,3.17,0,1.68-1.3,3.4-4,3.4-3.11,0-4.18-2-4.3-3.19Z"/><path class="cls-5" d="M392,290.62a4.65,4.65,0,0,1-4.7,3.28,5.49,5.49,0,0,1-.25-11c3.19,0,5.1,2,5.1,5.35,0,0.4,0,.82,0,0.86H384.7a2.52,2.52,0,0,0,2.6,2.35,2.28,2.28,0,0,0,2.35-1.58Zm-2.6-3.38a2.08,2.08,0,0,0-2.31-2,2.24,2.24,0,0,0-2.31,2h4.62Z"/><path class="cls-5" d="M403,283.25H405v2.48H403v4.33a1,1,0,0,0,1.22,1.2,4.05,4.05,0,0,0,.86-0.08v2.31a4.15,4.15,0,0,1-1.57.25,3,3,0,0,1-3.28-3.19v-4.81h-1.87v-2.48h0.53a1.49,1.49,0,0,0,1.6-1.64v-1.45H403v3.09Z"/><path class="cls-5" d="M413.57,286a4.24,4.24,0,0,0-.84-0.08c-1.43,0-2.67.69-2.67,2.92v4.72h-2.79V283.25H410v1.53a3.07,3.07,0,0,1,2.94-1.62,6.48,6.48,0,0,1,.65,0V286Z"/><path class="cls-5" d="M416.59,297.65l2.44-5.38-4.39-9h3.13l2.75,6,2.54-6h3l-6.49,14.4h-3Z"/><path class="cls-5" d="M435.39,287.64l2.54-.38a0.73,0.73,0,0,0,.78-0.74c0-.73-0.57-1.34-1.74-1.34a1.83,1.83,0,0,0-2,1.68l-2.48-.52c0.17-1.62,1.66-3.4,4.43-3.4,3.28,0,4.49,1.85,4.49,3.93v5.08a11.63,11.63,0,0,0,.13,1.64H439a7,7,0,0,1-.1-1.24,3.45,3.45,0,0,1-3,1.53,3.26,3.26,0,0,1-3.55-3.11C432.3,288.92,433.67,287.89,435.39,287.64Zm3.32,1.76v-0.46l-2.33.36a1.3,1.3,0,0,0-1.28,1.3,1.21,1.21,0,0,0,1.34,1.2A2.1,2.1,0,0,0,438.71,289.4Z"/><path class="cls-5" d="M446,293.47a2.31,2.31,0,0,0,2.41,2c1.76,0,2.75-.88,2.75-2.88v-0.76a3.28,3.28,0,0,1-2.88,1.32,4.78,4.78,0,0,1-4.81-5,4.85,4.85,0,0,1,4.81-5,3.13,3.13,0,0,1,2.94,1.41v-1.22h2.69v9.22c0,2.83-1.53,5.42-5.42,5.42-2.83,0-4.72-1.76-5-3.74Zm5.21-5.37a2.46,2.46,0,1,0-2.44,2.62A2.4,2.4,0,0,0,451.2,288.1Z"/><path class="cls-5" d="M459.1,287.64l2.54-.38a0.73,0.73,0,0,0,.78-0.74c0-.73-0.57-1.34-1.74-1.34a1.83,1.83,0,0,0-2,1.68l-2.48-.52c0.17-1.62,1.66-3.4,4.43-3.4,3.28,0,4.49,1.85,4.49,3.93v5.08a11.63,11.63,0,0,0,.13,1.64h-2.56a7,7,0,0,1-.1-1.24,3.45,3.45,0,0,1-3,1.53,3.26,3.26,0,0,1-3.55-3.11C456,288.92,457.38,287.89,459.1,287.64Zm3.32,1.76v-0.46l-2.33.36a1.3,1.3,0,0,0-1.28,1.3,1.21,1.21,0,0,0,1.34,1.2A2.1,2.1,0,0,0,462.41,289.4Z"/><path class="cls-5" d="M469.34,278.12a1.72,1.72,0,1,1-1.72,1.74A1.72,1.72,0,0,1,469.34,278.12ZM468,293.58V283.25h2.79v10.33H468Z"/><path class="cls-5" d="M476.53,293.58h-2.79V283.25h2.71v1.28a3.43,3.43,0,0,1,3-1.55c2.56,0,3.74,1.83,3.74,4.09v6.51h-2.79v-6a1.82,1.82,0,0,0-1.91-2.06,1.94,1.94,0,0,0-1.93,2.14v5.94Z"/><path class="cls-5" d="M487.76,289.9a1.91,1.91,0,1,1-1.91,1.91A1.92,1.92,0,0,1,487.76,289.9Z"/></svg>