<svg id="Layer_1" data-name="Layer 1" xmlns="http://www.w3.org/2000/svg" viewBox="0 0 626 262.95"><defs><style>.cls-1{fill:#ececec;}.cls-2{fill:#231f20;}.cls-3{fill:#fff;}.cls-4{fill:#ffaec2;}.cls-5{fill:#ffdb00;}</style></defs><title>Slide-30-Assignement-Comparison</title><rect class="cls-1" x="1" y="1" width="624" height="66"/><path class="cls-2" d="M626,68H0V0H626V68ZM2,66H624V2H2V66Z"/><path d="M85.32,40.85H76.68l-1.77,4.86H70.53l8.16-21.27h4.8l8.1,21.27h-4.5Zm-7.26-3.78h5.88L81,29Z"/><path d="M96.18,40.85a2.45,2.45,0,0,0,2.7,2.25c1.32,0,1.95-.69,1.95-1.47s-0.45-1.2-1.59-1.44l-1.95-.45c-2.85-.63-4.14-2.34-4.14-4.41,0-2.64,2.34-4.83,5.52-4.83,4.2,0,5.61,2.67,5.79,4.26l-3.33.75a2.25,2.25,0,0,0-2.43-2A1.7,1.7,0,0,0,96.81,35a1.4,1.4,0,0,0,1.35,1.32l2.1,0.45c2.91,0.6,4.38,2.37,4.38,4.53,0,2.4-1.86,4.86-5.73,4.86-4.44,0-6-2.88-6.15-4.56Z"/><path d="M110,40.85a2.45,2.45,0,0,0,2.7,2.25c1.32,0,1.95-.69,1.95-1.47s-0.45-1.2-1.59-1.44l-1.95-.45c-2.85-.63-4.14-2.34-4.14-4.41,0-2.64,2.34-4.83,5.52-4.83,4.2,0,5.61,2.67,5.79,4.26l-3.33.75a2.25,2.25,0,0,0-2.43-2A1.7,1.7,0,0,0,110.64,35,1.4,1.4,0,0,0,112,36.32l2.1,0.45c2.91,0.6,4.38,2.37,4.38,4.53,0,2.4-1.86,4.86-5.73,4.86-4.44,0-6-2.88-6.15-4.56Z"/><path d="M123.66,23.64a2.46,2.46,0,1,1-2.46,2.49A2.46,2.46,0,0,1,123.66,23.64Zm-2,22.08V31h4V45.71h-4Z"/><path d="M132.48,45.56a3.3,3.3,0,0,0,3.45,2.79c2.52,0,3.93-1.26,3.93-4.11V43.16a4.69,4.69,0,0,1-4.11,1.89,6.83,6.83,0,0,1-6.87-7.17,6.93,6.93,0,0,1,6.87-7.2c2.34,0,3.69,1,4.2,2V31h3.84V44.12c0,4-2.19,7.74-7.74,7.74-4,0-6.75-2.52-7.17-5.34Zm7.44-7.68a3.52,3.52,0,1,0-7,0A3.52,3.52,0,1,0,139.92,37.88Z"/><path d="M151.83,45.71h-4V31h3.87v1.83A4.9,4.9,0,0,1,156,30.56c3.66,0,5.34,2.61,5.34,5.85v9.3h-4V37.1c0-1.65-.81-2.94-2.73-2.94a2.78,2.78,0,0,0-2.76,3.06v8.49Z"/><path d="M165.36,45.71V31h3.81v1.8a5.07,5.07,0,0,1,4.32-2.22A4.57,4.57,0,0,1,177.87,33a5.13,5.13,0,0,1,4.68-2.46c2.73,0,5.34,1.65,5.34,5.61v9.57H184V37c0-1.59-.78-2.79-2.61-2.79a2.71,2.71,0,0,0-2.73,2.91v8.64h-4V37a2.48,2.48,0,0,0-2.61-2.79,2.7,2.7,0,0,0-2.76,2.91v8.64h-4Z"/><path d="M205.17,41.48a6.65,6.65,0,0,1-6.72,4.68,7.48,7.48,0,0,1-7.62-7.89,7.41,7.41,0,0,1,7.26-7.77c4.56,0,7.29,2.91,7.29,7.65,0,0.57-.06,1.17-0.06,1.23H194.76a3.59,3.59,0,0,0,3.72,3.36,3.26,3.26,0,0,0,3.36-2.25Zm-3.72-4.83a3,3,0,0,0-3.3-2.91,3.19,3.19,0,0,0-3.3,2.91h6.6Z"/><path d="M212.52,45.71h-4V31h3.87v1.83a4.9,4.9,0,0,1,4.26-2.22c3.66,0,5.34,2.61,5.34,5.85v9.3h-4V37.1c0-1.65-.81-2.94-2.73-2.94a2.78,2.78,0,0,0-2.76,3.06v8.49Z"/><path d="M231,31h3v3.54h-3v6.18a1.48,1.48,0,0,0,1.74,1.71,5.79,5.79,0,0,0,1.23-.12v3.3a5.92,5.92,0,0,1-2.25.36c-2.88,0-4.68-1.71-4.68-4.56V34.49h-2.67V31h0.75a2.13,2.13,0,0,0,2.28-2.34V26.54H231V31Z"/><rect class="cls-3" x="1" y="130.33" width="624" height="131.62"/><path class="cls-2" d="M626,263H0V129.33H626V263ZM2,261H624V131.33H2V261Z"/><path d="M63.67,196.14H61l-5.46-13.47h3l3.84,10.39,3.86-10.39H69Z"/><path d="M74.67,188.44l3.64-.53a1,1,0,0,0,1-1c0-1.32-.87-2.41-2.91-2.41a2.86,2.86,0,0,0-3.05,2.72l-2.52-.59c0.28-2.58,2.6-4.37,5.52-4.37,4,0,5.6,2.3,5.6,4.93v6.75a12.65,12.65,0,0,0,.17,2.21H79.57a9.83,9.83,0,0,1-.14-1.82,4.91,4.91,0,0,1-4.34,2.24,4.2,4.2,0,0,1-4.51-4C70.59,190.12,72.35,188.78,74.67,188.44Zm4.68,1.93v-0.62l-4.12.62a2,2,0,0,0-2,2,2,2,0,0,0,2.18,2C77.61,194.35,79.35,193.31,79.35,190.38Z"/><path d="M93.55,185.34a8.26,8.26,0,0,0-1.15-.08c-2.21,0-3.7,1.18-3.7,4.14v6.75H86.07V182.68h2.58V185a4.22,4.22,0,0,1,4-2.58,4.92,4.92,0,0,1,.87.08v2.8Z"/><path d="M106,196.14h-2.63V182.68h2.58v1.93a4.61,4.61,0,0,1,4.14-2.32c3.22,0,4.82,2.32,4.82,5.32v8.54h-2.63v-8.09c0-1.88-.78-3.39-3.14-3.39-2.07,0-3.14,1.65-3.14,3.7v7.78Z"/><path d="M123.7,196.56c-3.14,0-5-2.35-5-5.4v-8.48h2.63v8.09c0,1.85.84,3.47,3.05,3.47s3.19-1.4,3.19-3.44v-8.12h2.63v11a22.6,22.6,0,0,0,.14,2.49h-2.52a11.88,11.88,0,0,1-.11-1.62A4.39,4.39,0,0,1,123.7,196.56Z"/><path d="M134.65,196.14V182.68h2.52v1.79a4.64,4.64,0,0,1,4.09-2.18,4.21,4.21,0,0,1,4,2.55,4.83,4.83,0,0,1,4.51-2.55c2.35,0,4.65,1.6,4.65,5.12v8.74h-2.6v-8.46c0-1.76-.87-3.08-2.86-3.08a3.14,3.14,0,0,0-3.11,3.39v8.15h-2.63v-8.46c0-1.74-.84-3.08-2.86-3.08a3.12,3.12,0,0,0-3.14,3.42v8.12h-2.6Z"/><path d="M158.65,196.14V175.87h2.6v8.71a4.91,4.91,0,0,1,4.45-2.3c4.09,0,6.19,3.14,6.19,7.06s-2.27,7.17-6.27,7.17a4.81,4.81,0,0,1-4.37-2.32v2h-2.6Zm6.58-11.54c-2.32,0-4,1.82-4,4.73s1.68,4.82,4,4.82,4-1.9,4-4.82S167.66,184.61,165.23,184.61Z"/><path d="M187,192.31a6.11,6.11,0,0,1-6,4.26c-3.61,0-6.78-2.63-6.78-7.2,0-4.23,3.05-7.11,6.44-7.11,4.14,0,6.47,2.86,6.47,7.06a5.93,5.93,0,0,1-.06.84H176.87a4,4,0,0,0,4.06,4.09,3.67,3.67,0,0,0,3.78-2.72ZM184.32,188a3.39,3.39,0,0,0-3.7-3.44A3.62,3.62,0,0,0,177,188h7.36Z"/><path d="M197.9,185.34a8.26,8.26,0,0,0-1.15-.08c-2.21,0-3.7,1.18-3.7,4.14v6.75h-2.63V182.68H193V185a4.22,4.22,0,0,1,4-2.58,4.92,4.92,0,0,1,.87.08v2.8Z"/><path d="M207.28,186.46V184.3h13v2.16h-13Zm0,5.46V189.7h13v2.21h-13Z"/><path d="M242.45,180.63c-1.68,1.34-6.8,5.91-7.67,15.51h-2.83c0.81-10.56,7.48-15.62,7.48-15.62H229.2V178h13.24v2.63Z"/><path d="M245.81,192.64a2.22,2.22,0,0,1,2.16,2.52c0,3.5-2.3,5-3.95,5.18V199a3,3,0,0,0,2.21-2.88,1.1,1.1,0,0,1-.59.14,1.73,1.73,0,0,1-1.79-1.82A1.86,1.86,0,0,1,245.81,192.64Zm0-10.11a2,2,0,0,1,2,2,1.92,1.92,0,0,1-2,1.93,1.9,1.9,0,0,1-1.93-1.93A1.92,1.92,0,0,1,245.81,182.54Z"/><path d="M357,156.87a1.89,1.89,0,1,1-1.88,1.9A1.89,1.89,0,0,1,357,156.87Zm-1.29,20.47V163.87h2.6v13.47h-2.6Z"/><path d="M366.3,166.25v11.09h-2.72V166.25h-2.49v-2.38h2.49V161.6A4.27,4.27,0,0,1,368,157a3.41,3.41,0,0,1,1.57.28v2.35a3.07,3.07,0,0,0-1.15-.17,2,2,0,0,0-2.13,2.3v2.13h3.25v2.38H366.3Z"/><path d="M384,155.1l1.6,1.4a17.7,17.7,0,0,0,0,23.91l-1.6,1.4A19.43,19.43,0,0,1,384,155.1Z"/><path d="M390.46,177.33h-2.63V163.87h2.58v1.93a4.61,4.61,0,0,1,4.14-2.32c3.22,0,4.82,2.32,4.82,5.32v8.54h-2.63v-8.09c0-1.88-.78-3.39-3.14-3.39-2.07,0-3.14,1.65-3.14,3.7v7.78Z"/><path d="M408.19,177.75c-3.14,0-5-2.35-5-5.4v-8.48h2.63V172c0,1.85.84,3.47,3.05,3.47S412,174,412,172v-8.12h2.63v11a22.77,22.77,0,0,0,.14,2.49h-2.52a11.83,11.83,0,0,1-.11-1.62A4.39,4.39,0,0,1,408.19,177.75Z"/><path d="M419.13,177.33V163.87h2.52v1.79a4.64,4.64,0,0,1,4.09-2.18,4.21,4.21,0,0,1,4,2.55,4.83,4.83,0,0,1,4.51-2.55c2.35,0,4.65,1.6,4.65,5.12v8.74h-2.6v-8.46c0-1.76-.87-3.08-2.86-3.08a3.14,3.14,0,0,0-3.11,3.39v8.15h-2.63v-8.46c0-1.74-.84-3.08-2.86-3.08a3.12,3.12,0,0,0-3.14,3.42v8.12h-2.6Z"/><path d="M443.13,177.33V157.06h2.6v8.71a4.92,4.92,0,0,1,4.45-2.29c4.09,0,6.19,3.13,6.19,7.05s-2.27,7.17-6.27,7.17a4.81,4.81,0,0,1-4.37-2.32v2h-2.6Zm6.58-11.54c-2.32,0-4,1.82-4,4.73s1.68,4.82,4,4.82,4-1.9,4-4.82S452.14,165.8,449.71,165.8Z"/><path d="M471.46,173.5a6.1,6.1,0,0,1-6,4.26c-3.61,0-6.78-2.63-6.78-7.2,0-4.23,3.05-7.11,6.44-7.11,4.14,0,6.47,2.86,6.47,7.06a5.85,5.85,0,0,1-.06.84H461.36a4,4,0,0,0,4.06,4.09,3.67,3.67,0,0,0,3.78-2.72Zm-2.66-4.28a3.39,3.39,0,0,0-3.7-3.44,3.62,3.62,0,0,0-3.67,3.44h7.36Z"/><path d="M482.38,166.52a8.43,8.43,0,0,0-1.15-.08c-2.21,0-3.7,1.18-3.7,4.14v6.75h-2.63V163.87h2.58v2.35a4.22,4.22,0,0,1,4-2.58,4.93,4.93,0,0,1,.87.08v2.8Z"/><path d="M491.76,167.65v-2.16h13v2.16h-13Zm0,5.46v-2.21h13v2.21h-13Z"/><path d="M508.37,167.65v-2.16h13v2.16h-13Zm0,5.46v-2.21h13v2.21h-13Z"/><path d="M525,167.65v-2.16h13v2.16H525Zm0,5.46v-2.21h13v2.21H525Z"/><path d="M548,172.55a4.75,4.75,0,0,1,3.44-4.48,4.56,4.56,0,0,1-3-4.26c0-3,2.63-5,6.11-5s6.1,2.07,6.1,5a4.58,4.58,0,0,1-3,4.26,4.72,4.72,0,0,1,3.45,4.48c0,2.91-2.41,5.21-6.58,5.21S548,175.46,548,172.55Zm10.39-.22c0-1.74-1.4-3.11-3.81-3.11s-3.81,1.37-3.81,3.11,1.37,3.05,3.81,3.05S558.4,174,558.4,172.32ZM558,163.95c0-1.62-1.32-2.91-3.36-2.91s-3.36,1.29-3.36,2.91,1.43,2.94,3.36,3S558,165.71,558,163.95Z"/><path d="M564,181.81l-1.6-1.4a17.7,17.7,0,0,0,0-23.91l1.6-1.4A19.43,19.43,0,0,1,564,181.81Z"/><path d="M579.15,167.23c1.62,0,3.08-.76,3.08-2.83v-3.84c0-3.47,1.76-5.21,5-5.21h0.37v2.1h-0.37c-2.07,0-2.74.9-2.74,2.94V165a3.31,3.31,0,0,1-2.91,3.44,3.31,3.31,0,0,1,2.91,3.44v4.56c0,2,.67,2.94,2.74,2.94h0.37v2.1h-0.37c-3.28,0-5-1.74-5-5.21v-3.81c0-2.07-1.46-2.83-3.08-2.83v-2.41Z"/><path d="M370,207.33h-2.55l9.6-19.85h2.55Z"/><path d="M378.23,207.33h-2.55l9.6-19.85h2.55Z"/><path d="M397.35,207.33V187.48h6.94c5,0,9.44,3.44,9.44,10s-4.45,9.88-9.49,9.88h-6.89Zm6.8-2.44c3.67,0,6.75-2.46,6.75-7.45s-3-7.53-6.69-7.53h-4.12v15h4.06Z"/><path d="M429.88,200.59a6.89,6.89,0,1,1-6.89-7.14A6.8,6.8,0,0,1,429.88,200.59Zm-2.69,0c0-3.11-2-4.79-4.2-4.79s-4.2,1.68-4.2,4.79,2,4.82,4.2,4.82S427.2,203.72,427.2,200.59Z"/><path d="M441.37,203a2.87,2.87,0,0,0,3.14,2.52c1.48,0,2.29-.84,2.29-1.79a1.87,1.87,0,0,0-1.74-1.74l-2.3-.5a3.83,3.83,0,0,1-3.36-3.78,4.59,4.59,0,0,1,4.79-4.26c3.7,0,4.84,2.41,5.12,3.61l-2.32.87a2.61,2.61,0,0,0-2.8-2.24,2,2,0,0,0-2.24,1.79,1.65,1.65,0,0,0,1.54,1.62l2.18,0.48c2.44,0.53,3.72,2,3.72,4s-1.6,4.17-4.93,4.17c-3.7,0-5.26-2.38-5.49-3.92Z"/><path d="M465.42,200.59a6.89,6.89,0,1,1-6.89-7.14A6.8,6.8,0,0,1,465.42,200.59Zm-2.69,0c0-3.11-2-4.79-4.2-4.79s-4.2,1.68-4.2,4.79,2,4.82,4.2,4.82S462.73,203.72,462.73,200.59Z"/><path d="M468.78,207.33V193.87h2.52v1.79a4.64,4.64,0,0,1,4.09-2.18,4.21,4.21,0,0,1,4,2.55,4.83,4.83,0,0,1,4.51-2.55c2.35,0,4.65,1.6,4.65,5.12v8.74H486v-8.46c0-1.76-.87-3.08-2.86-3.08a3.14,3.14,0,0,0-3.11,3.39v8.15h-2.63v-8.46c0-1.74-.84-3.08-2.86-3.08a3.12,3.12,0,0,0-3.14,3.42v8.12h-2.6Z"/><path d="M504.5,203.5a6.11,6.11,0,0,1-6,4.26c-3.61,0-6.78-2.63-6.78-7.2,0-4.23,3.05-7.11,6.44-7.11,4.14,0,6.47,2.86,6.47,7.06a6,6,0,0,1-.06.84H494.4a4,4,0,0,0,4.06,4.09,3.67,3.67,0,0,0,3.78-2.72Zm-2.66-4.28a3.39,3.39,0,0,0-3.7-3.44,3.62,3.62,0,0,0-3.67,3.44h7.36Z"/><path d="M511.48,193.87h2.91v2.38h-2.91v7a1.6,1.6,0,0,0,1.88,1.85,5.37,5.37,0,0,0,1-.11v2.24a5.77,5.77,0,0,1-1.79.25,3.5,3.5,0,0,1-3.75-3.84v-7.39h-2.58v-2.38H507a1.88,1.88,0,0,0,2.07-2.07v-2.18h2.41v4.26Z"/><path d="M520.52,207.33h-2.63V187.06h2.63v8.37a4.76,4.76,0,0,1,4.09-2c3.22,0,4.82,2.32,4.82,5.32v8.54h-2.63v-8.09c0-1.88-.79-3.39-3.14-3.39-2,0-3.08,1.57-3.14,3.56v7.92Z"/><path d="M534.91,186.87a1.89,1.89,0,1,1-1.88,1.9A1.89,1.89,0,0,1,534.91,186.87Zm-1.29,20.47V193.87h2.6v13.47h-2.6Z"/><path d="M543.34,207.33h-2.63V193.87h2.58v1.93a4.61,4.61,0,0,1,4.14-2.32c3.22,0,4.82,2.32,4.82,5.32v8.54h-2.63v-8.09c0-1.88-.78-3.39-3.13-3.39-2.07,0-3.14,1.65-3.14,3.7v7.78Z"/><path d="M558,207.47a3.58,3.58,0,0,0,3.67,3.3c2.83,0,4.12-1.46,4.12-4.37v-1.93a4.49,4.49,0,0,1-4.12,2.21c-3.58,0-6.19-2.71-6.19-6.52,0-3.64,2.49-6.55,6.19-6.55,2.07,0,3.47.78,4.14,2.13v-1.88h2.6v12.46c0,3.42-1.68,6.75-6.75,6.75-3.36,0-5.88-2.13-6.21-5Zm7.9-7.31c0-2.6-1.57-4.31-3.84-4.31s-3.89,1.71-3.89,4.31,1.51,4.31,3.89,4.31S565.91,202.77,565.91,200.17Z"/><path d="M362.07,229.63c-1.62,0-3.08.76-3.08,2.83v3.81c0,3.47-1.76,5.21-5,5.21h-0.36v-2.1H354c2.07,0,2.74-.9,2.74-2.94v-4.56a3.31,3.31,0,0,1,2.91-3.44,3.31,3.31,0,0,1-2.91-3.44v-4.59c0-2-.67-2.94-2.74-2.94h-0.36v-2.1H354c3.28,0,5,1.74,5,5.21v3.84c0,2.07,1.46,2.83,3.08,2.83v2.41Z"/><rect class="cls-3" x="1" y="67" width="624" height="63.33"/><path d="M626,131.33H0V66H626v65.33Zm-624-2H624V68H2v61.33Z"/><path class="cls-4" d="M133.27,95.21V86.65h38.8v8.56h-38.8Zm0,15.92v-8.64h38.8v8.64h-38.8Z"/><path class="cls-5" d="M403,95.21V86.65h38.8v8.56H403Zm0,15.92v-8.64h38.8v8.64H403Z"/><path class="cls-5" d="M451.21,95.21V86.65H490v8.56h-38.8Zm0,15.92v-8.64H490v8.64h-38.8Z"/><path class="cls-5" d="M499.45,95.21V86.65h38.8v8.56h-38.8Zm0,15.92v-8.64h38.8v8.64h-38.8Z"/><path d="M386.82,35.09A10.74,10.74,0,0,1,397.65,24c5.88,0,8.91,3.6,9.75,7l-3.9,1.23A5.56,5.56,0,0,0,397.65,28c-3.18,0-6.54,2.28-6.54,7.11,0,4.53,3.18,7,6.6,7a5.91,5.91,0,0,0,6-4.35l3.87,1.17a9.67,9.67,0,0,1-9.84,7.23A10.62,10.62,0,0,1,386.82,35.09Z"/><path d="M424.56,38.33a7.74,7.74,0,1,1-15.48,0A7.74,7.74,0,1,1,424.56,38.33Zm-4,0c0-2.79-1.8-4.2-3.75-4.2s-3.75,1.41-3.75,4.2,1.8,4.2,3.75,4.2S420.57,41.12,420.57,38.33Z"/><path d="M427.71,45.71V31h3.81v1.8a5.07,5.07,0,0,1,4.32-2.22A4.57,4.57,0,0,1,440.22,33a5.13,5.13,0,0,1,4.68-2.46c2.73,0,5.34,1.65,5.34,5.61v9.57h-3.87V37c0-1.59-.78-2.79-2.61-2.79A2.71,2.71,0,0,0,441,37.07v8.64h-4V37a2.48,2.48,0,0,0-2.61-2.79,2.7,2.7,0,0,0-2.76,2.91v8.64h-4Z"/><path d="M454.29,51.41V31h3.87v1.8a5.16,5.16,0,0,1,4.53-2.13c4.32,0,6.81,3.3,6.81,7.68s-2.79,7.77-7,7.77a5.19,5.19,0,0,1-4.26-1.8v7.14h-4Zm7.62-17.22c-2,0-3.69,1.53-3.69,4.14s1.65,4.17,3.69,4.17,3.66-1.53,3.66-4.17S464,34.19,461.91,34.19Z"/><path d="M476.16,37.22l3.63-.54a1,1,0,0,0,1.11-1c0-1-.81-1.92-2.49-1.92a2.62,2.62,0,0,0-2.82,2.4l-3.54-.75c0.24-2.31,2.37-4.86,6.33-4.86,4.68,0,6.42,2.64,6.42,5.61v7.26a16.55,16.55,0,0,0,.18,2.34h-3.66a10,10,0,0,1-.15-1.77,4.93,4.93,0,0,1-4.35,2.19c-3.15,0-5.07-2.13-5.07-4.44C471.75,39.05,473.7,37.58,476.16,37.22Zm4.74,2.52V39.08l-3.33.51a1.86,1.86,0,0,0-1.83,1.86,1.73,1.73,0,0,0,1.92,1.71C479.34,43.16,480.9,42.35,480.9,39.74Z"/><path d="M497.82,34.92a6,6,0,0,0-1.2-.12c-2,0-3.81,1-3.81,4.17v6.75h-4V31h3.87v2.19a4.39,4.39,0,0,1,4.2-2.31,9,9,0,0,1,.93.06v4Z"/><path d="M502.62,23.64a2.46,2.46,0,1,1-2.46,2.49A2.46,2.46,0,0,1,502.62,23.64Zm-2,22.08V31h4V45.71h-4Z"/><path d="M511,40.85a2.45,2.45,0,0,0,2.7,2.25c1.32,0,1.95-.69,1.95-1.47s-0.45-1.2-1.59-1.44l-1.95-.45c-2.85-.63-4.14-2.34-4.14-4.41,0-2.64,2.34-4.83,5.52-4.83,4.2,0,5.61,2.67,5.79,4.26l-3.33.75a2.25,2.25,0,0,0-2.43-2A1.7,1.7,0,0,0,511.68,35,1.4,1.4,0,0,0,513,36.32l2.1,0.45c2.91,0.6,4.38,2.37,4.38,4.53,0,2.4-1.86,4.86-5.73,4.86-4.44,0-6-2.88-6.15-4.56Z"/><path d="M537,38.33a7.74,7.74,0,1,1-15.48,0A7.74,7.74,0,1,1,537,38.33Zm-4,0c0-2.79-1.8-4.2-3.75-4.2s-3.75,1.41-3.75,4.2,1.8,4.2,3.75,4.2S533,41.12,533,38.33Z"/><path d="M544.17,45.71h-4V31H544v1.83a4.9,4.9,0,0,1,4.26-2.22c3.66,0,5.34,2.61,5.34,5.85v9.3h-4V37.1c0-1.65-.81-2.94-2.73-2.94a2.78,2.78,0,0,0-2.76,3.06v8.49Z"/><rect x="311.67" y="1" width="2" height="261.67"/></svg>