<svg id="Layer_1" data-name="Layer 1" xmlns="http://www.w3.org/2000/svg" viewBox="0 0 373.45 410.21"><defs><style>.cls-1{fill:#231f20;}.cls-2{fill:#c3c3c3;}.cls-3,.cls-4{fill:#ececec;}.cls-4{stroke:#231f20;stroke-linecap:round;stroke-linejoin:round;stroke-width:3px;}.cls-5{fill:#1ecac7;}</style></defs><title>Slide-31-Umbrella-Rain</title><path class="cls-1" d="M187.11,43.76a1.5,1.5,0,0,1-1.5-1.5V21.55a1.5,1.5,0,0,1,3,0V42.26A1.5,1.5,0,0,1,187.11,43.76Z"/><path class="cls-1" d="M163.9,63.81a1.5,1.5,0,0,1-1.5-1.5V41.59a1.5,1.5,0,0,1,3,0V62.31A1.5,1.5,0,0,1,163.9,63.81Z"/><path class="cls-1" d="M210.31,63.81a1.5,1.5,0,0,1-1.5-1.5V41.59a1.5,1.5,0,0,1,3,0V62.31A1.5,1.5,0,0,1,210.31,63.81Z"/><path class="cls-1" d="M117.5,63.81a1.5,1.5,0,0,1-1.5-1.5V41.59a1.5,1.5,0,1,1,3,0V62.31A1.5,1.5,0,0,1,117.5,63.81Z"/><path class="cls-1" d="M94.3,43.76a1.5,1.5,0,0,1-1.5-1.5V21.55a1.5,1.5,0,0,1,3,0V42.26A1.5,1.5,0,0,1,94.3,43.76Z"/><path class="cls-1" d="M71.1,63.81a1.5,1.5,0,0,1-1.5-1.5V41.59a1.5,1.5,0,0,1,3,0V62.31A1.5,1.5,0,0,1,71.1,63.81Z"/><path class="cls-1" d="M47.9,43.76a1.5,1.5,0,0,1-1.5-1.5V21.55a1.5,1.5,0,0,1,3,0V42.26A1.5,1.5,0,0,1,47.9,43.76Z"/><path class="cls-1" d="M24.7,63.81a1.5,1.5,0,0,1-1.5-1.5V41.59a1.5,1.5,0,0,1,3,0V62.31A1.5,1.5,0,0,1,24.7,63.81Z"/><path class="cls-1" d="M1.5,43.76A1.5,1.5,0,0,1,0,42.26V21.55a1.5,1.5,0,0,1,3,0V42.26A1.5,1.5,0,0,1,1.5,43.76Z"/><path class="cls-1" d="M94.3,83.86a1.5,1.5,0,0,1-1.5-1.5V61.64a1.5,1.5,0,1,1,3,0V82.36A1.5,1.5,0,0,1,94.3,83.86Z"/><path class="cls-1" d="M47.9,83.86a1.5,1.5,0,0,1-1.5-1.5V61.64a1.5,1.5,0,0,1,3,0V82.36A1.5,1.5,0,0,1,47.9,83.86Z"/><path class="cls-1" d="M1.5,83.86A1.5,1.5,0,0,1,0,82.36V61.64a1.5,1.5,0,0,1,3,0V82.36A1.5,1.5,0,0,1,1.5,83.86Z"/><path class="cls-1" d="M140.7,43.76a1.5,1.5,0,0,1-1.5-1.5V21.55a1.5,1.5,0,0,1,3,0V42.26A1.5,1.5,0,0,1,140.7,43.76Z"/><path class="cls-1" d="M326.31,43.76a1.5,1.5,0,0,1-1.5-1.5V21.55a1.5,1.5,0,0,1,3,0V42.26A1.5,1.5,0,0,1,326.31,43.76Z"/><path class="cls-1" d="M372,43.76a1.5,1.5,0,0,1-1.5-1.5V21.55a1.5,1.5,0,0,1,3,0V42.26A1.5,1.5,0,0,1,372,43.76Z"/><path class="cls-1" d="M303.11,63.81a1.5,1.5,0,0,1-1.5-1.5V41.59a1.5,1.5,0,1,1,3,0V62.31A1.5,1.5,0,0,1,303.11,63.81Z"/><path class="cls-1" d="M349.51,63.81a1.5,1.5,0,0,1-1.5-1.5V41.59a1.5,1.5,0,1,1,3,0V62.31A1.5,1.5,0,0,1,349.51,63.81Z"/><path class="cls-1" d="M256.71,63.81a1.5,1.5,0,0,1-1.5-1.5V41.59a1.5,1.5,0,0,1,3,0V62.31A1.5,1.5,0,0,1,256.71,63.81Z"/><path class="cls-1" d="M71.1,103.91a1.5,1.5,0,0,1-1.5-1.5V81.69a1.5,1.5,0,0,1,3,0v20.72A1.5,1.5,0,0,1,71.1,103.91Z"/><path class="cls-1" d="M24.7,103.91a1.5,1.5,0,0,1-1.5-1.5V81.69a1.5,1.5,0,0,1,3,0v20.72A1.5,1.5,0,0,1,24.7,103.91Z"/><path class="cls-1" d="M303.11,103.91a1.5,1.5,0,0,1-1.5-1.5V81.69a1.5,1.5,0,0,1,3,0v20.72A1.5,1.5,0,0,1,303.11,103.91Z"/><path class="cls-1" d="M349.51,103.91a1.5,1.5,0,0,1-1.5-1.5V81.69a1.5,1.5,0,0,1,3,0v20.72A1.5,1.5,0,0,1,349.51,103.91Z"/><path class="cls-1" d="M24.7,144a1.5,1.5,0,0,1-1.5-1.5V121.78a1.5,1.5,0,0,1,3,0V142.5A1.5,1.5,0,0,1,24.7,144Z"/><path class="cls-1" d="M349.51,144a1.5,1.5,0,0,1-1.5-1.5V121.78a1.5,1.5,0,1,1,3,0V142.5A1.5,1.5,0,0,1,349.51,144Z"/><path class="cls-1" d="M163.9,23.72a1.5,1.5,0,0,1-1.5-1.5V1.5a1.5,1.5,0,0,1,3,0V22.22A1.5,1.5,0,0,1,163.9,23.72Z"/><path class="cls-1" d="M210.31,23.72a1.5,1.5,0,0,1-1.5-1.5V1.5a1.5,1.5,0,0,1,3,0V22.22A1.5,1.5,0,0,1,210.31,23.72Z"/><path class="cls-1" d="M117.5,23.72a1.5,1.5,0,0,1-1.5-1.5V1.5a1.5,1.5,0,0,1,3,0V22.22A1.5,1.5,0,0,1,117.5,23.72Z"/><path class="cls-1" d="M71.1,23.72a1.5,1.5,0,0,1-1.5-1.5V1.5a1.5,1.5,0,0,1,3,0V22.22A1.5,1.5,0,0,1,71.1,23.72Z"/><path class="cls-1" d="M24.7,23.72a1.5,1.5,0,0,1-1.5-1.5V1.5a1.5,1.5,0,0,1,3,0V22.22A1.5,1.5,0,0,1,24.7,23.72Z"/><path class="cls-1" d="M303.11,23.72a1.5,1.5,0,0,1-1.5-1.5V1.5a1.5,1.5,0,0,1,3,0V22.22A1.5,1.5,0,0,1,303.11,23.72Z"/><path class="cls-1" d="M349.51,23.72a1.5,1.5,0,0,1-1.5-1.5V1.5a1.5,1.5,0,0,1,3,0V22.22A1.5,1.5,0,0,1,349.51,23.72Z"/><path class="cls-1" d="M256.71,23.72a1.5,1.5,0,0,1-1.5-1.5V1.5a1.5,1.5,0,0,1,3,0V22.22A1.5,1.5,0,0,1,256.71,23.72Z"/><path class="cls-1" d="M233.51,43.76a1.5,1.5,0,0,1-1.5-1.5V21.55a1.5,1.5,0,1,1,3,0V42.26A1.5,1.5,0,0,1,233.51,43.76Z"/><path class="cls-1" d="M140.7,83.86a1.5,1.5,0,0,1-1.5-1.5V61.64a1.5,1.5,0,1,1,3,0V82.36A1.5,1.5,0,0,1,140.7,83.86Z"/><path class="cls-1" d="M233.51,83.86a1.5,1.5,0,0,1-1.5-1.5V61.64a1.5,1.5,0,0,1,3,0V82.36A1.5,1.5,0,0,1,233.51,83.86Z"/><path class="cls-1" d="M279.91,43.76a1.5,1.5,0,0,1-1.5-1.5V21.55a1.5,1.5,0,0,1,3,0V42.26A1.5,1.5,0,0,1,279.91,43.76Z"/><path class="cls-1" d="M326.31,83.86a1.5,1.5,0,0,1-1.5-1.5V61.64a1.5,1.5,0,1,1,3,0V82.36A1.5,1.5,0,0,1,326.31,83.86Z"/><path class="cls-1" d="M372,83.86a1.5,1.5,0,0,1-1.5-1.5V61.64a1.5,1.5,0,1,1,3,0V82.36A1.5,1.5,0,0,1,372,83.86Z"/><path class="cls-1" d="M47.9,124a1.5,1.5,0,0,1-1.5-1.5V101.74a1.5,1.5,0,1,1,3,0v20.72A1.5,1.5,0,0,1,47.9,124Z"/><path class="cls-1" d="M1.5,124a1.5,1.5,0,0,1-1.5-1.5V101.74a1.5,1.5,0,0,1,3,0v20.72A1.5,1.5,0,0,1,1.5,124Z"/><path class="cls-1" d="M326.31,124a1.5,1.5,0,0,1-1.5-1.5V101.74a1.5,1.5,0,0,1,3,0v20.72A1.5,1.5,0,0,1,326.31,124Z"/><path class="cls-1" d="M372,124a1.5,1.5,0,0,1-1.5-1.5V101.74a1.5,1.5,0,0,1,3,0v20.72A1.5,1.5,0,0,1,372,124Z"/><path class="cls-1" d="M279.91,83.86a1.5,1.5,0,0,1-1.5-1.5V61.64a1.5,1.5,0,1,1,3,0V82.36A1.5,1.5,0,0,1,279.91,83.86Z"/><path class="cls-1" d="M187.11,200.43a1.5,1.5,0,0,1-1.5-1.5V178.21a1.5,1.5,0,0,1,3,0v20.72A1.5,1.5,0,0,1,187.11,200.43Z"/><path class="cls-1" d="M24.7,220.48a1.5,1.5,0,0,1-1.5-1.5V198.26a1.5,1.5,0,0,1,3,0V219A1.5,1.5,0,0,1,24.7,220.48Z"/><path class="cls-1" d="M1.5,200.43a1.5,1.5,0,0,1-1.5-1.5V178.21a1.5,1.5,0,0,1,3,0v20.72A1.5,1.5,0,0,1,1.5,200.43Z"/><path class="cls-1" d="M1.5,163.36a1.5,1.5,0,0,1-1.5-1.5V141.14a1.5,1.5,0,0,1,3,0v20.72A1.5,1.5,0,0,1,1.5,163.36Z"/><path class="cls-1" d="M1.5,240.52A1.5,1.5,0,0,1,0,239V218.31a1.5,1.5,0,0,1,3,0V239A1.5,1.5,0,0,1,1.5,240.52Z"/><path class="cls-1" d="M372,200.43a1.5,1.5,0,0,1-1.5-1.5V178.21a1.5,1.5,0,0,1,3,0v20.72A1.5,1.5,0,0,1,372,200.43Z"/><path class="cls-1" d="M372,162.72a1.5,1.5,0,0,1-1.5-1.5V140.5a1.5,1.5,0,0,1,3,0v20.72A1.5,1.5,0,0,1,372,162.72Z"/><path class="cls-1" d="M349.51,220.48A1.5,1.5,0,0,1,348,219V198.26a1.5,1.5,0,1,1,3,0V219A1.5,1.5,0,0,1,349.51,220.48Z"/><path class="cls-1" d="M24.7,260.57a1.5,1.5,0,0,1-1.5-1.5V238.36a1.5,1.5,0,0,1,3,0v20.72A1.5,1.5,0,0,1,24.7,260.57Z"/><path class="cls-1" d="M349.51,260.57a1.5,1.5,0,0,1-1.5-1.5V238.36a1.5,1.5,0,1,1,3,0v20.72A1.5,1.5,0,0,1,349.51,260.57Z"/><path class="cls-1" d="M24.7,300.67a1.5,1.5,0,0,1-1.5-1.5V278.45a1.5,1.5,0,0,1,3,0v20.72A1.5,1.5,0,0,1,24.7,300.67Z"/><path class="cls-1" d="M349.51,300.67a1.5,1.5,0,0,1-1.5-1.5V278.45a1.5,1.5,0,0,1,3,0v20.72A1.5,1.5,0,0,1,349.51,300.67Z"/><path class="cls-1" d="M163.9,180.38a1.5,1.5,0,0,1-1.5-1.5V158.17a1.5,1.5,0,0,1,3,0v20.72A1.5,1.5,0,0,1,163.9,180.38Z"/><path class="cls-1" d="M210.31,180.38a1.5,1.5,0,0,1-1.5-1.5V158.17a1.5,1.5,0,0,1,3,0v20.72A1.5,1.5,0,0,1,210.31,180.38Z"/><path class="cls-1" d="M117.5,180.38a1.5,1.5,0,0,1-1.5-1.5V158.17a1.5,1.5,0,0,1,3,0v20.72A1.5,1.5,0,0,1,117.5,180.38Z"/><path class="cls-1" d="M24.7,180.38a1.5,1.5,0,0,1-1.5-1.5V158.17a1.5,1.5,0,0,1,3,0v20.72A1.5,1.5,0,0,1,24.7,180.38Z"/><path class="cls-1" d="M349.51,180.38a1.5,1.5,0,0,1-1.5-1.5V158.17a1.5,1.5,0,0,1,3,0v20.72A1.5,1.5,0,0,1,349.51,180.38Z"/><path class="cls-1" d="M256.71,180.38a1.5,1.5,0,0,1-1.5-1.5V158.17a1.5,1.5,0,0,1,3,0v20.72A1.5,1.5,0,0,1,256.71,180.38Z"/><path class="cls-1" d="M372,240.52a1.5,1.5,0,0,1-1.5-1.5V218.31a1.5,1.5,0,1,1,3,0V239A1.5,1.5,0,0,1,372,240.52Z"/><path class="cls-1" d="M1.5,280.62a1.5,1.5,0,0,1-1.5-1.5V258.4a1.5,1.5,0,0,1,3,0v20.72A1.5,1.5,0,0,1,1.5,280.62Z"/><path class="cls-1" d="M372,280.62a1.5,1.5,0,0,1-1.5-1.5V258.4a1.5,1.5,0,0,1,3,0v20.72A1.5,1.5,0,0,1,372,280.62Z"/><path class="cls-2" d="M186.54,31.15a5,5,0,0,0-5,5l0.36,351.94a11.36,11.36,0,0,1-11.76,11.36,11.54,11.54,0,0,1-11-11.61v-3.2a4.28,4.28,0,0,0-4.28-4.27h0a4.28,4.28,0,0,0-4.27,4.28v3.06c0,11.55,9.47,21.22,21,21A20.37,20.37,0,0,0,191.77,388L191.53,36.13a5,5,0,0,0-5-5h0Z"/><path class="cls-1" d="M171.29,410.21a21.74,21.74,0,0,1-15.3-6.32,22.84,22.84,0,0,1-6.83-16.18v-3.06a5.78,5.78,0,0,1,5.77-5.78h0a5.78,5.78,0,0,1,5.78,5.77v3.2a10.08,10.08,0,0,0,9.51,10.12,9.86,9.86,0,0,0,10.21-9.86L180.07,36.14a6.48,6.48,0,0,1,6.47-6.49h0A6.48,6.48,0,0,1,193,36.13L193.27,388a22,22,0,0,1-4,12.84,22.22,22.22,0,0,1-17.62,9.33h-0.42Zm-16.36-28.35h0a2.78,2.78,0,0,0-2.77,2.78v3.06a19.82,19.82,0,0,0,5.93,14,18.57,18.57,0,0,0,13.56,5.46,19.2,19.2,0,0,0,15.23-8.06,19,19,0,0,0,3.4-11.1L190,36.13a3.48,3.48,0,0,0-3.48-3.48h0v0a3.48,3.48,0,0,0-3.48,3.48l0.36,351.94a12.86,12.86,0,0,1-13.31,12.87,13.11,13.11,0,0,1-12.41-13.11v-3.2A2.78,2.78,0,0,0,154.93,381.86Z"/><path class="cls-3" d="M191.56,81.18l0-45a5,5,0,0,0-5-5h0a5,5,0,0,0-5,5l0,46.37"/><path class="cls-1" d="M181.61,84a1.5,1.5,0,0,1-1.5-1.5l0-46.37a6.48,6.48,0,0,1,6.47-6.49h0A6.48,6.48,0,0,1,193,36.13l0,45a1.5,1.5,0,0,1-1.5,1.5h0a1.5,1.5,0,0,1-1.5-1.5l0-45a3.48,3.48,0,0,0-3.48-3.48h0a3.48,3.48,0,0,0-3.48,3.48l0,46.37a1.5,1.5,0,0,1-1.5,1.5h0Z"/><path class="cls-4" d="M154.93,380.36"/><path class="cls-5" d="M73.87,178.34a40.8,40.8,0,0,1,37.63,24.94,40.8,40.8,0,0,1,75.22-.08,40.8,40.8,0,0,1,75.22-.08,40.79,40.79,0,0,1,76.37,3,151.59,151.59,0,0,0-303.17.31A40.8,40.8,0,0,1,73.87,178.34Z"/><path class="cls-1" d="M35.14,208l-0.24,0a1.5,1.5,0,0,1-1.27-1.48C33.57,122.08,102.17,53.35,186.57,53.26h0.16c84.32,0,153,68.55,153.08,152.89a1.5,1.5,0,0,1-2.92.47,39.2,39.2,0,0,0-37.32-27h0a39.22,39.22,0,0,0-36.2,24.1,1.5,1.5,0,0,1-1.38.92h0a1.5,1.5,0,0,1-1.38-.92,39.22,39.22,0,0,0-36.21-24h0a39.22,39.22,0,0,0-36.2,24.1,1.5,1.5,0,0,1-1.38.92h0a1.5,1.5,0,0,1-1.38-.92,39.22,39.22,0,0,0-36.21-24h0a39.22,39.22,0,0,0-36.2,24.1,1.5,1.5,0,0,1-1.38.92h0a1.5,1.5,0,0,1-1.38-.92,39.22,39.22,0,0,0-36.21-24h0v0a39.2,39.2,0,0,0-37.31,27.09A1.5,1.5,0,0,1,35.14,208Zm38.77-31.13a42.2,42.2,0,0,1,37.59,22.9,42.2,42.2,0,0,1,37.58-23h0a42.2,42.2,0,0,1,37.59,22.9,42.2,42.2,0,0,1,37.58-23h0a42.2,42.2,0,0,1,37.59,22.9,42.2,42.2,0,0,1,37.58-23h0a42.18,42.18,0,0,1,37,21.87C332.5,119.35,266.81,56.26,186.73,56.26h-0.16c-80.16.08-145.8,63.34-149.74,142.53a42.19,42.19,0,0,1,37-21.95h0Z"/><path class="cls-1" d="M110.08,201.77a1.5,1.5,0,0,1-1.5-1.5c0-39.14,8-75.93,22.56-103.61,14.71-28,34.4-43.4,55.43-43.4a1.5,1.5,0,1,1,0,3c-41.35,0-75,64.6-75,144A1.5,1.5,0,0,1,110.08,201.77Z"/><path class="cls-1" d="M261.94,204.63a1.5,1.5,0,0,1-1.5-1.5c0-81-33.14-146.87-73.87-146.87a1.5,1.5,0,0,1,0-3c20.74,0,40.15,15.72,54.65,44.25,14.33,28.21,22.23,65.72,22.23,105.62A1.5,1.5,0,0,1,261.94,204.63Z"/><path class="cls-1" d="M186.72,204.71a1.5,1.5,0,0,1-1.5-1.5V55.09a1.5,1.5,0,1,1,3,0V203.21A1.5,1.5,0,0,1,186.72,204.71Z"/></svg>