<svg id="Layer_1" data-name="Layer 1" xmlns="http://www.w3.org/2000/svg" viewBox="0 0 960 550"><defs><style>.cls-1{fill:none;}.cls-2{fill:#f6f6f6;}.cls-3{fill:#231f20;}.cls-4{fill:#fff;}</style></defs><title>Slide-39-Data-Types-Chart</title><rect class="cls-1" width="960" height="550"/><rect class="cls-2" x="29.33" y="111" width="300.67" height="44"/><path class="cls-3" d="M301.67,45H0V0H301.67V45ZM1,44H300.67V1H1V44Z" transform="translate(28.83 110.5)"/><rect class="cls-2" x="330" y="111" width="300.67" height="44"/><path class="cls-3" d="M602.33,45H300.67V0H602.33V45ZM301.67,44H601.33V1H301.67V44Z" transform="translate(28.83 110.5)"/><rect class="cls-2" x="630.67" y="111" width="300.67" height="44"/><path class="cls-3" d="M903,45H601.33V0H903V45ZM602.33,44H902V1H602.33V44Z" transform="translate(28.83 110.5)"/><rect class="cls-4" x="29.33" y="155" width="300.67" height="71.5"/><path class="cls-3" d="M301.67,116.5H0V44H301.67v72.5ZM1,115.5H300.67V45H1v70.5Z" transform="translate(28.83 110.5)"/><rect class="cls-4" x="330" y="155" width="300.67" height="71.5"/><path class="cls-3" d="M602.33,116.5H300.67V44H602.33v72.5Zm-300.67-1H601.33V45H301.67v70.5Z" transform="translate(28.83 110.5)"/><rect class="cls-4" x="630.67" y="155" width="300.67" height="71.5"/><path class="cls-3" d="M903,116.5H601.33V44H903v72.5Zm-300.67-1H902V45H602.33v70.5Z" transform="translate(28.83 110.5)"/><rect class="cls-4" x="29.33" y="226.5" width="300.67" height="71.5"/><path class="cls-3" d="M301.67,188H0V115.5H301.67V188ZM1,187H300.67V116.5H1V187Z" transform="translate(28.83 110.5)"/><rect class="cls-4" x="330" y="226.5" width="300.67" height="71.5"/><path class="cls-3" d="M602.33,188H300.67V115.5H602.33V188Zm-300.67-1H601.33V116.5H301.67V187Z" transform="translate(28.83 110.5)"/><rect class="cls-4" x="630.67" y="226.5" width="300.67" height="71.5"/><path class="cls-3" d="M903,188H601.33V115.5H903V188Zm-300.67-1H902V116.5H602.33V187Z" transform="translate(28.83 110.5)"/><rect class="cls-4" x="29.33" y="297.33" width="300.67" height="125.11"/><path class="cls-3" d="M301.67,312.44H0V186.33H301.67V312.44ZM1,311.44H300.67V187.33H1V311.44Z" transform="translate(28.83 110.5)"/><rect class="cls-4" x="330" y="297.33" width="300.67" height="125.11"/><path class="cls-3" d="M602.33,312.44H300.67V186.33H602.33V312.44Zm-300.67-1H601.33V187.33H301.67V311.44Z" transform="translate(28.83 110.5)"/><rect class="cls-4" x="630.67" y="297.33" width="300.67" height="125.11"/><path class="cls-3" d="M903,312.44H601.33V186.33H903V312.44Zm-300.67-1H902V187.33H602.33V311.44Z" transform="translate(28.83 110.5)"/><path d="M102.09,30.11V21H98.82V19a3.48,3.48,0,0,0,3.65-2.56H105V30.11h-2.88Z" transform="translate(28.83 110.5)"/><path d="M109.59,26.43a1.91,1.91,0,1,1-1.91,1.91A1.92,1.92,0,0,1,109.59,26.43Z" transform="translate(28.83 110.5)"/><path d="M129.41,30.11l-6.76-10.56V30.11h-2.9V15.22h3.61l6.19,9.85V15.22h2.9V30.11h-3Z" transform="translate(28.83 110.5)"/><path d="M142.33,29a3.26,3.26,0,0,1-2.86,1.39,3.81,3.81,0,0,1-3.93-4.07V19.78h2.79v6a1.84,1.84,0,0,0,1.89,2.08,1.86,1.86,0,0,0,2-2v-6H145v8.46a17,17,0,0,0,.1,1.87h-2.67A7.07,7.07,0,0,1,142.33,29Z" transform="translate(28.83 110.5)"/><path d="M148,30.11V19.78h2.67V21a3.55,3.55,0,0,1,3-1.55,3.2,3.2,0,0,1,3.07,1.72,3.82,3.82,0,0,1,7,2.2v6.7H161V24a1.72,1.72,0,0,0-1.83-2,1.9,1.9,0,0,0-1.91,2v6h-2.77V24a1.73,1.73,0,0,0-1.83-2,1.89,1.89,0,0,0-1.93,2v6H148Z" transform="translate(28.83 110.5)"/><path d="M175.82,27.15a4.65,4.65,0,0,1-4.7,3.28,5.23,5.23,0,0,1-5.33-5.52,5.19,5.19,0,0,1,5.08-5.44c3.19,0,5.1,2,5.1,5.35,0,0.4,0,.82,0,0.86h-7.39a2.52,2.52,0,0,0,2.6,2.35,2.28,2.28,0,0,0,2.35-1.57Zm-2.6-3.38a2.08,2.08,0,0,0-2.31-2,2.24,2.24,0,0,0-2.31,2h4.62Z" transform="translate(28.83 110.5)"/><path d="M184.47,22.55a4.2,4.2,0,0,0-.84-0.08c-1.43,0-2.67.69-2.67,2.92v4.72h-2.79V19.78h2.71v1.53a3.07,3.07,0,0,1,2.94-1.62,6.36,6.36,0,0,1,.65,0v2.81Z" transform="translate(28.83 110.5)"/><path d="M187.83,14.65a1.72,1.72,0,1,1-1.72,1.74A1.72,1.72,0,0,1,187.83,14.65Zm-1.39,15.45V19.78h2.79V30.11h-2.79Z" transform="translate(28.83 110.5)"/><path d="M194.24,24.94a2.66,2.66,0,0,0,2.65,2.92,2.36,2.36,0,0,0,2.37-1.74l2.46,0.82a4.8,4.8,0,0,1-4.83,3.49,5.34,5.34,0,0,1-5.44-5.48,5.29,5.29,0,0,1,5.35-5.48,4.73,4.73,0,0,1,4.85,3.49l-2.5.84A2.25,2.25,0,0,0,196.86,22,2.63,2.63,0,0,0,194.24,24.94Z" transform="translate(28.83 110.5)"/><path d="M32.71,89.77V83.16h-7.6v6.61H23.06V74.89h2.06v6.36h7.6V74.89h2.06V89.77H32.71Z" transform="translate(28.83 110.5)"/><path d="M40.67,84l2.73-.4a0.74,0.74,0,0,0,.78-0.76c0-1-.65-1.81-2.18-1.81a2.14,2.14,0,0,0-2.29,2l-1.89-.44A3.89,3.89,0,0,1,42,79.36c3,0,4.2,1.72,4.2,3.7v5.06a9.5,9.5,0,0,0,.13,1.66H44.35a7.39,7.39,0,0,1-.1-1.36A3.68,3.68,0,0,1,41,90.09a3.15,3.15,0,0,1-3.38-3C37.61,85.26,38.93,84.25,40.67,84Zm3.51,1.45V85l-3.09.46A1.51,1.51,0,0,0,39.62,87a1.53,1.53,0,0,0,1.64,1.47A2.65,2.65,0,0,0,44.18,85.45Z" transform="translate(28.83 110.5)"/><path d="M51.19,89.77h-2V79.68h1.93v1.45a3.46,3.46,0,0,1,3.11-1.74c2.41,0,3.61,1.74,3.61,4v6.4h-2V83.71c0-1.41-.59-2.54-2.35-2.54-1.55,0-2.35,1.24-2.35,2.77v5.84Z" transform="translate(28.83 110.5)"/><path d="M68.1,88.24A3.38,3.38,0,0,1,65,90c-3,0-4.79-2.35-4.79-5.35S62.11,79.4,65,79.4a3.1,3.1,0,0,1,3.09,1.7V74.57h2V87.91a16,16,0,0,0,.1,1.87H68.2a8.46,8.46,0,0,1-.1-1.36V88.24Zm-2.94.06c1.81,0,2.92-1.57,2.92-3.65s-1.09-3.51-2.9-3.51-3,1.47-3,3.55S63.27,88.31,65.16,88.31Z" transform="translate(28.83 110.5)"/><path d="M73.37,89.77V74.57h2v15.2h-2Z" transform="translate(28.83 110.5)"/><path d="M87.5,86.9A4.58,4.58,0,0,1,83,90.09a5.38,5.38,0,0,1-.25-10.73c3.11,0,4.85,2.14,4.85,5.29a4.44,4.44,0,0,1,0,.63h-7.6a3,3,0,0,0,3,3.07,2.75,2.75,0,0,0,2.83-2Zm-2-3.21a2.54,2.54,0,0,0-2.77-2.58A2.72,2.72,0,0,0,80,83.69h5.52Z" transform="translate(28.83 110.5)"/><path d="M90.93,86.52a2.15,2.15,0,0,0,2.35,1.89A1.49,1.49,0,0,0,95,87.07a1.4,1.4,0,0,0-1.3-1.3L92,85.39a2.87,2.87,0,0,1-2.52-2.83A3.44,3.44,0,0,1,93,79.36a3.58,3.58,0,0,1,3.84,2.71l-1.74.65A2,2,0,0,0,93,81a1.52,1.52,0,0,0-1.68,1.34,1.24,1.24,0,0,0,1.15,1.22L94.16,84C96,84.36,97,85.47,97,87s-1.2,3.13-3.7,3.13c-2.77,0-3.95-1.78-4.12-2.94Z" transform="translate(28.83 110.5)"/><path d="M106.8,89.77h-2V79.68h1.93v1.45a3.46,3.46,0,0,1,3.11-1.74c2.41,0,3.61,1.74,3.61,4v6.4h-2V83.71c0-1.41-.59-2.54-2.35-2.54-1.55,0-2.35,1.24-2.35,2.77v5.84Z" transform="translate(28.83 110.5)"/><path d="M120.1,90.09A3.73,3.73,0,0,1,116.32,86V79.68h2v6.07c0,1.39.63,2.6,2.29,2.6A2.28,2.28,0,0,0,123,85.76V79.68h2v8.23a17,17,0,0,0,.1,1.87h-1.89a8.94,8.94,0,0,1-.08-1.22A3.29,3.29,0,0,1,120.1,90.09Z" transform="translate(28.83 110.5)"/><path d="M128.31,89.77V79.68h1.89V81a3.48,3.48,0,0,1,3.07-1.64,3.15,3.15,0,0,1,3,1.91,3.63,3.63,0,0,1,3.38-1.91c1.76,0,3.49,1.2,3.49,3.84v6.55h-2V83.43a2,2,0,0,0-2.14-2.31,2.35,2.35,0,0,0-2.33,2.54v6.11h-2V83.43a2,2,0,0,0-2.14-2.31,2.34,2.34,0,0,0-2.35,2.56v6.09h-2Z" transform="translate(28.83 110.5)"/><path d="M146.3,89.77V74.57h2V81.1a3.68,3.68,0,0,1,3.34-1.72c3.07,0,4.64,2.35,4.64,5.29s-1.7,5.38-4.7,5.38a3.6,3.6,0,0,1-3.28-1.74v1.47h-2Zm4.93-8.65c-1.74,0-3,1.36-3,3.55s1.26,3.61,3,3.61,3-1.43,3-3.61S153.06,81.12,151.24,81.12Z" transform="translate(28.83 110.5)"/><path d="M167.55,86.9A4.58,4.58,0,0,1,163,90.09a5.38,5.38,0,0,1-.25-10.73c3.11,0,4.85,2.14,4.85,5.29a4.44,4.44,0,0,1,0,.63H160a3,3,0,0,0,3,3.07,2.75,2.75,0,0,0,2.83-2Zm-2-3.21a2.54,2.54,0,0,0-2.77-2.58A2.72,2.72,0,0,0,160,83.69h5.52Z" transform="translate(28.83 110.5)"/><path d="M175.74,81.67a6.16,6.16,0,0,0-.86-0.06c-1.66,0-2.77.88-2.77,3.11v5.06h-2V79.68h1.93v1.76a3.16,3.16,0,0,1,3-1.93,3.71,3.71,0,0,1,.65.06v2.1Z" transform="translate(28.83 110.5)"/><path d="M178.68,86.52A2.15,2.15,0,0,0,181,88.41a1.49,1.49,0,0,0,1.72-1.34,1.4,1.4,0,0,0-1.3-1.3l-1.72-.38a2.87,2.87,0,0,1-2.52-2.83,3.44,3.44,0,0,1,3.59-3.19,3.58,3.58,0,0,1,3.84,2.71l-1.74.65a2,2,0,0,0-2.1-1.68,1.52,1.52,0,0,0-1.68,1.34,1.24,1.24,0,0,0,1.15,1.22L181.92,84c1.83,0.4,2.79,1.51,2.79,3s-1.2,3.13-3.7,3.13c-2.77,0-3.95-1.78-4.12-2.94Z" transform="translate(28.83 110.5)"/><path d="M23.06,146.39V131.5h9v1.91h-7V138h6.34v1.93H25.11v4.56h7v1.91h-9Z" transform="translate(28.83 110.5)"/><path d="M37.33,141.24l-3.63-5H36.1l2.48,3.55L41,136.29h2.33l-3.59,5c0.61,0.82,3.11,4.33,3.72,5.14H41.09l-2.6-3.72-2.56,3.72H33.58Z" transform="translate(28.83 110.5)"/><path d="M46.7,136.18a1.46,1.46,0,0,1,1.47,1.47,1.44,1.44,0,0,1-1.47,1.45,1.43,1.43,0,0,1-1.45-1.45A1.44,1.44,0,0,1,46.7,136.18Zm0,7.39A1.46,1.46,0,0,1,48.19,145a1.44,1.44,0,0,1-1.47,1.45A1.43,1.43,0,0,1,45.27,145,1.44,1.44,0,0,1,46.72,143.58Z" transform="translate(28.83 110.5)"/><path d="M55.92,137.42a4.93,4.93,0,0,1,0-.55,4.39,4.39,0,0,1,4.7-4.41c2.92,0,4.6,1.91,4.6,4.18a5,5,0,0,1-2.56,4.2L60,142.57a3.33,3.33,0,0,0-1.66,1.91h7v1.91H55.75A6.13,6.13,0,0,1,59,141l2.27-1.47a3.4,3.4,0,0,0,1.87-2.83,2.35,2.35,0,0,0-2.56-2.39,2.51,2.51,0,0,0-2.62,2.79c0,0.19,0,.4,0,0.61Z" transform="translate(28.83 110.5)"/><path d="M68.39,134.65a5.09,5.09,0,0,1,8.36,0,10.6,10.6,0,0,1,0,9.87,5.09,5.09,0,0,1-8.36,0A10.6,10.6,0,0,1,68.39,134.65Zm2,9.34a3.09,3.09,0,0,0,4.33,0c0.82-.86,1.2-2.33,1.2-4.41s-0.38-3.55-1.2-4.41a3.09,3.09,0,0,0-4.33,0c-0.82.86-1.2,2.33-1.2,4.41S69.59,143.13,70.41,144Z" transform="translate(28.83 110.5)"/><path d="M81.18,134.65a5.09,5.09,0,0,1,8.36,0,10.6,10.6,0,0,1,0,9.87,5.09,5.09,0,0,1-8.36,0A10.6,10.6,0,0,1,81.18,134.65Zm2,9.34a3.09,3.09,0,0,0,4.33,0c0.82-.86,1.2-2.33,1.2-4.41s-0.38-3.55-1.2-4.41a3.09,3.09,0,0,0-4.33,0c-0.82.86-1.2,2.33-1.2,4.41S82.38,143.13,83.2,144Z" transform="translate(28.83 110.5)"/><path d="M93.89,143.58A1.46,1.46,0,0,1,95.36,145a1.44,1.44,0,0,1-1.47,1.45A1.43,1.43,0,0,1,92.44,145,1.44,1.44,0,0,1,93.89,143.58Z" transform="translate(28.83 110.5)"/><path d="M99.54,142.11a2.94,2.94,0,0,0,3.07,2.81,2.79,2.79,0,1,0,0-5.56,3.49,3.49,0,0,0-2.48,1c-0.71-.27-1.32-0.55-2-0.8l1.76-6.76H107v1.89h-5.82l-1,3.91a3.81,3.81,0,0,1,2.77-1,4.31,4.31,0,0,1,4.62,4.51,4.67,4.67,0,0,1-5,4.64c-2.9,0-4.85-1.89-5-4Z" transform="translate(28.83 110.5)"/><path d="M109.07,141l5.84-8.17h2.83v8.63h2.33v1.91h-2.33v3.07h-2v-3.07h-6.68V141Zm6.68-6.19L111,141.41h4.79v-6.66Z" transform="translate(28.83 110.5)"/><path d="M23.06,172.39V157.5h9v1.91h-7V164h6.34v1.93H25.11v4.56h7v1.91h-9Z" transform="translate(28.83 110.5)"/><path d="M37.33,167.25l-3.63-5H36.1l2.48,3.55L41,162.29h2.33l-3.59,5c0.61,0.82,3.11,4.33,3.72,5.14H41.09l-2.6-3.72-2.56,3.72H33.58Z" transform="translate(28.83 110.5)"/><path d="M46.7,162.18a1.46,1.46,0,0,1,1.47,1.47,1.44,1.44,0,0,1-1.47,1.45,1.43,1.43,0,0,1-1.45-1.45A1.44,1.44,0,0,1,46.7,162.18Zm0,7.39A1.46,1.46,0,0,1,48.19,171a1.44,1.44,0,0,1-1.47,1.45A1.43,1.43,0,0,1,45.27,171,1.44,1.44,0,0,1,46.72,169.58Z" transform="translate(28.83 110.5)"/><path d="M56,168.8a3.56,3.56,0,0,1,2.58-3.36,3.42,3.42,0,0,1-2.23-3.19c0-2.23,2-3.78,4.58-3.78s4.58,1.55,4.58,3.78a3.44,3.44,0,0,1-2.23,3.19,3.54,3.54,0,0,1,2.58,3.36c0,2.18-1.81,3.91-4.93,3.91S56,171,56,168.8Zm7.79-.17c0-1.3-1-2.33-2.86-2.33s-2.86,1-2.86,2.33,1,2.29,2.86,2.29S63.75,169.91,63.75,168.63Zm-0.34-6.28a2.55,2.55,0,0,0-5,0A2.54,2.54,0,0,0,63.42,162.35Z" transform="translate(28.83 110.5)"/><path d="M68.65,170.21a5.27,5.27,0,0,0,2.48.65c3.3,0,4.64-2.16,4.72-4.83a3.84,3.84,0,0,1-3.53,1.74,4.51,4.51,0,0,1-4.7-4.6,4.79,4.79,0,0,1,5-4.7c2.67,0,5.29,1.91,5.29,6.26,0,5-2.23,8-6.8,8a6.59,6.59,0,0,1-3.15-.8Zm4-9.93a2.84,2.84,0,0,0-2.94,2.86A2.79,2.79,0,0,0,72.63,166,2.87,2.87,0,1,0,72.63,160.27Z" transform="translate(28.83 110.5)"/><path d="M82.59,164.37l4-3.7H80.09v-1.89h9.24v1.85l-3.88,3.59a4,4,0,0,1,4.2,4.14c0,2.29-1.76,4.37-4.93,4.37s-4.93-2.06-5.06-4.28l2-.46a2.94,2.94,0,0,0,3,2.94,2.57,2.57,0,0,0,2.88-2.52,2.53,2.53,0,0,0-2.77-2.54,3.67,3.67,0,0,0-1.2.21Z" transform="translate(28.83 110.5)"/><path d="M22.85,226.86v-9.8h2v9.74c0,2.27,1.24,3.55,3.32,3.55s3.3-1.28,3.3-3.55v-9.74h2.06v9.8a5,5,0,0,1-5.35,5.4A5,5,0,0,1,22.85,226.86Z" transform="translate(28.83 110.5)"/><path d="M37.75,228.69a2.15,2.15,0,0,0,2.35,1.89,1.49,1.49,0,0,0,1.72-1.34,1.4,1.4,0,0,0-1.3-1.3l-1.72-.38a2.87,2.87,0,0,1-2.52-2.83,3.44,3.44,0,0,1,3.59-3.19,3.58,3.58,0,0,1,3.84,2.71l-1.74.65a2,2,0,0,0-2.1-1.68,1.52,1.52,0,0,0-1.68,1.34,1.24,1.24,0,0,0,1.15,1.22L41,226.13c1.83,0.4,2.79,1.51,2.79,3s-1.2,3.13-3.7,3.13c-2.77,0-3.95-1.79-4.12-2.94Z" transform="translate(28.83 110.5)"/><path d="M55.1,229.07a4.58,4.58,0,0,1-4.54,3.19,5.38,5.38,0,0,1-.25-10.73c3.11,0,4.85,2.14,4.85,5.29a4.44,4.44,0,0,1,0,.63h-7.6a3,3,0,0,0,3,3.07,2.75,2.75,0,0,0,2.83-2Zm-2-3.21a2.54,2.54,0,0,0-2.77-2.58,2.72,2.72,0,0,0-2.75,2.58H53.1Z" transform="translate(28.83 110.5)"/><path d="M64.76,230.41a3.38,3.38,0,0,1-3.13,1.81c-3,0-4.79-2.35-4.79-5.35s1.93-5.29,4.79-5.29a3.1,3.1,0,0,1,3.09,1.7v-6.53h2v13.33a16,16,0,0,0,.1,1.87H64.86a8.45,8.45,0,0,1-.1-1.36v-0.17Zm-2.94.06c1.81,0,2.92-1.57,2.92-3.65s-1.09-3.51-2.9-3.51-3,1.47-3,3.55S59.93,230.47,61.82,230.47Z" transform="translate(28.83 110.5)"/><path d="M77.93,223.63v8.31h-2v-8.31H74v-1.78h1.87v-1.7a3.2,3.2,0,0,1,3.32-3.46,2.54,2.54,0,0,1,1.18.21v1.76a2.28,2.28,0,0,0-.86-0.13,1.51,1.51,0,0,0-1.6,1.72v1.6h2.44v1.78H77.93Z" transform="translate(28.83 110.5)"/><path d="M91.56,226.88a5.17,5.17,0,1,1-5.17-5.35A5.1,5.1,0,0,1,91.56,226.88Zm-2,0c0-2.33-1.47-3.59-3.15-3.59s-3.15,1.26-3.15,3.59,1.47,3.61,3.15,3.61S89.54,229.24,89.54,226.88Z" transform="translate(28.83 110.5)"/><path d="M99.68,223.84a6.16,6.16,0,0,0-.86-0.06c-1.66,0-2.77.88-2.77,3.11v5.06h-2v-10.1H96v1.76a3.16,3.16,0,0,1,3-1.93,3.77,3.77,0,0,1,.65.06v2.1Z" transform="translate(28.83 110.5)"/><path d="M109.68,221.85h2.18v1.78h-2.18v5.25a1.2,1.2,0,0,0,1.41,1.39,4,4,0,0,0,.78-0.08v1.68a4.3,4.3,0,0,1-1.34.19,2.62,2.62,0,0,1-2.81-2.88v-5.54h-1.93v-1.78h0.55a1.41,1.41,0,0,0,1.55-1.55v-1.64h1.81v3.19Z" transform="translate(28.83 110.5)"/><path d="M116.92,226.17l2.73-.4a0.73,0.73,0,0,0,.78-0.76c0-1-.65-1.81-2.18-1.81a2.14,2.14,0,0,0-2.29,2l-1.89-.44a3.89,3.89,0,0,1,4.14-3.28c3,0,4.2,1.72,4.2,3.7v5.06a9.49,9.49,0,0,0,.13,1.66H120.6a7.39,7.39,0,0,1-.1-1.36,3.68,3.68,0,0,1-3.25,1.68,3.15,3.15,0,0,1-3.38-3C113.86,227.43,115.18,226.42,116.92,226.17Zm3.51,1.45v-0.46l-3.09.46a1.51,1.51,0,0,0-1.47,1.51,1.53,1.53,0,0,0,1.64,1.47A2.65,2.65,0,0,0,120.43,227.62Z" transform="translate(28.83 110.5)"/><path d="M126.31,228.69a2.15,2.15,0,0,0,2.35,1.89,1.49,1.49,0,0,0,1.72-1.34,1.4,1.4,0,0,0-1.3-1.3l-1.72-.38a2.87,2.87,0,0,1-2.52-2.83,3.44,3.44,0,0,1,3.59-3.19,3.58,3.58,0,0,1,3.84,2.71l-1.74.65a2,2,0,0,0-2.1-1.68,1.52,1.52,0,0,0-1.68,1.34,1.24,1.24,0,0,0,1.15,1.22l1.64,0.36c1.83,0.4,2.79,1.51,2.79,3s-1.2,3.13-3.7,3.13c-2.77,0-3.95-1.79-4.12-2.94Z" transform="translate(28.83 110.5)"/><path d="M139.71,226.11l4.39,5.84h-2.48l-3.3-4.45-1.41,1.41v3h-2v-15.2h2v9.57l4.37-4.47H144Z" transform="translate(28.83 110.5)"/><path d="M146.83,228.69a2.15,2.15,0,0,0,2.35,1.89,1.49,1.49,0,0,0,1.72-1.34,1.4,1.4,0,0,0-1.3-1.3l-1.72-.38a2.87,2.87,0,0,1-2.52-2.83,3.44,3.44,0,0,1,3.59-3.19,3.58,3.58,0,0,1,3.84,2.71l-1.74.65a2,2,0,0,0-2.1-1.68,1.52,1.52,0,0,0-1.68,1.34,1.24,1.24,0,0,0,1.15,1.22l1.64,0.36c1.83,0.4,2.79,1.51,2.79,3s-1.2,3.13-3.7,3.13c-2.77,0-3.95-1.79-4.12-2.94Z" transform="translate(28.83 110.5)"/><path d="M163.38,221.85h2.18v1.78h-2.18v5.25a1.2,1.2,0,0,0,1.41,1.39,4,4,0,0,0,.78-0.08v1.68a4.3,4.3,0,0,1-1.34.19,2.62,2.62,0,0,1-2.81-2.88v-5.54h-1.93v-1.78H160a1.41,1.41,0,0,0,1.55-1.55v-1.64h1.81v3.19Z" transform="translate(28.83 110.5)"/><path d="M170.16,231.94h-2v-15.2h2V223a3.57,3.57,0,0,1,3.07-1.47c2.41,0,3.61,1.74,3.61,4v6.4h-2v-6.07c0-1.41-.59-2.54-2.35-2.54-1.51,0-2.31,1.18-2.35,2.67v5.94Z" transform="translate(28.83 110.5)"/><path d="M182.42,226.17l2.73-.4a0.73,0.73,0,0,0,.78-0.76c0-1-.65-1.81-2.18-1.81a2.14,2.14,0,0,0-2.29,2l-1.89-.44a3.89,3.89,0,0,1,4.14-3.28c3,0,4.2,1.72,4.2,3.7v5.06a9.49,9.49,0,0,0,.13,1.66H186.1a7.39,7.39,0,0,1-.1-1.36,3.68,3.68,0,0,1-3.25,1.68,3.15,3.15,0,0,1-3.38-3C179.36,227.43,180.68,226.42,182.42,226.17Zm3.51,1.45v-0.46l-3.09.46a1.51,1.51,0,0,0-1.47,1.51A1.53,1.53,0,0,0,183,230.6,2.65,2.65,0,0,0,185.93,227.62Z" transform="translate(28.83 110.5)"/><path d="M193.61,221.85h2.18v1.78h-2.18v5.25a1.2,1.2,0,0,0,1.41,1.39,4,4,0,0,0,.78-0.08v1.68a4.3,4.3,0,0,1-1.34.19,2.62,2.62,0,0,1-2.81-2.88v-5.54h-1.93v-1.78h0.55a1.41,1.41,0,0,0,1.55-1.55v-1.64h1.81v3.19Z" transform="translate(28.83 110.5)"/><path d="M23.81,240.6A1.42,1.42,0,1,1,22.4,242,1.42,1.42,0,0,1,23.81,240.6Zm-1,15.35v-10.1h2v10.1h-2Z" transform="translate(28.83 110.5)"/><path d="M30.13,255.94h-2v-10.1h1.93v1.45a3.46,3.46,0,0,1,3.11-1.74c2.41,0,3.61,1.74,3.61,4v6.4h-2v-6.07c0-1.41-.59-2.54-2.35-2.54-1.55,0-2.35,1.24-2.35,2.77v5.84Z" transform="translate(28.83 110.5)"/><path d="M44.58,255.94h-2l-4.09-10.1h2.23l2.88,7.79,2.9-7.79h2.12Z" transform="translate(28.83 110.5)"/><path d="M59.68,250.88a5.17,5.17,0,1,1-5.17-5.35A5.1,5.1,0,0,1,59.68,250.88Zm-2,0c0-2.33-1.47-3.59-3.15-3.59s-3.15,1.26-3.15,3.59,1.47,3.61,3.15,3.61S57.66,253.24,57.66,250.88Z" transform="translate(28.83 110.5)"/><path d="M62.2,255.94v-15.2h2v15.2h-2Z" transform="translate(28.83 110.5)"/><path d="M72.15,255.94h-2l-4.09-10.1h2.23l2.88,7.79,2.9-7.79h2.12Z" transform="translate(28.83 110.5)"/><path d="M86.56,253.07A4.58,4.58,0,0,1,82,256.26a5.38,5.38,0,0,1-.25-10.73c3.11,0,4.85,2.14,4.85,5.29a4.44,4.44,0,0,1,0,.63H79a3,3,0,0,0,3,3.07,2.75,2.75,0,0,0,2.83-2Zm-2-3.21a2.54,2.54,0,0,0-2.77-2.58A2.72,2.72,0,0,0,79,249.86h5.52Z" transform="translate(28.83 110.5)"/><path d="M95.57,250.88c0,2.31,1.45,3.55,3.09,3.55a2.74,2.74,0,0,0,2.81-2.08l1.74,0.76a4.64,4.64,0,0,1-4.56,3.15,5.37,5.37,0,0,1,0-10.73,4.39,4.39,0,0,1,4.49,3.21l-1.78.76a2.65,2.65,0,0,0-2.71-2.14C97,247.36,95.57,248.53,95.57,250.88Z" transform="translate(28.83 110.5)"/><path d="M114.91,250.88a5.17,5.17,0,1,1-5.17-5.35A5.1,5.1,0,0,1,114.91,250.88Zm-2,0c0-2.33-1.47-3.59-3.15-3.59s-3.15,1.26-3.15,3.59,1.47,3.61,3.15,3.61S112.89,253.24,112.89,250.88Z" transform="translate(28.83 110.5)"/><path d="M121,256.26a3.73,3.73,0,0,1-3.78-4.05v-6.36h2v6.07c0,1.39.63,2.6,2.29,2.6a2.28,2.28,0,0,0,2.39-2.58v-6.09h2v8.23a17,17,0,0,0,.1,1.87h-1.89a8.93,8.93,0,0,1-.08-1.22A3.3,3.3,0,0,1,121,256.26Z" transform="translate(28.83 110.5)"/><path d="M131.18,255.94h-2v-10.1h1.93v1.45a3.46,3.46,0,0,1,3.11-1.74c2.41,0,3.61,1.74,3.61,4v6.4h-2v-6.07c0-1.41-.59-2.54-2.35-2.54-1.55,0-2.35,1.24-2.35,2.77v5.84Z" transform="translate(28.83 110.5)"/><path d="M143.66,245.85h2.18v1.78h-2.18v5.25a1.2,1.2,0,0,0,1.41,1.39,4,4,0,0,0,.78-0.08v1.68a4.3,4.3,0,0,1-1.34.19,2.62,2.62,0,0,1-2.81-2.88v-5.54h-1.93v-1.78h0.55a1.41,1.41,0,0,0,1.55-1.55v-1.64h1.81v3.19Z" transform="translate(28.83 110.5)"/><path d="M149.43,240.6A1.42,1.42,0,1,1,148,242,1.42,1.42,0,0,1,149.43,240.6Zm-1,15.35v-10.1h2v10.1h-2Z" transform="translate(28.83 110.5)"/><path d="M155.75,255.94h-2v-10.1h1.93v1.45a3.46,3.46,0,0,1,3.11-1.74c2.41,0,3.61,1.74,3.61,4v6.4h-2v-6.07c0-1.41-.59-2.54-2.35-2.54-1.55,0-2.35,1.24-2.35,2.77v5.84Z" transform="translate(28.83 110.5)"/><path d="M166.76,256a2.69,2.69,0,0,0,2.75,2.48c2.12,0,3.09-1.09,3.09-3.28V253.8a3.36,3.36,0,0,1-3.09,1.66,4.91,4.91,0,0,1,0-9.81,3.19,3.19,0,0,1,3.11,1.6v-1.41h2v9.34c0,2.56-1.26,5.06-5.06,5.06a4.42,4.42,0,0,1-4.66-3.76Zm5.92-5.48c0-2-1.18-3.23-2.88-3.23a2.91,2.91,0,0,0-2.92,3.23c0,2,1.13,3.23,2.92,3.23S172.68,252.52,172.68,250.57Z" transform="translate(28.83 110.5)"/><path d="M192.46,250.88a5.17,5.17,0,1,1-5.17-5.35A5.1,5.1,0,0,1,192.46,250.88Zm-2,0c0-2.33-1.47-3.59-3.15-3.59s-3.15,1.26-3.15,3.59,1.47,3.61,3.15,3.61S190.44,253.24,190.44,250.88Z" transform="translate(28.83 110.5)"/><path d="M200.59,247.84a6.16,6.16,0,0,0-.86-0.06c-1.66,0-2.77.88-2.77,3.11v5.06h-2v-10.1h1.93v1.76a3.16,3.16,0,0,1,3-1.93,3.77,3.77,0,0,1,.65.06v2.1Z" transform="translate(28.83 110.5)"/><path d="M24,274.88c0,2.31,1.45,3.55,3.09,3.55a2.74,2.74,0,0,0,2.81-2.08l1.74,0.76a4.64,4.64,0,0,1-4.56,3.15,5.37,5.37,0,0,1,0-10.73,4.39,4.39,0,0,1,4.49,3.21l-1.78.76a2.65,2.65,0,0,0-2.71-2.14C25.49,271.36,24,272.53,24,274.88Z" transform="translate(28.83 110.5)"/><path d="M36.31,274.17l2.73-.4a0.73,0.73,0,0,0,.78-0.76c0-1-.65-1.81-2.18-1.81a2.14,2.14,0,0,0-2.29,2l-1.89-.44a3.89,3.89,0,0,1,4.14-3.28c3,0,4.2,1.72,4.2,3.7v5.06a9.49,9.49,0,0,0,.13,1.66H40a7.39,7.39,0,0,1-.1-1.36,3.68,3.68,0,0,1-3.25,1.68,3.15,3.15,0,0,1-3.38-3C33.24,275.43,34.56,274.42,36.31,274.17Zm3.51,1.45v-0.46l-3.09.46a1.51,1.51,0,0,0-1.47,1.51,1.53,1.53,0,0,0,1.64,1.47A2.65,2.65,0,0,0,39.81,275.62Z" transform="translate(28.83 110.5)"/><path d="M44.85,279.94v-15.2h2v15.2h-2Z" transform="translate(28.83 110.5)"/><path d="M51.36,274.88c0,2.31,1.45,3.55,3.09,3.55a2.74,2.74,0,0,0,2.81-2.08L59,277.11a4.64,4.64,0,0,1-4.56,3.15,5.37,5.37,0,0,1,0-10.73,4.39,4.39,0,0,1,4.49,3.21l-1.78.76a2.65,2.65,0,0,0-2.71-2.14C52.83,271.36,51.36,272.53,51.36,274.88Z" transform="translate(28.83 110.5)"/><path d="M64.89,280.26a3.73,3.73,0,0,1-3.78-4.05v-6.36h2v6.07c0,1.39.63,2.6,2.29,2.6a2.28,2.28,0,0,0,2.39-2.58v-6.09h2v8.23a17,17,0,0,0,.1,1.87H68a8.93,8.93,0,0,1-.08-1.22A3.3,3.3,0,0,1,64.89,280.26Z" transform="translate(28.83 110.5)"/><path d="M73.1,279.94v-15.2h2v15.2h-2Z" transform="translate(28.83 110.5)"/><path d="M80.87,274.17l2.73-.4a0.73,0.73,0,0,0,.78-0.76c0-1-.65-1.81-2.18-1.81a2.14,2.14,0,0,0-2.29,2L78,272.81a3.89,3.89,0,0,1,4.14-3.28c3,0,4.2,1.72,4.2,3.7v5.06a9.49,9.49,0,0,0,.13,1.66H84.54a7.39,7.39,0,0,1-.1-1.36,3.68,3.68,0,0,1-3.25,1.68,3.15,3.15,0,0,1-3.38-3C77.8,275.43,79.13,274.42,80.87,274.17Zm3.51,1.45v-0.46l-3.09.46a1.51,1.51,0,0,0-1.47,1.51,1.53,1.53,0,0,0,1.64,1.47A2.65,2.65,0,0,0,84.37,275.62Z" transform="translate(28.83 110.5)"/><path d="M92.06,269.85h2.18v1.78H92.06v5.25a1.2,1.2,0,0,0,1.41,1.39,4,4,0,0,0,.78-0.08v1.68a4.3,4.3,0,0,1-1.34.19,2.62,2.62,0,0,1-2.81-2.88v-5.54H88.16v-1.78H88.7a1.41,1.41,0,0,0,1.55-1.55v-1.64h1.81v3.19Z" transform="translate(28.83 110.5)"/><path d="M97.84,264.6A1.42,1.42,0,1,1,96.43,266,1.42,1.42,0,0,1,97.84,264.6Zm-1,15.35v-10.1h2v10.1h-2Z" transform="translate(28.83 110.5)"/><path d="M104.16,279.94h-2v-10.1h1.93v1.45a3.46,3.46,0,0,1,3.11-1.74c2.41,0,3.61,1.74,3.61,4v6.4h-2v-6.07c0-1.41-.59-2.54-2.35-2.54-1.55,0-2.35,1.24-2.35,2.77v5.84Z" transform="translate(28.83 110.5)"/><path d="M115.16,280a2.69,2.69,0,0,0,2.75,2.48c2.12,0,3.09-1.09,3.09-3.28V277.8a3.36,3.36,0,0,1-3.09,1.66,4.91,4.91,0,0,1,0-9.81,3.19,3.19,0,0,1,3.11,1.6v-1.41h2v9.34c0,2.56-1.26,5.06-5.06,5.06a4.42,4.42,0,0,1-4.66-3.76Zm5.92-5.48c0-2-1.18-3.23-2.88-3.23a2.91,2.91,0,0,0-2.92,3.23c0,2,1.13,3.23,2.92,3.23S121.08,276.52,121.08,274.57Z" transform="translate(28.83 110.5)"/><path d="M622.18,226.86v-9.8h2v9.74c0,2.27,1.24,3.55,3.32,3.55s3.3-1.28,3.3-3.55v-9.74h2.06v9.8A5.35,5.35,0,1,1,622.18,226.86Z" transform="translate(28.83 110.5)"/><path d="M637.09,228.69a2.15,2.15,0,0,0,2.35,1.89,1.49,1.49,0,0,0,1.72-1.34,1.4,1.4,0,0,0-1.3-1.3l-1.72-.38a2.87,2.87,0,0,1-2.52-2.83,3.44,3.44,0,0,1,3.59-3.19,3.58,3.58,0,0,1,3.84,2.71l-1.74.65a2,2,0,0,0-2.1-1.68,1.52,1.52,0,0,0-1.68,1.34,1.24,1.24,0,0,0,1.16,1.22l1.64,0.36c1.83,0.4,2.79,1.51,2.79,3s-1.2,3.13-3.7,3.13c-2.77,0-3.95-1.79-4.12-2.94Z" transform="translate(28.83 110.5)"/><path d="M654.43,229.07a4.58,4.58,0,0,1-4.54,3.19,5.38,5.38,0,0,1-.25-10.73c3.11,0,4.85,2.14,4.85,5.29a4.51,4.51,0,0,1,0,.63h-7.6a3,3,0,0,0,3,3.07,2.75,2.75,0,0,0,2.83-2Zm-2-3.21a2.55,2.55,0,0,0-2.77-2.58,2.72,2.72,0,0,0-2.75,2.58h5.52Z" transform="translate(28.83 110.5)"/><path d="M664.09,230.41a3.38,3.38,0,0,1-3.13,1.81c-3,0-4.79-2.35-4.79-5.35s1.93-5.29,4.79-5.29a3.1,3.1,0,0,1,3.09,1.7v-6.53h2v13.33a16.14,16.14,0,0,0,.1,1.87H664.2a8.44,8.44,0,0,1-.11-1.36v-0.17Zm-2.94.06c1.81,0,2.92-1.57,2.92-3.65s-1.09-3.51-2.9-3.51-3,1.47-3,3.55S659.26,230.47,661.15,230.47Z" transform="translate(28.83 110.5)"/><path d="M682.34,221.85l2.63,7.6,2.23-7.6h2.08L686,231.94h-2l-2.69-7.68-2.62,7.68h-2.08l-3.32-10.1h2.16l2.27,7.6,2.63-7.6h2Z" transform="translate(28.83 110.5)"/><path d="M693.24,231.94h-2v-15.2h2V223a3.57,3.57,0,0,1,3.07-1.47c2.41,0,3.61,1.74,3.61,4v6.4h-2v-6.07c0-1.41-.59-2.54-2.35-2.54-1.51,0-2.31,1.18-2.35,2.67v5.94Z" transform="translate(28.83 110.5)"/><path d="M711.87,229.07a4.58,4.58,0,0,1-4.54,3.19,5.38,5.38,0,0,1-.25-10.73c3.11,0,4.85,2.14,4.85,5.29a4.51,4.51,0,0,1,0,.63h-7.6a3,3,0,0,0,3,3.07,2.75,2.75,0,0,0,2.83-2Zm-2-3.21a2.55,2.55,0,0,0-2.77-2.58,2.72,2.72,0,0,0-2.75,2.58h5.52Z" transform="translate(28.83 110.5)"/><path d="M716.43,231.94h-2v-10.1h1.93v1.45a3.46,3.46,0,0,1,3.11-1.74c2.41,0,3.61,1.74,3.61,4v6.4h-2v-6.07c0-1.41-.59-2.54-2.35-2.54-1.55,0-2.35,1.24-2.35,2.77v5.84Z" transform="translate(28.83 110.5)"/><path d="M734.15,221.85h2.18v1.78h-2.18v5.25a1.2,1.2,0,0,0,1.41,1.39,4,4,0,0,0,.78-0.08v1.68A4.3,4.3,0,0,1,735,232a2.62,2.62,0,0,1-2.81-2.88v-5.54h-1.93v-1.78h0.55a1.41,1.41,0,0,0,1.55-1.55v-1.64h1.81v3.19Z" transform="translate(28.83 110.5)"/><path d="M740.93,231.94h-2v-15.2h2V223a3.57,3.57,0,0,1,3.07-1.47c2.41,0,3.61,1.74,3.61,4v6.4h-2v-6.07c0-1.41-.59-2.54-2.35-2.54-1.51,0-2.31,1.18-2.35,2.67v5.94Z" transform="translate(28.83 110.5)"/><path d="M759.56,229.07a4.58,4.58,0,0,1-4.54,3.19,5.38,5.38,0,0,1-.25-10.73c3.11,0,4.85,2.14,4.85,5.29a4.51,4.51,0,0,1,0,.63H752a3,3,0,0,0,3,3.07,2.75,2.75,0,0,0,2.83-2Zm-2-3.21a2.55,2.55,0,0,0-2.77-2.58,2.72,2.72,0,0,0-2.75,2.58h5.52Z" transform="translate(28.83 110.5)"/><path d="M767.75,223.84a6.16,6.16,0,0,0-.86-0.06c-1.66,0-2.77.88-2.77,3.11v5.06h-2v-10.1h1.93v1.76a3.16,3.16,0,0,1,3-1.93,3.77,3.77,0,0,1,.65.06v2.1Z" transform="translate(28.83 110.5)"/><path d="M778.54,229.07a4.58,4.58,0,0,1-4.54,3.19,5.38,5.38,0,0,1-.25-10.73c3.11,0,4.85,2.14,4.85,5.29a4.36,4.36,0,0,1,0,.63H771a3,3,0,0,0,3,3.07,2.75,2.75,0,0,0,2.83-2Zm-2-3.21a2.54,2.54,0,0,0-2.77-2.58,2.72,2.72,0,0,0-2.75,2.58h5.52Z" transform="translate(28.83 110.5)"/><path d="M788.81,226.17l2.73-.4a0.74,0.74,0,0,0,.78-0.76c0-1-.65-1.81-2.18-1.81a2.14,2.14,0,0,0-2.29,2l-1.89-.44a3.9,3.9,0,0,1,4.14-3.28c3,0,4.2,1.72,4.2,3.7v5.06a9.49,9.49,0,0,0,.13,1.66h-1.93a7.37,7.37,0,0,1-.11-1.36,3.68,3.68,0,0,1-3.25,1.68,3.15,3.15,0,0,1-3.38-3C785.75,227.43,787.07,226.42,788.81,226.17Zm3.51,1.45v-0.46l-3.09.46a1.51,1.51,0,0,0-1.47,1.51,1.53,1.53,0,0,0,1.64,1.47A2.65,2.65,0,0,0,792.32,227.62Z" transform="translate(28.83 110.5)"/><path d="M803,223.84a6.16,6.16,0,0,0-.86-0.06c-1.66,0-2.77.88-2.77,3.11v5.06h-2v-10.1h1.93v1.76a3.16,3.16,0,0,1,3-1.93,3.77,3.77,0,0,1,.65.06v2.1Z" transform="translate(28.83 110.5)"/><path d="M813.76,229.07a4.58,4.58,0,0,1-4.54,3.19,5.38,5.38,0,0,1-.25-10.73c3.11,0,4.85,2.14,4.85,5.29a4.51,4.51,0,0,1,0,.63h-7.6a3,3,0,0,0,3,3.07,2.75,2.75,0,0,0,2.83-2Zm-2-3.21a2.55,2.55,0,0,0-2.77-2.58,2.72,2.72,0,0,0-2.75,2.58h5.52Z" transform="translate(28.83 110.5)"/><path d="M824.24,221.85h2.18v1.78h-2.18v5.25a1.2,1.2,0,0,0,1.41,1.39,4,4,0,0,0,.78-0.08v1.68a4.3,4.3,0,0,1-1.34.19,2.62,2.62,0,0,1-2.81-2.88v-5.54h-1.93v-1.78h0.55a1.41,1.41,0,0,0,1.55-1.55v-1.64h1.81v3.19Z" transform="translate(28.83 110.5)"/><path d="M837,221.85l2.62,7.6,2.23-7.6h2.08l-3.28,10.1h-2l-2.69-7.68-2.62,7.68h-2.08l-3.32-10.1h2.16l2.27,7.6,2.62-7.6h2Z" transform="translate(28.83 110.5)"/><path d="M855.19,226.88a5.17,5.17,0,1,1-5.17-5.35A5.1,5.1,0,0,1,855.19,226.88Zm-2,0c0-2.33-1.47-3.59-3.15-3.59s-3.15,1.26-3.15,3.59,1.47,3.61,3.15,3.61S853.17,229.24,853.17,226.88Z" transform="translate(28.83 110.5)"/><path d="M631.67,250.88a5.17,5.17,0,1,1-5.17-5.35A5.1,5.1,0,0,1,631.67,250.88Zm-2,0c0-2.33-1.47-3.59-3.15-3.59s-3.15,1.26-3.15,3.59,1.47,3.61,3.15,3.61S629.65,253.24,629.65,250.88Z" transform="translate(28.83 110.5)"/><path d="M634.19,259.93V245.85h1.91v1.57a3.72,3.72,0,0,1,3.38-1.81c3,0,4.64,2.33,4.64,5.27s-1.74,5.33-4.7,5.33a3.76,3.76,0,0,1-3.28-1.64v5.35h-2Zm4.93-12.58c-1.81,0-3,1.51-3,3.53s1.2,3.57,3,3.57,3-1.49,3-3.57S641,247.36,639.12,247.36Z" transform="translate(28.83 110.5)"/><path d="M649.18,245.85h2.18v1.78h-2.18v5.25a1.2,1.2,0,0,0,1.41,1.39,4,4,0,0,0,.78-0.08v1.68A4.3,4.3,0,0,1,650,256a2.62,2.62,0,0,1-2.81-2.88v-5.54h-1.93v-1.78h0.55a1.41,1.41,0,0,0,1.55-1.55v-1.64h1.81v3.19Z" transform="translate(28.83 110.5)"/><path d="M655,240.6a1.42,1.42,0,1,1-1.41,1.43A1.42,1.42,0,0,1,655,240.6Zm-1,15.35v-10.1h2v10.1h-2Z" transform="translate(28.83 110.5)"/><path d="M668.8,250.88a5.17,5.17,0,1,1-5.17-5.35A5.1,5.1,0,0,1,668.8,250.88Zm-2,0c0-2.33-1.47-3.59-3.15-3.59s-3.15,1.26-3.15,3.59,1.47,3.61,3.15,3.61S666.78,253.24,666.78,250.88Z" transform="translate(28.83 110.5)"/><path d="M673.29,255.94h-2v-10.1h1.93v1.45a3.46,3.46,0,0,1,3.11-1.74c2.41,0,3.61,1.74,3.61,4v6.4h-2v-6.07c0-1.41-.59-2.54-2.35-2.54-1.55,0-2.35,1.24-2.35,2.77v5.84Z" transform="translate(28.83 110.5)"/><path d="M684,252.69a2.15,2.15,0,0,0,2.35,1.89,1.49,1.49,0,0,0,1.72-1.34,1.4,1.4,0,0,0-1.3-1.3l-1.72-.38a2.87,2.87,0,0,1-2.52-2.83,3.44,3.44,0,0,1,3.59-3.19,3.58,3.58,0,0,1,3.84,2.71l-1.74.65a2,2,0,0,0-2.1-1.68,1.52,1.52,0,0,0-1.68,1.34,1.24,1.24,0,0,0,1.16,1.22l1.64,0.36c1.83,0.4,2.79,1.51,2.79,3s-1.2,3.13-3.7,3.13c-2.77,0-3.95-1.79-4.12-2.94Z" transform="translate(28.83 110.5)"/><path d="M700.51,247.63v8.31h-2v-8.31H696.6v-1.78h1.87v-1.7a3.2,3.2,0,0,1,3.32-3.46,2.54,2.54,0,0,1,1.18.21v1.76a2.28,2.28,0,0,0-.86-0.13,1.51,1.51,0,0,0-1.6,1.72v1.6h2.44v1.78h-2.44Z" transform="translate(28.83 110.5)"/><path d="M714.13,250.88a5.17,5.17,0,1,1-5.17-5.35A5.1,5.1,0,0,1,714.13,250.88Zm-2,0c0-2.33-1.47-3.59-3.15-3.59s-3.15,1.26-3.15,3.59,1.47,3.61,3.15,3.61S712.12,253.24,712.12,250.88Z" transform="translate(28.83 110.5)"/><path d="M722.26,247.84a6.16,6.16,0,0,0-.86-0.06c-1.66,0-2.77.88-2.77,3.11v5.06h-2v-10.1h1.93v1.76a3.16,3.16,0,0,1,3-1.93,3.78,3.78,0,0,1,.65.06v2.1Z" transform="translate(28.83 110.5)"/><path d="M732,250.17l2.73-.4a0.73,0.73,0,0,0,.78-0.76c0-1-.65-1.81-2.18-1.81a2.14,2.14,0,0,0-2.29,2l-1.89-.44a3.89,3.89,0,0,1,4.14-3.28c3,0,4.2,1.72,4.2,3.7v5.06a9.49,9.49,0,0,0,.13,1.66h-1.93a7.4,7.4,0,0,1-.1-1.36,3.68,3.68,0,0,1-3.25,1.68,3.15,3.15,0,0,1-3.38-3C729,251.43,730.31,250.42,732,250.17Zm3.51,1.45v-0.46l-3.09.46a1.51,1.51,0,0,0-1.47,1.51,1.53,1.53,0,0,0,1.64,1.47A2.65,2.65,0,0,0,735.55,251.62Z" transform="translate(28.83 110.5)"/><path d="M750.46,255.94h-2l-4.09-10.1h2.23l2.88,7.79,2.9-7.79h2.12Z" transform="translate(28.83 110.5)"/><path d="M758.72,250.17l2.73-.4a0.73,0.73,0,0,0,.78-0.76c0-1-.65-1.81-2.18-1.81a2.14,2.14,0,0,0-2.29,2l-1.89-.44a3.89,3.89,0,0,1,4.14-3.28c3,0,4.2,1.72,4.2,3.7v5.06a9.49,9.49,0,0,0,.13,1.66h-1.93a7.4,7.4,0,0,1-.1-1.36,3.68,3.68,0,0,1-3.25,1.68,3.15,3.15,0,0,1-3.38-3C755.65,251.43,757,250.42,758.72,250.17Zm3.51,1.45v-0.46l-3.09.46a1.51,1.51,0,0,0-1.47,1.51,1.53,1.53,0,0,0,1.64,1.47A2.65,2.65,0,0,0,762.22,251.62Z" transform="translate(28.83 110.5)"/><path d="M767.27,255.94v-15.2h2v15.2h-2Z" transform="translate(28.83 110.5)"/><path d="M776.17,256.26a3.73,3.73,0,0,1-3.78-4.05v-6.36h2v6.07c0,1.39.63,2.6,2.29,2.6a2.28,2.28,0,0,0,2.39-2.58v-6.09h2v8.23a16.94,16.94,0,0,0,.11,1.87h-1.89a8.93,8.93,0,0,1-.08-1.22A3.3,3.3,0,0,1,776.17,256.26Z" transform="translate(28.83 110.5)"/><path d="M793.07,253.07a4.58,4.58,0,0,1-4.54,3.19,5.38,5.38,0,0,1-.25-10.73c3.11,0,4.85,2.14,4.85,5.29a4.51,4.51,0,0,1,0,.63h-7.6a3,3,0,0,0,3,3.07,2.75,2.75,0,0,0,2.83-2Zm-2-3.21a2.55,2.55,0,0,0-2.77-2.58,2.72,2.72,0,0,0-2.75,2.58h5.52Z" transform="translate(28.83 110.5)"/><path d="M804.37,239.27l1.2,1a13.27,13.27,0,0,0,0,17.93l-1.2,1A14.57,14.57,0,0,1,804.37,239.27Z" transform="translate(28.83 110.5)"/><path d="M808.22,240.6a1.42,1.42,0,1,1-1.41,1.43A1.42,1.42,0,0,1,808.22,240.6Zm-1,15.35v-10.1h2v10.1h-2Z" transform="translate(28.83 110.5)"/><path d="M813.8,253.13a1.46,1.46,0,0,1,1.47,1.47A1.44,1.44,0,0,1,813.8,256a1.43,1.43,0,0,1-1.45-1.45A1.44,1.44,0,0,1,813.8,253.13Z" transform="translate(28.83 110.5)"/><path d="M826.9,253.07a4.58,4.58,0,0,1-4.54,3.19,5.38,5.38,0,0,1-.25-10.73c3.11,0,4.85,2.14,4.85,5.29a4.36,4.36,0,0,1,0,.63h-7.6a3,3,0,0,0,3,3.07,2.75,2.75,0,0,0,2.83-2Zm-2-3.21a2.54,2.54,0,0,0-2.77-2.58,2.72,2.72,0,0,0-2.75,2.58h5.52Z" transform="translate(28.83 110.5)"/><path d="M830.41,253.13a1.46,1.46,0,0,1,1.47,1.47,1.44,1.44,0,0,1-1.47,1.45A1.43,1.43,0,0,1,829,254.6,1.44,1.44,0,0,1,830.41,253.13Z" transform="translate(28.83 110.5)"/><path d="M622.54,284.17l2.52-5.33-4.35-9H623l3.15,7,3-7h2.12l-6.57,14.32h-2.16Z" transform="translate(28.83 110.5)"/><path d="M641.54,277.07a4.58,4.58,0,0,1-4.54,3.19,5.38,5.38,0,0,1-.25-10.73c3.11,0,4.85,2.14,4.85,5.29a4.51,4.51,0,0,1,0,.63H634a3,3,0,0,0,3,3.07,2.75,2.75,0,0,0,2.83-2Zm-2-3.21a2.55,2.55,0,0,0-2.77-2.58,2.72,2.72,0,0,0-2.75,2.58h5.52Z" transform="translate(28.83 110.5)"/><path d="M645,276.69a2.15,2.15,0,0,0,2.35,1.89,1.49,1.49,0,0,0,1.72-1.34,1.4,1.4,0,0,0-1.3-1.3l-1.72-.38a2.87,2.87,0,0,1-2.52-2.83,3.44,3.44,0,0,1,3.59-3.19,3.58,3.58,0,0,1,3.84,2.71l-1.74.65a2,2,0,0,0-2.1-1.68,1.52,1.52,0,0,0-1.68,1.34,1.24,1.24,0,0,0,1.16,1.22l1.64,0.36c1.83,0.4,2.79,1.51,2.79,3s-1.2,3.13-3.7,3.13c-2.77,0-3.95-1.79-4.12-2.94Z" transform="translate(28.83 110.5)"/><path d="M654.06,279.94h-1.91l7.2-14.89h1.91Z" transform="translate(28.83 110.5)"/><path d="M663.65,279.94h-2v-10.1h1.93v1.45a3.46,3.46,0,0,1,3.11-1.74c2.41,0,3.61,1.74,3.61,4v6.4h-2v-6.07c0-1.41-.59-2.54-2.35-2.54-1.55,0-2.35,1.24-2.35,2.77v5.84Z" transform="translate(28.83 110.5)"/><path d="M683,274.88a5.17,5.17,0,1,1-5.17-5.35A5.1,5.1,0,0,1,683,274.88Zm-2,0c0-2.33-1.47-3.59-3.15-3.59s-3.15,1.26-3.15,3.59,1.47,3.61,3.15,3.61S681,277.24,681,274.88Z" transform="translate(28.83 110.5)"/><path d="M686.5,277.19a1.76,1.76,0,0,1,1.7,2c0,2.77-1.81,3.93-3.11,4.09v-1.09a2.38,2.38,0,0,0,1.74-2.27,0.92,0.92,0,0,1-.46.1A1.35,1.35,0,0,1,685,278.6,1.47,1.47,0,0,1,686.5,277.19Z" transform="translate(28.83 110.5)"/><path d="M706.09,274.88a5.17,5.17,0,1,1-5.17-5.35A5.1,5.1,0,0,1,706.09,274.88Zm-2,0c0-2.33-1.47-3.59-3.15-3.59s-3.15,1.26-3.15,3.59,1.47,3.61,3.15,3.61S704.08,277.24,704.08,274.88Z" transform="translate(28.83 110.5)"/><path d="M710.59,279.94h-2v-10.1h1.93v1.45a3.46,3.46,0,0,1,3.11-1.74c2.42,0,3.61,1.74,3.61,4v6.4h-2v-6.07c0-1.41-.59-2.54-2.35-2.54-1.55,0-2.35,1.24-2.35,2.77v5.84Z" transform="translate(28.83 110.5)"/><path d="M720.65,279.94h-1.91l7.2-14.89h1.91Z" transform="translate(28.83 110.5)"/><path d="M736.5,274.88a5.17,5.17,0,1,1-5.17-5.35A5.1,5.1,0,0,1,736.5,274.88Zm-2,0c0-2.33-1.47-3.59-3.15-3.59s-3.15,1.26-3.15,3.59,1.47,3.61,3.15,3.61S734.48,277.24,734.48,274.88Z" transform="translate(28.83 110.5)"/><path d="M741.67,271.63v8.31h-2v-8.31h-1.87v-1.78h1.87v-1.7a3.2,3.2,0,0,1,3.32-3.46,2.54,2.54,0,0,1,1.18.21v1.76a2.28,2.28,0,0,0-.86-0.13,1.51,1.51,0,0,0-1.6,1.72v1.6h2.44v1.78h-2.44Z" transform="translate(28.83 110.5)"/><path d="M748.76,271.63v8.31h-2v-8.31h-1.87v-1.78h1.87v-1.7a3.2,3.2,0,0,1,3.32-3.46,2.54,2.54,0,0,1,1.18.21v1.76a2.28,2.28,0,0,0-.86-0.13,1.51,1.51,0,0,0-1.6,1.72v1.6h2.44v1.78h-2.44Z" transform="translate(28.83 110.5)"/><path d="M753.59,277.19a1.76,1.76,0,0,1,1.7,2c0,2.77-1.81,3.93-3.11,4.09v-1.09a2.38,2.38,0,0,0,1.74-2.27,0.91,0.91,0,0,1-.46.1,1.35,1.35,0,0,1-1.41-1.43A1.46,1.46,0,0,1,753.59,277.19Z" transform="translate(28.83 110.5)"/><path d="M766.34,269.85h2.18v1.78h-2.18v5.25a1.2,1.2,0,0,0,1.41,1.39,4,4,0,0,0,.78-0.08v1.68a4.3,4.3,0,0,1-1.34.19,2.62,2.62,0,0,1-2.81-2.88v-5.54h-1.93v-1.78H763a1.41,1.41,0,0,0,1.55-1.55v-1.64h1.81v3.19Z" transform="translate(28.83 110.5)"/><path d="M776.55,271.84a6.16,6.16,0,0,0-.86-0.06c-1.66,0-2.77.88-2.77,3.11v5.06h-2v-10.1h1.93v1.76a3.16,3.16,0,0,1,3-1.93,3.78,3.78,0,0,1,.65.06v2.1Z" transform="translate(28.83 110.5)"/><path d="M782.43,280.26a3.73,3.73,0,0,1-3.78-4.05v-6.36h2v6.07c0,1.39.63,2.6,2.29,2.6a2.28,2.28,0,0,0,2.39-2.58v-6.09h2v8.23a17,17,0,0,0,.1,1.87h-1.89a8.93,8.93,0,0,1-.08-1.22A3.3,3.3,0,0,1,782.43,280.26Z" transform="translate(28.83 110.5)"/><path d="M799.33,277.07a4.58,4.58,0,0,1-4.54,3.19,5.38,5.38,0,0,1-.25-10.73c3.11,0,4.85,2.14,4.85,5.29a4.51,4.51,0,0,1,0,.63h-7.6a3,3,0,0,0,3,3.07,2.75,2.75,0,0,0,2.83-2Zm-2-3.21a2.55,2.55,0,0,0-2.77-2.58,2.72,2.72,0,0,0-2.75,2.58h5.52Z" transform="translate(28.83 110.5)"/><path d="M802.15,279.94h-1.91l7.2-14.89h1.91Z" transform="translate(28.83 110.5)"/><path d="M813.46,271.63v8.31h-2v-8.31h-1.87v-1.78h1.87v-1.7a3.2,3.2,0,0,1,3.32-3.46,2.54,2.54,0,0,1,1.18.21v1.76a2.28,2.28,0,0,0-.86-0.13,1.51,1.51,0,0,0-1.6,1.72v1.6h2.44v1.78h-2.44Z" transform="translate(28.83 110.5)"/><path d="M820.14,274.17l2.73-.4a0.74,0.74,0,0,0,.78-0.76c0-1-.65-1.81-2.18-1.81a2.14,2.14,0,0,0-2.29,2l-1.89-.44a3.9,3.9,0,0,1,4.14-3.28c3,0,4.2,1.72,4.2,3.7v5.06a9.49,9.49,0,0,0,.13,1.66h-1.93a7.37,7.37,0,0,1-.11-1.36,3.68,3.68,0,0,1-3.25,1.68,3.15,3.15,0,0,1-3.38-3C817.08,275.43,818.4,274.42,820.14,274.17Zm3.51,1.45v-0.46l-3.09.46a1.51,1.51,0,0,0-1.47,1.51,1.53,1.53,0,0,0,1.64,1.47A2.65,2.65,0,0,0,823.65,275.62Z" transform="translate(28.83 110.5)"/><path d="M828.69,279.94v-15.2h2v15.2h-2Z" transform="translate(28.83 110.5)"/><path d="M834.86,276.69a2.15,2.15,0,0,0,2.35,1.89,1.49,1.49,0,0,0,1.72-1.34,1.4,1.4,0,0,0-1.3-1.3l-1.72-.38a2.87,2.87,0,0,1-2.52-2.83,3.44,3.44,0,0,1,3.59-3.19,3.58,3.58,0,0,1,3.84,2.71l-1.74.65a2,2,0,0,0-2.1-1.68,1.52,1.52,0,0,0-1.68,1.34,1.24,1.24,0,0,0,1.16,1.22l1.64,0.36c1.83,0.4,2.79,1.51,2.79,3s-1.2,3.13-3.7,3.13c-2.77,0-3.95-1.79-4.12-2.94Z" transform="translate(28.83 110.5)"/><path d="M852.21,277.07a4.58,4.58,0,0,1-4.54,3.19,5.38,5.38,0,0,1-.25-10.73c3.11,0,4.85,2.14,4.85,5.29a4.51,4.51,0,0,1,0,.63h-7.6a3,3,0,0,0,3,3.07,2.75,2.75,0,0,0,2.83-2Zm-2-3.21a2.55,2.55,0,0,0-2.77-2.58,2.72,2.72,0,0,0-2.75,2.58h5.52Z" transform="translate(28.83 110.5)"/><path d="M854.1,283.3l-1.2-1a13.27,13.27,0,0,0,0-17.93l1.2-1A14.57,14.57,0,0,1,854.1,283.3Z" transform="translate(28.83 110.5)"/><path d="M323.51,212.86v-9.8h2v9.74c0,2.27,1.24,3.55,3.32,3.55s3.3-1.28,3.3-3.55v-9.74h2.06v9.8A5.35,5.35,0,1,1,323.51,212.86Z" transform="translate(28.83 110.5)"/><path d="M338.42,214.69a2.15,2.15,0,0,0,2.35,1.89,1.49,1.49,0,0,0,1.72-1.34,1.4,1.4,0,0,0-1.3-1.3l-1.72-.38a2.87,2.87,0,0,1-2.52-2.83,3.44,3.44,0,0,1,3.59-3.19,3.58,3.58,0,0,1,3.84,2.71l-1.74.65a2,2,0,0,0-2.1-1.68,1.52,1.52,0,0,0-1.68,1.34,1.24,1.24,0,0,0,1.15,1.22l1.64,0.36c1.83,0.4,2.79,1.51,2.79,3s-1.2,3.13-3.7,3.13c-2.77,0-3.95-1.79-4.12-2.94Z" transform="translate(28.83 110.5)"/><path d="M355.77,215.07a4.58,4.58,0,0,1-4.54,3.19,5.38,5.38,0,0,1-.25-10.73c3.11,0,4.85,2.14,4.85,5.29a4.44,4.44,0,0,1,0,.63h-7.6a3,3,0,0,0,3,3.07,2.75,2.75,0,0,0,2.83-2Zm-2-3.21a2.54,2.54,0,0,0-2.77-2.58,2.72,2.72,0,0,0-2.75,2.58h5.52Z" transform="translate(28.83 110.5)"/><path d="M365.43,216.41a3.38,3.38,0,0,1-3.13,1.81c-3,0-4.79-2.35-4.79-5.35s1.93-5.29,4.79-5.29a3.1,3.1,0,0,1,3.09,1.7v-6.53h2v13.33a16,16,0,0,0,.1,1.87h-1.91a8.45,8.45,0,0,1-.1-1.36v-0.17Zm-2.94.06c1.81,0,2.92-1.57,2.92-3.65s-1.09-3.51-2.9-3.51-3,1.47-3,3.55S360.6,216.47,362.49,216.47Z" transform="translate(28.83 110.5)"/><path d="M383.67,207.85l2.62,7.6,2.23-7.6h2.08l-3.28,10.1h-2l-2.69-7.68L380,217.94H377.9l-3.32-10.1h2.16l2.27,7.6,2.62-7.6h2Z" transform="translate(28.83 110.5)"/><path d="M394.57,217.94h-2v-15.2h2V209a3.57,3.57,0,0,1,3.07-1.47c2.41,0,3.61,1.74,3.61,4v6.4h-2v-6.07c0-1.41-.59-2.54-2.35-2.54-1.51,0-2.31,1.18-2.35,2.67v5.94Z" transform="translate(28.83 110.5)"/><path d="M413.2,215.07a4.58,4.58,0,0,1-4.54,3.19,5.38,5.38,0,0,1-.25-10.73c3.11,0,4.85,2.14,4.85,5.29a4.44,4.44,0,0,1,0,.63h-7.6a3,3,0,0,0,3,3.07,2.75,2.75,0,0,0,2.83-2Zm-2-3.21a2.54,2.54,0,0,0-2.77-2.58,2.72,2.72,0,0,0-2.75,2.58h5.52Z" transform="translate(28.83 110.5)"/><path d="M417.76,217.94h-2v-10.1h1.93v1.45a3.46,3.46,0,0,1,3.11-1.74c2.41,0,3.61,1.74,3.61,4v6.4h-2v-6.07c0-1.41-.59-2.54-2.35-2.54-1.55,0-2.35,1.24-2.35,2.77v5.84Z" transform="translate(28.83 110.5)"/><path d="M440.56,207.85l2.62,7.6,2.23-7.6h2.08l-3.28,10.1h-2l-2.69-7.68-2.62,7.68h-2.08l-3.32-10.1h2.16l2.27,7.6,2.62-7.6h2Z" transform="translate(28.83 110.5)"/><path d="M458.77,212.88a5.17,5.17,0,1,1-5.17-5.35A5.1,5.1,0,0,1,458.77,212.88Zm-2,0c0-2.33-1.47-3.59-3.15-3.59s-3.15,1.26-3.15,3.59,1.47,3.61,3.15,3.61S456.75,215.24,456.75,212.88Z" transform="translate(28.83 110.5)"/><path d="M466.9,209.84a6.16,6.16,0,0,0-.86-0.06c-1.66,0-2.77.88-2.77,3.11v5.06h-2v-10.1h1.93v1.76a3.16,3.16,0,0,1,3-1.93,3.77,3.77,0,0,1,.65.06v2.1Z" transform="translate(28.83 110.5)"/><path d="M473.74,212.11l4.39,5.84h-2.48l-3.3-4.45L471,214.9v3h-2v-15.2h2v9.57l4.37-4.47H478Z" transform="translate(28.83 110.5)"/><path d="M481,202.6a1.42,1.42,0,1,1-1.41,1.43A1.42,1.42,0,0,1,481,202.6Zm-1,15.35v-10.1h2v10.1h-2Z" transform="translate(28.83 110.5)"/><path d="M487.31,217.94h-2v-10.1h1.93v1.45a3.46,3.46,0,0,1,3.11-1.74c2.42,0,3.61,1.74,3.61,4v6.4h-2v-6.07c0-1.41-.59-2.54-2.35-2.54-1.55,0-2.35,1.24-2.35,2.77v5.84Z" transform="translate(28.83 110.5)"/><path d="M498.31,218a2.69,2.69,0,0,0,2.75,2.48c2.12,0,3.09-1.09,3.09-3.28V215.8a3.36,3.36,0,0,1-3.09,1.66,4.91,4.91,0,0,1,0-9.81,3.19,3.19,0,0,1,3.11,1.6v-1.41h2v9.34c0,2.56-1.26,5.06-5.06,5.06a4.42,4.42,0,0,1-4.66-3.76Zm5.92-5.48c0-2-1.18-3.23-2.88-3.23a2.91,2.91,0,0,0-2.92,3.23c0,2,1.13,3.23,2.92,3.23S504.23,214.52,504.23,212.57Z" transform="translate(28.83 110.5)"/><path d="M522.25,207.85l2.63,7.6,2.23-7.6h2.08l-3.28,10.1h-2l-2.69-7.68-2.62,7.68h-2.08l-3.32-10.1h2.16l2.27,7.6,2.63-7.6h2Z" transform="translate(28.83 110.5)"/><path d="M532.14,202.6a1.42,1.42,0,1,1-1.41,1.43A1.42,1.42,0,0,1,532.14,202.6Zm-1,15.35v-10.1h2v10.1h-2Z" transform="translate(28.83 110.5)"/><path d="M539.14,207.85h2.18v1.78h-2.18v5.25a1.2,1.2,0,0,0,1.41,1.39,4,4,0,0,0,.78-0.08v1.68A4.3,4.3,0,0,1,540,218a2.62,2.62,0,0,1-2.81-2.88v-5.54h-1.93v-1.78h0.55a1.41,1.41,0,0,0,1.55-1.55v-1.64h1.81v3.19Z" transform="translate(28.83 110.5)"/><path d="M545.92,217.94h-2v-15.2h2V209a3.57,3.57,0,0,1,3.07-1.47c2.42,0,3.61,1.74,3.61,4v6.4h-2v-6.07c0-1.41-.59-2.54-2.35-2.54-1.51,0-2.31,1.18-2.35,2.67v5.94Z" transform="translate(28.83 110.5)"/><path d="M325.95,236.17l2.73-.4a0.73,0.73,0,0,0,.78-0.76c0-1-.65-1.81-2.18-1.81a2.14,2.14,0,0,0-2.29,2l-1.89-.44a3.89,3.89,0,0,1,4.14-3.28c3,0,4.2,1.72,4.2,3.7v5.06a9.49,9.49,0,0,0,.13,1.66h-1.93a7.39,7.39,0,0,1-.1-1.36,3.68,3.68,0,0,1-3.25,1.68,3.15,3.15,0,0,1-3.38-3C322.88,237.43,324.2,236.42,325.95,236.17Zm3.51,1.45v-0.46l-3.09.46a1.51,1.51,0,0,0-1.47,1.51,1.53,1.53,0,0,0,1.64,1.47A2.65,2.65,0,0,0,329.45,237.62Z" transform="translate(28.83 110.5)"/><path d="M336.47,241.94h-2v-10.1h1.93v1.45a3.46,3.46,0,0,1,3.11-1.74c2.41,0,3.61,1.74,3.61,4v6.4h-2v-6.07c0-1.41-.59-2.54-2.35-2.54-1.55,0-2.35,1.24-2.35,2.77v5.84Z" transform="translate(28.83 110.5)"/><path d="M346.65,246.17l2.52-5.33-4.35-9h2.27l3.15,7,3-7h2.12l-6.57,14.32h-2.16Z" transform="translate(28.83 110.5)"/><path d="M367.27,236.11l4.39,5.84h-2.48l-3.3-4.45-1.41,1.41v3h-2v-15.2h2v9.57l4.37-4.47h2.73Z" transform="translate(28.83 110.5)"/><path d="M374.52,226.6a1.42,1.42,0,1,1-1.41,1.43A1.42,1.42,0,0,1,374.52,226.6Zm-1,15.35v-10.1h2v10.1h-2Z" transform="translate(28.83 110.5)"/><path d="M380.84,241.94h-2v-10.1h1.93v1.45a3.46,3.46,0,0,1,3.11-1.74c2.41,0,3.61,1.74,3.61,4v6.4h-2v-6.07c0-1.41-.59-2.54-2.35-2.54-1.55,0-2.35,1.24-2.35,2.77v5.84Z" transform="translate(28.83 110.5)"/><path d="M397.74,240.41a3.38,3.38,0,0,1-3.13,1.81c-3,0-4.79-2.35-4.79-5.35s1.93-5.29,4.79-5.29a3.1,3.1,0,0,1,3.09,1.7v-6.53h2v13.33a16,16,0,0,0,.1,1.87h-1.91a8.45,8.45,0,0,1-.1-1.36v-0.17Zm-2.94.06c1.81,0,2.92-1.57,2.92-3.65s-1.09-3.51-2.9-3.51-3,1.47-3,3.55S392.92,240.47,394.81,240.47Z" transform="translate(28.83 110.5)"/><path d="M417.76,236.88a5.17,5.17,0,1,1-5.17-5.35A5.1,5.1,0,0,1,417.76,236.88Zm-2,0c0-2.33-1.47-3.59-3.15-3.59s-3.15,1.26-3.15,3.59,1.47,3.61,3.15,3.61S415.74,239.24,415.74,236.88Z" transform="translate(28.83 110.5)"/><path d="M422.92,233.63v8.31h-2v-8.31H419v-1.78h1.87v-1.7a3.2,3.2,0,0,1,3.32-3.46,2.54,2.54,0,0,1,1.18.21v1.76a2.28,2.28,0,0,0-.86-0.13,1.51,1.51,0,0,0-1.6,1.72v1.6h2.44v1.78h-2.44Z" transform="translate(28.83 110.5)"/><path d="M435.38,231.85h2.18v1.78h-2.18v5.25a1.2,1.2,0,0,0,1.41,1.39,4,4,0,0,0,.78-0.08v1.68a4.3,4.3,0,0,1-1.34.19,2.62,2.62,0,0,1-2.81-2.88v-5.54h-1.93v-1.78H432a1.41,1.41,0,0,0,1.55-1.55v-1.64h1.81v3.19Z" transform="translate(28.83 110.5)"/><path d="M448.88,239.07a4.58,4.58,0,0,1-4.54,3.19,5.38,5.38,0,0,1-.25-10.73c3.11,0,4.85,2.14,4.85,5.29a4.44,4.44,0,0,1,0,.63h-7.6a3,3,0,0,0,3,3.07,2.75,2.75,0,0,0,2.83-2Zm-2-3.21a2.54,2.54,0,0,0-2.77-2.58,2.72,2.72,0,0,0-2.75,2.58h5.52Z" transform="translate(28.83 110.5)"/><path d="M453.65,236.8l-3.63-5h2.39l2.48,3.55,2.44-3.55h2.33l-3.59,5c0.61,0.82,3.11,4.33,3.72,5.14h-2.37l-2.6-3.72-2.56,3.72h-2.35Z" transform="translate(28.83 110.5)"/><path d="M464.42,231.85h2.18v1.78h-2.18v5.25a1.2,1.2,0,0,0,1.41,1.39,4,4,0,0,0,.78-0.08v1.68a4.3,4.3,0,0,1-1.34.19,2.62,2.62,0,0,1-2.81-2.88v-5.54h-1.93v-1.78h0.55a1.41,1.41,0,0,0,1.55-1.55v-1.64h1.81v3.19Z" transform="translate(28.83 110.5)"/><path d="M340.48,255.06h2.12l-4.24,14.89h-2.12l-3.88-12.07-3.84,12.07h-2.06l-4.3-14.89h2.12l3.28,11.65,3.74-11.65h2.16l3.82,11.78Z" transform="translate(28.83 110.5)"/><path d="M349.57,261.84a6.16,6.16,0,0,0-.86-0.06c-1.66,0-2.77.88-2.77,3.11v5.06h-2v-10.1h1.93v1.76a3.16,3.16,0,0,1,3-1.93,3.77,3.77,0,0,1,.65.06v2.1Z" transform="translate(28.83 110.5)"/><path d="M352.64,254.6a1.42,1.42,0,1,1-1.41,1.43A1.42,1.42,0,0,1,352.64,254.6Zm-1,15.35v-10.1h2v10.1h-2Z" transform="translate(28.83 110.5)"/><path d="M359.63,259.85h2.18v1.78h-2.18v5.25a1.2,1.2,0,0,0,1.41,1.39,4,4,0,0,0,.78-0.08v1.68a4.3,4.3,0,0,1-1.34.19,2.62,2.62,0,0,1-2.81-2.88v-5.54h-1.93v-1.78h0.55a1.41,1.41,0,0,0,1.55-1.55v-1.64h1.81v3.19Z" transform="translate(28.83 110.5)"/><path d="M367.09,259.85h2.18v1.78h-2.18v5.25a1.2,1.2,0,0,0,1.41,1.39,4,4,0,0,0,.78-0.08v1.68a4.3,4.3,0,0,1-1.34.19,2.62,2.62,0,0,1-2.81-2.88v-5.54h-1.93v-1.78h0.55a1.41,1.41,0,0,0,1.55-1.55v-1.64h1.81v3.19Z" transform="translate(28.83 110.5)"/><path d="M380.59,267.07a4.58,4.58,0,0,1-4.54,3.19,5.38,5.38,0,0,1-.25-10.73c3.11,0,4.85,2.14,4.85,5.29a4.44,4.44,0,0,1,0,.63H373a3,3,0,0,0,3,3.07,2.75,2.75,0,0,0,2.83-2Zm-2-3.21a2.54,2.54,0,0,0-2.77-2.58,2.72,2.72,0,0,0-2.75,2.58h5.52Z" transform="translate(28.83 110.5)"/><path d="M385.15,269.94h-2v-10.1h1.93v1.45a3.46,3.46,0,0,1,3.11-1.74c2.41,0,3.61,1.74,3.61,4v6.4h-2v-6.07c0-1.41-.59-2.54-2.35-2.54-1.55,0-2.35,1.24-2.35,2.77v5.84Z" transform="translate(28.83 110.5)"/><path d="M408,259.85l2.62,7.6,2.23-7.6h2.08l-3.28,10.1h-2l-2.69-7.68-2.62,7.68h-2.08l-3.32-10.1H401l2.27,7.6,2.62-7.6h2Z" transform="translate(28.83 110.5)"/><path d="M417.84,254.6a1.42,1.42,0,1,1-1.41,1.43A1.42,1.42,0,0,1,417.84,254.6Zm-1,15.35v-10.1h2v10.1h-2Z" transform="translate(28.83 110.5)"/><path d="M424.84,259.85H427v1.78h-2.18v5.25a1.2,1.2,0,0,0,1.41,1.39,4,4,0,0,0,.78-0.08v1.68a4.3,4.3,0,0,1-1.34.19,2.62,2.62,0,0,1-2.81-2.88v-5.54h-1.93v-1.78h0.55a1.41,1.41,0,0,0,1.55-1.55v-1.64h1.81v3.19Z" transform="translate(28.83 110.5)"/><path d="M431.62,269.94h-2v-15.2h2V261a3.57,3.57,0,0,1,3.07-1.47c2.41,0,3.61,1.74,3.61,4v6.4h-2v-6.07c0-1.41-.59-2.54-2.35-2.54-1.51,0-2.31,1.18-2.35,2.67v5.94Z" transform="translate(28.83 110.5)"/><path d="M447.54,266.69a2.15,2.15,0,0,0,2.35,1.89,1.49,1.49,0,0,0,1.72-1.34,1.4,1.4,0,0,0-1.3-1.3l-1.72-.38a2.87,2.87,0,0,1-2.52-2.83,3.44,3.44,0,0,1,3.59-3.19,3.58,3.58,0,0,1,3.84,2.71l-1.74.65a2,2,0,0,0-2.1-1.68,1.52,1.52,0,0,0-1.68,1.34,1.24,1.24,0,0,0,1.15,1.22l1.64,0.36c1.83,0.4,2.79,1.51,2.79,3s-1.2,3.13-3.69,3.13c-2.77,0-3.95-1.79-4.12-2.94Z" transform="translate(28.83 110.5)"/><path d="M457.15,254.6a1.42,1.42,0,1,1-1.41,1.43A1.42,1.42,0,0,1,457.15,254.6Zm-1,15.35v-10.1h2v10.1h-2Z" transform="translate(28.83 110.5)"/><path d="M463.48,269.94h-2v-10.1h1.93v1.45a3.46,3.46,0,0,1,3.11-1.74c2.41,0,3.61,1.74,3.61,4v6.4h-2v-6.07c0-1.41-.59-2.54-2.35-2.54-1.55,0-2.35,1.24-2.35,2.77v5.84Z" transform="translate(28.83 110.5)"/><path d="M474.48,270a2.68,2.68,0,0,0,2.75,2.48c2.12,0,3.09-1.09,3.09-3.28V267.8a3.36,3.36,0,0,1-3.09,1.66,4.91,4.91,0,0,1,0-9.81,3.19,3.19,0,0,1,3.11,1.6v-1.41h2v9.34c0,2.56-1.26,5.06-5.06,5.06a4.42,4.42,0,0,1-4.66-3.76Zm5.92-5.48c0-2-1.18-3.23-2.88-3.23a2.91,2.91,0,0,0-2.92,3.23c0,2,1.13,3.23,2.92,3.23S480.4,266.52,480.4,264.57Z" transform="translate(28.83 110.5)"/><path d="M485.44,269.94v-15.2h2v15.2h-2Z" transform="translate(28.83 110.5)"/><path d="M499.57,267.07a4.58,4.58,0,0,1-4.54,3.19,5.38,5.38,0,0,1-.25-10.73c3.11,0,4.85,2.14,4.85,5.29a4.51,4.51,0,0,1,0,.63H492a3,3,0,0,0,3,3.07,2.75,2.75,0,0,0,2.83-2Zm-2-3.21a2.55,2.55,0,0,0-2.77-2.58,2.72,2.72,0,0,0-2.75,2.58h5.52Z" transform="translate(28.83 110.5)"/><path d="M516.9,264.88a5.17,5.17,0,1,1-5.17-5.35A5.1,5.1,0,0,1,516.9,264.88Zm-2,0c0-2.33-1.47-3.59-3.15-3.59s-3.15,1.26-3.15,3.59,1.47,3.61,3.15,3.61S514.88,267.24,514.88,264.88Z" transform="translate(28.83 110.5)"/><path d="M525,261.84a6.16,6.16,0,0,0-.86-0.06c-1.66,0-2.77.88-2.77,3.11v5.06h-2v-10.1h1.93v1.76a3.16,3.16,0,0,1,3-1.93,3.77,3.77,0,0,1,.65.06v2.1Z" transform="translate(28.83 110.5)"/><path d="M330.59,292.41a3.38,3.38,0,0,1-3.13,1.81c-3,0-4.79-2.35-4.79-5.35s1.93-5.29,4.79-5.29a3.1,3.1,0,0,1,3.09,1.7v-6.53h2v13.33a16,16,0,0,0,.1,1.87h-1.91a8.45,8.45,0,0,1-.1-1.36v-0.17Zm-2.94.06c1.81,0,2.92-1.57,2.92-3.65s-1.09-3.51-2.9-3.51-3,1.47-3,3.55S325.76,292.47,327.65,292.47Z" transform="translate(28.83 110.5)"/><path d="M345.35,288.88a5.17,5.17,0,1,1-5.17-5.35A5.1,5.1,0,0,1,345.35,288.88Zm-2,0c0-2.33-1.47-3.59-3.15-3.59s-3.15,1.26-3.15,3.59,1.47,3.61,3.15,3.61S343.33,291.24,343.33,288.88Z" transform="translate(28.83 110.5)"/><path d="M351.44,294.26a3.73,3.73,0,0,1-3.78-4.05v-6.36h2v6.07c0,1.39.63,2.6,2.29,2.6a2.28,2.28,0,0,0,2.39-2.58v-6.09h2v8.23a17,17,0,0,0,.1,1.87h-1.89a8.93,8.93,0,0,1-.08-1.22A3.3,3.3,0,0,1,351.44,294.26Z" transform="translate(28.83 110.5)"/><path d="M359.65,293.94v-15.2h2v6.53a3.68,3.68,0,0,1,3.34-1.72c3.07,0,4.64,2.35,4.64,5.29s-1.7,5.38-4.7,5.38a3.6,3.6,0,0,1-3.28-1.74v1.47h-2Zm4.93-8.65c-1.74,0-3,1.37-3,3.55s1.26,3.61,3,3.61,3-1.43,3-3.61S366.41,285.29,364.59,285.29Z" transform="translate(28.83 110.5)"/><path d="M372.1,293.94v-15.2h2v15.2h-2Z" transform="translate(28.83 110.5)"/><path d="M386.24,291.07a4.58,4.58,0,0,1-4.54,3.19,5.38,5.38,0,0,1-.25-10.73c3.11,0,4.85,2.14,4.85,5.29a4.44,4.44,0,0,1,0,.63h-7.6a3,3,0,0,0,3,3.07,2.75,2.75,0,0,0,2.83-2Zm-2-3.21a2.54,2.54,0,0,0-2.77-2.58,2.72,2.72,0,0,0-2.75,2.58h5.52Z" transform="translate(28.83 110.5)"/><path d="M401.17,297.93v-5.42a3.37,3.37,0,0,1-3.15,1.7c-2.9,0-4.79-2.42-4.79-5.35s1.78-5.27,4.75-5.27a3.4,3.4,0,0,1,3.23,1.81v-1.55h1.91v14.09h-2Zm-3-5.46c1.78,0,3-1.53,3-3.61s-1.2-3.53-3-3.53-3,1.45-3,3.53S396.4,292.47,398.21,292.47Z" transform="translate(28.83 110.5)"/><path d="M409.95,294.26a3.73,3.73,0,0,1-3.78-4.05v-6.36h2v6.07c0,1.39.63,2.6,2.29,2.6a2.28,2.28,0,0,0,2.39-2.58v-6.09h2v8.23a17,17,0,0,0,.1,1.87H413a8.93,8.93,0,0,1-.08-1.22A3.3,3.3,0,0,1,409.95,294.26Z" transform="translate(28.83 110.5)"/><path d="M427.54,288.88a5.17,5.17,0,1,1-5.17-5.35A5.1,5.1,0,0,1,427.54,288.88Zm-2,0c0-2.33-1.47-3.59-3.15-3.59s-3.15,1.26-3.15,3.59,1.47,3.61,3.15,3.61S425.53,291.24,425.53,288.88Z" transform="translate(28.83 110.5)"/><path d="M432.6,283.85h2.18v1.78H432.6v5.25a1.2,1.2,0,0,0,1.41,1.39,4,4,0,0,0,.78-0.08v1.68a4.3,4.3,0,0,1-1.34.19,2.62,2.62,0,0,1-2.81-2.88v-5.54H428.7v-1.78h0.55a1.41,1.41,0,0,0,1.55-1.55v-1.64h1.81v3.19Z" transform="translate(28.83 110.5)"/><path d="M446.11,291.07a4.58,4.58,0,0,1-4.54,3.19,5.38,5.38,0,0,1-.25-10.73c3.11,0,4.85,2.14,4.85,5.29a4.44,4.44,0,0,1,0,.63h-7.6a3,3,0,0,0,3,3.07,2.75,2.75,0,0,0,2.83-2Zm-2-3.21a2.54,2.54,0,0,0-2.77-2.58,2.72,2.72,0,0,0-2.75,2.58h5.52Z" transform="translate(28.83 110.5)"/><path d="M449.53,290.69a2.15,2.15,0,0,0,2.35,1.89,1.49,1.49,0,0,0,1.72-1.34,1.4,1.4,0,0,0-1.3-1.3l-1.72-.38a2.87,2.87,0,0,1-2.52-2.83,3.44,3.44,0,0,1,3.59-3.19,3.58,3.58,0,0,1,3.84,2.71l-1.74.65a2,2,0,0,0-2.1-1.68,1.52,1.52,0,0,0-1.68,1.34,1.24,1.24,0,0,0,1.15,1.22l1.64,0.36c1.83,0.4,2.79,1.51,2.79,3s-1.2,3.13-3.69,3.13c-2.77,0-3.95-1.79-4.12-2.94Z" transform="translate(28.83 110.5)"/><path d="M323.72,146.39V131.5h9v1.91h-7V138h6.34v1.93h-6.34v4.56h7v1.91h-9Z" transform="translate(28.83 110.5)"/><path d="M338,141.24l-3.63-5h2.39l2.48,3.55,2.44-3.55H344l-3.59,5c0.61,0.82,3.11,4.33,3.72,5.14h-2.37l-2.6-3.72-2.56,3.72h-2.35Z" transform="translate(28.83 110.5)"/><path d="M347.37,136.18a1.46,1.46,0,0,1,1.47,1.47,1.44,1.44,0,0,1-1.47,1.45,1.43,1.43,0,0,1-1.45-1.45A1.44,1.44,0,0,1,347.37,136.18Zm0,7.39a1.46,1.46,0,0,1,1.47,1.47,1.44,1.44,0,0,1-1.47,1.45,1.43,1.43,0,0,1-1.45-1.45A1.44,1.44,0,0,1,347.39,143.58Z" transform="translate(28.83 110.5)"/><path d="M358.06,136.84a1.57,1.57,0,0,1-1.53-1.78c0-2.48,1.62-3.55,2.79-3.67v1a2.19,2.19,0,0,0-1.57,2,0.79,0.79,0,0,1,.42-0.1,1.22,1.22,0,0,1,1.26,1.28A1.3,1.3,0,0,1,358.06,136.84Z" transform="translate(28.83 110.5)"/><path d="M373.17,146.39l-0.19-2.1a5.3,5.3,0,0,1-4.77,2.41c-3.74,0-7.22-2.73-7.22-7.77a7.34,7.34,0,0,1,7.37-7.75,6.62,6.62,0,0,1,6.59,4.49l-1.87.8a4.7,4.7,0,0,0-4.72-3.4c-2.67,0-5.27,1.91-5.27,5.86s2.52,5.9,5.19,5.9a4.23,4.23,0,0,0,4.6-3.88h-5.17V139.1h7.12v7.29h-1.66Z" transform="translate(28.83 110.5)"/><path d="M386.7,142.23h-6.59l-1.57,4.16h-2.2l5.92-14.89h2.37l5.92,14.89h-2.23Zm-5.86-1.91H386l-2.58-6.68Z" transform="translate(28.83 110.5)"/><path d="M400.66,142.17a3.12,3.12,0,0,1-2.5,1.39c-1.89,0-3.21-1.43-3.21-3.59,0-2.81,1.93-4.89,4.2-4.89a2.31,2.31,0,0,1,2.25,1.39l0.19-1.11h1.66l-1.13,5.27a3,3,0,0,0-.06.59,0.75,0.75,0,0,0,.8.86c1.18,0,2.27-1.89,2.27-4,0-3.07-2.33-5.35-5.88-5.35a6.31,6.31,0,0,0-6.45,6.7c0,3.67,2.48,6.42,6.68,6.42a6.81,6.81,0,0,0,4.3-1.47l0.86,1.13a8.06,8.06,0,0,1-5.17,1.87c-4.91,0-8.4-3.21-8.4-8a8,8,0,0,1,8.15-8.21c4.26,0,7.52,2.94,7.52,6.87,0,3.13-1.81,5.46-4,5.46A1.94,1.94,0,0,1,400.66,142.17Zm-1.49-5.52c-1.51,0-2.5,1.53-2.5,3.09,0,1.28.42,2.29,1.78,2.29s2.41-1.43,2.48-3.4A1.71,1.71,0,0,0,399.17,136.65Z" transform="translate(28.83 110.5)"/><path d="M410.32,146.49a2.68,2.68,0,0,0,2.75,2.48c2.12,0,3.09-1.09,3.09-3.28v-1.45a3.36,3.36,0,0,1-3.09,1.66,4.91,4.91,0,0,1,0-9.81,3.19,3.19,0,0,1,3.11,1.6v-1.41h2v9.34c0,2.56-1.26,5.06-5.06,5.06a4.42,4.42,0,0,1-4.66-3.76Zm5.92-5.48c0-2-1.18-3.23-2.88-3.23a2.91,2.91,0,0,0-2.92,3.23c0,2,1.13,3.23,2.92,3.23S416.25,143,416.25,141Z" transform="translate(28.83 110.5)"/><path d="M423.62,140.61l2.73-.4a0.74,0.74,0,0,0,.78-0.76c0-1-.65-1.81-2.18-1.81a2.14,2.14,0,0,0-2.29,2l-1.89-.44A3.89,3.89,0,0,1,424.9,136c3,0,4.2,1.72,4.2,3.7v5.06a9.5,9.5,0,0,0,.13,1.66h-1.93a7.39,7.39,0,0,1-.1-1.36,3.68,3.68,0,0,1-3.25,1.68,3.15,3.15,0,0,1-3.38-3C420.55,141.87,421.87,140.87,423.62,140.61Zm3.51,1.45V141.6l-3.09.46a1.51,1.51,0,0,0-1.47,1.51A1.53,1.53,0,0,0,424.2,145,2.65,2.65,0,0,0,427.12,142.06Z" transform="translate(28.83 110.5)"/><path d="M433.4,143.58a1.46,1.46,0,0,1,1.47,1.47,1.44,1.44,0,0,1-1.47,1.45A1.43,1.43,0,0,1,432,145,1.44,1.44,0,0,1,433.4,143.58Z" transform="translate(28.83 110.5)"/><path d="M438.88,141.33c0,2.31,1.45,3.55,3.09,3.55a2.75,2.75,0,0,0,2.81-2.08l1.74,0.76A4.64,4.64,0,0,1,442,146.7a5.37,5.37,0,0,1,0-10.73,4.39,4.39,0,0,1,4.49,3.21l-1.78.76a2.65,2.65,0,0,0-2.71-2.14C440.35,137.8,438.88,139,438.88,141.33Z" transform="translate(28.83 110.5)"/><path d="M458.22,141.33a5.17,5.17,0,1,1-5.17-5.35A5.1,5.1,0,0,1,458.22,141.33Zm-2,0c0-2.33-1.47-3.59-3.15-3.59s-3.15,1.26-3.15,3.59,1.47,3.61,3.15,3.61S456.21,143.68,456.21,141.33Z" transform="translate(28.83 110.5)"/><path d="M460.49,131.31a1.64,1.64,0,0,1,1.6,1.85c0,2.6-1.68,3.67-2.9,3.82v-1a2.23,2.23,0,0,0,1.62-2.12,0.79,0.79,0,0,1-.42.1,1.27,1.27,0,0,1-1.32-1.34A1.37,1.37,0,0,1,460.49,131.31Z" transform="translate(28.83 110.5)"/><path d="M323.72,172.39V157.5h9v1.91h-7V164h6.34v1.93h-6.34v4.56h7v1.91h-9Z" transform="translate(28.83 110.5)"/><path d="M338,167.25l-3.63-5h2.39l2.48,3.55,2.44-3.55H344l-3.59,5c0.61,0.82,3.11,4.33,3.72,5.14h-2.37l-2.6-3.72-2.56,3.72h-2.35Z" transform="translate(28.83 110.5)"/><path d="M347.37,162.18a1.46,1.46,0,0,1,1.47,1.47,1.44,1.44,0,0,1-1.47,1.45,1.43,1.43,0,0,1-1.45-1.45A1.44,1.44,0,0,1,347.37,162.18Zm0,7.39a1.46,1.46,0,0,1,1.47,1.47,1.44,1.44,0,0,1-1.47,1.45,1.43,1.43,0,0,1-1.45-1.45A1.44,1.44,0,0,1,347.39,169.58Z" transform="translate(28.83 110.5)"/><path d="M358.06,162.73a1.57,1.57,0,0,1-1.53-1.78c0-2.48,1.62-3.55,2.79-3.67v1a2.19,2.19,0,0,0-1.57,2,0.79,0.79,0,0,1,.42-0.1,1.22,1.22,0,0,1,1.26,1.28A1.3,1.3,0,0,1,358.06,162.73Zm3.59,0a1.57,1.57,0,0,1-1.53-1.78c0-2.48,1.62-3.55,2.79-3.67v1a2.19,2.19,0,0,0-1.57,2,0.79,0.79,0,0,1,.42-0.1,1.22,1.22,0,0,1,1.26,1.28A1.3,1.3,0,0,1,361.65,162.73Z" transform="translate(28.83 110.5)"/><path d="M375.4,172.39v-6.61h-7.6v6.61h-2.06V157.5h2.06v6.36h7.6V157.5h2.06v14.89H375.4Z" transform="translate(28.83 110.5)"/><path d="M390.52,167.33a5.17,5.17,0,1,1-5.17-5.35A5.1,5.1,0,0,1,390.52,167.33Zm-2,0c0-2.33-1.47-3.59-3.15-3.59s-3.15,1.26-3.15,3.59,1.47,3.61,3.15,3.61S388.5,169.68,388.5,167.33Z" transform="translate(28.83 110.5)"/><path d="M400.56,162.29l2.62,7.6,2.23-7.6h2.08l-3.28,10.1h-2l-2.69-7.68-2.62,7.68h-2.08l-3.32-10.1h2.16l2.27,7.6,2.62-7.6h2Z" transform="translate(28.83 110.5)"/><path d="M417.17,166.62l2.73-.4a0.73,0.73,0,0,0,.78-0.76c0-1-.65-1.81-2.18-1.81a2.14,2.14,0,0,0-2.29,2l-1.89-.44a3.89,3.89,0,0,1,4.14-3.28c3,0,4.2,1.72,4.2,3.7v5.06a9.49,9.49,0,0,0,.13,1.66h-1.93a7.39,7.39,0,0,1-.1-1.36,3.68,3.68,0,0,1-3.25,1.68,3.15,3.15,0,0,1-3.38-3C414.1,167.88,415.43,166.87,417.17,166.62Zm3.51,1.45V167.6l-3.09.46a1.51,1.51,0,0,0-1.47,1.51,1.53,1.53,0,0,0,1.64,1.47A2.65,2.65,0,0,0,420.68,168.06Z" transform="translate(28.83 110.5)"/><path d="M431.32,164.28a6.16,6.16,0,0,0-.86-0.06c-1.66,0-2.77.88-2.77,3.11v5.06h-2v-10.1h1.93v1.76a3.16,3.16,0,0,1,3-1.93,3.71,3.71,0,0,1,.65.06v2.1Z" transform="translate(28.83 110.5)"/><path d="M442.12,169.51a4.58,4.58,0,0,1-4.54,3.19,5.38,5.38,0,0,1-.25-10.73c3.11,0,4.85,2.14,4.85,5.29a4.44,4.44,0,0,1,0,.63h-7.6a3,3,0,0,0,3,3.07,2.75,2.75,0,0,0,2.83-2Zm-2-3.21a2.54,2.54,0,0,0-2.77-2.58,2.72,2.72,0,0,0-2.75,2.58h5.52Z" transform="translate(28.83 110.5)"/><path d="M450.31,176.61l2.52-5.33-4.35-9h2.27l3.15,7,3-7H459l-6.57,14.32h-2.16Z" transform="translate(28.83 110.5)"/><path d="M470,167.33a5.17,5.17,0,1,1-5.17-5.35A5.1,5.1,0,0,1,470,167.33Zm-2,0c0-2.33-1.47-3.59-3.15-3.59s-3.15,1.26-3.15,3.59,1.47,3.61,3.15,3.61S468,169.68,468,167.33Z" transform="translate(28.83 110.5)"/><path d="M476.1,172.7a3.73,3.73,0,0,1-3.78-4.05v-6.36h2v6.07c0,1.39.63,2.6,2.29,2.6a2.28,2.28,0,0,0,2.39-2.58v-6.09h2v8.23a17,17,0,0,0,.1,1.87h-1.89a8.93,8.93,0,0,1-.08-1.22A3.3,3.3,0,0,1,476.1,172.7Z" transform="translate(28.83 110.5)"/><path d="M493.23,172.7a3.73,3.73,0,0,1-3.78-4.05v-6.36h2v6.07c0,1.39.63,2.6,2.29,2.6a2.28,2.28,0,0,0,2.39-2.58v-6.09h2v8.23a17,17,0,0,0,.1,1.87H496.3a8.93,8.93,0,0,1-.08-1.22A3.3,3.3,0,0,1,493.23,172.7Z" transform="translate(28.83 110.5)"/><path d="M502.28,169.13a2.15,2.15,0,0,0,2.35,1.89,1.49,1.49,0,0,0,1.72-1.34,1.4,1.4,0,0,0-1.3-1.3l-1.72-.38a2.87,2.87,0,0,1-2.52-2.83A3.44,3.44,0,0,1,504.4,162a3.58,3.58,0,0,1,3.84,2.71l-1.74.65a2,2,0,0,0-2.1-1.68,1.52,1.52,0,0,0-1.68,1.34,1.24,1.24,0,0,0,1.16,1.22l1.64,0.36c1.83,0.4,2.79,1.51,2.79,3s-1.2,3.13-3.7,3.13c-2.77,0-3.95-1.79-4.12-2.94Z" transform="translate(28.83 110.5)"/><path d="M519.63,169.51a4.58,4.58,0,0,1-4.54,3.19,5.38,5.38,0,0,1-.25-10.73c3.11,0,4.85,2.14,4.85,5.29a4.36,4.36,0,0,1,0,.63H512a3,3,0,0,0,3,3.07,2.75,2.75,0,0,0,2.83-2Zm-2-3.21a2.54,2.54,0,0,0-2.77-2.58,2.72,2.72,0,0,0-2.75,2.58h5.52Z" transform="translate(28.83 110.5)"/><path d="M527.82,164.28a6.16,6.16,0,0,0-.86-0.06c-1.66,0-2.77.88-2.77,3.11v5.06h-2v-10.1h1.93v1.76a3.16,3.16,0,0,1,3-1.93,3.72,3.72,0,0,1,.65.06v2.1Z" transform="translate(28.83 110.5)"/><path d="M532.77,168.13c0-.25,0-0.46,0-0.74a3.65,3.65,0,0,1,1.74-3.28l0.92-.63a2.46,2.46,0,0,0,1.11-2.06A2.32,2.32,0,0,0,534,159a2.52,2.52,0,0,0-2.62,2.69,3.56,3.56,0,0,0,.15,1l-2-.25a3.67,3.67,0,0,1-.13-1,4.63,4.63,0,1,1,7.1,3.57l-1,.65a2.33,2.33,0,0,0-.92,2,3.39,3.39,0,0,0,0,.4h-1.85Zm0.9,1.62a1.4,1.4,0,0,1,1.39,1.39,1.38,1.38,0,0,1-1.39,1.37,1.36,1.36,0,0,1-1.37-1.37A1.38,1.38,0,0,1,533.68,169.74Z" transform="translate(28.83 110.5)"/><path d="M541.57,157.38a1.57,1.57,0,0,1,1.53,1.78,3.4,3.4,0,0,1-2.79,3.67v-1a2.15,2.15,0,0,0,1.57-2,0.79,0.79,0,0,1-.42.1,1.22,1.22,0,0,1-1.26-1.28A1.3,1.3,0,0,1,541.57,157.38Zm3.59,0a1.57,1.57,0,0,1,1.53,1.78,3.4,3.4,0,0,1-2.79,3.67v-1a2.16,2.16,0,0,0,1.58-2,0.79,0.79,0,0,1-.42.1,1.22,1.22,0,0,1-1.26-1.28A1.3,1.3,0,0,1,545.16,157.38Z" transform="translate(28.83 110.5)"/><path d="M622.39,146.39V131.5h9v1.91h-7V138h6.34v1.93h-6.34v4.56h7v1.91h-9Z" transform="translate(28.83 110.5)"/><path d="M636.67,141.24l-3.63-5h2.39l2.48,3.55,2.44-3.55h2.33l-3.59,5c0.61,0.82,3.11,4.33,3.72,5.14h-2.37l-2.6-3.72-2.56,3.72h-2.35Z" transform="translate(28.83 110.5)"/><path d="M646,136.18a1.46,1.46,0,0,1,1.47,1.47A1.44,1.44,0,0,1,646,139.1a1.43,1.43,0,0,1-1.45-1.45A1.44,1.44,0,0,1,646,136.18Zm0,7.39a1.46,1.46,0,0,1,1.47,1.47,1.44,1.44,0,0,1-1.47,1.45,1.43,1.43,0,0,1-1.45-1.45A1.44,1.44,0,0,1,646.05,143.58Z" transform="translate(28.83 110.5)"/><path d="M658.68,136.29h2.18v1.78h-2.18v5.25a1.2,1.2,0,0,0,1.41,1.39,4,4,0,0,0,.78-0.08v1.68a4.32,4.32,0,0,1-1.34.19,2.62,2.62,0,0,1-2.81-2.88v-5.54h-1.93v-1.78h0.55a1.41,1.41,0,0,0,1.55-1.55V133.1h1.81v3.19Z" transform="translate(28.83 110.5)"/><path d="M668.88,138.28a6.16,6.16,0,0,0-.86-0.06c-1.66,0-2.77.88-2.77,3.11v5.06h-2v-10.1h1.93v1.76a3.16,3.16,0,0,1,3-1.93,3.71,3.71,0,0,1,.65.06v2.1Z" transform="translate(28.83 110.5)"/><path d="M674.76,146.7a3.73,3.73,0,0,1-3.78-4.05v-6.36h2v6.07c0,1.39.63,2.6,2.29,2.6a2.28,2.28,0,0,0,2.39-2.58v-6.09h2v8.23a17,17,0,0,0,.1,1.87h-1.89a8.94,8.94,0,0,1-.08-1.22A3.29,3.29,0,0,1,674.76,146.7Z" transform="translate(28.83 110.5)"/><path d="M691.66,143.51a4.58,4.58,0,0,1-4.54,3.19,5.38,5.38,0,0,1-.25-10.73c3.11,0,4.85,2.14,4.85,5.29a4.36,4.36,0,0,1,0,.63h-7.6a3,3,0,0,0,3,3.07,2.75,2.75,0,0,0,2.83-2Zm-2-3.21a2.54,2.54,0,0,0-2.77-2.58,2.72,2.72,0,0,0-2.75,2.58h5.52Z" transform="translate(28.83 110.5)"/><path d="M622.39,172.39V157.5h9v1.91h-7V164h6.34v1.93h-6.34v4.56h7v1.91h-9Z" transform="translate(28.83 110.5)"/><path d="M636.67,167.25l-3.63-5h2.39l2.48,3.55,2.44-3.55h2.33l-3.59,5c0.61,0.82,3.11,4.33,3.72,5.14h-2.37l-2.6-3.72-2.56,3.72h-2.35Z" transform="translate(28.83 110.5)"/><path d="M646,162.18a1.46,1.46,0,0,1,1.47,1.47A1.44,1.44,0,0,1,646,165.1a1.43,1.43,0,0,1-1.45-1.45A1.44,1.44,0,0,1,646,162.18Zm0,7.39a1.46,1.46,0,0,1,1.47,1.47,1.44,1.44,0,0,1-1.47,1.45,1.43,1.43,0,0,1-1.45-1.45A1.44,1.44,0,0,1,646.05,169.58Z" transform="translate(28.83 110.5)"/><path d="M658.68,164.07v8.31h-2v-8.31h-1.87v-1.78h1.87v-1.7a3.2,3.2,0,0,1,3.32-3.46,2.55,2.55,0,0,1,1.18.21v1.76a2.27,2.27,0,0,0-.86-0.13,1.51,1.51,0,0,0-1.6,1.72v1.6h2.44v1.78h-2.44Z" transform="translate(28.83 110.5)"/><path d="M665.35,166.62l2.73-.4a0.73,0.73,0,0,0,.78-0.76c0-1-.65-1.81-2.18-1.81a2.14,2.14,0,0,0-2.29,2l-1.89-.44a3.89,3.89,0,0,1,4.14-3.28c3,0,4.2,1.72,4.2,3.7v5.06a9.49,9.49,0,0,0,.13,1.66H669a7.4,7.4,0,0,1-.1-1.36,3.68,3.68,0,0,1-3.25,1.68,3.15,3.15,0,0,1-3.38-3C662.29,167.88,663.61,166.87,665.35,166.62Zm3.51,1.45V167.6l-3.09.46a1.51,1.51,0,0,0-1.47,1.51,1.53,1.53,0,0,0,1.64,1.47A2.65,2.65,0,0,0,668.86,168.06Z" transform="translate(28.83 110.5)"/><path d="M673.9,172.39v-15.2h2v15.2h-2Z" transform="translate(28.83 110.5)"/><path d="M680.07,169.13a2.15,2.15,0,0,0,2.35,1.89,1.49,1.49,0,0,0,1.72-1.34,1.4,1.4,0,0,0-1.3-1.3l-1.72-.38a2.87,2.87,0,0,1-2.52-2.83,3.44,3.44,0,0,1,3.59-3.19,3.58,3.58,0,0,1,3.84,2.71l-1.74.65a2,2,0,0,0-2.1-1.68,1.52,1.52,0,0,0-1.68,1.34,1.24,1.24,0,0,0,1.15,1.22l1.64,0.36c1.83,0.4,2.79,1.51,2.79,3s-1.2,3.13-3.7,3.13c-2.77,0-3.95-1.79-4.12-2.94Z" transform="translate(28.83 110.5)"/><path d="M697.42,169.51a4.58,4.58,0,0,1-4.54,3.19,5.38,5.38,0,0,1-.25-10.73c3.11,0,4.85,2.14,4.85,5.29a4.36,4.36,0,0,1,0,.63h-7.6a3,3,0,0,0,3,3.07,2.75,2.75,0,0,0,2.83-2Zm-2-3.21a2.54,2.54,0,0,0-2.77-2.58,2.72,2.72,0,0,0-2.75,2.58h5.52Z" transform="translate(28.83 110.5)"/><path d="M632,77.77V71.16h-7.6v6.61h-2.06V62.89h2.06v6.36H632V62.89h2.06V77.77H632Z" transform="translate(28.83 110.5)"/><path d="M640,72l2.73-.4a0.74,0.74,0,0,0,.78-0.76c0-1-.65-1.81-2.18-1.81a2.14,2.14,0,0,0-2.29,2l-1.89-.44a3.9,3.9,0,0,1,4.14-3.28c3,0,4.2,1.72,4.2,3.7v5.06a9.5,9.5,0,0,0,.13,1.66h-1.93a7.37,7.37,0,0,1-.11-1.36,3.68,3.68,0,0,1-3.25,1.68,3.15,3.15,0,0,1-3.38-3C636.94,73.26,638.26,72.25,640,72Zm3.51,1.45V73l-3.09.46A1.51,1.51,0,0,0,639,75a1.53,1.53,0,0,0,1.64,1.47A2.65,2.65,0,0,0,643.51,73.45Z" transform="translate(28.83 110.5)"/><path d="M650.53,77.77h-2V67.68h1.93v1.45a3.46,3.46,0,0,1,3.11-1.74c2.41,0,3.61,1.74,3.61,4v6.4h-2V71.71c0-1.41-.59-2.54-2.35-2.54-1.55,0-2.35,1.24-2.35,2.77v5.84Z" transform="translate(28.83 110.5)"/><path d="M667.43,76.24A3.38,3.38,0,0,1,664.3,78c-3,0-4.79-2.35-4.79-5.35s1.93-5.29,4.79-5.29a3.1,3.1,0,0,1,3.09,1.7V62.57h2V75.91a16.15,16.15,0,0,0,.1,1.87h-1.91a8.44,8.44,0,0,1-.11-1.36V76.24Zm-2.94.06c1.81,0,2.92-1.57,2.92-3.65s-1.09-3.51-2.9-3.51-3,1.47-3,3.55S662.6,76.31,664.49,76.31Z" transform="translate(28.83 110.5)"/><path d="M672.7,77.77V62.57h2v15.2h-2Z" transform="translate(28.83 110.5)"/><path d="M686.84,74.9a4.58,4.58,0,0,1-4.54,3.19A5.38,5.38,0,0,1,682,67.36c3.11,0,4.85,2.14,4.85,5.29a4.36,4.36,0,0,1,0,.63h-7.6a3,3,0,0,0,3,3.07,2.75,2.75,0,0,0,2.83-2Zm-2-3.21a2.54,2.54,0,0,0-2.77-2.58,2.72,2.72,0,0,0-2.75,2.58h5.52Z" transform="translate(28.83 110.5)"/><path d="M690.26,74.52a2.15,2.15,0,0,0,2.35,1.89,1.49,1.49,0,0,0,1.72-1.34,1.4,1.4,0,0,0-1.3-1.3l-1.72-.38a2.87,2.87,0,0,1-2.52-2.83,3.44,3.44,0,0,1,3.59-3.19,3.58,3.58,0,0,1,3.84,2.71l-1.74.65a2,2,0,0,0-2.1-1.68,1.52,1.52,0,0,0-1.68,1.34,1.24,1.24,0,0,0,1.15,1.22L693.49,72c1.83,0.4,2.79,1.51,2.79,3s-1.2,3.13-3.7,3.13c-2.77,0-3.95-1.78-4.12-2.94Z" transform="translate(28.83 110.5)"/><path d="M706.81,67.68H709v1.78h-2.18v5.25a1.2,1.2,0,0,0,1.41,1.39A4,4,0,0,0,709,76v1.68a4.32,4.32,0,0,1-1.34.19A2.62,2.62,0,0,1,704.83,75V69.46H702.9V67.68h0.55A1.41,1.41,0,0,0,705,66.12V64.48h1.81v3.19Z" transform="translate(28.83 110.5)"/><path d="M717,69.67a6.16,6.16,0,0,0-.86-0.06c-1.66,0-2.77.88-2.77,3.11v5.06h-2V67.68h1.93v1.76a3.16,3.16,0,0,1,3-1.93,3.72,3.72,0,0,1,.65.06v2.1Z" transform="translate(28.83 110.5)"/><path d="M722.89,78.09A3.73,3.73,0,0,1,719.11,74V67.68h2v6.07c0,1.39.63,2.6,2.29,2.6a2.28,2.28,0,0,0,2.39-2.58V67.68h2v8.23a17,17,0,0,0,.1,1.87H726a8.94,8.94,0,0,1-.08-1.22A3.29,3.29,0,0,1,722.89,78.09Z" transform="translate(28.83 110.5)"/><path d="M739.8,74.9a4.58,4.58,0,0,1-4.54,3.19A5.38,5.38,0,0,1,735,67.36c3.11,0,4.85,2.14,4.85,5.29a4.51,4.51,0,0,1,0,.63h-7.6a3,3,0,0,0,3,3.07,2.75,2.75,0,0,0,2.83-2Zm-2-3.21A2.55,2.55,0,0,0,735,69.1a2.72,2.72,0,0,0-2.75,2.58h5.52Z" transform="translate(28.83 110.5)"/><path d="M757.12,72.71A5.17,5.17,0,1,1,752,67.36,5.1,5.1,0,0,1,757.12,72.71Zm-2,0c0-2.33-1.47-3.59-3.15-3.59s-3.15,1.26-3.15,3.59,1.47,3.61,3.15,3.61S755.11,75.07,755.11,72.71Z" transform="translate(28.83 110.5)"/><path d="M765.25,69.67a6.16,6.16,0,0,0-.86-0.06c-1.66,0-2.77.88-2.77,3.11v5.06h-2V67.68h1.93v1.76a3.16,3.16,0,0,1,3-1.93,3.71,3.71,0,0,1,.65.06v2.1Z" transform="translate(28.83 110.5)"/><path d="M624.82,93.46v8.31h-2V93.46h-1.87V91.68h1.87V90a3.2,3.2,0,0,1,3.32-3.46,2.55,2.55,0,0,1,1.18.21v1.76a2.27,2.27,0,0,0-.86-0.13,1.51,1.51,0,0,0-1.6,1.72v1.6h2.44v1.78h-2.44Z" transform="translate(28.83 110.5)"/><path d="M631.5,96l2.73-.4a0.74,0.74,0,0,0,.78-0.76c0-1-.65-1.81-2.18-1.81a2.14,2.14,0,0,0-2.29,2l-1.89-.44a3.89,3.89,0,0,1,4.14-3.28c3,0,4.2,1.72,4.2,3.7v5.06a9.5,9.5,0,0,0,.13,1.66h-1.93a7.4,7.4,0,0,1-.1-1.36,3.68,3.68,0,0,1-3.25,1.68,3.15,3.15,0,0,1-3.38-3C628.44,97.26,629.76,96.25,631.5,96ZM635,97.45V97l-3.09.46A1.51,1.51,0,0,0,630.45,99a1.53,1.53,0,0,0,1.64,1.47A2.65,2.65,0,0,0,635,97.45Z" transform="translate(28.83 110.5)"/><path d="M640,101.77V86.57h2v15.2h-2Z" transform="translate(28.83 110.5)"/><path d="M646.22,98.52a2.15,2.15,0,0,0,2.35,1.89,1.49,1.49,0,0,0,1.72-1.34,1.4,1.4,0,0,0-1.3-1.3l-1.72-.38a2.87,2.87,0,0,1-2.52-2.83,3.44,3.44,0,0,1,3.59-3.19,3.58,3.58,0,0,1,3.84,2.71l-1.74.65a2,2,0,0,0-2.1-1.68,1.52,1.52,0,0,0-1.68,1.34,1.24,1.24,0,0,0,1.15,1.22L649.46,96c1.83,0.4,2.79,1.51,2.79,3s-1.2,3.13-3.7,3.13c-2.77,0-3.95-1.78-4.12-2.94Z" transform="translate(28.83 110.5)"/><path d="M663.57,98.9a4.58,4.58,0,0,1-4.54,3.19,5.38,5.38,0,0,1-.25-10.73c3.11,0,4.85,2.14,4.85,5.29a4.36,4.36,0,0,1,0,.63H656a3,3,0,0,0,3,3.07,2.75,2.75,0,0,0,2.83-2Zm-2-3.21a2.54,2.54,0,0,0-2.77-2.58,2.72,2.72,0,0,0-2.75,2.58h5.52Z" transform="translate(28.83 110.5)"/><path d="M676,101.77h-2l-4.09-10.1h2.23L675,99.47l2.9-7.79h2.12Z" transform="translate(28.83 110.5)"/><path d="M684.27,96l2.73-.4a0.74,0.74,0,0,0,.78-0.76c0-1-.65-1.81-2.18-1.81a2.14,2.14,0,0,0-2.29,2l-1.89-.44a3.9,3.9,0,0,1,4.14-3.28c3,0,4.2,1.72,4.2,3.7v5.06a9.5,9.5,0,0,0,.13,1.66h-1.93a7.37,7.37,0,0,1-.11-1.36,3.68,3.68,0,0,1-3.25,1.68,3.15,3.15,0,0,1-3.38-3C681.21,97.26,682.53,96.25,684.27,96Zm3.51,1.45V97l-3.09.46A1.51,1.51,0,0,0,683.22,99a1.53,1.53,0,0,0,1.64,1.47A2.65,2.65,0,0,0,687.78,97.45Z" transform="translate(28.83 110.5)"/><path d="M692.82,101.77V86.57h2v15.2h-2Z" transform="translate(28.83 110.5)"/><path d="M701.73,102.09A3.73,3.73,0,0,1,697.95,98V91.68h2v6.07c0,1.39.63,2.6,2.29,2.6a2.28,2.28,0,0,0,2.39-2.58V91.68h2v8.23a17,17,0,0,0,.11,1.87h-1.89a8.94,8.94,0,0,1-.08-1.22A3.29,3.29,0,0,1,701.73,102.09Z" transform="translate(28.83 110.5)"/><path d="M718.63,98.9a4.58,4.58,0,0,1-4.54,3.19,5.38,5.38,0,0,1-.25-10.73c3.11,0,4.85,2.14,4.85,5.29a4.36,4.36,0,0,1,0,.63H711a3,3,0,0,0,3,3.07,2.75,2.75,0,0,0,2.83-2Zm-2-3.21a2.54,2.54,0,0,0-2.77-2.58,2.72,2.72,0,0,0-2.75,2.58h5.52Z" transform="translate(28.83 110.5)"/><path d="M722.05,98.52a2.15,2.15,0,0,0,2.35,1.89,1.49,1.49,0,0,0,1.72-1.34,1.4,1.4,0,0,0-1.3-1.3l-1.72-.38a2.87,2.87,0,0,1-2.52-2.83,3.44,3.44,0,0,1,3.59-3.19A3.58,3.58,0,0,1,728,94.07l-1.74.65a2,2,0,0,0-2.1-1.68,1.52,1.52,0,0,0-1.68,1.34,1.24,1.24,0,0,0,1.15,1.22L725.29,96c1.83,0.4,2.79,1.51,2.79,3s-1.2,3.13-3.7,3.13c-2.77,0-3.95-1.78-4.12-2.94Z" transform="translate(28.83 110.5)"/><path d="M322.78,70.32a7.38,7.38,0,0,1,7.39-7.75c3.4,0,5.79,1.85,6.55,4.72l-1.91.67a4.41,4.41,0,0,0-4.64-3.51c-2.71,0-5.29,2-5.29,5.86s2.58,5.88,5.29,5.88a4.73,4.73,0,0,0,4.75-3.57l1.83,0.67a6.5,6.5,0,0,1-6.57,4.79C326.33,78.09,322.78,75.3,322.78,70.32Z" transform="translate(28.83 110.5)"/><path d="M348.33,72.71a5.17,5.17,0,1,1-5.17-5.35A5.1,5.1,0,0,1,348.33,72.71Zm-2,0c0-2.33-1.47-3.59-3.15-3.59S340,70.38,340,72.71s1.47,3.61,3.15,3.61S346.32,75.07,346.32,72.71Z" transform="translate(28.83 110.5)"/><path d="M352.83,77.77h-2V67.68h1.93v1.45a3.46,3.46,0,0,1,3.11-1.74c2.41,0,3.61,1.74,3.61,4v6.4h-2V71.71c0-1.41-.59-2.54-2.35-2.54-1.55,0-2.35,1.24-2.35,2.77v5.84Z" transform="translate(28.83 110.5)"/><path d="M363.5,74.52a2.15,2.15,0,0,0,2.35,1.89,1.49,1.49,0,0,0,1.72-1.34,1.4,1.4,0,0,0-1.3-1.3l-1.72-.38A2.87,2.87,0,0,1,362,70.55a3.44,3.44,0,0,1,3.59-3.19,3.58,3.58,0,0,1,3.84,2.71l-1.74.65a2,2,0,0,0-2.1-1.68,1.52,1.52,0,0,0-1.68,1.34,1.24,1.24,0,0,0,1.15,1.22L366.73,72c1.83,0.4,2.79,1.51,2.79,3s-1.2,3.13-3.7,3.13c-2.77,0-3.95-1.78-4.12-2.94Z" transform="translate(28.83 110.5)"/><path d="M373.11,62.43a1.42,1.42,0,1,1-1.41,1.43A1.42,1.42,0,0,1,373.11,62.43Zm-1,15.35V67.68h2v10.1h-2Z" transform="translate(28.83 110.5)"/><path d="M378.3,74.52a2.15,2.15,0,0,0,2.35,1.89,1.49,1.49,0,0,0,1.72-1.34,1.4,1.4,0,0,0-1.3-1.3l-1.72-.38a2.87,2.87,0,0,1-2.52-2.83,3.44,3.44,0,0,1,3.59-3.19,3.58,3.58,0,0,1,3.84,2.71l-1.74.65a2,2,0,0,0-2.1-1.68,1.52,1.52,0,0,0-1.68,1.34,1.24,1.24,0,0,0,1.15,1.22L381.53,72c1.83,0.4,2.79,1.51,2.79,3s-1.2,3.13-3.7,3.13c-2.77,0-3.95-1.78-4.12-2.94Z" transform="translate(28.83 110.5)"/><path d="M389.6,67.68h2.18v1.78H389.6v5.25A1.2,1.2,0,0,0,391,76.1a4,4,0,0,0,.78-0.08v1.68a4.32,4.32,0,0,1-1.34.19A2.62,2.62,0,0,1,387.62,75V69.46h-1.93V67.68h0.55a1.41,1.41,0,0,0,1.55-1.55V64.48h1.81v3.19Z" transform="translate(28.83 110.5)"/><path d="M395.35,74.52a2.15,2.15,0,0,0,2.35,1.89,1.49,1.49,0,0,0,1.72-1.34,1.4,1.4,0,0,0-1.3-1.3l-1.72-.38a2.87,2.87,0,0,1-2.52-2.83,3.44,3.44,0,0,1,3.59-3.19,3.58,3.58,0,0,1,3.84,2.71l-1.74.65a2,2,0,0,0-2.1-1.68,1.52,1.52,0,0,0-1.68,1.34,1.24,1.24,0,0,0,1.15,1.22L398.58,72c1.83,0.4,2.79,1.51,2.79,3s-1.2,3.13-3.7,3.13c-2.77,0-3.95-1.78-4.12-2.94Z" transform="translate(28.83 110.5)"/><path d="M418.74,72.71a5.17,5.17,0,1,1-5.17-5.35A5.1,5.1,0,0,1,418.74,72.71Zm-2,0c0-2.33-1.47-3.59-3.15-3.59s-3.15,1.26-3.15,3.59,1.47,3.61,3.15,3.61S416.73,75.07,416.73,72.71Z" transform="translate(28.83 110.5)"/><path d="M423.91,69.46v8.31h-2V69.46H420V67.68h1.87V66a3.2,3.2,0,0,1,3.32-3.46,2.55,2.55,0,0,1,1.18.21v1.76a2.28,2.28,0,0,0-.86-0.13,1.51,1.51,0,0,0-1.6,1.72v1.6h2.44v1.78h-2.44Z" transform="translate(28.83 110.5)"/><path d="M433.72,77.77V62.57h2v15.2h-2Z" transform="translate(28.83 110.5)"/><path d="M447.85,74.9a4.58,4.58,0,0,1-4.54,3.19,5.38,5.38,0,0,1-.25-10.73c3.11,0,4.85,2.14,4.85,5.29a4.44,4.44,0,0,1,0,.63h-7.6a3,3,0,0,0,3,3.07,2.75,2.75,0,0,0,2.83-2Zm-2-3.21a2.54,2.54,0,0,0-2.77-2.58,2.72,2.72,0,0,0-2.75,2.58h5.52Z" transform="translate(28.83 110.5)"/><path d="M453.08,67.68h2.18v1.78h-2.18v5.25a1.2,1.2,0,0,0,1.41,1.39,4,4,0,0,0,.78-0.08v1.68a4.32,4.32,0,0,1-1.34.19A2.62,2.62,0,0,1,451.11,75V69.46h-1.93V67.68h0.55a1.41,1.41,0,0,0,1.55-1.55V64.48h1.81v3.19Z" transform="translate(28.83 110.5)"/><path d="M460.53,67.68h2.18v1.78h-2.18v5.25a1.2,1.2,0,0,0,1.41,1.39,4,4,0,0,0,.78-0.08v1.68a4.32,4.32,0,0,1-1.34.19A2.62,2.62,0,0,1,458.56,75V69.46h-1.93V67.68h0.55a1.41,1.41,0,0,0,1.55-1.55V64.48h1.81v3.19Z" transform="translate(28.83 110.5)"/><path d="M474,74.9a4.58,4.58,0,0,1-4.54,3.19,5.38,5.38,0,0,1-.25-10.73c3.11,0,4.85,2.14,4.85,5.29a4.36,4.36,0,0,1,0,.63h-7.6a3,3,0,0,0,3,3.07,2.75,2.75,0,0,0,2.83-2Zm-2-3.21a2.54,2.54,0,0,0-2.77-2.58,2.72,2.72,0,0,0-2.75,2.58H472Z" transform="translate(28.83 110.5)"/><path d="M482.23,69.67a6.16,6.16,0,0,0-.86-0.06c-1.66,0-2.77.88-2.77,3.11v5.06h-2V67.68h1.93v1.76a3.16,3.16,0,0,1,3-1.93,3.72,3.72,0,0,1,.65.06v2.1Z" transform="translate(28.83 110.5)"/><path d="M485.17,74.52a2.15,2.15,0,0,0,2.35,1.89,1.49,1.49,0,0,0,1.72-1.34,1.4,1.4,0,0,0-1.3-1.3l-1.72-.38a2.87,2.87,0,0,1-2.52-2.83,3.44,3.44,0,0,1,3.59-3.19,3.58,3.58,0,0,1,3.84,2.71l-1.74.65a2,2,0,0,0-2.1-1.68,1.52,1.52,0,0,0-1.68,1.34,1.24,1.24,0,0,0,1.16,1.22L488.4,72c1.83,0.4,2.79,1.51,2.79,3s-1.2,3.13-3.7,3.13c-2.77,0-3.95-1.78-4.12-2.94Z" transform="translate(28.83 110.5)"/><path d="M325.95,96l2.73-.4a0.74,0.74,0,0,0,.78-0.76c0-1-.65-1.81-2.18-1.81a2.14,2.14,0,0,0-2.29,2l-1.89-.44a3.89,3.89,0,0,1,4.14-3.28c3,0,4.2,1.72,4.2,3.7v5.06a9.5,9.5,0,0,0,.13,1.66h-1.93a7.39,7.39,0,0,1-.1-1.36,3.68,3.68,0,0,1-3.25,1.68,3.15,3.15,0,0,1-3.38-3C322.88,97.26,324.2,96.25,325.95,96Zm3.51,1.45V97l-3.09.46A1.51,1.51,0,0,0,324.9,99a1.53,1.53,0,0,0,1.64,1.47A2.65,2.65,0,0,0,329.45,97.45Z" transform="translate(28.83 110.5)"/><path d="M336.47,101.77h-2V91.68h1.93v1.45a3.46,3.46,0,0,1,3.11-1.74c2.41,0,3.61,1.74,3.61,4v6.4h-2V95.71c0-1.41-.59-2.54-2.35-2.54-1.55,0-2.35,1.24-2.35,2.77v5.84Z" transform="translate(28.83 110.5)"/><path d="M353.37,100.24a3.38,3.38,0,0,1-3.13,1.81c-3,0-4.79-2.35-4.79-5.35s1.93-5.29,4.79-5.29a3.1,3.1,0,0,1,3.09,1.7V86.57h2V99.91a16,16,0,0,0,.1,1.87h-1.91a8.46,8.46,0,0,1-.1-1.36v-0.17Zm-2.94.06c1.81,0,2.92-1.57,2.92-3.65s-1.09-3.51-2.9-3.51-3,1.47-3,3.55S348.54,100.31,350.43,100.31Z" transform="translate(28.83 110.5)"/><path d="M358.88,101.77H357l7.2-14.89h1.91Z" transform="translate(28.83 110.5)"/><path d="M374.73,96.71a5.17,5.17,0,1,1-5.17-5.35A5.1,5.1,0,0,1,374.73,96.71Zm-2,0c0-2.33-1.47-3.59-3.15-3.59s-3.15,1.26-3.15,3.59,1.47,3.61,3.15,3.61S372.71,99.07,372.71,96.71Z" transform="translate(28.83 110.5)"/><path d="M382.86,93.67a6.16,6.16,0,0,0-.86-0.06c-1.66,0-2.77.88-2.77,3.11v5.06h-2V91.68h1.93v1.76a3.16,3.16,0,0,1,3-1.93,3.71,3.71,0,0,1,.65.06v2.1Z" transform="translate(28.83 110.5)"/><path d="M399.7,96.71a5.17,5.17,0,1,1-5.17-5.35A5.1,5.1,0,0,1,399.7,96.71Zm-2,0c0-2.33-1.47-3.59-3.15-3.59s-3.15,1.26-3.15,3.59,1.47,3.61,3.15,3.61S397.68,99.07,397.68,96.71Z" transform="translate(28.83 110.5)"/><path d="M404.76,91.68h2.18v1.78h-2.18v5.25a1.2,1.2,0,0,0,1.41,1.39,4,4,0,0,0,.78-0.08v1.68a4.32,4.32,0,0,1-1.34.19A2.62,2.62,0,0,1,402.79,99V93.46h-1.93V91.68h0.55A1.41,1.41,0,0,0,403,90.12V88.48h1.81v3.19Z" transform="translate(28.83 110.5)"/><path d="M411.54,101.77h-2V86.57h2v6.28a3.57,3.57,0,0,1,3.07-1.47c2.41,0,3.61,1.74,3.61,4v6.4h-2V95.71c0-1.41-.59-2.54-2.35-2.54-1.51,0-2.31,1.18-2.35,2.67v5.94Z" transform="translate(28.83 110.5)"/><path d="M430.17,98.9a4.58,4.58,0,0,1-4.54,3.19,5.38,5.38,0,0,1-.25-10.73c3.11,0,4.85,2.14,4.85,5.29a4.44,4.44,0,0,1,0,.63h-7.6a3,3,0,0,0,3,3.07,2.75,2.75,0,0,0,2.83-2Zm-2-3.21a2.54,2.54,0,0,0-2.77-2.58,2.72,2.72,0,0,0-2.75,2.58h5.52Z" transform="translate(28.83 110.5)"/><path d="M438.36,93.67a6.16,6.16,0,0,0-.86-0.06c-1.66,0-2.77.88-2.77,3.11v5.06h-2V91.68h1.93v1.76a3.16,3.16,0,0,1,3-1.93,3.71,3.71,0,0,1,.65.06v2.1Z" transform="translate(28.83 110.5)"/><path d="M446.88,96.71c0,2.31,1.45,3.55,3.09,3.55a2.74,2.74,0,0,0,2.81-2.08l1.74,0.76a4.64,4.64,0,0,1-4.56,3.15,5.37,5.37,0,0,1,0-10.73,4.39,4.39,0,0,1,4.49,3.21l-1.79.76A2.65,2.65,0,0,0,450,93.19C448.35,93.19,446.88,94.36,446.88,96.71Z" transform="translate(28.83 110.5)"/><path d="M458.81,101.77h-2V86.57h2v6.28a3.57,3.57,0,0,1,3.07-1.47c2.41,0,3.61,1.74,3.61,4v6.4h-2V95.71c0-1.41-.59-2.54-2.35-2.54-1.51,0-2.31,1.18-2.35,2.67v5.94Z" transform="translate(28.83 110.5)"/><path d="M471.08,96l2.73-.4a0.74,0.74,0,0,0,.78-0.76c0-1-.65-1.81-2.18-1.81a2.14,2.14,0,0,0-2.29,2l-1.89-.44a3.89,3.89,0,0,1,4.14-3.28c3,0,4.2,1.72,4.2,3.7v5.06a9.5,9.5,0,0,0,.13,1.66h-1.93a7.4,7.4,0,0,1-.1-1.36,3.68,3.68,0,0,1-3.25,1.68,3.15,3.15,0,0,1-3.38-3C468,97.26,469.33,96.25,471.08,96Zm3.51,1.45V97l-3.09.46A1.51,1.51,0,0,0,470,99a1.53,1.53,0,0,0,1.64,1.47A2.65,2.65,0,0,0,474.58,97.45Z" transform="translate(28.83 110.5)"/><path d="M485.23,93.67a6.16,6.16,0,0,0-.86-0.06c-1.66,0-2.77.88-2.77,3.11v5.06h-2V91.68h1.93v1.76a3.16,3.16,0,0,1,3-1.93,3.72,3.72,0,0,1,.65.06v2.1Z" transform="translate(28.83 110.5)"/><path d="M489.77,96l2.73-.4a0.74,0.74,0,0,0,.78-0.76c0-1-.65-1.81-2.18-1.81a2.14,2.14,0,0,0-2.29,2l-1.89-.44A3.89,3.89,0,0,1,491,91.36c3,0,4.2,1.72,4.2,3.7v5.06a9.5,9.5,0,0,0,.13,1.66h-1.93a7.4,7.4,0,0,1-.1-1.36,3.68,3.68,0,0,1-3.25,1.68,3.15,3.15,0,0,1-3.38-3C486.7,97.26,488,96.25,489.77,96Zm3.51,1.45V97l-3.09.46A1.51,1.51,0,0,0,488.72,99a1.53,1.53,0,0,0,1.64,1.47A2.65,2.65,0,0,0,493.27,97.45Z" transform="translate(28.83 110.5)"/><path d="M499.49,96.71c0,2.31,1.45,3.55,3.09,3.55a2.75,2.75,0,0,0,2.81-2.08l1.74,0.76a4.64,4.64,0,0,1-4.56,3.15,5.37,5.37,0,0,1,0-10.73A4.39,4.39,0,0,1,507,94.57l-1.78.76a2.65,2.65,0,0,0-2.71-2.14C501,93.19,499.49,94.36,499.49,96.71Z" transform="translate(28.83 110.5)"/><path d="M512.09,91.68h2.18v1.78h-2.18v5.25a1.2,1.2,0,0,0,1.41,1.39,4,4,0,0,0,.78-0.08v1.68a4.32,4.32,0,0,1-1.34.19A2.62,2.62,0,0,1,510.11,99V93.46h-1.93V91.68h0.55a1.41,1.41,0,0,0,1.55-1.55V88.48h1.81v3.19Z" transform="translate(28.83 110.5)"/><path d="M525.59,98.9a4.58,4.58,0,0,1-4.54,3.19,5.38,5.38,0,0,1-.25-10.73c3.11,0,4.85,2.14,4.85,5.29a4.51,4.51,0,0,1,0,.63H518a3,3,0,0,0,3,3.07,2.75,2.75,0,0,0,2.83-2Zm-2-3.21a2.55,2.55,0,0,0-2.77-2.58,2.72,2.72,0,0,0-2.75,2.58h5.52Z" transform="translate(28.83 110.5)"/><path d="M533.78,93.67a6.16,6.16,0,0,0-.86-0.06c-1.66,0-2.77.88-2.77,3.11v5.06h-2V91.68h1.93v1.76a3.16,3.16,0,0,1,3-1.93,3.71,3.71,0,0,1,.65.06v2.1Z" transform="translate(28.83 110.5)"/><path d="M536.72,98.52a2.15,2.15,0,0,0,2.35,1.89,1.49,1.49,0,0,0,1.72-1.34,1.4,1.4,0,0,0-1.3-1.3l-1.72-.38a2.87,2.87,0,0,1-2.52-2.83,3.44,3.44,0,0,1,3.59-3.19,3.58,3.58,0,0,1,3.84,2.71l-1.74.65a2,2,0,0,0-2.1-1.68,1.52,1.52,0,0,0-1.68,1.34,1.24,1.24,0,0,0,1.15,1.22L540,96c1.83,0.4,2.79,1.51,2.79,3s-1.2,3.13-3.7,3.13c-2.77,0-3.95-1.78-4.12-2.94Z" transform="translate(28.83 110.5)"/><path d="M412,21.67a5.14,5.14,0,0,1-.1-0.94c0-2.39,1.81-4.56,5-4.56s4.91,2,4.91,4.39a4.89,4.89,0,0,1-2.65,4.22l-2.62,1.6a2.78,2.78,0,0,0-1.18,1.24h6.53v2.5H411.84A6.22,6.22,0,0,1,415,24.29l2.25-1.34a2.66,2.66,0,0,0,1.62-2.35,1.86,1.86,0,0,0-2.06-1.87A2.06,2.06,0,0,0,414.69,21a3,3,0,0,0,.1.76Z" transform="translate(28.83 110.5)"/><path d="M425.82,26.43a1.91,1.91,0,1,1-1.91,1.91A1.92,1.92,0,0,1,425.82,26.43Z" transform="translate(28.83 110.5)"/><path d="M443.4,19.57a2.54,2.54,0,0,0-2.71-2.1,2.11,2.11,0,0,0-2.33,1.89A1.71,1.71,0,0,0,440,21l2.08,0.4c2.71,0.52,4.16,2.29,4.16,4.39,0,2.29-1.91,4.6-5.37,4.6-3.95,0-5.69-2.54-5.92-4.66L437.6,25a3,3,0,0,0,3.25,2.79c1.55,0,2.41-.78,2.41-1.83a1.91,1.91,0,0,0-1.81-1.76l-2.08-.42c-2.37-.48-3.91-2-3.91-4.26a4.93,4.93,0,0,1,5.19-4.66c3.61,0,5,2.18,5.33,3.86Z" transform="translate(28.83 110.5)"/><path d="M452,19.78h2.08v2.48H452v4.33a1,1,0,0,0,1.22,1.2,4.05,4.05,0,0,0,.86-0.08V30a4.14,4.14,0,0,1-1.58.25,3,3,0,0,1-3.27-3.19V22.26h-1.87V19.78h0.52a1.49,1.49,0,0,0,1.6-1.64V16.69H452v3.09Z" transform="translate(28.83 110.5)"/><path d="M462.61,22.55a4.21,4.21,0,0,0-.84-0.08c-1.43,0-2.67.69-2.67,2.92v4.72h-2.79V19.78H459v1.53A3.07,3.07,0,0,1,462,19.69a6.36,6.36,0,0,1,.65,0v2.81Z" transform="translate(28.83 110.5)"/><path d="M466,14.65a1.72,1.72,0,1,1-1.72,1.74A1.72,1.72,0,0,1,466,14.65Zm-1.39,15.45V19.78h2.79V30.11h-2.79Z" transform="translate(28.83 110.5)"/><path d="M473.15,30.11h-2.79V19.78h2.71v1.28a3.43,3.43,0,0,1,3-1.55c2.56,0,3.74,1.83,3.74,4.09v6.51H477v-6A1.82,1.82,0,0,0,475.09,22a1.94,1.94,0,0,0-1.93,2.14v5.94Z" transform="translate(28.83 110.5)"/><path d="M484.41,30a2.31,2.31,0,0,0,2.42,2c1.76,0,2.75-.88,2.75-2.88V28.32a3.28,3.28,0,0,1-2.88,1.32,4.78,4.78,0,0,1-4.81-5,4.85,4.85,0,0,1,4.81-5A3.13,3.13,0,0,1,489.64,21V19.78h2.69V29c0,2.83-1.53,5.42-5.42,5.42-2.83,0-4.72-1.76-5-3.74Zm5.21-5.37a2.46,2.46,0,1,0-4.91,0A2.46,2.46,0,1,0,489.62,24.63Z" transform="translate(28.83 110.5)"/><path d="M703.71,22L707.28,19h-6v-2.5H711v2.33l-3.53,2.94a4.06,4.06,0,0,1,3.95,4.16c0,2.35-1.93,4.51-5.23,4.51s-5.1-2.06-5.27-4.35l2.79-.55a2.4,2.4,0,0,0,2.48,2.39,2.09,2.09,0,0,0,2.31-2.06,2,2,0,0,0-2.23-2,3.38,3.38,0,0,0-1.24.21Z" transform="translate(28.83 110.5)"/><path d="M715.07,26.43a1.91,1.91,0,1,1-1.91,1.91A1.92,1.92,0,0,1,715.07,26.43Z" transform="translate(28.83 110.5)"/><path d="M730.59,15.22c2.9,0,4.54,1.7,4.54,4A3.31,3.31,0,0,1,733,22.42,3.52,3.52,0,0,1,735.59,26c0,2.41-1.81,4.16-4.6,4.16h-5.75V15.22h5.35Zm-0.44,6.15a1.86,1.86,0,0,0,2.12-1.87c0-1.13-.73-1.85-2.14-1.85h-2v3.72h2.06Zm0.29,6.32c1.41,0,2.25-.73,2.25-1.93a1.94,1.94,0,0,0-2.2-2h-2.39v3.93h2.35Z" transform="translate(28.83 110.5)"/><path d="M748,24.94a5.42,5.42,0,1,1-10.83,0A5.42,5.42,0,1,1,748,24.94Zm-2.79,0a2.64,2.64,0,1,0-5.25,0A2.64,2.64,0,1,0,745.21,24.94Z" transform="translate(28.83 110.5)"/><path d="M760.26,24.94a5.42,5.42,0,1,1-10.83,0A5.42,5.42,0,1,1,760.26,24.94Zm-2.79,0a2.64,2.64,0,1,0-5.25,0A2.64,2.64,0,1,0,757.47,24.94Z" transform="translate(28.83 110.5)"/><path d="M762.47,30.11V14.91h2.79v15.2h-2.79Z" transform="translate(28.83 110.5)"/><path d="M777.5,27.15a4.65,4.65,0,0,1-4.7,3.28,5.23,5.23,0,0,1-5.33-5.52,5.19,5.19,0,0,1,5.08-5.44c3.19,0,5.1,2,5.1,5.35,0,0.4,0,.82,0,0.86h-7.39a2.52,2.52,0,0,0,2.6,2.35,2.28,2.28,0,0,0,2.35-1.57Zm-2.6-3.38a2.08,2.08,0,0,0-2.31-2,2.23,2.23,0,0,0-2.31,2h4.62Z" transform="translate(28.83 110.5)"/><path d="M782.31,24.17l2.54-.38a0.73,0.73,0,0,0,.78-0.73c0-.73-0.57-1.34-1.74-1.34a1.83,1.83,0,0,0-2,1.68l-2.48-.52c0.17-1.62,1.66-3.4,4.43-3.4,3.28,0,4.49,1.85,4.49,3.93v5.08a11.64,11.64,0,0,0,.13,1.64h-2.56a7,7,0,0,1-.1-1.24,3.45,3.45,0,0,1-3,1.53,3.26,3.26,0,0,1-3.55-3.11C779.23,25.45,780.59,24.42,782.31,24.17Zm3.32,1.76V25.47l-2.33.36a1.3,1.3,0,0,0-1.28,1.3,1.21,1.21,0,0,0,1.34,1.2A2.1,2.1,0,0,0,785.63,25.93Z" transform="translate(28.83 110.5)"/><path d="M794,30.11h-2.79V19.78h2.71v1.28a3.43,3.43,0,0,1,3-1.55c2.56,0,3.74,1.83,3.74,4.09v6.51h-2.79v-6A1.82,1.82,0,0,0,795.9,22,1.94,1.94,0,0,0,794,24.17v5.94Z" transform="translate(28.83 110.5)"/></svg>