<svg id="Layer_1" data-name="Layer 1" xmlns="http://www.w3.org/2000/svg" viewBox="0 0 267.33 267.33"><defs><style>.cls-1{fill:#85e8da;}.cls-2{fill:#1ecac7;}</style></defs><title>Slide-7-Grocery</title><polygon class="cls-1" points="0 0 0 267.33 223.69 267.33 223.69 223.69 267.33 223.69 267.33 0 0 0"/><polyline class="cls-2" points="267.33 223.69 223.69 223.69 223.69 267.33"/><path d="M24,30.9a6.81,6.81,0,0,1,6-3.12,6.81,6.81,0,0,1,6,3.12,12.52,12.52,0,0,1,1.74,7,12.52,12.52,0,0,1-1.74,7,6.81,6.81,0,0,1-6,3.12A6.81,6.81,0,0,1,24,45a12.52,12.52,0,0,1-1.74-7A12.52,12.52,0,0,1,24,30.9Zm2.88,13.35A4,4,0,0,0,30,45.51a4,4,0,0,0,3.09-1.26c1.17-1.23,1.71-3.33,1.71-6.3s-0.54-5.07-1.71-6.3A4,4,0,0,0,30,30.39a4,4,0,0,0-3.09,1.26C25.71,32.88,25.17,35,25.17,38S25.71,43,26.88,44.25Z"/><path d="M42.15,43.65a2.09,2.09,0,0,1,2.1,2.1,2.06,2.06,0,0,1-2.1,2.07,2,2,0,0,1-2.07-2.07A2.06,2.06,0,0,1,42.15,43.65Z"/><path d="M76.62,47.67V31.11L69.36,47.67h-2.7l-7.2-16.56V47.67H56.55V26.4h4L68,43.71,75.6,26.4h3.93V47.67H76.62Z"/><path d="M86,25.74a2,2,0,1,1-2,2A2,2,0,0,1,86,25.74ZM84.63,47.67V33.24h2.79V47.67H84.63Z"/><path d="M92.22,47.67V26H95V47.67H92.22Z"/><path d="M106.62,39.33l6.27,8.34h-3.54l-4.71-6.36-2,2v4.35H99.84V26h2.79V39.63l6.24-6.39h3.9Z"/><path d="M26.22,83.67V70H21.51V67.89c2.7-.06,4.56-1.56,5-3.66H29.1V83.67H26.22Z"/><path d="M35.22,79.65a2.09,2.09,0,0,1,2.1,2.1,2.06,2.06,0,0,1-2.1,2.07,2,2,0,0,1-2.07-2.07A2.06,2.06,0,0,1,35.22,79.65Z"/><path d="M49.62,83.67V62.4H62.55v2.73h-10v6.54h9.06v2.76H52.56v6.51h10v2.73H49.62Z"/><path d="M67.83,83.82a3.84,3.84,0,0,0,3.93,3.54c3,0,4.41-1.56,4.41-4.68V80.61A4.8,4.8,0,0,1,71.76,83c-3.84,0-6.63-2.91-6.63-7,0-3.9,2.67-7,6.63-7,2.22,0,3.72.84,4.44,2.28v-2H79V82.59c0,3.66-1.8,7.23-7.23,7.23-3.6,0-6.3-2.28-6.66-5.37ZM76.29,76c0-2.79-1.68-4.62-4.11-4.62S68,73.2,68,76s1.62,4.62,4.17,4.62S76.29,78.78,76.29,76Z"/><path d="M85.17,83.82a3.84,3.84,0,0,0,3.93,3.54c3,0,4.41-1.56,4.41-4.68V80.61A4.8,4.8,0,0,1,89.1,83c-3.84,0-6.63-2.91-6.63-7,0-3.9,2.67-7,6.63-7,2.22,0,3.72.84,4.44,2.28v-2h2.79V82.59c0,3.66-1.8,7.23-7.23,7.23-3.6,0-6.3-2.28-6.66-5.37ZM93.63,76c0-2.79-1.68-4.62-4.11-4.62S85.35,73.2,85.35,76s1.62,4.62,4.17,4.62S93.63,78.78,93.63,76Z"/><path d="M102,79a3.08,3.08,0,0,0,3.36,2.7c1.59,0,2.46-.9,2.46-1.92A2,2,0,0,0,106,77.94l-2.46-.54a4.11,4.11,0,0,1-3.6-4.05c0-2.46,2.31-4.56,5.13-4.56,4,0,5.19,2.58,5.49,3.87l-2.49.93a2.8,2.8,0,0,0-3-2.4,2.18,2.18,0,0,0-2.4,1.92,1.77,1.77,0,0,0,1.65,1.74l2.34,0.51c2.61,0.57,4,2.16,4,4.29s-1.71,4.47-5.28,4.47c-4,0-5.64-2.55-5.88-4.2Z"/><path d="M22.05,106.86a7,7,0,0,1,0-.78c0-3.33,2.46-6.3,6.72-6.3s6.57,2.73,6.57,6a7.08,7.08,0,0,1-3.66,6l-3.84,2.46a4.76,4.76,0,0,0-2.37,2.73h10v2.73H21.81c0.06-3.18,1.32-5.61,4.62-7.74l3.24-2.1c1.83-1.17,2.67-2.55,2.67-4a3.36,3.36,0,0,0-3.66-3.42c-2.55,0-3.75,1.77-3.75,4,0,0.27,0,.57.06,0.87Z"/><path d="M40.8,115.65a2.09,2.09,0,0,1,2.1,2.1,2.06,2.06,0,0,1-2.1,2.07,2,2,0,0,1-2.07-2.07A2.06,2.06,0,0,1,40.8,115.65Z"/><path d="M55.2,119.67V98.4H68.13v2.73h-10V108H67.2v2.76H58.14v8.94H55.2Z"/><path d="M78.69,108.09a8.72,8.72,0,0,0-1.23-.09c-2.37,0-4,1.26-4,4.44v7.23H70.68V105.24h2.76v2.52A4.52,4.52,0,0,1,77.76,105a5.28,5.28,0,0,1,.93.09v3Z"/><path d="M95.1,112.44c0,4.41-3.06,7.68-7.38,7.68s-7.38-3.27-7.38-7.68A7.38,7.38,0,1,1,95.1,112.44Zm-2.88,0c0-3.33-2.1-5.13-4.5-5.13s-4.5,1.8-4.5,5.13,2.1,5.16,4.5,5.16S92.22,115.8,92.22,112.44Z"/><path d="M99.9,115a3.08,3.08,0,0,0,3.36,2.7c1.59,0,2.46-.9,2.46-1.92a2,2,0,0,0-1.86-1.86l-2.46-.54a4.11,4.11,0,0,1-3.6-4c0-2.46,2.31-4.56,5.13-4.56,4,0,5.19,2.58,5.49,3.87l-2.49.93a2.8,2.8,0,0,0-3-2.4,2.18,2.18,0,0,0-2.4,1.92,1.77,1.77,0,0,0,1.65,1.74l2.34,0.51c2.61,0.57,4,2.16,4,4.29s-1.71,4.47-5.28,4.47c-4,0-5.64-2.55-5.88-4.2Z"/><path d="M116,105.24h3.12v2.55H116v7.5a1.71,1.71,0,0,0,2,2,5.75,5.75,0,0,0,1.11-.12v2.4a6.17,6.17,0,0,1-1.92.27,3.75,3.75,0,0,1-4-4.11v-7.92h-2.76v-2.55h0.78a2,2,0,0,0,2.22-2.22v-2.34H116v4.56Z"/><path d="M135.33,115.56a6.54,6.54,0,0,1-6.48,4.56c-3.87,0-7.26-2.82-7.26-7.71,0-4.53,3.27-7.62,6.9-7.62,4.44,0,6.93,3.06,6.93,7.56a6.28,6.28,0,0,1-.06.9H124.5a4.28,4.28,0,0,0,4.35,4.38,3.93,3.93,0,0,0,4-2.91ZM132.48,111a3.64,3.64,0,0,0-4-3.69,3.88,3.88,0,0,0-3.93,3.69h7.89Z"/><path d="M149.13,117.48a4.83,4.83,0,0,1-4.47,2.58c-4.23,0-6.84-3.36-6.84-7.65,0-4.08,2.76-7.56,6.84-7.56,2.55,0,3.93,1.26,4.41,2.43V98h2.79v19a23.07,23.07,0,0,0,.15,2.67h-2.73a12.13,12.13,0,0,1-.15-2v-0.24Zm-4.2.09c2.58,0,4.17-2.25,4.17-5.22s-1.56-5-4.14-5-4.26,2.1-4.26,5.07S142.23,117.57,144.93,117.57Z"/><path d="M164.46,119.67V98.4h12.93v2.73h-10V108h9.06v2.76H167.4v8.94h-2.94Z"/><path d="M180.84,119.67V98h2.82v21.72h-2.82Z"/><path d="M191.94,111.42l3.9-.57a1.05,1.05,0,0,0,1.11-1.08c0-1.41-.93-2.58-3.12-2.58a3.06,3.06,0,0,0-3.27,2.91l-2.7-.63c0.3-2.76,2.79-4.68,5.91-4.68,4.32,0,6,2.46,6,5.28v7.23a13.64,13.64,0,0,0,.18,2.37h-2.76a10.5,10.5,0,0,1-.15-2,5.26,5.26,0,0,1-4.65,2.4c-2.94,0-4.83-2-4.83-4.32C187.56,113.22,189.45,111.78,191.94,111.42Zm5,2.07v-0.66l-4.41.66a2.16,2.16,0,0,0-2.1,2.16,2.19,2.19,0,0,0,2.34,2.1C195.09,117.75,197,116.64,197,113.49Z"/><path d="M210.93,111.33l6.27,8.34h-3.54L209,113.31l-2,2v4.35h-2.79V98h2.79v13.68l6.24-6.39h3.9Z"/><path d="M231.72,115.56a6.54,6.54,0,0,1-6.48,4.56c-3.87,0-7.26-2.82-7.26-7.71,0-4.53,3.27-7.62,6.9-7.62,4.44,0,6.93,3.06,6.93,7.56a6.28,6.28,0,0,1-.06.9H220.89a4.28,4.28,0,0,0,4.35,4.38,3.93,3.93,0,0,0,4-2.91ZM228.87,111a3.64,3.64,0,0,0-4-3.69A3.88,3.88,0,0,0,221,111h7.89Z"/><path d="M236.61,115a3.08,3.08,0,0,0,3.36,2.7c1.59,0,2.46-.9,2.46-1.92a2,2,0,0,0-1.86-1.86l-2.46-.54a4.1,4.1,0,0,1-3.6-4c0-2.46,2.31-4.56,5.13-4.56,4,0,5.19,2.58,5.49,3.87l-2.49.93a2.8,2.8,0,0,0-3-2.4,2.18,2.18,0,0,0-2.4,1.92,1.77,1.77,0,0,0,1.65,1.74l2.34,0.51c2.61,0.57,4,2.16,4,4.29s-1.71,4.47-5.28,4.47c-4,0-5.64-2.55-5.88-4.2Z"/><path d="M26.07,144.21l5.73-5.28H22.5v-2.7H35.7v2.64L30.15,144a5.77,5.77,0,0,1,6,5.91c0,3.27-2.52,6.24-7,6.24s-7-2.94-7.23-6.12l2.88-.66a4.2,4.2,0,0,0,4.32,4.2c2.67,0,4.11-1.65,4.11-3.6,0-2.55-2-3.63-4-3.63a5.23,5.23,0,0,0-1.71.3Z"/><path d="M41.22,151.65a2.09,2.09,0,0,1,2.1,2.1,2.06,2.06,0,0,1-2.1,2.07,2,2,0,0,1-2.07-2.07A2.06,2.06,0,0,1,41.22,151.65Z"/><path d="M66.54,140.16a4.32,4.32,0,0,0-4.5-3.63c-2.4,0-4.11,1.56-4.11,3.54a3.08,3.08,0,0,0,2.73,3.09l3.18,0.69c3.54,0.78,5.52,3,5.52,6,0,3.3-2.82,6.3-7.35,6.3-5.13,0-7.56-3.3-7.95-6.33l2.82-.9a4.83,4.83,0,0,0,5.1,4.56c2.94,0,4.38-1.53,4.38-3.39,0-1.53-1-2.85-3.18-3.3l-3-.66c-3-.66-5.19-2.64-5.19-5.82S58.05,134,62,134c4.8,0,6.72,3,7.2,5.28Z"/><path d="M76.44,147.42l3.9-.57a1.05,1.05,0,0,0,1.11-1.08c0-1.41-.93-2.58-3.12-2.58a3.06,3.06,0,0,0-3.27,2.91l-2.7-.63c0.3-2.76,2.79-4.68,5.91-4.68,4.32,0,6,2.46,6,5.28v7.23a13.57,13.57,0,0,0,.18,2.37H81.69a10.56,10.56,0,0,1-.15-2,5.26,5.26,0,0,1-4.65,2.4c-2.94,0-4.83-2-4.83-4.32C72.06,149.22,74,147.78,76.44,147.42Zm5,2.07v-0.66l-4.41.66a2.16,2.16,0,0,0-2.1,2.16,2.19,2.19,0,0,0,2.34,2.1C79.59,153.75,81.45,152.64,81.45,149.49Z"/><path d="M88.65,155.67V134h2.82v21.72H88.65Z"/><path d="M99.75,147.42l3.9-.57a1.05,1.05,0,0,0,1.11-1.08c0-1.41-.93-2.58-3.12-2.58a3.06,3.06,0,0,0-3.27,2.91l-2.7-.63c0.3-2.76,2.79-4.68,5.91-4.68,4.32,0,6,2.46,6,5.28v7.23a13.57,13.57,0,0,0,.18,2.37H105a10.56,10.56,0,0,1-.15-2,5.26,5.26,0,0,1-4.65,2.4c-2.94,0-4.83-2-4.83-4.32C95.37,149.22,97.26,147.78,99.75,147.42Zm5,2.07v-0.66l-4.41.66a2.16,2.16,0,0,0-2.1,2.16,2.19,2.19,0,0,0,2.34,2.1C102.9,153.75,104.76,152.64,104.76,149.49Z"/><path d="M112,155.67V141.24h2.7v1.92a5,5,0,0,1,4.38-2.34,4.51,4.51,0,0,1,4.32,2.73,5.18,5.18,0,0,1,4.83-2.73c2.52,0,5,1.71,5,5.49v9.36h-2.79v-9.06c0-1.89-.93-3.3-3.06-3.3a3.36,3.36,0,0,0-3.33,3.63v8.73h-2.82v-9.06c0-1.86-.9-3.3-3.06-3.3a3.35,3.35,0,0,0-3.36,3.66v8.7H112Z"/><path d="M139.05,133.74a2,2,0,1,1-2,2A2,2,0,0,1,139.05,133.74Zm-1.38,21.93V141.24h2.79v14.43h-2.79Z"/><path d="M21.81,183.9l8.34-11.67h4v12.33h3.33v2.73H34.2v4.38H31.35v-4.38H21.81V183.9Zm9.54-8.85-6.84,9.51h6.84v-9.51Z"/><path d="M42.15,187.65a2.09,2.09,0,0,1,2.1,2.1,2.06,2.06,0,0,1-2.1,2.07,2,2,0,0,1-2.07-2.07A2.06,2.06,0,0,1,42.15,187.65Z"/><path d="M54.45,184l2.94-.66v2c0,2.82,1.53,4.08,3.66,4.08s3.48-1.41,3.48-3.87V170.4h2.94v14.91c0,3.72-2.43,6.81-6.39,6.81-4.17,0-6.63-2.7-6.63-6.78V184Z"/><path d="M77.52,192.12c-3.36,0-5.4-2.52-5.4-5.79v-9.09h2.82v8.67c0,2,.9,3.72,3.27,3.72s3.42-1.5,3.42-3.69v-8.7h2.82V189a24.27,24.27,0,0,0,.15,2.67H81.9a12.85,12.85,0,0,1-.12-1.74A4.71,4.71,0,0,1,77.52,192.12Z"/><path d="M90.63,169.74a2,2,0,1,1-2,2A2,2,0,0,1,90.63,169.74Zm-1.38,21.93V177.24H92v14.43H89.25Z"/><path d="M98.52,184.44c0,3.3,2.07,5.07,4.41,5.07a3.92,3.92,0,0,0,4-3l2.49,1.08a6.63,6.63,0,0,1-6.51,4.5c-4.2,0-7.29-3.3-7.29-7.68s3.15-7.65,7.26-7.65a6.28,6.28,0,0,1,6.42,4.59l-2.55,1.08a3.79,3.79,0,0,0-3.87-3.06C100.62,179.4,98.52,181.08,98.52,184.44Z"/><path d="M125.16,187.56a6.54,6.54,0,0,1-6.48,4.56c-3.87,0-7.26-2.82-7.26-7.71,0-4.53,3.27-7.62,6.9-7.62,4.44,0,6.93,3.06,6.93,7.56a6.36,6.36,0,0,1-.06.9H114.33a4.28,4.28,0,0,0,4.35,4.38,3.93,3.93,0,0,0,4-2.91ZM122.31,183a3.64,3.64,0,0,0-4-3.69,3.88,3.88,0,0,0-3.93,3.69h7.89Z"/></svg>