<svg id="Layer_1" data-name="Layer 1" xmlns="http://www.w3.org/2000/svg" viewBox="0 0 823.01 437.85"><defs><style>.cls-1{fill:#231f20;}.cls-2{fill:#ececec;}.cls-3{fill:#fff;}.cls-4{fill:#ffdb00;}.cls-5{fill:#e51b24;}</style></defs><title>Slide-11-Modulus-Operator</title><path class="cls-1" d="M10.43,309.8h0a2.2,2.2,0,0,1-2.13-1.66L5,294.92h10.9l-3.32,13.22A2.2,2.2,0,0,1,10.43,309.8Z"/><path d="M10.43,311.3a3.69,3.69,0,0,1-3.58-2.79L3.52,295.29A1.5,1.5,0,0,1,5,293.42h10.9a1.5,1.5,0,0,1,1.46,1.87L14,308.5a3.69,3.69,0,0,1-3.58,2.8h0ZM6.9,296.42l2.85,11.35a0.69,0.69,0,0,0,.67.53h0a0.69,0.69,0,0,0,.67-0.53L14,296.42H6.9Z"/><rect class="cls-2" x="3.68" y="286.68" width="13.48" height="11.13"/><path d="M3.69,299.32a1.5,1.5,0,0,1-1.5-1.5V286.68a1.5,1.5,0,0,1,1.5-1.5H17.16a1.5,1.5,0,0,1,1.5,1.5v11.13a1.5,1.5,0,0,1-1.5,1.5H3.69Zm1.5-11.13v8.13H15.66v-8.13H5.18Z"/><rect class="cls-3" x="1.52" y="105.3" width="18.07" height="183.32"/><path d="M1.54,290.11a1.5,1.5,0,0,1-1.5-1.5L0,105.3a1.5,1.5,0,0,1,1.5-1.5H19.57a1.5,1.5,0,0,1,1.5,1.5l0,183.32a1.5,1.5,0,0,1-1.5,1.5H1.54ZM3,106.8L3,287.11H18.11l0-180.32H3Z"/><polygon class="cls-4" points="27.59 116.5 19.57 116.51 19.57 122.81 27.59 122.81 27.6 162.61 33.91 162.61 33.9 122.81 33.9 116.5 27.59 116.5"/><path d="M27.6,164.11a1.5,1.5,0,0,1-1.5-1.5v-38.3H19.57a1.5,1.5,0,0,1-1.5-1.5v-6.31a1.5,1.5,0,0,1,1.5-1.5H33.9a1.5,1.5,0,0,1,1.5,1.5v46.11a1.5,1.5,0,0,1-1.5,1.5H27.6Zm0-42.8a1.5,1.5,0,0,1,1.5,1.5v38.3h3.31V118H21.07v3.31h6.52Z"/><rect class="cls-2" x="3.64" y="96.58" width="13.48" height="8.71"/><path d="M3.64,106.8a1.5,1.5,0,0,1-1.5-1.5V96.58a1.5,1.5,0,0,1,1.5-1.5H17.12a1.5,1.5,0,0,1,1.5,1.5v8.71a1.5,1.5,0,0,1-1.5,1.5H3.64Zm1.5-8.71v5.71H15.62V98.08H5.14Z"/><path class="cls-1" d="M69.09,309.8h0A2.2,2.2,0,0,1,67,308.14l-3.32-13.22h10.9l-3.32,13.22A2.2,2.2,0,0,1,69.09,309.8Z"/><path d="M69.09,311.3a3.69,3.69,0,0,1-3.58-2.79l-3.32-13.22a1.5,1.5,0,0,1,1.45-1.87h10.9A1.5,1.5,0,0,1,76,295.29L72.68,308.5a3.69,3.69,0,0,1-3.58,2.8h0Zm-3.53-14.88,2.85,11.35a0.69,0.69,0,0,0,.67.53h0a0.7,0.7,0,0,0,.68-0.53l2.85-11.35H65.56Z"/><rect class="cls-2" x="62.35" y="286.68" width="13.48" height="11.13"/><path d="M62.35,299.32a1.5,1.5,0,0,1-1.5-1.5V286.68a1.5,1.5,0,0,1,1.5-1.5H75.83a1.5,1.5,0,0,1,1.5,1.5v11.13a1.5,1.5,0,0,1-1.5,1.5H62.35Zm1.5-11.13v8.13H74.33v-8.13H63.85Z"/><rect class="cls-3" x="60.19" y="105.3" width="18.07" height="183.32"/><path d="M60.21,290.11a1.5,1.5,0,0,1-1.5-1.5l0-183.32a1.5,1.5,0,0,1,1.5-1.5H78.23a1.5,1.5,0,0,1,1.5,1.5l0,183.32a1.5,1.5,0,0,1-1.5,1.5H60.21ZM61.67,106.8l0,180.32H76.78l0-180.32H61.67Z"/><polygon class="cls-4" points="86.26 116.5 78.24 116.51 78.24 122.81 86.26 122.81 86.27 162.61 92.58 162.61 92.57 122.81 92.56 116.5 86.26 116.5"/><path d="M86.27,164.11a1.5,1.5,0,0,1-1.5-1.5v-38.3H78.24a1.5,1.5,0,0,1-1.5-1.5v-6.31a1.5,1.5,0,0,1,1.5-1.5H92.57a1.5,1.5,0,0,1,1.5,1.5v46.11a1.5,1.5,0,0,1-1.5,1.5H86.27Zm0-42.8a1.5,1.5,0,0,1,1.5,1.5v38.3h3.31V118H79.74v3.31h6.52Z"/><rect class="cls-2" x="62.3" y="96.58" width="13.48" height="8.71"/><path d="M62.3,106.8a1.5,1.5,0,0,1-1.5-1.5V96.58a1.5,1.5,0,0,1,1.5-1.5H75.78a1.5,1.5,0,0,1,1.5,1.5v8.71a1.5,1.5,0,0,1-1.5,1.5H62.3Zm1.5-8.71v5.71H74.28V98.08H63.8Z"/><path class="cls-1" d="M127.76,309.8h0a2.2,2.2,0,0,1-2.13-1.66l-3.32-13.22h10.9l-3.32,13.22A2.2,2.2,0,0,1,127.76,309.8Z"/><path d="M127.76,311.3a3.69,3.69,0,0,1-3.58-2.79l-3.32-13.22a1.5,1.5,0,0,1,1.45-1.87h10.9a1.5,1.5,0,0,1,1.46,1.87l-3.32,13.22a3.69,3.69,0,0,1-3.58,2.8h0Zm-3.53-14.88,2.85,11.35a0.69,0.69,0,0,0,.67.53h0a0.7,0.7,0,0,0,.68-0.53l2.85-11.35h-7.06Z"/><rect class="cls-2" x="121.02" y="286.68" width="13.48" height="11.13"/><path d="M121,299.32a1.5,1.5,0,0,1-1.5-1.5V286.68a1.5,1.5,0,0,1,1.5-1.5H134.5a1.5,1.5,0,0,1,1.5,1.5v11.13a1.5,1.5,0,0,1-1.5,1.5H121Zm1.5-11.13v8.13H133v-8.13H122.52Z"/><rect class="cls-3" x="118.86" y="105.3" width="18.07" height="183.32"/><path d="M118.88,290.11a1.5,1.5,0,0,1-1.5-1.5l0-183.32a1.5,1.5,0,0,1,1.5-1.5H136.9a1.5,1.5,0,0,1,1.5,1.5l0,183.32a1.5,1.5,0,0,1-1.5,1.5H118.88Zm1.46-183.32,0,180.32h15.07l0-180.32H120.33Z"/><polygon class="cls-4" points="144.92 116.5 136.9 116.51 136.91 122.81 144.93 122.81 144.94 162.61 151.24 162.61 151.23 122.81 151.23 116.5 144.92 116.5"/><path d="M144.94,164.11a1.5,1.5,0,0,1-1.5-1.5v-38.3H136.9a1.5,1.5,0,0,1-1.5-1.5v-6.31a1.5,1.5,0,0,1,1.5-1.5h14.33a1.5,1.5,0,0,1,1.5,1.5v46.11a1.5,1.5,0,0,1-1.5,1.5h-6.31Zm0-42.8a1.5,1.5,0,0,1,1.5,1.5v38.3h3.31V118H138.4v3.31h6.52Z"/><rect class="cls-2" x="120.97" y="96.58" width="13.48" height="8.71"/><path d="M121,106.8a1.5,1.5,0,0,1-1.5-1.5V96.58a1.5,1.5,0,0,1,1.5-1.5h13.48a1.5,1.5,0,0,1,1.5,1.5v8.71a1.5,1.5,0,0,1-1.5,1.5H121Zm1.5-8.71v5.71H133V98.08H122.47Z"/><path class="cls-1" d="M186.43,309.8h0a2.2,2.2,0,0,1-2.13-1.66L181,294.92h10.9l-3.32,13.22A2.2,2.2,0,0,1,186.43,309.8Z"/><path d="M186.43,311.3a3.69,3.69,0,0,1-3.58-2.79l-3.32-13.22a1.5,1.5,0,0,1,1.45-1.87h10.9a1.5,1.5,0,0,1,1.46,1.87L190,308.5a3.69,3.69,0,0,1-3.58,2.8h0Zm-3.53-14.88,2.85,11.35a0.69,0.69,0,0,0,.67.53h0a0.69,0.69,0,0,0,.67-0.53L190,296.42H182.9Z"/><rect class="cls-2" x="179.68" y="286.68" width="13.48" height="11.13"/><path d="M179.69,299.32a1.5,1.5,0,0,1-1.5-1.5V286.68a1.5,1.5,0,0,1,1.5-1.5h13.48a1.5,1.5,0,0,1,1.5,1.5v11.13a1.5,1.5,0,0,1-1.5,1.5H179.69Zm1.5-11.13v8.13h10.48v-8.13H181.18Z"/><rect class="cls-3" x="177.52" y="105.3" width="18.07" height="183.32"/><path d="M177.54,290.11a1.5,1.5,0,0,1-1.5-1.5l0-183.32a1.5,1.5,0,0,1,1.5-1.5h18.07a1.5,1.5,0,0,1,1.5,1.5l0,183.32a1.5,1.5,0,0,1-1.5,1.5H177.54ZM179,106.8l0,180.32h15.07l0-180.32H179Z"/><polygon class="cls-4" points="203.59 116.5 195.57 116.51 195.57 122.81 203.59 122.81 203.6 162.61 209.91 162.61 209.9 122.81 209.9 116.5 203.59 116.5"/><path d="M203.6,164.11a1.5,1.5,0,0,1-1.5-1.5v-38.3h-6.52a1.5,1.5,0,0,1-1.5-1.5v-6.31a1.5,1.5,0,0,1,1.5-1.5H209.9a1.5,1.5,0,0,1,1.5,1.5v46.11a1.5,1.5,0,0,1-1.5,1.5H203.6Zm0-42.8a1.5,1.5,0,0,1,1.5,1.5v38.3h3.31V118H197.07v3.31h6.52Z"/><rect class="cls-2" x="179.64" y="96.58" width="13.48" height="8.71"/><path d="M179.64,106.8a1.5,1.5,0,0,1-1.5-1.5V96.58a1.5,1.5,0,0,1,1.5-1.5h13.48a1.5,1.5,0,0,1,1.5,1.5v8.71a1.5,1.5,0,0,1-1.5,1.5H179.64Zm1.5-8.71v5.71h10.48V98.08H181.14Z"/><path class="cls-1" d="M338.43,309.8h0a2.2,2.2,0,0,1-2.13-1.66L333,294.92h10.9l-3.32,13.22A2.2,2.2,0,0,1,338.43,309.8Z"/><path d="M338.43,311.3a3.69,3.69,0,0,1-3.58-2.79l-3.32-13.22a1.5,1.5,0,0,1,1.45-1.87h10.9a1.5,1.5,0,0,1,1.46,1.87L342,308.5a3.69,3.69,0,0,1-3.58,2.8h0Zm-3.53-14.88,2.85,11.35a0.69,0.69,0,0,0,.67.53h0a0.69,0.69,0,0,0,.67-0.53L342,296.42H334.9Z"/><rect class="cls-2" x="331.68" y="286.68" width="13.48" height="11.13"/><path d="M331.69,299.32a1.5,1.5,0,0,1-1.5-1.5V286.68a1.5,1.5,0,0,1,1.5-1.5h13.48a1.5,1.5,0,0,1,1.5,1.5v11.13a1.5,1.5,0,0,1-1.5,1.5H331.69Zm1.5-11.13v8.13h10.48v-8.13H333.18Z"/><rect class="cls-3" x="329.52" y="105.3" width="18.07" height="183.32"/><path d="M329.54,290.11a1.5,1.5,0,0,1-1.5-1.5l0-183.32a1.5,1.5,0,0,1,1.5-1.5h18.07a1.5,1.5,0,0,1,1.5,1.5l0,183.32a1.5,1.5,0,0,1-1.5,1.5H329.54ZM331,106.8l0,180.32h15.07l0-180.32H331Z"/><polygon class="cls-4" points="355.59 116.5 347.57 116.51 347.57 122.81 355.59 122.81 355.6 162.61 361.91 162.61 361.9 122.81 361.9 116.5 355.59 116.5"/><path d="M355.6,164.11a1.5,1.5,0,0,1-1.5-1.5v-38.3h-6.52a1.5,1.5,0,0,1-1.5-1.5v-6.31a1.5,1.5,0,0,1,1.5-1.5H361.9a1.5,1.5,0,0,1,1.5,1.5v46.11a1.5,1.5,0,0,1-1.5,1.5H355.6Zm0-42.8a1.5,1.5,0,0,1,1.5,1.5v38.3h3.31V118H349.07v3.31h6.52Z"/><rect class="cls-2" x="331.64" y="96.58" width="13.48" height="8.71"/><path d="M331.64,106.8a1.5,1.5,0,0,1-1.5-1.5V96.58a1.5,1.5,0,0,1,1.5-1.5h13.48a1.5,1.5,0,0,1,1.5,1.5v8.71a1.5,1.5,0,0,1-1.5,1.5H331.64Zm1.5-8.71v5.71h10.48V98.08H333.14Z"/><path class="cls-1" d="M397.09,309.8h0a2.2,2.2,0,0,1-2.13-1.66l-3.32-13.22h10.9l-3.32,13.22A2.2,2.2,0,0,1,397.09,309.8Z"/><path d="M397.09,311.3a3.69,3.69,0,0,1-3.58-2.79l-3.32-13.22a1.5,1.5,0,0,1,1.45-1.87h10.9a1.5,1.5,0,0,1,1.46,1.87l-3.32,13.22a3.69,3.69,0,0,1-3.58,2.8h0Zm-3.53-14.88,2.85,11.35a0.69,0.69,0,0,0,.67.53h0a0.7,0.7,0,0,0,.68-0.53l2.85-11.35h-7.06Z"/><rect class="cls-2" x="390.35" y="286.68" width="13.48" height="11.13"/><path d="M390.35,299.32a1.5,1.5,0,0,1-1.5-1.5V286.68a1.5,1.5,0,0,1,1.5-1.5h13.48a1.5,1.5,0,0,1,1.5,1.5v11.13a1.5,1.5,0,0,1-1.5,1.5H390.35Zm1.5-11.13v8.13h10.48v-8.13H391.85Z"/><rect class="cls-3" x="388.19" y="105.3" width="18.07" height="183.32"/><path d="M388.21,290.11a1.5,1.5,0,0,1-1.5-1.5l0-183.32a1.5,1.5,0,0,1,1.5-1.5h18.07a1.5,1.5,0,0,1,1.5,1.5l0,183.32a1.5,1.5,0,0,1-1.5,1.5H388.21Zm1.46-183.32,0,180.32h15.07l0-180.32H389.67Z"/><polygon class="cls-4" points="414.26 116.5 406.24 116.51 406.24 122.81 414.26 122.81 414.27 162.61 420.58 162.61 420.57 122.81 420.56 116.5 414.26 116.5"/><path d="M414.27,164.11a1.5,1.5,0,0,1-1.5-1.5v-38.3h-6.52a1.5,1.5,0,0,1-1.5-1.5v-6.31a1.5,1.5,0,0,1,1.5-1.5h14.33a1.5,1.5,0,0,1,1.5,1.5v46.1a1.5,1.5,0,0,1-1.5,1.5h-6.31Zm0-42.8a1.5,1.5,0,0,1,1.5,1.5v38.3h3.31V118H407.74v3.31h6.52Z"/><rect class="cls-2" x="390.3" y="96.58" width="13.48" height="8.71"/><path d="M390.3,106.8a1.5,1.5,0,0,1-1.5-1.5V96.58a1.5,1.5,0,0,1,1.5-1.5h13.48a1.5,1.5,0,0,1,1.5,1.5v8.71a1.5,1.5,0,0,1-1.5,1.5H390.3Zm1.5-8.71v5.71h10.48V98.08H391.8Z"/><path class="cls-1" d="M455.76,309.8h0a2.2,2.2,0,0,1-2.13-1.66l-3.32-13.22h10.9l-3.32,13.22A2.2,2.2,0,0,1,455.76,309.8Z"/><path d="M455.76,311.3a3.69,3.69,0,0,1-3.58-2.79l-3.32-13.22a1.5,1.5,0,0,1,1.46-1.87h10.9a1.5,1.5,0,0,1,1.46,1.87l-3.32,13.22a3.7,3.7,0,0,1-3.58,2.8h0Zm-3.53-14.88,2.86,11.35a0.69,0.69,0,0,0,.67.53h0a0.7,0.7,0,0,0,.68-0.53l2.85-11.35h-7.06Z"/><rect class="cls-2" x="449.02" y="286.68" width="13.48" height="11.13"/><path d="M449,299.32a1.5,1.5,0,0,1-1.5-1.5V286.68a1.5,1.5,0,0,1,1.5-1.5H462.5a1.5,1.5,0,0,1,1.5,1.5v11.13a1.5,1.5,0,0,1-1.5,1.5H449Zm1.5-11.13v8.13H461v-8.13H450.52Z"/><rect class="cls-3" x="446.86" y="105.3" width="18.07" height="183.32"/><path d="M446.88,290.11a1.5,1.5,0,0,1-1.5-1.5l0-183.32a1.5,1.5,0,0,1,1.5-1.5H464.9a1.5,1.5,0,0,1,1.5,1.5l0,183.32a1.5,1.5,0,0,1-1.5,1.5H446.88Zm1.46-183.32,0,180.32h15.07l0-180.32H448.33Z"/><polygon class="cls-4" points="472.92 116.5 464.9 116.51 464.9 122.81 472.93 122.81 472.94 162.61 479.24 162.61 479.23 122.81 479.23 116.5 472.92 116.5"/><path d="M472.94,164.11a1.5,1.5,0,0,1-1.5-1.5v-38.3H464.9a1.5,1.5,0,0,1-1.5-1.5v-6.31a1.5,1.5,0,0,1,1.5-1.5h14.33a1.5,1.5,0,0,1,1.5,1.5v46.11a1.5,1.5,0,0,1-1.5,1.5h-6.31Zm0-42.8a1.5,1.5,0,0,1,1.5,1.5v38.3h3.31V118H466.4v3.31h6.52Z"/><rect class="cls-2" x="448.97" y="96.58" width="13.48" height="8.71"/><path d="M449,106.8a1.5,1.5,0,0,1-1.5-1.5V96.58a1.5,1.5,0,0,1,1.5-1.5h13.48a1.5,1.5,0,0,1,1.5,1.5v8.71a1.5,1.5,0,0,1-1.5,1.5H449Zm1.5-8.71v5.71H461V98.08H450.47Z"/><path class="cls-1" d="M514.43,309.8h0a2.2,2.2,0,0,1-2.13-1.66L509,294.92h10.9l-3.32,13.22A2.2,2.2,0,0,1,514.43,309.8Z"/><path d="M514.43,311.3a3.69,3.69,0,0,1-3.58-2.79l-3.32-13.22a1.5,1.5,0,0,1,1.46-1.87h10.9a1.5,1.5,0,0,1,1.46,1.87L518,308.5a3.69,3.69,0,0,1-3.58,2.8h0Zm-3.53-14.88,2.86,11.35a0.69,0.69,0,0,0,.67.53h0a0.7,0.7,0,0,0,.67-0.53L518,296.42H510.9Z"/><rect class="cls-2" x="507.68" y="286.68" width="13.48" height="11.13"/><path d="M507.68,299.32a1.5,1.5,0,0,1-1.5-1.5V286.68a1.5,1.5,0,0,1,1.5-1.5h13.48a1.5,1.5,0,0,1,1.5,1.5v11.13a1.5,1.5,0,0,1-1.5,1.5H507.68Zm1.5-11.13v8.13h10.48v-8.13H509.18Z"/><rect class="cls-3" x="505.52" y="105.3" width="18.07" height="183.32"/><path d="M505.54,290.11a1.5,1.5,0,0,1-1.5-1.5l0-183.32a1.5,1.5,0,0,1,1.5-1.5h18.07a1.5,1.5,0,0,1,1.5,1.5l0,183.32a1.5,1.5,0,0,1-1.5,1.5H505.54ZM507,106.8l0,180.32h15.07l0-180.32H507Z"/><polygon class="cls-4" points="531.59 116.5 523.57 116.51 523.57 122.81 531.59 122.81 531.6 162.61 537.91 162.61 537.9 122.81 537.9 116.5 531.59 116.5"/><path d="M531.6,164.11a1.5,1.5,0,0,1-1.5-1.5v-38.3h-6.52a1.5,1.5,0,0,1-1.5-1.5v-6.31a1.5,1.5,0,0,1,1.5-1.5H537.9a1.5,1.5,0,0,1,1.5,1.5v46.11a1.5,1.5,0,0,1-1.5,1.5H531.6Zm0-42.8a1.5,1.5,0,0,1,1.5,1.5v38.3h3.31V118H525.07v3.31h6.52Z"/><rect class="cls-2" x="507.64" y="96.58" width="13.48" height="8.71"/><path d="M507.64,106.8a1.5,1.5,0,0,1-1.5-1.5V96.58a1.5,1.5,0,0,1,1.5-1.5h13.48a1.5,1.5,0,0,1,1.5,1.5v8.71a1.5,1.5,0,0,1-1.5,1.5H507.64Zm1.5-8.71v5.71h10.48V98.08H509.14Z"/><path class="cls-1" d="M666.43,309.8h0a2.2,2.2,0,0,1-2.13-1.66L661,294.92h10.9l-3.32,13.22A2.2,2.2,0,0,1,666.43,309.8Z"/><path d="M666.43,311.3a3.69,3.69,0,0,1-3.58-2.79l-3.32-13.22a1.5,1.5,0,0,1,1.46-1.87h10.9a1.5,1.5,0,0,1,1.46,1.87L670,308.5a3.69,3.69,0,0,1-3.58,2.8h0Zm-3.53-14.88,2.86,11.35a0.69,0.69,0,0,0,.67.53h0a0.7,0.7,0,0,0,.67-0.53L670,296.42H662.9Z"/><rect class="cls-2" x="659.68" y="286.68" width="13.48" height="11.13"/><path d="M659.68,299.32a1.5,1.5,0,0,1-1.5-1.5V286.68a1.5,1.5,0,0,1,1.5-1.5h13.48a1.5,1.5,0,0,1,1.5,1.5v11.13a1.5,1.5,0,0,1-1.5,1.5H659.68Zm1.5-11.13v8.13h10.48v-8.13H661.18Z"/><rect class="cls-3" x="657.52" y="105.3" width="18.07" height="183.32"/><path d="M657.54,290.11a1.5,1.5,0,0,1-1.5-1.5l0-183.32a1.5,1.5,0,0,1,1.5-1.5h18.07a1.5,1.5,0,0,1,1.5,1.5l0,183.32a1.5,1.5,0,0,1-1.5,1.5H657.54ZM659,106.8l0,180.32h15.07l0-180.32H659Z"/><polygon class="cls-4" points="683.59 116.5 675.57 116.51 675.57 122.81 683.59 122.81 683.6 162.61 689.91 162.61 689.9 122.81 689.9 116.5 683.59 116.5"/><path d="M683.6,164.11a1.5,1.5,0,0,1-1.5-1.5v-38.3h-6.52a1.5,1.5,0,0,1-1.5-1.5v-6.31a1.5,1.5,0,0,1,1.5-1.5H689.9a1.5,1.5,0,0,1,1.5,1.5v46.11a1.5,1.5,0,0,1-1.5,1.5H683.6Zm0-42.8a1.5,1.5,0,0,1,1.5,1.5v38.3h3.31V118H677.07v3.31h6.52Z"/><rect class="cls-2" x="659.64" y="96.58" width="13.48" height="8.71"/><path d="M659.64,106.8a1.5,1.5,0,0,1-1.5-1.5V96.58a1.5,1.5,0,0,1,1.5-1.5h13.48a1.5,1.5,0,0,1,1.5,1.5v8.71a1.5,1.5,0,0,1-1.5,1.5H659.64Zm1.5-8.71v5.71h10.48V98.08H661.14Z"/><path class="cls-5" d="M704.54,326.67h-3v-3H703v-1.5h3v3A1.5,1.5,0,0,1,704.54,326.67Z"/><path class="cls-5" d="M695.78,326.67H690v-3h5.76v3Zm-11.52,0h-5.76v-3h5.76v3Zm-11.51,0H667v-3h5.76v3Zm-11.52,0h-5.76v-3h5.76v3Zm-11.51,0H644v-3h5.76v3Z"/><path class="cls-5" d="M638.21,326.67h-3a1.5,1.5,0,0,1-1.5-1.5v-3h3v1.5h1.5v3Z"/><path class="cls-5" d="M636.71,316.13h-3v-6h3v6Zm0-12.07h-3v-6h3v6Zm0-12.06h-3v-6h3v6Zm0-12.07h-3v-6h3v6Zm0-12.06h-3v-6h3v6Zm0-12.07h-3v-6h3v6Zm0-12.07h-3v-6h3v6Zm0-12.06h-3v-6h3v6Zm0-12.07h-3v-6h3v6Zm0-12.06h-3v-6h3v6Zm0-12.07h-3v-6h3v6Zm0-12.06h-3v-6h3v6Zm0-12.06h-3v-6h3v6Zm0-12.07h-3v-6h3v6Zm0-12.06h-3v-6h3v6Zm0-12.06h-3v-6h3v6Zm0-12.06h-3v-6h3v6Zm0-12.06h-3v-6h3v6Zm0-12.06h-3v-6h3v6Zm0-12.07h-3v-6h3v6Z"/><path class="cls-5" d="M636.71,74.83h-3v-3a1.5,1.5,0,0,1,1.5-1.5h3v3h-1.5v1.5Z"/><path class="cls-5" d="M695.78,73.33H690v-3h5.76v3Zm-11.52,0h-5.76v-3h5.76v3Zm-11.51,0H667v-3h5.76v3Zm-11.52,0h-5.76v-3h5.76v3Zm-11.51,0H644v-3h5.76v3Z"/><path class="cls-5" d="M706,74.83h-3v-1.5h-1.5v-3h3a1.5,1.5,0,0,1,1.5,1.5v3Z"/><path class="cls-5" d="M706,316.13h-3v-6h3v6Zm0-12.06h-3v-6h3v6ZM706,292h-3v-6h3v6Zm0-12.07h-3v-6h3v6Zm0-12.06h-3v-6h3v6Zm0-12.07h-3v-6h3v6Zm0-12.06h-3v-6h3v6Zm0-12.07h-3v-6h3v6Zm0-12.07h-3v-6h3v6Zm0-12.06h-3v-6h3v6Zm0-12.07h-3v-6h3v6Zm0-12.06h-3v-6h3v6Zm0-12.06h-3v-6h3v6Zm0-12.06h-3v-6h3v6Zm0-12.06h-3v-6h3v6Zm0-12.07h-3v-6h3v6Zm0-12.06h-3v-6h3v6ZM706,111h-3v-6h3v6ZM706,99h-3v-6h3v6Zm0-12.06h-3v-6h3v6Z"/><path class="cls-5" d="M671.37,403.17h-3v-6h3v6Zm0-12h-3v-6h3v6Zm0-12h-3v-6h3v6Zm0-12h-3v-6h3v6Zm0-12h-3v-6h3v6Zm0-12h-3v-6h3v6Zm0-12h-3v-6h3v6Z"/><path class="cls-5" d="M522.79,410.81a5,5,0,1,1-5.12,5A5.12,5.12,0,0,1,522.79,410.81Zm-2.56,21L535.14,411H538l-14.85,20.73h-2.94Zm2.56-13.41a2.51,2.51,0,1,0-2.46-2.53A2.42,2.42,0,0,0,522.79,418.37Zm12.67,3.58a5,5,0,1,1-5.12,5A5.12,5.12,0,0,1,535.46,421.95Zm0,7.55A2.51,2.51,0,1,0,533,427,2.42,2.42,0,0,0,535.46,429.5Z"/><path class="cls-5" d="M557.89,406.37l1.82,1.6a20.23,20.23,0,0,0,0,27.33l-1.82,1.6A22.2,22.2,0,0,1,557.89,406.37Z"/><path class="cls-5" d="M562.27,431.77V416.38h2.88v2a5.31,5.31,0,0,1,4.67-2.5,4.81,4.81,0,0,1,4.61,2.91,5.52,5.52,0,0,1,5.15-2.91c2.69,0,5.31,1.82,5.31,5.86v10h-3v-9.66c0-2-1-3.52-3.26-3.52a3.59,3.59,0,0,0-3.55,3.87v9.31h-3v-9.66c0-2-1-3.52-3.26-3.52-2.14,0-3.58,1.6-3.58,3.9v9.28h-3Z"/><path class="cls-5" d="M604.16,424.06c0,4.7-3.26,8.19-7.87,8.19s-7.87-3.49-7.87-8.19,3.26-8.16,7.87-8.16S604.16,419.39,604.16,424.06Zm-3.07,0c0-3.55-2.24-5.47-4.8-5.47s-4.8,1.92-4.8,5.47,2.24,5.5,4.8,5.5S601.09,427.64,601.09,424.06Z"/><path class="cls-5" d="M618.78,429.44a5.15,5.15,0,0,1-4.77,2.75c-4.51,0-7.29-3.58-7.29-8.16,0-4.35,2.94-8.06,7.29-8.06,2.72,0,4.19,1.34,4.7,2.59v-10h3v20.32a24.28,24.28,0,0,0,.16,2.85h-2.91a13,13,0,0,1-.16-2.08v-0.26Zm-4.48.1c2.75,0,4.45-2.4,4.45-5.57s-1.66-5.34-4.42-5.34-4.54,2.24-4.54,5.41S611.42,429.53,614.3,429.53Z"/><path class="cls-5" d="M632.26,432.25c-3.58,0-5.76-2.69-5.76-6.17v-9.7h3v9.25c0,2.11,1,4,3.49,4s3.65-1.6,3.65-3.94v-9.28h3v12.54a25.77,25.77,0,0,0,.16,2.85h-2.88a13.55,13.55,0,0,1-.13-1.86A5,5,0,0,1,632.26,432.25Z"/><path class="cls-5" d="M644.77,431.77V408.61h3v23.17h-3Z"/><path class="cls-5" d="M658.34,432.25c-3.58,0-5.76-2.69-5.76-6.17v-9.7h3v9.25c0,2.11,1,4,3.49,4s3.65-1.6,3.65-3.94v-9.28h3v12.54a25.77,25.77,0,0,0,.16,2.85H663a13.55,13.55,0,0,1-.13-1.86A5,5,0,0,1,658.34,432.25Z"/><path class="cls-5" d="M672.13,426.81a3.28,3.28,0,0,0,3.58,2.88c1.7,0,2.62-1,2.62-2a2.14,2.14,0,0,0-2-2l-2.62-.58c-2.4-.51-3.84-2.14-3.84-4.32,0-2.62,2.46-4.86,5.47-4.86,4.22,0,5.54,2.75,5.86,4.13l-2.66,1a3,3,0,0,0-3.2-2.56,2.32,2.32,0,0,0-2.56,2,1.89,1.89,0,0,0,1.76,1.86l2.5,0.54c2.78,0.61,4.26,2.3,4.26,4.58s-1.82,4.77-5.63,4.77c-4.22,0-6-2.72-6.27-4.48Z"/><path class="cls-5" d="M707.77,424.06c0,4.7-3.26,8.19-7.87,8.19s-7.87-3.49-7.87-8.19,3.26-8.16,7.87-8.16S707.77,419.39,707.77,424.06Zm-3.07,0c0-3.55-2.24-5.47-4.8-5.47s-4.8,1.92-4.8,5.47,2.24,5.5,4.8,5.5S704.7,427.64,704.7,424.06Z"/><path class="cls-5" d="M711.62,437.85V416.38h2.91v2.4a5.67,5.67,0,0,1,5.15-2.75c4.61,0,7.07,3.55,7.07,8s-2.66,8.13-7.17,8.13a5.73,5.73,0,0,1-5-2.5v8.16h-3Zm7.52-19.17c-2.75,0-4.58,2.3-4.58,5.38s1.82,5.44,4.58,5.44,4.54-2.27,4.54-5.44S722,418.69,719.13,418.69Z"/><path class="cls-5" d="M744,427.39a7,7,0,0,1-6.91,4.86c-4.13,0-7.74-3-7.74-8.22,0-4.83,3.49-8.13,7.36-8.13,4.74,0,7.39,3.26,7.39,8.06a6.74,6.74,0,0,1-.06,1H732.45a4.57,4.57,0,0,0,4.64,4.67,4.19,4.19,0,0,0,4.32-3.1Zm-3-4.9a3.88,3.88,0,0,0-4.22-3.94,4.14,4.14,0,0,0-4.19,3.94H741Z"/><path class="cls-5" d="M756.48,419.42a9.48,9.48,0,0,0-1.31-.1c-2.53,0-4.22,1.34-4.22,4.74v7.71h-3V416.38h2.94v2.69a4.82,4.82,0,0,1,4.61-2.94,5.65,5.65,0,0,1,1,.1v3.2Z"/><path class="cls-5" d="M763.39,423l4.16-.61a1.12,1.12,0,0,0,1.18-1.15c0-1.5-1-2.75-3.33-2.75a3.27,3.27,0,0,0-3.49,3.1l-2.88-.67c0.32-2.94,3-5,6.3-5,4.61,0,6.4,2.62,6.4,5.63v7.71a14.55,14.55,0,0,0,.19,2.53H769a11.3,11.3,0,0,1-.16-2.08,5.61,5.61,0,0,1-5,2.56c-3.14,0-5.15-2.18-5.15-4.61C758.72,424.89,760.73,423.36,763.39,423Zm5.34,2.21v-0.7l-4.7.7a2.3,2.3,0,0,0-2.24,2.3,2.33,2.33,0,0,0,2.5,2.24C766.75,429.72,768.73,428.54,768.73,425.18Z"/><path class="cls-5" d="M780.45,416.38h3.33v2.72h-3.33v8c0,1.41.58,2.11,2.14,2.11a6.13,6.13,0,0,0,1.18-.13v2.56a6.59,6.59,0,0,1-2,.29c-2.62,0-4.29-1.6-4.29-4.38V419.1h-2.94v-2.72h0.83a2.15,2.15,0,0,0,2.37-2.37v-2.5h2.75v4.86Z"/><path class="cls-5" d="M802.08,424.06c0,4.7-3.26,8.19-7.87,8.19s-7.87-3.49-7.87-8.19,3.26-8.16,7.87-8.16S802.08,419.39,802.08,424.06Zm-3.07,0c0-3.55-2.24-5.47-4.8-5.47s-4.8,1.92-4.8,5.47,2.24,5.5,4.8,5.5S799,427.64,799,424.06Z"/><path class="cls-5" d="M814.46,419.42a9.48,9.48,0,0,0-1.31-.1c-2.53,0-4.22,1.34-4.22,4.74v7.71h-3V416.38h2.94v2.69a4.82,4.82,0,0,1,4.61-2.94,5.65,5.65,0,0,1,1,.1v3.2Z"/><path class="cls-5" d="M816.93,436.89l-1.82-1.6a20.23,20.23,0,0,0,0-27.33l1.82-1.6A22.2,22.2,0,0,1,816.93,436.89Z"/><path class="cls-1" d="M350,30.74a13.8,13.8,0,0,0,6.49,1.7c8.63,0,12.15-5.66,12.37-12.65-1.26,2.36-4.4,4.56-9.24,4.56-6.16,0-12.32-4.18-12.32-12C347.35,4.95,353.51,0,360.5,0s13.86,5,13.86,16.39c0,13.09-5.83,20.9-17.82,20.9-2.75,0-6.49-.88-8.25-2.09Zm10.45-26a7.43,7.43,0,0,0-7.7,7.48c0,4.84,3.63,7.53,7.7,7.53A7.51,7.51,0,1,0,360.5,4.73Z"/><path class="cls-1" d="M402.68,0.44a8.8,8.8,0,0,1,8.85,8.63,8.83,8.83,0,0,1-17.65,0A8.75,8.75,0,0,1,402.68.44Zm-4.4,36L423.91,0.82h4.95L403.34,36.46h-5.06Zm4.4-23a4.16,4.16,0,0,0,4.23-4.34,4.23,4.23,0,1,0-8.47,0A4.19,4.19,0,0,0,402.68,13.42Zm21.78,6.16a8.8,8.8,0,0,1,8.85,8.63A8.83,8.83,0,1,1,424.46,19.58Zm0,13a4.16,4.16,0,0,0,4.23-4.34,4.23,4.23,0,1,0-8.47,0A4.19,4.19,0,0,0,424.46,32.56Z"/><path class="cls-1" d="M451.47,22.22L466.75,0.82h7.42v22.6h6.1v5h-6.1v8H469v-8H451.47V22.22ZM469,6L456.42,23.43H469V6Z"/></svg>