<svg id="Layer_1" data-name="Layer 1" xmlns="http://www.w3.org/2000/svg" viewBox="0 0 819 420"><defs><style>.cls-1{fill:#ececec;}.cls-2{fill:#231f20;}.cls-3{fill:#1ecac7;}</style></defs><title>Slide-10-Comparison-Operators</title><rect class="cls-1" x="1.5" y="1.5" width="816" height="87.52"/><path class="cls-2" d="M817.5,90.52H1.5A1.5,1.5,0,0,1,0,89V1.5A1.5,1.5,0,0,1,1.5,0h816A1.5,1.5,0,0,1,819,1.5V89A1.5,1.5,0,0,1,817.5,90.52ZM3,87.52H816V3H3V87.52Z"/><path d="M175.38,44.65c0-9.95,7.52-16.28,15.89-16.28,8.63,0,13.07,5.28,14.3,10.34l-5.72,1.8c-0.75-3-3.17-6.29-8.58-6.29-4.66,0-9.59,3.34-9.59,10.43,0,6.65,4.66,10.3,9.68,10.3a8.67,8.67,0,0,0,8.76-6.38l5.68,1.72c-1.19,4.8-5.68,10.61-14.43,10.61S175.38,54.59,175.38,44.65Z"/><path d="M230.74,49.4a11.35,11.35,0,1,1-22.71,0A11.35,11.35,0,1,1,230.74,49.4Zm-5.85,0c0-4.09-2.64-6.16-5.5-6.16s-5.5,2.07-5.5,6.16,2.64,6.16,5.5,6.16S224.88,53.49,224.88,49.4Z"/><path d="M235.35,60.23V38.57h5.59v2.64c1.19-2.11,4-3.26,6.34-3.26,2.95,0,5.32,1.28,6.42,3.61A7.52,7.52,0,0,1,260.57,38c4,0,7.83,2.42,7.83,8.23v14h-5.68V47.38c0-2.33-1.14-4.09-3.83-4.09a4,4,0,0,0-4,4.27V60.23h-5.81V47.38c0-2.33-1.19-4.09-3.83-4.09a4,4,0,0,0-4,4.27V60.23h-5.85Z"/><path d="M274.34,68.59v-30H280v2.64c1-1.67,3.39-3.12,6.65-3.12,6.34,0,10,4.84,10,11.27s-4.09,11.4-10.21,11.4c-3,0-5.19-1.19-6.25-2.64V68.59h-5.85Zm11.18-25.26c-3,0-5.41,2.24-5.41,6.07s2.42,6.12,5.41,6.12,5.37-2.24,5.37-6.12S288.51,43.33,285.51,43.33Z"/><path d="M306.41,47.77l5.32-.79c1.23-.18,1.63-0.79,1.63-1.54,0-1.54-1.19-2.82-3.65-2.82a3.84,3.84,0,0,0-4.14,3.52L300.38,45c0.35-3.39,3.48-7.13,9.29-7.13,6.86,0,9.42,3.87,9.42,8.23V56.79a24.28,24.28,0,0,0,.26,3.43H314a14.68,14.68,0,0,1-.22-2.6,7.24,7.24,0,0,1-6.38,3.21c-4.62,0-7.44-3.12-7.44-6.51C299.94,50.46,302.8,48.3,306.41,47.77Zm7,3.7v-1l-4.88.75c-1.5.22-2.68,1.06-2.68,2.73a2.54,2.54,0,0,0,2.82,2.51C311.08,56.48,313.37,55.3,313.37,51.47Z"/><path d="M338.18,44.38a8.82,8.82,0,0,0-1.76-.18c-3,0-5.59,1.45-5.59,6.12v9.9H325V38.57h5.68v3.21c1.32-2.86,4.31-3.39,6.16-3.39a13.34,13.34,0,0,1,1.36.09v5.9Z"/><path d="M345.22,27.84a3.61,3.61,0,1,1-3.61,3.65A3.61,3.61,0,0,1,345.22,27.84Zm-2.9,32.39V38.57h5.85V60.23h-5.85Z"/><path d="M357.58,53.1c0.13,1.72,1.41,3.3,4,3.3,1.94,0,2.86-1,2.86-2.16,0-1-.66-1.76-2.33-2.11l-2.86-.66C355,50.54,353.14,48,353.14,45c0-3.87,3.43-7.08,8.1-7.08,6.16,0,8.23,3.92,8.49,6.25l-4.88,1.1a3.3,3.3,0,0,0-3.56-2.9c-1.54,0-2.77.92-2.77,2.16a2.05,2.05,0,0,0,2,1.94l3.08,0.66C367.84,48,370,50.59,370,53.76c0,3.52-2.73,7.13-8.41,7.13-6.51,0-8.76-4.22-9-6.69Z"/><path d="M395.69,49.4a11.35,11.35,0,1,1-22.71,0A11.35,11.35,0,1,1,395.69,49.4Zm-5.85,0c0-4.09-2.64-6.16-5.5-6.16s-5.5,2.07-5.5,6.16,2.64,6.16,5.5,6.16S389.84,53.49,389.84,49.4Z"/><path d="M406.16,60.23h-5.85V38.57H406v2.68A7.19,7.19,0,0,1,412.23,38c5.37,0,7.83,3.83,7.83,8.58V60.23h-5.85V47.6c0-2.42-1.19-4.31-4-4.31-2.55,0-4,2-4,4.49V60.23Z"/><path d="M451.48,28.36c8.49,0,16.06,6.21,16.06,16.28a16,16,0,1,1-32.08,0C435.46,34.57,443,28.36,451.48,28.36Zm0,26.62c4.84,0,9.77-3.34,9.77-10.39s-4.93-10.39-9.77-10.39-9.73,3.34-9.73,10.39S446.68,55,451.48,55Z"/><path d="M472.38,68.59v-30h5.68v2.64c1-1.67,3.39-3.12,6.64-3.12,6.34,0,10,4.84,10,11.27s-4.09,11.4-10.21,11.4c-3,0-5.19-1.19-6.25-2.64V68.59h-5.85Zm11.18-25.26c-3,0-5.41,2.24-5.41,6.07s2.42,6.12,5.41,6.12,5.37-2.24,5.37-6.12S486.55,43.33,483.56,43.33Z"/><path d="M518.71,54c-1.1,3.74-4.53,6.87-9.86,6.87-5.94,0-11.18-4.27-11.18-11.57,0-6.91,5.1-11.4,10.65-11.4C515,37.91,519,42.18,519,49.14c0,0.84-.09,1.72-0.09,1.8H503.44a5.27,5.27,0,0,0,5.46,4.93,4.78,4.78,0,0,0,4.93-3.3Zm-5.46-7.08c-0.09-2.16-1.5-4.27-4.84-4.27a4.68,4.68,0,0,0-4.84,4.27h9.68Z"/><path d="M536.84,44.38a8.83,8.83,0,0,0-1.76-.18c-3,0-5.59,1.45-5.59,6.12v9.9h-5.85V38.57h5.68v3.21c1.32-2.86,4.31-3.39,6.16-3.39a13.33,13.33,0,0,1,1.36.09v5.9Z"/><path d="M546.25,47.77l5.32-.79c1.23-.18,1.63-0.79,1.63-1.54,0-1.54-1.19-2.82-3.65-2.82a3.84,3.84,0,0,0-4.14,3.52L540.23,45c0.35-3.39,3.48-7.13,9.29-7.13,6.87,0,9.42,3.87,9.42,8.23V56.79a24.28,24.28,0,0,0,.26,3.43h-5.37a14.58,14.58,0,0,1-.22-2.6,7.24,7.24,0,0,1-6.38,3.21c-4.62,0-7.44-3.12-7.44-6.51C539.79,50.46,542.65,48.3,546.25,47.77Zm7,3.7v-1l-4.88.75c-1.5.22-2.68,1.06-2.68,2.73a2.54,2.54,0,0,0,2.82,2.51C550.92,56.48,553.21,55.3,553.21,51.47Z"/><path d="M571.91,38.57h4.36v5.19h-4.36v9.07c0,1.89.88,2.51,2.55,2.51a8.51,8.51,0,0,0,1.8-.18V60a8.68,8.68,0,0,1-3.3.53c-4.22,0-6.87-2.51-6.87-6.69V43.77h-3.92V38.57h1.1a3.12,3.12,0,0,0,3.34-3.43v-3h5.28v6.47Z"/><path d="M602.09,49.4a11.35,11.35,0,1,1-22.71,0A11.35,11.35,0,1,1,602.09,49.4Zm-5.85,0c0-4.09-2.64-6.16-5.5-6.16s-5.5,2.07-5.5,6.16,2.64,6.16,5.5,6.16S596.24,53.49,596.24,49.4Z"/><path d="M619.91,44.38a8.83,8.83,0,0,0-1.76-.18c-3,0-5.59,1.45-5.59,6.12v9.9h-5.85V38.57h5.68v3.21c1.32-2.86,4.31-3.39,6.16-3.39a13.33,13.33,0,0,1,1.36.09v5.9Z"/><path d="M627.35,53.1c0.13,1.72,1.41,3.3,4,3.3,1.94,0,2.86-1,2.86-2.16,0-1-.66-1.76-2.33-2.11L629,51.47c-4.18-.92-6.07-3.43-6.07-6.47,0-3.87,3.43-7.08,8.1-7.08,6.16,0,8.23,3.92,8.49,6.25l-4.88,1.1a3.3,3.3,0,0,0-3.56-2.9c-1.54,0-2.77.92-2.77,2.16a2.05,2.05,0,0,0,2,1.94l3.08,0.66c4.27,0.88,6.43,3.48,6.43,6.65,0,3.52-2.73,7.13-8.41,7.13-6.51,0-8.76-4.22-9-6.69Z"/><path d="M198.3,144.88V117.94H202v23.44h12.73v3.5H198.3Z"/><path d="M234.48,139.68a8.28,8.28,0,0,1-8.21,5.77c-4.9,0-9.19-3.57-9.19-9.76,0-5.74,4.14-9.65,8.74-9.65,5.62,0,8.78,3.88,8.78,9.57a8,8,0,0,1-.08,1.14H220.76a5.43,5.43,0,0,0,5.51,5.55,5,5,0,0,0,5.13-3.69Zm-3.61-5.81c-0.08-2.62-1.79-4.67-5-4.67a4.92,4.92,0,0,0-5,4.67h10Z"/><path d="M240.67,139c0.23,1.9,1.67,3.42,4.26,3.42,2,0,3.12-1.14,3.12-2.43,0-1.14-.84-2-2.36-2.36l-3.12-.68c-2.85-.61-4.56-2.55-4.56-5.13,0-3.12,2.93-5.77,6.5-5.77,5,0,6.57,3.27,7,4.9l-3.15,1.18a3.55,3.55,0,0,0-3.8-3c-1.82,0-3,1.18-3,2.43a2.24,2.24,0,0,0,2.09,2.2l3,0.65c3.31,0.72,5.05,2.74,5.05,5.43s-2.17,5.66-6.69,5.66c-5,0-7.14-3.23-7.45-5.32Z"/><path d="M257.85,139c0.23,1.9,1.67,3.42,4.26,3.42,2,0,3.12-1.14,3.12-2.43,0-1.14-.84-2-2.36-2.36l-3.12-.68c-2.85-.61-4.56-2.55-4.56-5.13,0-3.12,2.93-5.77,6.5-5.77,5,0,6.57,3.27,7,4.9l-3.15,1.18a3.55,3.55,0,0,0-3.8-3c-1.82,0-3,1.18-3,2.43a2.24,2.24,0,0,0,2.09,2.2l3,0.65c3.31,0.72,5.05,2.74,5.05,5.43s-2.17,5.66-6.69,5.66c-5,0-7.14-3.23-7.45-5.32Z"/><path d="M287.79,126.61h4v3.23h-4v9.5c0,1.67.68,2.51,2.55,2.51a7.25,7.25,0,0,0,1.41-.15v3a7.83,7.83,0,0,1-2.43.34c-3.12,0-5.09-1.9-5.09-5.21v-10h-3.5v-3.23h1a2.56,2.56,0,0,0,2.81-2.81v-3h3.27v5.77Z"/><path d="M300.06,144.88h-3.57V117.37h3.57v11.36a6.46,6.46,0,0,1,5.55-2.66c4.37,0,6.54,3.15,6.54,7.22v11.59h-3.57v-11c0-2.55-1.06-4.6-4.26-4.6-2.74,0-4.18,2.13-4.26,4.83v10.75Z"/><path d="M322.26,134.43l4.94-.72a1.33,1.33,0,0,0,1.41-1.37c0-1.79-1.18-3.27-4-3.27a3.88,3.88,0,0,0-4.14,3.69l-3.42-.8c0.38-3.5,3.53-5.93,7.48-5.93,5.47,0,7.6,3.12,7.6,6.69v9.16a17.22,17.22,0,0,0,.23,3h-3.5a13.4,13.4,0,0,1-.19-2.47,6.66,6.66,0,0,1-5.89,3c-3.72,0-6.12-2.58-6.12-5.47C316.71,136.71,319.1,134.89,322.26,134.43Zm6.35,2.62v-0.84l-5.59.84a2.73,2.73,0,0,0-2.66,2.74,2.77,2.77,0,0,0,3,2.66C326.25,142.45,328.6,141,328.6,137.05Z"/><path d="M341.29,144.88h-3.57V126.61h3.5v2.62a6.26,6.26,0,0,1,5.62-3.15c4.37,0,6.54,3.15,6.54,7.22v11.59h-3.57v-11c0-2.55-1.06-4.6-4.26-4.6-2.81,0-4.26,2.24-4.26,5v10.56Z"/><path class="cls-3" d="M57.89,131.77l16.34-8.25v4.67L63,133.64l11.25,5.43v4.75l-16.34-8.21v-3.84Z"/><path d="M218.63,220.53l-0.34-3.8c-1.18,2.13-4.1,4.37-8.62,4.37-6.76,0-13.07-4.94-13.07-14.06s6.69-14,13.34-14c5.85,0,10.37,3.27,11.93,8.13l-3.38,1.44a8.5,8.5,0,0,0-8.55-6.15c-4.83,0-9.54,3.46-9.54,10.6s4.56,10.68,9.38,10.68c6,0,8.17-4.25,8.32-7h-9.35v-3.34h12.88v13.18h-3Z"/><path d="M237.14,205.86a11.26,11.26,0,0,0-1.56-.11c-3,0-5,1.6-5,5.62v9.16H227V202.25h3.5v3.19a5.72,5.72,0,0,1,5.47-3.5,6.72,6.72,0,0,1,1.18.11v3.8Z"/><path d="M256.67,215.32a8.28,8.28,0,0,1-8.21,5.78c-4.9,0-9.19-3.57-9.19-9.76,0-5.74,4.14-9.65,8.74-9.65,5.62,0,8.78,3.88,8.78,9.57a8,8,0,0,1-.08,1.14H243a5.43,5.43,0,0,0,5.51,5.55,5,5,0,0,0,5.13-3.69Zm-3.61-5.81c-0.08-2.62-1.79-4.67-5-4.67a4.92,4.92,0,0,0-5,4.67h10Z"/><path d="M265.75,210.08l4.94-.72A1.33,1.33,0,0,0,272.1,208c0-1.79-1.18-3.27-4-3.27a3.88,3.88,0,0,0-4.14,3.69l-3.42-.8c0.38-3.5,3.53-5.93,7.48-5.93,5.47,0,7.6,3.12,7.6,6.69v9.16a17.21,17.21,0,0,0,.23,3h-3.5a13.4,13.4,0,0,1-.19-2.47,6.66,6.66,0,0,1-5.89,3c-3.72,0-6.12-2.58-6.12-5.47C260.2,212.36,262.6,210.53,265.75,210.08Zm6.35,2.62v-0.84l-5.58.84a2.73,2.73,0,0,0-2.66,2.74,2.77,2.77,0,0,0,3,2.66C269.74,218.09,272.1,216.69,272.1,212.7Z"/><path d="M286,202.25h4v3.23h-4V215c0,1.67.68,2.51,2.55,2.51a7.21,7.21,0,0,0,1.41-.15v3a7.84,7.84,0,0,1-2.43.34c-3.12,0-5.09-1.9-5.09-5.21v-10h-3.5v-3.23h1a2.56,2.56,0,0,0,2.81-2.81v-3H286v5.77Z"/><path d="M310.44,215.32a8.28,8.28,0,0,1-8.21,5.78c-4.9,0-9.19-3.57-9.19-9.76,0-5.74,4.14-9.65,8.74-9.65,5.62,0,8.78,3.88,8.78,9.57a8,8,0,0,1-.08,1.14H296.72a5.43,5.43,0,0,0,5.51,5.55,5,5,0,0,0,5.13-3.69Zm-3.61-5.81c-0.08-2.62-1.79-4.67-5-4.67a4.92,4.92,0,0,0-5,4.67h10Z"/><path d="M325.26,205.86a11.26,11.26,0,0,0-1.56-.11c-3,0-5,1.6-5,5.62v9.16h-3.57V202.25h3.5v3.19a5.72,5.72,0,0,1,5.47-3.5,6.72,6.72,0,0,1,1.18.11v3.8Z"/><path d="M343.35,202.25h4v3.23h-4V215c0,1.67.68,2.51,2.55,2.51a7.21,7.21,0,0,0,1.41-.15v3a7.84,7.84,0,0,1-2.43.34c-3.12,0-5.09-1.9-5.09-5.21v-10h-3.5v-3.23h1a2.56,2.56,0,0,0,2.81-2.81v-3h3.27v5.77Z"/><path d="M355.62,220.53H352V193h3.57v11.36a6.46,6.46,0,0,1,5.55-2.66c4.37,0,6.54,3.15,6.54,7.22v11.59h-3.57v-11c0-2.54-1.06-4.6-4.26-4.6-2.74,0-4.18,2.13-4.26,4.83v10.75Z"/><path d="M377.81,210.08l4.94-.72a1.33,1.33,0,0,0,1.41-1.37c0-1.79-1.18-3.27-4-3.27a3.88,3.88,0,0,0-4.14,3.69l-3.42-.8c0.38-3.5,3.53-5.93,7.48-5.93,5.47,0,7.6,3.12,7.6,6.69v9.16a17.21,17.21,0,0,0,.23,3h-3.5a13.4,13.4,0,0,1-.19-2.47,6.66,6.66,0,0,1-5.89,3c-3.72,0-6.12-2.58-6.12-5.47C372.27,212.36,374.66,210.53,377.81,210.08Zm6.35,2.62v-0.84l-5.59.84a2.73,2.73,0,0,0-2.66,2.74,2.77,2.77,0,0,0,3,2.66C381.8,218.09,384.16,216.69,384.16,212.7Z"/><path d="M396.85,220.53h-3.57V202.25h3.5v2.62a6.26,6.26,0,0,1,5.62-3.15c4.37,0,6.53,3.15,6.53,7.22v11.59h-3.57v-11c0-2.54-1.06-4.6-4.26-4.6-2.81,0-4.26,2.24-4.26,5v10.56Z"/><path class="cls-3" d="M74.11,211.22l-16.34,8.25v-4.67L69,209.36l-11.25-5.43v-4.75l16.34,8.25v3.8Z"/><path d="M198.3,302.53V275.59H202V299h12.73v3.5H198.3Z"/><path d="M234.48,297.32a8.28,8.28,0,0,1-8.21,5.78c-4.9,0-9.19-3.57-9.19-9.76,0-5.74,4.14-9.65,8.74-9.65,5.62,0,8.78,3.88,8.78,9.57a8,8,0,0,1-.08,1.14H220.76a5.43,5.43,0,0,0,5.51,5.55,5,5,0,0,0,5.13-3.69Zm-3.61-5.81c-0.08-2.62-1.79-4.67-5-4.67a4.92,4.92,0,0,0-5,4.67h10Z"/><path d="M240.67,296.64c0.23,1.9,1.67,3.42,4.26,3.42,2,0,3.12-1.14,3.12-2.43,0-1.14-.84-2-2.36-2.36l-3.12-.68C239.72,294,238,292,238,289.46c0-3.12,2.93-5.77,6.5-5.77,5,0,6.57,3.27,7,4.9l-3.15,1.18a3.55,3.55,0,0,0-3.8-3c-1.82,0-3,1.18-3,2.43a2.24,2.24,0,0,0,2.09,2.2l3,0.65c3.31,0.72,5.05,2.74,5.05,5.43s-2.17,5.66-6.69,5.66c-5,0-7.14-3.23-7.45-5.32Z"/><path d="M257.85,296.64c0.23,1.9,1.67,3.42,4.26,3.42,2,0,3.12-1.14,3.12-2.43,0-1.14-.84-2-2.36-2.36l-3.12-.68c-2.85-.61-4.56-2.55-4.56-5.13,0-3.12,2.93-5.77,6.5-5.77,5,0,6.57,3.27,7,4.9l-3.15,1.18a3.55,3.55,0,0,0-3.8-3c-1.82,0-3,1.18-3,2.43a2.24,2.24,0,0,0,2.09,2.2l3,0.65c3.31,0.72,5.05,2.74,5.05,5.43s-2.17,5.66-6.69,5.66c-5,0-7.14-3.23-7.45-5.32Z"/><path d="M287.79,284.25h4v3.23h-4V297c0,1.67.68,2.51,2.55,2.51a7.21,7.21,0,0,0,1.41-.15v3a7.84,7.84,0,0,1-2.43.34c-3.12,0-5.09-1.9-5.09-5.21v-10h-3.5v-3.23h1a2.56,2.56,0,0,0,2.81-2.81v-3h3.27v5.77Z"/><path d="M300.06,302.53h-3.57V275h3.57v11.36a6.47,6.47,0,0,1,5.55-2.66c4.37,0,6.54,3.15,6.54,7.22v11.59h-3.57v-11c0-2.54-1.06-4.6-4.26-4.6-2.74,0-4.18,2.13-4.26,4.83v10.75Z"/><path d="M322.26,292.08l4.94-.72A1.33,1.33,0,0,0,328.6,290c0-1.79-1.18-3.27-4-3.27a3.88,3.88,0,0,0-4.14,3.69l-3.42-.8c0.38-3.5,3.53-5.93,7.48-5.93,5.47,0,7.6,3.12,7.6,6.69v9.16a17.21,17.21,0,0,0,.23,3h-3.5a13.4,13.4,0,0,1-.19-2.47,6.66,6.66,0,0,1-5.89,3c-3.72,0-6.12-2.58-6.12-5.47C316.71,294.36,319.1,292.53,322.26,292.08Zm6.35,2.62v-0.84l-5.59.84a2.73,2.73,0,0,0-2.66,2.74,2.77,2.77,0,0,0,3,2.66C326.25,300.09,328.6,298.69,328.6,294.7Z"/><path d="M341.29,302.53h-3.57V284.25h3.5v2.62a6.26,6.26,0,0,1,5.62-3.15c4.37,0,6.54,3.15,6.54,7.22v11.59h-3.57v-11c0-2.54-1.06-4.6-4.26-4.6-2.81,0-4.26,2.24-4.26,5v10.56Z"/><path d="M385.75,293.37c0,5.58-3.88,9.73-9.35,9.73s-9.35-4.14-9.35-9.73,3.88-9.69,9.35-9.69S385.75,287.82,385.75,293.37Zm-3.65,0c0-4.22-2.66-6.5-5.7-6.5s-5.7,2.28-5.7,6.5,2.66,6.54,5.7,6.54S382.11,297.62,382.11,293.37Z"/><path d="M400.46,287.86a11.26,11.26,0,0,0-1.56-.11c-3,0-5,1.6-5,5.62v9.16h-3.57V284.25h3.5v3.19a5.72,5.72,0,0,1,5.47-3.5,6.71,6.71,0,0,1,1.18.11v3.8Z"/><path d="M429.68,297.32a8.28,8.28,0,0,1-8.21,5.78c-4.9,0-9.19-3.57-9.19-9.76,0-5.74,4.14-9.65,8.74-9.65,5.62,0,8.78,3.88,8.78,9.57a8,8,0,0,1-.08,1.14H416a5.43,5.43,0,0,0,5.51,5.55,5,5,0,0,0,5.13-3.69Zm-3.61-5.81c-0.08-2.62-1.79-4.67-5-4.67a4.92,4.92,0,0,0-5,4.67h10Z"/><path d="M447.2,309.74v-9.8a6.1,6.1,0,0,1-5.7,3.08c-5.24,0-8.66-4.37-8.66-9.69,0-5.17,3.23-9.54,8.59-9.54a6.16,6.16,0,0,1,5.85,3.27v-2.81h3.46v25.49H447.2Zm-5.36-9.88c3.23,0,5.39-2.77,5.39-6.54s-2.17-6.38-5.39-6.38-5.36,2.62-5.36,6.38S438.57,299.87,441.84,299.87Z"/><path d="M463.08,303.1c-4.25,0-6.84-3.19-6.84-7.33V284.25h3.57v11c0,2.51,1.14,4.71,4.14,4.71s4.33-1.9,4.33-4.67v-11h3.57v14.89a30.72,30.72,0,0,0,.19,3.38h-3.42a16.13,16.13,0,0,1-.15-2.2C467.49,302.22,465.21,303.1,463.08,303.1Z"/><path d="M482.35,292.08l4.94-.72a1.33,1.33,0,0,0,1.41-1.37c0-1.79-1.18-3.27-4-3.27a3.88,3.88,0,0,0-4.14,3.69l-3.42-.8c0.38-3.5,3.53-5.93,7.48-5.93,5.47,0,7.6,3.12,7.6,6.69v9.16a17.14,17.14,0,0,0,.23,3H489a13.46,13.46,0,0,1-.19-2.47,6.66,6.66,0,0,1-5.89,3c-3.72,0-6.12-2.58-6.12-5.47C476.8,294.36,479.2,292.53,482.35,292.08Zm6.34,2.62v-0.84l-5.58.84a2.73,2.73,0,0,0-2.66,2.74,2.77,2.77,0,0,0,3,2.66C486.34,300.09,488.69,298.69,488.69,294.7Z"/><path d="M497.82,302.53V275h3.57v27.51h-3.57Z"/><path d="M521.76,284.25h4v3.23h-4V297c0,1.67.68,2.51,2.54,2.51a7.21,7.21,0,0,0,1.41-.15v3a7.84,7.84,0,0,1-2.43.34c-3.12,0-5.09-1.9-5.09-5.21v-10h-3.5v-3.23h1a2.56,2.56,0,0,0,2.81-2.81v-3h3.27v5.77Z"/><path d="M547.44,293.37c0,5.58-3.87,9.73-9.35,9.73s-9.35-4.14-9.35-9.73,3.88-9.69,9.35-9.69S547.44,287.82,547.44,293.37Zm-3.65,0c0-4.22-2.66-6.5-5.7-6.5s-5.7,2.28-5.7,6.5,2.66,6.54,5.7,6.54S543.79,297.62,543.79,293.37Z"/><path class="cls-3" d="M46.43,289.42l16.34-8.25v4.67l-11.25,5.43,11.25,5.43v4.75l-16.34-8.21v-3.84Z"/><path class="cls-3" d="M66.23,289.57V285.5H84.65v4.07H66.23Zm0,7.56V293H84.65v4.1H66.23Z"/><path d="M218.63,384.53l-0.34-3.8c-1.18,2.13-4.1,4.37-8.62,4.37-6.76,0-13.07-4.94-13.07-14.06s6.69-14,13.34-14c5.85,0,10.37,3.27,11.93,8.13l-3.38,1.44a8.5,8.5,0,0,0-8.55-6.15c-4.83,0-9.54,3.46-9.54,10.6s4.56,10.68,9.38,10.68c6,0,8.17-4.25,8.32-7h-9.35v-3.34h12.88v13.18h-3Z"/><path d="M237.14,369.86a11.26,11.26,0,0,0-1.56-.11c-3,0-5,1.6-5,5.62v9.16H227V366.25h3.5v3.19a5.72,5.72,0,0,1,5.47-3.5,6.71,6.71,0,0,1,1.18.11v3.8Z"/><path d="M256.67,379.32a8.28,8.28,0,0,1-8.21,5.78c-4.9,0-9.19-3.57-9.19-9.76,0-5.74,4.14-9.65,8.74-9.65,5.62,0,8.78,3.88,8.78,9.57a8,8,0,0,1-.08,1.14H243a5.43,5.43,0,0,0,5.51,5.55,5,5,0,0,0,5.13-3.69Zm-3.61-5.81c-0.08-2.62-1.79-4.67-5-4.67a4.92,4.92,0,0,0-5,4.67h10Z"/><path d="M265.75,374.08l4.94-.72A1.33,1.33,0,0,0,272.1,372c0-1.79-1.18-3.27-4-3.27a3.88,3.88,0,0,0-4.14,3.69l-3.42-.8c0.38-3.5,3.53-5.93,7.48-5.93,5.47,0,7.6,3.12,7.6,6.69v9.16a17.21,17.21,0,0,0,.23,3h-3.5a13.4,13.4,0,0,1-.19-2.47,6.66,6.66,0,0,1-5.89,3c-3.72,0-6.12-2.58-6.12-5.47C260.2,376.36,262.6,374.53,265.75,374.08Zm6.35,2.62v-0.84l-5.58.84a2.73,2.73,0,0,0-2.66,2.74,2.77,2.77,0,0,0,3,2.66C269.74,382.09,272.1,380.69,272.1,376.7Z"/><path d="M286,366.25h4v3.23h-4V379c0,1.67.68,2.51,2.55,2.51a7.21,7.21,0,0,0,1.41-.15v3a7.84,7.84,0,0,1-2.43.34c-3.12,0-5.09-1.9-5.09-5.21v-10h-3.5v-3.23h1a2.56,2.56,0,0,0,2.81-2.81v-3H286v5.77Z"/><path d="M310.44,379.32a8.28,8.28,0,0,1-8.21,5.78c-4.9,0-9.19-3.57-9.19-9.76,0-5.74,4.14-9.65,8.74-9.65,5.62,0,8.78,3.88,8.78,9.57a8,8,0,0,1-.08,1.14H296.72a5.43,5.43,0,0,0,5.51,5.55,5,5,0,0,0,5.13-3.69Zm-3.61-5.81c-0.08-2.62-1.79-4.67-5-4.67a4.92,4.92,0,0,0-5,4.67h10Z"/><path d="M325.26,369.86a11.26,11.26,0,0,0-1.56-.11c-3,0-5,1.6-5,5.62v9.16h-3.57V366.25h3.5v3.19a5.72,5.72,0,0,1,5.47-3.5,6.71,6.71,0,0,1,1.18.11v3.8Z"/><path d="M343.35,366.25h4v3.23h-4V379c0,1.67.68,2.51,2.55,2.51a7.21,7.21,0,0,0,1.41-.15v3a7.84,7.84,0,0,1-2.43.34c-3.12,0-5.09-1.9-5.09-5.21v-10h-3.5v-3.23h1a2.56,2.56,0,0,0,2.81-2.81v-3h3.27v5.77Z"/><path d="M355.62,384.53H352V357h3.57v11.36a6.47,6.47,0,0,1,5.55-2.66c4.37,0,6.54,3.15,6.54,7.22v11.59h-3.57v-11c0-2.54-1.06-4.6-4.26-4.6-2.74,0-4.18,2.13-4.26,4.83v10.75Z"/><path d="M377.81,374.08l4.94-.72a1.33,1.33,0,0,0,1.41-1.37c0-1.79-1.18-3.27-4-3.27a3.88,3.88,0,0,0-4.14,3.69l-3.42-.8c0.38-3.5,3.53-5.93,7.48-5.93,5.47,0,7.6,3.12,7.6,6.69v9.16a17.21,17.21,0,0,0,.23,3h-3.5a13.4,13.4,0,0,1-.19-2.47,6.66,6.66,0,0,1-5.89,3c-3.72,0-6.12-2.58-6.12-5.47C372.27,376.36,374.66,374.53,377.81,374.08Zm6.35,2.62v-0.84l-5.59.84a2.73,2.73,0,0,0-2.66,2.74,2.77,2.77,0,0,0,3,2.66C381.8,382.09,384.16,380.69,384.16,376.7Z"/><path d="M396.85,384.53h-3.57V366.25h3.5v2.62a6.26,6.26,0,0,1,5.62-3.15c4.37,0,6.53,3.15,6.53,7.22v11.59h-3.57v-11c0-2.54-1.06-4.6-4.26-4.6-2.81,0-4.26,2.24-4.26,5v10.56Z"/><path d="M441.31,375.37c0,5.58-3.88,9.73-9.35,9.73s-9.35-4.14-9.35-9.73,3.88-9.69,9.35-9.69S441.31,369.82,441.31,375.37Zm-3.65,0c0-4.22-2.66-6.5-5.7-6.5s-5.7,2.28-5.7,6.5,2.66,6.54,5.7,6.54S437.66,379.62,437.66,375.37Z"/><path d="M456,369.86a11.27,11.27,0,0,0-1.56-.11c-3,0-5,1.6-5,5.62v9.16h-3.57V366.25h3.5v3.19a5.72,5.72,0,0,1,5.47-3.5,6.72,6.72,0,0,1,1.18.11v3.8Z"/><path d="M485.24,379.32A8.28,8.28,0,0,1,477,385.1c-4.9,0-9.19-3.57-9.19-9.76,0-5.74,4.14-9.65,8.74-9.65,5.62,0,8.78,3.88,8.78,9.57a8,8,0,0,1-.08,1.14H471.52a5.43,5.43,0,0,0,5.51,5.55,5,5,0,0,0,5.13-3.69Zm-3.61-5.81c-0.08-2.62-1.79-4.67-5-4.67a4.92,4.92,0,0,0-5,4.67h10Z"/><path d="M502.75,391.74v-9.8a6.1,6.1,0,0,1-5.7,3.08c-5.24,0-8.66-4.37-8.66-9.69,0-5.17,3.23-9.54,8.59-9.54a6.16,6.16,0,0,1,5.85,3.27v-2.81h3.46v25.49h-3.53Zm-5.36-9.88c3.23,0,5.4-2.77,5.4-6.54s-2.17-6.38-5.4-6.38-5.36,2.62-5.36,6.38S494.13,381.87,497.4,381.87Z"/><path d="M518.64,385.1c-4.25,0-6.84-3.19-6.84-7.33V366.25h3.57v11c0,2.51,1.14,4.71,4.14,4.71s4.33-1.9,4.33-4.67v-11h3.57v14.89a30.66,30.66,0,0,0,.19,3.38h-3.42a16.32,16.32,0,0,1-.15-2.2C523,384.22,520.77,385.1,518.64,385.1Z"/><path d="M537.91,374.08l4.94-.72a1.33,1.33,0,0,0,1.41-1.37c0-1.79-1.18-3.27-4-3.27a3.88,3.88,0,0,0-4.14,3.69l-3.42-.8c0.38-3.5,3.53-5.93,7.49-5.93,5.47,0,7.6,3.12,7.6,6.69v9.16a17.14,17.14,0,0,0,.23,3h-3.5a13.37,13.37,0,0,1-.19-2.47,6.66,6.66,0,0,1-5.89,3c-3.72,0-6.12-2.58-6.12-5.47C532.36,376.36,534.75,374.53,537.91,374.08Zm6.34,2.62v-0.84l-5.58.84a2.73,2.73,0,0,0-2.66,2.74,2.77,2.77,0,0,0,3,2.66C541.9,382.09,544.25,380.69,544.25,376.7Z"/><path d="M553.37,384.53V357h3.57v27.51h-3.57Z"/><path d="M577.31,366.25h4v3.23h-4V379c0,1.67.68,2.51,2.54,2.51a7.21,7.21,0,0,0,1.41-.15v3a7.84,7.84,0,0,1-2.43.34c-3.12,0-5.09-1.9-5.09-5.21v-10h-3.5v-3.23h1a2.56,2.56,0,0,0,2.81-2.81v-3h3.27v5.77Z"/><path d="M603,375.37c0,5.58-3.87,9.73-9.35,9.73s-9.35-4.14-9.35-9.73,3.88-9.69,9.35-9.69S603,369.82,603,375.37Zm-3.65,0c0-4.22-2.66-6.5-5.7-6.5s-5.7,2.28-5.7,6.5,2.66,6.54,5.7,6.54S599.35,379.62,599.35,375.37Z"/><path class="cls-3" d="M62.65,375.22l-16.34,8.25v-4.67l11.25-5.43-11.25-5.43v-4.75l16.34,8.25v3.8Z"/><path class="cls-3" d="M66.23,371.57V367.5H84.65v4.07H66.23Zm0,7.56V375H84.65v4.1H66.23Z"/><path class="cls-2" d="M817.5,420H1.5A1.5,1.5,0,0,1,0,418.5V89a1.5,1.5,0,0,1,1.5-1.5h816A1.5,1.5,0,0,1,819,89V418.5A1.5,1.5,0,0,1,817.5,420ZM3,417H816V90.52H3V417Z"/><rect class="cls-2" x="1.5" y="170.66" width="816" height="3"/><rect class="cls-2" x="1.5" y="248.16" width="816" height="3"/><rect class="cls-2" x="1.5" y="325.66" width="816" height="3"/><rect class="cls-2" x="133" y="89.02" width="3" height="329.48"/></svg>