<svg id="Layer_1" data-name="Layer 1" xmlns="http://www.w3.org/2000/svg" viewBox="0 0 465 337.46"><defs><style>.cls-1{fill:#85e8da;}.cls-2{fill:#f6f6f6;}.cls-3{fill:#231f20;}</style></defs><title>Slide-20b-Example</title><rect class="cls-1" x="43.54" y="153.19" width="143.16" height="57.19" rx="1" ry="1" transform="translate(230.23 363.57) rotate(-180)"/><path d="M185.7,211.88H44.54a2.5,2.5,0,0,1-2.5-2.5V154.19a2.5,2.5,0,0,1,2.5-2.5H185.7a2.5,2.5,0,0,1,2.5,2.5v55.19A2.5,2.5,0,0,1,185.7,211.88ZM45,208.88H185.2V154.69H45v54.19Z"/><rect class="cls-2" x="74.73" y="26.06" width="80.78" height="80.78" transform="translate(243.51 32.04) rotate(135)"/><path class="cls-3" d="M115.12,125.69L55.88,66.45,115.12,7.21l59.24,59.24Zm-55-59.24,55,55,55-55-55-55Z"/><polygon class="cls-3" points="47.41 67.03 0 67.03 0 0 3 0 3 64.03 47.41 64.03 47.41 67.03"/><polygon class="cls-3" points="45.22 58.05 58.17 65.53 45.22 73 45.22 58.05"/><rect class="cls-3" x="113.62" y="123.71" width="3" height="17.49"/><polygon class="cls-3" points="107.64 139.01 115.12 151.96 122.6 139.01 107.64 139.01"/><rect class="cls-3" x="113.62" y="210.9" width="3" height="65.53"/><polygon class="cls-3" points="107.64 274.23 115.12 287.19 122.6 274.23 107.64 274.23"/><path d="M82.42,171l-3.65-5.11h3.3c0.35,0.56,1.69,2.48,2,3l2-3h3.15l-3.59,5,3.71,5.24H86.16L84,173c-0.38.56-1.75,2.59-2.11,3.15H78.77Z"/><path d="M99.74,168.87V164.8h2.34v4.07h4v2.27h-4v4.09H99.74v-4.09H95.8v-2.27h3.94Z"/><path d="M108.29,169V166.8h10.12V169H108.29Zm0,4.15v-2.25h10.12v2.25H108.29Z"/><path d="M128.7,176.15v-9.05h-3.25v-1.94a3.46,3.46,0,0,0,3.63-2.54h2.48v13.54H128.7Z"/><path d="M135.33,164.57a5.12,5.12,0,0,1,4.46-2.27,5.05,5.05,0,0,1,4.44,2.27,10.2,10.2,0,0,1,0,9.64,5.05,5.05,0,0,1-4.44,2.27,5.12,5.12,0,0,1-4.46-2.27A10.36,10.36,0,0,1,135.33,164.57Zm2.42,8.26a2.26,2.26,0,0,0,2,1.11,2.2,2.2,0,0,0,2-1.11,8.26,8.26,0,0,0,0-6.88,2.2,2.2,0,0,0-2-1.11,2.26,2.26,0,0,0-2,1.11A8.47,8.47,0,0,0,137.75,172.83Z"/><path d="M149.56,165.74a1.87,1.87,0,1,1,0,3.73A1.87,1.87,0,0,1,149.56,165.74Zm0,7.18a2,2,0,0,1,2,2.27,4.07,4.07,0,0,1-3.48,4.34v-1.27a2.42,2.42,0,0,0,1.88-2.15,0.91,0.91,0,0,1-.5.13,1.58,1.58,0,0,1-1.65-1.65A1.69,1.69,0,0,1,149.52,172.91Z"/><path d="M80.32,205.23l2.42-5.34-4.36-9h3.11l2.73,6,2.52-6h3l-6.45,14.31H80.32Z"/><path d="M100,193.9v-4.07h2.34v4.07h4v2.27h-4v4.09H100v-4.09H96.09V193.9H100Z"/><path d="M108.59,194.07v-2.23H118.7v2.23H108.59Zm0,4.15V196H118.7v2.25H108.59Z"/><path d="M129,201.18v-9.05h-3.25v-1.94a3.46,3.46,0,0,0,3.63-2.54h2.48v13.54H129Z"/><path d="M135.62,189.6a5.12,5.12,0,0,1,4.46-2.27,5.05,5.05,0,0,1,4.44,2.27,10.2,10.2,0,0,1,0,9.64,5.05,5.05,0,0,1-4.44,2.27,5.12,5.12,0,0,1-4.46-2.27A10.36,10.36,0,0,1,135.62,189.6Zm2.42,8.26a2.26,2.26,0,0,0,2,1.11,2.2,2.2,0,0,0,2-1.11,8.26,8.26,0,0,0,0-6.88,2.2,2.2,0,0,0-2-1.11,2.26,2.26,0,0,0-2,1.11A8.47,8.47,0,0,0,138,197.86Z"/><path d="M149.85,190.77a1.87,1.87,0,1,1,0,3.73A1.87,1.87,0,0,1,149.85,190.77Zm0,7.17a2,2,0,0,1,2,2.27,4.07,4.07,0,0,1-3.48,4.34v-1.27a2.42,2.42,0,0,0,1.88-2.15,0.91,0.91,0,0,1-.5.13,1.58,1.58,0,0,1-1.65-1.65A1.69,1.69,0,0,1,149.81,197.95Z"/><path d="M92.38,64.36l-3.65-5.11H92c0.35,0.56,1.69,2.48,2,3l2-3h3.15l-3.59,5,3.71,5.24H96.11L94,66.36c-0.38.56-1.75,2.59-2.11,3.15H88.73Z"/><path d="M114.37,64.4l-9,4.53V66.36l6.17-3-6.17-3V57.79l9,4.53V64.4Z"/><path d="M124.15,69.51V60.46H120.9V58.52A3.46,3.46,0,0,0,124.53,56H127V69.51h-2.86Z"/><path d="M130.78,57.93a5.12,5.12,0,0,1,4.46-2.27,5.05,5.05,0,0,1,4.44,2.27,8.66,8.66,0,0,1,1.21,4.82,8.66,8.66,0,0,1-1.21,4.82,5.05,5.05,0,0,1-4.44,2.27,5.12,5.12,0,0,1-4.46-2.27,8.63,8.63,0,0,1-1.19-4.82A8.63,8.63,0,0,1,130.78,57.93Zm2.42,8.26a2.26,2.26,0,0,0,2,1.11,2.2,2.2,0,0,0,2-1.11,6.34,6.34,0,0,0,.75-3.44,6.34,6.34,0,0,0-.75-3.44,2.2,2.2,0,0,0-2-1.11,2.26,2.26,0,0,0-2,1.11,6.54,6.54,0,0,0-.73,3.44A6.54,6.54,0,0,0,133.2,66.19Z"/><path d="M213.84,58.05l-6.72-10.49V58.05h-2.88V43.27h3.59L214,53V43.27h2.88V58.05h-3Z"/><path d="M230,52.92a5.38,5.38,0,1,1-5.38-5.44A5.27,5.27,0,0,1,230,52.92Zm-2.77,0a2.62,2.62,0,1,0-5.21,0A2.62,2.62,0,1,0,227.19,52.92Z"/><path d="M54.45,119.27h3.38l3.32,5.86,3.32-5.86H67.7l-5.21,8.57v6.22H59.6v-6.22Z"/><path d="M76.52,131.11a4.62,4.62,0,0,1-4.67,3.25,5.45,5.45,0,0,1-.25-10.89c3.17,0,5.07,2,5.07,5.32,0,0.4,0,.81,0,0.85H69.28A2.5,2.5,0,0,0,71.87,132a2.27,2.27,0,0,0,2.34-1.56Zm-2.59-3.36a2.06,2.06,0,0,0-2.29-2,2.22,2.22,0,0,0-2.29,2h4.59Z"/><path d="M80.36,130.68a1.71,1.71,0,0,0,1.88,1.56,1.14,1.14,0,0,0,1.36-1,1.1,1.1,0,0,0-1.11-1l-1.36-.31c-2-.44-2.88-1.63-2.88-3.07a3.58,3.58,0,0,1,3.84-3.36c2.92,0,3.9,1.86,4,3L83.8,127a1.56,1.56,0,0,0-1.69-1.38,1.18,1.18,0,0,0-1.31,1,1,1,0,0,0,.94.92l1.46,0.31c2,0.42,3,1.65,3,3.15,0,1.67-1.29,3.38-4,3.38-3.09,0-4.15-2-4.28-3.17Z"/><path d="M277,119.27h3.38l3.32,5.86,3.32-5.86h3.23L285,127.84v6.22H282.1v-6.22Z"/><path d="M299,131.11a4.62,4.62,0,0,1-4.67,3.25,5.45,5.45,0,0,1-.25-10.89c3.17,0,5.07,2,5.07,5.32,0,0.4,0,.81,0,0.85h-7.34a2.5,2.5,0,0,0,2.59,2.34,2.27,2.27,0,0,0,2.34-1.56Zm-2.59-3.36a2.06,2.06,0,0,0-2.29-2,2.22,2.22,0,0,0-2.29,2h4.59Z"/><path d="M302.86,130.68a1.71,1.71,0,0,0,1.88,1.56,1.14,1.14,0,0,0,1.36-1,1.1,1.1,0,0,0-1.11-1l-1.36-.31c-2-.44-2.88-1.63-2.88-3.07a3.58,3.58,0,0,1,3.84-3.36c2.92,0,3.9,1.86,4,3l-2.32.52a1.56,1.56,0,0,0-1.69-1.38,1.18,1.18,0,0,0-1.31,1,1,1,0,0,0,.94.92l1.46,0.31c2,0.42,3,1.65,3,3.15,0,1.67-1.29,3.38-4,3.38-3.09,0-4.15-2-4.28-3.17Z"/><path d="M423.84,58.05l-6.72-10.49V58.05h-2.88V43.27h3.59L424,53V43.27h2.88V58.05h-3Z"/><path d="M440,52.92a5.38,5.38,0,1,1-5.38-5.44A5.27,5.27,0,0,1,440,52.92Zm-2.77,0a2.62,2.62,0,1,0-5.21,0A2.62,2.62,0,1,0,437.19,52.92Z"/><rect class="cls-3" x="171.66" y="64.03" width="96.07" height="3"/><polygon class="cls-3" points="265.55 73 278.5 65.53 265.55 58.05 265.55 73"/><rect class="cls-1" x="263.54" y="153.19" width="143.16" height="57.19" rx="1" ry="1" transform="translate(670.23 363.57) rotate(-180)"/><path d="M405.7,211.88H264.54a2.5,2.5,0,0,1-2.5-2.5V154.19a2.5,2.5,0,0,1,2.5-2.5H405.7a2.5,2.5,0,0,1,2.5,2.5v55.19A2.5,2.5,0,0,1,405.7,211.88Zm-140.66-3H405.2V154.69H265v54.19Z"/><rect class="cls-2" x="294.73" y="26.06" width="80.78" height="80.78" transform="translate(619.07 -123.52) rotate(135)"/><path class="cls-3" d="M335.12,125.69L275.88,66.45,335.12,7.21l59.24,59.24Zm-55-59.24,55,55,55-55-55-55Z"/><rect class="cls-3" x="333.62" y="123.71" width="3" height="17.49"/><polygon class="cls-3" points="327.64 139.01 335.12 151.96 342.6 139.01 327.64 139.01"/><rect class="cls-3" x="333.62" y="210.9" width="3" height="65.53"/><polygon class="cls-3" points="327.64 274.23 335.12 287.19 342.6 274.23 327.64 274.23"/><path d="M307.4,184l-3.65-5.11H307c0.35,0.56,1.69,2.48,2,3l2-3h3.15l-3.59,5,3.71,5.24h-3.25L309,186c-0.38.56-1.75,2.59-2.11,3.15h-3.13Z"/><path d="M324.72,181.87V177.8h2.34v4.07h4v2.27h-4v4.09h-2.34v-4.09h-3.94v-2.27h3.94Z"/><path d="M333.27,182V179.8h10.12V182H333.27Zm0,4.15v-2.25h10.12v2.25H333.27Z"/><path d="M353.07,184.75a2.36,2.36,0,0,0,2.46,2.27,2.25,2.25,0,1,0-.06-4.48,2.76,2.76,0,0,0-2.09.92c-0.27-.1-2.34-0.81-2.63-0.9l1.61-6.95H360v2.48h-5.67l-0.67,3a3.72,3.72,0,0,1,2.44-.83,4.27,4.27,0,0,1,4.63,4.53c0,2.52-1.94,4.71-5.19,4.71a4.89,4.89,0,0,1-5.15-4.13Z"/><path d="M364.58,178.74a1.87,1.87,0,1,1,0,3.73A1.87,1.87,0,0,1,364.58,178.74Zm0,7.18a2,2,0,0,1,2,2.27,4.07,4.07,0,0,1-3.48,4.34v-1.27a2.42,2.42,0,0,0,1.88-2.15,0.91,0.91,0,0,1-.5.13,1.58,1.58,0,0,1-1.65-1.65A1.69,1.69,0,0,1,364.54,185.91Z"/><path d="M317.35,64.36l-3.65-5.11H317c0.35,0.56,1.69,2.48,2,3l2-3h3.15l-3.59,5,3.71,5.24h-3.25l-2.15-3.15c-0.38.56-1.75,2.59-2.11,3.15H313.7Z"/><path d="M339.34,64.4l-9,4.53V66.36l6.17-3-6.17-3V57.79l9,4.53V64.4Z"/><path d="M348.52,65.11A2.36,2.36,0,0,0,351,67.38a2.25,2.25,0,1,0-.06-4.48,2.77,2.77,0,0,0-2.09.92c-0.27-.1-2.34-0.81-2.63-0.9L347.81,56h7.63v2.48h-5.67l-0.67,3a3.72,3.72,0,0,1,2.44-.83,4.27,4.27,0,0,1,4.63,4.53c0,2.52-1.94,4.71-5.19,4.71a4.89,4.89,0,0,1-5.15-4.13Z"/><polygon class="cls-3" points="27.32 326.7 24.32 326.7 24.32 286.71 462 286.71 462 67.03 391.66 67.03 391.66 64.03 465 64.03 465 289.71 27.32 289.71 27.32 326.7"/><polygon class="cls-3" points="18.34 324.51 25.82 337.46 33.3 324.51 18.34 324.51"/></svg>