<svg id="Layer_1" data-name="Layer 1" xmlns="http://www.w3.org/2000/svg" viewBox="0 0 392.5 392.5"><defs><style>.cls-1{fill:#fff;}.cls-2{fill:#231f20;}.cls-3{fill:#ececec;}</style></defs><title>Slide-3-Lightswitch</title><rect class="cls-1" x="1.5" y="1.5" width="389.5" height="389.5"/><path class="cls-2" d="M391,392.5H1.5A1.5,1.5,0,0,1,0,391V1.5A1.5,1.5,0,0,1,1.5,0H391a1.5,1.5,0,0,1,1.5,1.5V391A1.5,1.5,0,0,1,391,392.5Zm-388-3H389.5V3H3V389.5Z"/><rect class="cls-1" x="149.25" y="196.25" width="95.55" height="115.28"/><path class="cls-2" d="M244.8,313H149.25a1.5,1.5,0,0,1-1.5-1.5V196.25a1.5,1.5,0,0,1,1.5-1.5H244.8a1.5,1.5,0,0,1,1.5,1.5V311.53A1.5,1.5,0,0,1,244.8,313Zm-94-3H243.3V197.75H150.75V310Z"/><polygon class="cls-3" points="150.1 81.97 150.1 194 178.1 108.97 150.1 81.97"/><path class="cls-2" d="M244.8,197.75H149.25a1.5,1.5,0,0,1-1.5-1.5V81a1.5,1.5,0,0,1,1.5-1.5H244.8a1.5,1.5,0,0,1,1,.39l29.7,27-2,2.22L244.22,82.47H150.75V194.75H243.3V121h3v75.25A1.5,1.5,0,0,1,244.8,197.75Z"/><rect class="cls-2" x="162.6" y="74.4" width="3" height="40.14" transform="translate(-16.19 152.35) rotate(-47.73)"/><circle class="cls-1" cx="202" cy="40" r="10" transform="translate(30.88 154.55) rotate(-45)"/><path class="cls-2" d="M202,51.49a11.49,11.49,0,1,1,8.13-3.36h0A11.47,11.47,0,0,1,202,51.49Zm0-20A8.5,8.5,0,1,0,208,34,8.47,8.47,0,0,0,202,31.5Z"/><rect class="cls-2" x="192" y="38.5" width="20" height="3" transform="translate(30.88 154.55) rotate(-45)"/><circle class="cls-1" cx="202" cy="350.75" r="10" transform="translate(-188.85 245.57) rotate(-45)"/><path class="cls-2" d="M202,362.25a11.43,11.43,0,0,1-8.13-3.37h0A11.5,11.5,0,1,1,202,362.25Zm-6-5.49a8.5,8.5,0,1,0,0-12,8.51,8.51,0,0,0,0,12h0Z"/><rect class="cls-2" x="200.5" y="340.75" width="3" height="20" transform="translate(-188.85 245.57) rotate(-45)"/><polygon class="cls-1" points="244.8 196.25 149.25 196.25 178.95 107.97 274.5 107.97 244.8 196.25"/><path class="cls-2" d="M244.8,197.75H149.25a1.5,1.5,0,0,1-1.42-2l29.7-88.28a1.5,1.5,0,0,1,1.42-1H274.5a1.5,1.5,0,0,1,1.42,2l-29.7,88.28A1.5,1.5,0,0,1,244.8,197.75Zm-93.46-3h92.38l28.69-85.28H180Z"/></svg>