<svg id="Layer_1" data-name="Layer 1" xmlns="http://www.w3.org/2000/svg" viewBox="0 0 945.52 159.02"><defs><style>.cls-1{fill:#e51b24;}.cls-2{fill:#231f20;}</style></defs><title>Slide-22b-True-False-Bottom-Half</title><path class="cls-1" d="M365.64,57.3V34.9h4.63v1.82h-2.66V55.5h2.66v1.8h-4.63Z"/><path class="cls-1" d="M379.15,38.91V53.75H376.8V38.91h-5.69V36.73h13.73v2.18h-5.69Z"/><path class="cls-1" d="M389.26,53.75H387V36.37h2.26v7.18a4.08,4.08,0,0,1,3.5-1.68c2.76,0,4.13,2,4.13,4.56v7.32h-2.26V46.81c0-1.61-.67-2.9-2.69-2.9-1.73,0-2.64,1.34-2.69,3v6.79Z"/><path class="cls-1" d="M401.59,36.2A1.62,1.62,0,1,1,400,37.83,1.62,1.62,0,0,1,401.59,36.2Zm-1.1,17.54V42.2h2.23V53.75h-2.23Z"/><path class="cls-1" d="M407.52,50a2.46,2.46,0,0,0,2.69,2.16,1.7,1.7,0,0,0,2-1.54,1.61,1.61,0,0,0-1.49-1.49l-2-.43a3.28,3.28,0,0,1-2.88-3.24,3.94,3.94,0,0,1,4.1-3.65c3.17,0,4.15,2.06,4.39,3.1l-2,.74a2.24,2.24,0,0,0-2.4-1.92A1.74,1.74,0,0,0,408,45.3a1.41,1.41,0,0,0,1.32,1.39l1.87,0.41c2.09,0.46,3.19,1.73,3.19,3.43s-1.37,3.58-4.22,3.58c-3.17,0-4.51-2-4.7-3.36Z"/><path class="cls-1" d="M424.51,36.2a1.62,1.62,0,1,1-1.61,1.63A1.62,1.62,0,0,1,424.51,36.2Zm-1.1,17.54V42.2h2.23V53.75h-2.23Z"/><path class="cls-1" d="M430.44,50a2.46,2.46,0,0,0,2.69,2.16,1.7,1.7,0,0,0,2-1.54,1.61,1.61,0,0,0-1.49-1.49l-2-.43a3.28,3.28,0,0,1-2.88-3.24,3.94,3.94,0,0,1,4.1-3.65c3.17,0,4.15,2.06,4.39,3.1l-2,.74a2.24,2.24,0,0,0-2.4-1.92,1.74,1.74,0,0,0-1.92,1.54,1.41,1.41,0,0,0,1.32,1.39l1.87,0.41c2.09,0.46,3.19,1.73,3.19,3.43s-1.37,3.58-4.22,3.58c-3.17,0-4.51-2-4.7-3.36Z"/><path class="cls-1" d="M446.33,53.75V36.37h2.23v7.46a4.21,4.21,0,0,1,3.82-2c3.5,0,5.3,2.69,5.3,6s-1.94,6.14-5.38,6.14a4.12,4.12,0,0,1-3.74-2v1.68h-2.23ZM452,43.86c-2,0-3.43,1.56-3.43,4.06S450,52,452,52s3.41-1.63,3.41-4.13S454.06,43.86,452,43.86Z"/><path class="cls-1" d="M470.62,50.46a5.23,5.23,0,0,1-5.19,3.65c-3.1,0-5.81-2.26-5.81-6.17,0-3.62,2.62-6.1,5.52-6.1,3.55,0,5.54,2.45,5.54,6a5,5,0,0,1,0,.72H462a3.43,3.43,0,0,0,3.48,3.5,3.15,3.15,0,0,0,3.24-2.33Zm-2.28-3.67a2.91,2.91,0,0,0-3.17-3,3.11,3.11,0,0,0-3.14,3h6.31Z"/><path class="cls-1" d="M474.91,48c0,2.64,1.66,4.06,3.53,4.06a3.14,3.14,0,0,0,3.22-2.38l2,0.86a5.3,5.3,0,0,1-5.21,3.6A5.84,5.84,0,0,1,472.61,48a5.79,5.79,0,0,1,5.81-6.12,5,5,0,0,1,5.14,3.67l-2,.86a3,3,0,0,0-3.1-2.45C476.59,43.93,474.91,45.27,474.91,48Z"/><path class="cls-1" d="M489,47.15l3.12-.46a0.84,0.84,0,0,0,.89-0.86c0-1.13-.74-2.06-2.5-2.06a2.45,2.45,0,0,0-2.62,2.33l-2.16-.5c0.24-2.21,2.23-3.75,4.73-3.75,3.46,0,4.8,2,4.8,4.22v5.79a10.89,10.89,0,0,0,.14,1.9h-2.21a8.45,8.45,0,0,1-.12-1.56,4.21,4.21,0,0,1-3.72,1.92,3.6,3.6,0,0,1-3.86-3.46C485.45,48.59,487,47.43,489,47.15Zm4,1.66V48.27l-3.53.53a1.73,1.73,0,0,0-1.68,1.73,1.75,1.75,0,0,0,1.87,1.68C491.47,52.21,493,51.32,493,48.8Z"/><path class="cls-1" d="M502.68,54.11c-2.69,0-4.32-2-4.32-4.63V42.2h2.26v6.94c0,1.58.72,3,2.62,3s2.74-1.2,2.74-3v-7h2.26v9.41a19.45,19.45,0,0,0,.12,2.14h-2.16a10.25,10.25,0,0,1-.1-1.39A3.77,3.77,0,0,1,502.68,54.11Z"/><path class="cls-1" d="M513,50a2.46,2.46,0,0,0,2.69,2.16,1.7,1.7,0,0,0,2-1.54,1.61,1.61,0,0,0-1.49-1.49l-2-.43a3.28,3.28,0,0,1-2.88-3.24,3.94,3.94,0,0,1,4.1-3.65c3.17,0,4.15,2.06,4.39,3.1l-2,.74a2.24,2.24,0,0,0-2.4-1.92,1.74,1.74,0,0,0-1.92,1.54,1.41,1.41,0,0,0,1.32,1.39l1.87,0.41c2.09,0.46,3.19,1.73,3.19,3.43s-1.37,3.58-4.22,3.58c-3.17,0-4.51-2-4.71-3.36Z"/><path class="cls-1" d="M532.85,50.46a5.23,5.23,0,0,1-5.18,3.65c-3.1,0-5.81-2.26-5.81-6.17,0-3.62,2.62-6.1,5.52-6.1,3.55,0,5.54,2.45,5.54,6a5.18,5.18,0,0,1,0,.72h-8.69a3.43,3.43,0,0,0,3.48,3.5,3.15,3.15,0,0,0,3.24-2.33Zm-2.28-3.67a2.91,2.91,0,0,0-3.17-3,3.11,3.11,0,0,0-3.14,3h6.31Z"/><path class="cls-1" d="M544.58,47.15l3.12-.46a0.84,0.84,0,0,0,.89-0.86c0-1.13-.74-2.06-2.5-2.06a2.45,2.45,0,0,0-2.62,2.33l-2.16-.5c0.24-2.21,2.23-3.75,4.73-3.75,3.46,0,4.8,2,4.8,4.22v5.79a10.89,10.89,0,0,0,.14,1.9h-2.21a8.45,8.45,0,0,1-.12-1.56,4.21,4.21,0,0,1-3.72,1.92,3.6,3.6,0,0,1-3.86-3.46C541.08,48.59,542.59,47.43,544.58,47.15Zm4,1.66V48.27l-3.53.53a1.73,1.73,0,0,0-1.68,1.73,1.75,1.75,0,0,0,1.87,1.68C547.1,52.21,548.59,51.32,548.59,48.8Z"/><path class="cls-1" d="M561.31,50A2.46,2.46,0,0,0,564,52.19a1.7,1.7,0,0,0,2-1.54,1.6,1.6,0,0,0-1.49-1.49l-2-.43a3.28,3.28,0,0,1-2.88-3.24,3.94,3.94,0,0,1,4.1-3.65c3.17,0,4.15,2.06,4.39,3.1l-2,.74a2.24,2.24,0,0,0-2.4-1.92,1.74,1.74,0,0,0-1.92,1.54,1.41,1.41,0,0,0,1.32,1.39L565,47.1c2.09,0.46,3.19,1.73,3.19,3.43s-1.37,3.58-4.22,3.58c-3.17,0-4.51-2-4.7-3.36Z"/><path class="cls-1" d="M574.22,42.2h2.5v2h-2.5v6a1.37,1.37,0,0,0,1.61,1.58,4.58,4.58,0,0,0,.89-0.1v1.92a4.94,4.94,0,0,1-1.54.22A3,3,0,0,1,572,50.58V44.24h-2.21v-2h0.62a1.62,1.62,0,0,0,1.78-1.78V38.55h2.06V42.2Z"/><path class="cls-1" d="M585.89,44.48a7.06,7.06,0,0,0-1-.07c-1.9,0-3.17,1-3.17,3.55v5.78h-2.26V42.2h2.21v2A3.61,3.61,0,0,1,585.14,42a4.33,4.33,0,0,1,.74.07v2.4Z"/><path class="cls-1" d="M589.39,36.2a1.62,1.62,0,1,1-1.61,1.63A1.62,1.62,0,0,1,589.39,36.2Zm-1.1,17.54V42.2h2.23V53.75h-2.23Z"/><path class="cls-1" d="M596.62,53.75h-2.26V42.2h2.21v1.66a4,4,0,0,1,3.55-2c2.76,0,4.13,2,4.13,4.56v7.32H602V46.81c0-1.61-.67-2.9-2.69-2.9-1.78,0-2.69,1.42-2.69,3.17v6.67Z"/><path class="cls-1" d="M609.19,53.87a3.07,3.07,0,0,0,3.14,2.83c2.42,0,3.53-1.25,3.53-3.74V51.3a3.85,3.85,0,0,1-3.53,1.9A5.26,5.26,0,0,1,607,47.6a5.31,5.31,0,0,1,5.3-5.62,3.64,3.64,0,0,1,3.55,1.82V42.2h2.23V52.88c0,2.93-1.44,5.79-5.78,5.79a5.05,5.05,0,0,1-5.33-4.3ZM616,47.6c0-2.23-1.34-3.7-3.29-3.7s-3.34,1.46-3.34,3.7,1.3,3.7,3.34,3.7S616,49.83,616,47.6Z"/><path class="cls-1" d="M630.5,47.15l3.12-.46a0.84,0.84,0,0,0,.89-0.86c0-1.13-.74-2.06-2.5-2.06a2.45,2.45,0,0,0-2.62,2.33l-2.16-.5c0.24-2.21,2.23-3.75,4.73-3.75,3.46,0,4.8,2,4.8,4.22v5.79a10.85,10.85,0,0,0,.14,1.9H634.7a8.45,8.45,0,0,1-.12-1.56,4.21,4.21,0,0,1-3.72,1.92A3.6,3.6,0,0,1,627,50.65C627,48.59,628.51,47.43,630.5,47.15Zm4,1.66V48.27L631,48.8a1.73,1.73,0,0,0-1.68,1.73,1.75,1.75,0,0,0,1.87,1.68C633,52.21,634.51,51.32,634.51,48.8Z"/><path class="cls-1" d="M642.53,53.75h-2.26V42.2h2.21v1.66a4,4,0,0,1,3.55-2c2.76,0,4.13,2,4.13,4.56v7.32H647.9V46.81c0-1.61-.67-2.9-2.69-2.9-1.78,0-2.69,1.42-2.69,3.17v6.67Z"/><path class="cls-1" d="M661.85,52a3.86,3.86,0,0,1-3.58,2.06c-3.38,0-5.47-2.69-5.47-6.12,0-3.26,2.21-6,5.47-6a3.55,3.55,0,0,1,3.53,1.94V36.37H664V51.61a18.14,18.14,0,0,0,.12,2.14H662a9.68,9.68,0,0,1-.12-1.56V52Zm-3.36.07c2.06,0,3.34-1.8,3.34-4.18s-1.25-4-3.31-4-3.41,1.68-3.41,4.06S656.33,52.07,658.49,52.07Z"/><path class="cls-1" d="M676.13,53.75h-2.26V42.2h2.21v1.66a4,4,0,0,1,3.55-2c2.76,0,4.13,2,4.13,4.56v7.32H681.5V46.81c0-1.61-.67-2.9-2.69-2.9-1.78,0-2.69,1.42-2.69,3.17v6.67Z"/><path class="cls-1" d="M691.32,54.11c-2.69,0-4.32-2-4.32-4.63V42.2h2.26v6.94c0,1.58.72,3,2.62,3s2.74-1.2,2.74-3v-7h2.26v9.41a19.45,19.45,0,0,0,.12,2.14h-2.16a10.25,10.25,0,0,1-.1-1.39A3.77,3.77,0,0,1,691.32,54.11Z"/><path class="cls-1" d="M700.7,53.75V42.2h2.16v1.54a4,4,0,0,1,3.5-1.87A3.61,3.61,0,0,1,709.82,44a4.14,4.14,0,0,1,3.86-2.18c2,0,4,1.37,4,4.39v7.49h-2.23V46.5A2.32,2.32,0,0,0,713,43.86a2.69,2.69,0,0,0-2.66,2.9v7h-2.26V46.5a2.32,2.32,0,0,0-2.45-2.64,2.68,2.68,0,0,0-2.69,2.93v7H700.7Z"/><path class="cls-1" d="M721.27,53.75V36.37h2.23v7.46a4.21,4.21,0,0,1,3.82-2c3.5,0,5.3,2.69,5.3,6s-1.94,6.14-5.38,6.14a4.12,4.12,0,0,1-3.74-2v1.68h-2.23Zm5.64-9.89c-2,0-3.43,1.56-3.43,4.06S724.92,52,726.91,52s3.41-1.63,3.41-4.13S729,43.86,726.91,43.86Z"/><path class="cls-1" d="M745.56,50.46a5.23,5.23,0,0,1-5.18,3.65c-3.1,0-5.81-2.26-5.81-6.17,0-3.62,2.62-6.1,5.52-6.1,3.55,0,5.54,2.45,5.54,6a5,5,0,0,1,0,.72h-8.69a3.43,3.43,0,0,0,3.48,3.5,3.15,3.15,0,0,0,3.24-2.33Zm-2.28-3.67a2.91,2.91,0,0,0-3.17-3,3.11,3.11,0,0,0-3.14,3h6.31Z"/><path class="cls-1" d="M754.92,44.48a7.07,7.07,0,0,0-1-.07c-1.9,0-3.17,1-3.17,3.55v5.78h-2.26V42.2h2.21v2A3.62,3.62,0,0,1,754.17,42a4.33,4.33,0,0,1,.74.07v2.4Z"/><path class="cls-1" d="M766.1,47.15l3.12-.46a0.84,0.84,0,0,0,.89-0.86c0-1.13-.74-2.06-2.5-2.06A2.45,2.45,0,0,0,765,46.09l-2.16-.5c0.24-2.21,2.23-3.75,4.73-3.75,3.46,0,4.8,2,4.8,4.22v5.79a10.85,10.85,0,0,0,.14,1.9H770.3a8.48,8.48,0,0,1-.12-1.56,4.21,4.21,0,0,1-3.72,1.92,3.6,3.6,0,0,1-3.86-3.46C762.6,48.59,764.11,47.43,766.1,47.15Zm4,1.66V48.27l-3.53.53a1.73,1.73,0,0,0-1.68,1.73,1.75,1.75,0,0,0,1.87,1.68C768.62,52.21,770.11,51.32,770.11,48.8Z"/><path class="cls-1" d="M782.28,44.48a7.07,7.07,0,0,0-1-.07c-1.9,0-3.17,1-3.17,3.55v5.78h-2.26V42.2h2.21v2A3.62,3.62,0,0,1,781.53,42a4.33,4.33,0,0,1,.74.07v2.4Z"/><path class="cls-1" d="M794.61,50.46a5.23,5.23,0,0,1-5.18,3.65c-3.1,0-5.81-2.26-5.81-6.17,0-3.62,2.62-6.1,5.52-6.1,3.55,0,5.54,2.45,5.54,6a5,5,0,0,1,0,.72h-8.69a3.43,3.43,0,0,0,3.48,3.5,3.15,3.15,0,0,0,3.24-2.33Zm-2.28-3.67a2.91,2.91,0,0,0-3.17-3,3.11,3.11,0,0,0-3.14,3h6.31Z"/><path class="cls-1" d="M805.82,53.75h-2.26V42.2h2.21v1.66a4,4,0,0,1,3.55-2c2.76,0,4.13,2,4.13,4.56v7.32H811.2V46.81c0-1.61-.67-2.9-2.69-2.9-1.78,0-2.69,1.42-2.69,3.17v6.67Z"/><path class="cls-1" d="M827.9,48a5.91,5.91,0,1,1-11.81,0A5.91,5.91,0,1,1,827.9,48Zm-2.3,0c0-2.66-1.68-4.1-3.6-4.1s-3.6,1.44-3.6,4.1,1.68,4.13,3.6,4.13S825.6,50.65,825.6,48Z"/><path class="cls-1" d="M833.68,42.2h2.5v2h-2.5v6a1.37,1.37,0,0,0,1.61,1.58,4.57,4.57,0,0,0,.89-0.1v1.92a4.93,4.93,0,0,1-1.54.22,3,3,0,0,1-3.22-3.29V44.24h-2.21v-2h0.62a1.61,1.61,0,0,0,1.78-1.78V38.55h2.06V42.2Z"/><path class="cls-1" d="M848.2,42.2h2.5v2h-2.5v6a1.37,1.37,0,0,0,1.61,1.58,4.57,4.57,0,0,0,.89-0.1v1.92a4.93,4.93,0,0,1-1.54.22,3,3,0,0,1-3.22-3.29V44.24h-2.21v-2h0.62a1.61,1.61,0,0,0,1.78-1.78V38.55h2.06V42.2Z"/><path class="cls-1" d="M856,53.75H853.7V36.37H856v7.18a4.08,4.08,0,0,1,3.5-1.68c2.76,0,4.13,2,4.13,4.56v7.32h-2.26V46.81c0-1.61-.67-2.9-2.69-2.9-1.73,0-2.64,1.34-2.69,3v6.79Z"/><path class="cls-1" d="M877.24,50.46a5.23,5.23,0,0,1-5.18,3.65c-3.1,0-5.81-2.26-5.81-6.17,0-3.62,2.62-6.1,5.52-6.1,3.55,0,5.54,2.45,5.54,6a5,5,0,0,1,0,.72h-8.69a3.43,3.43,0,0,0,3.48,3.5,3.15,3.15,0,0,0,3.24-2.33ZM875,46.79a2.91,2.91,0,0,0-3.17-3,3.11,3.11,0,0,0-3.14,3H875Z"/><path class="cls-1" d="M887.15,50a2.46,2.46,0,0,0,2.69,2.16,1.7,1.7,0,0,0,2-1.54,1.61,1.61,0,0,0-1.49-1.49l-2-.43a3.28,3.28,0,0,1-2.88-3.24,3.94,3.94,0,0,1,4.1-3.65c3.17,0,4.15,2.06,4.39,3.1l-2,.74a2.24,2.24,0,0,0-2.4-1.92,1.74,1.74,0,0,0-1.92,1.54A1.41,1.41,0,0,0,889,46.69l1.87,0.41c2.09,0.46,3.19,1.73,3.19,3.43s-1.37,3.58-4.22,3.58c-3.17,0-4.51-2-4.71-3.36Z"/><path class="cls-1" d="M899.59,47.15l3.12-.46a0.84,0.84,0,0,0,.89-0.86c0-1.13-.74-2.06-2.5-2.06a2.45,2.45,0,0,0-2.62,2.33l-2.16-.5c0.24-2.21,2.23-3.75,4.73-3.75,3.46,0,4.8,2,4.8,4.22v5.79a10.85,10.85,0,0,0,.14,1.9h-2.21a8.48,8.48,0,0,1-.12-1.56,4.21,4.21,0,0,1-3.72,1.92,3.6,3.6,0,0,1-3.86-3.46C896.08,48.59,897.59,47.43,899.59,47.15Zm4,1.66V48.27l-3.53.53a1.73,1.73,0,0,0-1.68,1.73,1.75,1.75,0,0,0,1.87,1.68C902.11,52.21,903.59,51.32,903.59,48.8Z"/><path class="cls-1" d="M909.35,53.75V42.2h2.16v1.54a4,4,0,0,1,3.5-1.87A3.61,3.61,0,0,1,918.47,44a4.14,4.14,0,0,1,3.86-2.18c2,0,4,1.37,4,4.39v7.49h-2.23V46.5a2.32,2.32,0,0,0-2.45-2.64,2.69,2.69,0,0,0-2.66,2.9v7h-2.26V46.5a2.32,2.32,0,0,0-2.45-2.64,2.68,2.68,0,0,0-2.69,2.93v7h-2.23Z"/><path class="cls-1" d="M940,50.46a5.23,5.23,0,0,1-5.18,3.65c-3.1,0-5.81-2.26-5.81-6.17,0-3.62,2.62-6.1,5.52-6.1,3.55,0,5.54,2.45,5.54,6a5,5,0,0,1,0,.72h-8.69a3.43,3.43,0,0,0,3.48,3.5A3.15,3.15,0,0,0,938,49.79Zm-2.28-3.67a2.91,2.91,0,0,0-3.17-3,3.11,3.11,0,0,0-3.14,3h6.31Z"/><path class="cls-1" d="M940.89,57.3V55.5h2.66V36.73h-2.66V34.9h4.63V57.3h-4.63Z"/><path class="cls-1" d="M365.64,93.81V71.42h4.63v1.82h-2.66V92h2.66v1.8h-4.63Z"/><path class="cls-1" d="M373,76.84a5.82,5.82,0,0,1,9.55,0,10,10,0,0,1,1.39,5.64,10,10,0,0,1-1.39,5.64,5.82,5.82,0,0,1-9.55,0,10,10,0,0,1-1.39-5.64A10,10,0,0,1,373,76.84Zm2.3,10.68a3.53,3.53,0,0,0,4.94,0c0.94-1,1.37-2.66,1.37-5s-0.43-4.06-1.37-5a3.54,3.54,0,0,0-4.94,0c-0.94,1-1.37,2.66-1.37,5S374.35,86.54,375.29,87.52Z"/><path class="cls-1" d="M394.15,72.71a1.62,1.62,0,1,1-1.61,1.63A1.62,1.62,0,0,1,394.15,72.71Zm-1.1,17.54V78.71h2.23V90.26h-2.23Z"/><path class="cls-1" d="M400.08,86.54a2.46,2.46,0,0,0,2.69,2.16,1.7,1.7,0,0,0,2-1.54,1.61,1.61,0,0,0-1.49-1.49l-2-.43A3.28,3.28,0,0,1,398.4,82a3.93,3.93,0,0,1,4.1-3.65c3.17,0,4.15,2.06,4.39,3.1l-2,.74a2.24,2.24,0,0,0-2.4-1.92,1.74,1.74,0,0,0-1.92,1.54,1.41,1.41,0,0,0,1.32,1.39l1.87,0.41C405.87,84.07,407,85.34,407,87s-1.37,3.58-4.22,3.58c-3.17,0-4.51-2-4.7-3.36Z"/><path class="cls-1" d="M418.75,83.66l3.12-.46a0.84,0.84,0,0,0,.89-0.86c0-1.13-.74-2.06-2.5-2.06a2.45,2.45,0,0,0-2.62,2.33l-2.16-.5c0.24-2.21,2.23-3.74,4.73-3.74,3.46,0,4.8,2,4.8,4.22v5.78a10.86,10.86,0,0,0,.14,1.9H423a8.44,8.44,0,0,1-.12-1.56,4.21,4.21,0,0,1-3.72,1.92,3.6,3.6,0,0,1-3.86-3.46C415.25,85.1,416.76,83.95,418.75,83.66Zm4,1.66V84.79l-3.53.53A1.73,1.73,0,0,0,417.55,87a1.75,1.75,0,0,0,1.87,1.68C421.27,88.72,422.76,87.83,422.76,85.32Z"/><path class="cls-1" d="M428.52,90.26V72.88h2.26V90.26h-2.26Z"/><path class="cls-1" d="M443.45,78.71l3,8.69L449,78.71h2.38l-3.74,11.54H445.3l-3.07-8.78-3,8.78h-2.38l-3.79-11.54h2.47l2.59,8.69,3-8.69h2.33Z"/><path class="cls-1" d="M456.31,83.66l3.12-.46a0.84,0.84,0,0,0,.89-0.86c0-1.13-.74-2.06-2.5-2.06a2.45,2.45,0,0,0-2.62,2.33L453,82.1c0.24-2.21,2.23-3.74,4.73-3.74,3.46,0,4.8,2,4.8,4.22v5.78a10.86,10.86,0,0,0,.14,1.9h-2.21a8.44,8.44,0,0,1-.12-1.56,4.21,4.21,0,0,1-3.72,1.92,3.6,3.6,0,0,1-3.86-3.46C452.81,85.1,454.32,83.95,456.31,83.66Zm4,1.66V84.79l-3.53.53A1.73,1.73,0,0,0,455.11,87,1.75,1.75,0,0,0,457,88.72C458.83,88.72,460.32,87.83,460.32,85.32Z"/><path class="cls-1" d="M466.25,95.08l2.88-6.1-5-10.27h2.59l3.6,8,3.46-8h2.42l-7.51,16.37h-2.47Z"/><path class="cls-1" d="M479.11,86.54a2.46,2.46,0,0,0,2.69,2.16,1.7,1.7,0,0,0,2-1.54,1.61,1.61,0,0,0-1.49-1.49l-2-.43A3.28,3.28,0,0,1,477.43,82a3.93,3.93,0,0,1,4.1-3.65c3.17,0,4.15,2.06,4.39,3.1l-2,.74a2.24,2.24,0,0,0-2.4-1.92,1.74,1.74,0,0,0-1.92,1.54,1.41,1.41,0,0,0,1.32,1.39l1.87,0.41C484.9,84.07,486,85.34,486,87s-1.37,3.58-4.22,3.58c-3.17,0-4.51-2-4.71-3.36Z"/><path class="cls-1" d="M498,80.75v9.5H495.7v-9.5h-2.14v-2h2.14V76.77a3.66,3.66,0,0,1,3.79-4,2.91,2.91,0,0,1,1.34.24v2a2.64,2.64,0,0,0-1-.14,1.73,1.73,0,0,0-1.82,2v1.82h2.78v2H498Z"/><path class="cls-1" d="M505.66,83.66l3.12-.46a0.84,0.84,0,0,0,.89-0.86c0-1.13-.74-2.06-2.5-2.06a2.45,2.45,0,0,0-2.62,2.33l-2.16-.5c0.24-2.21,2.23-3.74,4.73-3.74,3.46,0,4.8,2,4.8,4.22v5.78a10.88,10.88,0,0,0,.14,1.9h-2.21a8.44,8.44,0,0,1-.12-1.56A4.21,4.21,0,0,1,506,90.62a3.6,3.6,0,0,1-3.86-3.46C502.15,85.1,503.67,83.95,505.66,83.66Zm4,1.66V84.79l-3.53.53A1.73,1.73,0,0,0,504.46,87a1.75,1.75,0,0,0,1.87,1.68C508.18,88.72,509.67,87.83,509.67,85.32Z"/><path class="cls-1" d="M515.42,90.26V72.88h2.26V90.26h-2.26Z"/><path class="cls-1" d="M522.48,86.54a2.46,2.46,0,0,0,2.69,2.16,1.7,1.7,0,0,0,2-1.54,1.61,1.61,0,0,0-1.49-1.49l-2-.43A3.28,3.28,0,0,1,520.8,82a3.93,3.93,0,0,1,4.1-3.65c3.17,0,4.15,2.06,4.39,3.1l-2,.74a2.24,2.24,0,0,0-2.4-1.92A1.74,1.74,0,0,0,523,81.81a1.41,1.41,0,0,0,1.32,1.39l1.87,0.41c2.09,0.46,3.19,1.73,3.19,3.43s-1.37,3.58-4.22,3.58c-3.17,0-4.51-2-4.7-3.36Z"/><path class="cls-1" d="M542.31,87a5.23,5.23,0,0,1-5.18,3.65c-3.1,0-5.81-2.26-5.81-6.17,0-3.62,2.62-6.1,5.52-6.1,3.55,0,5.54,2.45,5.54,6a5,5,0,0,1,0,.72h-8.69a3.43,3.43,0,0,0,3.48,3.5,3.15,3.15,0,0,0,3.24-2.33ZM540,83.3a2.91,2.91,0,0,0-3.17-3,3.1,3.1,0,0,0-3.14,3H540Z"/><path class="cls-1" d="M552.36,72.71a1.62,1.62,0,1,1-1.61,1.63A1.62,1.62,0,0,1,552.36,72.71Zm-1.1,17.54V78.71h2.23V90.26h-2.23Z"/><path class="cls-1" d="M559.58,90.26h-2.26V78.71h2.21v1.66a4,4,0,0,1,3.55-2c2.76,0,4.13,2,4.13,4.56v7.32H565V83.32c0-1.61-.67-2.9-2.69-2.9-1.78,0-2.69,1.42-2.69,3.17v6.67Z"/><path class="cls-1" d="M576.82,90.26V72.88H579v7.46a4.21,4.21,0,0,1,3.82-2c3.5,0,5.3,2.69,5.3,6s-1.94,6.14-5.38,6.14a4.12,4.12,0,0,1-3.74-2v1.68h-2.23Zm5.64-9.89c-2,0-3.43,1.56-3.43,4.06s1.44,4.13,3.43,4.13,3.41-1.63,3.41-4.13S584.54,80.37,582.46,80.37Z"/><path class="cls-1" d="M601.9,84.47a5.91,5.91,0,1,1-5.9-6.12A5.83,5.83,0,0,1,601.9,84.47Zm-2.3,0c0-2.66-1.68-4.1-3.6-4.1s-3.6,1.44-3.6,4.1,1.68,4.13,3.6,4.13S599.59,87.16,599.59,84.47Z"/><path class="cls-1" d="M615.62,84.47a5.91,5.91,0,1,1-5.9-6.12A5.83,5.83,0,0,1,615.62,84.47Zm-2.3,0c0-2.66-1.68-4.1-3.6-4.1s-3.6,1.44-3.6,4.1,1.68,4.13,3.6,4.13S613.32,87.16,613.32,84.47Z"/><path class="cls-1" d="M618.5,90.26V72.88h2.26V90.26H618.5Z"/><path class="cls-1" d="M634.66,87a5.23,5.23,0,0,1-5.18,3.65c-3.1,0-5.81-2.26-5.81-6.17,0-3.62,2.62-6.1,5.52-6.1,3.55,0,5.54,2.45,5.54,6a5,5,0,0,1,0,.72H626a3.43,3.43,0,0,0,3.48,3.5,3.15,3.15,0,0,0,3.24-2.33Zm-2.28-3.67a2.91,2.91,0,0,0-3.17-3,3.1,3.1,0,0,0-3.14,3h6.31Z"/><path class="cls-1" d="M640.39,83.66l3.12-.46a0.84,0.84,0,0,0,.89-0.86c0-1.13-.74-2.06-2.5-2.06a2.45,2.45,0,0,0-2.62,2.33l-2.16-.5c0.24-2.21,2.23-3.74,4.73-3.74,3.46,0,4.8,2,4.8,4.22v5.78a10.84,10.84,0,0,0,.14,1.9h-2.21a8.44,8.44,0,0,1-.12-1.56,4.21,4.21,0,0,1-3.72,1.92,3.6,3.6,0,0,1-3.86-3.46C636.89,85.1,638.4,83.95,640.39,83.66Zm4,1.66V84.79l-3.53.53A1.72,1.72,0,0,0,639.19,87a1.75,1.75,0,0,0,1.87,1.68C642.91,88.72,644.4,87.83,644.4,85.32Z"/><path class="cls-1" d="M652.41,90.26h-2.26V78.71h2.21v1.66a4,4,0,0,1,3.55-2c2.76,0,4.13,2,4.13,4.56v7.32h-2.26V83.32c0-1.61-.67-2.9-2.69-2.9-1.78,0-2.69,1.42-2.69,3.17v6.67Z"/><path class="cls-1" d="M670.61,86.54a2.46,2.46,0,0,0,2.69,2.16,1.7,1.7,0,0,0,2-1.54,1.61,1.61,0,0,0-1.49-1.49l-2-.43A3.28,3.28,0,0,1,668.93,82a3.93,3.93,0,0,1,4.1-3.65c3.17,0,4.15,2.06,4.39,3.1l-2,.74a2.24,2.24,0,0,0-2.4-1.92,1.74,1.74,0,0,0-1.92,1.54,1.41,1.41,0,0,0,1.32,1.39l1.87,0.41c2.09,0.46,3.19,1.73,3.19,3.43s-1.37,3.58-4.22,3.58c-3.17,0-4.51-2-4.71-3.36Z"/><path class="cls-1" d="M683.52,78.71H686v2h-2.5v6a1.37,1.37,0,0,0,1.61,1.58,4.57,4.57,0,0,0,.89-0.1v1.92a4.92,4.92,0,0,1-1.54.22,3,3,0,0,1-3.22-3.29V80.75h-2.21v-2h0.62a1.61,1.61,0,0,0,1.78-1.78V75.07h2.06v3.65Z"/><path class="cls-1" d="M691.8,83.66l3.12-.46a0.84,0.84,0,0,0,.89-0.86c0-1.13-.74-2.06-2.5-2.06a2.45,2.45,0,0,0-2.62,2.33l-2.16-.5c0.24-2.21,2.23-3.74,4.73-3.74,3.46,0,4.8,2,4.8,4.22v5.78a10.84,10.84,0,0,0,.14,1.9H696a8.47,8.47,0,0,1-.12-1.56,4.21,4.21,0,0,1-3.72,1.92,3.6,3.6,0,0,1-3.86-3.46C688.29,85.1,689.8,83.95,691.8,83.66Zm4,1.66V84.79l-3.53.53A1.73,1.73,0,0,0,690.6,87a1.75,1.75,0,0,0,1.87,1.68C694.32,88.72,695.81,87.83,695.81,85.32Z"/><path class="cls-1" d="M704.59,78.71h2.5v2h-2.5v6a1.37,1.37,0,0,0,1.61,1.58,4.57,4.57,0,0,0,.89-0.1v1.92a4.92,4.92,0,0,1-1.54.22,3,3,0,0,1-3.22-3.29V80.75h-2.21v-2h0.62a1.61,1.61,0,0,0,1.78-1.78V75.07h2.06v3.65Z"/><path class="cls-1" d="M720,87a5.23,5.23,0,0,1-5.18,3.65c-3.1,0-5.81-2.26-5.81-6.17,0-3.62,2.62-6.1,5.52-6.1,3.55,0,5.54,2.45,5.54,6a5,5,0,0,1,0,.72h-8.69a3.43,3.43,0,0,0,3.48,3.5,3.15,3.15,0,0,0,3.24-2.33Zm-2.28-3.67a2.91,2.91,0,0,0-3.17-3,3.1,3.1,0,0,0-3.14,3h6.31Z"/><path class="cls-1" d="M723,90.26V78.71h2.16v1.54a4,4,0,0,1,3.5-1.87,3.61,3.61,0,0,1,3.46,2.18A4.14,4.14,0,0,1,736,78.38c2,0,4,1.37,4,4.39v7.49h-2.23V83a2.32,2.32,0,0,0-2.45-2.64,2.69,2.69,0,0,0-2.66,2.9v7h-2.26V83a2.32,2.32,0,0,0-2.45-2.64,2.68,2.68,0,0,0-2.69,2.93v7H723Z"/><path class="cls-1" d="M753.6,87a5.23,5.23,0,0,1-5.18,3.65c-3.1,0-5.81-2.26-5.81-6.17,0-3.62,2.62-6.1,5.52-6.1,3.55,0,5.54,2.45,5.54,6a5,5,0,0,1,0,.72h-8.69a3.43,3.43,0,0,0,3.48,3.5,3.15,3.15,0,0,0,3.24-2.33Zm-2.28-3.67a2.91,2.91,0,0,0-3.17-3,3.1,3.1,0,0,0-3.14,3h6.31Z"/><path class="cls-1" d="M758.8,90.26h-2.26V78.71h2.21v1.66a4,4,0,0,1,3.55-2c2.76,0,4.13,2,4.13,4.56v7.32h-2.26V83.32c0-1.61-.67-2.9-2.69-2.9-1.78,0-2.69,1.42-2.69,3.17v6.67Z"/><path class="cls-1" d="M773.06,78.71h2.5v2h-2.5v6a1.37,1.37,0,0,0,1.61,1.58,4.57,4.57,0,0,0,.89-0.1v1.92a4.92,4.92,0,0,1-1.54.22,3,3,0,0,1-3.22-3.29V80.75H768.6v-2h0.62A1.61,1.61,0,0,0,771,76.94V75.07h2.06v3.65Z"/><path class="cls-1" d="M779.63,86.54a2.46,2.46,0,0,0,2.69,2.16,1.7,1.7,0,0,0,2-1.54,1.61,1.61,0,0,0-1.49-1.49l-2-.43A3.28,3.28,0,0,1,778,82a3.93,3.93,0,0,1,4.1-3.65c3.17,0,4.15,2.06,4.39,3.1l-2,.74a2.24,2.24,0,0,0-2.4-1.92,1.74,1.74,0,0,0-1.92,1.54,1.41,1.41,0,0,0,1.32,1.39l1.87,0.41c2.09,0.46,3.19,1.73,3.19,3.43s-1.37,3.58-4.22,3.58c-3.17,0-4.51-2-4.71-3.36Z"/><path class="cls-1" d="M787.72,93.81V92h2.66V73.24h-2.66V71.42h4.63V93.81h-4.63Z"/><path class="cls-1" d="M365.64,128.85V106.46h4.63v1.82h-2.66v18.77h2.66v1.8h-4.63Z"/><path class="cls-1" d="M373.11,114.38a1.79,1.79,0,0,1-1.75-2c0-2.83,1.85-4.06,3.19-4.2v1.13a2.51,2.51,0,0,0-1.8,2.33,0.91,0.91,0,0,1,.48-0.12,1.39,1.39,0,0,1,1.44,1.46A1.49,1.49,0,0,1,373.11,114.38Z"/><path class="cls-1" d="M380.33,115.79v9.5H378v-9.5h-2.14v-2H378v-1.94a3.66,3.66,0,0,1,3.79-4,2.91,2.91,0,0,1,1.34.24v2a2.61,2.61,0,0,0-1-.14,1.73,1.73,0,0,0-1.82,2v1.82h2.78v2h-2.78Z"/><path class="cls-1" d="M388,118.7l3.12-.46a0.84,0.84,0,0,0,.89-0.86c0-1.13-.74-2.06-2.5-2.06a2.45,2.45,0,0,0-2.62,2.33l-2.16-.5c0.24-2.21,2.23-3.75,4.73-3.75,3.46,0,4.8,2,4.8,4.22v5.79a10.87,10.87,0,0,0,.14,1.9h-2.21a8.45,8.45,0,0,1-.12-1.56,4.21,4.21,0,0,1-3.72,1.92,3.6,3.6,0,0,1-3.86-3.46C384.46,120.14,386,119,388,118.7Zm4,1.66v-0.53l-3.53.53a1.73,1.73,0,0,0-1.68,1.73,1.75,1.75,0,0,0,1.87,1.68C390.48,123.76,392,122.88,392,120.35Z"/><path class="cls-1" d="M397.73,125.3V107.92H400V125.3h-2.26Z"/><path class="cls-1" d="M404.79,121.58a2.46,2.46,0,0,0,2.69,2.16,1.7,1.7,0,0,0,2-1.54,1.61,1.61,0,0,0-1.49-1.49l-2-.43a3.28,3.28,0,0,1-2.88-3.24,3.94,3.94,0,0,1,4.1-3.65c3.17,0,4.15,2.06,4.39,3.1l-2,.74a2.24,2.24,0,0,0-2.4-1.92,1.74,1.74,0,0,0-1.92,1.54,1.41,1.41,0,0,0,1.32,1.39l1.87,0.41c2.09,0.46,3.19,1.73,3.19,3.43s-1.37,3.58-4.22,3.58c-3.17,0-4.51-2-4.7-3.36Z"/><path class="cls-1" d="M424.61,122a5.23,5.23,0,0,1-5.18,3.65c-3.1,0-5.81-2.26-5.81-6.17,0-3.62,2.62-6.1,5.52-6.1,3.55,0,5.54,2.45,5.54,6a5.1,5.1,0,0,1,0,.72h-8.69a3.43,3.43,0,0,0,3.48,3.5,3.15,3.15,0,0,0,3.24-2.33Zm-2.28-3.67a2.91,2.91,0,0,0-3.17-3,3.11,3.11,0,0,0-3.14,3h6.31Z"/><path class="cls-1" d="M427.27,108.07a1.88,1.88,0,0,1,1.82,2.11c0,3-1.92,4.2-3.31,4.37v-1.15a2.55,2.55,0,0,0,1.85-2.42,0.9,0.9,0,0,1-.48.12,1.46,1.46,0,0,1-1.51-1.54A1.56,1.56,0,0,1,427.27,108.07Z"/><path class="cls-1" d="M439.08,107.75a1.62,1.62,0,1,1-1.61,1.63A1.62,1.62,0,0,1,439.08,107.75ZM438,125.3V113.75h2.23V125.3H438Z"/><path class="cls-1" d="M445,121.58a2.46,2.46,0,0,0,2.69,2.16,1.7,1.7,0,0,0,2-1.54,1.61,1.61,0,0,0-1.49-1.49l-2-.43a3.28,3.28,0,0,1-2.88-3.24,3.94,3.94,0,0,1,4.1-3.65c3.17,0,4.15,2.06,4.39,3.1l-2,.74a2.24,2.24,0,0,0-2.4-1.92,1.74,1.74,0,0,0-1.92,1.54,1.41,1.41,0,0,0,1.32,1.39l1.87,0.41c2.09,0.46,3.19,1.73,3.19,3.43s-1.37,3.58-4.22,3.58c-3.17,0-4.51-2-4.7-3.36Z"/><path class="cls-1" d="M463.68,118.7l3.12-.46a0.84,0.84,0,0,0,.89-0.86c0-1.13-.74-2.06-2.5-2.06a2.45,2.45,0,0,0-2.62,2.33l-2.16-.5c0.24-2.21,2.23-3.75,4.73-3.75,3.46,0,4.8,2,4.8,4.22v5.79a10.85,10.85,0,0,0,.14,1.9h-2.21a8.45,8.45,0,0,1-.12-1.56,4.21,4.21,0,0,1-3.72,1.92,3.6,3.6,0,0,1-3.86-3.46C460.18,120.14,461.69,119,463.68,118.7Zm4,1.66v-0.53l-3.53.53a1.73,1.73,0,0,0-1.68,1.73,1.75,1.75,0,0,0,1.87,1.68C466.2,123.76,467.69,122.88,467.69,120.35Z"/><path class="cls-1" d="M480.41,121.58a2.46,2.46,0,0,0,2.69,2.16,1.7,1.7,0,0,0,2-1.54,1.61,1.61,0,0,0-1.49-1.49l-2-.43a3.28,3.28,0,0,1-2.88-3.24,3.94,3.94,0,0,1,4.1-3.65c3.17,0,4.15,2.06,4.39,3.1l-2,.74a2.24,2.24,0,0,0-2.4-1.92,1.74,1.74,0,0,0-1.92,1.54,1.41,1.41,0,0,0,1.32,1.39l1.87,0.41c2.09,0.46,3.19,1.73,3.19,3.43s-1.37,3.58-4.22,3.58c-3.17,0-4.51-2-4.71-3.36Z"/><path class="cls-1" d="M493.32,113.75h2.5v2h-2.5v6a1.37,1.37,0,0,0,1.61,1.58,4.57,4.57,0,0,0,.89-0.1v1.92a4.93,4.93,0,0,1-1.54.22,3,3,0,0,1-3.22-3.29v-6.34h-2.21v-2h0.62a1.62,1.62,0,0,0,1.78-1.78v-1.87h2.06v3.65Z"/><path class="cls-1" d="M505,116a7.06,7.06,0,0,0-1-.07c-1.9,0-3.17,1-3.17,3.55v5.78h-2.26V113.75h2.21v2a3.61,3.61,0,0,1,3.46-2.21,4.33,4.33,0,0,1,.74.07V116Z"/><path class="cls-1" d="M508.49,107.75a1.62,1.62,0,1,1-1.61,1.63A1.62,1.62,0,0,1,508.49,107.75Zm-1.1,17.54V113.75h2.23V125.3h-2.23Z"/><path class="cls-1" d="M515.71,125.3h-2.26V113.75h2.21v1.66a4,4,0,0,1,3.55-2c2.76,0,4.13,2,4.13,4.56v7.32h-2.26v-6.94c0-1.61-.67-2.9-2.69-2.9-1.78,0-2.69,1.42-2.69,3.17v6.67Z"/><path class="cls-1" d="M528.29,125.42a3.07,3.07,0,0,0,3.14,2.83c2.42,0,3.53-1.25,3.53-3.74v-1.66a3.85,3.85,0,0,1-3.53,1.9,5.61,5.61,0,0,1,0-11.21,3.64,3.64,0,0,1,3.55,1.82v-1.61h2.23v10.68c0,2.93-1.44,5.79-5.78,5.79a5.05,5.05,0,0,1-5.33-4.3Zm6.77-6.26c0-2.23-1.34-3.7-3.29-3.7s-3.34,1.46-3.34,3.7,1.3,3.7,3.34,3.7S535.06,121.39,535.06,119.15Z"/><path class="cls-1" d="M549.6,118.7l3.12-.46a0.84,0.84,0,0,0,.89-0.86c0-1.13-.74-2.06-2.5-2.06a2.45,2.45,0,0,0-2.62,2.33l-2.16-.5c0.24-2.21,2.23-3.75,4.73-3.75,3.46,0,4.8,2,4.8,4.22v5.79a10.89,10.89,0,0,0,.14,1.9H553.8a8.45,8.45,0,0,1-.12-1.56,4.21,4.21,0,0,1-3.72,1.92,3.6,3.6,0,0,1-3.86-3.46C546.1,120.14,547.61,119,549.6,118.7Zm4,1.66v-0.53l-3.53.53a1.73,1.73,0,0,0-1.68,1.73,1.75,1.75,0,0,0,1.87,1.68C552.12,123.76,553.61,122.88,553.61,120.35Z"/><path class="cls-1" d="M561.62,125.3h-2.26V113.75h2.21v1.66a4,4,0,0,1,3.55-2c2.76,0,4.13,2,4.13,4.56v7.32H567v-6.94c0-1.61-.67-2.9-2.69-2.9-1.78,0-2.69,1.42-2.69,3.17v6.67Z"/><path class="cls-1" d="M580.94,123.55a3.86,3.86,0,0,1-3.58,2.06c-3.38,0-5.47-2.69-5.47-6.12,0-3.26,2.21-6,5.47-6a3.55,3.55,0,0,1,3.53,1.94v-7.46h2.23v15.24a18.14,18.14,0,0,0,.12,2.14h-2.18a9.68,9.68,0,0,1-.12-1.56v-0.19Zm-3.36.07c2.06,0,3.34-1.8,3.34-4.18s-1.25-4-3.31-4-3.41,1.68-3.41,4.06S575.42,123.62,577.58,123.62Z"/><path class="cls-1" d="M591.53,119.13l2.35-.53v1.61c0,2.26,1.22,3.26,2.93,3.26s2.79-1.13,2.79-3.1v-12.1h2.35v11.93c0,3-1.94,5.45-5.11,5.45-3.34,0-5.3-2.16-5.3-5.42v-1.1Z"/><path class="cls-1" d="M614.76,112.89a3.45,3.45,0,0,0-3.6-2.9,3,3,0,0,0-3.29,2.83,2.46,2.46,0,0,0,2.18,2.47l2.54,0.55c2.83,0.62,4.42,2.4,4.42,4.78,0,2.64-2.26,5-5.88,5-4.1,0-6-2.64-6.36-5.06l2.26-.72a3.87,3.87,0,0,0,4.08,3.65c2.35,0,3.5-1.22,3.5-2.71,0-1.22-.84-2.28-2.54-2.64l-2.42-.53c-2.42-.53-4.15-2.11-4.15-4.66a5.42,5.42,0,0,1,5.62-5.06c3.84,0,5.38,2.38,5.76,4.22Z"/><path class="cls-1" d="M634.85,113.75l3,8.69,2.54-8.69h2.38L639,125.3H636.7l-3.07-8.78-3,8.78h-2.38l-3.79-11.54h2.47l2.59,8.69,3-8.69h2.33Z"/><path class="cls-1" d="M646.15,107.75a1.62,1.62,0,1,1-1.61,1.63A1.62,1.62,0,0,1,646.15,107.75ZM645,125.3V113.75h2.23V125.3H645Z"/><path class="cls-1" d="M651.12,125.3V107.92h2.26V125.3h-2.26Z"/><path class="cls-1" d="M657.21,125.3V107.92h2.26V125.3h-2.26Z"/><path class="cls-1" d="M671.57,125.3h-2.26V113.75h2.21v1.66a4,4,0,0,1,3.55-2c2.76,0,4.13,2,4.13,4.56v7.32h-2.26v-6.94c0-1.61-.67-2.9-2.69-2.9-1.78,0-2.69,1.42-2.69,3.17v6.67Z"/><path class="cls-1" d="M693.65,119.51a5.91,5.91,0,1,1-5.91-6.12A5.83,5.83,0,0,1,693.65,119.51Zm-2.3,0c0-2.66-1.68-4.1-3.6-4.1s-3.6,1.44-3.6,4.1,1.68,4.13,3.6,4.13S691.34,122.2,691.34,119.51Z"/><path class="cls-1" d="M699.43,113.75h2.5v2h-2.5v6a1.37,1.37,0,0,0,1.61,1.58,4.57,4.57,0,0,0,.89-0.1v1.92a4.93,4.93,0,0,1-1.54.22,3,3,0,0,1-3.22-3.29v-6.34H695v-2h0.62a1.61,1.61,0,0,0,1.78-1.78v-1.87h2.06v3.65Z"/><path class="cls-1" d="M721,122a5.23,5.23,0,0,1-5.18,3.65c-3.1,0-5.81-2.26-5.81-6.17,0-3.62,2.62-6.1,5.52-6.1,3.55,0,5.54,2.45,5.54,6a5,5,0,0,1,0,.72h-8.69a3.43,3.43,0,0,0,3.48,3.5,3.15,3.15,0,0,0,3.24-2.33Zm-2.28-3.67a2.91,2.91,0,0,0-3.17-3,3.11,3.11,0,0,0-3.14,3h6.31Z"/><path class="cls-1" d="M729,125.3h-2.28L722,113.75h2.54l3.29,8.91,3.31-8.91h2.42Z"/><path class="cls-1" d="M738.41,118.7l3.12-.46a0.84,0.84,0,0,0,.89-0.86c0-1.13-.74-2.06-2.5-2.06a2.45,2.45,0,0,0-2.62,2.33l-2.16-.5c0.24-2.21,2.23-3.75,4.73-3.75,3.46,0,4.8,2,4.8,4.22v5.79a10.85,10.85,0,0,0,.14,1.9h-2.21a8.48,8.48,0,0,1-.12-1.56,4.21,4.21,0,0,1-3.72,1.92,3.6,3.6,0,0,1-3.86-3.46C734.9,120.14,736.41,119,738.41,118.7Zm4,1.66v-0.53l-3.53.53a1.73,1.73,0,0,0-1.68,1.73,1.75,1.75,0,0,0,1.87,1.68C740.93,123.76,742.42,122.88,742.42,120.35Z"/><path class="cls-1" d="M748.17,125.3V107.92h2.26V125.3h-2.26Z"/><path class="cls-1" d="M758.35,125.66c-2.69,0-4.32-2-4.32-4.63v-7.27h2.26v6.94c0,1.58.72,3,2.62,3s2.74-1.2,2.74-3v-7h2.26v9.41a19.45,19.45,0,0,0,.12,2.14h-2.16a10.25,10.25,0,0,1-.1-1.39A3.77,3.77,0,0,1,758.35,125.66Z"/><path class="cls-1" d="M770.52,118.7l3.12-.46a0.84,0.84,0,0,0,.89-0.86c0-1.13-.74-2.06-2.5-2.06a2.45,2.45,0,0,0-2.62,2.33l-2.16-.5c0.24-2.21,2.23-3.75,4.73-3.75,3.46,0,4.8,2,4.8,4.22v5.79a10.85,10.85,0,0,0,.14,1.9h-2.21a8.48,8.48,0,0,1-.12-1.56,4.21,4.21,0,0,1-3.72,1.92A3.6,3.6,0,0,1,767,122.2C767,120.14,768.53,119,770.52,118.7Zm4,1.66v-0.53l-3.53.53a1.73,1.73,0,0,0-1.68,1.73,1.75,1.75,0,0,0,1.87,1.68C773,123.76,774.53,122.88,774.53,120.35Z"/><path class="cls-1" d="M783.31,113.75h2.5v2h-2.5v6a1.37,1.37,0,0,0,1.61,1.58,4.57,4.57,0,0,0,.89-0.1v1.92a4.93,4.93,0,0,1-1.54.22,3,3,0,0,1-3.22-3.29v-6.34h-2.21v-2h0.62a1.61,1.61,0,0,0,1.78-1.78v-1.87h2.06v3.65Z"/><path class="cls-1" d="M798.74,122a5.23,5.23,0,0,1-5.18,3.65c-3.1,0-5.81-2.26-5.81-6.17,0-3.62,2.62-6.1,5.52-6.1,3.55,0,5.54,2.45,5.54,6a5,5,0,0,1,0,.72h-8.69a3.43,3.43,0,0,0,3.48,3.5,3.15,3.15,0,0,0,3.24-2.33Zm-2.28-3.67a2.91,2.91,0,0,0-3.17-3,3.11,3.11,0,0,0-3.14,3h6.31Z"/><path class="cls-1" d="M366.36,150.38a2.46,2.46,0,0,0,2.69,2.16,1.7,1.7,0,0,0,2-1.54,1.61,1.61,0,0,0-1.49-1.49l-2-.43a3.28,3.28,0,0,1-2.88-3.24,3.94,3.94,0,0,1,4.1-3.65c3.17,0,4.15,2.06,4.39,3.1l-2,.74a2.24,2.24,0,0,0-2.4-1.92,1.74,1.74,0,0,0-1.92,1.54,1.41,1.41,0,0,0,1.32,1.39l1.87,0.41c2.09,0.46,3.19,1.73,3.19,3.43s-1.37,3.58-4.22,3.58c-3.17,0-4.51-2-4.7-3.36Z"/><path class="cls-1" d="M379.27,142.55h2.5v2h-2.5v6a1.37,1.37,0,0,0,1.61,1.58,4.57,4.57,0,0,0,.89-0.1V154a4.93,4.93,0,0,1-1.54.22,3,3,0,0,1-3.22-3.29v-6.34h-2.21v-2h0.62a1.62,1.62,0,0,0,1.78-1.78v-1.87h2.06v3.65Z"/><path class="cls-1" d="M390.94,144.83a7.06,7.06,0,0,0-1-.07c-1.9,0-3.17,1-3.17,3.55v5.78h-2.26V142.55h2.21v2a3.61,3.61,0,0,1,3.46-2.21,4.32,4.32,0,0,1,.74.07v2.4Z"/><path class="cls-1" d="M394.44,136.55a1.62,1.62,0,1,1-1.61,1.63A1.62,1.62,0,0,1,394.44,136.55Zm-1.1,17.54V142.55h2.23V154.1h-2.23Z"/><path class="cls-1" d="M401.67,154.1h-2.26V142.55h2.21v1.66a4,4,0,0,1,3.55-2c2.76,0,4.13,2,4.13,4.56v7.32H407v-6.94c0-1.61-.67-2.9-2.69-2.9-1.78,0-2.69,1.42-2.69,3.17v6.67Z"/><path class="cls-1" d="M414.24,154.22a3.07,3.07,0,0,0,3.14,2.83c2.42,0,3.53-1.25,3.53-3.74v-1.66a3.84,3.84,0,0,1-3.53,1.9,5.61,5.61,0,0,1,0-11.21,3.64,3.64,0,0,1,3.55,1.82v-1.61h2.23v10.68c0,2.93-1.44,5.79-5.78,5.79a5.05,5.05,0,0,1-5.33-4.3ZM421,148c0-2.23-1.34-3.7-3.29-3.7s-3.34,1.46-3.34,3.7,1.3,3.7,3.34,3.7S421,150.19,421,148Z"/><path class="cls-1" d="M427.73,150.38a2.46,2.46,0,0,0,2.69,2.16,1.7,1.7,0,0,0,2-1.54,1.61,1.61,0,0,0-1.49-1.49l-2-.43a3.28,3.28,0,0,1-2.88-3.24,3.94,3.94,0,0,1,4.1-3.65c3.17,0,4.15,2.06,4.39,3.1l-2,.74a2.24,2.24,0,0,0-2.4-1.92,1.74,1.74,0,0,0-1.92,1.54,1.41,1.41,0,0,0,1.32,1.39l1.87,0.41c2.09,0.46,3.19,1.73,3.19,3.43s-1.37,3.58-4.22,3.58c-3.17,0-4.51-2-4.7-3.36Z"/><path class="cls-1" d="M446.64,142.55h2.5v2h-2.5v6a1.37,1.37,0,0,0,1.61,1.58,4.57,4.57,0,0,0,.89-0.1V154a4.93,4.93,0,0,1-1.54.22,3,3,0,0,1-3.22-3.29v-6.34h-2.21v-2h0.62a1.62,1.62,0,0,0,1.78-1.78v-1.87h2.06v3.65Z"/><path class="cls-1" d="M454.39,154.1h-2.26V136.72h2.26v7.18a4.08,4.08,0,0,1,3.5-1.68c2.76,0,4.13,2,4.13,4.56v7.32h-2.26v-6.94c0-1.61-.67-2.9-2.69-2.9-1.73,0-2.64,1.34-2.69,3v6.79Z"/><path class="cls-1" d="M468.41,147.5l3.12-.46a0.84,0.84,0,0,0,.89-0.86c0-1.13-.74-2.06-2.5-2.06a2.45,2.45,0,0,0-2.62,2.33l-2.16-.5c0.24-2.21,2.23-3.75,4.73-3.75,3.46,0,4.8,2,4.8,4.22v5.79a10.89,10.89,0,0,0,.14,1.9h-2.21a8.45,8.45,0,0,1-.12-1.56,4.21,4.21,0,0,1-3.72,1.92A3.6,3.6,0,0,1,464.9,151C464.9,148.94,466.42,147.79,468.41,147.5Zm4,1.66v-0.53l-3.53.53a1.73,1.73,0,0,0-1.68,1.73,1.75,1.75,0,0,0,1.87,1.68C470.93,152.56,472.42,151.67,472.42,149.15Z"/><path class="cls-1" d="M481.2,142.55h2.5v2h-2.5v6a1.37,1.37,0,0,0,1.61,1.58,4.58,4.58,0,0,0,.89-0.1V154a4.94,4.94,0,0,1-1.54.22,3,3,0,0,1-3.22-3.29v-6.34h-2.21v-2h0.62a1.62,1.62,0,0,0,1.78-1.78v-1.87h2.06v3.65Z"/><path class="cls-1" d="M495,154.1H492.7V136.72H495v7.18a4.08,4.08,0,0,1,3.5-1.68c2.76,0,4.13,2,4.13,4.56v7.32h-2.26v-6.94c0-1.61-.67-2.9-2.69-2.9-1.73,0-2.64,1.34-2.69,3v6.79Z"/><path class="cls-1" d="M509,147.5l3.12-.46a0.84,0.84,0,0,0,.89-0.86c0-1.13-.74-2.06-2.5-2.06a2.45,2.45,0,0,0-2.62,2.33l-2.16-.5c0.24-2.21,2.23-3.75,4.73-3.75,3.46,0,4.8,2,4.8,4.22v5.79a10.89,10.89,0,0,0,.14,1.9h-2.21a8.45,8.45,0,0,1-.12-1.56,4.21,4.21,0,0,1-3.72,1.92,3.6,3.6,0,0,1-3.86-3.46C505.46,148.94,507,147.79,509,147.5Zm4,1.66v-0.53l-3.53.53a1.73,1.73,0,0,0-1.68,1.73,1.75,1.75,0,0,0,1.87,1.68C511.49,152.56,513,151.67,513,149.15Z"/><path class="cls-1" d="M519.7,150.38a2.46,2.46,0,0,0,2.69,2.16,1.7,1.7,0,0,0,2-1.54,1.6,1.6,0,0,0-1.49-1.49l-2-.43a3.28,3.28,0,0,1-2.88-3.24,3.94,3.94,0,0,1,4.1-3.65c3.17,0,4.15,2.06,4.39,3.1l-2,.74a2.24,2.24,0,0,0-2.4-1.92,1.74,1.74,0,0,0-1.92,1.54,1.41,1.41,0,0,0,1.32,1.39l1.87,0.41c2.09,0.46,3.19,1.73,3.19,3.43s-1.37,3.58-4.22,3.58c-3.17,0-4.51-2-4.7-3.36Z"/><path class="cls-1" d="M538.61,142.55h2.5v2h-2.5v6a1.37,1.37,0,0,0,1.61,1.58,4.58,4.58,0,0,0,.89-0.1V154a4.94,4.94,0,0,1-1.54.22,3,3,0,0,1-3.22-3.29v-6.34h-2.21v-2h0.62a1.62,1.62,0,0,0,1.78-1.78v-1.87h2.06v3.65Z"/><path class="cls-1" d="M546.36,154.1H544.1V136.72h2.26v7.18a4.08,4.08,0,0,1,3.5-1.68c2.76,0,4.13,2,4.13,4.56v7.32h-2.26v-6.94c0-1.61-.67-2.9-2.69-2.9-1.73,0-2.64,1.34-2.69,3v6.79Z"/><path class="cls-1" d="M567.65,150.81a5.23,5.23,0,0,1-5.18,3.65c-3.1,0-5.81-2.26-5.81-6.17,0-3.62,2.62-6.1,5.52-6.1,3.55,0,5.54,2.45,5.54,6a5.18,5.18,0,0,1,0,.72H559a3.43,3.43,0,0,0,3.48,3.5,3.15,3.15,0,0,0,3.24-2.33Zm-2.28-3.67a2.91,2.91,0,0,0-3.17-3,3.11,3.11,0,0,0-3.14,3h6.31Z"/><path class="cls-1" d="M585.43,142.55l3,8.69,2.54-8.69h2.38l-3.75,11.54h-2.33l-3.07-8.78-3,8.78h-2.38L575,142.55h2.47l2.59,8.69,3-8.69h2.33Z"/><path class="cls-1" d="M606.24,148.31a5.91,5.91,0,1,1-5.9-6.12A5.83,5.83,0,0,1,606.24,148.31Zm-2.3,0c0-2.66-1.68-4.1-3.6-4.1s-3.6,1.44-3.6,4.1,1.68,4.13,3.6,4.13S603.94,151,603.94,148.31Z"/><path class="cls-1" d="M615.53,144.83a7.06,7.06,0,0,0-1-.07c-1.9,0-3.17,1-3.17,3.55v5.78h-2.26V142.55h2.21v2a3.61,3.61,0,0,1,3.46-2.21,4.33,4.33,0,0,1,.74.07v2.4Z"/><path class="cls-1" d="M625.9,152.35a3.86,3.86,0,0,1-3.58,2.06c-3.38,0-5.47-2.69-5.47-6.12,0-3.26,2.21-6,5.47-6a3.55,3.55,0,0,1,3.53,1.94v-7.46h2.23V152a18.14,18.14,0,0,0,.12,2.14H626a9.68,9.68,0,0,1-.12-1.56v-0.19Zm-3.36.07c2.06,0,3.34-1.8,3.34-4.18s-1.25-4-3.31-4-3.41,1.68-3.41,4.06S620.38,152.42,622.54,152.42Z"/><path class="cls-1" d="M632.88,150.38a2.46,2.46,0,0,0,2.69,2.16,1.7,1.7,0,0,0,2-1.54,1.6,1.6,0,0,0-1.49-1.49l-2-.43a3.28,3.28,0,0,1-2.88-3.24,3.94,3.94,0,0,1,4.1-3.65c3.17,0,4.15,2.06,4.39,3.1l-2,.74a2.24,2.24,0,0,0-2.4-1.92,1.74,1.74,0,0,0-1.92,1.54A1.41,1.41,0,0,0,634.7,147l1.87,0.41c2.09,0.46,3.19,1.73,3.19,3.43s-1.37,3.58-4.22,3.58c-3.17,0-4.51-2-4.7-3.36Z"/><path class="cls-1" d="M651.79,144.59v9.5h-2.33v-9.5h-2.14v-2h2.14v-1.94a3.66,3.66,0,0,1,3.79-4,2.91,2.91,0,0,1,1.34.24v2a2.61,2.61,0,0,0-1-.14,1.73,1.73,0,0,0-1.82,2v1.82h2.78v2h-2.78Z"/><path class="cls-1" d="M659.42,147.5l3.12-.46a0.84,0.84,0,0,0,.89-0.86c0-1.13-.74-2.06-2.5-2.06a2.45,2.45,0,0,0-2.62,2.33l-2.16-.5c0.24-2.21,2.23-3.75,4.73-3.75,3.46,0,4.8,2,4.8,4.22v5.79a10.89,10.89,0,0,0,.14,1.9h-2.21a8.45,8.45,0,0,1-.12-1.56,4.21,4.21,0,0,1-3.72,1.92,3.6,3.6,0,0,1-3.86-3.46C655.92,148.94,657.43,147.79,659.42,147.5Zm4,1.66v-0.53l-3.53.53a1.73,1.73,0,0,0-1.68,1.73,1.75,1.75,0,0,0,1.87,1.68C661.94,152.56,663.43,151.67,663.43,149.15Z"/><path class="cls-1" d="M669.19,154.1V136.72h2.26V154.1h-2.26Z"/><path class="cls-1" d="M676.25,150.38a2.46,2.46,0,0,0,2.69,2.16,1.7,1.7,0,0,0,2-1.54,1.61,1.61,0,0,0-1.49-1.49l-2-.43a3.28,3.28,0,0,1-2.88-3.24,3.94,3.94,0,0,1,4.1-3.65c3.17,0,4.15,2.06,4.39,3.1l-2,.74a2.24,2.24,0,0,0-2.4-1.92,1.74,1.74,0,0,0-1.92,1.54,1.41,1.41,0,0,0,1.32,1.39l1.87,0.41c2.09,0.46,3.19,1.73,3.19,3.43s-1.37,3.58-4.22,3.58c-3.17,0-4.51-2-4.71-3.36Z"/><path class="cls-1" d="M696.07,150.81a5.23,5.23,0,0,1-5.18,3.65c-3.1,0-5.81-2.26-5.81-6.17,0-3.62,2.62-6.1,5.52-6.1,3.55,0,5.54,2.45,5.54,6a5,5,0,0,1,0,.72h-8.69a3.43,3.43,0,0,0,3.48,3.5,3.15,3.15,0,0,0,3.24-2.33Zm-2.28-3.67a2.91,2.91,0,0,0-3.17-3,3.11,3.11,0,0,0-3.14,3h6.31Z"/><path class="cls-1" d="M707.81,147.5l3.12-.46a0.84,0.84,0,0,0,.89-0.86c0-1.13-.74-2.06-2.5-2.06a2.45,2.45,0,0,0-2.62,2.33l-2.16-.5c0.24-2.21,2.23-3.75,4.73-3.75,3.46,0,4.8,2,4.8,4.22v5.79a10.85,10.85,0,0,0,.14,1.9H712a8.48,8.48,0,0,1-.12-1.56,4.21,4.21,0,0,1-3.72,1.92A3.6,3.6,0,0,1,704.3,151C704.3,148.94,705.81,147.79,707.81,147.5Zm4,1.66v-0.53l-3.53.53a1.73,1.73,0,0,0-1.68,1.73,1.75,1.75,0,0,0,1.87,1.68C710.33,152.56,711.81,151.67,711.81,149.15Z"/><path class="cls-1" d="M718.53,150.38a2.46,2.46,0,0,0,2.69,2.16,1.7,1.7,0,0,0,2-1.54,1.61,1.61,0,0,0-1.49-1.49l-2-.43a3.28,3.28,0,0,1-2.88-3.24,3.94,3.94,0,0,1,4.1-3.65c3.17,0,4.15,2.06,4.39,3.1l-2,.74a2.24,2.24,0,0,0-2.4-1.92,1.74,1.74,0,0,0-1.92,1.54,1.41,1.41,0,0,0,1.32,1.39l1.87,0.41c2.09,0.46,3.19,1.73,3.19,3.43s-1.37,3.58-4.22,3.58c-3.17,0-4.51-2-4.71-3.36Z"/><path class="cls-1" d="M737.45,144.59v9.5h-2.33v-9.5H733v-2h2.14v-1.94a3.66,3.66,0,0,1,3.79-4,2.91,2.91,0,0,1,1.34.24v2a2.61,2.61,0,0,0-1-.14,1.73,1.73,0,0,0-1.82,2v1.82h2.78v2h-2.78Z"/><path class="cls-1" d="M745.08,147.5l3.12-.46a0.84,0.84,0,0,0,.89-0.86c0-1.13-.74-2.06-2.5-2.06a2.45,2.45,0,0,0-2.62,2.33l-2.16-.5c0.24-2.21,2.23-3.75,4.73-3.75,3.46,0,4.8,2,4.8,4.22v5.79a10.85,10.85,0,0,0,.14,1.9h-2.21a8.48,8.48,0,0,1-.12-1.56,4.21,4.21,0,0,1-3.72,1.92,3.6,3.6,0,0,1-3.86-3.46C741.57,148.94,743.08,147.79,745.08,147.5Zm4,1.66v-0.53l-3.53.53a1.73,1.73,0,0,0-1.68,1.73,1.75,1.75,0,0,0,1.87,1.68C747.6,152.56,749.08,151.67,749.08,149.15Z"/><path class="cls-1" d="M754.84,154.1V136.72h2.26V154.1h-2.26Z"/><path class="cls-1" d="M761.9,150.38a2.46,2.46,0,0,0,2.69,2.16,1.7,1.7,0,0,0,2-1.54,1.61,1.61,0,0,0-1.49-1.49l-2-.43a3.28,3.28,0,0,1-2.88-3.24,3.94,3.94,0,0,1,4.1-3.65c3.17,0,4.15,2.06,4.39,3.1l-2,.74a2.24,2.24,0,0,0-2.4-1.92,1.74,1.74,0,0,0-1.92,1.54,1.41,1.41,0,0,0,1.32,1.39l1.87,0.41c2.09,0.46,3.19,1.73,3.19,3.43s-1.37,3.58-4.22,3.58c-3.17,0-4.51-2-4.71-3.36Z"/><path class="cls-1" d="M781.72,150.81a5.23,5.23,0,0,1-5.18,3.65c-3.1,0-5.81-2.26-5.81-6.17,0-3.62,2.62-6.1,5.52-6.1,3.55,0,5.54,2.45,5.54,6a5,5,0,0,1,0,.72h-8.69a3.43,3.43,0,0,0,3.48,3.5,3.15,3.15,0,0,0,3.24-2.33Zm-2.28-3.67a2.91,2.91,0,0,0-3.17-3,3.11,3.11,0,0,0-3.14,3h6.31Z"/><path class="cls-1" d="M782.64,157.65v-1.8h2.66V137.08h-2.66v-1.82h4.63v22.39h-4.63Z"/><path class="cls-2" d="M11.83,4.42A18.62,18.62,0,0,0,5.59,17.23H2.16A19.21,19.21,0,0,1,8,4.51H0V1.66H11.83V4.42Z"/><path class="cls-2" d="M19.3,9V6.48H30.94V9H19.3Zm0,4.78V11.23H30.94v2.59H19.3Z"/><path class="cls-2" d="M33.77,9V6.48H45.41V9H33.77Zm0,4.78V11.23H45.41v2.59H33.77Z"/><path class="cls-2" d="M48.24,9V6.48H59.88V9H48.24Zm0,4.78V11.23H59.88v2.59H48.24Z"/><path class="cls-2" d="M79.18,4.42a18.62,18.62,0,0,0-6.24,12.82H69.5A19.21,19.21,0,0,1,75.36,4.51h-8V1.66H79.18V4.42Z"/><path class="cls-2" d="M94,17.45H91.15L99.65,0h2.9Z"/><path class="cls-2" d="M104.09,17.45h-2.88L109.7,0h2.9Z"/><path class="cls-2" d="M118.1,5.42h2.38V8.26H118.1V13.2a1.18,1.18,0,0,0,1.39,1.37,4.63,4.63,0,0,0,1-.1v2.64a4.73,4.73,0,0,1-1.8.29,3.42,3.42,0,0,1-3.74-3.65V8.26H112.8V5.42h0.6a1.7,1.7,0,0,0,1.82-1.87V1.9h2.88V5.42Z"/><path class="cls-2" d="M130.22,8.59a4.79,4.79,0,0,0-1-.1c-1.63,0-3,.79-3,3.34v5.4H123V5.42h3.1V7.18a3.51,3.51,0,0,1,3.36-1.85,7.44,7.44,0,0,1,.74,0V8.59Z"/><path class="cls-2" d="M140.09,16a3.73,3.73,0,0,1-3.26,1.58,4.35,4.35,0,0,1-4.49-4.66V5.42h3.19v6.82a2.1,2.1,0,0,0,2.16,2.38,2.13,2.13,0,0,0,2.23-2.33V5.42h3.19V15.1a19.47,19.47,0,0,0,.12,2.14h-3A8.11,8.11,0,0,1,140.09,16Z"/><path class="cls-2" d="M157.05,13.85a5.32,5.32,0,0,1-5.38,3.74,6,6,0,0,1-6.1-6.31,5.93,5.93,0,0,1,5.81-6.22c3.65,0,5.83,2.33,5.83,6.12,0,0.46,0,.94,0,1h-8.45a2.88,2.88,0,0,0,3,2.69,2.61,2.61,0,0,0,2.69-1.8Zm-3-3.86a2.38,2.38,0,0,0-2.64-2.33A2.56,2.56,0,0,0,148.8,10h5.28Z"/><path class="cls-2" d="M11.83,40.39A18.61,18.61,0,0,0,5.59,53.2H2.16A19.21,19.21,0,0,1,8,40.48H0V37.63H11.83v2.76Z"/><path class="cls-2" d="M19.3,45V42.45H30.94V45H19.3Zm0,4.78V47.2H30.94v2.59H19.3Z"/><path class="cls-2" d="M33.77,45V42.45H45.41V45H33.77Zm0,4.78V47.2H45.41v2.59H33.77Z"/><path class="cls-2" d="M48.24,45V42.45H59.88V45H48.24Zm0,4.78V47.2H59.88v2.59H48.24Z"/><path class="cls-2" d="M70.13,42.76A2.13,2.13,0,0,1,68,40.46,4.08,4.08,0,0,1,71.76,36v1.46a2.27,2.27,0,0,0-2,2,1,1,0,0,1,.5-0.12A1.55,1.55,0,0,1,72,41,1.78,1.78,0,0,1,70.13,42.76Zm4.73,0a2.13,2.13,0,0,1-2.09-2.3A4.08,4.08,0,0,1,76.49,36v1.46a2.27,2.27,0,0,0-2,2,1,1,0,0,1,.5-0.12A1.55,1.55,0,0,1,76.73,41,1.78,1.78,0,0,1,74.86,42.76Z"/><path class="cls-2" d="M90.12,40.39A18.61,18.61,0,0,0,83.88,53.2H80.45A19.21,19.21,0,0,1,86.3,40.48h-8V37.63H90.12v2.76Z"/><path class="cls-2" d="M93.6,36a2.15,2.15,0,0,1,2.09,2.33A4.18,4.18,0,0,1,92,42.88V41.42a2.32,2.32,0,0,0,2-2,1,1,0,0,1-.5.12,1.64,1.64,0,0,1-1.75-1.73A1.82,1.82,0,0,1,93.6,36Zm4.7,0a2.15,2.15,0,0,1,2.09,2.33,4.18,4.18,0,0,1-3.72,4.54V41.42a2.32,2.32,0,0,0,2-2,1,1,0,0,1-.5.12,1.64,1.64,0,0,1-1.75-1.73A1.82,1.82,0,0,1,98.3,36Z"/><path class="cls-2" d="M115.89,53.42H113L121.51,36h2.9Z"/><path class="cls-2" d="M125.95,53.42h-2.88L131.57,36h2.9Z"/><path class="cls-2" d="M139.53,40.1v1.3h2.66v2.74h-2.66V53.2h-3.22V44.13h-2V41.39h2V40a4.07,4.07,0,0,1,4.3-4.39,4.66,4.66,0,0,1,1.58.24v2.69a3.57,3.57,0,0,0-1-.12A1.5,1.5,0,0,0,139.53,40.1Z"/><path class="cls-2" d="M146.93,46.41l2.9-.43a0.84,0.84,0,0,0,.89-0.84c0-.84-0.65-1.54-2-1.54a2.1,2.1,0,0,0-2.26,1.92l-2.83-.6c0.19-1.85,1.9-3.89,5.06-3.89,3.74,0,5.14,2.11,5.14,4.49v5.81A13.26,13.26,0,0,0,154,53.2h-2.93a8,8,0,0,1-.12-1.42,3.94,3.94,0,0,1-3.48,1.75c-2.52,0-4.06-1.7-4.06-3.55C143.4,47.88,145,46.7,146.93,46.41Zm3.79,2V47.9l-2.66.41a1.49,1.49,0,0,0-1.46,1.49,1.39,1.39,0,0,0,1.54,1.37A2.4,2.4,0,0,0,150.72,48.43Z"/><path class="cls-2" d="M157.05,53.2V35.83h3.19V53.2h-3.19Z"/><path class="cls-2" d="M165.38,49.32a2,2,0,0,0,2.16,1.8,1.31,1.31,0,0,0,1.56-1.18,1.27,1.27,0,0,0-1.27-1.15l-1.56-.36C164,47.92,163,46.55,163,44.9c0-2.11,1.87-3.86,4.42-3.86,3.36,0,4.49,2.14,4.63,3.41l-2.66.6a1.8,1.8,0,0,0-1.94-1.58,1.36,1.36,0,0,0-1.51,1.18A1.12,1.12,0,0,0,167,45.69l1.68,0.36c2.33,0.48,3.5,1.9,3.5,3.62,0,1.92-1.49,3.89-4.58,3.89-3.55,0-4.78-2.3-4.92-3.65Z"/><path class="cls-2" d="M185.25,49.82a5.32,5.32,0,0,1-5.38,3.74,6,6,0,0,1-6.1-6.31A5.93,5.93,0,0,1,179.59,41c3.65,0,5.83,2.33,5.83,6.12,0,0.46,0,.94,0,1h-8.45a2.88,2.88,0,0,0,3,2.69,2.61,2.61,0,0,0,2.69-1.8Zm-3-3.86a2.38,2.38,0,0,0-2.64-2.33A2.56,2.56,0,0,0,177,46h5.28Z"/><path class="cls-2" d="M2.23,75.85a5.89,5.89,0,0,1,5.14-2.62,5.81,5.81,0,0,1,5.11,2.62,10,10,0,0,1,1.39,5.54,10,10,0,0,1-1.39,5.54,5.81,5.81,0,0,1-5.11,2.62,5.89,5.89,0,0,1-5.14-2.62A9.93,9.93,0,0,1,.86,81.4,9.94,9.94,0,0,1,2.23,75.85ZM5,85.36a2.6,2.6,0,0,0,2.35,1.27A2.53,2.53,0,0,0,9.7,85.36a7.29,7.29,0,0,0,.86-4,7.29,7.29,0,0,0-.86-4,2.53,2.53,0,0,0-2.33-1.27A2.6,2.6,0,0,0,5,77.44a7.53,7.53,0,0,0-.84,4A7.53,7.53,0,0,0,5,85.36Z"/><path class="cls-2" d="M22.2,81V78.42H33.84V81H22.2Zm0,4.78V83.17H33.84v2.59H22.2Z"/><path class="cls-2" d="M36.67,81V78.42H48.31V81H36.67Zm0,4.78V83.17H48.31v2.59H36.67Z"/><path class="cls-2" d="M51.14,81V78.42H62.78V81H51.14Zm0,4.78V83.17H62.78v2.59H51.14Z"/><path class="cls-2" d="M75.65,76.07v1.3h2.66V80.1H75.65v9.07H72.43V80.1h-2V77.37h2V76a4.07,4.07,0,0,1,4.3-4.39,4.66,4.66,0,0,1,1.58.24v2.69a3.57,3.57,0,0,0-1-.12A1.5,1.5,0,0,0,75.65,76.07Z"/><path class="cls-2" d="M83,82.38l2.9-.43a0.84,0.84,0,0,0,.89-0.84c0-.84-0.65-1.54-2-1.54a2.1,2.1,0,0,0-2.26,1.92l-2.83-.6C79.94,79,81.65,77,84.81,77,88.56,77,90,79.12,90,81.49V87.3a13.26,13.26,0,0,0,.14,1.87H87.17A8,8,0,0,1,87,87.76a3.94,3.94,0,0,1-3.48,1.75c-2.52,0-4.06-1.7-4.06-3.55C79.51,83.85,81.07,82.67,83,82.38Zm3.79,2V83.87l-2.66.41a1.49,1.49,0,0,0-1.46,1.49,1.39,1.39,0,0,0,1.54,1.37A2.4,2.4,0,0,0,86.83,84.4Z"/><path class="cls-2" d="M93.17,89.17V71.8h3.19V89.17H93.17Z"/><path class="cls-2" d="M101.49,85.29a2,2,0,0,0,2.16,1.8,1.31,1.31,0,0,0,1.56-1.18,1.27,1.27,0,0,0-1.27-1.15l-1.56-.36c-2.28-.5-3.31-1.87-3.31-3.53,0-2.11,1.87-3.86,4.42-3.86,3.36,0,4.49,2.14,4.63,3.41l-2.66.6a1.8,1.8,0,0,0-1.94-1.58A1.36,1.36,0,0,0,102,80.61a1.12,1.12,0,0,0,1.08,1.06L104.76,82c2.33,0.48,3.5,1.9,3.5,3.62,0,1.92-1.49,3.89-4.58,3.89-3.55,0-4.78-2.3-4.92-3.65Z"/><path class="cls-2" d="M121.37,85.79A5.32,5.32,0,0,1,116,89.53,6.27,6.27,0,0,1,115.7,77c3.65,0,5.83,2.33,5.83,6.12,0,0.46,0,.94,0,1H113a2.88,2.88,0,0,0,3,2.69A2.61,2.61,0,0,0,118.7,85Zm-3-3.86a2.38,2.38,0,0,0-2.64-2.33,2.56,2.56,0,0,0-2.64,2.33h5.28Z"/><path class="cls-2" d="M137.08,89.39H134.2l8.5-17.45h2.9Z"/><path class="cls-2" d="M147.14,89.39h-2.88l8.5-17.45h2.9Z"/><path class="cls-2" d="M160.73,76.07v1.3h2.66V80.1h-2.66v9.07h-3.22V80.1h-2V77.37h2V76a4.07,4.07,0,0,1,4.3-4.39,4.66,4.66,0,0,1,1.58.24v2.69a3.57,3.57,0,0,0-1-.12A1.5,1.5,0,0,0,160.73,76.07Z"/><path class="cls-2" d="M168.12,82.38l2.9-.43a0.84,0.84,0,0,0,.89-0.84c0-.84-0.65-1.54-2-1.54a2.1,2.1,0,0,0-2.26,1.92l-2.83-.6C165,79,166.72,77,169.89,77c3.74,0,5.14,2.11,5.14,4.49V87.3a13.26,13.26,0,0,0,.14,1.87h-2.93a8,8,0,0,1-.12-1.42,3.94,3.94,0,0,1-3.48,1.75c-2.52,0-4.06-1.7-4.06-3.55C164.59,83.85,166.15,82.67,168.12,82.38Zm3.79,2V83.87l-2.66.41a1.49,1.49,0,0,0-1.46,1.49,1.39,1.39,0,0,0,1.54,1.37A2.4,2.4,0,0,0,171.91,84.4Z"/><path class="cls-2" d="M178.24,89.17V71.8h3.19V89.17h-3.19Z"/><path class="cls-2" d="M186.57,85.29a2,2,0,0,0,2.16,1.8,1.31,1.31,0,0,0,1.56-1.18A1.27,1.27,0,0,0,189,84.76l-1.56-.36c-2.28-.5-3.31-1.87-3.31-3.53,0-2.11,1.87-3.86,4.42-3.86,3.36,0,4.49,2.14,4.63,3.41l-2.66.6a1.8,1.8,0,0,0-1.94-1.58,1.36,1.36,0,0,0-1.51,1.18,1.12,1.12,0,0,0,1.08,1.06L189.84,82c2.33,0.48,3.5,1.9,3.5,3.62,0,1.92-1.49,3.89-4.58,3.89-3.55,0-4.78-2.3-4.92-3.65Z"/><path class="cls-2" d="M206.44,85.79a5.32,5.32,0,0,1-5.38,3.74A6.27,6.27,0,0,1,200.78,77c3.65,0,5.83,2.33,5.83,6.12,0,0.46,0,.94,0,1h-8.45a2.88,2.88,0,0,0,3,2.69,2.61,2.61,0,0,0,2.69-1.8Zm-3-3.86a2.38,2.38,0,0,0-2.64-2.33,2.56,2.56,0,0,0-2.64,2.33h5.28Z"/><path class="cls-2" d="M5.4,112v1.3H8.06v2.74H5.4v9.07H2.18v-9.07h-2v-2.74h2V112a4.07,4.07,0,0,1,4.3-4.39,4.64,4.64,0,0,1,1.58.24v2.69a3.57,3.57,0,0,0-1-.12A1.5,1.5,0,0,0,5.4,112Z"/><path class="cls-2" d="M12.79,118.35l2.9-.43a0.84,0.84,0,0,0,.89-0.84c0-.84-0.65-1.54-2-1.54a2.1,2.1,0,0,0-2.26,1.92l-2.83-.6C9.7,115,11.4,113,14.57,113c3.74,0,5.14,2.11,5.14,4.49v5.81a13.26,13.26,0,0,0,.14,1.87H16.92a8,8,0,0,1-.12-1.42,4,4,0,0,1-3.48,1.75c-2.52,0-4.06-1.7-4.06-3.55C9.26,119.82,10.82,118.64,12.79,118.35Zm3.79,2v-0.53l-2.66.41a1.49,1.49,0,0,0-1.46,1.49A1.39,1.39,0,0,0,14,123.11,2.4,2.4,0,0,0,16.58,120.37Z"/><path class="cls-2" d="M22.92,125.15V107.77h3.19v17.38H22.92Z"/><path class="cls-2" d="M31.25,121.26a2,2,0,0,0,2.16,1.8A1.31,1.31,0,0,0,35,121.88a1.27,1.27,0,0,0-1.27-1.15l-1.56-.36c-2.28-.5-3.31-1.87-3.31-3.53,0-2.11,1.87-3.86,4.42-3.86,3.36,0,4.49,2.14,4.63,3.41l-2.66.6a1.8,1.8,0,0,0-1.94-1.58,1.36,1.36,0,0,0-1.51,1.18,1.12,1.12,0,0,0,1.08,1.06L34.51,118c2.33,0.48,3.5,1.9,3.5,3.63,0,1.92-1.49,3.89-4.58,3.89-3.55,0-4.78-2.3-4.92-3.65Z"/><path class="cls-2" d="M51.12,121.76a5.32,5.32,0,0,1-5.38,3.74A6.27,6.27,0,0,1,45.46,113c3.65,0,5.83,2.33,5.83,6.12,0,0.46,0,.94,0,1H42.79a2.88,2.88,0,0,0,3,2.69,2.61,2.61,0,0,0,2.69-1.8Zm-3-3.86a2.38,2.38,0,0,0-2.64-2.33,2.56,2.56,0,0,0-2.64,2.33h5.28Z"/><path class="cls-2" d="M59.45,117v-2.57H71.09V117H59.45Zm0,4.78v-2.59H71.09v2.59H59.45Z"/><path class="cls-2" d="M73.92,117v-2.57H85.56V117H73.92Zm0,4.78v-2.59H85.56v2.59H73.92Z"/><path class="cls-2" d="M88.39,117v-2.57H100V117H88.39Zm0,4.78v-2.59H100v2.59H88.39Z"/><path class="cls-2" d="M110.28,114.7a2.13,2.13,0,0,1-2.09-2.3,4.08,4.08,0,0,1,3.72-4.44v1.46a2.27,2.27,0,0,0-2,2,1,1,0,0,1,.5-0.12,1.55,1.55,0,0,1,1.7,1.66A1.78,1.78,0,0,1,110.28,114.7Zm4.73,0a2.13,2.13,0,0,1-2.09-2.3,4.08,4.08,0,0,1,3.72-4.44v1.46a2.27,2.27,0,0,0-2,2,1,1,0,0,1,.5-0.12,1.55,1.55,0,0,1,1.7,1.66A1.78,1.78,0,0,1,115,114.7Z"/><path class="cls-2" d="M123.26,112v1.3h2.66v2.74h-2.66v9.07H120v-9.07h-2v-2.74h2V112a4.07,4.07,0,0,1,4.3-4.39,4.64,4.64,0,0,1,1.58.24v2.69a3.57,3.57,0,0,0-1-.12A1.5,1.5,0,0,0,123.26,112Z"/><path class="cls-2" d="M130.65,118.35l2.9-.43a0.84,0.84,0,0,0,.89-0.84c0-.84-0.65-1.54-2-1.54a2.1,2.1,0,0,0-2.26,1.92l-2.83-.6c0.19-1.85,1.9-3.89,5.06-3.89,3.74,0,5.14,2.11,5.14,4.49v5.81a13.26,13.26,0,0,0,.14,1.87h-2.93a8,8,0,0,1-.12-1.42,4,4,0,0,1-3.48,1.75c-2.52,0-4.06-1.7-4.06-3.55C127.12,119.82,128.69,118.64,130.65,118.35Zm3.79,2v-0.53l-2.66.41a1.49,1.49,0,0,0-1.46,1.49,1.39,1.39,0,0,0,1.54,1.37A2.4,2.4,0,0,0,134.45,120.37Z"/><path class="cls-2" d="M140.78,125.15V107.77H144v17.38h-3.19Z"/><path class="cls-2" d="M149.11,121.26a2,2,0,0,0,2.16,1.8,1.31,1.31,0,0,0,1.56-1.18,1.27,1.27,0,0,0-1.27-1.15l-1.56-.36c-2.28-.5-3.31-1.87-3.31-3.53,0-2.11,1.87-3.86,4.42-3.86,3.36,0,4.49,2.14,4.63,3.41l-2.66.6a1.8,1.8,0,0,0-1.94-1.58,1.36,1.36,0,0,0-1.51,1.18,1.12,1.12,0,0,0,1.08,1.06l1.68,0.36c2.33,0.48,3.5,1.9,3.5,3.63,0,1.92-1.49,3.89-4.58,3.89-3.55,0-4.78-2.3-4.92-3.65Z"/><path class="cls-2" d="M169,121.76a5.32,5.32,0,0,1-5.38,3.74,6.27,6.27,0,0,1-.29-12.53c3.65,0,5.83,2.33,5.83,6.12,0,0.46,0,.94,0,1h-8.45a2.88,2.88,0,0,0,3,2.69,2.61,2.61,0,0,0,2.69-1.8Zm-3-3.86a2.38,2.38,0,0,0-2.64-2.33,2.56,2.56,0,0,0-2.64,2.33H166Z"/><path class="cls-2" d="M171.74,108a2.15,2.15,0,0,1,2.09,2.33,4.18,4.18,0,0,1-3.72,4.54v-1.46a2.32,2.32,0,0,0,2-2,1,1,0,0,1-.5.12,1.64,1.64,0,0,1-1.75-1.73A1.82,1.82,0,0,1,171.74,108Zm4.7,0a2.15,2.15,0,0,1,2.09,2.33,4.18,4.18,0,0,1-3.72,4.54v-1.46a2.32,2.32,0,0,0,2-2,1,1,0,0,1-.5.12,1.64,1.64,0,0,1-1.75-1.73A1.82,1.82,0,0,1,176.44,108Z"/><path class="cls-2" d="M194,125.36h-2.88l8.5-17.45h2.9Z"/><path class="cls-2" d="M204.09,125.36h-2.88l8.5-17.45h2.9Z"/><path class="cls-2" d="M217.68,112v1.3h2.66v2.74h-2.66v9.07h-3.22v-9.07h-2v-2.74h2V112a4.07,4.07,0,0,1,4.3-4.39,4.64,4.64,0,0,1,1.58.24v2.69a3.57,3.57,0,0,0-1-.12A1.5,1.5,0,0,0,217.68,112Z"/><path class="cls-2" d="M225.07,118.35l2.9-.43a0.84,0.84,0,0,0,.89-0.84c0-.84-0.65-1.54-2-1.54a2.1,2.1,0,0,0-2.26,1.92l-2.83-.6c0.19-1.85,1.9-3.89,5.06-3.89,3.75,0,5.14,2.11,5.14,4.49v5.81a13.18,13.18,0,0,0,.14,1.87H229.2a8,8,0,0,1-.12-1.42,4,4,0,0,1-3.48,1.75c-2.52,0-4.06-1.7-4.06-3.55C221.54,119.82,223.1,118.64,225.07,118.35Zm3.79,2v-0.53l-2.66.41a1.49,1.49,0,0,0-1.46,1.49,1.39,1.39,0,0,0,1.54,1.37A2.4,2.4,0,0,0,228.86,120.37Z"/><path class="cls-2" d="M235.2,125.15V107.77h3.19v17.38H235.2Z"/><path class="cls-2" d="M243.52,121.26a2,2,0,0,0,2.16,1.8,1.31,1.31,0,0,0,1.56-1.18,1.27,1.27,0,0,0-1.27-1.15l-1.56-.36c-2.28-.5-3.31-1.87-3.31-3.53,0-2.11,1.87-3.86,4.42-3.86,3.36,0,4.49,2.14,4.63,3.41l-2.66.6a1.8,1.8,0,0,0-1.94-1.58,1.36,1.36,0,0,0-1.51,1.18,1.12,1.12,0,0,0,1.08,1.06l1.68,0.36c2.33,0.48,3.5,1.9,3.5,3.63,0,1.92-1.49,3.89-4.58,3.89-3.55,0-4.78-2.3-4.92-3.65Z"/><path class="cls-2" d="M263.4,121.76A5.32,5.32,0,0,1,258,125.5a6.27,6.27,0,0,1-.29-12.53c3.65,0,5.83,2.33,5.83,6.12,0,0.46,0,.94,0,1h-8.45a2.88,2.88,0,0,0,3,2.69,2.61,2.61,0,0,0,2.69-1.8Zm-3-3.86a2.37,2.37,0,0,0-2.64-2.33,2.56,2.56,0,0,0-2.64,2.33h5.28Z"/><rect class="cls-1" x="210.66" y="45.51" width="139.82" height="2"/><polygon class="cls-1" points="212.12 41.52 203.48 46.51 212.12 51.5 212.12 41.52"/><rect class="cls-1" x="230.69" y="82.51" width="119.79" height="2"/><polygon class="cls-1" points="232.15 78.52 223.51 83.51 232.15 88.5 232.15 78.52"/><rect class="cls-1" x="284.16" y="117.66" width="66.32" height="2"/><polygon class="cls-1" points="285.62 113.68 276.98 118.66 285.62 123.65 285.62 113.68"/></svg>